<svg width="308" height="309" viewBox="0 0 308 309" fill="none" xmlns="http://www.w3.org/2000/svg">
<g filter="url(#filter0_f)">
<path fill-rule="evenodd" clip-rule="evenodd" d="M154 210.61C184.928 210.61 210 185.538 210 154.61C210 123.682 184.928 98.6099 154 98.6099C123.072 98.6099 98 123.682 98 154.61C98 185.538 123.072 210.61 154 210.61Z" fill="#224AFA"/>
<path d="M209.64 154.61C209.64 185.339 184.729 210.25 154 210.25C123.271 210.25 98.36 185.339 98.36 154.61C98.36 123.881 123.271 98.9699 154 98.9699C184.729 98.9699 209.64 123.881 209.64 154.61Z" stroke="#224AFA" stroke-width="0.72"/>
</g>
<path fill-rule="evenodd" clip-rule="evenodd" d="M240.086 151.62C225.32 172.945 187.179 175.166 148.563 155.52C109.935 135.651 89.206 103.005 97.9844 78.4198C94.9297 84.1644 91.0878 91.9608 89.255 95.4076C75.6615 122.032 91.9503 159.602 134.946 181.699C177.93 203.573 221.627 196.37 231.322 167.939L240.086 151.62Z" fill="#EEEEEE"/>
<g opacity="0.8">
<path fill-rule="evenodd" clip-rule="evenodd" d="M102.555 157.036L115.749 131.326C106.756 121.968 100.629 111.789 98.0955 101.87L86.1234 125.282C88.0228 135.905 93.5271 147.01 102.555 157.036Z" fill="url(#paint0_linear)"/>
<path fill-rule="evenodd" clip-rule="evenodd" d="M96.4435 87.4359C96.7378 84.5165 97.2553 81.5854 98.219 78.6309C95.1644 84.3755 91.3224 92.1719 89.4896 95.6186C87.2456 99.7571 85.9175 104.294 85.2704 109.019L96.4435 87.4359Z" fill="url(#paint1_linear)"/>
<path fill-rule="evenodd" clip-rule="evenodd" d="M137.012 182.708C150.796 189.581 164.64 193.324 177.451 194.44L190.633 168.507C178.034 167.156 164.401 163.179 150.394 156.317L137.012 182.708Z" fill="url(#paint2_linear)"/>
<path fill-rule="evenodd" clip-rule="evenodd" d="M210.109 190.049C214.489 188.255 218.388 185.817 221.806 182.734L234.378 157.95C231.171 160.799 227.26 163.014 223.103 164.796L210.109 190.049Z" fill="url(#paint3_linear)"/>
</g>
<path fill-rule="evenodd" clip-rule="evenodd" d="M242.706 146.122C233.798 172.501 191.37 178.297 148.386 156.423C105.625 134.537 85.0625 96.521 101.109 74.0121C115.687 53.3672 155.707 52.8349 191.575 71.2845C227.433 89.5113 250.627 122.251 242.706 146.122Z" fill="white"/>
<path fill-rule="evenodd" clip-rule="evenodd" d="M240.863 145.101L221.549 135.167C223.723 129.692 223.396 123.454 221.061 117.321L239.32 119.939C235.952 111.18 229.884 102.116 221.631 94.0594L208.665 98.536C202.984 92.5788 195.763 87.1489 187.474 82.6685L192.538 72.5743C192.08 72.3749 191.622 72.1755 191.153 71.7533C180.116 66.0765 168.727 62.2053 157.889 60.3156L161.936 73.5068C153.13 71.9576 144.863 72.1672 138.016 73.8661L125.244 60.6851C115.743 62.9697 107.933 67.6231 102.929 74.5868L122.243 84.5212V84.5212C118.719 89.8437 118.165 96.3509 119.866 103.187L98.683 100.275C100.994 110.207 106.909 120.619 115.937 130.646L132.636 124.857C138.565 131.248 146.466 136.865 155.671 141.744C156.129 141.944 156.821 142.354 157.279 142.554L150.606 156.083C164.39 162.956 178.234 166.699 190.821 167.827L185.683 150.895C194.677 151.764 202.674 150.675 209.016 147.886L223.914 163.19C232.205 159.181 238.148 153.062 240.863 145.101Z" fill="url(#paint4_linear)"/>
<path fill-rule="evenodd" clip-rule="evenodd" d="M218.109 133.56C211.587 149.985 184.003 152.993 157.104 139.212C129.982 125.442 116.191 101.369 125.695 86.3507C134.576 72.259 160.939 71.5484 185.079 83.9107C209.206 96.0503 224.231 118.049 218.109 133.56Z" stroke="white" stroke-width="1.39666" stroke-dasharray="8.29 8.29"/>
<path fill-rule="evenodd" clip-rule="evenodd" d="M214.892 131.941C208.758 147.229 183.17 149.91 158.115 137.149C133.059 124.388 120.254 102.049 128.924 88.1922C137.182 75.0266 161.748 74.1868 184.279 85.7398C206.799 97.07 220.626 117.568 214.892 131.941Z" fill="white"/>
<path fill-rule="evenodd" clip-rule="evenodd" d="M161.206 129.857C179.873 138.289 199.077 136.637 204.096 125.665C209.119 114.687 197.739 99.214 179.068 90.7805C160.401 82.3487 141.197 84.0006 136.178 94.972C131.155 105.95 142.535 121.423 161.206 129.857ZM162.288 127.459C144.769 119.546 134.325 105.345 138.57 96.0667C142.818 86.781 160.463 85.2631 177.986 93.1781C195.505 101.091 205.949 115.292 201.704 124.57C197.456 133.856 179.811 135.374 162.288 127.459Z" fill="#F5A623"/>
<path d="M187.356 117.37L154.437 107.244L155.983 102.215L188.902 112.341L187.356 117.37Z" fill="#F5A623"/>
<defs>
<filter id="filter0_f" x="0.141861" y="0.751724" width="307.716" height="307.716" filterUnits="userSpaceOnUse" color-interpolation-filters="sRGB">
<feFlood flood-opacity="0" result="BackgroundImageFix"/>
<feBlend mode="normal" in="SourceGraphic" in2="BackgroundImageFix" result="shape"/>
<feGaussianBlur stdDeviation="48.9291" result="effect1_foregroundBlur"/>
</filter>
<linearGradient id="paint0_linear" x1="114.16" y1="101.028" x2="84.9318" y2="102.561" gradientUnits="userSpaceOnUse">
<stop stop-color="#FAD961"/>
<stop offset="1" stop-color="#F76B1C"/>
</linearGradient>
<linearGradient id="paint1_linear" x1="98.219" y1="78.6309" x2="83.7166" y2="79.3914" gradientUnits="userSpaceOnUse">
<stop stop-color="#FAD961"/>
<stop offset="1" stop-color="#F76B1C"/>
</linearGradient>
<linearGradient id="paint2_linear" x1="189.885" y1="154.249" x2="135.669" y2="157.092" gradientUnits="userSpaceOnUse">
<stop stop-color="#FAD961"/>
<stop offset="1" stop-color="#F76B1C"/>
</linearGradient>
<linearGradient id="paint3_linear" x1="234.378" y1="157.95" x2="208.497" y2="159.307" gradientUnits="userSpaceOnUse">
<stop stop-color="#FAD961"/>
<stop offset="1" stop-color="#F76B1C"/>
</linearGradient>
<linearGradient id="paint4_linear" x1="262.335" y1="34.3667" x2="74.619" y2="44.2109" gradientUnits="userSpaceOnUse">
<stop stop-color="#FAD961"/>
<stop offset="1" stop-color="#F76B1C"/>
</linearGradient>
</defs>
</svg>
