<?xml version="1.0" encoding="UTF-8"?>
<svg width="293px" height="39px" viewBox="0 0 293 39" version="1.1" xmlns="http://www.w3.org/2000/svg" xmlns:xlink="http://www.w3.org/1999/xlink">
    <!-- Generator: Sketch 54.1 (76490) - https://sketchapp.com -->
    <title>logo</title>
    <desc>Created with Sketch.</desc>
    <defs>
        <linearGradient x1="50%" y1="0%" x2="50%" y2="100%" id="linearGradient-1">
            <stop stop-color="#FAD961" offset="0%"></stop>
            <stop stop-color="#F76B1C" offset="100%"></stop>
        </linearGradient>
        <linearGradient x1="50%" y1="0%" x2="50%" y2="100%" id="linearGradient-2">
            <stop stop-color="#FAD961" offset="0%"></stop>
            <stop stop-color="#F76B1C" offset="100%"></stop>
        </linearGradient>
        <linearGradient x1="50%" y1="0%" x2="50%" y2="100%" id="linearGradient-3">
            <stop stop-color="#FAD961" offset="0%"></stop>
            <stop stop-color="#F76B1C" offset="100%"></stop>
        </linearGradient>
        <linearGradient x1="50%" y1="0%" x2="50%" y2="100%" id="linearGradient-4">
            <stop stop-color="#FAD961" offset="0%"></stop>
            <stop stop-color="#F76B1C" offset="100%"></stop>
        </linearGradient>
        <linearGradient x1="50%" y1="-19.5087262%" x2="50%" y2="115.106885%" id="linearGradient-5">
            <stop stop-color="#FAD961" offset="0%"></stop>
            <stop stop-color="#F76B1C" offset="100%"></stop>
        </linearGradient>
    </defs>
    <g id="wireframe-+-design" stroke="none" stroke-width="1" fill="none" fill-rule="evenodd">
        <g id="01-Finish-v.1" transform="translate(-119.000000, -31.000000)">
            <g id="block-01">
                <g id="header">
                    <g id="logo" transform="translate(107.000000, 22.000000)">
                        <text id="CNG-token" font-family="DrukTextWide-Medium, Druk Text Wide" font-size="30" font-style="expanded" font-weight="400" fill="#FFFFFF">
                            <tspan x="64" y="40">CNG TOKEN</tspan>
                        </text>
                        <g id="coin/02" transform="translate(28.000000, 28.500000) rotate(155.000000) translate(-28.000000, -28.500000) translate(8.000000, 7.000000)">
                            <g transform="translate(19.916730, 21.550923) rotate(12.000000) translate(-19.916730, -21.550923) translate(3.676935, 3.064112)" id="Group">
                                <g>
                                    <g id="Path">
                                        <path d="M23.0950564,1.21208322 C27.8759038,4.90782164 27.9278696,13.8088254 22.8871935,22.5536713 C17.7945517,31.2985171 9.947726,35.7229927 4.33542686,33.3806232 C5.63457018,34.1614131 7.40140509,35.1504135 8.18089109,35.6188874 C14.2089161,39.1064152 23.1470221,35.7750453 28.811287,26.0411991 C34.4235862,16.3073528 33.2803401,6.05298002 26.7846234,3.45034733 L23.0950564,1.21208322 Z" fill="#EEEEEE"></path>
                                        <g opacity="0.8" transform="translate(4.379969, 2.602633)">
                                            <path d="M18.2993616,30.6738852 L12.4791996,27.2904628 C10.1927073,29.2684636 7.75031787,30.5697799 5.41185989,31.0382538 L10.7123646,34.1093604 C13.2067198,33.7970445 15.8569722,32.6518861 18.2993616,30.6738852 Z" fill="url(#linearGradient-1)"></path>
                                            <path d="M2.03408726,31.2464644 C1.35853273,31.1423591 0.682978203,30.9862012 0.00742367628,30.7259379 C1.306567,31.5067277 3.07340191,32.4957281 3.85288791,32.964202 C4.7882711,33.5367812 5.82758576,33.9011498 6.91886615,34.1093604 L2.03408726,31.2464644 Z" fill="url(#linearGradient-2)"></path>
                                            <path d="M24.6911468,22.9700925 C26.4579817,19.8469333 27.4972964,16.6717214 27.9130222,13.7047201 L22.0408944,10.3212976 C21.5732028,13.2362462 20.4819224,16.3594055 18.7150875,19.5346173 L24.6911468,22.9700925 Z" fill="url(#linearGradient-3)"></path>
                                            <path d="M27.2894334,6.05298002 C26.9256733,5.01192695 26.406016,4.07497918 25.7304614,3.24213672 L20.1181623,0.0148721868 C20.7417511,0.795661993 21.2094427,1.73260976 21.5732028,2.72161018 L27.2894334,6.05298002 Z" fill="url(#linearGradient-4)"></path>
                                        </g>
                                        <path d="M21.8478788,0.535398724 C27.8759038,2.9298208 28.7073556,12.8718777 23.0950564,22.6057239 C17.4827573,32.2875175 8.38875402,36.6078878 3.34807793,32.5998334 C-1.27687229,28.9561477 -0.913112163,19.6387227 3.81576953,11.5185087 C8.49268548,3.39829468 16.3914769,-1.59876008 21.8478788,0.535398724 Z" fill="#FFFFFF"></path>
                                        <path d="M21.5880502,0.951819954 L19.0417293,5.32424287 C17.7945517,4.75166368 16.3395111,4.75166368 14.8844706,5.22013756 L15.7159224,1.00387261 C13.637293,1.68055711 11.4547323,2.98187345 9.48003441,4.80371633 L10.3634519,7.8748229 C8.90841135,9.12408659 7.55730229,10.7377189 6.41405617,12.6116144 L4.12756392,11.3102981 C4.07559819,11.4144034 4.02363246,11.5185087 3.91970099,11.622614 C2.46466047,14.1211414 1.42534582,16.723774 0.853722754,19.2223014 L3.97166673,18.4415116 C3.50397513,20.4715651 3.4520094,22.3975133 3.76380379,24.0111456 L0.541928357,26.8219889 C0.95765422,29.060253 1.94500314,30.9341485 3.50397513,32.1834122 L6.05029604,27.8109893 C6.05029604,27.8109893 6.05029604,27.8109893 6.05029604,27.8109893 C7.2455079,28.6958844 8.75251415,28.904095 10.3634519,28.5917791 L9.42806868,33.4847286 C11.7665267,33.0683073 14.2608818,31.8190436 16.7032713,29.8410428 L15.5600252,25.8850411 C17.1189971,24.5837248 18.5220719,22.8139345 19.7692495,20.7318284 C19.8212152,20.6277231 19.9251467,20.4715651 19.9771124,20.3674598 L23.0430907,22.0851974 C24.8099256,18.9620382 25.8492403,15.7868263 26.2649661,12.8718777 L22.2636047,13.8608781 C22.5753991,11.7787719 22.4195019,9.9048764 21.8478788,8.39534944 L25.5894116,5.11603225 C24.7579599,3.13803141 23.4068508,1.68055711 21.5880502,0.951819954 Z" fill="url(#linearGradient-5)"></path>
                                        <path d="M18.6260034,6.10503268 C22.3675362,7.82277025 22.7312963,14.2772993 19.1976265,20.3674598 C15.6639566,26.5096729 9.89576027,29.4246216 6.51798764,27.0301995 C3.34807793,24.7919354 3.50397513,18.6497222 6.67388483,13.1841936 C9.79182881,7.71866494 15.0923336,4.49140041 18.6260034,6.10503268 Z" stroke="#FFFFFF" stroke-width="0.5" stroke-dasharray="1.693836351351064,1.693836351351064"></path>
                                        <path d="M18.2102775,6.83376983 C21.6919816,8.4474021 22.003776,14.4334573 18.7299349,20.1071965 C15.4560937,25.7809358 10.1036232,28.4876738 6.98567923,26.3014623 C4.02363246,24.2193562 4.12756392,18.4935643 7.0896107,13.3924042 C9.99969174,8.29124413 14.9364364,5.32424287 18.2102775,6.83376983 Z" fill="#FFFFFF"></path>
                                    </g>
                                </g>
                                <g transform="translate(12.635059, 16.982651) scale(-1, 1) rotate(-52.000000) translate(-12.635059, -16.982651) translate(4.872641, 7.381766)" fill="#F5A623" fill-rule="nonzero">
                                    <path d="M16.4440594,9.62023968 C16.4368797,6.80954762 12.5229415,4.60768659 7.75115318,4.59621337 C2.97845045,4.58473795 -0.926408271,6.76899133 -0.919223893,9.5815305 C-0.912044233,12.3922226 3.00189398,14.5940836 7.77368229,14.6055568 C12.546385,14.6170322 16.4512437,12.4327788 16.4440594,9.62023968 Z M-0.30640344,9.57996511 C-0.312475316,7.20294805 3.27135729,5.19826644 7.74967972,5.20903405 C12.2289166,5.21980386 15.8251623,7.2429409 15.8312389,9.62180507 C15.8373108,11.9988221 12.2534782,14.0035037 7.77515575,13.9927361 C3.2959189,13.9819663 -0.300326846,11.9588293 -0.30640344,9.57996511 Z" id="Oval" transform="translate(7.762418, 9.600885) rotate(-65.441762) translate(-7.762418, -9.600885) "></path>
                                    <polygon id="Path-2" points="9.71242143 5.7295277 5.4715897 12.5409694 6.51205333 13.1887664 10.7528851 6.37732465"></polygon>
                                </g>
                            </g>
                        </g>
                    </g>
                </g>
            </g>
        </g>
    </g>
</svg>