<svg width="254" height="24" viewBox="0 0 254 24" fill="none" xmlns="http://www.w3.org/2000/svg">
<path d="M12.9688 23.33C9.80883 23.33 7.18883 22.7 5.10883 21.44C3.30883 20.38 1.98883 18.94 1.14883 17.12C0.428828 15.6 0.0688282 13.97 0.0688282 12.23V11.33C0.0688282 9.55 0.428828 7.91 1.14883 6.41C2.02883 4.59 3.34883 3.17 5.10883 2.15C7.20883 0.949998 9.82883 0.349998 12.9688 0.349998H14.3488C18.6688 0.349998 21.9188 1.29 24.0988 3.17C25.0388 3.97 25.7288 4.89 26.1688 5.93C26.6088 6.97 26.8288 8.05 26.8288 9.17V9.23H20.4688C20.4288 9.05 20.3388 8.76 20.1988 8.36C20.0188 7.9 19.6788 7.46 19.1788 7.04C18.6788 6.6 18.0188 6.23 17.1988 5.93C16.3588 5.61 15.1788 5.45 13.6588 5.45C11.1188 5.45 9.23883 6.08 8.01883 7.34C7.49883 7.88 7.10883 8.52 6.84883 9.26C6.60883 9.98 6.48883 10.73 6.48883 11.51V11.93C6.48883 12.67 6.60883 13.41 6.84883 14.15C7.10883 14.87 7.50883 15.52 8.04883 16.1C9.30883 17.5 11.1888 18.2 13.6888 18.2C16.2088 18.2 18.0788 17.63 19.2988 16.49C19.6988 16.09 19.9888 15.69 20.1688 15.29C20.3488 14.89 20.4488 14.55 20.4688 14.27H26.8288V14.36C26.8288 15.44 26.6088 16.51 26.1688 17.57C25.7488 18.61 25.0788 19.54 24.1588 20.36C23.1188 21.28 21.7788 22.01 20.1388 22.55C18.5188 23.07 16.5888 23.33 14.3488 23.33H12.9688ZM52.6139 23L39.2939 8.54V23H33.2639V0.679999H39.6239L52.6739 15.05V0.679999H58.6739V23H52.6139ZM78.1414 23.33C75.0414 23.33 72.4714 22.73 70.4314 21.53C68.6114 20.51 67.2614 19.09 66.3814 17.27C65.6014 15.73 65.2114 14.03 65.2114 12.17V11.36C65.2114 9.56 65.5914 7.91 66.3514 6.41C67.2514 4.59 68.5914 3.17 70.3714 2.15C72.4714 0.969999 75.1014 0.38 78.2614 0.38H79.2814C83.7214 0.38 87.0714 1.24 89.3314 2.96C90.2914 3.68 90.9914 4.51 91.4314 5.45C91.8714 6.37 92.0914 7.32 92.0914 8.3V8.36H85.7014L85.3414 7.64C84.9214 6.86 83.9014 6.24 82.2814 5.78C81.4214 5.54 80.2614 5.42 78.8014 5.42C76.2614 5.42 74.3814 6.06 73.1614 7.34C72.1414 8.42 71.6314 9.81 71.6314 11.51V11.9C71.6314 12.68 71.7614 13.45 72.0214 14.21C72.2814 14.95 72.6914 15.61 73.2514 16.19C74.5914 17.59 76.5114 18.29 79.0114 18.29C81.2514 18.29 82.9914 17.79 84.2314 16.79C84.6914 16.41 85.0314 16.02 85.2514 15.62C85.4114 15.26 85.5114 14.99 85.5514 14.81H79.4914V10.82H92.3614V23H87.4414C87.4214 22.74 87.3314 22.21 87.1714 21.41C87.0114 20.79 86.8514 20.29 86.6914 19.91C86.5314 20.11 86.2914 20.37 85.9714 20.69C85.0314 21.63 83.7214 22.36 82.0414 22.88C81.0814 23.18 79.9414 23.33 78.6214 23.33H78.1414ZM117.452 23V5.78H108.812V0.679999H132.242V5.78H123.602V23H117.452ZM151.361 0.319999C153.841 0.319999 155.961 0.649999 157.721 1.31C159.481 1.95 160.901 2.84 161.981 3.98C162.941 5 163.641 6.15 164.081 7.43C164.541 8.71 164.771 10.01 164.771 11.33V12.23C164.771 13.53 164.541 14.83 164.081 16.13C163.641 17.41 162.941 18.56 161.981 19.58C160.881 20.76 159.451 21.69 157.691 22.37C155.931 23.03 153.821 23.36 151.361 23.36H150.041C146.821 23.36 144.121 22.75 141.941 21.53C140.041 20.47 138.661 19.04 137.801 17.24C137.021 15.7 136.631 14.03 136.631 12.23V11.33C136.631 9.53 137.021 7.86 137.801 6.32C138.681 4.52 140.061 3.11 141.941 2.09C144.101 0.909999 146.801 0.319999 150.041 0.319999H151.361ZM158.351 11.57C158.351 9.89 157.861 8.52 156.881 7.46C155.621 6.1 153.561 5.42 150.701 5.42C147.901 5.42 145.851 6.1 144.551 7.46C143.551 8.52 143.051 9.89 143.051 11.57V11.99C143.051 12.73 143.171 13.46 143.411 14.18C143.651 14.9 144.041 15.54 144.581 16.1C145.901 17.52 147.941 18.23 150.701 18.23C153.541 18.23 155.601 17.52 156.881 16.1C157.861 15.04 158.351 13.67 158.351 11.99V11.57ZM177.471 23H171.291V0.679999H177.471V9.86L187.911 0.679999H195.771L184.011 10.91L196.281 23H188.211L177.471 12.5V23ZM200.977 0.679999H221.407V5.54H207.067V9.17H220.957V14.21H207.067V18.08H221.587V23H200.977V0.679999ZM247.874 23L234.554 8.54V23H228.524V0.679999H234.884L247.934 15.05V0.679999H253.934V23H247.874Z" fill="white"/>
</svg>
