<?xml version="1.0" encoding="UTF-8"?>
<svg width="298px" height="50px" viewBox="0 0 298 50" version="1.1" xmlns="http://www.w3.org/2000/svg" xmlns:xlink="http://www.w3.org/1999/xlink">
    <!-- Generator: Sketch 54.1 (76490) - https://sketchapp.com -->
    <title>logo</title>
    <desc>Created with Sketch.</desc>
    <defs>
        <linearGradient x1="50%" y1="0%" x2="50%" y2="100%" id="linearGradient-1">
            <stop stop-color="#FAD961" offset="0%"></stop>
            <stop stop-color="#F76B1C" offset="100%"></stop>
        </linearGradient>
        <linearGradient x1="50%" y1="0%" x2="50%" y2="100%" id="linearGradient-2">
            <stop stop-color="#FAD961" offset="0%"></stop>
            <stop stop-color="#F76B1C" offset="100%"></stop>
        </linearGradient>
        <linearGradient x1="50%" y1="0%" x2="50%" y2="100%" id="linearGradient-3">
            <stop stop-color="#FAD961" offset="0%"></stop>
            <stop stop-color="#F76B1C" offset="100%"></stop>
        </linearGradient>
        <linearGradient x1="50%" y1="0%" x2="50%" y2="100%" id="linearGradient-4">
            <stop stop-color="#FAD961" offset="0%"></stop>
            <stop stop-color="#F76B1C" offset="100%"></stop>
        </linearGradient>
        <linearGradient x1="50%" y1="-19.5087262%" x2="50%" y2="115.106885%" id="linearGradient-5">
            <stop stop-color="#FAD961" offset="0%"></stop>
            <stop stop-color="#F76B1C" offset="100%"></stop>
        </linearGradient>
    </defs>
    <g id="wireframe-+-design" stroke="none" stroke-width="1" fill="none" fill-rule="evenodd">
        <g id="01-Finish-v.1" transform="translate(-121.000000, -25.000000)">
            <g id="block-01">
                <g id="header">
                    <g id="logo" transform="translate(121.000000, 25.000000)">
                        <path d="M72.8648649,36.9700521 C69.7134559,36.9700521 67.100618,36.3411521 65.0262728,35.0833333 C63.2311664,34.0251683 61.9147748,32.5876827 61.0770585,30.7708333 C60.3590159,29.2534646 60,27.6263108 60,25.8893229 L60,24.9908854 C60,23.2139668 60.3590159,21.5768304 61.0770585,20.0794271 C61.954666,18.2625777 63.2710576,16.8450572 65.0262728,15.8268229 C67.1205636,14.6289003 69.7334015,14.0299479 72.8648649,14.0299479 L74.2411062,14.0299479 C78.5493616,14.0299479 81.7904773,14.9683066 83.9645506,16.8450521 C84.901995,17.6436672 85.5901088,18.5620608 86.0289126,19.6002604 C86.4677164,20.6384601 86.687115,21.7165743 86.687115,22.8346354 L86.687115,22.8945312 L80.3444375,22.8945312 C80.3045462,22.7148429 80.2147922,22.4253492 80.0751728,22.0260417 C79.8956622,21.566838 79.5565916,21.122615 79.057951,20.6933594 C78.5593103,20.2641038 77.9011145,19.8997411 77.0833438,19.6002604 C76.2456275,19.2808144 75.0688532,19.1210938 73.5529855,19.1210938 C71.019891,19.1210938 69.1450302,19.7499937 67.928347,21.0078125 C67.4097607,21.5468777 67.0258131,22.1807689 66.7764928,22.9095052 C66.5271724,23.6382415 66.4025141,24.3919232 66.4025141,25.1705729 L66.4025141,25.5898438 C66.4025141,26.3285627 66.5271724,27.0622793 66.7764928,27.7910156 C67.0258131,28.5197519 67.4197333,29.1736082 67.9582652,29.7526042 C69.2148397,31.1501806 71.0897005,31.8489583 73.5829038,31.8489583 C76.0960528,31.8489583 77.9609409,31.2799536 79.1776241,30.1419271 C79.5765367,29.7426195 79.8657439,29.343318 80.0452546,28.9440104 C80.2247652,28.5447029 80.3244918,28.2052965 80.3444375,27.9257812 L86.687115,27.9257812 L86.687115,28.015625 C86.687115,29.0937554 86.4727028,30.1568958 86.0438718,31.2050781 C85.6150408,32.2532604 84.941886,33.1866279 84.0243872,34.0052083 C82.9872146,34.9236157 81.655864,35.6473498 80.0302954,36.1764323 C78.4047268,36.7055148 76.4750164,36.9700521 74.2411062,36.9700521 L72.8648649,36.9700521 Z M110.412319,36.640625 L97.1285984,22.2057292 L97.1285984,36.640625 L91.115022,36.640625 L91.115022,14.359375 L97.4576996,14.359375 L110.472156,28.7044271 L110.472156,14.359375 L116.455814,14.359375 L116.455814,36.640625 L110.412319,36.640625 Z M133.868259,36.9700521 C130.776687,36.9700521 128.213712,36.3710997 126.179258,35.1731771 C124.364206,34.1549428 123.017897,32.7374223 122.140289,30.9205729 C121.36241,29.3832388 120.973476,27.6862072 120.973476,25.8294271 L120.973476,25.0208333 C120.973476,23.2239493 121.352437,21.5768304 122.110371,20.0794271 C123.007924,18.2625777 124.344261,16.8450572 126.119422,15.8268229 C128.213713,14.6488656 130.836523,14.0598958 133.987932,14.0598958 L135.005154,14.0598958 C139.433083,14.0598958 142.773925,14.9183942 145.027781,16.6354167 C145.985171,17.3541703 146.683258,18.1777297 147.122062,19.1061198 C147.560865,20.0345099 147.780264,20.9878423 147.780264,21.9661458 L147.780264,22.0260417 L141.407668,22.0260417 L141.048649,21.3072917 C140.62979,20.5286419 139.612579,19.9097245 137.996983,19.4505208 C137.139321,19.2109363 135.982492,19.0911458 134.526461,19.0911458 C131.993367,19.0911458 130.118506,19.7300283 128.901823,21.0078125 C127.884596,22.0859429 127.37599,23.4735158 127.37599,25.1705729 L127.37599,25.5598958 C127.37599,26.3385456 127.505635,27.1022098 127.764928,27.8509115 C128.024221,28.5996131 128.4331,29.263452 128.991578,29.8424479 C130.327935,31.2400243 132.242686,31.9388021 134.735889,31.9388021 C136.9698,31.9388021 138.705043,31.4396751 139.941672,30.4414062 C140.400421,30.0620641 140.739492,29.6727451 140.958894,29.2734375 C141.118459,28.9140607 141.218185,28.6445321 141.258077,28.4648438 L135.214582,28.4648438 L135.214582,24.4817708 L148.049529,24.4817708 L148.049529,36.640625 L143.142929,36.640625 C143.122983,36.3810751 143.033229,35.8520005 142.873664,35.0533854 C142.714099,34.4344587 142.554537,33.9353318 142.394972,33.5559896 C142.235407,33.7556434 141.996063,34.0151894 141.676933,34.3346354 C140.739488,35.2730082 139.433069,36.0017335 137.757637,36.5208333 C136.800247,36.820314 135.663363,36.9700521 134.346952,36.9700521 L133.868259,36.9700521 Z M169.082087,36.640625 L169.082087,19.4505208 L160.465619,19.4505208 L160.465619,14.359375 L183.831804,14.359375 L183.831804,19.4505208 L175.215336,19.4505208 L175.215336,36.640625 L169.082087,36.640625 Z M201.663105,14 C204.136363,14 206.250567,14.3244325 208.005783,14.9733073 C209.760998,15.6221821 211.177116,16.5156193 212.25418,17.6536458 C213.21157,18.6718801 213.914643,19.8198721 214.363419,21.0976562 C214.812196,22.3754404 215.036581,23.6731705 215.036581,24.9908854 L215.036581,25.8893229 C215.036581,27.1870725 214.812196,28.4798113 214.363419,29.7675781 C213.914643,31.055345 213.21157,32.2083282 212.25418,33.2265625 C211.15717,34.4045198 209.731079,35.3279046 207.975864,35.9967448 C206.220649,36.6655849 204.116417,37 201.663105,37 L200.3467,37 C197.135454,37 194.442835,36.3910651 192.268762,35.1731771 C190.373927,34.1150121 188.9977,32.687509 188.140038,30.890625 C187.362158,29.3532909 186.973224,27.6862069 186.973224,25.8893229 L186.973224,24.9908854 C186.973224,23.1940014 187.362158,21.5269174 188.140038,19.9895833 C189.017645,18.1926993 190.393873,16.7851613 192.268762,15.7669271 C194.422889,14.5889698 197.115509,14 200.3467,14 L201.663105,14 Z M208.634067,25.2304688 C208.634067,23.553377 208.145406,22.1857692 207.16807,21.1276042 C205.911496,19.7699585 203.857127,19.0911458 201.004903,19.0911458 C198.212515,19.0911458 196.168119,19.7699585 194.871653,21.1276042 C193.874372,22.1857692 193.375739,23.553377 193.375739,25.2304688 L193.375739,25.6497396 C193.375739,26.3884586 193.49541,27.1171839 193.734758,27.8359375 C193.974106,28.5546911 194.363039,29.1935736 194.901571,29.7526042 C196.217983,31.170146 198.252406,31.8789062 201.004903,31.8789062 C203.837182,31.8789062 205.89155,31.170146 207.16807,29.7526042 C208.145406,28.6944392 208.634067,27.3268313 208.634067,25.6497396 L208.634067,25.2304688 Z M225.71741,36.640625 L219.554243,36.640625 L219.554243,14.359375 L225.71741,14.359375 L225.71741,23.5234375 L236.128975,14.359375 L243.967568,14.359375 L232.239598,24.5716146 L244.476179,36.640625 L236.428158,36.640625 L225.71741,26.1588542 L225.71741,36.640625 Z M247.168825,14.359375 L267.54318,14.359375 L267.54318,19.2109375 L253.242238,19.2109375 L253.242238,22.8346354 L267.094406,22.8346354 L267.094406,27.8658854 L253.242238,27.8658854 L253.242238,31.7291667 L267.72269,31.7291667 L267.72269,36.640625 L247.168825,36.640625 L247.168825,14.359375 Z M291.956505,36.640625 L278.672784,22.2057292 L278.672784,36.640625 L272.659208,36.640625 L272.659208,14.359375 L279.001886,14.359375 L292.016342,28.7044271 L292.016342,14.359375 L298,14.359375 L298,36.640625 L291.956505,36.640625 Z" id="CNGTOKEN" fill="#FFFFFF" fill-rule="nonzero"></path>
                        <g id="coin/02-New">
                            <g id="Group">
                                <path d="M16.4696514,49.3686007 L11.0470188,47.5812232 C1.898348,46.1593012 -2.62746807,33.2799752 1.71065712,19.0610591 C6.11577476,4.82667644 16.646969,-2.12823699 25.4560768,0.573659432 C26.6003942,0.945603587 29.1724911,1.6947307 31.0796867,2.31463762 C23.147349,0.965308888 14.3483344,9.00462196 10.38578,21.7938883 C6.49021817,34.5676883 9.20639315,46.027092 16.4696514,49.3686007 Z" id="Path" fill="#EEEEEE"></path>
                                <path d="M7.46233698,7.9084948 C10.0222748,4.63160166 13.0980592,2.36651487 16.220743,1.22149943 L23.9680181,3.60308977 C21.0927886,4.90301945 18.3314509,7.30755404 15.9724904,10.5380479 L7.46233698,7.9084948 Z" id="Path" fill="url(#linearGradient-1)"></path>
                                <path d="M28.2605581,2.3293541 L21.1111917,0.0924503733 C22.5800023,0.0360734556 24.0282973,0.196476475 25.4045767,0.656230362 C26.5488941,1.02817452 29.1209909,1.77730163 31.0281866,2.39720855 C30.0798233,2.26274956 29.1624445,2.26249958 28.2605581,2.3293541 Z" id="Path" fill="url(#linearGradient-2)"></path>
                                <path d="M1.51512554,19.7423317 L10.2417486,22.3925901 C8.90903539,27.0118233 8.4317317,31.3628884 8.6963682,35.2599385 L0.119222317,32.6458518 C-0.227898936,28.6971637 0.166920012,24.2944604 1.51512554,19.7423317 Z" id="Path" fill="url(#linearGradient-3)"></path>
                                <path d="M3.20049913,42.3246168 L11.5611754,44.9179982 C12.3244761,46.0847188 13.2062695,47.1534021 14.2425633,47.9743725 L6.04685654,45.4842672 C4.92807798,44.6116587 3.97929218,43.5584419 3.20049913,42.3246168 Z" id="Path" fill="url(#linearGradient-4)"></path>
                                <path d="M18.27887,49.869765 C9.79510037,48.5770632 5.76419276,36.0075657 10.102318,21.7886495 C14.4559354,7.63683784 24.8937534,-0.639460442 32.5849277,3.0273431 C39.6317163,6.34814652 41.93589,18.4681177 38.2563753,30.343865 C34.643853,42.204146 25.9482612,50.997075 18.27887,49.869765 Z" id="Path" fill="#FFFFFF"></path>
                                <path d="M18.4898939,49.2555968 C15.928266,48.8574587 13.7526781,47.3806596 12.0920917,45.0781513 L15.9395334,39.7369849 C14.7533399,37.961085 13.9946399,35.5917221 13.7769028,32.8147434 L8.91283785,35.2806437 C8.58120889,31.3990601 8.97602784,26.9963568 10.3242334,22.4442281 L14.7880336,23.7461577 C14.8240414,23.5964822 14.9115494,23.3642359 14.9475573,23.2145604 C15.9356842,20.1591861 17.2177423,17.4600394 18.8402084,15.3184341 L16.1889601,10.5587531 C18.7488979,7.28186 21.5927203,4.92896348 24.4834422,3.69613831 L24.7338539,10.2823573 C26.717666,9.40027113 28.7224162,9.2201628 30.5266115,10.0052116 L32.5078887,3.61057841 C34.8894772,4.75709374 36.7200564,6.8789938 37.9221647,9.64075607 L34.6052168,14.2233177 C35.4874327,16.2107587 35.9936552,18.7090918 35.9949226,21.4653653 L39.7820851,19.5308122 C39.7887984,22.9219591 39.2235642,26.5865128 38.0914058,30.2405889 C37.9884055,30.4057307 37.9523976,30.5554062 37.9163898,30.7050816 L34.5814147,29.7079917 C33.6653034,32.4640152 32.4037609,34.9463819 30.8997875,36.9899499 L32.9527045,40.6861864 C30.9492218,43.6225682 28.5228464,45.9497707 26.0445483,47.4407863 L25.8615515,41.7578586 C24.1251936,42.7948591 22.249405,43.227919 20.471171,42.8609637 L18.4898939,49.2555968 Z" id="Path" fill="url(#linearGradient-5)"></path>
                                <path d="M18.6022396,41.021541 L18.8113825,40.7073 C19.4260605,41.1163987 20.0956181,41.3983504 20.8118883,41.5461595 L20.7356,41.9158461 C19.9714902,41.7581649 19.2569,41.4572499 18.6022396,41.021541 Z M15.7531843,37.4840514 L16.0966391,37.3274408 C16.4179667,38.0321283 16.7956162,38.6639048 17.2240051,39.2126782 L16.9264554,39.4449544 C16.4793133,38.8721579 16.0864696,38.2149628 15.7531843,37.4840514 Z M14.589819,33.1102919 L14.9647256,33.0663243 C15.0539007,33.8267098 15.1887157,34.5553501 15.3674127,35.244574 L15.0020184,35.3393108 C14.8189213,34.6331161 14.6809698,33.8875243 14.589819,33.1102919 Z M14.5662642,28.6041094 L14.9419718,28.6406046 C14.8688267,29.3936103 14.8334827,30.1352485 14.8357012,30.8603334 L14.4582271,30.8614884 C14.4559697,30.123738 14.4919125,29.3695372 14.5662642,28.6041094 Z M15.4035257,24.1675915 L15.7671073,24.2690633 C15.565199,24.9925169 15.3957887,25.7157864 15.259155,26.4354264 L14.8883042,26.3650151 C15.0269265,25.6349011 15.1987639,24.9012695 15.4035257,24.1675915 Z M16.9586012,19.9247102 L17.3008451,20.0839496 C16.9922741,20.747143 16.7080454,21.433668 16.4499942,22.1403962 L16.0954158,22.0109272 C16.3571415,21.2941356 16.6454826,20.5976774 16.9586012,19.9247102 Z M19.24068,16.0289331 L19.5453519,16.2517854 C19.1183587,16.8355479 18.7121419,17.4570736 18.3300632,18.112065 L18.0040075,17.9218657 C18.3925895,17.2557258 18.8059316,16.6232982 19.24068,16.0289331 Z M22.3439342,12.7400314 L22.5788541,13.0354984 C22.0237737,13.4768318 21.4809757,13.9805929 20.9567105,14.541354 L20.6809726,14.283562 C21.2176733,13.7094997 21.774061,13.1931263 22.3439342,12.7400314 Z M26.4071452,10.6887478 L26.4885717,11.0573368 C25.8089312,11.2074788 25.1203927,11.4632121 24.4337957,11.819816 L24.25981,11.4848278 C24.9748771,11.1134372 25.6943513,10.8462139 26.4071452,10.6887478 Z M30.8893951,11.2957202 L30.7054496,11.6253444 C30.502953,11.512342 30.2955527,11.4126003 30.0752689,11.3225781 C29.6139143,11.1338807 29.1361479,11.0083421 28.6451252,10.9456602 L28.6929244,10.5712228 C29.2165222,10.6380631 29.7262648,10.7720039 30.2181174,10.9731752 C30.4524281,11.0689296 30.6735709,11.1752804 30.8893951,11.2957202 Z M33.9337625,14.6617477 L33.5963597,14.8310034 C33.2489802,14.1385195 32.8435609,13.525936 32.3852003,13.0030323 L32.6690593,12.7542107 C33.1492585,13.3020281 33.5724005,13.9413905 33.9337625,14.6617477 Z M35.217792,19.0051392 L34.8439309,19.057254 C34.73799,18.2972567 34.5860623,17.5720299 34.3898637,16.8899083 L34.7526318,16.7855654 C34.9538569,17.4851628 35.1094374,18.2278259 35.217792,19.0051392 Z M35.3313704,23.5297403 L34.9550435,23.5003101 C35.0139967,22.7464693 35.0353423,22.0039907 35.0191994,21.2790695 L35.3965818,21.2706658 C35.4130081,22.0083169 35.3912997,22.7634189 35.3313704,23.5297403 Z M34.578434,27.9659823 L34.2131431,27.8708474 C34.4017991,27.1464623 34.5580778,26.4199603 34.6814573,25.6958213 L35.0535707,25.7592223 C34.9283707,26.4940464 34.7698145,27.2311358 34.578434,27.9659823 Z M33.0928456,32.2335058 L32.7482501,32.0794213 C33.0485303,31.4078725 33.321847,30.7167897 33.5660927,30.0102477 L33.9228531,30.1335768 C33.6750055,30.8505384 33.3976304,31.551883 33.0928456,32.2335058 Z M30.8734142,36.1646427 L30.5646579,35.9474845 C30.9824532,35.3534615 31.3783113,34.7248745 31.7486118,34.0668742 L32.0775732,34.2520026 C31.7011241,34.9209285 31.2985322,35.5602083 30.8734142,36.1646427 Z M27.8534342,39.528133 L27.6089546,39.2405259 C28.1508022,38.7799301 28.6796156,38.2604564 29.1892565,37.6881412 L29.4711614,37.9391746 C28.9501159,38.5242969 28.4088465,39.0560065 27.8534342,39.528133 Z M23.8900749,41.7603967 L23.7867172,41.3973467 C24.4556027,41.2069199 25.1304766,40.9151047 25.801537,40.5273176 L25.9904029,40.8541475 C25.2932046,41.257039 24.589805,41.5611887 23.8900749,41.7603967 Z M20.7416057,41.9170704 L20.8167904,41.5471577 C21.0868671,41.6020508 21.3608615,41.637131 21.6382629,41.6525346 L21.6173347,42.0294299 C21.3217844,42.0130186 21.0296569,41.9756167 20.7416057,41.9170704 Z" id="Shape" fill="#FFFFFF" fill-rule="nonzero"></path>
                                <path d="M21.0937736,40.6674702 C16.1250184,39.6234811 13.9414498,31.9992617 16.4733138,23.710486 C19.0051779,15.4217102 25.0998007,10.3392342 29.770024,12.2296379 C34.2082854,14.0322318 35.778453,21.4446601 33.4781284,28.9024877 C31.2447962,36.3448489 25.7635745,41.6391161 21.0937736,40.6674702 Z" id="Path" fill="#FFFFFF"></path>
                                <path d="M21.6512249,36.8292352 C18.1264445,35.6438291 17.0009717,29.8097529 18.9837684,23.8157336 C20.9669451,17.8205657 25.3428183,13.8336615 28.8699152,15.0198465 C32.3946956,16.2052526 33.5201684,22.0393288 31.5373717,28.0333481 C29.554195,34.028516 25.1783218,38.0154202 21.6512249,36.8292352 Z M28.6114589,15.788361 C25.6305335,14.7858569 21.6144094,18.4449899 19.7535551,24.0703758 C17.8923207,29.6969105 18.9264395,35.0574376 21.9096812,36.0607207 C24.8906066,37.0632248 28.9067307,33.4040919 30.767585,27.7787059 C32.6288194,22.1521713 31.5947006,16.7916442 28.6114589,15.788361 Z M23.6542008,31.4301665 L25.6968242,21.0125112 L27.2881453,21.3245267 L25.2455219,31.742182 L23.6542008,31.4301665 Z" id="Shape" fill="#F5A623" fill-rule="nonzero"></path>
                            </g>
                        </g>
                    </g>
                </g>
            </g>
        </g>
    </g>
</svg>