<svg width="269" height="273" viewBox="0 0 269 273" fill="none" xmlns="http://www.w3.org/2000/svg">
<path fill-rule="evenodd" clip-rule="evenodd" d="M214.301 108.501C215.876 135.787 185.567 162.377 140.642 171.119C95.5625 179.684 57.0748 166.027 48.3941 139.918C49.587 146.67 51.4588 155.636 52.1746 159.687C58.1729 190.613 96.1661 211.239 146.331 201.691C196.342 191.965 228.035 157.634 217.617 127.737L214.301 108.501Z" fill="#EEEEEE"/>
<g opacity="0.8">
<path fill-rule="evenodd" clip-rule="evenodd" d="M103.326 202.228L97.5895 172.321C84.0174 170.385 72.2973 165.909 63.7368 159.316L68.9959 186.523C77.4857 194.111 89.2898 199.76 103.326 202.228Z" fill="url(#paint0_linear)"/>
<path fill-rule="evenodd" clip-rule="evenodd" d="M52.975 148.404C51.3214 145.789 49.846 143.019 48.7269 139.941C49.9198 146.692 51.7916 155.658 52.5073 159.709C53.3306 164.601 55.1756 169.231 57.7097 173.574L52.975 148.404Z" fill="url(#paint1_linear)"/>
<path fill-rule="evenodd" clip-rule="evenodd" d="M148.708 201.187C164.653 197.951 178.612 192.077 190.003 184.692L184.112 154.607C172.745 161.66 158.809 167.202 142.686 170.593L148.708 201.187Z" fill="url(#paint2_linear)"/>
<path fill-rule="evenodd" clip-rule="evenodd" d="M214.335 159.858C216.816 155.527 218.477 150.973 219.317 146.195L213.665 117.461C212.848 121.906 211.033 126.283 208.73 130.46L214.335 159.858Z" fill="url(#paint3_linear)"/>
</g>
<path fill-rule="evenodd" clip-rule="evenodd" d="M212.906 102.235C222.645 129.918 191.093 162.258 141.083 171.983C91.2501 181.554 49.4082 163.331 48.1288 134.23C46.8393 107.631 79.8097 81.2242 121.669 73.2713C163.375 65.141 203.976 77.2764 212.906 102.235Z" fill="white"/>
<path fill-rule="evenodd" clip-rule="evenodd" d="M210.708 102.584L188.168 106.866C186.417 100.91 182.088 95.943 176.156 92.3662L193.059 82.6933C184.559 77.6056 173.612 74.0166 161.502 72.6818L153.62 84.8105C145.015 83.5505 135.473 83.7266 125.659 85.3845L123.31 73.7178C122.799 73.8493 122.288 73.9808 121.622 73.935C108.742 76.382 96.743 80.5571 86.4914 86.0198L98.4398 94.3464C90.1007 98.7738 83.3547 104.311 78.7598 110.164L59.5544 107.506C53.131 115.567 49.6552 124.498 50.0178 133.527L72.5577 129.245V129.245C73.0851 135.95 76.856 141.713 82.7176 146.285L63.189 157.611C71.5714 164.358 83.2679 169.166 97.3039 171.634L107.442 155.992C116.533 157.453 126.765 156.991 137.601 155.07C138.112 154.938 138.956 154.83 139.467 154.698L142.709 170.261C158.655 167.025 172.614 161.151 183.827 153.92L168.537 143.196C176.591 138.082 182.54 131.989 186.006 125.559L208.361 128.6C212.656 119.892 213.625 110.955 210.708 102.584Z" fill="url(#paint4_linear)"/>
<path fill-rule="evenodd" clip-rule="evenodd" d="M184.259 107.764C189.512 125.634 168.504 146.028 137.147 152.037C105.613 158.201 78.4759 147.16 76.6213 128.524C74.8507 111.062 96.3358 93.3678 124.472 87.9705C152.454 82.3959 179.268 90.9134 184.259 107.764Z" stroke="white" stroke-width="1.15427" stroke-dasharray="6.85 6.85"/>
<path fill-rule="evenodd" clip-rule="evenodd" d="M180.528 108.508C185.364 125.181 165.805 144.008 136.647 149.668C107.489 155.329 82.3009 145.089 80.5068 127.959C78.8202 111.669 98.7255 95.0332 124.996 90.0076C151.112 84.8046 175.954 92.8526 180.528 108.508Z" fill="white"/>
<path d="M123.864 97.675C144.36 92.717 163.204 97.9724 165.952 109.413C168.7 120.854 154.313 134.148 133.817 139.106C113.32 144.064 94.4771 138.809 91.7289 127.368C88.9806 115.927 103.368 102.633 123.864 97.675Z" stroke="#D0021B" stroke-width="3"/>
<path d="M146.344 110.333L112.347 123.244" stroke="#D0021B" stroke-width="6" stroke-linejoin="round"/>
<defs>
<linearGradient id="paint0_linear" x1="76.5634" y1="148.195" x2="53.2783" y2="168.489" gradientUnits="userSpaceOnUse">
<stop stop-color="#F5515F"/>
<stop offset="1" stop-color="#9F041B"/>
</linearGradient>
<linearGradient id="paint1_linear" x1="48.7269" y1="139.941" x2="37.1732" y2="150.01" gradientUnits="userSpaceOnUse">
<stop stop-color="#F5515F"/>
<stop offset="1" stop-color="#9F041B"/>
</linearGradient>
<linearGradient id="paint2_linear" x1="174.218" y1="143.254" x2="131.025" y2="180.898" gradientUnits="userSpaceOnUse">
<stop stop-color="#F5515F"/>
<stop offset="1" stop-color="#9F041B"/>
</linearGradient>
<linearGradient id="paint3_linear" x1="213.665" y1="117.461" x2="193.046" y2="135.431" gradientUnits="userSpaceOnUse">
<stop stop-color="#F5515F"/>
<stop offset="1" stop-color="#9F041B"/>
</linearGradient>
<linearGradient id="paint4_linear" x1="169.552" y1="30.3006" x2="38.0601" y2="110.862" gradientUnits="userSpaceOnUse">
<stop stop-color="#F5515F"/>
<stop offset="1" stop-color="#9F041B"/>
</linearGradient>
</defs>
</svg>
