<svg width="358" height="461" viewBox="0 0 358 461" fill="none" xmlns="http://www.w3.org/2000/svg">
<path fill-rule="evenodd" clip-rule="evenodd" d="M223.361 273.529C269.447 273.529 306.807 236.187 306.807 190.124C306.807 144.061 269.447 106.719 223.361 106.719C177.275 106.719 139.915 144.061 139.915 190.124C139.915 236.187 177.275 273.529 223.361 273.529Z" fill="#392D9B"/>
<path opacity="0.8" fill-rule="evenodd" clip-rule="evenodd" d="M100.57 298.167C102.181 299.1 104.217 299.524 106.422 299.524C109.051 299.524 111.765 298.846 113.885 297.658L260.013 213.251C262.133 212.063 263.321 210.367 263.321 208.755C263.321 207.398 262.473 206.125 260.946 205.277L185.635 161.759C182.242 159.723 176.221 159.977 172.319 162.268L26.1914 246.675C24.0711 247.862 22.8838 249.559 22.8838 251.171C22.8838 252.528 23.7319 253.8 25.2585 254.649L100.57 298.167ZM113.716 297.234C109.899 299.44 104.132 299.609 100.824 297.743L25.513 254.225C24.1561 253.461 23.3928 252.358 23.3928 251.171C23.3928 249.728 24.4953 248.202 26.4459 247.099L172.574 162.692C176.39 160.486 182.157 160.316 185.465 162.183L260.777 205.701C262.133 206.465 262.897 207.567 262.897 208.755C262.897 210.197 261.794 211.724 259.844 212.827L113.716 297.234Z" fill="url(#paint0_linear)"/>
<path fill-rule="evenodd" clip-rule="evenodd" d="M100.655 298.082C102.181 299.015 104.217 299.44 106.422 299.44C108.966 299.44 111.765 298.761 113.97 297.573L260.098 213.166C262.218 211.979 263.406 210.367 263.406 208.755C263.406 207.483 262.558 206.21 261.031 205.362L185.72 161.843C182.242 159.807 176.306 160.062 172.404 162.352L26.2763 246.759C24.1561 247.947 22.9688 249.559 22.9688 251.171C22.9688 252.443 23.8169 253.716 25.3434 254.564L100.655 298.082ZM113.8 297.319C109.899 299.524 104.132 299.779 100.824 297.828L25.513 254.309C24.0712 253.461 23.3079 252.358 23.3079 251.171C23.3079 249.644 24.4953 248.202 26.4459 247.014L172.574 162.607C176.475 160.401 182.242 160.147 185.55 162.098L260.861 205.616C262.303 206.465 263.066 207.567 263.066 208.755C263.066 210.282 261.879 211.724 259.928 212.912L113.8 297.319Z" fill="#224AFA"/>
<path fill-rule="evenodd" clip-rule="evenodd" d="M29.8581 257.003C29.7733 257.003 29.7733 257.003 29.6885 256.918C29.6036 256.833 29.6885 256.748 29.7733 256.664C33.081 254.797 36.0495 250.725 37.1521 246.484L50.8072 192.275C52.5035 185.574 57.7619 180.993 61.5786 180.908C63.5293 180.823 65.056 182.011 65.6497 184.047L69.4663 196.263C69.8904 197.535 70.6537 198.468 71.7563 198.892C73.0285 199.401 74.7248 199.147 76.5059 198.129L79.2199 196.602C82.3581 194.82 85.2417 191.003 86.3443 187.016C88.2102 180.653 93.2143 176.412 96.7765 176.157C98.6424 175.988 100.084 176.921 100.848 178.617L105.088 187.864C105.597 188.882 106.36 189.646 107.293 189.985C108.566 190.409 110.177 190.155 111.789 189.221L114.927 187.44C118.234 185.574 121.288 181.332 122.221 177.09L135.876 118.471C137.402 111.854 142.746 107.103 146.647 106.849C148.598 106.764 150.125 107.782 150.803 109.818L171.583 168.353C172.007 169.54 172.77 170.473 173.873 170.813C175.145 171.322 176.841 171.067 178.537 170.049L189.224 164.026C189.309 163.941 189.394 164.026 189.478 164.111C189.563 164.196 189.478 164.281 189.394 164.365L178.707 170.389C176.926 171.407 175.145 171.661 173.703 171.152C172.6 170.728 171.752 169.795 171.243 168.437L150.464 109.903C149.785 108.036 148.428 107.103 146.647 107.188C142.915 107.358 137.742 112.108 136.215 118.556L122.56 177.175C121.542 181.502 118.574 185.743 115.096 187.694L111.958 189.476C110.262 190.409 108.566 190.748 107.124 190.324C106.021 189.985 105.173 189.221 104.664 188.034L100.423 178.787C99.6601 177.175 98.3879 176.412 96.6917 176.497C93.2143 176.751 88.3799 180.908 86.5988 187.101C85.4114 191.173 82.5277 195.075 79.3047 196.941L76.5907 198.468C74.7248 199.486 72.9437 199.741 71.5867 199.232C70.3993 198.808 69.5511 197.79 69.127 196.347L65.3104 184.131C64.7167 182.18 63.3597 181.162 61.5786 181.162C57.9316 181.247 52.6731 185.828 51.0616 192.275L37.4065 246.484C36.3888 250.895 33.3355 255.052 29.8581 257.003V257.003Z" fill="#42E8E0"/>
<path fill-rule="evenodd" clip-rule="evenodd" d="M41.3078 263.705C41.223 263.705 41.223 263.705 41.1382 263.62C41.0533 263.535 41.1382 263.45 41.223 263.365C44.5307 261.499 47.4992 257.427 48.6018 253.185L62.2569 198.977C63.9532 192.275 69.2116 187.694 73.0283 187.61C74.979 187.525 76.5057 188.712 77.0994 190.748L80.916 202.964C81.3401 204.237 82.1034 205.17 83.206 205.594C84.4782 206.103 86.1745 205.849 87.9556 204.831L90.6696 203.304C93.8078 201.522 96.6914 197.705 97.794 193.718C99.6599 187.355 104.664 183.113 108.226 182.859C110.092 182.689 111.534 183.622 112.297 185.319L116.538 194.566C117.047 195.584 117.81 196.347 118.743 196.687C120.015 197.111 121.627 196.856 123.238 195.923L126.376 194.142C129.684 192.275 132.737 188.034 133.67 183.792L147.325 125.173C148.852 118.556 154.195 113.805 158.097 113.551C158.182 113.551 158.267 113.551 158.351 113.551C160.217 113.551 161.574 114.569 162.253 116.52L183.032 175.054C183.456 176.242 184.22 177.175 185.322 177.514C186.594 178.023 188.291 177.769 189.987 176.751L200.758 170.643C200.843 170.558 200.928 170.643 201.013 170.728C201.098 170.813 201.013 170.898 200.928 170.982L190.157 177.09C188.376 178.108 186.594 178.363 185.153 177.854C184.05 177.43 183.202 176.496 182.693 175.139L161.914 116.605C161.235 114.738 159.878 113.805 158.097 113.89C154.365 114.06 149.191 118.81 147.665 125.257L134.179 183.877C133.162 188.203 130.193 192.445 126.716 194.396L123.578 196.178C121.881 197.111 120.185 197.45 118.743 197.026C117.641 196.687 116.792 195.923 116.284 194.736L112.043 185.489C111.279 183.877 110.007 183.113 108.311 183.198C104.834 183.453 99.9992 187.61 98.2181 193.802C97.0307 197.874 94.147 201.777 90.9241 203.643L88.21 205.17C86.3441 206.188 84.563 206.442 83.206 205.933C82.0186 205.509 81.1704 204.491 80.7464 203.049L76.9297 190.833C76.336 188.882 74.979 187.779 73.1979 187.864C69.5509 187.949 64.2924 192.53 62.681 198.977L49.0259 253.185C47.8385 257.597 44.7852 261.838 41.3078 263.705V263.705Z" fill="#42E8E0"/>
<path fill-rule="evenodd" clip-rule="evenodd" d="M160.557 114.484H160.472L148.937 107.697C148.853 107.612 148.853 107.527 148.853 107.443C148.937 107.358 149.022 107.358 149.107 107.358L160.642 114.144C160.726 114.229 160.726 114.314 160.726 114.399C160.642 114.399 160.642 114.484 160.557 114.484Z" fill="#224AFA"/>
<path fill-rule="evenodd" clip-rule="evenodd" d="M110.94 183.962H110.856L99.1512 177.09C99.0664 177.005 99.0664 176.921 99.0664 176.836C99.1512 176.751 99.236 176.751 99.3209 176.751L111.025 183.622C111.11 183.707 111.11 183.792 111.11 183.877C111.025 183.962 111.025 183.962 110.94 183.962Z" fill="#224AFA"/>
<path fill-rule="evenodd" clip-rule="evenodd" d="M75.4878 188.712H75.403L63.1898 181.586C63.105 181.502 63.105 181.417 63.105 181.332C63.1898 181.247 63.2746 181.247 63.3594 181.247L75.5727 188.373C75.6575 188.458 75.6575 188.543 75.6575 188.628C75.5727 188.628 75.4878 188.712 75.4878 188.712Z" fill="#224AFA"/>
<path fill-rule="evenodd" clip-rule="evenodd" d="M29.8581 257.003C29.7733 257.003 29.7733 257.003 29.6885 256.918C29.6036 256.833 29.6885 256.748 29.7733 256.664C33.081 254.797 36.0495 250.725 37.1521 246.484L50.8072 192.275C52.5035 185.574 57.7619 180.993 61.5786 180.908C63.5293 180.823 65.056 182.011 65.6497 184.047L69.4663 196.263C69.8904 197.535 70.6537 198.468 71.7563 198.892C73.0285 199.401 74.7248 199.147 76.5059 198.129L79.2199 196.602C82.3581 194.82 85.2417 191.003 86.3443 187.016C88.2102 180.653 93.2143 176.412 96.7765 176.157C98.6424 175.988 100.084 176.921 100.848 178.617L105.088 187.864C105.597 188.882 106.36 189.646 107.293 189.985C108.566 190.409 110.177 190.155 111.789 189.221L114.927 187.44C118.234 185.574 121.288 181.332 122.221 177.09L135.876 118.471C137.402 111.854 142.746 107.103 146.647 106.849C148.598 106.764 150.125 107.782 150.803 109.818L171.583 168.353C172.007 169.54 172.77 170.473 173.873 170.813C175.145 171.322 176.841 171.067 178.537 170.049L189.224 164.026C189.309 163.941 189.394 164.026 189.478 164.111C189.563 164.196 189.478 164.281 189.394 164.365L178.707 170.389C176.926 171.407 175.145 171.661 173.703 171.152C172.6 170.728 171.752 169.795 171.243 168.437L150.464 109.903C149.785 108.036 148.428 107.103 146.647 107.188C142.915 107.358 137.742 112.108 136.215 118.556L122.56 177.175C121.542 181.502 118.574 185.743 115.096 187.694L111.958 189.476C110.262 190.409 108.566 190.748 107.124 190.324C106.021 189.985 105.173 189.221 104.664 188.034L100.423 178.787C99.6601 177.175 98.3879 176.412 96.6917 176.497C93.2143 176.751 88.3799 180.908 86.5988 187.101C85.4114 191.173 82.5277 195.075 79.3047 196.941L76.5907 198.468C74.7248 199.486 72.9437 199.741 71.5867 199.232C70.3993 198.808 69.5511 197.79 69.127 196.347L65.3104 184.131C64.7167 182.18 63.3597 181.162 61.5786 181.162C57.9316 181.247 52.6731 185.828 51.0616 192.275L37.4065 246.484C36.3888 250.895 33.3355 255.052 29.8581 257.003V257.003Z" fill="#224AFA"/>
<path fill-rule="evenodd" clip-rule="evenodd" d="M41.3078 263.705C41.223 263.705 41.223 263.705 41.1382 263.62C41.0533 263.535 41.1382 263.45 41.223 263.365C44.5307 261.499 47.4992 257.427 48.6018 253.185L62.2569 198.977C63.9532 192.275 69.2116 187.694 73.0283 187.61C74.979 187.525 76.5057 188.712 77.0994 190.748L80.916 202.964C81.3401 204.237 82.1034 205.17 83.206 205.594C84.4782 206.103 86.1745 205.849 87.9556 204.831L90.6696 203.304C93.8078 201.522 96.6914 197.705 97.794 193.718C99.6599 187.355 104.664 183.113 108.226 182.859C110.092 182.689 111.534 183.622 112.297 185.319L116.538 194.566C117.047 195.584 117.81 196.347 118.743 196.687C120.015 197.111 121.627 196.856 123.238 195.923L126.376 194.142C129.684 192.275 132.737 188.034 133.67 183.792L147.325 125.173C148.852 118.556 154.195 113.805 158.097 113.551C158.182 113.551 158.267 113.551 158.351 113.551C160.217 113.551 161.574 114.569 162.253 116.52L183.032 175.054C183.456 176.242 184.22 177.175 185.322 177.514C186.594 178.023 188.291 177.769 189.987 176.751L200.758 170.643C200.843 170.558 200.928 170.643 201.013 170.728C201.098 170.813 201.013 170.898 200.928 170.982L190.157 177.09C188.376 178.108 186.594 178.363 185.153 177.854C184.05 177.43 183.202 176.496 182.693 175.139L161.914 116.605C161.235 114.738 159.878 113.805 158.097 113.89C154.365 114.06 149.191 118.81 147.665 125.257L134.179 183.877C133.162 188.203 130.193 192.445 126.716 194.396L123.578 196.178C121.881 197.111 120.185 197.45 118.743 197.026C117.641 196.687 116.792 195.923 116.284 194.736L112.043 185.489C111.279 183.877 110.007 183.113 108.311 183.198C104.834 183.453 99.9992 187.61 98.2181 193.802C97.0307 197.874 94.147 201.777 90.9241 203.643L88.21 205.17C86.3441 206.188 84.563 206.442 83.206 205.933C82.0186 205.509 81.1704 204.491 80.7464 203.049L76.9297 190.833C76.336 188.882 74.979 187.779 73.1979 187.864C69.5509 187.949 64.2924 192.53 62.681 198.977L49.0259 253.185C47.8385 257.597 44.7852 261.838 41.3078 263.705V263.705Z" fill="#224AFA"/>
<path opacity="0.5" fill-rule="evenodd" clip-rule="evenodd" d="M148.559 176.924L138.932 182.34C136.029 184.018 133.432 183.331 132.438 180.738L113.72 128.106C111.581 122.08 102.565 127.42 100.579 135.886L88.2781 188.594C87.3613 192.408 84.6872 196.299 81.6311 197.977L78.8043 199.578C76.0538 201.104 73.5326 200.646 72.5393 198.358L68.7193 190.044C66.3508 184.857 58.1758 189.662 55.9602 197.519V197.519C54.8905 201.18 52.2929 204.613 49.466 206.215L47.0212 207.588C44.0415 209.266 41.3674 208.579 40.527 205.757L37.0889 194.773C35.1025 188.594 26.0871 193.629 23.9479 202.172L11.6472 250.914C10.654 254.727 7.9799 258.465 4.92383 260.143L148.559 176.924Z" fill="#224AFA" fill-opacity="0.0223053"/>
<path opacity="0.5" fill-rule="evenodd" clip-rule="evenodd" d="M201.183 170.643L190.327 176.751C187.104 178.617 184.22 177.854 183.117 174.97L162.338 116.435C159.963 109.733 149.955 115.671 147.75 125.088L134.095 183.707C133.077 187.949 130.109 192.275 126.716 194.142L123.578 195.923C120.525 197.62 117.726 197.111 116.623 194.566L112.382 185.319C109.753 179.551 100.678 184.895 98.2184 193.633V193.633C97.031 197.705 94.1473 201.522 91.0092 203.304L88.2951 204.831C84.9874 206.697 82.0189 205.934 81.0859 202.795L77.2693 190.579C75.0641 183.707 65.056 189.306 62.6812 198.808L49.0261 253.016C47.9236 257.257 44.9551 261.414 41.5625 263.28L201.183 170.643Z" fill="#224AFA" fill-opacity="0.109318"/>
<g opacity="0.4" filter="url(#filter0_f)">
<path fill-rule="evenodd" clip-rule="evenodd" d="M90.9834 160.641C90.9834 162.338 92.3404 163.695 94.0367 163.695C95.733 163.695 97.09 162.338 97.09 160.641C97.09 158.945 95.733 157.587 94.0367 157.587C92.3404 157.587 90.9834 158.945 90.9834 160.641Z" fill="#42E8E0"/>
</g>
<path fill-rule="evenodd" clip-rule="evenodd" d="M92.6797 160.641C92.6797 161.405 93.2734 161.999 93.9519 161.999C94.7152 161.999 95.3089 161.405 95.3089 160.726C95.3089 159.963 94.7152 159.369 94.0367 159.369C93.2734 159.284 92.6797 159.878 92.6797 160.641Z" fill="#42E8E0"/>
<path opacity="0.4" fill-rule="evenodd" clip-rule="evenodd" d="M129.162 122.794C129.355 121.119 128.155 119.604 126.479 119.411C124.804 119.218 123.289 120.42 123.095 122.095C122.901 123.771 124.102 125.285 125.777 125.478C127.453 125.671 128.968 124.47 129.162 122.794Z" fill="#42E8E0"/>
<path fill-rule="evenodd" clip-rule="evenodd" d="M124.765 122.458C124.765 123.222 125.359 123.815 126.037 123.815C126.801 123.815 127.395 123.222 127.395 122.543C127.395 121.779 126.801 121.186 126.122 121.186C125.359 121.101 124.765 121.695 124.765 122.458Z" fill="#42E8E0"/>
<g opacity="0.4" filter="url(#filter1_f)">
<path fill-rule="evenodd" clip-rule="evenodd" d="M24.0811 226.339C24.0811 228.373 25.7093 230.001 27.7445 230.001C29.7798 230.001 31.408 228.373 31.408 226.339C31.408 224.305 29.7798 222.678 27.7445 222.678C25.811 222.779 24.0811 224.407 24.0811 226.339Z" fill="#42E8E0"/>
</g>
<path fill-rule="evenodd" clip-rule="evenodd" d="M26.4429 226.312C26.4429 227.076 27.0366 227.669 27.7151 227.669C28.4785 227.669 29.0722 227.076 29.0722 226.397C29.0722 225.633 28.4785 225.04 27.8 225.04C27.0366 224.955 26.4429 225.549 26.4429 226.312Z" fill="#42E8E0"/>
<path fill-rule="evenodd" clip-rule="evenodd" d="M143.372 288.253L227.78 239.57V239.57L143.372 288.253L143.372 288.253Z" fill="#42E8E0"/>
<path opacity="0.0616862" fill-rule="evenodd" clip-rule="evenodd" d="M246.718 330.608C246.718 330.608 215.359 343.77 200.787 347.16C184.009 351.062 78.3095 364.987 52.9894 320.67C37.6313 293.799 46.7935 271.266 55.2486 259.584C76.6291 230.067 144.023 214.818 144.023 214.818C144.023 214.818 186.805 310.33 199.271 338.162C199.569 338.826 246.718 330.608 246.718 330.608Z" fill="url(#paint1_linear)"/>
<path fill-rule="evenodd" clip-rule="evenodd" d="M286.885 228.225C291.284 259.506 254.478 290.061 204.87 297.03C155.263 303.998 111.537 284.637 107.201 253.802C103.868 230.093 140.626 199.902 190.233 192.933C239.841 185.965 283.604 204.885 286.885 228.225Z" fill="#171645"/>
<path fill-rule="evenodd" clip-rule="evenodd" d="M311.897 214.276C312.084 215.181 312.232 216.091 312.36 217.003C317.856 256.229 270.404 296.378 206.127 305.407C141.851 314.436 85.2251 289.481 79.6307 249.695C79.5488 249.113 79.4863 248.527 79.4238 247.942C75.3444 256.594 73.7054 265.596 74.9695 274.586C80.5666 314.392 140.91 338.804 209.76 329.133C278.61 319.462 329.881 279.351 324.286 239.564C323.006 230.18 318.669 221.681 311.897 214.276Z" fill="url(#paint2_linear)"/>
<path fill-rule="evenodd" clip-rule="evenodd" d="M219.633 182.923C275.216 183.174 319.706 206.566 324.579 241.226C330.308 281.964 279.124 322.835 210.255 332.509C141.385 342.183 80.9133 316.996 75.1852 276.259C69.4625 235.56 120.571 194.719 189.358 185.017C189.319 185.023 189.261 185.031 189.222 185.036C118.182 195.015 65.4208 237.593 71.4028 280.136C77.3849 322.68 139.825 349.075 210.884 339.093C281.943 329.112 334.685 286.537 328.703 243.993C323.595 207.663 277.3 183.099 219.633 182.923Z" fill="url(#paint3_linear)"/>
<path opacity="0.1" fill-rule="evenodd" clip-rule="evenodd" d="M218.941 182.921C218.783 182.923 218.626 182.925 218.449 182.931C218.626 182.925 218.783 182.923 218.941 182.921Z" fill="url(#paint4_linear)"/>
<path fill-rule="evenodd" clip-rule="evenodd" d="M209.796 329.108C141.915 338.644 82.172 314.285 75.0056 274.561C75.0681 275.147 75.1306 275.732 75.2098 276.295C80.9407 317.052 141.416 342.258 210.285 332.584C279.154 322.91 330.335 282.019 324.604 241.262C324.522 240.68 324.421 240.1 324.322 239.54C328.372 279.721 277.677 319.573 209.796 329.108Z" fill="url(#paint5_linear)"/>
<path fill-rule="evenodd" clip-rule="evenodd" d="M187.186 170.412C122.386 179.515 75.1484 219.079 79.3885 249.234C85.0402 289.428 139.962 312.246 198.978 306.273C140.934 312.129 86.8888 289.505 81.2972 249.738C77.1007 219.894 123.535 180.799 187.307 171.841C251.08 162.882 306.346 188.147 310.319 216.399C316.35 259.292 267.013 296.854 206.128 305.407C206.147 305.404 206.147 305.404 206.167 305.402C268.06 296.707 318.264 258.706 312.167 215.348C308.151 186.785 252.005 161.307 187.186 170.412Z" fill="url(#paint6_linear)"/>
<path fill-rule="evenodd" clip-rule="evenodd" d="M187.3 171.815C123.549 180.767 77.1022 219.884 81.2977 249.712C87.1186 291.094 145.423 313.938 206.093 305.419C266.995 296.867 316.348 259.302 310.314 216.405C306.337 188.13 251.071 162.86 187.3 171.815ZM206.397 299.435C150.649 307.263 97.1119 286.562 91.8156 248.908C87.9969 221.76 130.704 186.119 189.301 177.891C247.898 169.662 298.643 192.577 302.263 218.308C307.772 257.337 262.378 291.574 206.397 299.435Z" fill="url(#paint7_linear)"/>
<path fill-rule="evenodd" clip-rule="evenodd" d="M188.677 176.968C129.829 185.232 86.963 221.292 90.8335 248.809C96.2009 286.967 150.003 308.008 206.003 300.144C262.217 292.25 307.772 257.615 302.205 218.038C298.562 191.995 247.545 168.702 188.677 176.968ZM205.932 299.5C150.475 307.288 97.2089 286.549 91.9126 248.895C88.0939 221.747 130.568 186.138 188.836 177.956C247.103 169.774 297.636 192.719 301.255 218.449C306.746 257.482 261.603 291.683 205.932 299.5Z" fill="url(#paint8_linear)"/>
<path fill-rule="evenodd" clip-rule="evenodd" d="M188.739 177.97C130.937 186.086 88.0919 221.312 91.9871 249.003C97.0513 285.006 148.014 307.634 205.835 299.514C263.657 291.395 306.539 255.728 301.401 219.201C297.566 191.937 246.541 169.853 188.739 177.97ZM204.874 297.035C155.268 304 111.542 284.634 107.204 253.797C103.869 230.086 140.624 199.894 190.23 192.928C239.836 185.963 283.596 204.868 286.879 228.21C291.28 259.494 254.48 290.069 204.874 297.035Z" fill="url(#paint9_linear)"/>
<path fill-rule="evenodd" clip-rule="evenodd" d="M106.13 253.888C102.749 229.847 139.978 199.232 190.223 192.177C240.468 185.121 284.801 204.303 288.15 227.972C292.613 259.703 255.32 290.703 205.074 297.759C154.829 304.814 110.531 285.172 106.13 253.888ZM107.204 253.797C111.542 284.634 155.268 304 204.874 297.035C254.479 290.069 291.28 259.494 286.879 228.21C283.596 204.868 239.836 185.963 190.23 192.928C140.624 199.894 103.869 230.086 107.204 253.797Z" fill="#101036"/>
<path fill-rule="evenodd" clip-rule="evenodd" d="M157.091 280.317L170.739 270.856L175.553 272.912L164.944 283.471C164.944 283.471 161.907 282.531 160.644 281.976C159.38 281.421 157.091 280.317 157.091 280.317Z" fill="#4E4CA5"/>
<path fill-rule="evenodd" clip-rule="evenodd" d="M166.474 267.93L150.323 276.456C150.323 276.456 152.228 277.634 153.314 278.333C154.381 279.034 157.158 280.09 157.158 280.09L170.681 270.586C170.681 270.586 168.613 269.511 168.044 269.115C167.453 268.704 166.474 267.93 166.474 267.93Z" fill="#2A296D"/>
<path fill-rule="evenodd" clip-rule="evenodd" d="M165.157 266.848C165.157 266.848 164.601 266.411 163.96 265.788C163.319 265.166 163.035 264.691 163.035 264.691L145.071 271.709C145.071 271.709 146.491 273.371 147.419 274.211C148.347 275.05 150.102 276.289 150.102 276.289L166.005 267.541L165.157 266.848Z" fill="#4E4CA5"/>
<path fill-rule="evenodd" clip-rule="evenodd" d="M160.8 261.025L162.425 263.865L144.756 271.575C144.756 271.575 143.447 270.135 142.697 268.874C141.946 267.613 141.174 266.336 141.174 266.336L160.8 261.025Z" fill="#2A296D"/>
<path fill-rule="evenodd" clip-rule="evenodd" d="M139.187 260.496C139.187 260.496 139.497 261.997 139.959 263.319C140.422 264.64 141.152 266.319 141.152 266.319L160.39 260.072C160.39 260.072 160.095 259.243 159.928 258.474C159.76 257.705 159.663 256.729 159.663 256.729L139.187 260.496Z" fill="#4E4CA5"/>
<path fill-rule="evenodd" clip-rule="evenodd" d="M138.999 254.523C138.999 254.523 138.646 256.79 138.791 257.681C138.936 258.571 139.129 260.366 139.129 260.366L159.685 256.746C159.685 256.746 159.651 255.523 159.75 254.539C159.849 253.555 160.008 252.582 160.008 252.582L138.999 254.523" fill="#2A296D"/>
<path fill-rule="evenodd" clip-rule="evenodd" d="M139.262 254.288C139.262 254.288 139.549 251.971 139.814 250.904C140.079 249.837 140.721 248.361 140.721 248.361L161.23 248.905C161.23 248.905 160.713 250.146 160.579 250.739C160.445 251.332 160.059 252.1 160.059 252.1L139.262 254.288" fill="#4E4CA5"/>
<path fill-rule="evenodd" clip-rule="evenodd" d="M140.929 248.153C140.929 248.153 141.522 246.466 142.413 245.074C143.304 243.681 144.597 242.054 144.597 242.054L163.873 244.931C163.873 244.931 162.672 246.228 162.344 246.848C162.019 247.488 161.356 248.531 161.356 248.531L140.929 248.153" fill="#2A296D"/>
<path fill-rule="evenodd" clip-rule="evenodd" d="M164.934 283.116C164.934 283.116 167.595 284.049 168.942 284.355C170.289 284.661 174.11 285.272 174.11 285.272L181.612 274.259C181.612 274.259 179.747 273.927 178.84 273.658C177.932 273.389 176.182 272.744 176.182 272.744L164.934 283.116Z" fill="#2A296D"/>
<path fill-rule="evenodd" clip-rule="evenodd" d="M174.201 285.22C174.201 285.22 176.871 285.795 178.57 285.933C180.288 286.068 183.769 286.371 183.769 286.371L188.327 275.078C188.327 275.078 185.839 274.952 184.671 274.799C183.504 274.646 182.04 274.218 182.04 274.218L174.201 285.22Z" fill="#4E4CA5"/>
<path fill-rule="evenodd" clip-rule="evenodd" d="M183.628 286.351C183.628 286.351 187.563 286.511 188.853 286.548C190.14 286.565 194.006 286.378 194.006 286.378L195.257 275.174C195.257 275.174 192.876 275.25 191.57 275.236C190.283 275.219 188.324 275.058 188.324 275.058L183.628 286.351Z" fill="#2A296D"/>
<path fill-rule="evenodd" clip-rule="evenodd" d="M195.478 275.202C195.478 275.202 197.584 275.144 198.888 275C199.959 274.889 202.454 274.499 202.454 274.499L204.148 285.429C204.148 285.429 200.948 285.858 199.18 286.067C197.391 286.279 193.965 286.364 193.965 286.364L195.478 275.202Z" fill="#4E4CA5"/>
<path fill-rule="evenodd" clip-rule="evenodd" d="M202.592 274.5C202.592 274.5 204.148 274.321 205.723 274C207.295 273.661 209.209 273.214 209.209 273.214L214.207 283.462C214.207 283.462 210.859 284.249 209.536 284.533C208.193 284.821 204.082 285.379 204.082 285.379L202.592 274.5Z" fill="#2A296D"/>
<path opacity="0.380278" fill-rule="evenodd" clip-rule="evenodd" d="M144.741 242.094L163.846 244.736C163.846 244.736 165.218 243.256 165.571 242.811C165.942 242.363 167.185 241.079 167.185 241.079L149.963 236.37C149.963 236.37 147.621 238.263 146.952 239.13C146.286 240.015 144.741 242.094 144.741 242.094Z" fill="white"/>
<path fill-rule="evenodd" clip-rule="evenodd" d="M150.062 236.376C150.062 236.376 151.884 234.437 153.143 233.409C154.385 232.403 156.715 231.125 156.715 231.125L171.768 237.703C171.768 237.703 170.253 238.728 169.463 239.433C168.656 240.16 167.561 241.086 167.561 241.086L150.062 236.376Z" fill="#2A296D"/>
<path fill-rule="evenodd" clip-rule="evenodd" d="M156.559 231.147C156.559 231.147 159.161 229.415 160.519 228.531C161.877 227.647 164.581 226.357 164.581 226.357L177.162 234.747C177.162 234.747 175.043 235.698 174.226 236.209C173.408 236.72 172.02 237.667 172.02 237.667L156.559 231.147Z" fill="#4E4CA5"/>
<path fill-rule="evenodd" clip-rule="evenodd" d="M209.541 273.048L214.135 283.373C214.135 283.373 217.139 282.673 219.047 282.049C220.955 281.424 223.76 280.436 223.76 280.436L215.91 270.985C215.91 270.985 214.412 271.572 212.828 272.111C211.244 272.651 209.541 273.048 209.541 273.048Z" fill="#4E4CA5"/>
<path fill-rule="evenodd" clip-rule="evenodd" d="M216.328 270.867C216.328 270.867 218.386 270.043 219.203 269.671C220.02 269.299 222.046 268.242 222.046 268.242L232.421 276.685C232.421 276.685 230.081 277.885 228.762 278.486C227.441 279.068 223.719 280.422 223.719 280.422L216.328 270.867Z" fill="#2A296D"/>
<path fill-rule="evenodd" clip-rule="evenodd" d="M222.301 268.088C222.301 268.088 224.093 267.064 224.913 266.572C225.733 266.081 227.138 265.111 227.138 265.111L240.271 272.217C240.271 272.217 238.561 273.407 237.12 274.263C235.679 275.119 232.679 276.55 232.679 276.55L222.301 268.088Z" fill="#4E4CA5"/>
<path fill-rule="evenodd" clip-rule="evenodd" d="M227.557 264.854C227.557 264.854 228.854 263.821 229.666 263.132C230.479 262.444 231.538 261.266 231.538 261.266L247.205 267.005C247.205 267.005 245.265 268.664 244.264 269.418C243.28 270.15 240.473 272.109 240.473 272.109L227.557 264.854Z" fill="#2A296D"/>
<path fill-rule="evenodd" clip-rule="evenodd" d="M234.811 257.281L252.209 261.273C252.209 261.273 254.084 259.009 254.653 257.999C255.223 256.988 256.067 255.266 256.067 255.266L236.867 253.349C236.867 253.349 236.108 255.258 235.8 255.737C235.492 256.216 234.811 257.281 234.811 257.281Z" fill="#2A296D"/>
<path fill-rule="evenodd" clip-rule="evenodd" d="M237.678 248.721L257.913 249.145C257.913 249.145 258.25 246.761 258.141 245.846C258.032 244.931 257.751 243.069 257.751 243.069L237.427 245.39C237.427 245.39 237.699 246.619 237.739 247.326C237.798 248.03 237.678 248.721 237.678 248.721Z" fill="#2A296D"/>
<path fill-rule="evenodd" clip-rule="evenodd" d="M233.124 237.975C233.124 237.975 234.204 239.051 234.779 239.762C235.35 240.454 235.65 241.184 235.65 241.184L256.124 237.259C256.124 237.259 254.969 234.946 254.425 234.171C253.881 233.396 252.575 231.975 252.575 231.975L233.124 237.975Z" fill="#2A296D"/>
<path opacity="0.0866118" fill-rule="evenodd" clip-rule="evenodd" d="M240.456 223.084C240.456 223.084 242.699 224.135 243.915 224.915C245.134 225.714 247.168 227.111 247.168 227.111L229.292 234.89C229.292 234.89 228.222 234.169 227.63 233.895C227.039 233.622 225.485 232.692 225.485 232.692L240.456 223.084Z" fill="white"/>
<path opacity="0.0866118" fill-rule="evenodd" clip-rule="evenodd" d="M214.457 229.449C214.457 229.449 215.962 229.753 217.127 230.025C218.291 230.297 219.94 230.639 219.94 230.639L232.439 220.032C232.439 220.032 228.716 218.853 227.496 218.608C226.276 218.364 223.684 217.916 223.684 217.916L214.457 229.449Z" fill="white"/>
<path fill-rule="evenodd" clip-rule="evenodd" d="M213.806 216.67L207.625 228.924C207.625 228.924 206.02 228.753 204.966 228.703C203.912 228.653 201.955 228.79 201.955 228.79L203.78 216.613C203.78 216.613 207.599 216.512 209.304 216.55C211.028 216.585 213.806 216.67 213.806 216.67Z" fill="#2A296D"/>
<path fill-rule="evenodd" clip-rule="evenodd" d="M183.145 219.532L188.852 230.61C188.852 230.61 190.987 230.192 191.931 230.019C192.875 229.847 195.436 229.369 195.436 229.369L193.903 217.486C193.903 217.486 190.387 218.059 188.529 218.478C186.669 218.878 183.145 219.532 183.145 219.532Z" fill="#2A296D"/>
<path fill-rule="evenodd" clip-rule="evenodd" d="M164.349 226.251C164.349 226.251 168.293 224.509 169.093 224.159C169.894 223.809 173.43 222.54 173.43 222.54L182.84 232.405C182.84 232.405 180.957 233.204 179.927 233.607C178.896 234.009 177.417 234.731 177.417 234.731L164.349 226.251Z" fill="#2A296D"/>
<path fill-rule="evenodd" clip-rule="evenodd" d="M173.508 222.529L183.053 232.375C183.053 232.375 184.103 231.97 185.526 231.553C186.947 231.116 188.63 230.721 188.63 230.721L183.161 219.648C183.161 219.648 179.747 220.524 178.199 221.038C176.651 221.553 173.508 222.529 173.508 222.529Z" fill="#4E4CA5"/>
<path fill-rule="evenodd" clip-rule="evenodd" d="M194.011 217.55L195.69 229.491C195.69 229.491 196.859 229.09 198.271 229.01C199.682 228.931 201.584 228.822 201.584 228.822L203.58 216.879C203.58 216.879 201.333 216.779 198.565 217.049C195.797 217.319 194.011 217.55 194.011 217.55Z" fill="#4E4CA5"/>
<path fill-rule="evenodd" clip-rule="evenodd" d="M208.176 228.767C208.176 228.767 210.329 228.9 211.314 229.019C212.299 229.138 214.078 229.423 214.078 229.423L223.598 217.869C223.598 217.869 219.932 217.235 218.333 217.103C216.734 216.972 213.992 216.723 213.992 216.723L208.176 228.767Z" fill="#4E4CA5"/>
<path fill-rule="evenodd" clip-rule="evenodd" d="M220.393 230.912L232.575 220.013C232.575 220.013 234.835 220.627 236.245 221.24C237.655 221.854 240.453 223.204 240.453 223.204L224.885 232.499C224.885 232.499 223.541 231.935 222.399 231.541C221.254 231.128 220.393 230.912 220.393 230.912Z" fill="#4E4CA5"/>
<path fill-rule="evenodd" clip-rule="evenodd" d="M229.706 235.168C229.706 235.168 231.34 236.107 231.779 236.56C232.218 237.013 233.003 237.675 233.003 237.675L252.357 231.828C252.357 231.828 250.435 229.682 249.526 228.84C248.597 228 247.387 227.12 247.387 227.12L229.706 235.168Z" fill="#4E4CA5"/>
<path fill-rule="evenodd" clip-rule="evenodd" d="M235.915 241.523L256.024 237.253C256.024 237.253 256.799 238.827 257.217 240.115C257.635 241.403 257.77 243.067 257.77 243.067L237.311 245.267C237.311 245.267 236.979 243.888 236.698 243.156C236.417 242.423 235.915 241.523 235.915 241.523Z" fill="#4E4CA5"/>
<path fill-rule="evenodd" clip-rule="evenodd" d="M237.749 249.225C237.749 249.225 237.616 250.67 237.427 251.429C237.237 252.188 236.925 253.064 236.925 253.064L256.086 255.263C256.086 255.263 257.085 252.667 257.274 252.047C257.483 251.423 257.678 249.159 257.678 249.159L237.749 249.225Z" fill="#4E4CA5"/>
<path fill-rule="evenodd" clip-rule="evenodd" d="M234.52 257.738L252.208 261.273C252.208 261.273 250.968 262.991 250.097 263.965C249.226 264.939 247.161 266.833 247.161 266.833L231.763 260.897C231.763 260.897 232.915 260.102 233.443 259.355C233.97 258.607 234.52 257.738 234.52 257.738Z" fill="#4E4CA5"/>
<path fill-rule="evenodd" clip-rule="evenodd" d="M201.853 274.445C223.215 271.444 239.117 258.953 237.373 246.546C235.628 234.138 216.897 226.512 195.535 229.513C174.174 232.514 158.271 245.005 160.016 257.412C161.761 269.82 180.492 277.446 201.853 274.445Z" fill="url(#paint10_linear)"/>
<path fill-rule="evenodd" clip-rule="evenodd" d="M138.753 259.921C136.092 241.007 160.694 221.908 193.713 217.271C226.713 212.637 255.647 224.199 258.311 243.132C260.971 262.047 236.369 281.146 203.35 285.782C170.331 290.419 141.413 278.835 138.753 259.921ZM139.536 259.87C142.156 278.493 170.711 289.89 203.304 285.313C235.896 280.737 260.202 261.917 257.582 243.294C254.963 224.671 226.407 213.274 193.815 217.851C161.222 222.428 136.917 241.247 139.536 259.87Z" fill="#17223C"/>
<path fill-rule="evenodd" clip-rule="evenodd" d="M159.491 257.464C157.721 244.881 173.84 232.201 195.465 229.164C217.11 226.125 236.083 233.877 237.853 246.461C239.623 259.044 223.504 271.724 201.879 274.76C180.234 277.8 161.264 270.067 159.491 257.464ZM160.022 257.449C161.765 269.838 180.503 277.465 201.857 274.466C223.211 271.468 239.119 258.976 237.376 246.587C235.634 234.197 216.896 226.571 195.542 229.569C174.188 232.568 158.277 245.04 160.022 257.449Z" fill="#30335C"/>
<path fill-rule="evenodd" clip-rule="evenodd" d="M200.772 266.617C216.44 264.416 228.105 255.26 226.826 246.166C225.547 237.072 211.809 231.484 196.141 233.685C180.473 235.886 168.809 245.042 170.087 254.136C171.366 263.23 185.104 268.818 200.772 266.617Z" fill="url(#paint11_linear)"/>
<path fill-rule="evenodd" clip-rule="evenodd" d="M170.091 254.154C168.796 244.949 180.459 235.707 196.116 233.509C211.773 231.31 225.533 236.982 226.828 246.187C228.122 255.392 216.479 264.631 200.803 266.832C185.127 269.033 171.386 263.359 170.091 254.154ZM170.462 254.122C171.738 263.19 185.307 268.77 200.77 266.599C216.253 264.425 227.757 255.324 226.462 246.258C225.187 237.189 211.617 231.609 196.154 233.781C180.691 235.952 169.186 245.053 170.462 254.122Z" fill="#30335C"/>
<path fill-rule="evenodd" clip-rule="evenodd" d="M191.905 264.972L190.62 267.073L183.681 286.027L183.816 286.562L188.936 274.913L191.905 264.972Z" fill="#30335C"/>
<path fill-rule="evenodd" clip-rule="evenodd" d="M187.553 264.514L185.856 266.356L174.089 284.978L174.132 285.566L182.453 274.2L187.553 264.514Z" fill="#30335C"/>
<path fill-rule="evenodd" clip-rule="evenodd" d="M180.243 262.274L177.611 263.514L157.446 279.614C157.446 279.614 157.002 280.389 157.104 280.414C157.185 280.423 171.077 270.729 171.077 270.729L180.243 262.274Z" fill="#30335C"/>
<path fill-rule="evenodd" clip-rule="evenodd" d="M177.309 260.527L173.944 261.752L150.684 275.791L150.304 276.459L166.831 267.939L177.309 260.527Z" fill="#30335C"/>
<path fill-rule="evenodd" clip-rule="evenodd" d="M174.956 258.403L171.589 259.192L145.571 271.045L144.908 271.811L163.292 264.833L174.956 258.403Z" fill="#30335C"/>
<path fill-rule="evenodd" clip-rule="evenodd" d="M173.408 256.105L169.706 256.625L141.714 265.824L141.237 266.505L160.933 261.263L173.408 256.105Z" fill="#30335C"/>
<path fill-rule="evenodd" clip-rule="evenodd" d="M172.527 253.497L168.937 253.684L139.55 260.129L139.198 260.574L159.78 257.426L172.527 253.497Z" fill="#30335C"/>
<path fill-rule="evenodd" clip-rule="evenodd" d="M172.687 250.979L168.843 250.628L139.509 254.075L138.999 254.523L159.703 253.357L172.687 250.979Z" fill="#30335C"/>
<path fill-rule="evenodd" clip-rule="evenodd" d="M173.301 248.18L169.798 247.583L141.154 247.924L140.721 248.361L160.374 249.422L173.301 248.18Z" fill="#30335C"/>
<path fill-rule="evenodd" clip-rule="evenodd" d="M174.903 245.52L171.916 244.652L144.846 241.861L144.331 242.27L163.097 245.455L174.903 245.52Z" fill="#30335C"/>
<path fill-rule="evenodd" clip-rule="evenodd" d="M177.08 243.016L174.373 241.753L150.068 236.138L149.564 236.486L166.837 241.702L177.08 243.016Z" fill="#30335C"/>
<path fill-rule="evenodd" clip-rule="evenodd" d="M180.231 240.831L177.462 238.982L156.651 230.956L156.172 231.201L171.004 238.167L180.231 240.831Z" fill="#30335C"/>
<path fill-rule="evenodd" clip-rule="evenodd" d="M183.749 238.871L181.57 236.722L164.722 226.377L164.237 226.445L176.196 235.18L183.749 238.871Z" fill="#30335C"/>
<path fill-rule="evenodd" clip-rule="evenodd" d="M187.777 237.157L186.016 234.751L173.743 222.654L173.231 222.528L182.001 232.622L187.777 237.157Z" fill="#30335C"/>
<path fill-rule="evenodd" clip-rule="evenodd" d="M205.082 234.588L208.935 228.542L214.127 216.704L213.684 216.925L205.598 232.357L205.082 234.588Z" fill="#30335C"/>
<path fill-rule="evenodd" clip-rule="evenodd" d="M209.282 234.948L215.282 229.412L223.809 217.819L223.332 217.946L210.632 232.6L209.282 234.948Z" fill="#30335C"/>
<path fill-rule="evenodd" clip-rule="evenodd" d="M213.29 235.91L215.313 233.428L232.17 220.09L232.893 220.028L221.188 230.801L213.29 235.91Z" fill="#30335C"/>
<path fill-rule="evenodd" clip-rule="evenodd" d="M216.708 237.311L226.844 232.659L240.962 223.172L240.237 223.075L219.117 235.19L216.708 237.311Z" fill="#30335C"/>
<path fill-rule="evenodd" clip-rule="evenodd" d="M219.63 239.118L222.573 237.14L246.903 227.05L247.414 227.176L231.339 235.255L219.63 239.118Z" fill="#30335C"/>
<path fill-rule="evenodd" clip-rule="evenodd" d="M221.973 241.026L234.512 238.572L252.91 231.968L252.132 231.78L225.228 239.44L221.973 241.026Z" fill="#30335C"/>
<path fill-rule="evenodd" clip-rule="evenodd" d="M223.555 243.418L227.114 242.027L255.706 237.1L256.356 237.365L237.329 242.018L223.555 243.418Z" fill="#30335C"/>
<path fill-rule="evenodd" clip-rule="evenodd" d="M224.297 246.026L228.002 244.971L257.356 242.788L258.063 243.184L237.847 246.123L224.297 246.026Z" fill="#30335C"/>
<path fill-rule="evenodd" clip-rule="evenodd" d="M224.281 248.583L238.163 250.058L257.941 249.339L257.195 248.811L227.963 248.066L224.281 248.583Z" fill="#30335C"/>
<path fill-rule="evenodd" clip-rule="evenodd" d="M223.647 251.385L236.752 254.078L256.125 255.396L255.683 255.062L227.326 251.125L223.647 251.385Z" fill="#30335C"/>
<path fill-rule="evenodd" clip-rule="evenodd" d="M222.007 253.912L234.616 258.14L252.585 261.418L251.946 260.953L225.422 254.026L222.007 253.912Z" fill="#30335C"/>
<path fill-rule="evenodd" clip-rule="evenodd" d="M219.755 256.446L231.094 262.041L247.1 267.099L246.755 266.474L223.083 257.068L219.755 256.446Z" fill="#30335C"/>
<path fill-rule="evenodd" clip-rule="evenodd" d="M216.877 258.751L226.64 265.359L240.42 272.295L239.976 271.525L219.524 259.587L216.877 258.751Z" fill="#30335C"/>
<path fill-rule="evenodd" clip-rule="evenodd" d="M213.414 260.822L215.667 261.951L232.447 276.305L232.524 276.849L221.331 268.501L213.414 260.822Z" fill="#30335C"/>
<path fill-rule="evenodd" clip-rule="evenodd" d="M209.465 262.386L215.387 271.197L223.625 280.594L223.549 279.773L211.393 264.016L209.465 262.386Z" fill="#30335C"/>
<path fill-rule="evenodd" clip-rule="evenodd" d="M205.206 263.717L206.663 265.651L214.306 283.467L214.073 283.5L208.752 272.921L205.206 263.717Z" fill="#30335C"/>
<path fill-rule="evenodd" clip-rule="evenodd" d="M200.812 264.651L200.877 266.8L203.96 285.495L204.309 285.446L201.558 266.586L200.812 264.651Z" fill="#30335C"/>
<path fill-rule="evenodd" clip-rule="evenodd" d="M196.289 265.088L195.604 267.244L193.836 285.868L194.075 286.448L195.833 274.914L196.289 265.088Z" fill="#30335C"/>
<path fill-rule="evenodd" clip-rule="evenodd" d="M182.959 219.617L188.002 230.75L191.341 235.805L189.182 230.287L183.41 219.871L182.959 219.617Z" fill="#30335C"/>
<path fill-rule="evenodd" clip-rule="evenodd" d="M203.901 216.497L202.73 228.265L200.975 234.333L201.31 228.286L203.438 216.859L203.901 216.497Z" fill="#30335C"/>
<path fill-rule="evenodd" clip-rule="evenodd" d="M193.881 217.469L194.988 229.135L196.278 234.656L196.095 228.999L193.997 217.453L193.881 217.469Z" fill="url(#paint12_linear)"/>
<path fill-rule="evenodd" clip-rule="evenodd" d="M183.677 263.514L181.455 265.133L165.128 282.811C165.128 282.811 164.845 283.465 164.942 283.451C165.019 283.441 176.517 272.737 176.517 272.737L183.677 263.514Z" fill="#30335C"/>
<path fill-rule="evenodd" clip-rule="evenodd" d="M157.447 279.614L157.085 280.417Z" fill="url(#paint13_linear)"/>
<path fill-rule="evenodd" clip-rule="evenodd" d="M157.085 280.417L156.85 280.291L157.187 279.452L177.42 263.422L180.243 262.274L177.611 263.514L157.447 279.614" fill="#17223C"/>
<path fill-rule="evenodd" clip-rule="evenodd" d="M150.304 276.459L150.099 276.27L150.455 275.566L173.748 261.483L177.309 260.527L173.944 261.752L150.684 275.791L150.304 276.459Z" fill="#17223C"/>
<path fill-rule="evenodd" clip-rule="evenodd" d="M144.908 271.811L144.703 271.622L145.383 270.833L171.409 258.901L174.955 258.403L171.589 259.192L145.57 271.045L144.908 271.811Z" fill="#17223C"/>
<path fill-rule="evenodd" clip-rule="evenodd" d="M141.237 266.505L141.055 266.194L141.577 265.547L169.544 256.311L173.408 256.105L169.706 256.625L141.714 265.824L141.237 266.505Z" fill="#17223C"/>
<path fill-rule="evenodd" clip-rule="evenodd" d="M164.944 283.471L164.571 283.345L164.832 282.675L181.222 265.027L183.677 263.514L181.457 265.152L165.15 282.828L164.944 283.471Z" fill="#17223C"/>
<path fill-rule="evenodd" clip-rule="evenodd" d="M139.198 260.574L139.129 260.366L139.52 259.915L168.915 253.529L172.527 253.496L168.937 253.684L139.55 260.129L139.198 260.574Z" fill="#17223C"/>
<path fill-rule="evenodd" clip-rule="evenodd" d="M138.999 254.523L139.113 254.21L139.521 253.876L168.841 250.47L172.687 250.979L168.843 250.628L139.509 254.075L138.999 254.523Z" fill="#17223C"/>
<path fill-rule="evenodd" clip-rule="evenodd" d="M140.721 248.361L140.877 248.062L141.174 247.782L169.788 247.367L173.301 248.18L169.799 247.583L141.154 247.924L140.721 248.361Z" fill="#17223C"/>
<path fill-rule="evenodd" clip-rule="evenodd" d="M144.33 242.27L144.511 242.007L144.868 241.739L171.938 244.53L174.903 245.52L171.915 244.652L144.846 241.861L144.33 242.27Z" fill="#17223C"/>
<path fill-rule="evenodd" clip-rule="evenodd" d="M174.131 285.566L173.888 285.521L173.842 284.914L185.643 266.247L187.553 264.514L185.855 266.356L174.088 284.978L174.131 285.566Z" fill="#17223C"/>
<path fill-rule="evenodd" clip-rule="evenodd" d="M183.816 286.562L183.597 286.553L183.46 285.998L190.473 267.014L191.905 264.972L190.62 267.073L183.681 286.027L183.816 286.562Z" fill="#17223C"/>
<path fill-rule="evenodd" clip-rule="evenodd" d="M194.075 286.448L193.879 286.456L193.639 285.875L195.38 267.196L196.289 265.088L195.604 267.244L193.836 285.868L194.075 286.448Z" fill="#17223C"/>
<path fill-rule="evenodd" clip-rule="evenodd" d="M200.812 264.651L201.558 266.586L204.304 285.407L203.96 285.495L201.309 266.641L200.812 264.651Z" fill="#17223C"/>
<path fill-rule="evenodd" clip-rule="evenodd" d="M205.206 263.717L206.663 265.651L214.073 283.5L214.306 283.467L206.824 265.529L205.206 263.717Z" fill="#17223C"/>
<path fill-rule="evenodd" clip-rule="evenodd" d="M149.564 236.486L150.077 236.057L174.448 241.445L177.08 243.016L174.373 241.753L150.068 236.138L149.564 236.486Z" fill="#17223C"/>
<path fill-rule="evenodd" clip-rule="evenodd" d="M156.651 230.956L156.172 231.201Z" fill="url(#paint14_linear)"/>
<path fill-rule="evenodd" clip-rule="evenodd" d="M156.172 231.201L156.696 230.85L177.636 238.68L180.231 240.831L177.461 238.982L156.651 230.956" fill="#17223C"/>
<path fill-rule="evenodd" clip-rule="evenodd" d="M164.237 226.445L164.833 226.321L181.714 236.484L183.75 238.871L181.57 236.722L164.722 226.377L164.237 226.445Z" fill="#17223C"/>
<path fill-rule="evenodd" clip-rule="evenodd" d="M209.465 262.386L211.554 263.895L223.815 279.696L223.885 280.478L223.625 280.594L223.549 279.773L211.393 264.016L209.465 262.386Z" fill="#17223C"/>
<path fill-rule="evenodd" clip-rule="evenodd" d="M232.524 276.849L232.707 276.744L232.627 276.181L215.87 261.843L213.434 260.819L215.668 261.95L232.447 276.305L232.524 276.849Z" fill="#17223C"/>
<path fill-rule="evenodd" clip-rule="evenodd" d="M240.42 272.295L240.6 272.17L240.167 271.34L219.718 259.421L216.877 258.751L219.566 259.601L239.976 271.525L240.42 272.295Z" fill="#17223C"/>
<path fill-rule="evenodd" clip-rule="evenodd" d="M247.1 267.099L247.269 266.897L246.866 266.28L223.147 256.821L219.755 256.446L223.083 257.068L246.755 266.474L247.1 267.099Z" fill="#17223C"/>
<path fill-rule="evenodd" clip-rule="evenodd" d="M222.007 253.912L225.552 253.691L251.972 260.712L252.66 261.249L252.585 261.418L251.946 260.953L225.422 254.026L222.007 253.912Z" fill="#17223C"/>
<path fill-rule="evenodd" clip-rule="evenodd" d="M256.125 255.396L256.197 255.208L255.716 254.879L227.379 250.801L223.647 251.385L227.326 251.125L255.683 255.062L256.125 255.396Z" fill="#17223C"/>
<path fill-rule="evenodd" clip-rule="evenodd" d="M224.281 248.583L227.963 247.788L257.342 248.592L257.983 249.076L257.941 249.339L257.217 248.827L227.963 248.066L224.281 248.583Z" fill="#17223C"/>
<path fill-rule="evenodd" clip-rule="evenodd" d="M256.356 237.365L256.055 237.051L255.538 236.886L226.915 241.738L223.555 243.418L227.114 242.027L255.706 237.1L256.356 237.365Z" fill="#17223C"/>
<path fill-rule="evenodd" clip-rule="evenodd" d="M224.297 246.026L228.052 244.628L257.304 242.558L258.031 242.951L258.063 243.184L257.356 242.788L228.002 244.971L224.297 246.026Z" fill="#17223C"/>
<path fill-rule="evenodd" clip-rule="evenodd" d="M221.974 241.026L225.121 239.099L251.906 231.436L252.634 231.69L252.91 231.968L252.133 231.78L225.228 239.44L221.974 241.026Z" fill="#17223C"/>
<path fill-rule="evenodd" clip-rule="evenodd" d="M247.414 227.176L247.212 227.006L246.761 226.891L222.396 236.868L219.63 239.118L222.573 237.14L246.902 227.05L247.414 227.176Z" fill="#17223C"/>
<path fill-rule="evenodd" clip-rule="evenodd" d="M240.962 223.172L240.57 223.049L239.986 222.972L218.974 235.012L216.708 237.311L219.117 235.19L240.238 223.075L240.962 223.172Z" fill="#17223C"/>
<path fill-rule="evenodd" clip-rule="evenodd" d="M232.893 220.028L232.423 219.916L231.899 219.989L215.075 233.283L213.29 235.91L215.313 233.428L232.17 220.09L232.893 220.028Z" fill="#17223C"/>
<path fill-rule="evenodd" clip-rule="evenodd" d="M223.808 217.819L223.521 217.741L223.064 217.864L210.449 232.428L209.282 234.948L210.631 232.6L223.332 217.946L223.808 217.819Z" fill="#17223C"/>
<path fill-rule="evenodd" clip-rule="evenodd" d="M214.127 216.704L213.787 216.673L213.385 216.907L205.349 232.273L205.082 234.588L205.598 232.357L213.684 216.925L214.127 216.704Z" fill="#17223C"/>
<path fill-rule="evenodd" clip-rule="evenodd" d="M203.901 216.497L203.589 216.521L203.203 216.872L200.984 228.352L200.975 234.333L201.311 228.286L203.439 216.859L203.901 216.497V216.497Z" fill="#17223C"/>
<path fill-rule="evenodd" clip-rule="evenodd" d="M196.278 234.656L195.273 229.194L193.881 217.469L193.998 217.453L195.799 229.14L196.278 234.656Z" fill="url(#paint15_linear)"/>
<path fill-rule="evenodd" clip-rule="evenodd" d="M182.959 219.617L183.189 219.565L183.656 219.796L189.49 230.224L191.341 235.805L189.182 230.287L183.41 219.871L182.959 219.617Z" fill="#17223C"/>
<path fill-rule="evenodd" clip-rule="evenodd" d="M173.231 222.528L173.475 222.434L173.928 222.569L186.207 234.566L187.777 237.157L186.016 234.751L173.743 222.654L173.231 222.528Z" fill="#17223C"/>
<path fill-rule="evenodd" clip-rule="evenodd" d="M191.942 213.94C191.942 213.94 192.498 212.832 192.074 211.644C191.653 210.475 190.45 209.932 189.708 209.996C188.966 210.061 187.173 210.234 186.321 210.076C185.469 209.919 184.733 209.745 184.733 209.745C184.733 209.745 184.389 208.843 183.535 208.25C182.639 207.643 181.237 207.087 179.903 207.156C178.627 207.216 177.827 207.289 177.387 207.113C176.945 206.918 176.898 206.727 176.913 206.408C176.927 206.089 176.902 205.914 176.764 205.775C176.579 205.583 174.566 204.619 173.802 206.35C173.018 208.083 175.153 209.071 175.599 208.869C175.992 208.715 176.067 208.408 176.353 208.328C176.635 208.229 176.942 208.305 177.326 208.647C177.688 208.972 178.58 209.975 179.207 210.501C179.92 211.074 181.41 211.835 182.659 211.858C183.569 211.868 183.968 211.614 183.968 211.614C183.968 211.614 184.892 211.999 185.411 212.461C186.179 213.145 187.593 214.907 188.533 215.409C189.365 215.846 191.236 215.524 191.942 213.94Z" fill="url(#paint16_linear)"/>
<path fill-rule="evenodd" clip-rule="evenodd" d="M190.781 212.142C190.781 212.142 190.237 212.773 190.087 213.25C189.936 213.726 189.991 214.115 189.991 214.115L190.495 214.183C190.475 214.185 190.313 213.594 190.781 212.142Z" fill="#17223C"/>
<path fill-rule="evenodd" clip-rule="evenodd" d="M194.791 213.539C194.791 213.539 193.951 212.628 194.031 211.369C194.114 210.13 195.12 209.276 195.851 209.133C196.582 208.991 198.354 208.663 199.13 208.277C199.905 207.891 200.565 207.521 200.565 207.521C200.565 207.521 200.647 206.559 201.304 205.754C201.998 204.924 203.192 204.003 204.493 203.702C205.737 203.408 206.526 203.258 206.9 202.968C207.271 202.658 207.263 202.461 207.162 202.159C207.06 201.856 207.035 201.681 207.13 201.51C207.255 201.274 208.923 199.792 210.136 201.246C211.367 202.697 209.587 204.234 209.103 204.163C208.683 204.123 208.525 203.848 208.229 203.85C207.93 203.833 207.656 203.99 207.381 204.425C207.123 204.837 206.542 206.047 206.085 206.726C205.557 207.473 204.335 208.615 203.141 208.981C202.269 209.242 201.815 209.107 201.815 209.107C201.815 209.107 201.034 209.732 200.662 210.319C200.112 211.188 199.239 213.271 198.474 214.012C197.775 214.665 195.907 214.868 194.791 213.539Z" fill="url(#paint17_linear)"/>
<path fill-rule="evenodd" clip-rule="evenodd" d="M195.373 211.497C195.373 211.497 196.07 211.954 196.346 212.371C196.621 212.787 196.676 213.176 196.676 213.176L196.211 213.38C196.23 213.377 196.223 212.764 195.373 211.497Z" fill="#17223C"/>
<path fill-rule="evenodd" clip-rule="evenodd" d="M183.474 250.255C182.807 245.517 188.874 240.744 197.013 239.601C205.151 238.458 212.3 241.376 212.966 246.114C213.633 250.852 207.566 255.625 199.427 256.768C191.289 257.911 184.14 254.993 183.474 250.255ZM184.754 249.521C185.36 253.832 191.862 256.503 199.283 255.461C206.685 254.422 212.217 250.061 211.611 245.75C211.004 241.439 204.503 238.767 197.081 239.809C189.66 240.852 184.145 245.191 184.754 249.521Z" fill="#30335C"/>
<path fill-rule="evenodd" clip-rule="evenodd" d="M211.614 245.768C212.203 250.101 206.685 254.421 199.263 255.463C191.838 256.486 185.337 253.816 184.748 249.483C184.158 245.15 189.677 240.831 197.098 239.788C204.503 238.768 211.005 241.438 211.614 245.768Z" fill="url(#paint18_linear)"/>
<path fill-rule="evenodd" clip-rule="evenodd" d="M208.433 240.433C208.152 238.433 206.471 237.442 206.471 237.442C206.471 237.442 206.179 236.77 205.87 234.576C205.562 232.382 204.989 230.838 203.424 228.563C202.111 226.669 199.334 225.752 198.449 225.5C198.416 225.406 198.402 225.309 198.366 225.195C198.499 225.018 198.699 224.752 198.866 224.392C199.172 223.755 199.304 222.588 198.783 221.414C198.353 220.464 196.873 218.653 196.327 217.581C196.253 217.334 196.179 217.087 196.105 216.84C196.139 216.102 196.741 215.602 196.607 214.512C196.482 213.341 195.517 211.537 195.139 210.956C194.761 210.375 193.516 208.828 193.928 208.671C194.36 208.511 195.225 207.914 195.085 207.201C194.945 206.488 194.723 205.747 194.019 204.955C193.317 204.183 191.98 204.37 191.941 204.376C191.922 204.379 190.565 204.569 190.104 205.505C189.646 206.461 189.636 207.234 189.698 207.958C189.76 208.682 190.775 209.015 191.215 209.052C191.655 209.089 190.885 210.92 190.682 211.582C190.476 212.225 190.049 214.245 190.251 215.405C190.443 216.487 191.142 216.824 191.376 217.504C191.373 217.762 191.37 218.02 191.367 218.278C191.137 219.458 190.214 221.608 190.063 222.639C189.886 223.911 190.335 224.996 190.805 225.524C191.064 225.825 191.33 226.025 191.506 226.159C191.501 226.258 191.514 226.355 191.511 226.475C190.73 226.961 188.311 228.588 187.573 230.79C186.696 233.408 186.571 235.049 186.88 237.243C187.189 239.438 187.093 240.164 187.093 240.164C187.093 240.164 185.751 241.58 186.032 243.58C186.313 245.58 189.136 249.777 198.089 248.52C207.158 247.246 208.714 242.433 208.433 240.433Z" fill="url(#paint19_linear)"/>
<path fill-rule="evenodd" clip-rule="evenodd" d="M206.869 237.742C207.463 238.451 207.985 239.209 208.11 240.103C208.643 243.889 204.213 247.66 198.225 248.501C192.237 249.342 186.942 246.957 186.407 243.151C186.292 242.336 186.507 241.474 186.813 240.698C185.95 241.869 185.812 242.859 185.965 243.946C186.498 247.732 192.047 250.101 198.365 249.214C204.682 248.326 209.366 244.54 208.831 240.734C208.648 239.572 207.853 238.416 206.869 237.742Z" fill="#30335C"/>
<path fill-rule="evenodd" clip-rule="evenodd" d="M191.628 226.181C191.628 226.181 192.623 227.071 195.2 226.709C197.777 226.347 198.391 225.231 198.391 225.231C198.391 225.231 198.487 226.901 195.309 227.347C192.131 227.793 191.628 226.181 191.628 226.181Z" fill="#17223C"/>
<path fill-rule="evenodd" clip-rule="evenodd" d="M190.998 225.636C191.868 226.623 193.359 226.967 195.2 226.709C196.883 226.453 198.163 225.857 198.73 224.688C198.777 224.603 198.841 224.495 198.888 224.409C199.194 223.772 199.326 222.605 198.805 221.43C198.375 220.481 196.895 218.669 196.349 217.597C196.275 217.35 196.201 217.103 196.127 216.857C196.161 216.119 196.763 215.619 196.629 214.529C196.504 213.358 195.539 211.553 195.161 210.973C194.786 210.412 193.538 208.844 193.95 208.687C193.97 208.685 193.15 208.899 192.63 208.992C191.918 209.131 191.116 209.046 191.276 209.063C191.736 209.098 190.946 210.931 190.743 211.593C190.537 212.236 190.109 214.256 190.312 215.416C190.504 216.498 191.203 216.835 191.437 217.515C191.434 217.773 191.431 218.031 191.427 218.289C191.198 219.469 190.275 221.619 190.124 222.65C189.947 223.922 190.396 225.008 190.866 225.536C190.929 225.566 190.973 225.6 190.998 225.636Z" fill="url(#paint20_linear)"/>
<path fill-rule="evenodd" clip-rule="evenodd" d="M191.285 209.121C191.304 209.119 191.326 209.135 191.348 209.152C191.708 209.181 192.142 209.179 192.605 209.094C193.067 209.01 193.546 208.903 193.964 208.785C193.981 208.762 194 208.76 194.017 208.738C194.449 208.578 195.33 207.959 195.207 207.224C195.065 206.491 194.839 205.731 194.116 204.942C193.411 204.15 192.036 204.343 191.997 204.348V204.348V204.348V204.348V204.348C191.977 204.351 190.602 204.544 190.124 205.502C189.668 206.477 189.639 207.254 189.704 207.997C189.808 208.735 190.825 209.087 191.285 209.121Z" fill="url(#paint21_linear)"/>
<path fill-rule="evenodd" clip-rule="evenodd" d="M192.335 215.468C192.335 215.468 191.656 214.435 190.42 214.213C189.202 213.988 188.124 214.753 187.805 215.432C187.485 216.11 186.749 217.758 186.169 218.414C185.589 219.069 185.073 219.617 185.073 219.617C185.073 219.617 184.122 219.454 183.177 219.903C182.197 220.378 181.024 221.315 180.402 222.511C179.81 223.643 179.479 224.383 179.086 224.676C178.692 224.969 178.507 224.915 178.244 224.734C177.982 224.554 177.816 224.498 177.625 224.544C177.376 224.599 175.519 225.87 176.623 227.398C177.73 228.945 179.634 227.589 179.704 227.104C179.763 226.68 179.556 226.471 179.614 226.186C179.673 225.9 179.898 225.671 180.368 225.505C180.842 225.36 182.149 225.097 182.919 224.811C183.763 224.494 185.177 223.583 185.835 222.5C186.315 221.7 186.271 221.251 186.271 221.251C186.271 221.251 187.075 220.643 187.737 220.431C188.701 220.117 190.943 219.763 191.852 219.199C192.703 218.644 193.343 216.871 192.335 215.468Z" fill="url(#paint22_linear)"/>
<path fill-rule="evenodd" clip-rule="evenodd" d="M194.815 215.12C194.815 215.12 195.183 213.94 196.31 213.385C197.418 212.834 198.666 213.272 199.16 213.836C199.654 214.401 200.817 215.782 201.555 216.252C202.274 216.726 202.94 217.107 202.94 217.107C202.94 217.107 203.81 216.688 204.842 216.86C205.915 217.046 207.301 217.623 208.229 218.602C209.11 219.528 209.631 220.147 210.091 220.32C210.55 220.494 210.713 220.391 210.916 220.145C211.118 219.899 211.262 219.799 211.459 219.792C211.713 219.776 213.849 220.486 213.209 222.259C212.571 224.051 210.367 223.272 210.166 222.825C209.992 222.433 210.134 222.176 209.999 221.917C209.864 221.659 209.585 221.5 209.086 221.471C208.591 221.462 207.262 221.569 206.443 221.506C205.544 221.434 203.934 220.948 203.003 220.088C202.321 219.452 202.239 219.008 202.239 219.008C202.239 219.008 201.298 218.645 200.604 218.623C199.591 218.588 197.338 218.864 196.309 218.573C195.357 218.271 194.234 216.746 194.815 215.12Z" fill="url(#paint23_linear)"/>
<path fill-rule="evenodd" clip-rule="evenodd" d="M190.685 214.275C190.685 214.275 191.751 213.986 192.474 215.053C193.181 216.142 192.775 216.773 192.775 216.773C192.775 216.773 192.57 215.871 192.269 215.418C191.687 214.51 190.685 214.275 190.685 214.275Z" fill="#17223C"/>
<path fill-rule="evenodd" clip-rule="evenodd" d="M196.033 213.523C196.033 213.523 194.929 213.54 194.528 214.764C194.15 216.006 194.713 216.501 194.713 216.501C194.713 216.501 194.662 215.577 194.827 215.059C195.136 214.026 196.033 213.523 196.033 213.523Z" fill="#17223C"/>
<path fill-rule="evenodd" clip-rule="evenodd" d="M191.406 209.144C191.406 209.144 191.713 209.219 192.66 209.067C193.587 208.917 193.887 208.795 193.887 208.795C193.887 208.795 193.883 209.192 192.72 209.355C191.558 209.519 191.406 209.144 191.406 209.144Z" fill="url(#paint24_linear)"/>
<path opacity="0.140695" fill-rule="evenodd" clip-rule="evenodd" d="M269.511 249.694C269.511 249.694 267.168 249.053 265.665 250.591C264.163 252.129 267.444 253.826 269.976 252.441C272.509 251.055 269.511 249.694 269.511 249.694Z" fill="url(#paint25_linear)"/>
<path fill-rule="evenodd" clip-rule="evenodd" d="M269.766 252.629C270.986 252.457 271.836 251.327 271.664 250.105C271.492 248.882 270.364 248.03 269.144 248.201C267.924 248.373 267.074 249.503 267.246 250.725C267.418 251.948 268.546 252.8 269.766 252.629Z" fill="url(#paint26_linear)"/>
<g filter="url(#filter2_f)">
<path fill-rule="evenodd" clip-rule="evenodd" d="M136.862 157.169C153.16 157.169 166.373 143.963 166.373 127.672C166.373 111.382 153.16 98.1756 136.862 98.1756C120.563 98.1756 107.35 111.382 107.35 127.672C107.35 143.963 120.563 157.169 136.862 157.169Z" fill="#1F30C9"/>
</g>
<path fill-rule="evenodd" clip-rule="evenodd" d="M152.167 80.7292C159.954 89.9089 156.368 107.271 142.92 122.22C129.37 137.148 112.243 142.518 102.274 135.631C104.483 137.69 107.517 140.348 108.842 141.584C119.147 150.874 137.949 148.085 153.022 131.468C167.994 114.829 170.014 94.3779 158.431 86.6176L152.167 80.7292Z" fill="#EEEEEE"/>
<g opacity="0.8">
<path fill-rule="evenodd" clip-rule="evenodd" d="M138.072 143.024L128.13 134.023C122.854 136.929 117.554 138.453 112.802 138.397L121.861 146.575C126.852 147 132.492 145.866 138.072 143.024Z" fill="url(#paint27_linear)"/>
<path fill-rule="evenodd" clip-rule="evenodd" d="M106.132 137.404C104.858 136.922 103.606 136.338 102.397 135.551C104.606 137.61 107.64 140.268 108.965 141.504C110.551 143.007 112.426 144.147 114.467 145.004L106.132 137.404Z" fill="url(#paint28_linear)"/>
<path fill-rule="evenodd" clip-rule="evenodd" d="M153.723 130.663C158.46 125.31 161.802 119.554 163.841 113.946L153.797 104.923C151.678 110.408 148.257 116.041 143.498 121.495L153.723 130.663Z" fill="url(#paint29_linear)"/>
<path fill-rule="evenodd" clip-rule="evenodd" d="M165.796 98.7812C165.518 96.6024 164.893 94.5619 163.921 92.6596L154.319 84.0483C155.211 85.8276 155.735 87.8466 156.034 89.924L165.796 98.7812Z" fill="url(#paint30_linear)"/>
</g>
<path fill-rule="evenodd" clip-rule="evenodd" d="M150.016 78.8945C160.774 86.0554 158.275 105.769 143.303 122.408C128.353 138.946 108.837 143.597 100.673 133.701C93.1679 124.687 97.7371 106.686 110.319 92.8245C122.799 78.9416 140.265 72.4773 150.016 78.8945Z" fill="white"/>
<path fill-rule="evenodd" clip-rule="evenodd" d="M149.337 79.5982L142.563 87.062C140.369 85.4301 137.533 84.8275 134.503 85.1377L137.87 77.268C133.538 77.7255 128.745 79.3569 124.141 82.0885L124.591 88.4373C121.237 90.2686 117.935 92.8527 114.93 96.03L111.013 92.548C110.868 92.7293 110.724 92.9106 110.478 93.0703C106.607 97.3354 103.503 101.975 101.354 106.606L107.754 106.376C106.002 110.137 105.103 113.868 105.042 117.141L97.5973 121.283C97.4803 125.815 98.6284 129.875 101.15 132.954L107.924 125.49V125.49C109.887 127.709 112.738 128.739 116.008 128.798L112.157 137.943C116.888 138.1 122.267 136.699 127.847 133.857L127.258 125.676C130.836 123.787 134.304 120.92 137.597 117.38C137.742 117.199 138.009 116.937 138.153 116.756L143.418 121.372C148.156 116.019 151.497 110.264 153.515 104.757L145.306 105.027C146.776 101.1 147.249 97.3846 146.76 94.2071L155.411 89.3678C154.61 85.17 152.581 81.7711 149.337 79.5982Z" fill="url(#paint31_linear)"/>
<path fill-rule="evenodd" clip-rule="evenodd" d="M141.429 88.4109C148.01 93.3067 146.045 106.032 136.634 116.433C127.202 126.936 114.751 130.226 109.159 124.163C103.908 118.49 106.756 106.588 115.199 97.253C123.541 87.8964 135.21 83.804 141.429 88.4109Z" stroke="white" stroke-width="1.39666" stroke-dasharray="8.29 8.29"/>
<path fill-rule="evenodd" clip-rule="evenodd" d="M140.316 89.6585C146.434 94.2439 144.562 106.035 135.83 115.733C127.098 125.43 115.544 128.487 110.373 122.937C105.462 117.654 108.036 106.542 115.923 97.8309C123.709 89.098 134.561 85.362 140.316 89.6585Z" fill="white"/>
<path fill-rule="evenodd" clip-rule="evenodd" d="M132.932 113.471C138.956 106.117 140.522 97.3104 136.206 93.7432C131.887 90.1736 123.583 93.4164 117.558 100.772C111.535 108.127 109.968 116.933 114.284 120.5C118.603 124.07 126.908 120.827 132.932 113.471ZM131.987 112.698C126.334 119.6 118.712 122.576 115.062 119.559C111.409 116.54 112.849 108.449 118.503 101.545C124.156 94.6432 131.778 91.667 135.428 94.6838C139.081 97.703 137.641 105.794 131.987 112.698Z" fill="#F5A623"/>
<path d="M130.476 100.251L121.981 113.789L119.912 112.492L128.407 98.9538L130.476 100.251Z" fill="#F5A623"/>
<g filter="url(#filter3_f)">
<path fill-rule="evenodd" clip-rule="evenodd" d="M230.484 181.58C246.783 181.58 259.996 168.374 259.996 152.084C259.996 135.793 246.783 122.587 230.484 122.587C214.185 122.587 200.973 135.793 200.973 152.084C200.973 168.374 214.185 181.58 230.484 181.58Z" fill="#1F30C9"/>
</g>
<path fill-rule="evenodd" clip-rule="evenodd" d="M250.354 165.753C240.928 168.86 228.749 160.753 221.458 145.86C214.215 130.897 215.389 116.158 223.733 110.675C221.477 111.725 218.507 113.22 217.152 113.85C206.865 118.845 203.2 134.065 211.267 150.715C219.381 167.293 234.406 175.16 243.917 168.715L250.354 165.753Z" fill="#EEEEEE"/>
<g opacity="0.8">
<path fill-rule="evenodd" clip-rule="evenodd" d="M207.035 135.725L216.99 130.916C216.393 125.988 216.861 121.47 218.37 117.859L209.318 122.247C207.454 125.927 206.581 130.585 207.035 135.725Z" fill="url(#paint32_linear)"/>
<path fill-rule="evenodd" clip-rule="evenodd" d="M221.187 113.072C221.949 112.249 222.782 111.473 223.757 110.794C221.5 111.843 218.53 113.338 217.176 113.968C215.537 114.715 214.086 115.794 212.801 117.087L221.187 113.072Z" fill="url(#paint33_linear)"/>
<path fill-rule="evenodd" clip-rule="evenodd" d="M211.667 151.499C214.302 156.772 217.675 161.103 221.337 164.395L231.339 159.515C227.796 156.201 224.541 151.847 221.836 146.526L211.667 151.499Z" fill="url(#paint34_linear)"/>
<path fill-rule="evenodd" clip-rule="evenodd" d="M232.339 170.577C234.091 171.039 235.845 171.193 237.601 171.039L247.151 166.37C245.515 166.501 243.808 166.276 242.127 165.862L232.339 170.577Z" fill="url(#paint35_linear)"/>
</g>
<path fill-rule="evenodd" clip-rule="evenodd" d="M252.422 164.678C243.624 170.678 229.311 162.674 221.197 146.095C213.154 129.564 215.614 113.224 225.704 110.049C234.916 107.106 247.281 116.162 254.007 130.056C260.78 143.879 260.34 159.216 252.422 164.678Z" fill="white"/>
<path fill-rule="evenodd" clip-rule="evenodd" d="M252.093 163.942L248.471 156.46C250.396 155.29 251.732 153.31 252.429 150.9L257.412 155.906C258.398 152.456 258.629 148.291 257.958 143.931L252.962 142.311C252.595 139.184 251.636 135.863 250.132 132.586L254.004 130.671C253.91 130.505 253.816 130.339 253.769 130.102C251.7 125.826 249.107 122.021 246.226 118.948L244.428 123.907C242.091 121.405 239.513 119.565 237.028 118.506L236.155 111.541C232.723 110.05 229.262 109.671 226.128 110.644L229.75 118.125V118.125C227.447 118.938 225.78 120.797 224.726 123.275L218.916 117.507C217.337 121.071 216.75 125.612 217.204 130.752L223.645 132.832C223.987 136.148 225.111 139.683 226.804 143.293C226.898 143.459 227.016 143.744 227.11 143.91L221.954 146.503C224.589 151.776 227.962 156.107 231.553 159.351L233.879 152.999C236.43 155.337 239.127 156.846 241.709 157.456L242.744 165.559C246.203 166.245 249.43 165.746 252.093 163.942Z" fill="url(#paint36_linear)"/>
<path fill-rule="evenodd" clip-rule="evenodd" d="M247.789 155.177C242.013 158.689 232.882 153.253 227.826 142.85C222.698 132.399 224.021 121.874 230.385 119.479C236.346 117.224 244.574 123.079 249.113 132.413C253.7 141.677 253.232 151.853 247.789 155.177Z" stroke="white" stroke-width="1.15427" stroke-dasharray="6.85 6.85"/>
<path fill-rule="evenodd" clip-rule="evenodd" d="M247.177 153.942C241.782 157.196 233.337 152.12 228.61 142.453C223.882 132.786 225.107 123.018 230.949 120.785C236.506 118.669 244.214 124.071 248.447 132.788C252.728 141.434 252.24 150.875 247.177 153.942Z" fill="white"/>
<path d="M245.65 133.11C249.317 139.814 249.244 146.896 245.489 148.929C241.733 150.963 235.716 147.177 232.049 140.473C228.383 133.77 228.455 126.687 232.211 124.654C235.967 122.621 241.984 126.407 245.65 133.11Z" stroke="#D0021B" stroke-width="3"/>
<path d="M243.322 142.158L235.596 131.479" stroke="#D0021B" stroke-width="6" stroke-linejoin="round"/>
<g filter="url(#filter4_f)">
<path fill-rule="evenodd" clip-rule="evenodd" d="M173.497 199.075C189.796 199.075 203.008 185.869 203.008 169.578C203.008 153.288 189.796 140.081 173.497 140.081C157.198 140.081 143.985 153.288 143.985 169.578C143.985 185.869 157.198 199.075 173.497 199.075Z" fill="#1F30C9"/>
</g>
<path fill-rule="evenodd" clip-rule="evenodd" d="M194.89 177.157C191.884 183.382 181.921 185.559 170.922 182.006C159.91 178.395 153.086 170.675 154.377 163.843C153.81 165.482 153.122 167.692 152.782 168.675C150.307 176.245 156.166 185.444 168.422 189.459C180.665 193.416 191.886 189.696 193.259 181.815L194.89 177.157Z" fill="#EEEEEE"/>
<g opacity="0.8">
<path fill-rule="evenodd" clip-rule="evenodd" d="M158.855 184.327L161.263 177.014C158.502 174.929 156.463 172.508 155.382 170.005L153.2 176.662C154.143 179.377 156.057 182.067 158.855 184.327Z" fill="url(#paint37_linear)"/>
<path fill-rule="evenodd" clip-rule="evenodd" d="M154.346 166.279C154.302 165.499 154.316 164.706 154.447 163.889C153.881 165.527 153.193 167.738 152.853 168.721C152.434 169.903 152.272 171.152 152.298 172.421L154.346 166.279Z" fill="url(#paint38_linear)"/>
<path fill-rule="evenodd" clip-rule="evenodd" d="M169.008 189.638C172.929 190.87 176.734 191.276 180.159 191.034L182.554 183.664C179.176 183.835 175.416 183.358 171.438 182.139L169.008 189.638Z" fill="url(#paint39_linear)"/>
<path fill-rule="evenodd" clip-rule="evenodd" d="M188.586 188.515C189.666 187.86 190.593 187.056 191.366 186.103L193.648 179.06C192.922 179.943 191.983 180.689 190.961 181.331L188.586 188.515Z" fill="url(#paint40_linear)"/>
</g>
<path fill-rule="evenodd" clip-rule="evenodd" d="M195.352 175.601C194.101 182.911 183.156 186.207 170.913 182.251C158.727 178.281 151.723 169.143 155.017 162.553C158.001 156.515 168.53 154.703 178.755 158.057C188.968 161.352 196.446 168.993 195.352 175.601Z" fill="white"/>
<path fill-rule="evenodd" clip-rule="evenodd" d="M194.823 175.41L189.317 173.604C189.663 172.074 189.317 170.447 188.446 168.932L193.369 168.857C192.116 166.695 190.139 164.564 187.627 162.79L184.395 164.509C182.649 163.18 180.52 162.054 178.148 161.222L179.062 158.356C178.933 158.322 178.804 158.289 178.663 158.198C175.517 157.166 172.353 156.624 169.417 156.58L171.033 159.879C168.647 159.84 166.476 160.24 164.741 160.973L160.825 158.04C158.415 159.038 156.55 160.588 155.521 162.629L161.026 164.434V164.434C160.319 165.981 160.444 167.716 161.177 169.442L155.471 169.561C156.493 172.077 158.486 174.568 161.284 176.827L165.446 174.607C167.275 176.04 169.592 177.188 172.222 178.086C172.351 178.12 172.551 178.199 172.68 178.232L171.484 182.069C175.404 183.3 179.21 183.706 182.576 183.477L180.516 179.239C182.923 179.092 184.987 178.471 186.543 177.473L191.107 180.875C193.127 179.474 194.439 177.617 194.823 175.41Z" fill="url(#paint41_linear)"/>
<path fill-rule="evenodd" clip-rule="evenodd" d="M188.343 173.325C187.308 177.917 180.16 179.861 172.495 177.36C164.771 174.872 160.132 169.118 162.013 164.771C163.768 160.694 170.689 159.406 177.568 161.649C184.435 163.833 189.312 168.991 188.343 173.325Z" stroke="white" stroke-width="0.807986" stroke-dasharray="4.8 4.8"/>
<path fill-rule="evenodd" clip-rule="evenodd" d="M187.428 173.034C186.447 177.311 179.812 179.085 172.675 176.776C165.538 174.466 161.232 169.127 162.941 165.121C164.57 161.313 171.012 160.066 177.433 162.163C183.842 164.202 188.341 169.015 187.428 173.034Z" fill="white"/>
<path fill-rule="evenodd" clip-rule="evenodd" d="M173.164 174.634C178.544 176.522 183.818 175.643 184.93 172.512C186.044 169.378 182.493 165.401 177.112 163.513C171.732 161.625 166.458 162.504 165.345 165.636C164.232 168.769 167.783 172.746 173.164 174.634ZM173.433 173.866C168.421 172.108 165.194 168.493 166.112 165.908C167.031 163.321 171.829 162.522 176.842 164.281C181.854 166.04 185.082 169.655 184.163 172.239C183.244 174.826 178.446 175.626 173.433 173.866Z" fill="#405CD2"/>
<path d="M179.461 170.749L170.478 168.817L170.82 167.226L179.803 169.158L179.461 170.749Z" fill="#405CD2"/>
<g filter="url(#filter5_f)">
<path fill-rule="evenodd" clip-rule="evenodd" d="M216.644 230.809C232.943 230.809 246.156 217.603 246.156 201.313C246.156 185.022 232.943 171.816 216.644 171.816C200.346 171.816 187.133 185.022 187.133 201.313C187.133 217.603 200.346 230.809 216.644 230.809Z" fill="#1F30C9"/>
</g>
<path fill-rule="evenodd" clip-rule="evenodd" d="M224.371 191.139C228.268 194.262 228.183 201.619 223.891 208.773C219.556 215.926 213.008 219.47 208.404 217.453C209.466 218.117 210.912 218.96 211.549 219.358C216.481 222.327 223.915 219.703 228.736 211.741C233.515 203.777 232.718 195.286 227.388 193.042L224.371 191.139Z" fill="#EEEEEE"/>
<g opacity="0.8">
<path fill-rule="evenodd" clip-rule="evenodd" d="M223.565 217.632L218.804 214.752C216.886 216.353 214.849 217.393 212.909 217.747L217.245 220.361C219.311 220.139 221.518 219.231 223.565 217.632Z" fill="url(#paint42_linear)"/>
<path fill-rule="evenodd" clip-rule="evenodd" d="M210.115 217.87C209.558 217.775 209.002 217.636 208.448 217.411C209.51 218.075 210.956 218.918 211.593 219.316C212.358 219.803 213.212 220.119 214.11 220.307L210.115 217.87Z" fill="url(#paint43_linear)"/>
<path fill-rule="evenodd" clip-rule="evenodd" d="M228.958 211.357C230.463 208.802 231.368 206.192 231.754 203.746L226.95 200.866C226.521 203.268 225.575 205.833 224.069 208.432L228.958 211.357Z" fill="url(#paint44_linear)"/>
<path fill-rule="evenodd" clip-rule="evenodd" d="M231.349 197.414C231.064 196.548 230.648 195.766 230.102 195.068L225.51 192.32C226.014 192.975 226.387 193.756 226.674 194.578L231.349 197.414Z" fill="url(#paint45_linear)"/>
</g>
<path fill-rule="evenodd" clip-rule="evenodd" d="M223.35 190.561C228.297 192.627 228.84 200.856 224.062 208.819C219.284 216.739 211.707 220.179 207.599 216.794C203.83 213.716 204.265 206.021 208.29 199.378C212.272 192.735 218.872 188.719 223.35 190.561Z" fill="white"/>
<path fill-rule="evenodd" clip-rule="evenodd" d="M223.13 190.902L220.962 194.479C219.94 193.987 218.737 193.966 217.528 194.333L218.276 190.86C216.549 191.389 214.726 192.433 213.068 193.911L213.754 196.461C212.533 197.473 211.393 198.787 210.422 200.319L208.551 199.211C208.506 199.296 208.462 199.381 208.375 199.466C207.136 201.51 206.24 203.646 205.731 205.702L208.319 205.102C207.903 206.773 207.833 208.364 208.067 209.702L205.364 211.978C205.675 213.834 206.464 215.397 207.734 216.452L209.902 212.875V212.875C210.877 213.624 212.119 213.817 213.455 213.582L212.611 217.613C214.55 217.302 216.629 216.306 218.676 214.706L217.788 211.42C219.095 210.367 220.28 208.925 221.341 207.222C221.385 207.137 221.474 207.01 221.518 206.924L224.027 208.388C225.532 205.832 226.437 203.223 226.822 200.82L223.501 201.58C223.789 199.864 223.687 198.313 223.237 197.057L226.376 194.401C225.718 192.754 224.622 191.53 223.13 190.902Z" fill="url(#paint46_linear)"/>
<path fill-rule="evenodd" clip-rule="evenodd" d="M220.607 195.118C223.675 196.591 223.882 201.931 220.874 206.913C217.865 211.938 213.056 214.264 210.299 212.236C207.712 210.341 207.93 205.267 210.628 200.796C213.284 196.324 217.711 193.733 220.607 195.118Z" stroke="white" stroke-width="0.577133" stroke-dasharray="3.43 3.43"/>
<path fill-rule="evenodd" clip-rule="evenodd" d="M220.253 195.714C223.107 197.098 223.278 202.049 220.491 206.691C217.704 211.333 213.241 213.493 210.696 211.641C208.279 209.878 208.447 205.147 210.968 200.974C213.447 196.8 217.569 194.419 220.253 195.714Z" fill="white"/>
<path d="M212.224 201.901C214.144 198.34 217.3 196.325 219.275 197.4C221.249 198.475 221.293 202.233 219.374 205.793C217.454 209.354 214.298 211.369 212.323 210.294C210.349 209.219 210.305 205.462 212.224 201.901Z" stroke="#F99E3C" stroke-width="1.5"/>
<path d="M217.02 200.22L214.631 206.406" stroke="#F99E3C" stroke-width="3" stroke-linejoin="round"/>
<g filter="url(#filter6_f)">
<path fill-rule="evenodd" clip-rule="evenodd" d="M67.2551 362.63C76.5847 362.63 84.1479 355.07 84.1479 345.745C84.1479 336.42 76.5847 328.861 67.2551 328.861C57.9255 328.861 50.3623 336.42 50.3623 345.745C50.3623 355.07 57.9255 362.63 67.2551 362.63Z" fill="#1F30C9"/>
</g>
<path fill-rule="evenodd" clip-rule="evenodd" d="M78.3637 348.288C76.6434 351.149 71.7314 351.78 66.5641 349.621C61.3933 347.433 58.4236 343.449 59.3407 340.226C58.9967 340.988 58.569 342.02 58.3626 342.477C56.8409 346.005 59.2801 350.659 65.0354 353.092C70.7873 355.496 76.3734 354.177 77.3751 350.454L78.3637 348.288Z" fill="#EEEEEE"/>
<g opacity="0.8">
<path fill-rule="evenodd" clip-rule="evenodd" d="M60.6287 350.234L62.1068 346.827C60.8611 345.713 59.9787 344.468 59.5631 343.223L58.2227 346.325C58.5624 347.665 59.3726 349.035 60.6287 350.234Z" fill="url(#paint47_linear)"/>
<path fill-rule="evenodd" clip-rule="evenodd" d="M59.222 341.393C59.2342 341.017 59.2751 340.637 59.3735 340.251C59.0295 341.013 58.6018 342.045 58.3954 342.502C58.1419 343.052 58.0104 343.644 57.9686 344.254L59.222 341.393Z" fill="url(#paint48_linear)"/>
<path fill-rule="evenodd" clip-rule="evenodd" d="M65.3116 353.202C67.1549 353.955 68.9781 354.307 70.6444 354.333L72.1191 350.898C70.4779 350.84 68.68 350.456 66.808 349.706L65.3116 353.202Z" fill="url(#paint49_linear)"/>
<path fill-rule="evenodd" clip-rule="evenodd" d="M74.8286 353.474C75.3791 353.205 75.8617 352.857 76.2763 352.432L77.6821 349.149C77.2928 349.543 76.8067 349.862 76.2849 350.127L74.8286 353.474Z" fill="url(#paint50_linear)"/>
</g>
<path fill-rule="evenodd" clip-rule="evenodd" d="M78.6537 347.561C77.7357 351.015 72.3011 352.142 66.5492 349.738C60.8261 347.33 57.8303 342.658 59.7057 339.634C61.4077 336.862 66.5775 336.429 71.379 338.461C76.177 340.464 79.4663 344.438 78.6537 347.561Z" fill="white"/>
<path fill-rule="evenodd" clip-rule="evenodd" d="M78.4067 347.448L75.8213 346.354C76.0538 345.634 75.9562 344.84 75.5999 344.077L77.9841 344.245C77.471 343.156 76.606 342.053 75.4674 341.098L73.8307 341.789C73.0432 341.079 72.0615 340.451 70.95 339.953L71.5152 338.617C71.4543 338.596 71.3933 338.574 71.3288 338.525C69.8515 337.899 68.3445 337.508 66.9264 337.366L67.5667 339.015C66.4142 338.897 65.3471 338.999 64.4769 339.279L62.7086 337.711C61.5004 338.089 60.5318 338.755 59.9465 339.691L62.5319 340.785V340.785C62.1234 341.497 62.1095 342.334 62.39 343.193L59.6252 343.014C60.012 344.262 60.8691 345.539 62.1253 346.739L64.2333 345.846C65.0565 346.609 66.1279 347.255 67.3614 347.795C67.4224 347.816 67.5156 347.863 67.5765 347.884L66.8336 349.674C68.6768 350.427 70.5 350.779 72.1376 350.809L71.3231 348.691C72.4938 348.72 73.5182 348.508 74.3135 348.094L76.3754 349.914C77.412 349.326 78.1262 348.49 78.4067 347.448Z" fill="url(#paint51_linear)"/>
<path fill-rule="evenodd" clip-rule="evenodd" d="M75.362 346.18C74.6643 348.339 71.1243 348.975 67.524 347.458C63.8951 345.945 61.8984 342.994 62.9942 340.987C64.0176 339.105 67.4201 338.774 70.651 340.134C73.8783 341.466 76.0161 344.141 75.362 346.18Z" stroke="white" stroke-width="0.55" stroke-dasharray="2.11 2.11"/>
<path fill-rule="evenodd" clip-rule="evenodd" d="M74.9319 346.002C74.2743 348.012 70.9895 348.588 67.6366 347.185C64.2838 345.783 62.43 343.044 63.4282 341.193C64.3794 339.435 67.5484 339.104 70.5641 340.375C73.5763 341.618 75.5459 344.112 74.9319 346.002Z" fill="white"/>
<path fill-rule="evenodd" clip-rule="evenodd" d="M67.7946 346.342C70.2794 347.476 72.8569 347.251 73.5488 345.724C74.2402 344.198 72.7154 342.102 70.2312 340.968C67.7464 339.834 65.1688 340.058 64.477 341.586C63.7856 343.112 65.3103 345.208 67.7946 346.342ZM68.0482 345.787C65.8294 344.774 64.5189 342.972 65.0331 341.837C65.5468 340.703 67.7591 340.51 69.9774 341.523C72.1962 342.536 73.5067 344.337 72.9926 345.472C72.4789 346.606 70.2665 346.799 68.0482 345.787Z" fill="#405CD2"/>
<path d="M71.3102 344.821L67.0625 343.493L67.3056 342.717L71.5533 344.045L71.3102 344.821Z" fill="#405CD2"/>
<defs>
<filter id="filter0_f" x="69.2371" y="135.841" width="49.5991" height="49.6005" filterUnits="userSpaceOnUse" color-interpolation-filters="sRGB">
<feFlood flood-opacity="0" result="BackgroundImageFix"/>
<feBlend mode="normal" in="SourceGraphic" in2="BackgroundImageFix" result="shape"/>
<feGaussianBlur stdDeviation="10.8731" result="effect1_foregroundBlur"/>
</filter>
<filter id="filter1_f" x="13.2079" y="211.804" width="29.0732" height="29.0696" filterUnits="userSpaceOnUse" color-interpolation-filters="sRGB">
<feFlood flood-opacity="0" result="BackgroundImageFix"/>
<feBlend mode="normal" in="SourceGraphic" in2="BackgroundImageFix" result="shape"/>
<feGaussianBlur stdDeviation="5.43656" result="effect1_foregroundBlur"/>
</filter>
<filter id="filter2_f" x="9.49195" y="0.317451" width="254.739" height="254.71" filterUnits="userSpaceOnUse" color-interpolation-filters="sRGB">
<feFlood flood-opacity="0" result="BackgroundImageFix"/>
<feBlend mode="normal" in="SourceGraphic" in2="BackgroundImageFix" result="shape"/>
<feGaussianBlur stdDeviation="48.9291" result="effect1_foregroundBlur"/>
</filter>
<filter id="filter3_f" x="103.115" y="24.7286" width="254.739" height="254.71" filterUnits="userSpaceOnUse" color-interpolation-filters="sRGB">
<feFlood flood-opacity="0" result="BackgroundImageFix"/>
<feBlend mode="normal" in="SourceGraphic" in2="BackgroundImageFix" result="shape"/>
<feGaussianBlur stdDeviation="48.9291" result="effect1_foregroundBlur"/>
</filter>
<filter id="filter4_f" x="46.1272" y="42.2233" width="254.739" height="254.71" filterUnits="userSpaceOnUse" color-interpolation-filters="sRGB">
<feFlood flood-opacity="0" result="BackgroundImageFix"/>
<feBlend mode="normal" in="SourceGraphic" in2="BackgroundImageFix" result="shape"/>
<feGaussianBlur stdDeviation="48.9291" result="effect1_foregroundBlur"/>
</filter>
<filter id="filter5_f" x="89.2747" y="73.9577" width="254.739" height="254.71" filterUnits="userSpaceOnUse" color-interpolation-filters="sRGB">
<feFlood flood-opacity="0" result="BackgroundImageFix"/>
<feBlend mode="normal" in="SourceGraphic" in2="BackgroundImageFix" result="shape"/>
<feGaussianBlur stdDeviation="48.9291" result="effect1_foregroundBlur"/>
</filter>
<filter id="filter6_f" x="-47.4958" y="231.003" width="229.502" height="229.485" filterUnits="userSpaceOnUse" color-interpolation-filters="sRGB">
<feFlood flood-opacity="0" result="BackgroundImageFix"/>
<feBlend mode="normal" in="SourceGraphic" in2="BackgroundImageFix" result="shape"/>
<feGaussianBlur stdDeviation="48.9291" result="effect1_foregroundBlur"/>
</filter>
<linearGradient id="paint0_linear" x1="256.327" y1="255.678" x2="230.574" y2="153.613" gradientUnits="userSpaceOnUse">
<stop stop-color="#42E8E0"/>
<stop offset="0.1055" stop-color="#37B6BF"/>
<stop offset="0.2197" stop-color="#2C87A1"/>
<stop offset="0.338" stop-color="#235F87"/>
<stop offset="0.4587" stop-color="#1C3F72"/>
<stop offset="0.5824" stop-color="#162561"/>
<stop offset="0.7105" stop-color="#121355"/>
<stop offset="0.8458" stop-color="#10084E"/>
<stop offset="1" stop-color="#0F054C"/>
</linearGradient>
<linearGradient id="paint1_linear" x1="304.66" y1="312.136" x2="222.983" y2="164.254" gradientUnits="userSpaceOnUse">
<stop offset="4.8e-07"/>
<stop offset="0.702"/>
</linearGradient>
<linearGradient id="paint2_linear" x1="159.939" y1="388.642" x2="258.962" y2="212.193" gradientUnits="userSpaceOnUse">
<stop stop-color="#61628C"/>
<stop offset="1" stop-color="#221876"/>
</linearGradient>
<linearGradient id="paint3_linear" x1="145.67" y1="434.826" x2="360.29" y2="259.517" gradientUnits="userSpaceOnUse">
<stop stop-color="#090A34"/>
<stop offset="1" stop-color="#221876"/>
</linearGradient>
<linearGradient id="paint4_linear" x1="218.476" y1="183.048" x2="218.953" y2="182.981" gradientUnits="userSpaceOnUse">
<stop/>
<stop offset="0.3454" stop-color="#1E1E1E"/>
<stop offset="0.6657" stop-color="#575857"/>
<stop offset="1" stop-color="#535454"/>
</linearGradient>
<linearGradient id="paint5_linear" x1="168.606" y1="369.258" x2="194.954" y2="255.083" gradientUnits="userSpaceOnUse">
<stop stop-color="#090A34"/>
<stop offset="1" stop-color="#221876"/>
</linearGradient>
<linearGradient id="paint6_linear" x1="13.602" y1="262.335" x2="128.254" y2="408.825" gradientUnits="userSpaceOnUse">
<stop stop-color="#0D0C3E"/>
<stop offset="1" stop-color="#1E166C"/>
</linearGradient>
<linearGradient id="paint7_linear" x1="182.717" y1="131.915" x2="112.952" y2="302.14" gradientUnits="userSpaceOnUse">
<stop stop-color="#0D0C3E"/>
<stop offset="1" stop-color="#1E166C"/>
</linearGradient>
<linearGradient id="paint8_linear" x1="211.501" y1="334.566" x2="275.763" y2="177.553" gradientUnits="userSpaceOnUse">
<stop stop-color="#0D0C3E"/>
<stop offset="1" stop-color="#1E166C"/>
</linearGradient>
<linearGradient id="paint9_linear" x1="32.8165" y1="260.685" x2="136.091" y2="392.483" gradientUnits="userSpaceOnUse">
<stop stop-color="#0D0C3E"/>
<stop offset="1" stop-color="#1E166C"/>
</linearGradient>
<linearGradient id="paint10_linear" x1="77.1459" y1="336.376" x2="250.609" y2="270.618" gradientUnits="userSpaceOnUse">
<stop stop-color="#090A34"/>
<stop offset="1" stop-color="#221876"/>
</linearGradient>
<linearGradient id="paint11_linear" x1="190.205" y1="285.646" x2="226.768" y2="242.38" gradientUnits="userSpaceOnUse">
<stop stop-color="#090A34"/>
<stop offset="1" stop-color="#221876"/>
</linearGradient>
<linearGradient id="paint12_linear" x1="197.518" y1="241.576" x2="199.73" y2="241.085" gradientUnits="userSpaceOnUse">
<stop stop-color="#050505"/>
<stop offset="0.5363" stop-color="#6E4931"/>
<stop offset="1" stop-color="#B89069"/>
</linearGradient>
<linearGradient id="paint13_linear" x1="157.48" y1="279.995" x2="157.149" y2="279.829" gradientUnits="userSpaceOnUse">
<stop stop-color="#6A452E"/>
<stop offset="0.3454" stop-color="#BB8E63"/>
<stop offset="0.6657" stop-color="#E7C89F"/>
<stop offset="1" stop-color="#E0DFDF"/>
</linearGradient>
<linearGradient id="paint14_linear" x1="156.554" y1="231.275" x2="156.595" y2="230.915" gradientUnits="userSpaceOnUse">
<stop stop-color="#BB8E63"/>
<stop offset="0.5056" stop-color="#E7C89F"/>
<stop offset="1" stop-color="#E4D1B7"/>
</linearGradient>
<linearGradient id="paint15_linear" x1="196.037" y1="234.649" x2="196.558" y2="234.576" gradientUnits="userSpaceOnUse">
<stop stop-color="#BB8E63"/>
<stop offset="0.5056" stop-color="#E7C89F"/>
<stop offset="1" stop-color="#E4D1B7"/>
</linearGradient>
<linearGradient id="paint16_linear" x1="169.565" y1="192.618" x2="165.594" y2="231.508" gradientUnits="userSpaceOnUse">
<stop stop-color="#413F9B"/>
<stop offset="1" stop-color="#1E166C"/>
</linearGradient>
<linearGradient id="paint17_linear" x1="188.94" y1="189.896" x2="184.969" y2="228.786" gradientUnits="userSpaceOnUse">
<stop stop-color="#413F9B"/>
<stop offset="1" stop-color="#1E166C"/>
</linearGradient>
<linearGradient id="paint18_linear" x1="178.195" y1="224.857" x2="174.78" y2="276.056" gradientUnits="userSpaceOnUse">
<stop stop-color="#413F9B"/>
<stop offset="1" stop-color="#1E166C"/>
</linearGradient>
<linearGradient id="paint19_linear" x1="190.203" y1="191.227" x2="164.107" y2="209.414" gradientUnits="userSpaceOnUse">
<stop stop-color="#413F9B"/>
<stop offset="1" stop-color="#1E166C"/>
</linearGradient>
<linearGradient id="paint20_linear" x1="184.339" y1="189.999" x2="161.925" y2="233.185" gradientUnits="userSpaceOnUse">
<stop stop-color="#413F9B"/>
<stop offset="1" stop-color="#1E166C"/>
</linearGradient>
<linearGradient id="paint21_linear" x1="187.891" y1="199.604" x2="185.476" y2="214.566" gradientUnits="userSpaceOnUse">
<stop stop-color="#413F9B"/>
<stop offset="1" stop-color="#1E166C"/>
</linearGradient>
<linearGradient id="paint22_linear" x1="170.987" y1="203.287" x2="167.021" y2="242.251" gradientUnits="userSpaceOnUse">
<stop stop-color="#413F9B"/>
<stop offset="1" stop-color="#1E166C"/>
</linearGradient>
<linearGradient id="paint23_linear" x1="190.431" y1="200.556" x2="186.464" y2="239.519" gradientUnits="userSpaceOnUse">
<stop stop-color="#413F9B"/>
<stop offset="1" stop-color="#1E166C"/>
</linearGradient>
<linearGradient id="paint24_linear" x1="192.642" y1="208.852" x2="192.632" y2="209.464" gradientUnits="userSpaceOnUse">
<stop stop-color="#0D0C3E"/>
<stop offset="1" stop-color="#1E166C"/>
</linearGradient>
<linearGradient id="paint25_linear" x1="272.137" y1="249.948" x2="267.922" y2="247.051" gradientUnits="userSpaceOnUse">
<stop offset="4.8e-07"/>
<stop offset="1"/>
</linearGradient>
<linearGradient id="paint26_linear" x1="271.353" y1="247.891" x2="266.935" y2="248.512" gradientUnits="userSpaceOnUse">
<stop stop-color="#F8A440"/>
<stop offset="1" stop-color="#1D1C1C"/>
</linearGradient>
<linearGradient id="paint27_linear" x1="114.354" y1="131.096" x2="111.532" y2="144.381" gradientUnits="userSpaceOnUse">
<stop stop-color="#FAD961"/>
<stop offset="1" stop-color="#F76B1C"/>
</linearGradient>
<linearGradient id="paint28_linear" x1="102.397" y1="135.551" x2="100.997" y2="142.143" gradientUnits="userSpaceOnUse">
<stop stop-color="#FAD961"/>
<stop offset="1" stop-color="#F76B1C"/>
</linearGradient>
<linearGradient id="paint29_linear" x1="147.315" y1="103.546" x2="142.079" y2="128.189" gradientUnits="userSpaceOnUse">
<stop stop-color="#FAD961"/>
<stop offset="1" stop-color="#F76B1C"/>
</linearGradient>
<linearGradient id="paint30_linear" x1="154.319" y1="84.0483" x2="151.82" y2="95.8121" gradientUnits="userSpaceOnUse">
<stop stop-color="#FAD961"/>
<stop offset="1" stop-color="#F76B1C"/>
</linearGradient>
<linearGradient id="paint31_linear" x1="102.267" y1="56.6749" x2="84.1403" y2="141.998" gradientUnits="userSpaceOnUse">
<stop stop-color="#FAD961"/>
<stop offset="1" stop-color="#F76B1C"/>
</linearGradient>
<linearGradient id="paint32_linear" x1="223.478" y1="121.302" x2="214.187" y2="115.032" gradientUnits="userSpaceOnUse">
<stop stop-color="#F5515F"/>
<stop offset="1" stop-color="#9F041B"/>
</linearGradient>
<linearGradient id="paint33_linear" x1="223.757" y1="110.794" x2="219.147" y2="107.683" gradientUnits="userSpaceOnUse">
<stop stop-color="#F5515F"/>
<stop offset="1" stop-color="#9F041B"/>
</linearGradient>
<linearGradient id="paint34_linear" x1="234.393" y1="154.991" x2="217.159" y2="143.361" gradientUnits="userSpaceOnUse">
<stop stop-color="#F5515F"/>
<stop offset="1" stop-color="#9F041B"/>
</linearGradient>
<linearGradient id="paint35_linear" x1="247.151" y1="166.37" x2="238.925" y2="160.818" gradientUnits="userSpaceOnUse">
<stop stop-color="#F5515F"/>
<stop offset="1" stop-color="#9F041B"/>
</linearGradient>
<linearGradient id="paint36_linear" x1="273.585" y1="142.775" x2="233.082" y2="104.206" gradientUnits="userSpaceOnUse">
<stop stop-color="#F5515F"/>
<stop offset="1" stop-color="#9F041B"/>
</linearGradient>
<linearGradient id="paint37_linear" x1="147.354" y1="167.966" x2="140.829" y2="195.596" gradientUnits="userSpaceOnUse">
<stop stop-color="#3023AE"/>
<stop offset="0.475248" stop-color="#53A0FD"/>
<stop offset="1" stop-color="#B4EC51"/>
</linearGradient>
<linearGradient id="paint38_linear" x1="148.349" y1="163.176" x2="144.455" y2="177.659" gradientUnits="userSpaceOnUse">
<stop stop-color="#3023AE"/>
<stop offset="0.475248" stop-color="#53A0FD"/>
<stop offset="1" stop-color="#B4EC51"/>
</linearGradient>
<linearGradient id="paint39_linear" x1="159.95" y1="181.907" x2="160.602" y2="203.946" gradientUnits="userSpaceOnUse">
<stop stop-color="#3023AE"/>
<stop offset="0.475248" stop-color="#53A0FD"/>
<stop offset="1" stop-color="#B4EC51"/>
</linearGradient>
<linearGradient id="paint40_linear" x1="183.071" y1="179.223" x2="181.746" y2="195.92" gradientUnits="userSpaceOnUse">
<stop stop-color="#3023AE"/>
<stop offset="0.475248" stop-color="#53A0FD"/>
<stop offset="1" stop-color="#B4EC51"/>
</linearGradient>
<linearGradient id="paint41_linear" x1="145.97" y1="167.404" x2="164.764" y2="209.103" gradientUnits="userSpaceOnUse">
<stop stop-color="#3023AE"/>
<stop offset="0.475248" stop-color="#53A0FD"/>
<stop offset="1" stop-color="#B4EC51"/>
</linearGradient>
<linearGradient id="paint42_linear" x1="212.963" y1="214.65" x2="212.865" y2="220.285" gradientUnits="userSpaceOnUse">
<stop stop-color="#FAD961"/>
<stop offset="1" stop-color="#F76B1C"/>
</linearGradient>
<linearGradient id="paint43_linear" x1="208.448" y1="217.411" x2="208.399" y2="220.207" gradientUnits="userSpaceOnUse">
<stop stop-color="#FAD961"/>
<stop offset="1" stop-color="#F76B1C"/>
</linearGradient>
<linearGradient id="paint44_linear" x1="224.202" y1="200.818" x2="224.019" y2="211.271" gradientUnits="userSpaceOnUse">
<stop stop-color="#FAD961"/>
<stop offset="1" stop-color="#F76B1C"/>
</linearGradient>
<linearGradient id="paint45_linear" x1="225.51" y1="192.32" x2="225.423" y2="197.31" gradientUnits="userSpaceOnUse">
<stop stop-color="#FAD961"/>
<stop offset="1" stop-color="#F76B1C"/>
</linearGradient>
<linearGradient id="paint46_linear" x1="205.737" y1="190.598" x2="205.268" y2="217.485" gradientUnits="userSpaceOnUse">
<stop stop-color="#FAD961"/>
<stop offset="1" stop-color="#F76B1C"/>
</linearGradient>
<linearGradient id="paint47_linear" x1="55.7679" y1="341.912" x2="51.5191" y2="354.922" gradientUnits="userSpaceOnUse">
<stop stop-color="#3023AE"/>
<stop offset="0.475248" stop-color="#53A0FD"/>
<stop offset="1" stop-color="#B4EC51"/>
</linearGradient>
<linearGradient id="paint48_linear" x1="56.4549" y1="339.657" x2="54.0008" y2="346.458" gradientUnits="userSpaceOnUse">
<stop stop-color="#3023AE"/>
<stop offset="0.475248" stop-color="#53A0FD"/>
<stop offset="1" stop-color="#B4EC51"/>
</linearGradient>
<linearGradient id="paint49_linear" x1="61.2622" y1="349.119" x2="60.6672" y2="359.717" gradientUnits="userSpaceOnUse">
<stop stop-color="#3023AE"/>
<stop offset="0.475248" stop-color="#53A0FD"/>
<stop offset="1" stop-color="#B4EC51"/>
</linearGradient>
<linearGradient id="paint50_linear" x1="72.5595" y1="348.79" x2="71.2427" y2="356.748" gradientUnits="userSpaceOnUse">
<stop stop-color="#3023AE"/>
<stop offset="0.475248" stop-color="#53A0FD"/>
<stop offset="1" stop-color="#B4EC51"/>
</linearGradient>
<linearGradient id="paint51_linear" x1="55.1227" y1="341.585" x2="62.3491" y2="362.386" gradientUnits="userSpaceOnUse">
<stop stop-color="#3023AE"/>
<stop offset="0.475248" stop-color="#53A0FD"/>
<stop offset="1" stop-color="#B4EC51"/>
</linearGradient>
</defs>
</svg>
