<svg width="1920" height="1080" viewBox="0 0 1920 1080" fill="none" xmlns="http://www.w3.org/2000/svg">
<rect width="1920" height="1080" fill="url(#paint0_linear)"/>
<path fill-rule="evenodd" clip-rule="evenodd" d="M1497 661C1610.22 661 1702 569.218 1702 456C1702 342.782 1610.22 251 1497 251C1383.78 251 1292 342.782 1292 456C1292 569.218 1383.78 661 1497 661Z" fill="#392D9B"/>
<path opacity="0.8" fill-rule="evenodd" clip-rule="evenodd" d="M1195.34 721.558C1199.3 723.851 1204.3 724.894 1209.72 724.894C1216.18 724.894 1222.84 723.226 1228.05 720.307L1587.04 512.843C1592.25 509.924 1595.17 505.754 1595.17 501.792C1595.17 498.456 1593.08 495.329 1589.33 493.244L1404.32 386.28C1395.98 381.276 1381.19 381.901 1371.61 387.531L1012.62 594.995C1007.41 597.914 1004.49 602.084 1004.49 606.046C1004.49 609.382 1006.58 612.509 1010.33 614.594L1195.34 721.558ZM1227.64 719.264C1218.26 724.685 1204.09 725.102 1195.97 720.515L1010.95 613.552C1007.62 611.675 1005.74 608.965 1005.74 606.046C1005.74 602.501 1008.45 598.748 1013.24 596.037L1372.23 388.574C1381.61 383.152 1395.78 382.735 1403.9 387.323L1588.92 494.286C1592.25 496.163 1594.13 498.873 1594.13 501.792C1594.13 505.337 1591.42 509.09 1586.63 511.801L1227.64 719.264Z" fill="url(#paint1_linear)"/>
<path fill-rule="evenodd" clip-rule="evenodd" d="M1195.55 721.349C1199.3 723.643 1204.3 724.685 1209.72 724.685C1215.97 724.685 1222.84 723.017 1228.26 720.098L1587.25 512.635C1592.46 509.716 1595.38 505.754 1595.38 501.792C1595.38 498.665 1593.29 495.537 1589.54 493.452L1404.53 386.489C1395.98 381.484 1381.4 382.11 1371.82 387.74L1012.83 595.203C1007.62 598.122 1004.7 602.084 1004.7 606.045C1004.7 609.173 1006.78 612.301 1010.53 614.386L1195.55 721.349ZM1227.84 719.473C1218.26 724.894 1204.09 725.519 1195.97 720.724L1010.95 613.76C1007.41 611.675 1005.53 608.965 1005.53 606.045C1005.53 602.292 1008.45 598.748 1013.24 595.829L1372.23 388.365C1381.82 382.944 1395.98 382.318 1404.11 387.114L1589.13 494.078C1592.67 496.163 1594.54 498.873 1594.54 501.792C1594.54 505.546 1591.63 509.09 1586.83 512.009L1227.84 719.473Z" fill="#224AFA"/>
<path fill-rule="evenodd" clip-rule="evenodd" d="M1021.63 620.381C1021.42 620.381 1021.42 620.381 1021.21 620.172C1021 619.964 1021.21 619.755 1021.42 619.546C1029.55 614.959 1036.84 604.951 1039.55 594.525L1073.09 461.287C1077.26 444.815 1090.18 433.555 1099.55 433.347C1104.35 433.138 1108.1 436.058 1109.56 441.062L1118.93 471.087C1119.97 474.215 1121.85 476.509 1124.56 477.551C1127.68 478.802 1131.85 478.177 1136.23 475.675L1142.89 471.921C1150.6 467.543 1157.69 458.16 1160.4 448.36C1164.98 432.721 1177.27 422.296 1186.02 421.67C1190.61 421.253 1194.15 423.547 1196.03 427.717L1206.44 450.445C1207.69 452.947 1209.57 454.824 1211.86 455.658C1214.99 456.7 1218.95 456.075 1222.9 453.781L1230.61 449.402C1238.74 444.815 1246.24 434.39 1248.53 423.964L1282.08 279.884C1285.83 263.62 1298.96 251.943 1308.54 251.318C1313.33 251.109 1317.08 253.611 1318.75 258.615L1369.8 402.487C1370.84 405.407 1372.72 407.7 1375.42 408.534C1378.55 409.785 1382.72 409.16 1386.88 406.658L1413.14 391.853C1413.35 391.645 1413.55 391.853 1413.76 392.062C1413.97 392.27 1413.76 392.479 1413.55 392.688L1387.3 407.492C1382.92 409.994 1378.55 410.619 1375.01 409.368C1372.3 408.326 1370.21 406.032 1368.96 402.696L1317.92 258.824C1316.25 254.237 1312.92 251.943 1308.54 252.152C1299.37 252.569 1286.66 264.245 1282.91 280.092L1249.37 424.173C1246.87 434.807 1239.57 445.232 1231.03 450.028L1223.32 454.406C1219.15 456.7 1214.99 457.534 1211.44 456.492C1208.74 455.658 1206.65 453.781 1205.4 450.862L1194.98 428.134C1193.11 424.173 1189.98 422.296 1185.82 422.504C1177.27 423.13 1165.4 433.347 1161.02 448.568C1158.1 458.577 1151.02 468.168 1143.1 472.755L1136.43 476.509C1131.85 479.011 1127.47 479.636 1124.14 478.385C1121.22 477.343 1119.14 474.84 1118.1 471.296L1108.72 441.27C1107.26 436.475 1103.93 433.972 1099.55 433.972C1090.59 434.181 1077.68 445.441 1073.72 461.287L1040.17 594.525C1037.67 605.368 1030.17 615.585 1021.63 620.381Z" fill="#42E8E0"/>
<path fill-rule="evenodd" clip-rule="evenodd" d="M1049.76 636.853C1049.55 636.853 1049.55 636.853 1049.34 636.644C1049.13 636.436 1049.34 636.227 1049.55 636.019C1057.67 631.432 1064.97 621.423 1067.68 610.998L1101.22 477.76C1105.39 461.287 1118.31 450.028 1127.68 449.819C1132.48 449.611 1136.23 452.53 1137.68 457.534L1147.06 487.56C1148.1 490.687 1149.98 492.981 1152.69 494.023C1155.81 495.274 1159.98 494.649 1164.35 492.147L1171.02 488.394C1178.73 484.015 1185.82 474.632 1188.52 464.832C1193.11 449.194 1205.4 438.768 1214.15 438.143C1218.74 437.726 1222.28 440.019 1224.15 444.189L1234.57 466.917C1235.82 469.419 1237.7 471.296 1239.99 472.13C1243.11 473.172 1247.07 472.547 1251.03 470.253L1258.74 465.875C1266.87 461.287 1274.37 450.862 1276.66 440.436L1310.21 296.356C1313.96 280.092 1327.08 268.415 1336.67 267.79C1336.88 267.79 1337.09 267.79 1337.29 267.79C1341.88 267.79 1345.21 270.292 1346.88 275.088L1397.93 418.96C1398.97 421.879 1400.84 424.172 1403.55 425.007C1406.68 426.258 1410.85 425.632 1415.01 423.13L1441.47 408.117C1441.68 407.909 1441.89 408.117 1442.1 408.326C1442.31 408.534 1442.1 408.743 1441.89 408.951L1415.43 423.964C1411.05 426.466 1406.68 427.092 1403.14 425.841C1400.43 424.798 1398.34 422.504 1397.09 419.168L1346.04 275.296C1344.38 270.709 1341.04 268.415 1336.67 268.624C1327.5 269.041 1314.79 280.718 1311.04 296.564L1277.91 440.645C1275.41 451.279 1268.12 461.704 1259.58 466.5L1251.87 470.879C1247.7 473.172 1243.53 474.006 1239.99 472.964C1237.28 472.13 1235.2 470.253 1233.95 467.334L1223.53 444.606C1221.65 440.645 1218.53 438.768 1214.36 438.977C1205.82 439.602 1193.94 449.819 1189.57 465.04C1186.65 475.049 1179.56 484.64 1171.65 489.228L1164.98 492.981C1160.4 495.483 1156.02 496.108 1152.69 494.857C1149.77 493.815 1147.69 491.313 1146.64 487.768L1137.27 457.743C1135.81 452.947 1132.48 450.236 1128.1 450.445C1119.14 450.653 1106.22 461.913 1102.26 477.76L1068.72 610.998C1065.8 621.84 1058.3 632.266 1049.76 636.853Z" fill="#42E8E0"/>
<path fill-rule="evenodd" clip-rule="evenodd" d="M1342.71 270.084H1342.5L1314.17 253.403C1313.96 253.194 1313.96 252.986 1313.96 252.777C1314.17 252.569 1314.37 252.569 1314.58 252.569L1342.92 269.25C1343.13 269.458 1343.13 269.667 1343.13 269.875C1342.92 269.875 1342.92 270.084 1342.71 270.084Z" fill="#224AFA"/>
<path fill-rule="evenodd" clip-rule="evenodd" d="M1220.82 440.853H1220.61L1191.86 423.964C1191.65 423.755 1191.65 423.547 1191.65 423.338C1191.86 423.13 1192.07 423.13 1192.27 423.13L1221.03 440.019C1221.24 440.228 1221.24 440.436 1221.24 440.645C1221.03 440.853 1221.03 440.853 1220.82 440.853Z" fill="#224AFA"/>
<path fill-rule="evenodd" clip-rule="evenodd" d="M1133.73 452.53H1133.52L1103.51 435.015C1103.3 434.807 1103.3 434.598 1103.3 434.39C1103.51 434.181 1103.72 434.181 1103.93 434.181L1133.93 451.696C1134.14 451.904 1134.14 452.113 1134.14 452.321C1133.93 452.321 1133.73 452.53 1133.73 452.53Z" fill="#224AFA"/>
<path fill-rule="evenodd" clip-rule="evenodd" d="M1021.63 620.381C1021.42 620.381 1021.42 620.381 1021.21 620.172C1021 619.964 1021.21 619.755 1021.42 619.546C1029.55 614.959 1036.84 604.951 1039.55 594.525L1073.09 461.287C1077.26 444.815 1090.18 433.555 1099.55 433.347C1104.35 433.138 1108.1 436.058 1109.56 441.062L1118.93 471.087C1119.97 474.215 1121.85 476.509 1124.56 477.551C1127.68 478.802 1131.85 478.177 1136.23 475.675L1142.89 471.921C1150.6 467.543 1157.69 458.16 1160.4 448.36C1164.98 432.721 1177.27 422.296 1186.02 421.67C1190.61 421.253 1194.15 423.547 1196.03 427.717L1206.44 450.445C1207.69 452.947 1209.57 454.824 1211.86 455.658C1214.99 456.7 1218.95 456.075 1222.9 453.781L1230.61 449.402C1238.74 444.815 1246.24 434.39 1248.53 423.964L1282.08 279.884C1285.83 263.62 1298.96 251.943 1308.54 251.318C1313.33 251.109 1317.08 253.611 1318.75 258.615L1369.8 402.487C1370.84 405.407 1372.72 407.7 1375.42 408.534C1378.55 409.785 1382.72 409.16 1386.88 406.658L1413.14 391.853C1413.35 391.645 1413.55 391.853 1413.76 392.062C1413.97 392.27 1413.76 392.479 1413.55 392.688L1387.3 407.492C1382.92 409.994 1378.55 410.619 1375.01 409.368C1372.3 408.326 1370.21 406.032 1368.96 402.696L1317.92 258.824C1316.25 254.237 1312.92 251.943 1308.54 252.152C1299.37 252.569 1286.66 264.245 1282.91 280.092L1249.37 424.173C1246.87 434.807 1239.57 445.232 1231.03 450.028L1223.32 454.406C1219.15 456.7 1214.99 457.534 1211.44 456.492C1208.74 455.658 1206.65 453.781 1205.4 450.862L1194.98 428.134C1193.11 424.173 1189.98 422.296 1185.82 422.504C1177.27 423.13 1165.4 433.347 1161.02 448.568C1158.1 458.577 1151.02 468.168 1143.1 472.755L1136.43 476.509C1131.85 479.011 1127.47 479.636 1124.14 478.385C1121.22 477.343 1119.14 474.84 1118.1 471.296L1108.72 441.27C1107.26 436.475 1103.93 433.972 1099.55 433.972C1090.59 434.181 1077.68 445.441 1073.72 461.287L1040.17 594.525C1037.67 605.368 1030.17 615.585 1021.63 620.381Z" fill="#224AFA"/>
<path fill-rule="evenodd" clip-rule="evenodd" d="M1049.76 636.853C1049.55 636.853 1049.55 636.853 1049.34 636.644C1049.13 636.436 1049.34 636.227 1049.55 636.019C1057.67 631.432 1064.97 621.423 1067.68 610.998L1101.22 477.76C1105.39 461.287 1118.31 450.028 1127.68 449.819C1132.48 449.611 1136.23 452.53 1137.68 457.534L1147.06 487.56C1148.1 490.687 1149.98 492.981 1152.69 494.023C1155.81 495.274 1159.98 494.649 1164.35 492.147L1171.02 488.394C1178.73 484.015 1185.82 474.632 1188.52 464.832C1193.11 449.194 1205.4 438.768 1214.15 438.143C1218.74 437.726 1222.28 440.019 1224.15 444.189L1234.57 466.917C1235.82 469.419 1237.7 471.296 1239.99 472.13C1243.11 473.172 1247.07 472.547 1251.03 470.253L1258.74 465.875C1266.87 461.287 1274.37 450.862 1276.66 440.436L1310.21 296.356C1313.96 280.092 1327.08 268.415 1336.67 267.79C1336.88 267.79 1337.09 267.79 1337.29 267.79C1341.88 267.79 1345.21 270.292 1346.88 275.088L1397.93 418.96C1398.97 421.879 1400.84 424.172 1403.55 425.007C1406.68 426.258 1410.85 425.632 1415.01 423.13L1441.47 408.117C1441.68 407.909 1441.89 408.117 1442.1 408.326C1442.31 408.534 1442.1 408.743 1441.89 408.951L1415.43 423.964C1411.05 426.466 1406.68 427.092 1403.14 425.841C1400.43 424.798 1398.34 422.504 1397.09 419.168L1346.04 275.296C1344.38 270.709 1341.04 268.415 1336.67 268.624C1327.5 269.041 1314.79 280.718 1311.04 296.564L1277.91 440.645C1275.41 451.279 1268.12 461.704 1259.58 466.5L1251.87 470.879C1247.7 473.172 1243.53 474.006 1239.99 472.964C1237.28 472.13 1235.2 470.253 1233.95 467.334L1223.53 444.606C1221.65 440.645 1218.53 438.768 1214.36 438.977C1205.82 439.602 1193.94 449.819 1189.57 465.04C1186.65 475.049 1179.56 484.64 1171.65 489.228L1164.98 492.981C1160.4 495.483 1156.02 496.108 1152.69 494.857C1149.77 493.815 1147.69 491.313 1146.64 487.768L1137.27 457.743C1135.81 452.947 1132.48 450.236 1128.1 450.445C1119.14 450.653 1106.22 461.913 1102.26 477.76L1068.72 610.998C1065.8 621.84 1058.3 632.266 1049.76 636.853Z" fill="#224AFA"/>
<path opacity="0.5" fill-rule="evenodd" clip-rule="evenodd" d="M1313.24 423.555L1289.59 436.866C1282.45 440.991 1276.07 439.304 1273.63 432.929L1227.65 303.566C1222.39 288.755 1200.24 301.878 1195.36 322.689L1165.15 452.24C1162.89 461.614 1156.32 471.176 1148.82 475.3L1141.87 479.238C1135.11 482.987 1128.92 481.862 1126.48 476.238L1117.1 455.802C1111.28 443.053 1091.19 454.865 1085.75 474.176C1083.12 483.175 1076.74 491.611 1069.8 495.549L1063.79 498.923C1056.47 503.048 1049.9 501.361 1047.84 494.424L1039.39 467.426C1034.51 452.24 1012.36 464.614 1007.11 485.612L976.889 605.414C974.449 614.788 967.88 623.975 960.372 628.099L1313.24 423.555Z" fill="#224AFA" fill-opacity="0.0223053"/>
<path opacity="0.5" fill-rule="evenodd" clip-rule="evenodd" d="M1442.52 408.117L1415.85 423.13C1407.93 427.717 1400.84 425.841 1398.13 418.751L1347.09 274.879C1341.25 258.407 1316.67 273.003 1311.25 296.147L1277.7 440.228C1275.2 450.653 1267.91 461.287 1259.58 465.875L1251.87 470.253C1244.36 474.423 1237.49 473.172 1234.78 466.917L1224.36 444.189C1217.9 430.011 1195.61 443.147 1189.57 464.623C1186.65 474.632 1179.56 484.015 1171.86 488.394L1165.19 492.147C1157.06 496.734 1149.77 494.857 1147.48 487.143L1138.1 457.117C1132.68 440.228 1108.1 453.989 1102.26 477.343L1068.72 610.581C1066.01 621.006 1058.72 631.223 1050.38 635.81L1442.52 408.117Z" fill="#224AFA" fill-opacity="0.109318"/>
<g opacity="0.4" filter="url(#filter0_f)">
<path fill-rule="evenodd" clip-rule="evenodd" d="M1171.79 383.534C1171.79 387.704 1175.13 391.041 1179.29 391.041C1183.46 391.041 1186.79 387.704 1186.79 383.534C1186.79 379.364 1183.46 376.028 1179.29 376.028C1175.13 376.028 1171.79 379.364 1171.79 383.534Z" fill="#42E8E0"/>
</g>
<path fill-rule="evenodd" clip-rule="evenodd" d="M1175.96 383.534C1175.96 385.411 1177.42 386.87 1179.08 386.87C1180.96 386.87 1182.42 385.411 1182.42 383.743C1182.42 381.866 1180.96 380.407 1179.29 380.407C1177.42 380.198 1175.96 381.658 1175.96 383.534Z" fill="#42E8E0"/>
<path opacity="0.4" fill-rule="evenodd" clip-rule="evenodd" d="M1265.58 290.509C1266.06 286.391 1263.11 282.668 1258.99 282.194C1254.88 281.719 1251.16 284.673 1250.68 288.791C1250.2 292.91 1253.15 296.633 1257.27 297.107C1261.38 297.581 1265.11 294.628 1265.58 290.509Z" fill="#42E8E0"/>
<path fill-rule="evenodd" clip-rule="evenodd" d="M1254.78 289.683C1254.78 291.56 1256.24 293.02 1257.91 293.02C1259.78 293.02 1261.24 291.56 1261.24 289.892C1261.24 288.015 1259.78 286.556 1258.12 286.556C1256.24 286.347 1254.78 287.807 1254.78 289.683Z" fill="#42E8E0"/>
<g opacity="0.4" filter="url(#filter1_f)">
<path fill-rule="evenodd" clip-rule="evenodd" d="M1007.43 545.013C1007.43 550.013 1011.43 554.013 1016.43 554.013C1021.43 554.013 1025.43 550.013 1025.43 545.013C1025.43 540.013 1021.43 536.013 1016.43 536.013C1011.68 536.263 1007.43 540.263 1007.43 545.013Z" fill="#42E8E0"/>
</g>
<path fill-rule="evenodd" clip-rule="evenodd" d="M1013.24 544.946C1013.24 546.822 1014.69 548.282 1016.36 548.282C1018.24 548.282 1019.7 546.822 1019.7 545.154C1019.7 543.278 1018.24 541.818 1016.57 541.818C1014.69 541.61 1013.24 543.069 1013.24 544.946Z" fill="#42E8E0"/>
<path fill-rule="evenodd" clip-rule="evenodd" d="M1300.49 697.191L1507.86 577.534L1300.49 697.191V697.191Z" fill="#42E8E0"/>
<path opacity="0.0616862" fill-rule="evenodd" clip-rule="evenodd" d="M1554.38 801.293C1554.38 801.293 1477.34 833.646 1441.54 841.977C1400.33 851.568 1140.66 885.794 1078.45 776.868C1040.72 710.822 1063.23 655.438 1084 626.724C1136.53 554.175 1302.09 516.696 1302.09 516.696C1302.09 516.696 1407.19 751.453 1437.82 819.861C1438.55 821.493 1554.38 801.293 1554.38 801.293Z" fill="url(#paint2_linear)"/>
<path fill-rule="evenodd" clip-rule="evenodd" d="M1653.06 549.648C1663.87 626.534 1573.45 701.635 1451.58 718.762C1329.71 735.89 1222.29 688.302 1211.63 612.513C1203.45 554.24 1293.75 480.032 1415.62 462.904C1537.49 445.777 1645 492.281 1653.06 549.648Z" fill="#171645"/>
<path fill-rule="evenodd" clip-rule="evenodd" d="M1714.51 515.364C1714.96 517.587 1715.33 519.823 1715.64 522.066C1729.14 618.479 1612.57 717.161 1454.66 739.353C1296.76 761.545 1157.65 700.209 1143.9 602.419C1143.7 600.987 1143.55 599.549 1143.39 598.11C1133.37 619.375 1129.35 641.501 1132.45 663.598C1146.2 761.436 1294.45 821.44 1463.59 797.669C1632.73 773.898 1758.68 675.309 1744.94 577.519C1741.8 554.454 1731.14 533.564 1714.51 515.364Z" fill="url(#paint3_linear)"/>
<path fill-rule="evenodd" clip-rule="evenodd" d="M1487.84 438.299C1624.39 438.917 1733.69 496.413 1745.66 581.603C1759.73 681.732 1633.99 782.189 1464.8 805.967C1295.61 829.745 1147.05 767.838 1132.98 667.71C1118.92 567.676 1244.48 467.294 1413.47 443.447C1413.37 443.461 1413.23 443.481 1413.13 443.494C1238.61 468.021 1108.99 572.673 1123.69 677.24C1138.39 781.808 1291.78 846.685 1466.35 822.151C1640.92 797.617 1770.49 692.971 1755.79 588.404C1743.24 499.109 1629.51 438.732 1487.84 438.299Z" fill="url(#paint4_linear)"/>
<path opacity="0.1" fill-rule="evenodd" clip-rule="evenodd" d="M1486.14 438.295C1485.75 438.301 1485.37 438.306 1484.93 438.319C1485.37 438.306 1485.75 438.301 1486.14 438.295Z" fill="url(#paint5_linear)"/>
<path fill-rule="evenodd" clip-rule="evenodd" d="M1463.68 797.608C1296.92 821.045 1150.15 761.174 1132.54 663.537C1132.69 664.976 1132.85 666.414 1133.04 667.798C1147.12 767.975 1295.69 829.929 1464.88 806.151C1634.07 782.373 1759.8 681.868 1745.72 581.692C1745.52 580.26 1745.27 578.835 1745.03 577.458C1754.98 676.219 1630.44 774.171 1463.68 797.608Z" fill="url(#paint6_linear)"/>
<path fill-rule="evenodd" clip-rule="evenodd" d="M1408.13 407.55C1248.94 429.923 1132.89 527.168 1143.31 601.286C1157.19 700.078 1292.12 756.163 1437.1 741.481C1294.5 755.876 1161.73 700.268 1148 602.525C1137.69 529.171 1251.76 433.079 1408.43 411.061C1565.1 389.042 1700.87 451.14 1710.63 520.581C1725.44 626.007 1604.24 718.332 1454.66 739.353C1454.71 739.346 1454.71 739.346 1454.76 739.34C1606.81 717.97 1730.14 624.568 1715.17 517.996C1705.3 447.791 1567.37 385.17 1408.13 407.55Z" fill="url(#paint7_linear)"/>
<path fill-rule="evenodd" clip-rule="evenodd" d="M1408.42 411.013C1251.8 433.025 1137.69 529.171 1147.99 602.477C1162.28 704.181 1305.52 760.314 1454.57 739.366C1604.19 718.338 1725.44 626.007 1710.63 520.581C1700.86 451.092 1565.09 388.994 1408.42 411.013ZM1455.32 724.661C1318.36 743.909 1186.83 693.041 1173.83 600.501C1164.45 533.78 1269.38 446.177 1413.34 425.945C1557.29 405.713 1681.96 462.022 1690.85 525.259C1704.38 621.181 1592.85 705.332 1455.32 724.661Z" fill="url(#paint8_linear)"/>
<path fill-rule="evenodd" clip-rule="evenodd" d="M1411.8 423.678C1267.23 443.997 1161.91 532.628 1171.42 600.256C1184.6 694.037 1316.77 745.738 1454.35 726.403C1592.45 706.994 1704.38 621.863 1690.71 524.597C1681.76 460.59 1556.43 403.352 1411.8 423.678ZM1454.18 724.821C1317.93 743.969 1187.07 693.007 1174.07 600.467C1164.69 533.746 1269.04 446.224 1412.19 426.105C1555.34 405.987 1679.48 462.37 1688.37 525.607C1701.85 621.536 1590.95 705.599 1454.18 724.821Z" fill="url(#paint9_linear)"/>
<path fill-rule="evenodd" clip-rule="evenodd" d="M1411.96 426.139C1269.95 446.097 1164.68 532.676 1174.25 600.733C1186.69 689.217 1311.88 744.819 1453.94 724.855C1595.99 704.89 1701.35 617.227 1688.73 527.455C1679.31 460.448 1553.96 406.181 1411.96 426.139ZM1451.58 718.762C1329.71 735.89 1222.29 688.302 1211.63 612.513C1203.45 554.24 1293.75 480.032 1415.62 462.904C1537.49 445.777 1644.99 492.234 1653.05 549.6C1663.86 626.486 1573.45 701.635 1451.58 718.762Z" fill="url(#paint10_linear)"/>
<path fill-rule="evenodd" clip-rule="evenodd" d="M1209 612.738C1200.69 553.653 1292.16 478.406 1415.6 461.057C1539.04 443.709 1647.95 490.844 1656.17 549.015C1667.13 626.999 1575.51 703.194 1452.07 720.542C1328.63 737.891 1219.8 689.624 1209 612.738ZM1211.63 612.513C1222.29 688.302 1329.71 735.89 1451.58 718.762C1573.45 701.635 1663.86 626.486 1653.05 549.6C1644.99 492.234 1537.49 445.777 1415.62 462.904C1293.75 480.032 1203.45 554.24 1211.63 612.513Z" fill="#101036"/>
<path fill-rule="evenodd" clip-rule="evenodd" d="M1334.2 677.684L1367.73 654.429L1379.55 659.483L1353.49 685.436C1353.49 685.436 1346.03 683.127 1342.93 681.762C1339.82 680.398 1334.2 677.684 1334.2 677.684Z" fill="#4E4CA5"/>
<path fill-rule="evenodd" clip-rule="evenodd" d="M1357.25 647.239L1317.57 668.194C1317.57 668.194 1322.25 671.089 1324.92 672.807C1327.54 674.531 1334.36 677.126 1334.36 677.126L1367.58 653.768C1367.58 653.768 1362.5 651.124 1361.11 650.152C1359.65 649.14 1357.25 647.239 1357.25 647.239Z" fill="#2A296D"/>
<path fill-rule="evenodd" clip-rule="evenodd" d="M1354.01 644.579C1354.01 644.579 1352.65 643.505 1351.07 641.974C1349.5 640.444 1348.8 639.276 1348.8 639.276L1304.67 656.526C1304.67 656.526 1308.16 660.611 1310.44 662.675C1312.72 664.74 1317.03 667.784 1317.03 667.784L1356.09 646.281L1354.01 644.579Z" fill="#4E4CA5"/>
<path fill-rule="evenodd" clip-rule="evenodd" d="M1343.31 630.266L1347.3 637.248L1303.89 656.197C1303.89 656.197 1300.68 652.658 1298.83 649.559C1296.99 646.46 1295.09 643.32 1295.09 643.32L1343.31 630.266Z" fill="#2A296D"/>
<path fill-rule="evenodd" clip-rule="evenodd" d="M1290.21 628.968C1290.21 628.968 1290.97 632.657 1292.11 635.904C1293.25 639.151 1295.04 643.279 1295.04 643.279L1342.3 627.925C1342.3 627.925 1341.58 625.886 1341.17 623.997C1340.76 622.108 1340.52 619.708 1340.52 619.708L1290.21 628.968Z" fill="#4E4CA5"/>
<path fill-rule="evenodd" clip-rule="evenodd" d="M1289.75 614.286C1289.75 614.286 1288.88 619.859 1289.24 622.047C1289.6 624.236 1290.07 628.647 1290.07 628.647L1340.57 619.749C1340.57 619.749 1340.49 616.743 1340.73 614.324C1340.97 611.905 1341.36 609.514 1341.36 609.514L1289.75 614.286Z" fill="#2A296D"/>
<path fill-rule="evenodd" clip-rule="evenodd" d="M1290.4 613.708C1290.4 613.708 1291.1 608.012 1291.75 605.39C1292.4 602.768 1293.98 599.139 1293.98 599.139L1344.37 600.478C1344.37 600.478 1343.1 603.528 1342.77 604.986C1342.44 606.443 1341.49 608.329 1341.49 608.329L1290.4 613.708Z" fill="#4E4CA5"/>
<path fill-rule="evenodd" clip-rule="evenodd" d="M1294.49 598.63C1294.49 598.63 1295.95 594.483 1298.14 591.06C1300.33 587.638 1303.5 583.639 1303.5 583.639L1350.86 590.708C1350.86 590.708 1347.91 593.897 1347.1 595.421C1346.3 596.994 1344.67 599.559 1344.67 599.559L1294.49 598.63Z" fill="#2A296D"/>
<path fill-rule="evenodd" clip-rule="evenodd" d="M1353.46 684.564C1353.46 684.564 1360 686.857 1363.31 687.609C1366.62 688.36 1376.01 689.864 1376.01 689.864L1394.44 662.794C1394.44 662.794 1389.86 661.977 1387.63 661.317C1385.4 660.657 1381.1 659.072 1381.1 659.072L1353.46 684.564Z" fill="#2A296D"/>
<path fill-rule="evenodd" clip-rule="evenodd" d="M1376.23 689.735C1376.23 689.735 1382.79 691.149 1386.96 691.488C1391.19 691.819 1399.74 692.564 1399.74 692.564L1410.93 664.807C1410.93 664.807 1404.82 664.498 1401.95 664.122C1399.08 663.746 1395.49 662.694 1395.49 662.694L1376.23 689.735Z" fill="#4E4CA5"/>
<path fill-rule="evenodd" clip-rule="evenodd" d="M1399.39 692.515C1399.39 692.515 1409.06 692.909 1412.23 692.999C1415.39 693.041 1424.89 692.582 1424.89 692.582L1427.96 665.042C1427.96 665.042 1422.11 665.231 1418.9 665.196C1415.74 665.153 1410.93 664.759 1410.93 664.759L1399.39 692.515Z" fill="#2A296D"/>
<path fill-rule="evenodd" clip-rule="evenodd" d="M1428.5 665.112C1428.5 665.112 1433.68 664.969 1436.88 664.616C1439.51 664.343 1445.64 663.385 1445.64 663.385L1449.8 690.249C1449.8 690.249 1441.94 691.305 1437.59 691.818C1433.2 692.338 1424.78 692.548 1424.78 692.548L1428.5 665.112Z" fill="#4E4CA5"/>
<path fill-rule="evenodd" clip-rule="evenodd" d="M1445.98 663.386C1445.98 663.386 1449.8 662.946 1453.67 662.159C1457.53 661.324 1462.23 660.225 1462.23 660.225L1474.51 685.413C1474.51 685.413 1466.29 687.348 1463.04 688.048C1459.74 688.755 1449.64 690.125 1449.64 690.125L1445.98 663.386Z" fill="#2A296D"/>
<path opacity="0.380278" fill-rule="evenodd" clip-rule="evenodd" d="M1303.86 583.735L1350.79 590.231C1350.79 590.231 1354.16 586.593 1355.03 585.498C1355.94 584.397 1358.99 581.242 1358.99 581.242L1316.69 569.668C1316.69 569.668 1310.93 574.321 1309.29 576.45C1307.65 578.627 1303.86 583.735 1303.86 583.735Z" fill="white"/>
<path fill-rule="evenodd" clip-rule="evenodd" d="M1316.93 569.682C1316.93 569.682 1321.41 564.916 1324.5 562.389C1327.55 559.916 1333.27 556.775 1333.27 556.775L1370.25 572.943C1370.25 572.943 1366.53 575.462 1364.59 577.195C1362.61 578.982 1359.92 581.258 1359.92 581.258L1316.93 569.682Z" fill="#2A296D"/>
<path fill-rule="evenodd" clip-rule="evenodd" d="M1332.89 556.829C1332.89 556.829 1339.28 552.572 1342.62 550.4C1345.96 548.228 1352.6 545.056 1352.6 545.056L1383.51 565.679C1383.51 565.679 1378.3 568.016 1376.29 569.272C1374.28 570.528 1370.87 572.856 1370.87 572.856L1332.89 556.829Z" fill="#4E4CA5"/>
<path fill-rule="evenodd" clip-rule="evenodd" d="M1463.05 659.818L1474.33 685.195C1474.33 685.195 1481.72 683.476 1486.4 681.941C1491.09 680.406 1497.98 677.978 1497.98 677.978L1478.7 654.748C1478.7 654.748 1475.02 656.19 1471.12 657.515C1467.23 658.841 1463.05 659.818 1463.05 659.818Z" fill="#4E4CA5"/>
<path fill-rule="evenodd" clip-rule="evenodd" d="M1479.72 654.457C1479.72 654.457 1484.78 652.433 1486.79 651.518C1488.79 650.603 1493.77 648.006 1493.77 648.006L1519.26 668.758C1519.26 668.758 1513.51 671.707 1510.27 673.185C1507.02 674.614 1497.88 677.943 1497.88 677.943L1479.72 654.457Z" fill="#2A296D"/>
<path fill-rule="evenodd" clip-rule="evenodd" d="M1494.4 647.626C1494.4 647.626 1498.8 645.109 1500.81 643.901C1502.83 642.693 1506.28 640.31 1506.28 640.31L1538.54 657.774C1538.54 657.774 1534.34 660.701 1530.8 662.804C1527.26 664.908 1519.89 668.425 1519.89 668.425L1494.4 647.626Z" fill="#4E4CA5"/>
<path fill-rule="evenodd" clip-rule="evenodd" d="M1507.31 639.679C1507.31 639.679 1510.5 637.138 1512.49 635.446C1514.49 633.755 1517.09 630.858 1517.09 630.858L1555.58 644.965C1555.58 644.965 1550.81 649.042 1548.35 650.896C1545.94 652.696 1539.04 657.51 1539.04 657.51L1507.31 639.679Z" fill="#2A296D"/>
<path fill-rule="evenodd" clip-rule="evenodd" d="M1525.13 621.065L1567.87 630.876C1567.87 630.876 1572.48 625.313 1573.88 622.829C1575.27 620.345 1577.35 616.111 1577.35 616.111L1530.18 611.4C1530.18 611.4 1528.31 616.091 1527.56 617.268C1526.8 618.445 1525.13 621.065 1525.13 621.065Z" fill="#2A296D"/>
<path fill-rule="evenodd" clip-rule="evenodd" d="M1532.17 600.024L1581.89 601.067C1581.89 601.067 1582.71 595.208 1582.44 592.959C1582.18 590.709 1581.49 586.134 1581.49 586.134L1531.56 591.837C1531.56 591.837 1532.22 594.858 1532.32 596.596C1532.47 598.327 1532.17 600.024 1532.17 600.024Z" fill="#2A296D"/>
<path fill-rule="evenodd" clip-rule="evenodd" d="M1520.99 573.612C1520.99 573.612 1523.64 576.256 1525.05 578.005C1526.45 579.705 1527.19 581.5 1527.19 581.5L1577.49 571.852C1577.49 571.852 1574.65 566.167 1573.31 564.262C1571.98 562.357 1568.77 558.866 1568.77 558.866L1520.99 573.612Z" fill="#2A296D"/>
<path opacity="0.0866118" fill-rule="evenodd" clip-rule="evenodd" d="M1539 537.012C1539 537.012 1544.51 539.596 1547.49 541.512C1550.49 543.476 1555.49 546.911 1555.49 546.911L1511.57 566.029C1511.57 566.029 1508.94 564.257 1507.49 563.585C1506.03 562.913 1502.22 560.627 1502.22 560.627L1539 537.012Z" fill="white"/>
<path opacity="0.0866118" fill-rule="evenodd" clip-rule="evenodd" d="M1475.13 552.656C1475.13 552.656 1478.82 553.402 1481.68 554.071C1484.55 554.739 1488.6 555.582 1488.6 555.582L1519.3 529.511C1519.3 529.511 1510.16 526.611 1507.16 526.01C1504.16 525.409 1497.79 524.309 1497.79 524.309L1475.13 552.656Z" fill="white"/>
<path fill-rule="evenodd" clip-rule="evenodd" d="M1473.53 521.247L1458.34 551.365C1458.34 551.365 1454.4 550.946 1451.81 550.823C1449.22 550.701 1444.41 551.036 1444.41 551.036L1448.9 521.107C1448.9 521.107 1458.28 520.859 1462.47 520.952C1466.7 521.038 1473.53 521.247 1473.53 521.247Z" fill="#2A296D"/>
<path fill-rule="evenodd" clip-rule="evenodd" d="M1398.2 528.28L1412.22 555.511C1412.22 555.511 1417.47 554.482 1419.79 554.058C1422.11 553.635 1428.4 552.459 1428.4 552.459L1424.63 523.251C1424.63 523.251 1416 524.66 1411.43 525.691C1406.86 526.674 1398.2 528.28 1398.2 528.28Z" fill="#2A296D"/>
<path fill-rule="evenodd" clip-rule="evenodd" d="M1352.03 544.795C1352.03 544.795 1361.72 540.513 1363.68 539.653C1365.65 538.793 1374.34 535.674 1374.34 535.674L1397.46 559.922C1397.46 559.922 1392.83 561.887 1390.3 562.875C1387.77 563.863 1384.13 565.64 1384.13 565.64L1352.03 544.795Z" fill="#2A296D"/>
<path fill-rule="evenodd" clip-rule="evenodd" d="M1374.53 535.647L1397.98 559.849C1397.98 559.849 1400.56 558.854 1404.05 557.827C1407.54 556.752 1411.68 555.782 1411.68 555.782L1398.24 528.566C1398.24 528.566 1389.86 530.719 1386.05 531.983C1382.25 533.248 1374.53 535.647 1374.53 535.647Z" fill="#4E4CA5"/>
<path fill-rule="evenodd" clip-rule="evenodd" d="M1424.9 523.409L1429.02 552.76C1429.02 552.76 1431.89 551.773 1435.36 551.577C1438.83 551.382 1443.5 551.115 1443.5 551.115L1448.4 521.76C1448.4 521.76 1442.88 521.514 1436.08 522.177C1429.28 522.841 1424.9 523.409 1424.9 523.409Z" fill="#4E4CA5"/>
<path fill-rule="evenodd" clip-rule="evenodd" d="M1459.7 550.98C1459.7 550.98 1464.98 551.308 1467.4 551.6C1469.82 551.893 1474.19 552.593 1474.19 552.593L1497.58 524.193C1497.58 524.193 1488.58 522.636 1484.65 522.312C1480.72 521.988 1473.98 521.377 1473.98 521.377L1459.7 550.98Z" fill="#4E4CA5"/>
<path fill-rule="evenodd" clip-rule="evenodd" d="M1489.71 556.252L1519.64 529.464C1519.64 529.464 1525.19 530.972 1528.65 532.48C1532.12 533.989 1538.99 537.305 1538.99 537.305L1500.74 560.153C1500.74 560.153 1497.44 558.767 1494.64 557.799C1491.82 556.783 1489.71 556.252 1489.71 556.252Z" fill="#4E4CA5"/>
<path fill-rule="evenodd" clip-rule="evenodd" d="M1512.59 566.713C1512.59 566.713 1516.6 569.02 1517.68 570.134C1518.76 571.248 1520.69 572.875 1520.69 572.875L1568.23 558.503C1568.23 558.503 1563.51 553.229 1561.28 551.158C1559 549.094 1556.02 546.933 1556.02 546.933L1512.59 566.713Z" fill="#4E4CA5"/>
<path fill-rule="evenodd" clip-rule="evenodd" d="M1527.84 582.333L1577.24 571.837C1577.24 571.837 1579.15 575.707 1580.17 578.872C1581.2 582.037 1581.53 586.127 1581.53 586.127L1531.27 591.536C1531.27 591.536 1530.46 588.147 1529.77 586.346C1529.08 584.544 1527.84 582.333 1527.84 582.333Z" fill="#4E4CA5"/>
<path fill-rule="evenodd" clip-rule="evenodd" d="M1532.35 601.265C1532.35 601.265 1532.02 604.815 1531.56 606.681C1531.09 608.547 1530.32 610.699 1530.32 610.699L1577.4 616.104C1577.4 616.104 1579.85 609.725 1580.31 608.199C1580.83 606.667 1581.31 601.1 1581.31 601.1L1532.35 601.265Z" fill="#4E4CA5"/>
<path fill-rule="evenodd" clip-rule="evenodd" d="M1524.41 622.188L1567.87 630.876C1567.87 630.876 1564.82 635.1 1562.68 637.493C1560.54 639.887 1555.47 644.542 1555.47 644.542L1517.64 629.953C1517.64 629.953 1520.47 627.998 1521.77 626.161C1523.06 624.324 1524.41 622.188 1524.41 622.188Z" fill="#4E4CA5"/>
<path fill-rule="evenodd" clip-rule="evenodd" d="M1444.16 663.251C1496.64 655.876 1535.71 625.175 1531.42 594.678C1527.14 564.182 1481.12 545.439 1428.64 552.814C1376.16 560.189 1337.1 590.89 1341.38 621.387C1345.67 651.883 1391.68 670.627 1444.16 663.251Z" fill="url(#paint11_linear)"/>
<path fill-rule="evenodd" clip-rule="evenodd" d="M1289.14 627.561C1282.61 581.076 1343.05 534.133 1424.17 522.732C1505.24 511.338 1576.33 539.748 1582.87 586.28C1589.4 632.765 1528.95 679.708 1447.84 691.109C1366.72 702.51 1295.67 674.046 1289.14 627.561ZM1291.07 627.436C1297.5 673.205 1367.65 701.21 1447.72 689.957C1527.79 678.703 1587.51 632.447 1581.08 586.678C1574.64 540.909 1504.49 512.904 1424.42 524.157C1344.35 535.411 1284.63 581.667 1291.07 627.436Z" fill="#17223C"/>
<path fill-rule="evenodd" clip-rule="evenodd" d="M1340.09 621.52C1335.74 590.593 1375.35 559.428 1428.47 551.961C1481.65 544.488 1528.26 563.537 1532.61 594.463C1536.95 625.39 1497.35 656.555 1444.22 664.022C1391.05 671.495 1344.44 652.494 1340.09 621.52ZM1341.4 621.482C1345.67 651.931 1391.71 670.672 1444.17 663.299C1496.63 655.926 1535.72 625.223 1531.44 594.774C1527.16 564.325 1481.12 545.584 1428.66 552.957C1376.2 560.33 1337.11 590.985 1341.4 621.482Z" fill="#30335C"/>
<path fill-rule="evenodd" clip-rule="evenodd" d="M1441.51 644.011C1480 638.602 1508.65 616.097 1505.51 593.745C1502.37 571.393 1468.62 557.659 1430.13 563.068C1391.64 568.478 1362.98 590.983 1366.13 613.335C1369.27 635.686 1403.02 649.421 1441.51 644.011Z" fill="url(#paint12_linear)"/>
<path fill-rule="evenodd" clip-rule="evenodd" d="M1366.13 613.382C1362.95 590.76 1391.61 568.045 1430.07 562.639C1468.54 557.233 1502.34 571.17 1505.52 593.793C1508.7 616.415 1480.09 639.124 1441.58 644.536C1403.07 649.949 1369.31 636.004 1366.13 613.382ZM1367.04 613.303C1370.18 635.591 1403.51 649.302 1441.5 643.963C1479.54 638.618 1507.8 616.249 1504.62 593.967C1501.49 571.679 1468.15 557.968 1430.16 563.307C1392.18 568.646 1363.91 591.015 1367.04 613.303Z" fill="#30335C"/>
<path fill-rule="evenodd" clip-rule="evenodd" d="M1419.72 639.967L1416.57 645.132L1399.52 691.718L1399.85 693.034L1412.43 664.402L1419.72 639.967Z" fill="#30335C"/>
<path fill-rule="evenodd" clip-rule="evenodd" d="M1409.03 638.842L1404.86 643.37L1375.95 689.141L1376.06 690.587L1396.5 662.649L1409.03 638.842Z" fill="#30335C"/>
<path fill-rule="evenodd" clip-rule="evenodd" d="M1391.07 633.335L1384.61 636.385L1335.07 675.955C1335.07 675.955 1333.98 677.861 1334.23 677.923C1334.43 677.944 1368.56 654.118 1368.56 654.118L1391.07 633.335Z" fill="#30335C"/>
<path fill-rule="evenodd" clip-rule="evenodd" d="M1383.87 629.043L1375.6 632.054L1318.46 666.561L1317.52 668.201L1358.13 647.261L1383.87 629.043Z" fill="#30335C"/>
<path fill-rule="evenodd" clip-rule="evenodd" d="M1378.08 623.821L1369.81 625.762L1305.9 654.894L1304.27 656.777L1349.43 639.626L1378.08 623.821Z" fill="#30335C"/>
<path fill-rule="evenodd" clip-rule="evenodd" d="M1374.28 618.174L1365.19 619.452L1296.42 642.063L1295.25 643.736L1343.63 630.853L1374.28 618.174Z" fill="#30335C"/>
<path fill-rule="evenodd" clip-rule="evenodd" d="M1372.12 611.762L1363.3 612.223L1291.1 628.063L1290.24 629.158L1340.8 621.419L1372.12 611.762Z" fill="#30335C"/>
<path fill-rule="evenodd" clip-rule="evenodd" d="M1372.51 605.575L1363.07 604.712L1291 613.185L1289.75 614.286L1340.61 611.421L1372.51 605.575Z" fill="#30335C"/>
<path fill-rule="evenodd" clip-rule="evenodd" d="M1374.02 598.695L1365.42 597.228L1295.04 598.065L1293.98 599.139L1342.26 601.747L1374.02 598.695Z" fill="#30335C"/>
<path fill-rule="evenodd" clip-rule="evenodd" d="M1377.96 592.156L1370.62 590.024L1304.12 583.163L1302.85 584.169L1348.95 591.998L1377.96 592.156Z" fill="#30335C"/>
<path fill-rule="evenodd" clip-rule="evenodd" d="M1383.3 586.002L1376.65 582.897L1316.95 569.096L1315.71 569.951L1358.14 582.774L1383.3 586.002Z" fill="#30335C"/>
<path fill-rule="evenodd" clip-rule="evenodd" d="M1391.04 580.631L1384.24 576.088L1333.12 556.359L1331.94 556.963L1368.38 574.083L1391.04 580.631Z" fill="#30335C"/>
<path fill-rule="evenodd" clip-rule="evenodd" d="M1399.69 575.815L1394.33 570.533L1352.94 545.104L1351.75 545.272L1381.13 566.743L1399.69 575.815Z" fill="#30335C"/>
<path fill-rule="evenodd" clip-rule="evenodd" d="M1409.58 571.602L1405.26 565.688L1375.11 535.955L1373.85 535.645L1395.39 560.455L1409.58 571.602Z" fill="#30335C"/>
<path fill-rule="evenodd" clip-rule="evenodd" d="M1452.09 565.286L1461.56 550.426L1474.32 521.33L1473.23 521.873L1453.36 559.803L1452.09 565.286Z" fill="#30335C"/>
<path fill-rule="evenodd" clip-rule="evenodd" d="M1462.41 566.172L1477.15 552.566L1498.1 524.071L1496.93 524.382L1465.73 560.401L1462.41 566.172Z" fill="#30335C"/>
<path fill-rule="evenodd" clip-rule="evenodd" d="M1472.26 568.536L1477.23 562.435L1518.64 529.653L1520.42 529.501L1491.66 555.978L1472.26 568.536Z" fill="#30335C"/>
<path fill-rule="evenodd" clip-rule="evenodd" d="M1480.66 571.979L1505.56 560.547L1540.24 537.227L1538.46 536.99L1486.58 566.767L1480.66 571.979Z" fill="#30335C"/>
<path fill-rule="evenodd" clip-rule="evenodd" d="M1487.84 576.421L1495.07 571.56L1554.83 546.759L1556.09 547.069L1516.6 566.928L1487.84 576.421Z" fill="#30335C"/>
<path fill-rule="evenodd" clip-rule="evenodd" d="M1493.59 581.112L1524.4 575.079L1569.59 558.847L1567.68 558.386L1501.59 577.214L1493.59 581.112Z" fill="#30335C"/>
<path fill-rule="evenodd" clip-rule="evenodd" d="M1497.48 586.99L1506.22 583.571L1576.46 571.461L1578.06 572.112L1531.31 583.548L1497.48 586.99Z" fill="#30335C"/>
<path fill-rule="evenodd" clip-rule="evenodd" d="M1499.3 593.401L1508.4 590.808L1580.51 585.443L1582.25 586.415L1532.59 593.639L1499.3 593.401Z" fill="#30335C"/>
<path fill-rule="evenodd" clip-rule="evenodd" d="M1499.26 599.685L1533.36 603.312L1581.95 601.545L1580.12 600.245L1508.31 598.414L1499.26 599.685Z" fill="#30335C"/>
<path fill-rule="evenodd" clip-rule="evenodd" d="M1497.7 606.571L1529.9 613.192L1577.49 616.432L1576.4 615.611L1506.74 605.934L1497.7 606.571Z" fill="#30335C"/>
<path fill-rule="evenodd" clip-rule="evenodd" d="M1493.67 612.783L1524.65 623.176L1568.79 631.232L1567.23 630.09L1502.06 613.064L1493.67 612.783Z" fill="#30335C"/>
<path fill-rule="evenodd" clip-rule="evenodd" d="M1488.14 619.012L1516 632.764L1555.32 645.196L1554.47 643.66L1496.32 620.539L1488.14 619.012Z" fill="#30335C"/>
<path fill-rule="evenodd" clip-rule="evenodd" d="M1481.07 624.677L1505.06 640.92L1538.91 657.966L1537.82 656.075L1487.58 626.732L1481.07 624.677Z" fill="#30335C"/>
<path fill-rule="evenodd" clip-rule="evenodd" d="M1472.56 629.767L1478.1 632.541L1519.32 667.824L1519.51 669.161L1492.01 648.642L1472.56 629.767Z" fill="#30335C"/>
<path fill-rule="evenodd" clip-rule="evenodd" d="M1462.86 633.612L1477.41 655.269L1497.65 678.365L1497.46 676.347L1467.6 637.619L1462.86 633.612Z" fill="#30335C"/>
<path fill-rule="evenodd" clip-rule="evenodd" d="M1452.4 636.884L1455.98 641.636L1474.76 685.427L1474.18 685.508L1461.11 659.506L1452.4 636.884Z" fill="#30335C"/>
<path fill-rule="evenodd" clip-rule="evenodd" d="M1441.6 639.179L1441.76 644.462L1449.34 690.411L1450.2 690.29L1443.44 643.934L1441.6 639.179Z" fill="#30335C"/>
<path fill-rule="evenodd" clip-rule="evenodd" d="M1430.49 640.254L1428.81 645.552L1424.47 691.327L1425.06 692.753L1429.37 664.405L1430.49 640.254Z" fill="#30335C"/>
<path fill-rule="evenodd" clip-rule="evenodd" d="M1397.75 528.49L1410.14 555.853L1418.34 568.278L1413.03 554.715L1398.85 529.113L1397.75 528.49Z" fill="#30335C"/>
<path fill-rule="evenodd" clip-rule="evenodd" d="M1449.19 520.821L1446.32 549.746L1442.01 564.66L1442.83 549.798L1448.06 521.711L1449.19 520.821Z" fill="#30335C"/>
<path fill-rule="evenodd" clip-rule="evenodd" d="M1424.58 523.21L1427.3 551.883L1430.47 565.454L1430.02 551.55L1424.86 523.17L1424.58 523.21Z" fill="url(#paint13_linear)"/>
<path fill-rule="evenodd" clip-rule="evenodd" d="M1399.51 636.383L1394.05 640.363L1353.94 683.815C1353.94 683.815 1353.25 685.422 1353.48 685.388C1353.67 685.362 1381.92 659.053 1381.92 659.053L1399.51 636.383Z" fill="#30335C"/>
<path fill-rule="evenodd" clip-rule="evenodd" d="M1335.07 675.955L1334.18 677.929L1335.07 675.955Z" fill="url(#paint14_linear)"/>
<path fill-rule="evenodd" clip-rule="evenodd" d="M1334.18 677.929L1333.61 677.621L1334.43 675.558L1384.14 636.159L1391.07 633.335L1384.61 636.385L1335.07 675.955" fill="#17223C"/>
<path fill-rule="evenodd" clip-rule="evenodd" d="M1317.52 668.201L1317.02 667.736L1317.89 666.007L1375.12 631.392L1383.87 629.043L1375.6 632.054L1318.46 666.561L1317.52 668.201Z" fill="#17223C"/>
<path fill-rule="evenodd" clip-rule="evenodd" d="M1304.27 656.777L1303.76 656.313L1305.43 654.375L1369.37 625.045L1378.08 623.821L1369.81 625.762L1305.9 654.894L1304.27 656.777Z" fill="#17223C"/>
<path fill-rule="evenodd" clip-rule="evenodd" d="M1295.25 643.736L1294.8 642.972L1296.08 641.38L1364.79 618.681L1374.28 618.174L1365.19 619.452L1296.42 642.063L1295.25 643.736Z" fill="#17223C"/>
<path fill-rule="evenodd" clip-rule="evenodd" d="M1353.49 685.436L1352.57 685.127L1353.22 683.479L1393.48 640.103L1399.51 636.383L1394.06 640.411L1354 683.856L1353.49 685.436Z" fill="#17223C"/>
<path fill-rule="evenodd" clip-rule="evenodd" d="M1290.24 629.158L1290.07 628.647L1291.03 627.538L1363.25 611.841L1372.12 611.762L1363.3 612.223L1291.1 628.063L1290.24 629.158Z" fill="#17223C"/>
<path fill-rule="evenodd" clip-rule="evenodd" d="M1289.75 614.286L1290.03 613.516L1291.03 612.694L1363.06 604.323L1372.51 605.575L1363.07 604.712L1291 613.185L1289.75 614.286Z" fill="#17223C"/>
<path fill-rule="evenodd" clip-rule="evenodd" d="M1293.98 599.139L1294.36 598.404L1295.09 597.718L1365.39 596.696L1374.02 598.695L1365.41 597.228L1295.04 598.065L1293.98 599.139Z" fill="#17223C"/>
<path fill-rule="evenodd" clip-rule="evenodd" d="M1302.85 584.169L1303.29 583.522L1304.17 582.864L1370.67 589.724L1377.96 592.156L1370.62 590.024L1304.12 583.163L1302.85 584.169Z" fill="#17223C"/>
<path fill-rule="evenodd" clip-rule="evenodd" d="M1376.06 690.587L1375.46 690.476L1375.35 688.983L1404.34 643.103L1409.03 638.842L1404.86 643.37L1375.95 689.141L1376.06 690.587Z" fill="#17223C"/>
<path fill-rule="evenodd" clip-rule="evenodd" d="M1399.85 693.034L1399.31 693.013L1398.98 691.649L1416.21 644.988L1419.72 639.967L1416.57 645.132L1399.52 691.718L1399.85 693.034Z" fill="#17223C"/>
<path fill-rule="evenodd" clip-rule="evenodd" d="M1425.06 692.753L1424.57 692.772L1423.98 691.346L1428.26 645.435L1430.49 640.254L1428.81 645.552L1424.47 691.327L1425.06 692.753Z" fill="#17223C"/>
<path fill-rule="evenodd" clip-rule="evenodd" d="M1441.6 639.179L1443.44 643.934L1450.18 690.195L1449.34 690.411L1442.83 644.069L1441.6 639.179Z" fill="#17223C"/>
<path fill-rule="evenodd" clip-rule="evenodd" d="M1452.4 636.884L1455.98 641.636L1474.18 685.508L1474.76 685.427L1456.37 641.338L1452.4 636.884Z" fill="#17223C"/>
<path fill-rule="evenodd" clip-rule="evenodd" d="M1315.71 569.951L1316.97 568.898L1376.84 582.141L1383.3 586.002L1376.65 582.897L1316.94 569.096L1315.71 569.951Z" fill="#17223C"/>
<path fill-rule="evenodd" clip-rule="evenodd" d="M1333.12 556.359L1331.94 556.963L1333.12 556.359Z" fill="url(#paint15_linear)"/>
<path fill-rule="evenodd" clip-rule="evenodd" d="M1331.94 556.963L1333.23 556.101L1384.67 575.346L1391.04 580.631L1384.24 576.088L1333.12 556.359" fill="#17223C"/>
<path fill-rule="evenodd" clip-rule="evenodd" d="M1351.75 545.272L1353.22 544.969L1394.69 569.947L1399.69 575.815L1394.33 570.533L1352.94 545.104L1351.75 545.272Z" fill="#17223C"/>
<path fill-rule="evenodd" clip-rule="evenodd" d="M1462.86 633.612L1467.99 637.32L1498.11 676.158L1498.29 678.081L1497.65 678.365L1497.46 676.347L1467.6 637.619L1462.86 633.612Z" fill="#17223C"/>
<path fill-rule="evenodd" clip-rule="evenodd" d="M1519.51 669.161L1519.96 668.903L1519.77 667.519L1478.6 632.277L1472.61 629.76L1478.1 632.541L1519.32 667.824L1519.51 669.161Z" fill="#17223C"/>
<path fill-rule="evenodd" clip-rule="evenodd" d="M1538.91 657.966L1539.35 657.66L1538.29 655.62L1488.05 626.325L1481.07 624.677L1487.68 626.767L1537.82 656.075L1538.91 657.966Z" fill="#17223C"/>
<path fill-rule="evenodd" clip-rule="evenodd" d="M1555.32 645.196L1555.73 644.7L1554.74 643.184L1496.48 619.933L1488.14 619.012L1496.32 620.539L1554.47 643.66L1555.32 645.196Z" fill="#17223C"/>
<path fill-rule="evenodd" clip-rule="evenodd" d="M1493.67 612.783L1502.38 612.241L1567.29 629.497L1568.98 630.817L1568.79 631.232L1567.23 630.09L1502.06 613.064L1493.67 612.783Z" fill="#17223C"/>
<path fill-rule="evenodd" clip-rule="evenodd" d="M1577.49 616.432L1577.67 615.969L1576.49 615.161L1506.87 605.137L1497.7 606.571L1506.74 605.934L1576.4 615.611L1577.49 616.432Z" fill="#17223C"/>
<path fill-rule="evenodd" clip-rule="evenodd" d="M1499.26 599.685L1508.31 597.732L1580.48 599.707L1582.06 600.898L1581.95 601.545L1580.17 600.286L1508.31 598.414L1499.26 599.685Z" fill="#17223C"/>
<path fill-rule="evenodd" clip-rule="evenodd" d="M1578.06 572.112L1577.32 571.34L1576.05 570.935L1505.73 582.861L1497.48 586.99L1506.22 583.571L1576.46 571.461L1578.06 572.112Z" fill="#17223C"/>
<path fill-rule="evenodd" clip-rule="evenodd" d="M1499.3 593.401L1508.53 589.963L1580.39 584.877L1582.17 585.842L1582.25 586.415L1580.51 585.443L1508.4 590.808L1499.3 593.401Z" fill="#17223C"/>
<path fill-rule="evenodd" clip-rule="evenodd" d="M1493.59 581.112L1501.32 576.375L1567.13 557.539L1568.91 558.164L1569.59 558.847L1567.68 558.386L1501.59 577.214L1493.59 581.112Z" fill="#17223C"/>
<path fill-rule="evenodd" clip-rule="evenodd" d="M1556.09 547.069L1555.6 546.652L1554.49 546.37L1494.63 570.891L1487.84 576.421L1495.07 571.56L1554.83 546.759L1556.09 547.069Z" fill="#17223C"/>
<path fill-rule="evenodd" clip-rule="evenodd" d="M1540.24 537.227L1539.28 536.924L1537.84 536.737L1486.22 566.33L1480.66 571.979L1486.58 566.767L1538.46 536.99L1540.24 537.227Z" fill="#17223C"/>
<path fill-rule="evenodd" clip-rule="evenodd" d="M1520.42 529.501L1519.26 529.225L1517.98 529.406L1476.64 562.079L1472.26 568.536L1477.23 562.435L1518.64 529.653L1520.42 529.501Z" fill="#17223C"/>
<path fill-rule="evenodd" clip-rule="evenodd" d="M1498.1 524.071L1497.39 523.879L1496.27 524.182L1465.28 559.978L1462.41 566.172L1465.73 560.401L1496.93 524.382L1498.1 524.071Z" fill="#17223C"/>
<path fill-rule="evenodd" clip-rule="evenodd" d="M1474.32 521.33L1473.48 521.253L1472.49 521.83L1452.75 559.597L1452.09 565.286L1453.36 559.803L1473.23 521.873L1474.32 521.33Z" fill="#17223C"/>
<path fill-rule="evenodd" clip-rule="evenodd" d="M1449.19 520.822L1448.43 520.881L1447.48 521.744L1442.03 549.959L1442.01 564.66L1442.83 549.798L1448.06 521.711L1449.19 520.822Z" fill="#17223C"/>
<path fill-rule="evenodd" clip-rule="evenodd" d="M1430.47 565.454L1428 552.028L1424.58 523.21L1424.86 523.17L1429.29 551.895L1430.47 565.454Z" fill="url(#paint16_linear)"/>
<path fill-rule="evenodd" clip-rule="evenodd" d="M1397.75 528.49L1398.31 528.362L1399.46 528.931L1413.79 554.56L1418.34 568.278L1413.03 554.715L1398.85 529.113L1397.75 528.49Z" fill="#17223C"/>
<path fill-rule="evenodd" clip-rule="evenodd" d="M1373.85 535.645L1374.45 535.415L1375.56 535.745L1405.73 565.233L1409.58 571.602L1405.26 565.688L1375.11 535.955L1373.85 535.645Z" fill="#17223C"/>
<path fill-rule="evenodd" clip-rule="evenodd" d="M1419.82 514.535C1419.82 514.535 1421.18 511.813 1420.14 508.893C1419.1 506.021 1416.15 504.684 1414.33 504.843C1412.5 505.002 1408.1 505.427 1406 505.039C1403.91 504.652 1402.1 504.225 1402.1 504.225C1402.1 504.225 1401.26 502.008 1399.16 500.55C1396.96 499.059 1393.52 497.694 1390.24 497.862C1387.1 498.011 1385.14 498.19 1384.06 497.757C1382.97 497.277 1382.86 496.807 1382.89 496.023C1382.93 495.24 1382.87 494.81 1382.53 494.468C1382.07 493.997 1377.13 491.626 1375.25 495.88C1373.32 500.142 1378.57 502.568 1379.66 502.074C1380.63 501.695 1380.82 500.939 1381.52 500.743C1382.21 500.499 1382.96 500.685 1383.91 501.526C1384.8 502.326 1386.99 504.792 1388.53 506.084C1390.28 507.493 1393.94 509.363 1397.01 509.419C1399.24 509.445 1400.22 508.82 1400.22 508.82C1400.22 508.82 1402.49 509.767 1403.77 510.902C1405.66 512.583 1409.13 516.913 1411.44 518.146C1413.48 519.222 1418.08 518.429 1419.82 514.535Z" fill="url(#paint17_linear)"/>
<path fill-rule="evenodd" clip-rule="evenodd" d="M1416.96 510.118C1416.96 510.118 1415.63 511.669 1415.26 512.84C1414.89 514.011 1415.02 514.966 1415.02 514.966L1416.26 515.133C1416.21 515.139 1415.81 513.687 1416.96 510.118Z" fill="#17223C"/>
<path fill-rule="evenodd" clip-rule="evenodd" d="M1426.81 513.552C1426.81 513.552 1424.75 511.311 1424.95 508.217C1425.15 505.171 1427.62 503.072 1429.42 502.722C1431.21 502.373 1435.57 501.566 1437.47 500.617C1439.38 499.668 1441 498.759 1441 498.759C1441 498.759 1441.2 496.394 1442.81 494.415C1444.52 492.375 1447.45 490.113 1450.65 489.372C1453.7 488.651 1455.64 488.281 1456.56 487.568C1457.47 486.807 1457.45 486.323 1457.2 485.579C1456.95 484.836 1456.89 484.406 1457.13 483.984C1457.43 483.406 1461.53 479.763 1464.51 483.336C1467.54 486.901 1463.16 490.679 1461.97 490.506C1460.94 490.408 1460.55 489.732 1459.83 489.737C1459.09 489.694 1458.42 490.081 1457.74 491.149C1457.11 492.163 1455.68 495.137 1454.56 496.804C1453.26 498.641 1450.26 501.448 1447.33 502.347C1445.18 502.989 1444.07 502.658 1444.07 502.658C1444.07 502.658 1442.15 504.194 1441.24 505.636C1439.88 507.773 1437.74 512.892 1435.86 514.714C1434.14 516.318 1429.55 516.817 1426.81 513.552Z" fill="url(#paint18_linear)"/>
<path fill-rule="evenodd" clip-rule="evenodd" d="M1428.24 508.533C1428.24 508.533 1429.96 509.655 1430.63 510.679C1431.31 511.703 1431.45 512.658 1431.45 512.658L1430.3 513.159C1430.35 513.152 1430.33 511.646 1428.24 508.533Z" fill="#17223C"/>
<path fill-rule="evenodd" clip-rule="evenodd" d="M1399.01 603.797C1397.37 592.152 1412.28 580.421 1432.27 577.611C1452.27 574.801 1469.83 581.969 1471.46 593.615C1473.1 605.26 1458.2 616.991 1438.2 619.801C1418.21 622.611 1400.65 615.443 1399.01 603.797ZM1402.15 601.993C1403.64 612.588 1419.61 619.152 1437.85 616.59C1456.03 614.034 1469.62 603.315 1468.13 592.72C1466.65 582.125 1450.67 575.56 1432.44 578.123C1414.21 580.685 1400.66 591.35 1402.15 601.993Z" fill="#30335C"/>
<path fill-rule="evenodd" clip-rule="evenodd" d="M1468.14 592.768C1469.59 603.417 1456.03 614.034 1437.8 616.596C1419.56 619.111 1403.59 612.547 1402.14 601.897C1400.69 591.248 1414.25 580.631 1432.48 578.068C1450.67 575.56 1466.65 582.125 1468.14 592.768Z" fill="url(#paint19_linear)"/>
<path fill-rule="evenodd" clip-rule="evenodd" d="M1460.33 579.655C1459.64 574.739 1455.51 572.302 1455.51 572.302C1455.51 572.302 1454.79 570.65 1454.03 565.257C1453.27 559.864 1451.87 556.071 1448.02 550.479C1444.8 545.823 1437.97 543.569 1435.8 542.95C1435.72 542.718 1435.68 542.48 1435.6 542.2C1435.92 541.765 1436.41 541.112 1436.82 540.227C1437.58 538.661 1437.9 535.793 1436.62 532.906C1435.56 530.573 1431.93 526.12 1430.59 523.485C1430.41 522.878 1430.22 522.271 1430.04 521.664C1430.13 519.851 1431.6 518.622 1431.28 515.942C1430.97 513.065 1428.6 508.629 1427.67 507.202C1426.74 505.775 1423.68 501.971 1424.69 501.585C1425.76 501.193 1427.88 499.726 1427.54 497.974C1427.19 496.221 1426.65 494.4 1424.92 492.453C1423.19 490.554 1419.91 491.016 1419.81 491.029C1419.77 491.036 1416.43 491.504 1415.3 493.805C1414.17 496.153 1414.15 498.054 1414.3 499.834C1414.46 501.613 1416.95 502.431 1418.03 502.522C1419.11 502.613 1417.22 507.113 1416.72 508.741C1416.21 510.321 1415.16 515.287 1415.66 518.137C1416.13 520.796 1417.85 521.625 1418.43 523.297C1418.42 523.93 1418.41 524.564 1418.4 525.198C1417.84 528.1 1415.57 533.383 1415.2 535.917C1414.76 539.044 1415.87 541.712 1417.02 543.01C1417.66 543.748 1418.31 544.24 1418.74 544.568C1418.73 544.814 1418.76 545.052 1418.76 545.345C1416.84 546.54 1410.89 550.539 1409.08 555.952C1406.93 562.387 1406.62 566.421 1407.38 571.814C1408.14 577.207 1407.9 578.992 1407.9 578.992C1407.9 578.992 1404.61 582.473 1405.3 587.389C1405.99 592.304 1412.92 602.621 1434.92 599.53C1457.2 596.399 1461.02 584.57 1460.33 579.655Z" fill="url(#paint20_linear)"/>
<path fill-rule="evenodd" clip-rule="evenodd" d="M1456.49 573.04C1457.94 574.782 1459.23 576.646 1459.53 578.841C1460.84 588.148 1449.96 597.416 1435.25 599.483C1420.54 601.55 1407.53 595.689 1406.22 586.335C1405.93 584.33 1406.46 582.212 1407.21 580.306C1405.09 583.183 1404.76 585.615 1405.13 588.288C1406.44 597.594 1420.07 603.417 1435.59 601.235C1451.11 599.054 1462.62 589.747 1461.31 580.393C1460.86 577.536 1458.9 574.696 1456.49 573.04Z" fill="#30335C"/>
<path fill-rule="evenodd" clip-rule="evenodd" d="M1419.04 544.624C1419.04 544.624 1421.49 546.811 1427.82 545.921C1434.15 545.031 1435.66 542.289 1435.66 542.289C1435.66 542.289 1435.89 546.392 1428.09 547.49C1420.28 548.587 1419.04 544.624 1419.04 544.624Z" fill="#17223C"/>
<path fill-rule="evenodd" clip-rule="evenodd" d="M1417.5 543.284C1419.63 545.709 1423.3 546.557 1427.82 545.921C1431.95 545.291 1435.1 543.828 1436.49 540.955C1436.61 540.744 1436.76 540.479 1436.88 540.268C1437.63 538.702 1437.95 535.834 1436.68 532.947C1435.62 530.614 1431.98 526.161 1430.64 523.526C1430.46 522.919 1430.28 522.312 1430.09 521.705C1430.18 519.892 1431.66 518.663 1431.33 515.983C1431.02 513.106 1428.65 508.67 1427.72 507.243C1426.8 505.864 1423.73 502.012 1424.75 501.626C1424.8 501.62 1422.78 502.146 1421.5 502.374C1419.76 502.717 1417.78 502.508 1418.18 502.55C1419.31 502.634 1417.37 507.141 1416.87 508.769C1416.36 510.349 1415.31 515.314 1415.81 518.164C1416.28 520.824 1418 521.653 1418.57 523.324C1418.57 523.958 1418.56 524.592 1418.55 525.226C1417.99 528.128 1415.72 533.41 1415.35 535.945C1414.91 539.072 1416.02 541.74 1417.17 543.038C1417.33 543.113 1417.43 543.195 1417.5 543.284Z" fill="url(#paint21_linear)"/>
<path fill-rule="evenodd" clip-rule="evenodd" d="M1418.2 502.693C1418.25 502.686 1418.3 502.727 1418.36 502.768C1419.24 502.839 1420.31 502.835 1421.44 502.626C1422.58 502.418 1423.76 502.155 1424.78 501.865C1424.82 501.811 1424.87 501.804 1424.91 501.749C1425.97 501.357 1428.14 499.836 1427.84 498.029C1427.49 496.229 1426.93 494.36 1425.15 492.42C1423.42 490.473 1420.04 490.948 1419.95 490.961C1419.9 490.968 1416.52 491.443 1415.35 493.798C1414.23 496.194 1414.16 498.102 1414.32 499.929C1414.57 501.743 1417.07 502.608 1418.2 502.693Z" fill="url(#paint22_linear)"/>
<path fill-rule="evenodd" clip-rule="evenodd" d="M1420.78 518.293C1420.78 518.293 1419.11 515.754 1416.07 515.207C1413.08 514.654 1410.44 516.535 1409.65 518.203C1408.87 519.871 1407.06 523.921 1405.63 525.532C1404.21 527.144 1402.94 528.49 1402.94 528.49C1402.94 528.49 1400.6 528.089 1398.28 529.194C1395.87 530.359 1392.99 532.662 1391.46 535.603C1390.01 538.386 1389.2 540.204 1388.23 540.924C1387.26 541.644 1386.81 541.513 1386.16 541.068C1385.52 540.624 1385.11 540.486 1384.64 540.601C1384.03 540.736 1379.47 543.859 1382.18 547.614C1384.9 551.418 1389.58 548.084 1389.75 546.891C1389.89 545.849 1389.39 545.336 1389.53 544.635C1389.67 543.933 1390.23 543.369 1391.38 542.963C1392.55 542.605 1395.76 541.959 1397.65 541.255C1399.72 540.477 1403.19 538.237 1404.81 535.576C1405.99 533.61 1405.88 532.505 1405.88 532.505C1405.88 532.505 1407.86 531.011 1409.48 530.491C1411.85 529.72 1417.36 528.848 1419.59 527.464C1421.68 526.099 1423.26 521.742 1420.78 518.293Z" fill="url(#paint23_linear)"/>
<path fill-rule="evenodd" clip-rule="evenodd" d="M1426.87 517.437C1426.87 517.437 1427.78 514.536 1430.55 513.173C1433.27 511.817 1436.33 512.895 1437.55 514.282C1438.76 515.669 1441.62 519.064 1443.43 520.22C1445.2 521.384 1446.83 522.322 1446.83 522.322C1446.83 522.322 1448.97 521.291 1451.5 521.714C1454.14 522.17 1457.55 523.59 1459.83 525.995C1461.99 528.27 1463.27 529.794 1464.4 530.219C1465.53 530.645 1465.93 530.393 1466.43 529.788C1466.92 529.183 1467.28 528.938 1467.76 528.919C1468.39 528.88 1473.63 530.625 1472.06 534.983C1470.49 539.388 1465.08 537.472 1464.59 536.374C1464.16 535.412 1464.51 534.779 1464.17 534.144C1463.84 533.509 1463.16 533.119 1461.93 533.048C1460.72 533.024 1457.45 533.288 1455.44 533.133C1453.23 532.957 1449.28 531.761 1446.99 529.649C1445.31 528.083 1445.11 526.992 1445.11 526.992C1445.11 526.992 1442.8 526.1 1441.09 526.048C1438.61 525.96 1433.07 526.64 1430.54 525.925C1428.21 525.183 1425.45 521.434 1426.87 517.437Z" fill="url(#paint24_linear)"/>
<path fill-rule="evenodd" clip-rule="evenodd" d="M1416.73 515.359C1416.73 515.359 1419.35 514.65 1421.12 517.272C1422.86 519.948 1421.86 521.499 1421.86 521.499C1421.86 521.499 1421.36 519.283 1420.62 518.17C1419.19 515.938 1416.73 515.359 1416.73 515.359Z" fill="#17223C"/>
<path fill-rule="evenodd" clip-rule="evenodd" d="M1429.87 513.512C1429.87 513.512 1427.15 513.553 1426.17 516.563C1425.24 519.614 1426.62 520.83 1426.62 520.83C1426.62 520.83 1426.5 518.561 1426.9 517.287C1427.66 514.747 1429.87 513.512 1429.87 513.512Z" fill="#17223C"/>
<path fill-rule="evenodd" clip-rule="evenodd" d="M1418.5 502.748C1418.5 502.748 1419.25 502.934 1421.58 502.559C1423.86 502.19 1424.59 501.892 1424.59 501.892C1424.59 501.892 1424.58 502.866 1421.73 503.268C1418.87 503.669 1418.5 502.748 1418.5 502.748Z" fill="url(#paint25_linear)"/>
<path opacity="0.140695" fill-rule="evenodd" clip-rule="evenodd" d="M1610.38 602.417C1610.38 602.417 1604.62 600.841 1600.93 604.621C1597.24 608.4 1605.3 612.572 1611.52 609.167C1617.74 605.762 1610.38 602.417 1610.38 602.417Z" fill="url(#paint26_linear)"/>
<path fill-rule="evenodd" clip-rule="evenodd" d="M1611 609.629C1614 609.208 1616.09 606.431 1615.66 603.426C1615.24 600.421 1612.47 598.326 1609.47 598.748C1606.48 599.169 1604.39 601.946 1604.81 604.951C1605.23 607.956 1608 610.05 1611 609.629Z" fill="url(#paint27_linear)"/>
<g filter="url(#filter2_f)">
<path fill-rule="evenodd" clip-rule="evenodd" d="M1284.5 375C1324.54 375 1357 342.541 1357 302.5C1357 262.459 1324.54 230 1284.5 230C1244.46 230 1212 262.459 1212 302.5C1212 342.541 1244.46 375 1284.5 375Z" fill="#1F30C9"/>
</g>
<path fill-rule="evenodd" clip-rule="evenodd" d="M1322.1 187.119C1341.23 209.681 1332.42 252.356 1299.38 289.099C1266.1 325.79 1224.02 338.989 1199.53 322.061C1204.96 327.122 1212.41 333.656 1215.67 336.693C1240.98 359.528 1287.17 352.673 1324.2 311.829C1360.98 270.931 1365.94 220.665 1337.49 201.592L1322.1 187.119Z" fill="#EEEEEE"/>
<g opacity="0.8">
<path fill-rule="evenodd" clip-rule="evenodd" d="M1287.47 340.233L1263.05 318.108C1250.09 325.252 1237.07 328.998 1225.39 328.861L1247.65 348.961C1259.91 350.005 1273.77 347.219 1287.47 340.233Z" fill="url(#paint28_linear)"/>
<path fill-rule="evenodd" clip-rule="evenodd" d="M1209.01 326.42C1205.88 325.234 1202.8 323.798 1199.83 321.865C1205.26 326.926 1212.71 333.46 1215.97 336.496C1219.86 340.19 1224.47 342.993 1229.48 345.1L1209.01 326.42Z" fill="url(#paint29_linear)"/>
<path fill-rule="evenodd" clip-rule="evenodd" d="M1325.92 309.85C1337.56 296.693 1345.77 282.547 1350.78 268.763L1326.11 246.585C1320.9 260.067 1312.49 273.911 1300.8 287.317L1325.92 309.85Z" fill="url(#paint30_linear)"/>
<path fill-rule="evenodd" clip-rule="evenodd" d="M1355.58 231.488C1354.9 226.133 1353.36 221.118 1350.98 216.442L1327.39 195.276C1329.58 199.65 1330.87 204.612 1331.6 209.718L1355.58 231.488Z" fill="url(#paint31_linear)"/>
</g>
<path fill-rule="evenodd" clip-rule="evenodd" d="M1316.82 182.609C1343.24 200.21 1337.11 248.663 1300.33 289.56C1263.6 330.208 1215.65 341.64 1195.6 317.317C1177.16 295.163 1188.38 250.917 1219.29 216.847C1249.95 182.725 1292.86 166.836 1316.82 182.609Z" fill="white"/>
<path fill-rule="evenodd" clip-rule="evenodd" d="M1315.15 184.339L1298.51 202.684C1293.12 198.673 1286.15 197.192 1278.71 197.954L1286.98 178.611C1276.34 179.736 1264.56 183.746 1253.25 190.459L1254.35 206.064C1246.12 210.565 1238 216.917 1230.62 224.726L1221 216.168C1220.64 216.613 1220.29 217.059 1219.68 217.452C1210.17 227.935 1202.55 239.339 1197.27 250.721L1212.99 250.156C1208.69 259.401 1206.48 268.57 1206.33 276.614L1188.04 286.795C1187.75 297.935 1190.57 307.913 1196.77 315.482L1213.41 297.137C1218.23 302.59 1225.24 305.121 1233.27 305.265L1223.81 327.743C1235.43 328.129 1248.65 324.686 1262.35 317.7L1260.91 297.594C1269.7 292.949 1278.22 285.903 1286.31 277.202C1286.66 276.756 1287.32 276.115 1287.67 275.669L1300.61 287.015C1312.25 273.858 1320.45 259.712 1325.41 246.177L1305.24 246.84C1308.86 237.187 1310.02 228.056 1308.82 220.246L1330.07 208.351C1328.1 198.033 1323.12 189.679 1315.15 184.339Z" fill="url(#paint32_linear)"/>
<path fill-rule="evenodd" clip-rule="evenodd" d="M1295.72 205.999C1311.89 218.033 1307.06 249.31 1283.94 274.876C1260.77 300.69 1230.18 308.777 1216.44 293.874C1203.54 279.93 1210.54 250.677 1231.28 227.732C1251.78 204.735 1280.44 194.676 1295.72 205.999Z" stroke="white" stroke-width="1.39666" stroke-dasharray="8.29 8.29"/>
<path fill-rule="evenodd" clip-rule="evenodd" d="M1292.99 209.066C1308.02 220.336 1303.42 249.317 1281.97 273.153C1260.52 296.989 1232.13 304.502 1219.43 290.861C1207.36 277.876 1213.69 250.564 1233.06 229.153C1252.19 207.688 1278.85 198.505 1292.99 209.066Z" fill="white"/>
<path fill-rule="evenodd" clip-rule="evenodd" d="M1274.85 267.595C1289.64 249.52 1293.49 227.875 1282.89 219.107C1272.28 210.332 1251.88 218.302 1237.08 236.381C1222.28 254.457 1218.43 276.102 1229.04 284.87C1239.65 293.644 1260.05 285.675 1274.85 267.595ZM1272.53 265.695C1258.64 282.659 1239.91 289.973 1230.95 282.558C1221.97 275.137 1225.51 255.249 1239.4 238.281C1253.28 221.317 1272.01 214.003 1280.98 221.419C1289.95 228.84 1286.42 248.728 1272.53 265.695Z" fill="#F5A623"/>
<path d="M1268.81 235.1L1247.94 268.377L1242.86 265.189L1263.73 231.913L1268.81 235.1Z" fill="#F5A623"/>
<g filter="url(#filter3_f)">
<path fill-rule="evenodd" clip-rule="evenodd" d="M1514.5 435C1554.54 435 1587 402.541 1587 362.5C1587 322.459 1554.54 290 1514.5 290C1474.46 290 1442 322.459 1442 362.5C1442 402.541 1474.46 435 1514.5 435Z" fill="#1F30C9"/>
</g>
<path fill-rule="evenodd" clip-rule="evenodd" d="M1563.31 396.097C1540.16 403.736 1510.24 383.807 1492.33 347.204C1474.53 310.427 1477.42 274.198 1497.92 260.722C1492.37 263.303 1485.07 266.977 1481.75 268.525C1456.48 280.804 1447.47 318.213 1467.29 359.136C1487.22 399.884 1524.14 419.22 1547.5 403.378L1563.31 396.097Z" fill="#EEEEEE"/>
<g opacity="0.8">
<path fill-rule="evenodd" clip-rule="evenodd" d="M1456.89 322.292L1481.35 310.473C1479.88 298.361 1481.03 287.256 1484.74 278.379L1462.5 289.166C1457.92 298.211 1455.78 309.659 1456.89 322.292Z" fill="url(#paint33_linear)"/>
<path fill-rule="evenodd" clip-rule="evenodd" d="M1491.66 266.614C1493.53 264.591 1495.58 262.685 1497.97 261.014C1492.43 263.594 1485.13 267.268 1481.81 268.816C1477.78 270.651 1474.21 273.303 1471.06 276.482L1491.66 266.614Z" fill="url(#paint34_linear)"/>
<path fill-rule="evenodd" clip-rule="evenodd" d="M1468.27 361.062C1474.74 374.023 1483.03 384.669 1492.03 392.76L1516.6 380.767C1507.89 372.62 1499.9 361.918 1493.25 348.839L1468.27 361.062Z" fill="url(#paint35_linear)"/>
<path fill-rule="evenodd" clip-rule="evenodd" d="M1519.05 407.956C1523.36 409.091 1527.67 409.469 1531.98 409.091L1555.44 397.614C1551.42 397.936 1547.23 397.384 1543.1 396.366L1519.05 407.956Z" fill="url(#paint36_linear)"/>
</g>
<path fill-rule="evenodd" clip-rule="evenodd" d="M1568.39 393.455C1546.78 408.203 1511.62 388.53 1491.68 347.781C1471.92 307.151 1477.97 266.987 1502.76 259.184C1525.39 251.949 1555.76 274.208 1572.29 308.358C1588.93 342.335 1587.84 380.031 1568.39 393.455Z" fill="white"/>
<path fill-rule="evenodd" clip-rule="evenodd" d="M1567.58 391.646L1558.69 373.257C1563.42 370.38 1566.7 365.515 1568.41 359.592L1580.65 371.894C1583.08 363.416 1583.64 353.179 1581.99 342.462L1569.72 338.48C1568.82 330.794 1566.46 322.632 1562.77 314.577L1572.28 309.871C1572.05 309.462 1571.82 309.053 1571.7 308.471C1566.62 297.963 1560.25 288.61 1553.17 281.056L1548.76 293.245C1543.01 287.096 1536.68 282.573 1530.58 279.971L1528.43 262.85C1520 259.185 1511.5 258.255 1503.8 260.646L1512.7 279.035C1507.04 281.033 1502.94 285.601 1500.35 291.693L1486.08 277.515C1482.2 286.274 1480.76 297.436 1481.87 310.069L1497.7 315.181C1498.54 323.333 1501.3 332.021 1505.46 340.893C1505.69 341.302 1505.98 342.002 1506.21 342.411L1493.54 348.783C1500.02 361.744 1508.3 372.39 1517.13 380.363L1522.84 364.751C1529.11 370.495 1535.73 374.206 1542.08 375.704L1544.62 395.62C1553.12 397.307 1561.04 396.081 1567.58 391.646Z" fill="url(#paint37_linear)"/>
<path fill-rule="evenodd" clip-rule="evenodd" d="M1557.01 370.104C1542.82 378.735 1520.39 365.374 1507.97 339.805C1495.37 314.118 1498.62 288.248 1514.26 282.362C1528.9 276.818 1549.11 291.211 1560.26 314.153C1571.53 336.922 1570.38 361.933 1557.01 370.104Z" stroke="white" stroke-width="1.15427" stroke-dasharray="6.85 6.85"/>
<path fill-rule="evenodd" clip-rule="evenodd" d="M1555.51 367.068C1542.25 375.065 1521.51 362.589 1509.89 338.829C1498.28 315.069 1501.29 291.059 1515.64 285.571C1529.29 280.37 1548.23 293.648 1558.63 315.073C1569.15 336.323 1567.95 359.531 1555.51 367.068Z" fill="white"/>
<path d="M1551.76 315.866C1560.77 332.342 1560.59 349.75 1551.36 354.747C1542.13 359.745 1527.35 350.44 1518.34 333.963C1509.34 317.487 1509.51 300.079 1518.74 295.082C1527.97 290.084 1542.75 299.39 1551.76 315.866Z" stroke="#D0021B" stroke-width="3"/>
<path d="M1546.04 338.104L1527.06 311.855" stroke="#D0021B" stroke-width="6" stroke-linejoin="round"/>
<g filter="url(#filter4_f)">
<path fill-rule="evenodd" clip-rule="evenodd" d="M1374.5 478C1414.54 478 1447 445.541 1447 405.5C1447 365.459 1414.54 333 1374.5 333C1334.46 333 1302 365.459 1302 405.5C1302 445.541 1334.46 478 1374.5 478Z" fill="#1F30C9"/>
</g>
<path fill-rule="evenodd" clip-rule="evenodd" d="M1427.06 424.127C1419.67 439.427 1395.2 444.779 1368.17 436.046C1341.12 427.17 1324.36 408.197 1327.53 391.404C1326.14 395.431 1324.45 400.865 1323.61 403.281C1317.53 421.886 1331.92 444.497 1362.03 454.366C1392.11 464.091 1419.68 454.948 1423.05 435.575L1427.06 424.127Z" fill="#EEEEEE"/>
<g opacity="0.8">
<path fill-rule="evenodd" clip-rule="evenodd" d="M1338.53 441.75L1344.45 423.777C1337.66 418.651 1332.65 412.701 1330 406.55L1324.64 422.912C1326.96 429.584 1331.66 436.196 1338.53 441.75Z" fill="url(#paint38_linear)"/>
<path fill-rule="evenodd" clip-rule="evenodd" d="M1327.45 397.39C1327.35 395.473 1327.38 393.525 1327.7 391.516C1326.31 395.543 1324.62 400.977 1323.79 403.393C1322.76 406.299 1322.36 409.368 1322.42 412.488L1327.45 397.39Z" fill="url(#paint39_linear)"/>
<path fill-rule="evenodd" clip-rule="evenodd" d="M1363.47 454.805C1373.11 457.833 1382.45 458.83 1390.87 458.236L1396.75 440.12C1388.45 440.541 1379.22 439.37 1369.44 436.373L1363.47 454.805Z" fill="url(#paint40_linear)"/>
<path fill-rule="evenodd" clip-rule="evenodd" d="M1411.57 452.045C1414.22 450.436 1416.5 448.46 1418.4 446.116L1424.01 428.805C1422.22 430.976 1419.91 432.809 1417.4 434.387L1411.57 452.045Z" fill="url(#paint41_linear)"/>
</g>
<path fill-rule="evenodd" clip-rule="evenodd" d="M1428.19 420.304C1425.12 438.27 1398.23 446.373 1368.15 436.647C1338.22 426.892 1321.01 404.431 1329.1 388.234C1336.43 373.393 1362.3 368.939 1387.42 377.181C1412.51 385.281 1430.88 404.061 1428.19 420.304Z" fill="white"/>
<path fill-rule="evenodd" clip-rule="evenodd" d="M1426.89 419.834L1413.37 415.396C1414.22 411.633 1413.37 407.635 1411.23 403.911L1423.32 403.728C1420.24 398.412 1415.38 393.176 1409.22 388.816L1401.28 393.041C1396.99 389.774 1391.75 387.006 1385.93 384.961L1388.17 377.916C1387.86 377.834 1387.54 377.753 1387.19 377.528C1379.46 374.992 1371.69 373.659 1364.48 373.551L1368.45 381.661C1362.59 381.564 1357.25 382.549 1352.99 384.35L1343.37 377.141C1337.45 379.594 1332.87 383.403 1330.34 388.418L1343.87 392.857C1342.13 396.659 1342.43 400.922 1344.23 405.166L1330.22 405.459C1332.73 411.641 1337.63 417.764 1344.5 423.318L1354.72 417.861C1359.22 421.383 1364.91 424.203 1371.37 426.412C1371.69 426.494 1372.18 426.688 1372.49 426.77L1369.56 436.2C1379.19 439.227 1388.54 440.225 1396.8 439.661L1391.74 429.245C1397.66 428.883 1402.73 427.358 1406.55 424.904L1417.76 433.266C1422.73 429.824 1425.95 425.258 1426.89 419.834Z" fill="url(#paint42_linear)"/>
<path fill-rule="evenodd" clip-rule="evenodd" d="M1410.97 414.71C1408.43 425.997 1390.87 430.774 1372.04 424.628C1353.06 418.512 1341.67 404.368 1346.29 393.685C1350.6 383.664 1367.6 380.498 1384.5 386.01C1401.37 391.379 1413.35 404.056 1410.97 414.71Z" stroke="white" stroke-width="0.807986" stroke-dasharray="4.8 4.8"/>
<path fill-rule="evenodd" clip-rule="evenodd" d="M1408.73 413.994C1406.32 424.506 1390.02 428.866 1372.48 423.19C1354.95 417.515 1344.37 404.391 1348.57 394.543C1352.57 385.186 1368.4 382.12 1384.17 387.274C1399.92 392.285 1410.97 404.115 1408.73 413.994Z" fill="white"/>
<path fill-rule="evenodd" clip-rule="evenodd" d="M1373.68 417.925C1386.9 422.567 1399.86 420.408 1402.59 412.712C1405.32 405.012 1396.6 395.236 1383.38 390.594C1370.16 385.953 1357.21 388.112 1354.47 395.808C1351.74 403.508 1360.46 413.283 1373.68 417.925ZM1374.35 416.038C1362.03 411.714 1354.1 402.829 1356.36 396.477C1358.62 390.121 1370.4 388.157 1382.72 392.481C1395.03 396.805 1402.96 405.69 1400.71 412.043C1398.45 418.399 1386.66 420.363 1374.35 416.038Z" fill="#405CD2"/>
<path d="M1389.99 409.409L1367.92 404.66L1368.76 400.75L1390.83 405.499L1389.99 409.409Z" fill="#405CD2"/>
<g filter="url(#filter5_f)">
<path fill-rule="evenodd" clip-rule="evenodd" d="M1480.5 556C1520.54 556 1553 523.541 1553 483.5C1553 443.459 1520.54 411 1480.5 411C1440.46 411 1408 443.459 1408 483.5C1408 523.541 1440.46 556 1480.5 556Z" fill="#1F30C9"/>
</g>
<path fill-rule="evenodd" clip-rule="evenodd" d="M1499.48 458.493C1509.06 466.17 1508.85 484.252 1498.3 501.837C1487.65 519.419 1471.57 528.129 1460.25 523.172C1462.86 524.804 1466.42 526.875 1467.98 527.855C1480.1 535.152 1498.36 528.702 1510.21 509.131C1521.94 489.557 1519.99 468.687 1506.89 463.171L1499.48 458.493Z" fill="#EEEEEE"/>
<g opacity="0.8">
<path fill-rule="evenodd" clip-rule="evenodd" d="M1497.5 523.61L1485.8 516.531C1481.09 520.468 1476.09 523.025 1471.32 523.894L1481.98 530.32C1487.05 529.774 1492.47 527.542 1497.5 523.61Z" fill="url(#paint43_linear)"/>
<path fill-rule="evenodd" clip-rule="evenodd" d="M1464.46 524.197C1463.09 523.962 1461.72 523.62 1460.36 523.068C1462.97 524.7 1466.52 526.771 1468.09 527.751C1469.97 528.947 1472.07 529.724 1474.27 530.185L1464.46 524.197Z" fill="url(#paint44_linear)"/>
<path fill-rule="evenodd" clip-rule="evenodd" d="M1510.75 508.188C1514.45 501.907 1516.67 495.494 1517.62 489.482L1505.82 482.401C1504.76 488.306 1502.44 494.611 1498.74 500.998L1510.75 508.188Z" fill="url(#paint45_linear)"/>
<path fill-rule="evenodd" clip-rule="evenodd" d="M1516.62 473.917C1515.92 471.789 1514.9 469.868 1513.56 468.152L1502.28 461.398C1503.52 463.006 1504.43 464.926 1505.14 466.948L1516.62 473.917Z" fill="url(#paint46_linear)"/>
</g>
<path fill-rule="evenodd" clip-rule="evenodd" d="M1496.97 457.075C1509.13 462.152 1510.46 482.376 1498.72 501.95C1486.98 521.417 1468.37 529.871 1458.28 521.551C1449.02 513.986 1450.09 495.072 1459.98 478.745C1469.76 462.417 1485.97 452.546 1496.97 457.075Z" fill="white"/>
<path fill-rule="evenodd" clip-rule="evenodd" d="M1496.43 457.911L1491.11 466.703C1488.59 465.495 1485.64 465.444 1482.67 466.344L1484.51 457.809C1480.26 459.11 1475.79 461.676 1471.71 465.306L1473.4 471.576C1470.4 474.062 1467.6 477.292 1465.21 481.058L1460.62 478.333C1460.51 478.543 1460.4 478.753 1460.18 478.961C1457.14 483.984 1454.94 489.234 1453.69 494.289L1460.05 492.813C1459.02 496.92 1458.85 500.831 1459.43 504.119L1452.79 509.715C1453.55 514.276 1455.49 518.118 1458.61 520.71L1463.93 511.919C1466.33 513.759 1469.38 514.235 1472.66 513.658L1470.59 523.564C1475.35 522.801 1480.46 520.351 1485.49 516.42L1483.31 508.344C1486.52 505.756 1489.43 502.211 1492.04 498.025C1492.15 497.816 1492.36 497.502 1492.47 497.293L1498.64 500.891C1502.33 494.609 1504.56 488.196 1505.5 482.29L1497.34 484.157C1498.05 479.939 1497.8 476.127 1496.69 473.04L1504.41 466.512C1502.79 462.464 1500.1 459.456 1496.43 457.911Z" fill="url(#paint47_linear)"/>
<path fill-rule="evenodd" clip-rule="evenodd" d="M1490.23 468.274C1497.77 471.896 1498.28 485.02 1490.89 497.265C1483.5 509.616 1471.68 515.333 1464.91 510.35C1458.55 505.691 1459.09 493.22 1465.72 482.23C1472.24 471.239 1483.12 464.871 1490.23 468.274Z" stroke="white" stroke-width="0.577133" stroke-dasharray="3.43 3.43"/>
<path fill-rule="evenodd" clip-rule="evenodd" d="M1489.36 469.739C1496.38 473.141 1496.8 485.311 1489.95 496.72C1483.1 508.129 1472.14 513.437 1465.89 508.886C1459.95 504.552 1460.36 492.925 1466.56 482.668C1472.64 472.409 1482.77 466.557 1489.36 469.739Z" fill="white"/>
<path d="M1469.64 484.946C1474.36 476.195 1482.11 471.242 1486.96 473.884C1491.81 476.526 1491.92 485.762 1487.2 494.513C1482.49 503.265 1474.73 508.218 1469.88 505.576C1465.03 502.934 1464.93 493.698 1469.64 484.946Z" stroke="#F99E3C" stroke-width="1.5"/>
<path d="M1481.42 480.814L1475.55 496.019" stroke="#F99E3C" stroke-width="3" stroke-linejoin="round"/>
<g filter="url(#filter6_f)">
<path fill-rule="evenodd" clip-rule="evenodd" d="M1113.5 880C1136.42 880 1155 861.42 1155 838.5C1155 815.58 1136.42 797 1113.5 797C1090.58 797 1072 815.58 1072 838.5C1072 861.42 1090.58 880 1113.5 880Z" fill="#1F30C9"/>
</g>
<path fill-rule="evenodd" clip-rule="evenodd" d="M1140.79 844.75C1136.56 851.781 1124.5 853.334 1111.8 848.026C1099.1 842.649 1091.8 832.856 1094.06 824.935C1093.21 826.808 1092.16 829.344 1091.65 830.468C1087.92 839.138 1093.91 850.577 1108.05 856.557C1122.18 862.466 1135.9 859.224 1138.36 850.074L1140.79 844.75Z" fill="#EEEEEE"/>
<g opacity="0.8">
<path fill-rule="evenodd" clip-rule="evenodd" d="M1097.22 849.533L1100.85 841.159C1097.79 838.421 1095.62 835.36 1094.6 832.3L1091.31 839.924C1092.14 843.22 1094.13 846.585 1097.22 849.533Z" fill="url(#paint48_linear)"/>
<path fill-rule="evenodd" clip-rule="evenodd" d="M1093.76 827.802C1093.79 826.878 1093.89 825.946 1094.14 824.996C1093.29 826.869 1092.24 829.405 1091.73 830.529C1091.11 831.879 1090.79 833.335 1090.68 834.834L1093.76 827.802Z" fill="url(#paint49_linear)"/>
<path fill-rule="evenodd" clip-rule="evenodd" d="M1108.73 856.827C1113.25 858.678 1117.73 859.544 1121.83 859.607L1125.45 851.164C1121.42 851.022 1117 850.078 1112.4 848.236L1108.73 856.827Z" fill="url(#paint50_linear)"/>
<path fill-rule="evenodd" clip-rule="evenodd" d="M1132.1 857.496C1133.46 856.834 1134.64 855.981 1135.66 854.936L1139.11 846.867C1138.16 847.834 1136.96 848.617 1135.68 849.27L1132.1 857.496Z" fill="url(#paint51_linear)"/>
</g>
<path fill-rule="evenodd" clip-rule="evenodd" d="M1141.5 842.964C1139.25 851.452 1125.9 854.223 1111.77 848.314C1097.71 842.395 1090.35 830.911 1094.95 823.48C1099.13 816.666 1111.83 815.602 1123.63 820.596C1135.42 825.519 1143.5 835.286 1141.5 842.964Z" fill="white"/>
<path fill-rule="evenodd" clip-rule="evenodd" d="M1140.89 842.684L1134.54 839.996C1135.11 838.227 1134.87 836.274 1134 834.4L1139.86 834.813C1138.6 832.136 1136.47 829.424 1133.67 827.078L1129.65 828.775C1127.72 827.031 1125.31 825.486 1122.58 824.264L1123.96 820.979C1123.81 820.927 1123.66 820.874 1123.51 820.752C1119.88 819.216 1116.17 818.255 1112.69 817.904L1114.26 821.958C1111.43 821.668 1108.81 821.92 1106.67 822.607L1102.33 818.751C1099.36 819.682 1096.98 821.319 1095.54 823.619L1101.9 826.308C1100.89 828.059 1100.86 830.116 1101.55 832.226L1094.75 831.786C1095.7 834.855 1097.81 837.994 1100.9 840.942L1106.08 838.748C1108.1 840.624 1110.73 842.212 1113.76 843.539C1113.91 843.591 1114.14 843.704 1114.29 843.757L1112.46 848.157C1116.99 850.008 1121.47 850.874 1125.49 850.946L1123.49 845.741C1126.37 845.813 1128.89 845.291 1130.84 844.273L1135.9 848.747C1138.45 847.302 1140.21 845.246 1140.89 842.684Z" fill="url(#paint52_linear)"/>
<path fill-rule="evenodd" clip-rule="evenodd" d="M1133.42 839.568C1131.7 844.875 1123 846.438 1114.16 842.711C1105.24 838.992 1100.34 831.737 1103.03 826.806C1105.55 822.179 1113.9 821.365 1121.84 824.708C1129.77 827.982 1135.02 834.557 1133.42 839.568Z" stroke="white" stroke-width="0.55" stroke-dasharray="2.11 2.11"/>
<path fill-rule="evenodd" clip-rule="evenodd" d="M1132.36 839.131C1130.74 844.072 1122.67 845.488 1114.44 842.04C1106.2 838.592 1101.65 831.86 1104.1 827.312C1106.43 822.99 1114.22 822.176 1121.63 825.301C1129.03 828.356 1133.87 834.487 1132.36 839.131Z" fill="white"/>
<path fill-rule="evenodd" clip-rule="evenodd" d="M1114.83 839.966C1120.93 842.754 1127.26 842.202 1128.96 838.448C1130.66 834.697 1126.91 829.546 1120.81 826.758C1114.7 823.97 1108.37 824.522 1106.67 828.275C1104.98 832.026 1108.72 837.178 1114.83 839.966ZM1115.45 838.601C1110 836.112 1106.78 831.684 1108.04 828.894C1109.3 826.107 1114.74 825.634 1120.19 828.123C1125.64 830.612 1128.86 835.04 1127.59 837.83C1126.33 840.617 1120.9 841.09 1115.45 838.601Z" fill="#405CD2"/>
<path d="M1123.46 836.23L1113.03 832.965L1113.62 831.056L1124.06 834.321L1123.46 836.23Z" fill="#405CD2"/>
<g opacity="0.5" filter="url(#filter7_f)">
<path fill-rule="evenodd" clip-rule="evenodd" d="M1206 174C1213.73 174 1220 167.732 1220 160C1220 152.268 1213.73 146 1206 146C1198.27 146 1192 152.268 1192 160C1192 167.732 1198.27 174 1206 174Z" fill="#5CC6FF"/>
</g>
<g filter="url(#filter8_f)">
<path fill-rule="evenodd" clip-rule="evenodd" d="M204 861C211.732 861 218 854.732 218 847C218 839.268 211.732 833 204 833C196.268 833 190 839.268 190 847C190 854.732 196.268 861 204 861Z" fill="#224AFA"/>
<path d="M217.5 847C217.5 854.456 211.456 860.5 204 860.5C196.544 860.5 190.5 854.456 190.5 847C190.5 839.544 196.544 833.5 204 833.5C211.456 833.5 217.5 839.544 217.5 847Z" stroke="#224AFA"/>
</g>
<g filter="url(#filter9_f)">
<path fill-rule="evenodd" clip-rule="evenodd" d="M154.5 550C181.286 550 203 528.286 203 501.5C203 474.714 181.286 453 154.5 453C127.714 453 106 474.714 106 501.5C106 528.286 127.714 550 154.5 550Z" fill="#1F30C9"/>
</g>
<path fill-rule="evenodd" clip-rule="evenodd" d="M175.289 450.678C188.583 462.233 188.05 488.614 173.067 513.89C157.936 539.159 135.314 551.278 119.555 543.629C123.185 546.107 128.127 549.26 130.304 550.747C147.157 561.842 172.794 553.099 189.624 524.971C206.307 496.837 203.844 466.308 185.595 457.776L175.289 450.678Z" fill="#EEEEEE"/>
<g opacity="0.8">
<path fill-rule="evenodd" clip-rule="evenodd" d="M171.657 545.636L155.387 534.876C148.743 540.449 141.707 543.996 135.03 545.089L149.848 554.858C156.956 554.248 164.57 551.189 171.657 545.636Z" fill="url(#paint53_linear)"/>
<path fill-rule="evenodd" clip-rule="evenodd" d="M125.422 545.28C123.511 544.886 121.605 544.338 119.706 543.482C123.336 545.959 128.278 549.113 130.456 550.599C133.068 552.414 135.992 553.625 139.075 554.379L125.422 545.28Z" fill="url(#paint54_linear)"/>
<path fill-rule="evenodd" clip-rule="evenodd" d="M190.398 523.616C195.654 514.585 198.848 505.307 200.256 496.568L183.838 485.802C182.287 494.38 178.949 503.496 173.689 512.682L190.398 523.616Z" fill="url(#paint55_linear)"/>
<path fill-rule="evenodd" clip-rule="evenodd" d="M199.07 473.817C198.116 470.686 196.712 467.844 194.857 465.291L179.166 455.02C180.877 457.412 182.133 460.247 183.091 463.224L199.07 473.817Z" fill="url(#paint56_linear)"/>
</g>
<path fill-rule="evenodd" clip-rule="evenodd" d="M171.798 448.516C188.734 456.372 190.335 485.936 173.653 514.07C156.975 542.05 130.819 553.704 116.81 541.191C103.954 529.811 105.7 502.248 119.75 478.784C133.652 455.313 156.466 441.504 171.798 448.516Z" fill="white"/>
<path fill-rule="evenodd" clip-rule="evenodd" d="M171.029 449.717L163.463 462.352C159.965 460.498 155.833 460.314 151.665 461.518L154.348 449.13C148.394 450.873 142.096 454.453 136.349 459.602L138.623 468.814C134.395 472.332 130.435 476.943 127.045 482.351L120.651 478.206C120.496 478.508 120.34 478.81 120.037 479.106C115.714 486.325 112.563 493.906 110.749 501.237L119.663 499.317C118.18 505.274 117.885 510.974 118.647 515.794L109.283 523.717C110.292 530.401 112.953 536.078 117.285 539.977L124.85 527.342C128.177 530.115 132.441 530.922 137.04 530.2L134.009 544.581C140.682 543.642 147.861 540.255 154.948 534.702L152.004 522.836C156.531 519.177 160.651 514.11 164.352 508.098C164.507 507.796 164.814 507.346 164.97 507.044L173.546 512.521C178.802 503.49 181.996 494.212 183.399 485.628L171.96 488.053C173.005 481.923 172.706 476.351 171.198 471.806L182.074 462.561C179.864 456.595 176.138 452.106 171.029 449.717Z" fill="url(#paint57_linear)"/>
<path fill-rule="evenodd" clip-rule="evenodd" d="M162.223 464.613C172.717 470.175 173.257 489.346 162.756 506.946C152.252 524.7 135.648 532.609 126.238 525.088C117.407 518.056 118.319 499.875 127.739 484.08C137.012 468.279 152.311 459.385 162.223 464.613Z" stroke="white" stroke-width="1.39666" stroke-dasharray="8.29 8.29"/>
<path fill-rule="evenodd" clip-rule="evenodd" d="M160.987 466.72C170.751 471.94 171.179 489.717 161.448 506.116C151.717 522.514 136.31 529.859 127.622 522.988C119.369 516.444 120.102 499.491 128.904 484.75C137.558 470.002 151.805 461.833 160.987 466.72Z" fill="white"/>
<path fill-rule="evenodd" clip-rule="evenodd" d="M156.866 503.557C163.38 491.306 163.246 477.997 156.234 473.8C149.218 469.6 138.406 476.365 131.89 488.619C125.376 500.87 125.51 514.179 132.522 518.376C139.538 522.576 150.35 515.812 156.866 503.557ZM155.334 502.651C149.219 514.15 139.295 520.36 133.365 516.81C127.429 513.257 127.306 501.027 133.422 489.525C139.537 478.026 149.461 471.817 155.392 475.366C161.327 478.919 161.45 491.149 155.334 502.651Z" fill="#F5A623"/>
<path d="M149.932 484.706L141.527 506.686L138.291 505.293L146.695 483.313L149.932 484.706Z" fill="#F5A623"/>
<path opacity="0.246954" fill-rule="evenodd" clip-rule="evenodd" d="M3.61468 1078.21L465 1079.17C421.722 1002.04 197.455 1007.42 4.17513 909.095C-3.88481 904.995 3.61468 1078.21 3.61468 1078.21Z" fill="#392D9B"/>
<defs>
<filter id="filter0_f" x="1150.05" y="354.282" width="58.4945" height="58.5052" filterUnits="userSpaceOnUse" color-interpolation-filters="sRGB">
<feFlood flood-opacity="0" result="BackgroundImageFix"/>
<feBlend mode="normal" in="SourceGraphic" in2="BackgroundImageFix" result="shape"/>
<feGaussianBlur stdDeviation="10.8731" result="effect1_foregroundBlur"/>
</filter>
<filter id="filter1_f" x="996.561" y="525.14" width="39.7463" height="39.7463" filterUnits="userSpaceOnUse" color-interpolation-filters="sRGB">
<feFlood flood-opacity="0" result="BackgroundImageFix"/>
<feBlend mode="normal" in="SourceGraphic" in2="BackgroundImageFix" result="shape"/>
<feGaussianBlur stdDeviation="5.43656" result="effect1_foregroundBlur"/>
</filter>
<filter id="filter2_f" x="1114.14" y="132.142" width="340.716" height="340.716" filterUnits="userSpaceOnUse" color-interpolation-filters="sRGB">
<feFlood flood-opacity="0" result="BackgroundImageFix"/>
<feBlend mode="normal" in="SourceGraphic" in2="BackgroundImageFix" result="shape"/>
<feGaussianBlur stdDeviation="48.9291" result="effect1_foregroundBlur"/>
</filter>
<filter id="filter3_f" x="1344.14" y="192.142" width="340.716" height="340.716" filterUnits="userSpaceOnUse" color-interpolation-filters="sRGB">
<feFlood flood-opacity="0" result="BackgroundImageFix"/>
<feBlend mode="normal" in="SourceGraphic" in2="BackgroundImageFix" result="shape"/>
<feGaussianBlur stdDeviation="48.9291" result="effect1_foregroundBlur"/>
</filter>
<filter id="filter4_f" x="1204.14" y="235.142" width="340.716" height="340.716" filterUnits="userSpaceOnUse" color-interpolation-filters="sRGB">
<feFlood flood-opacity="0" result="BackgroundImageFix"/>
<feBlend mode="normal" in="SourceGraphic" in2="BackgroundImageFix" result="shape"/>
<feGaussianBlur stdDeviation="48.9291" result="effect1_foregroundBlur"/>
</filter>
<filter id="filter5_f" x="1310.14" y="313.142" width="340.716" height="340.716" filterUnits="userSpaceOnUse" color-interpolation-filters="sRGB">
<feFlood flood-opacity="0" result="BackgroundImageFix"/>
<feBlend mode="normal" in="SourceGraphic" in2="BackgroundImageFix" result="shape"/>
<feGaussianBlur stdDeviation="48.9291" result="effect1_foregroundBlur"/>
</filter>
<filter id="filter6_f" x="974.142" y="699.142" width="278.716" height="278.716" filterUnits="userSpaceOnUse" color-interpolation-filters="sRGB">
<feFlood flood-opacity="0" result="BackgroundImageFix"/>
<feBlend mode="normal" in="SourceGraphic" in2="BackgroundImageFix" result="shape"/>
<feGaussianBlur stdDeviation="48.9291" result="effect1_foregroundBlur"/>
</filter>
<filter id="filter7_f" x="1170.25" y="124.254" width="71.4925" height="71.4925" filterUnits="userSpaceOnUse" color-interpolation-filters="sRGB">
<feFlood flood-opacity="0" result="BackgroundImageFix"/>
<feBlend mode="normal" in="SourceGraphic" in2="BackgroundImageFix" result="shape"/>
<feGaussianBlur stdDeviation="10.8731" result="effect1_foregroundBlur"/>
</filter>
<filter id="filter8_f" x="168.254" y="811.254" width="71.4925" height="71.4925" filterUnits="userSpaceOnUse" color-interpolation-filters="sRGB">
<feFlood flood-opacity="0" result="BackgroundImageFix"/>
<feBlend mode="normal" in="SourceGraphic" in2="BackgroundImageFix" result="shape"/>
<feGaussianBlur stdDeviation="10.8731" result="effect1_foregroundBlur"/>
</filter>
<filter id="filter9_f" x="8.14185" y="355.142" width="292.716" height="292.716" filterUnits="userSpaceOnUse" color-interpolation-filters="sRGB">
<feFlood flood-opacity="0" result="BackgroundImageFix"/>
<feBlend mode="normal" in="SourceGraphic" in2="BackgroundImageFix" result="shape"/>
<feGaussianBlur stdDeviation="48.9291" result="effect1_foregroundBlur"/>
</filter>
<linearGradient id="paint0_linear" x1="606.411" y1="1512.13" x2="1446.3" y2="333.525" gradientUnits="userSpaceOnUse">
<stop stop-color="#2A1F84"/>
<stop offset="1" stop-color="#221876"/>
</linearGradient>
<linearGradient id="paint1_linear" x1="1577.99" y1="617.123" x2="1514.66" y2="366.275" gradientUnits="userSpaceOnUse">
<stop stop-color="#42E8E0"/>
<stop offset="0.1055" stop-color="#37B6BF"/>
<stop offset="0.2197" stop-color="#2C87A1"/>
<stop offset="0.338" stop-color="#235F87"/>
<stop offset="0.4587" stop-color="#1C3F72"/>
<stop offset="0.5824" stop-color="#162561"/>
<stop offset="0.7105" stop-color="#121355"/>
<stop offset="0.8458" stop-color="#10084E"/>
<stop offset="1" stop-color="#0F054C"/>
</linearGradient>
<linearGradient id="paint2_linear" x1="1696.72" y1="755.893" x2="1495.92" y2="392.499" gradientUnits="userSpaceOnUse">
<stop offset="4.8e-07"/>
<stop offset="0.702"/>
</linearGradient>
<linearGradient id="paint3_linear" x1="1341.19" y1="943.937" x2="1584.64" y2="510.346" gradientUnits="userSpaceOnUse">
<stop stop-color="#61628C"/>
<stop offset="1" stop-color="#221876"/>
</linearGradient>
<linearGradient id="paint4_linear" x1="1306.14" y1="1057.45" x2="1833.6" y2="626.818" gradientUnits="userSpaceOnUse">
<stop stop-color="#090A34"/>
<stop offset="1" stop-color="#221876"/>
</linearGradient>
<linearGradient id="paint5_linear" x1="1485" y1="438.607" x2="1486.17" y2="438.443" gradientUnits="userSpaceOnUse">
<stop/>
<stop offset="0.3454" stop-color="#1E1E1E"/>
<stop offset="0.6657" stop-color="#575857"/>
<stop offset="1" stop-color="#535454"/>
</linearGradient>
<linearGradient id="paint6_linear" x1="1362.49" y1="896.293" x2="1427.28" y2="615.675" gradientUnits="userSpaceOnUse">
<stop stop-color="#090A34"/>
<stop offset="1" stop-color="#221876"/>
</linearGradient>
<linearGradient id="paint7_linear" x1="981.691" y1="633.488" x2="1263.53" y2="993.407" gradientUnits="userSpaceOnUse">
<stop stop-color="#0D0C3E"/>
<stop offset="1" stop-color="#1E166C"/>
</linearGradient>
<linearGradient id="paint8_linear" x1="1397.16" y1="312.954" x2="1225.66" y2="731.272" gradientUnits="userSpaceOnUse">
<stop stop-color="#0D0C3E"/>
<stop offset="1" stop-color="#1E166C"/>
</linearGradient>
<linearGradient id="paint9_linear" x1="1467.86" y1="811" x2="1625.83" y2="425.147" gradientUnits="userSpaceOnUse">
<stop stop-color="#0D0C3E"/>
<stop offset="1" stop-color="#1E166C"/>
</linearGradient>
<linearGradient id="paint10_linear" x1="1028.88" y1="629.434" x2="1282.71" y2="953.251" gradientUnits="userSpaceOnUse">
<stop stop-color="#0D0C3E"/>
<stop offset="1" stop-color="#1E166C"/>
</linearGradient>
<linearGradient id="paint11_linear" x1="1137.8" y1="815.47" x2="1563.99" y2="653.986" gradientUnits="userSpaceOnUse">
<stop stop-color="#090A34"/>
<stop offset="1" stop-color="#221876"/>
</linearGradient>
<linearGradient id="paint12_linear" x1="1415.55" y1="690.783" x2="1505.42" y2="584.483" gradientUnits="userSpaceOnUse">
<stop stop-color="#090A34"/>
<stop offset="1" stop-color="#221876"/>
</linearGradient>
<linearGradient id="paint13_linear" x1="1433.51" y1="582.463" x2="1438.95" y2="581.256" gradientUnits="userSpaceOnUse">
<stop stop-color="#050505"/>
<stop offset="0.5363" stop-color="#6E4931"/>
<stop offset="1" stop-color="#B89069"/>
</linearGradient>
<linearGradient id="paint14_linear" x1="1335.15" y1="676.894" x2="1334.34" y2="676.486" gradientUnits="userSpaceOnUse">
<stop stop-color="#6A452E"/>
<stop offset="0.3454" stop-color="#BB8E63"/>
<stop offset="0.6657" stop-color="#E7C89F"/>
<stop offset="1" stop-color="#E0DFDF"/>
</linearGradient>
<linearGradient id="paint15_linear" x1="1332.88" y1="557.145" x2="1332.98" y2="556.26" gradientUnits="userSpaceOnUse">
<stop stop-color="#BB8E63"/>
<stop offset="0.5056" stop-color="#E7C89F"/>
<stop offset="1" stop-color="#E4D1B7"/>
</linearGradient>
<linearGradient id="paint16_linear" x1="1429.87" y1="565.438" x2="1431.15" y2="565.258" gradientUnits="userSpaceOnUse">
<stop stop-color="#BB8E63"/>
<stop offset="0.5056" stop-color="#E7C89F"/>
<stop offset="1" stop-color="#E4D1B7"/>
</linearGradient>
<linearGradient id="paint17_linear" x1="1364.84" y1="462.129" x2="1355.08" y2="557.716" gradientUnits="userSpaceOnUse">
<stop stop-color="#413F9B"/>
<stop offset="1" stop-color="#1E166C"/>
</linearGradient>
<linearGradient id="paint18_linear" x1="1412.44" y1="455.439" x2="1402.67" y2="551.026" gradientUnits="userSpaceOnUse">
<stop stop-color="#413F9B"/>
<stop offset="1" stop-color="#1E166C"/>
</linearGradient>
<linearGradient id="paint19_linear" x1="1386.04" y1="541.369" x2="1377.65" y2="667.21" gradientUnits="userSpaceOnUse">
<stop stop-color="#413F9B"/>
<stop offset="1" stop-color="#1E166C"/>
</linearGradient>
<linearGradient id="paint20_linear" x1="1415.54" y1="458.71" x2="1351.41" y2="503.381" gradientUnits="userSpaceOnUse">
<stop stop-color="#413F9B"/>
<stop offset="1" stop-color="#1E166C"/>
</linearGradient>
<linearGradient id="paint21_linear" x1="1401.14" y1="455.693" x2="1346.03" y2="561.817" gradientUnits="userSpaceOnUse">
<stop stop-color="#413F9B"/>
<stop offset="1" stop-color="#1E166C"/>
</linearGradient>
<linearGradient id="paint22_linear" x1="1409.86" y1="479.299" x2="1403.92" y2="516.075" gradientUnits="userSpaceOnUse">
<stop stop-color="#413F9B"/>
<stop offset="1" stop-color="#1E166C"/>
</linearGradient>
<linearGradient id="paint23_linear" x1="1368.33" y1="488.353" x2="1358.58" y2="584.122" gradientUnits="userSpaceOnUse">
<stop stop-color="#413F9B"/>
<stop offset="1" stop-color="#1E166C"/>
</linearGradient>
<linearGradient id="paint24_linear" x1="1416.1" y1="481.64" x2="1406.35" y2="577.407" gradientUnits="userSpaceOnUse">
<stop stop-color="#413F9B"/>
<stop offset="1" stop-color="#1E166C"/>
</linearGradient>
<linearGradient id="paint25_linear" x1="1421.53" y1="502.032" x2="1421.51" y2="503.535" gradientUnits="userSpaceOnUse">
<stop stop-color="#0D0C3E"/>
<stop offset="1" stop-color="#1E166C"/>
</linearGradient>
<linearGradient id="paint26_linear" x1="1616.83" y1="603.039" x2="1606.47" y2="595.925" gradientUnits="userSpaceOnUse">
<stop offset="4.8e-07"/>
<stop offset="1"/>
</linearGradient>
<linearGradient id="paint27_linear" x1="1614.9" y1="597.985" x2="1604.05" y2="599.51" gradientUnits="userSpaceOnUse">
<stop stop-color="#F8A440"/>
<stop offset="1" stop-color="#1D1C1C"/>
</linearGradient>
<linearGradient id="paint28_linear" x1="1229.21" y1="310.915" x2="1222.27" y2="343.567" gradientUnits="userSpaceOnUse">
<stop stop-color="#FAD961"/>
<stop offset="1" stop-color="#F76B1C"/>
</linearGradient>
<linearGradient id="paint29_linear" x1="1199.83" y1="321.865" x2="1196.39" y2="338.066" gradientUnits="userSpaceOnUse">
<stop stop-color="#FAD961"/>
<stop offset="1" stop-color="#F76B1C"/>
</linearGradient>
<linearGradient id="paint30_linear" x1="1310.18" y1="243.2" x2="1297.31" y2="303.767" gradientUnits="userSpaceOnUse">
<stop stop-color="#FAD961"/>
<stop offset="1" stop-color="#F76B1C"/>
</linearGradient>
<linearGradient id="paint31_linear" x1="1327.39" y1="195.276" x2="1321.24" y2="224.189" gradientUnits="userSpaceOnUse">
<stop stop-color="#FAD961"/>
<stop offset="1" stop-color="#F76B1C"/>
</linearGradient>
<linearGradient id="paint32_linear" x1="1199.51" y1="127.995" x2="1154.94" y2="337.701" gradientUnits="userSpaceOnUse">
<stop stop-color="#FAD961"/>
<stop offset="1" stop-color="#F76B1C"/>
</linearGradient>
<linearGradient id="paint33_linear" x1="1497.29" y1="286.843" x2="1474.46" y2="271.443" gradientUnits="userSpaceOnUse">
<stop stop-color="#F5515F"/>
<stop offset="1" stop-color="#9F041B"/>
</linearGradient>
<linearGradient id="paint34_linear" x1="1497.97" y1="261.014" x2="1486.64" y2="253.372" gradientUnits="userSpaceOnUse">
<stop stop-color="#F5515F"/>
<stop offset="1" stop-color="#9F041B"/>
</linearGradient>
<linearGradient id="paint35_linear" x1="1524.1" y1="369.647" x2="1481.75" y2="341.081" gradientUnits="userSpaceOnUse">
<stop stop-color="#F5515F"/>
<stop offset="1" stop-color="#9F041B"/>
</linearGradient>
<linearGradient id="paint36_linear" x1="1555.44" y1="397.614" x2="1535.23" y2="383.978" gradientUnits="userSpaceOnUse">
<stop stop-color="#F5515F"/>
<stop offset="1" stop-color="#9F041B"/>
</linearGradient>
<linearGradient id="paint37_linear" x1="1620.38" y1="339.62" x2="1520.84" y2="244.872" gradientUnits="userSpaceOnUse">
<stop stop-color="#F5515F"/>
<stop offset="1" stop-color="#9F041B"/>
</linearGradient>
<linearGradient id="paint38_linear" x1="1310.28" y1="401.538" x2="1294.23" y2="469.445" gradientUnits="userSpaceOnUse">
<stop stop-color="#3023AE"/>
<stop offset="0.475248" stop-color="#53A0FD"/>
<stop offset="1" stop-color="#B4EC51"/>
</linearGradient>
<linearGradient id="paint39_linear" x1="1312.72" y1="389.764" x2="1303.15" y2="425.359" gradientUnits="userSpaceOnUse">
<stop stop-color="#3023AE"/>
<stop offset="0.475248" stop-color="#53A0FD"/>
<stop offset="1" stop-color="#B4EC51"/>
</linearGradient>
<linearGradient id="paint40_linear" x1="1341.22" y1="435.803" x2="1342.82" y2="489.972" gradientUnits="userSpaceOnUse">
<stop stop-color="#3023AE"/>
<stop offset="0.475248" stop-color="#53A0FD"/>
<stop offset="1" stop-color="#B4EC51"/>
</linearGradient>
<linearGradient id="paint41_linear" x1="1398.02" y1="429.207" x2="1394.76" y2="470.245" gradientUnits="userSpaceOnUse">
<stop stop-color="#3023AE"/>
<stop offset="0.475248" stop-color="#53A0FD"/>
<stop offset="1" stop-color="#B4EC51"/>
</linearGradient>
<linearGradient id="paint42_linear" x1="1306.88" y1="400.155" x2="1353.09" y2="502.63" gradientUnits="userSpaceOnUse">
<stop stop-color="#3023AE"/>
<stop offset="0.475248" stop-color="#53A0FD"/>
<stop offset="1" stop-color="#B4EC51"/>
</linearGradient>
<linearGradient id="paint43_linear" x1="1471.46" y1="516.281" x2="1471.21" y2="530.132" gradientUnits="userSpaceOnUse">
<stop stop-color="#FAD961"/>
<stop offset="1" stop-color="#F76B1C"/>
</linearGradient>
<linearGradient id="paint44_linear" x1="1460.36" y1="523.068" x2="1460.24" y2="529.94" gradientUnits="userSpaceOnUse">
<stop stop-color="#FAD961"/>
<stop offset="1" stop-color="#F76B1C"/>
</linearGradient>
<linearGradient id="paint45_linear" x1="1499.07" y1="482.283" x2="1498.62" y2="507.976" gradientUnits="userSpaceOnUse">
<stop stop-color="#FAD961"/>
<stop offset="1" stop-color="#F76B1C"/>
</linearGradient>
<linearGradient id="paint46_linear" x1="1502.28" y1="461.398" x2="1502.07" y2="473.663" gradientUnits="userSpaceOnUse">
<stop stop-color="#FAD961"/>
<stop offset="1" stop-color="#F76B1C"/>
</linearGradient>
<linearGradient id="paint47_linear" x1="1453.7" y1="457.165" x2="1452.55" y2="523.249" gradientUnits="userSpaceOnUse">
<stop stop-color="#FAD961"/>
<stop offset="1" stop-color="#F76B1C"/>
</linearGradient>
<linearGradient id="paint48_linear" x1="1085.28" y1="829.079" x2="1074.83" y2="861.051" gradientUnits="userSpaceOnUse">
<stop stop-color="#3023AE"/>
<stop offset="0.475248" stop-color="#53A0FD"/>
<stop offset="1" stop-color="#B4EC51"/>
</linearGradient>
<linearGradient id="paint49_linear" x1="1086.97" y1="823.535" x2="1080.93" y2="840.251" gradientUnits="userSpaceOnUse">
<stop stop-color="#3023AE"/>
<stop offset="0.475248" stop-color="#53A0FD"/>
<stop offset="1" stop-color="#B4EC51"/>
</linearGradient>
<linearGradient id="paint50_linear" x1="1098.78" y1="846.793" x2="1097.31" y2="872.84" gradientUnits="userSpaceOnUse">
<stop stop-color="#3023AE"/>
<stop offset="0.475248" stop-color="#53A0FD"/>
<stop offset="1" stop-color="#B4EC51"/>
</linearGradient>
<linearGradient id="paint51_linear" x1="1126.53" y1="845.983" x2="1123.29" y2="865.543" gradientUnits="userSpaceOnUse">
<stop stop-color="#3023AE"/>
<stop offset="0.475248" stop-color="#53A0FD"/>
<stop offset="1" stop-color="#B4EC51"/>
</linearGradient>
<linearGradient id="paint52_linear" x1="1083.69" y1="828.276" x2="1101.46" y2="879.397" gradientUnits="userSpaceOnUse">
<stop stop-color="#3023AE"/>
<stop offset="0.475248" stop-color="#53A0FD"/>
<stop offset="1" stop-color="#B4EC51"/>
</linearGradient>
<linearGradient id="paint53_linear" x1="135.317" y1="533.984" x2="134.42" y2="554.173" gradientUnits="userSpaceOnUse">
<stop stop-color="#FAD961"/>
<stop offset="1" stop-color="#F76B1C"/>
</linearGradient>
<linearGradient id="paint54_linear" x1="119.706" y1="543.482" x2="119.261" y2="553.499" gradientUnits="userSpaceOnUse">
<stop stop-color="#FAD961"/>
<stop offset="1" stop-color="#F76B1C"/>
</linearGradient>
<linearGradient id="paint55_linear" x1="174.393" y1="485.382" x2="172.729" y2="522.831" gradientUnits="userSpaceOnUse">
<stop stop-color="#FAD961"/>
<stop offset="1" stop-color="#F76B1C"/>
</linearGradient>
<linearGradient id="paint56_linear" x1="179.166" y1="455.02" x2="178.371" y2="472.897" gradientUnits="userSpaceOnUse">
<stop stop-color="#FAD961"/>
<stop offset="1" stop-color="#F76B1C"/>
</linearGradient>
<linearGradient id="paint57_linear" x1="99.1018" y1="427.693" x2="93.3392" y2="557.353" gradientUnits="userSpaceOnUse">
<stop stop-color="#FAD961"/>
<stop offset="1" stop-color="#F76B1C"/>
</linearGradient>
</defs>
</svg>
