<svg width="1786" height="956" viewBox="0 0 1786 956" fill="none" xmlns="http://www.w3.org/2000/svg">
<path fill-rule="evenodd" clip-rule="evenodd" d="M1497 537C1610.22 537 1702 445.218 1702 332C1702 218.782 1610.22 127 1497 127C1383.78 127 1292 218.782 1292 332C1292 445.218 1383.78 537 1497 537Z" fill="#392D9B"/>
<path opacity="0.8" fill-rule="evenodd" clip-rule="evenodd" d="M1195.34 597.558C1199.3 599.851 1204.3 600.894 1209.72 600.894C1216.18 600.894 1222.84 599.226 1228.05 596.307L1587.04 388.843C1592.25 385.924 1595.17 381.754 1595.17 377.792C1595.17 374.456 1593.08 371.329 1589.33 369.244L1404.32 262.28C1395.98 257.276 1381.19 257.901 1371.61 263.531L1012.62 470.995C1007.41 473.914 1004.49 478.084 1004.49 482.046C1004.49 485.382 1006.58 488.509 1010.33 490.594L1195.34 597.558ZM1227.64 595.264C1218.26 600.685 1204.09 601.102 1195.97 596.515L1010.95 489.552C1007.62 487.675 1005.74 484.965 1005.74 482.046C1005.74 478.501 1008.45 474.748 1013.24 472.037L1372.23 264.574C1381.61 259.152 1395.78 258.735 1403.9 263.323L1588.92 370.286C1592.25 372.163 1594.13 374.873 1594.13 377.792C1594.13 381.337 1591.42 385.09 1586.63 387.801L1227.64 595.264Z" fill="url(#paint0_linear)"/>
<path fill-rule="evenodd" clip-rule="evenodd" d="M1195.55 597.349C1199.3 599.643 1204.3 600.685 1209.72 600.685C1215.97 600.685 1222.84 599.017 1228.26 596.098L1587.25 388.635C1592.46 385.716 1595.38 381.754 1595.38 377.792C1595.38 374.665 1593.29 371.537 1589.54 369.452L1404.53 262.489C1395.98 257.484 1381.4 258.11 1371.82 263.74L1012.83 471.203C1007.62 474.122 1004.7 478.084 1004.7 482.045C1004.7 485.173 1006.78 488.301 1010.53 490.386L1195.55 597.349ZM1227.84 595.473C1218.26 600.894 1204.09 601.519 1195.97 596.724L1010.95 489.76C1007.41 487.675 1005.53 484.965 1005.53 482.045C1005.53 478.292 1008.45 474.748 1013.24 471.829L1372.23 264.365C1381.82 258.944 1395.98 258.318 1404.11 263.114L1589.13 370.078C1592.67 372.163 1594.54 374.873 1594.54 377.792C1594.54 381.546 1591.63 385.09 1586.83 388.009L1227.84 595.473Z" fill="#224AFA"/>
<path fill-rule="evenodd" clip-rule="evenodd" d="M1021.63 496.381C1021.42 496.381 1021.42 496.381 1021.21 496.172C1021 495.964 1021.21 495.755 1021.42 495.546C1029.55 490.959 1036.84 480.951 1039.55 470.525L1073.09 337.287C1077.26 320.815 1090.18 309.555 1099.55 309.347C1104.35 309.138 1108.1 312.058 1109.56 317.062L1118.93 347.087C1119.97 350.215 1121.85 352.509 1124.56 353.551C1127.68 354.802 1131.85 354.177 1136.23 351.675L1142.89 347.921C1150.6 343.543 1157.69 334.16 1160.4 324.36C1164.98 308.721 1177.27 298.296 1186.02 297.67C1190.61 297.253 1194.15 299.547 1196.03 303.717L1206.44 326.445C1207.69 328.947 1209.57 330.824 1211.86 331.658C1214.99 332.7 1218.95 332.075 1222.9 329.781L1230.61 325.402C1238.74 320.815 1246.24 310.39 1248.53 299.964L1282.08 155.884C1285.83 139.62 1298.96 127.943 1308.54 127.318C1313.33 127.109 1317.08 129.611 1318.75 134.615L1369.8 278.487C1370.84 281.407 1372.72 283.7 1375.42 284.534C1378.55 285.785 1382.72 285.16 1386.88 282.658L1413.14 267.853C1413.35 267.645 1413.55 267.853 1413.76 268.062C1413.97 268.27 1413.76 268.479 1413.55 268.688L1387.3 283.492C1382.92 285.994 1378.55 286.619 1375.01 285.368C1372.3 284.326 1370.21 282.032 1368.96 278.696L1317.92 134.824C1316.25 130.237 1312.92 127.943 1308.54 128.152C1299.37 128.569 1286.66 140.245 1282.91 156.092L1249.37 300.173C1246.87 310.807 1239.57 321.232 1231.03 326.028L1223.32 330.406C1219.15 332.7 1214.99 333.534 1211.44 332.492C1208.74 331.658 1206.65 329.781 1205.4 326.862L1194.98 304.134C1193.11 300.173 1189.98 298.296 1185.82 298.504C1177.27 299.13 1165.4 309.347 1161.02 324.568C1158.1 334.577 1151.02 344.168 1143.1 348.755L1136.43 352.509C1131.85 355.011 1127.47 355.636 1124.14 354.385C1121.22 353.343 1119.14 350.84 1118.1 347.296L1108.72 317.27C1107.26 312.475 1103.93 309.972 1099.55 309.972C1090.59 310.181 1077.68 321.441 1073.72 337.287L1040.17 470.525C1037.67 481.368 1030.17 491.585 1021.63 496.381V496.381Z" fill="#42E8E0"/>
<path fill-rule="evenodd" clip-rule="evenodd" d="M1049.76 512.853C1049.55 512.853 1049.55 512.853 1049.34 512.644C1049.13 512.436 1049.34 512.227 1049.55 512.019C1057.67 507.432 1064.97 497.423 1067.68 486.998L1101.22 353.76C1105.39 337.287 1118.31 326.028 1127.68 325.819C1132.48 325.611 1136.23 328.53 1137.68 333.534L1147.06 363.56C1148.1 366.687 1149.98 368.981 1152.69 370.023C1155.81 371.274 1159.98 370.649 1164.35 368.147L1171.02 364.394C1178.73 360.015 1185.82 350.632 1188.52 340.832C1193.11 325.194 1205.4 314.768 1214.15 314.143C1218.74 313.726 1222.28 316.019 1224.15 320.189L1234.57 342.917C1235.82 345.419 1237.7 347.296 1239.99 348.13C1243.11 349.172 1247.07 348.547 1251.03 346.253L1258.74 341.875C1266.87 337.287 1274.37 326.862 1276.66 316.436L1310.21 172.356C1313.96 156.092 1327.08 144.415 1336.67 143.79C1336.88 143.79 1337.09 143.79 1337.29 143.79C1341.88 143.79 1345.21 146.292 1346.88 151.088L1397.93 294.96C1398.97 297.879 1400.84 300.172 1403.55 301.007C1406.68 302.258 1410.85 301.632 1415.01 299.13L1441.47 284.117C1441.68 283.909 1441.89 284.117 1442.1 284.326C1442.31 284.534 1442.1 284.743 1441.89 284.951L1415.43 299.964C1411.05 302.466 1406.68 303.092 1403.14 301.841C1400.43 300.798 1398.34 298.504 1397.09 295.168L1346.04 151.296C1344.38 146.709 1341.04 144.415 1336.67 144.624C1327.5 145.041 1314.79 156.718 1311.04 172.564L1277.91 316.645C1275.41 327.279 1268.12 337.704 1259.58 342.5L1251.87 346.879C1247.7 349.172 1243.53 350.006 1239.99 348.964C1237.28 348.13 1235.2 346.253 1233.95 343.334L1223.53 320.606C1221.65 316.645 1218.53 314.768 1214.36 314.977C1205.82 315.602 1193.94 325.819 1189.57 341.04C1186.65 351.049 1179.56 360.64 1171.65 365.228L1164.98 368.981C1160.4 371.483 1156.02 372.108 1152.69 370.857C1149.77 369.815 1147.69 367.313 1146.64 363.768L1137.27 333.743C1135.81 328.947 1132.48 326.236 1128.1 326.445C1119.14 326.653 1106.22 337.913 1102.26 353.76L1068.72 486.998C1065.8 497.84 1058.3 508.266 1049.76 512.853V512.853Z" fill="#42E8E0"/>
<path fill-rule="evenodd" clip-rule="evenodd" d="M1342.71 146.084H1342.5L1314.17 129.403C1313.96 129.194 1313.96 128.986 1313.96 128.777C1314.17 128.569 1314.37 128.569 1314.58 128.569L1342.92 145.25C1343.13 145.458 1343.13 145.667 1343.13 145.875C1342.92 145.875 1342.92 146.084 1342.71 146.084Z" fill="#224AFA"/>
<path fill-rule="evenodd" clip-rule="evenodd" d="M1220.82 316.853H1220.61L1191.86 299.964C1191.65 299.755 1191.65 299.547 1191.65 299.338C1191.86 299.13 1192.07 299.13 1192.27 299.13L1221.03 316.019C1221.24 316.228 1221.24 316.436 1221.24 316.645C1221.03 316.853 1221.03 316.853 1220.82 316.853Z" fill="#224AFA"/>
<path fill-rule="evenodd" clip-rule="evenodd" d="M1133.73 328.53H1133.52L1103.51 311.015C1103.3 310.807 1103.3 310.598 1103.3 310.39C1103.51 310.181 1103.72 310.181 1103.93 310.181L1133.93 327.696C1134.14 327.904 1134.14 328.113 1134.14 328.321C1133.93 328.321 1133.73 328.53 1133.73 328.53Z" fill="#224AFA"/>
<path fill-rule="evenodd" clip-rule="evenodd" d="M1021.63 496.381C1021.42 496.381 1021.42 496.381 1021.21 496.172C1021 495.964 1021.21 495.755 1021.42 495.546C1029.55 490.959 1036.84 480.951 1039.55 470.525L1073.09 337.287C1077.26 320.815 1090.18 309.555 1099.55 309.347C1104.35 309.138 1108.1 312.058 1109.56 317.062L1118.93 347.087C1119.97 350.215 1121.85 352.509 1124.56 353.551C1127.68 354.802 1131.85 354.177 1136.23 351.675L1142.89 347.921C1150.6 343.543 1157.69 334.16 1160.4 324.36C1164.98 308.721 1177.27 298.296 1186.02 297.67C1190.61 297.253 1194.15 299.547 1196.03 303.717L1206.44 326.445C1207.69 328.947 1209.57 330.824 1211.86 331.658C1214.99 332.7 1218.95 332.075 1222.9 329.781L1230.61 325.402C1238.74 320.815 1246.24 310.39 1248.53 299.964L1282.08 155.884C1285.83 139.62 1298.96 127.943 1308.54 127.318C1313.33 127.109 1317.08 129.611 1318.75 134.615L1369.8 278.487C1370.84 281.407 1372.72 283.7 1375.42 284.534C1378.55 285.785 1382.72 285.16 1386.88 282.658L1413.14 267.853C1413.35 267.645 1413.55 267.853 1413.76 268.062C1413.97 268.27 1413.76 268.479 1413.55 268.688L1387.3 283.492C1382.92 285.994 1378.55 286.619 1375.01 285.368C1372.3 284.326 1370.21 282.032 1368.96 278.696L1317.92 134.824C1316.25 130.237 1312.92 127.943 1308.54 128.152C1299.37 128.569 1286.66 140.245 1282.91 156.092L1249.37 300.173C1246.87 310.807 1239.57 321.232 1231.03 326.028L1223.32 330.406C1219.15 332.7 1214.99 333.534 1211.44 332.492C1208.74 331.658 1206.65 329.781 1205.4 326.862L1194.98 304.134C1193.11 300.173 1189.98 298.296 1185.82 298.504C1177.27 299.13 1165.4 309.347 1161.02 324.568C1158.1 334.577 1151.02 344.168 1143.1 348.755L1136.43 352.509C1131.85 355.011 1127.47 355.636 1124.14 354.385C1121.22 353.343 1119.14 350.84 1118.1 347.296L1108.72 317.27C1107.26 312.475 1103.93 309.972 1099.55 309.972C1090.59 310.181 1077.68 321.441 1073.72 337.287L1040.17 470.525C1037.67 481.368 1030.17 491.585 1021.63 496.381V496.381Z" fill="#224AFA"/>
<path fill-rule="evenodd" clip-rule="evenodd" d="M1049.76 512.853C1049.55 512.853 1049.55 512.853 1049.34 512.644C1049.13 512.436 1049.34 512.227 1049.55 512.019C1057.67 507.432 1064.97 497.423 1067.68 486.998L1101.22 353.76C1105.39 337.287 1118.31 326.028 1127.68 325.819C1132.48 325.611 1136.23 328.53 1137.68 333.534L1147.06 363.56C1148.1 366.687 1149.98 368.981 1152.69 370.023C1155.81 371.274 1159.98 370.649 1164.35 368.147L1171.02 364.394C1178.73 360.015 1185.82 350.632 1188.52 340.832C1193.11 325.194 1205.4 314.768 1214.15 314.143C1218.74 313.726 1222.28 316.019 1224.15 320.189L1234.57 342.917C1235.82 345.419 1237.7 347.296 1239.99 348.13C1243.11 349.172 1247.07 348.547 1251.03 346.253L1258.74 341.875C1266.87 337.287 1274.37 326.862 1276.66 316.436L1310.21 172.356C1313.96 156.092 1327.08 144.415 1336.67 143.79C1336.88 143.79 1337.09 143.79 1337.29 143.79C1341.88 143.79 1345.21 146.292 1346.88 151.088L1397.93 294.96C1398.97 297.879 1400.84 300.172 1403.55 301.007C1406.68 302.258 1410.85 301.632 1415.01 299.13L1441.47 284.117C1441.68 283.909 1441.89 284.117 1442.1 284.326C1442.31 284.534 1442.1 284.743 1441.89 284.951L1415.43 299.964C1411.05 302.466 1406.68 303.092 1403.14 301.841C1400.43 300.798 1398.34 298.504 1397.09 295.168L1346.04 151.296C1344.38 146.709 1341.04 144.415 1336.67 144.624C1327.5 145.041 1314.79 156.718 1311.04 172.564L1277.91 316.645C1275.41 327.279 1268.12 337.704 1259.58 342.5L1251.87 346.879C1247.7 349.172 1243.53 350.006 1239.99 348.964C1237.28 348.13 1235.2 346.253 1233.95 343.334L1223.53 320.606C1221.65 316.645 1218.53 314.768 1214.36 314.977C1205.82 315.602 1193.94 325.819 1189.57 341.04C1186.65 351.049 1179.56 360.64 1171.65 365.228L1164.98 368.981C1160.4 371.483 1156.02 372.108 1152.69 370.857C1149.77 369.815 1147.69 367.313 1146.64 363.768L1137.27 333.743C1135.81 328.947 1132.48 326.236 1128.1 326.445C1119.14 326.653 1106.22 337.913 1102.26 353.76L1068.72 486.998C1065.8 497.84 1058.3 508.266 1049.76 512.853V512.853Z" fill="#224AFA"/>
<path opacity="0.5" fill-rule="evenodd" clip-rule="evenodd" d="M1313.24 299.555L1289.59 312.866C1282.45 316.991 1276.07 315.304 1273.63 308.929L1227.65 179.566C1222.39 164.755 1200.24 177.878 1195.36 198.689L1165.15 328.24C1162.89 337.614 1156.32 347.176 1148.82 351.3L1141.87 355.238C1135.11 358.987 1128.92 357.862 1126.48 352.238L1117.1 331.802C1111.28 319.053 1091.19 330.865 1085.75 350.176V350.176C1083.12 359.175 1076.74 367.611 1069.8 371.549L1063.79 374.923C1056.47 379.048 1049.9 377.361 1047.84 370.424L1039.39 343.426C1034.51 328.24 1012.36 340.614 1007.11 361.612L976.889 481.414C974.449 490.788 967.88 499.975 960.372 504.099L1313.24 299.555Z" fill="#224AFA" fill-opacity="0.0223053"/>
<path opacity="0.5" fill-rule="evenodd" clip-rule="evenodd" d="M1442.52 284.117L1415.85 299.13C1407.93 303.717 1400.84 301.841 1398.13 294.751L1347.09 150.879C1341.25 134.407 1316.67 149.003 1311.25 172.147L1277.7 316.228C1275.2 326.653 1267.91 337.287 1259.58 341.875L1251.87 346.253C1244.36 350.423 1237.49 349.172 1234.78 342.917L1224.36 320.189C1217.9 306.011 1195.61 319.147 1189.57 340.623V340.623C1186.65 350.632 1179.56 360.015 1171.86 364.394L1165.19 368.147C1157.06 372.734 1149.77 370.857 1147.48 363.143L1138.1 333.117C1132.68 316.228 1108.1 329.989 1102.26 353.343L1068.72 486.581C1066.01 497.006 1058.72 507.223 1050.38 511.81L1442.52 284.117Z" fill="#224AFA" fill-opacity="0.109318"/>
<g opacity="0.4" filter="url(#filter0_f)">
<path fill-rule="evenodd" clip-rule="evenodd" d="M1171.79 259.534C1171.79 263.704 1175.13 267.041 1179.29 267.041C1183.46 267.041 1186.79 263.704 1186.79 259.534C1186.79 255.364 1183.46 252.028 1179.29 252.028C1175.13 252.028 1171.79 255.364 1171.79 259.534Z" fill="#42E8E0"/>
</g>
<path fill-rule="evenodd" clip-rule="evenodd" d="M1175.96 259.534C1175.96 261.411 1177.42 262.87 1179.08 262.87C1180.96 262.87 1182.42 261.411 1182.42 259.743C1182.42 257.866 1180.96 256.407 1179.29 256.407C1177.42 256.198 1175.96 257.658 1175.96 259.534Z" fill="#42E8E0"/>
<path opacity="0.4" fill-rule="evenodd" clip-rule="evenodd" d="M1265.58 166.509C1266.06 162.391 1263.11 158.668 1258.99 158.194C1254.88 157.719 1251.16 160.673 1250.68 164.791C1250.2 168.91 1253.15 172.633 1257.27 173.107C1261.38 173.581 1265.11 170.628 1265.58 166.509Z" fill="#42E8E0"/>
<path fill-rule="evenodd" clip-rule="evenodd" d="M1254.78 165.683C1254.78 167.56 1256.24 169.02 1257.91 169.02C1259.78 169.02 1261.24 167.56 1261.24 165.892C1261.24 164.015 1259.78 162.556 1258.12 162.556C1256.24 162.347 1254.78 163.807 1254.78 165.683Z" fill="#42E8E0"/>
<g opacity="0.4" filter="url(#filter1_f)">
<path fill-rule="evenodd" clip-rule="evenodd" d="M1007.43 421.013C1007.43 426.013 1011.43 430.013 1016.43 430.013C1021.43 430.013 1025.43 426.013 1025.43 421.013C1025.43 416.013 1021.43 412.013 1016.43 412.013C1011.68 412.263 1007.43 416.263 1007.43 421.013Z" fill="#42E8E0"/>
</g>
<path fill-rule="evenodd" clip-rule="evenodd" d="M1013.24 420.946C1013.24 422.822 1014.69 424.282 1016.36 424.282C1018.24 424.282 1019.7 422.822 1019.7 421.154C1019.7 419.278 1018.24 417.818 1016.57 417.818C1014.69 417.61 1013.24 419.069 1013.24 420.946Z" fill="#42E8E0"/>
<path fill-rule="evenodd" clip-rule="evenodd" d="M1300.49 573.191L1507.86 453.534V453.534L1300.49 573.191V573.191Z" fill="#42E8E0"/>
<path opacity="0.0616862" fill-rule="evenodd" clip-rule="evenodd" d="M1554.38 677.293C1554.38 677.293 1477.34 709.646 1441.54 717.977C1400.33 727.568 1140.66 761.794 1078.45 652.868C1040.72 586.822 1063.23 531.438 1084 502.724C1136.53 430.175 1302.09 392.696 1302.09 392.696C1302.09 392.696 1407.19 627.453 1437.82 695.861C1438.55 697.493 1554.38 677.293 1554.38 677.293Z" fill="url(#paint1_linear)"/>
<path fill-rule="evenodd" clip-rule="evenodd" d="M1653.06 425.648C1663.87 502.534 1573.45 577.635 1451.58 594.762C1329.71 611.89 1222.29 564.302 1211.63 488.513C1203.45 430.24 1293.75 356.032 1415.62 338.904C1537.49 321.777 1645 368.281 1653.06 425.648Z" fill="#171645"/>
<path fill-rule="evenodd" clip-rule="evenodd" d="M1714.51 391.364C1714.96 393.587 1715.33 395.823 1715.64 398.066C1729.14 494.479 1612.57 593.161 1454.66 615.353C1296.76 637.545 1157.65 576.209 1143.9 478.419C1143.7 476.987 1143.55 475.549 1143.39 474.11C1133.37 495.375 1129.35 517.501 1132.45 539.598C1146.2 637.436 1294.45 697.44 1463.59 673.669C1632.73 649.898 1758.68 551.309 1744.94 453.519C1741.8 430.454 1731.14 409.564 1714.51 391.364Z" fill="url(#paint2_linear)"/>
<path fill-rule="evenodd" clip-rule="evenodd" d="M1487.84 314.299C1624.39 314.917 1733.69 372.413 1745.66 457.603C1759.73 557.732 1633.99 658.189 1464.8 681.967C1295.61 705.745 1147.05 643.838 1132.98 543.71C1118.92 443.676 1244.48 343.294 1413.47 319.447C1413.37 319.461 1413.23 319.481 1413.13 319.494C1238.61 344.021 1108.99 448.673 1123.69 553.24C1138.39 657.808 1291.78 722.685 1466.35 698.151C1640.92 673.617 1770.49 568.971 1755.79 464.404C1743.24 375.109 1629.51 314.732 1487.84 314.299Z" fill="url(#paint3_linear)"/>
<path opacity="0.1" fill-rule="evenodd" clip-rule="evenodd" d="M1486.14 314.295C1485.75 314.301 1485.37 314.306 1484.93 314.319C1485.37 314.306 1485.75 314.301 1486.14 314.295Z" fill="url(#paint4_linear)"/>
<path fill-rule="evenodd" clip-rule="evenodd" d="M1463.68 673.608C1296.92 697.045 1150.15 637.174 1132.54 539.537C1132.69 540.976 1132.85 542.414 1133.04 543.798C1147.12 643.975 1295.69 705.929 1464.88 682.151C1634.07 658.373 1759.8 557.868 1745.72 457.692C1745.52 456.26 1745.27 454.835 1745.03 453.458C1754.98 552.219 1630.44 650.171 1463.68 673.608Z" fill="url(#paint5_linear)"/>
<path fill-rule="evenodd" clip-rule="evenodd" d="M1408.13 283.55C1248.94 305.923 1132.89 403.168 1143.31 477.286C1157.19 576.078 1292.12 632.163 1437.1 617.481C1294.5 631.876 1161.73 576.268 1148 478.525C1137.69 405.171 1251.76 309.079 1408.43 287.061C1565.1 265.042 1700.87 327.14 1710.63 396.581C1725.44 502.007 1604.24 594.332 1454.66 615.353C1454.71 615.346 1454.71 615.346 1454.76 615.34C1606.81 593.97 1730.14 500.568 1715.17 393.996C1705.3 323.791 1567.37 261.17 1408.13 283.55Z" fill="url(#paint6_linear)"/>
<path fill-rule="evenodd" clip-rule="evenodd" d="M1408.42 287.013C1251.8 309.025 1137.69 405.171 1147.99 478.477C1162.28 580.181 1305.52 636.314 1454.57 615.366C1604.19 594.338 1725.44 502.007 1710.63 396.581C1700.86 327.092 1565.09 264.994 1408.42 287.013ZM1455.32 600.661C1318.36 619.909 1186.83 569.041 1173.83 476.501C1164.45 409.78 1269.38 322.177 1413.34 301.945C1557.29 281.713 1681.96 338.022 1690.85 401.259C1704.38 497.181 1592.85 581.332 1455.32 600.661Z" fill="url(#paint7_linear)"/>
<path fill-rule="evenodd" clip-rule="evenodd" d="M1411.8 299.678C1267.23 319.997 1161.91 408.628 1171.42 476.256C1184.6 570.037 1316.77 621.738 1454.35 602.403C1592.45 582.994 1704.38 497.863 1690.71 400.597C1681.76 336.59 1556.43 279.352 1411.8 299.678ZM1454.18 600.821C1317.93 619.969 1187.07 569.007 1174.07 476.467C1164.69 409.746 1269.04 322.224 1412.19 302.105C1555.34 281.987 1679.48 338.37 1688.37 401.607C1701.85 497.536 1590.94 581.599 1454.18 600.821Z" fill="url(#paint8_linear)"/>
<path fill-rule="evenodd" clip-rule="evenodd" d="M1411.96 302.139C1269.95 322.097 1164.68 408.676 1174.25 476.733C1186.69 565.217 1311.88 620.819 1453.94 600.855C1595.99 580.89 1701.35 493.227 1688.73 403.455C1679.31 336.448 1553.96 282.181 1411.96 302.139ZM1451.58 594.762C1329.71 611.89 1222.29 564.302 1211.63 488.513C1203.45 430.24 1293.75 356.032 1415.62 338.904C1537.49 321.777 1644.99 368.234 1653.05 425.6C1663.86 502.486 1573.45 577.635 1451.58 594.762Z" fill="url(#paint9_linear)"/>
<path fill-rule="evenodd" clip-rule="evenodd" d="M1209 488.738C1200.69 429.653 1292.16 354.406 1415.6 337.057C1539.04 319.709 1647.95 366.844 1656.17 425.015C1667.13 502.999 1575.51 579.194 1452.07 596.542C1328.63 613.891 1219.8 565.624 1209 488.738ZM1211.63 488.513C1222.29 564.302 1329.71 611.89 1451.58 594.762C1573.45 577.635 1663.86 502.486 1653.05 425.6C1644.99 368.234 1537.49 321.777 1415.62 338.904C1293.75 356.032 1203.45 430.24 1211.63 488.513Z" fill="#101036"/>
<path fill-rule="evenodd" clip-rule="evenodd" d="M1334.2 553.684L1367.73 530.429L1379.55 535.483L1353.49 561.436C1353.49 561.436 1346.03 559.127 1342.93 557.762C1339.82 556.398 1334.2 553.684 1334.2 553.684Z" fill="#4E4CA5"/>
<path fill-rule="evenodd" clip-rule="evenodd" d="M1357.25 523.239L1317.57 544.194C1317.57 544.194 1322.25 547.089 1324.92 548.807C1327.54 550.531 1334.36 553.126 1334.36 553.126L1367.58 529.768C1367.58 529.768 1362.5 527.124 1361.11 526.152C1359.65 525.14 1357.25 523.239 1357.25 523.239Z" fill="#2A296D"/>
<path fill-rule="evenodd" clip-rule="evenodd" d="M1354.01 520.579C1354.01 520.579 1352.65 519.505 1351.07 517.974C1349.5 516.444 1348.8 515.276 1348.8 515.276L1304.67 532.526C1304.67 532.526 1308.16 536.611 1310.44 538.675C1312.72 540.74 1317.03 543.784 1317.03 543.784L1356.09 522.281L1354.01 520.579Z" fill="#4E4CA5"/>
<path fill-rule="evenodd" clip-rule="evenodd" d="M1343.31 506.266L1347.3 513.248L1303.89 532.197C1303.89 532.197 1300.68 528.658 1298.83 525.559C1296.99 522.46 1295.09 519.32 1295.09 519.32L1343.31 506.266Z" fill="#2A296D"/>
<path fill-rule="evenodd" clip-rule="evenodd" d="M1290.21 504.968C1290.21 504.968 1290.97 508.657 1292.11 511.904C1293.25 515.151 1295.04 519.279 1295.04 519.279L1342.3 503.925C1342.3 503.925 1341.58 501.886 1341.17 499.997C1340.76 498.108 1340.52 495.708 1340.52 495.708L1290.21 504.968Z" fill="#4E4CA5"/>
<path fill-rule="evenodd" clip-rule="evenodd" d="M1289.75 490.286C1289.75 490.286 1288.88 495.859 1289.24 498.047C1289.6 500.236 1290.07 504.647 1290.07 504.647L1340.57 495.749C1340.57 495.749 1340.49 492.743 1340.73 490.324C1340.97 487.905 1341.36 485.514 1341.36 485.514L1289.75 490.286" fill="#2A296D"/>
<path fill-rule="evenodd" clip-rule="evenodd" d="M1290.4 489.708C1290.4 489.708 1291.1 484.012 1291.75 481.39C1292.4 478.768 1293.98 475.139 1293.98 475.139L1344.37 476.478C1344.37 476.478 1343.1 479.528 1342.77 480.986C1342.44 482.443 1341.49 484.329 1341.49 484.329L1290.4 489.708" fill="#4E4CA5"/>
<path fill-rule="evenodd" clip-rule="evenodd" d="M1294.49 474.63C1294.49 474.63 1295.95 470.483 1298.14 467.06C1300.33 463.638 1303.5 459.639 1303.5 459.639L1350.86 466.708C1350.86 466.708 1347.91 469.897 1347.1 471.421C1346.3 472.994 1344.67 475.559 1344.67 475.559L1294.49 474.63" fill="#2A296D"/>
<path fill-rule="evenodd" clip-rule="evenodd" d="M1353.46 560.564C1353.46 560.564 1360 562.857 1363.31 563.609C1366.62 564.36 1376.01 565.864 1376.01 565.864L1394.44 538.794C1394.44 538.794 1389.86 537.977 1387.63 537.317C1385.4 536.657 1381.1 535.072 1381.1 535.072L1353.46 560.564Z" fill="#2A296D"/>
<path fill-rule="evenodd" clip-rule="evenodd" d="M1376.23 565.735C1376.23 565.735 1382.79 567.149 1386.96 567.488C1391.19 567.819 1399.74 568.564 1399.74 568.564L1410.93 540.807C1410.93 540.807 1404.82 540.498 1401.95 540.122C1399.08 539.746 1395.49 538.694 1395.49 538.694L1376.23 565.735Z" fill="#4E4CA5"/>
<path fill-rule="evenodd" clip-rule="evenodd" d="M1399.39 568.515C1399.39 568.515 1409.06 568.909 1412.23 568.999C1415.39 569.041 1424.89 568.582 1424.89 568.582L1427.96 541.042C1427.96 541.042 1422.11 541.231 1418.9 541.196C1415.74 541.153 1410.93 540.759 1410.93 540.759L1399.39 568.515Z" fill="#2A296D"/>
<path fill-rule="evenodd" clip-rule="evenodd" d="M1428.5 541.112C1428.5 541.112 1433.68 540.969 1436.88 540.616C1439.51 540.343 1445.64 539.385 1445.64 539.385L1449.8 566.249C1449.8 566.249 1441.94 567.305 1437.59 567.818C1433.2 568.338 1424.78 568.548 1424.78 568.548L1428.5 541.112Z" fill="#4E4CA5"/>
<path fill-rule="evenodd" clip-rule="evenodd" d="M1445.98 539.386C1445.98 539.386 1449.8 538.946 1453.67 538.159C1457.53 537.324 1462.23 536.225 1462.23 536.225L1474.51 561.413C1474.51 561.413 1466.29 563.348 1463.04 564.048C1459.74 564.755 1449.64 566.125 1449.64 566.125L1445.98 539.386Z" fill="#2A296D"/>
<path opacity="0.380278" fill-rule="evenodd" clip-rule="evenodd" d="M1303.86 459.735L1350.79 466.231C1350.79 466.231 1354.16 462.593 1355.03 461.498C1355.94 460.397 1358.99 457.242 1358.99 457.242L1316.69 445.668C1316.69 445.668 1310.93 450.321 1309.29 452.45C1307.65 454.627 1303.86 459.735 1303.86 459.735Z" fill="white"/>
<path fill-rule="evenodd" clip-rule="evenodd" d="M1316.93 445.682C1316.93 445.682 1321.41 440.916 1324.5 438.389C1327.55 435.916 1333.27 432.775 1333.27 432.775L1370.25 448.943C1370.25 448.943 1366.53 451.462 1364.59 453.195C1362.61 454.982 1359.92 457.258 1359.92 457.258L1316.93 445.682Z" fill="#2A296D"/>
<path fill-rule="evenodd" clip-rule="evenodd" d="M1332.89 432.829C1332.89 432.829 1339.28 428.572 1342.62 426.4C1345.96 424.228 1352.6 421.056 1352.6 421.056L1383.51 441.679C1383.51 441.679 1378.3 444.016 1376.29 445.272C1374.28 446.528 1370.87 448.856 1370.87 448.856L1332.89 432.829Z" fill="#4E4CA5"/>
<path fill-rule="evenodd" clip-rule="evenodd" d="M1463.05 535.818L1474.33 561.195C1474.33 561.195 1481.72 559.476 1486.4 557.941C1491.09 556.406 1497.98 553.978 1497.98 553.978L1478.7 530.748C1478.7 530.748 1475.02 532.19 1471.12 533.515C1467.23 534.841 1463.05 535.818 1463.05 535.818Z" fill="#4E4CA5"/>
<path fill-rule="evenodd" clip-rule="evenodd" d="M1479.72 530.457C1479.72 530.457 1484.78 528.433 1486.79 527.518C1488.79 526.603 1493.77 524.006 1493.77 524.006L1519.26 544.758C1519.26 544.758 1513.51 547.707 1510.27 549.185C1507.02 550.614 1497.88 553.943 1497.88 553.943L1479.72 530.457Z" fill="#2A296D"/>
<path fill-rule="evenodd" clip-rule="evenodd" d="M1494.4 523.626C1494.4 523.626 1498.8 521.109 1500.81 519.901C1502.83 518.693 1506.28 516.31 1506.28 516.31L1538.54 533.774C1538.54 533.774 1534.34 536.701 1530.8 538.804C1527.26 540.908 1519.89 544.425 1519.89 544.425L1494.4 523.626Z" fill="#4E4CA5"/>
<path fill-rule="evenodd" clip-rule="evenodd" d="M1507.31 515.679C1507.31 515.679 1510.5 513.138 1512.49 511.446C1514.49 509.755 1517.09 506.858 1517.09 506.858L1555.58 520.965C1555.58 520.965 1550.81 525.042 1548.35 526.896C1545.94 528.696 1539.04 533.51 1539.04 533.51L1507.31 515.679Z" fill="#2A296D"/>
<path fill-rule="evenodd" clip-rule="evenodd" d="M1525.13 497.065L1567.87 506.876C1567.87 506.876 1572.48 501.313 1573.88 498.829C1575.27 496.345 1577.35 492.111 1577.35 492.111L1530.18 487.4C1530.18 487.4 1528.31 492.091 1527.56 493.268C1526.8 494.445 1525.13 497.065 1525.13 497.065Z" fill="#2A296D"/>
<path fill-rule="evenodd" clip-rule="evenodd" d="M1532.17 476.024L1581.89 477.067C1581.89 477.067 1582.71 471.208 1582.44 468.959C1582.18 466.709 1581.49 462.134 1581.49 462.134L1531.56 467.837C1531.56 467.837 1532.22 470.858 1532.32 472.596C1532.47 474.327 1532.17 476.024 1532.17 476.024Z" fill="#2A296D"/>
<path fill-rule="evenodd" clip-rule="evenodd" d="M1520.99 449.612C1520.99 449.612 1523.64 452.256 1525.05 454.005C1526.45 455.705 1527.19 457.5 1527.19 457.5L1577.49 447.852C1577.49 447.852 1574.65 442.167 1573.31 440.262C1571.98 438.357 1568.77 434.866 1568.77 434.866L1520.99 449.612Z" fill="#2A296D"/>
<path opacity="0.0866118" fill-rule="evenodd" clip-rule="evenodd" d="M1539 413.012C1539 413.012 1544.51 415.596 1547.49 417.512C1550.49 419.476 1555.49 422.911 1555.49 422.911L1511.57 442.029C1511.57 442.029 1508.94 440.257 1507.49 439.585C1506.03 438.913 1502.22 436.627 1502.22 436.627L1539 413.012Z" fill="white"/>
<path opacity="0.0866118" fill-rule="evenodd" clip-rule="evenodd" d="M1475.13 428.656C1475.13 428.656 1478.82 429.402 1481.68 430.071C1484.55 430.739 1488.6 431.582 1488.6 431.582L1519.3 405.511C1519.3 405.511 1510.16 402.611 1507.16 402.01C1504.16 401.409 1497.79 400.309 1497.79 400.309L1475.13 428.656Z" fill="white"/>
<path fill-rule="evenodd" clip-rule="evenodd" d="M1473.53 397.247L1458.34 427.365C1458.34 427.365 1454.4 426.946 1451.81 426.823C1449.22 426.701 1444.41 427.036 1444.41 427.036L1448.9 397.107C1448.9 397.107 1458.28 396.859 1462.47 396.952C1466.7 397.038 1473.53 397.247 1473.53 397.247Z" fill="#2A296D"/>
<path fill-rule="evenodd" clip-rule="evenodd" d="M1398.2 404.28L1412.22 431.511C1412.22 431.511 1417.47 430.482 1419.79 430.058C1422.11 429.635 1428.4 428.459 1428.4 428.459L1424.63 399.251C1424.63 399.251 1416 400.66 1411.43 401.691C1406.86 402.674 1398.2 404.28 1398.2 404.28Z" fill="#2A296D"/>
<path fill-rule="evenodd" clip-rule="evenodd" d="M1352.03 420.795C1352.03 420.795 1361.72 416.513 1363.68 415.653C1365.65 414.793 1374.34 411.674 1374.34 411.674L1397.46 435.922C1397.46 435.922 1392.83 437.887 1390.3 438.875C1387.77 439.863 1384.13 441.64 1384.13 441.64L1352.03 420.795Z" fill="#2A296D"/>
<path fill-rule="evenodd" clip-rule="evenodd" d="M1374.53 411.647L1397.98 435.849C1397.98 435.849 1400.56 434.854 1404.05 433.827C1407.54 432.752 1411.68 431.782 1411.68 431.782L1398.24 404.566C1398.24 404.566 1389.86 406.719 1386.05 407.983C1382.25 409.248 1374.53 411.647 1374.53 411.647Z" fill="#4E4CA5"/>
<path fill-rule="evenodd" clip-rule="evenodd" d="M1424.9 399.409L1429.02 428.76C1429.02 428.76 1431.89 427.773 1435.36 427.577C1438.83 427.382 1443.5 427.115 1443.5 427.115L1448.4 397.76C1448.4 397.76 1442.88 397.514 1436.08 398.177C1429.28 398.841 1424.9 399.409 1424.9 399.409Z" fill="#4E4CA5"/>
<path fill-rule="evenodd" clip-rule="evenodd" d="M1459.7 426.98C1459.7 426.98 1464.98 427.308 1467.4 427.6C1469.82 427.893 1474.19 428.593 1474.19 428.593L1497.58 400.193C1497.58 400.193 1488.58 398.636 1484.65 398.312C1480.72 397.988 1473.98 397.377 1473.98 397.377L1459.7 426.98Z" fill="#4E4CA5"/>
<path fill-rule="evenodd" clip-rule="evenodd" d="M1489.71 432.252L1519.64 405.464C1519.64 405.464 1525.19 406.972 1528.65 408.48C1532.12 409.989 1538.99 413.305 1538.99 413.305L1500.74 436.153C1500.74 436.153 1497.44 434.767 1494.64 433.799C1491.82 432.783 1489.71 432.252 1489.71 432.252Z" fill="#4E4CA5"/>
<path fill-rule="evenodd" clip-rule="evenodd" d="M1512.59 442.713C1512.59 442.713 1516.6 445.02 1517.68 446.134C1518.76 447.248 1520.69 448.875 1520.69 448.875L1568.23 434.503C1568.23 434.503 1563.51 429.229 1561.28 427.158C1559 425.094 1556.02 422.933 1556.02 422.933L1512.59 442.713Z" fill="#4E4CA5"/>
<path fill-rule="evenodd" clip-rule="evenodd" d="M1527.84 458.333L1577.24 447.837C1577.24 447.837 1579.15 451.707 1580.17 454.872C1581.2 458.037 1581.53 462.127 1581.53 462.127L1531.27 467.536C1531.27 467.536 1530.46 464.147 1529.77 462.346C1529.08 460.544 1527.84 458.333 1527.84 458.333Z" fill="#4E4CA5"/>
<path fill-rule="evenodd" clip-rule="evenodd" d="M1532.35 477.265C1532.35 477.265 1532.02 480.815 1531.56 482.681C1531.09 484.547 1530.32 486.699 1530.32 486.699L1577.4 492.104C1577.4 492.104 1579.85 485.725 1580.31 484.199C1580.83 482.667 1581.31 477.1 1581.31 477.1L1532.35 477.265Z" fill="#4E4CA5"/>
<path fill-rule="evenodd" clip-rule="evenodd" d="M1524.41 498.188L1567.87 506.876C1567.87 506.876 1564.82 511.1 1562.68 513.493C1560.54 515.887 1555.47 520.542 1555.47 520.542L1517.64 505.953C1517.64 505.953 1520.47 503.998 1521.77 502.161C1523.06 500.324 1524.41 498.188 1524.41 498.188Z" fill="#4E4CA5"/>
<path fill-rule="evenodd" clip-rule="evenodd" d="M1444.16 539.251C1496.64 531.876 1535.71 501.175 1531.42 470.678C1527.14 440.182 1481.12 421.439 1428.64 428.814C1376.16 436.189 1337.1 466.89 1341.38 497.387C1345.67 527.883 1391.68 546.627 1444.16 539.251Z" fill="url(#paint10_linear)"/>
<path fill-rule="evenodd" clip-rule="evenodd" d="M1289.14 503.561C1282.61 457.076 1343.05 410.133 1424.17 398.732C1505.24 387.338 1576.33 415.748 1582.87 462.28C1589.4 508.765 1528.95 555.708 1447.84 567.109C1366.72 578.51 1295.67 550.046 1289.14 503.561ZM1291.07 503.436C1297.5 549.205 1367.65 577.21 1447.72 565.957C1527.79 554.703 1587.51 508.447 1581.08 462.678C1574.64 416.909 1504.49 388.904 1424.42 400.157C1344.35 411.411 1284.63 457.667 1291.07 503.436Z" fill="#17223C"/>
<path fill-rule="evenodd" clip-rule="evenodd" d="M1340.09 497.52C1335.74 466.593 1375.35 435.428 1428.47 427.961C1481.65 420.488 1528.26 439.537 1532.61 470.463C1536.95 501.39 1497.35 532.555 1444.22 540.022C1391.05 547.495 1344.44 528.494 1340.09 497.52ZM1341.4 497.482C1345.67 527.931 1391.71 546.672 1444.17 539.299C1496.63 531.926 1535.72 501.223 1531.44 470.774C1527.16 440.325 1481.12 421.584 1428.66 428.957C1376.2 436.33 1337.11 466.985 1341.4 497.482Z" fill="#30335C"/>
<path fill-rule="evenodd" clip-rule="evenodd" d="M1441.51 520.011C1480 514.602 1508.65 492.097 1505.51 469.745C1502.37 447.393 1468.62 433.659 1430.13 439.068C1391.64 444.478 1362.98 466.983 1366.13 489.335C1369.27 511.686 1403.02 525.421 1441.51 520.011Z" fill="url(#paint11_linear)"/>
<path fill-rule="evenodd" clip-rule="evenodd" d="M1366.13 489.382C1362.95 466.76 1391.61 444.045 1430.07 438.639C1468.54 433.233 1502.34 447.17 1505.52 469.793C1508.7 492.415 1480.09 515.124 1441.58 520.536C1403.07 525.949 1369.31 512.004 1366.13 489.382ZM1367.04 489.303C1370.18 511.591 1403.51 525.302 1441.5 519.963C1479.54 514.618 1507.8 492.249 1504.62 469.967C1501.49 447.679 1468.15 433.968 1430.16 439.307C1392.18 444.646 1363.91 467.015 1367.04 489.303Z" fill="#30335C"/>
<path fill-rule="evenodd" clip-rule="evenodd" d="M1419.72 515.967L1416.57 521.132L1399.52 567.718L1399.85 569.034L1412.43 540.402L1419.72 515.967Z" fill="#30335C"/>
<path fill-rule="evenodd" clip-rule="evenodd" d="M1409.03 514.842L1404.86 519.37L1375.95 565.141L1376.06 566.587L1396.5 538.649L1409.03 514.842Z" fill="#30335C"/>
<path fill-rule="evenodd" clip-rule="evenodd" d="M1391.07 509.335L1384.61 512.385L1335.07 551.955C1335.07 551.955 1333.98 553.861 1334.23 553.923C1334.43 553.944 1368.56 530.118 1368.56 530.118L1391.07 509.335Z" fill="#30335C"/>
<path fill-rule="evenodd" clip-rule="evenodd" d="M1383.87 505.043L1375.6 508.054L1318.46 542.561L1317.52 544.201L1358.13 523.261L1383.87 505.043Z" fill="#30335C"/>
<path fill-rule="evenodd" clip-rule="evenodd" d="M1378.08 499.821L1369.81 501.762L1305.9 530.894L1304.27 532.777L1349.43 515.626L1378.08 499.821Z" fill="#30335C"/>
<path fill-rule="evenodd" clip-rule="evenodd" d="M1374.28 494.174L1365.19 495.452L1296.42 518.063L1295.25 519.736L1343.63 506.853L1374.28 494.174Z" fill="#30335C"/>
<path fill-rule="evenodd" clip-rule="evenodd" d="M1372.12 487.762L1363.3 488.223L1291.1 504.063L1290.24 505.158L1340.8 497.419L1372.12 487.762Z" fill="#30335C"/>
<path fill-rule="evenodd" clip-rule="evenodd" d="M1372.51 481.575L1363.07 480.712L1291 489.185L1289.75 490.286L1340.61 487.421L1372.51 481.575Z" fill="#30335C"/>
<path fill-rule="evenodd" clip-rule="evenodd" d="M1374.02 474.695L1365.42 473.228L1295.04 474.065L1293.98 475.139L1342.26 477.747L1374.02 474.695Z" fill="#30335C"/>
<path fill-rule="evenodd" clip-rule="evenodd" d="M1377.96 468.156L1370.62 466.024L1304.12 459.163L1302.85 460.169L1348.95 467.998L1377.96 468.156Z" fill="#30335C"/>
<path fill-rule="evenodd" clip-rule="evenodd" d="M1383.3 462.002L1376.65 458.897L1316.95 445.096L1315.71 445.951L1358.14 458.774L1383.3 462.002Z" fill="#30335C"/>
<path fill-rule="evenodd" clip-rule="evenodd" d="M1391.04 456.631L1384.24 452.088L1333.12 432.359L1331.94 432.963L1368.38 450.083L1391.04 456.631Z" fill="#30335C"/>
<path fill-rule="evenodd" clip-rule="evenodd" d="M1399.69 451.815L1394.33 446.533L1352.94 421.104L1351.75 421.272L1381.13 442.743L1399.69 451.815Z" fill="#30335C"/>
<path fill-rule="evenodd" clip-rule="evenodd" d="M1409.58 447.602L1405.26 441.688L1375.11 411.955L1373.85 411.645L1395.39 436.455L1409.58 447.602Z" fill="#30335C"/>
<path fill-rule="evenodd" clip-rule="evenodd" d="M1452.09 441.286L1461.56 426.426L1474.32 397.33L1473.23 397.873L1453.36 435.803L1452.09 441.286Z" fill="#30335C"/>
<path fill-rule="evenodd" clip-rule="evenodd" d="M1462.41 442.172L1477.15 428.566L1498.1 400.071L1496.93 400.382L1465.73 436.401L1462.41 442.172Z" fill="#30335C"/>
<path fill-rule="evenodd" clip-rule="evenodd" d="M1472.26 444.536L1477.23 438.435L1518.64 405.653L1520.42 405.501L1491.66 431.978L1472.26 444.536Z" fill="#30335C"/>
<path fill-rule="evenodd" clip-rule="evenodd" d="M1480.66 447.979L1505.56 436.547L1540.24 413.227L1538.46 412.99L1486.58 442.767L1480.66 447.979Z" fill="#30335C"/>
<path fill-rule="evenodd" clip-rule="evenodd" d="M1487.84 452.421L1495.07 447.56L1554.83 422.759L1556.09 423.069L1516.6 442.928L1487.84 452.421Z" fill="#30335C"/>
<path fill-rule="evenodd" clip-rule="evenodd" d="M1493.59 457.112L1524.4 451.079L1569.59 434.847L1567.68 434.386L1501.59 453.214L1493.59 457.112Z" fill="#30335C"/>
<path fill-rule="evenodd" clip-rule="evenodd" d="M1497.48 462.99L1506.22 459.571L1576.46 447.461L1578.06 448.112L1531.31 459.548L1497.48 462.99Z" fill="#30335C"/>
<path fill-rule="evenodd" clip-rule="evenodd" d="M1499.3 469.401L1508.4 466.808L1580.51 461.443L1582.25 462.415L1532.59 469.639L1499.3 469.401Z" fill="#30335C"/>
<path fill-rule="evenodd" clip-rule="evenodd" d="M1499.26 475.685L1533.36 479.312L1581.95 477.545L1580.12 476.245L1508.31 474.414L1499.26 475.685Z" fill="#30335C"/>
<path fill-rule="evenodd" clip-rule="evenodd" d="M1497.7 482.571L1529.9 489.192L1577.49 492.432L1576.4 491.611L1506.74 481.934L1497.7 482.571Z" fill="#30335C"/>
<path fill-rule="evenodd" clip-rule="evenodd" d="M1493.67 488.783L1524.65 499.176L1568.79 507.232L1567.23 506.09L1502.06 489.064L1493.67 488.783Z" fill="#30335C"/>
<path fill-rule="evenodd" clip-rule="evenodd" d="M1488.14 495.012L1516 508.764L1555.32 521.196L1554.47 519.66L1496.32 496.539L1488.14 495.012Z" fill="#30335C"/>
<path fill-rule="evenodd" clip-rule="evenodd" d="M1481.07 500.677L1505.06 516.92L1538.91 533.966L1537.82 532.075L1487.58 502.732L1481.07 500.677Z" fill="#30335C"/>
<path fill-rule="evenodd" clip-rule="evenodd" d="M1472.56 505.767L1478.1 508.541L1519.32 543.824L1519.51 545.161L1492.01 524.642L1472.56 505.767Z" fill="#30335C"/>
<path fill-rule="evenodd" clip-rule="evenodd" d="M1462.86 509.612L1477.41 531.269L1497.65 554.365L1497.46 552.347L1467.6 513.619L1462.86 509.612Z" fill="#30335C"/>
<path fill-rule="evenodd" clip-rule="evenodd" d="M1452.4 512.884L1455.98 517.636L1474.76 561.427L1474.18 561.508L1461.11 535.506L1452.4 512.884Z" fill="#30335C"/>
<path fill-rule="evenodd" clip-rule="evenodd" d="M1441.6 515.179L1441.76 520.462L1449.34 566.411L1450.2 566.29L1443.44 519.934L1441.6 515.179Z" fill="#30335C"/>
<path fill-rule="evenodd" clip-rule="evenodd" d="M1430.49 516.254L1428.81 521.552L1424.47 567.327L1425.06 568.753L1429.37 540.405L1430.49 516.254Z" fill="#30335C"/>
<path fill-rule="evenodd" clip-rule="evenodd" d="M1397.75 404.49L1410.14 431.853L1418.34 444.278L1413.03 430.715L1398.85 405.113L1397.75 404.49Z" fill="#30335C"/>
<path fill-rule="evenodd" clip-rule="evenodd" d="M1449.19 396.821L1446.32 425.746L1442.01 440.66L1442.83 425.798L1448.06 397.711L1449.19 396.821Z" fill="#30335C"/>
<path fill-rule="evenodd" clip-rule="evenodd" d="M1424.58 399.21L1427.3 427.883L1430.47 441.454L1430.02 427.55L1424.86 399.17L1424.58 399.21Z" fill="url(#paint12_linear)"/>
<path fill-rule="evenodd" clip-rule="evenodd" d="M1399.51 512.383L1394.05 516.363L1353.94 559.815C1353.94 559.815 1353.25 561.422 1353.48 561.388C1353.67 561.362 1381.92 535.053 1381.92 535.053L1399.51 512.383Z" fill="#30335C"/>
<path fill-rule="evenodd" clip-rule="evenodd" d="M1335.07 551.955L1334.18 553.929Z" fill="url(#paint13_linear)"/>
<path fill-rule="evenodd" clip-rule="evenodd" d="M1334.18 553.929L1333.61 553.621L1334.43 551.558L1384.14 512.159L1391.07 509.335L1384.61 512.385L1335.07 551.955" fill="#17223C"/>
<path fill-rule="evenodd" clip-rule="evenodd" d="M1317.52 544.201L1317.02 543.736L1317.89 542.007L1375.12 507.392L1383.87 505.043L1375.6 508.054L1318.46 542.561L1317.52 544.201Z" fill="#17223C"/>
<path fill-rule="evenodd" clip-rule="evenodd" d="M1304.27 532.777L1303.76 532.313L1305.43 530.375L1369.37 501.045L1378.08 499.821L1369.81 501.762L1305.9 530.894L1304.27 532.777Z" fill="#17223C"/>
<path fill-rule="evenodd" clip-rule="evenodd" d="M1295.25 519.736L1294.8 518.972L1296.08 517.38L1364.79 494.681L1374.28 494.174L1365.19 495.452L1296.42 518.063L1295.25 519.736Z" fill="#17223C"/>
<path fill-rule="evenodd" clip-rule="evenodd" d="M1353.49 561.436L1352.57 561.127L1353.22 559.479L1393.48 516.103L1399.51 512.383L1394.06 516.411L1354 559.856L1353.49 561.436Z" fill="#17223C"/>
<path fill-rule="evenodd" clip-rule="evenodd" d="M1290.24 505.158L1290.07 504.647L1291.03 503.538L1363.25 487.841L1372.12 487.762L1363.3 488.223L1291.1 504.063L1290.24 505.158Z" fill="#17223C"/>
<path fill-rule="evenodd" clip-rule="evenodd" d="M1289.75 490.286L1290.03 489.516L1291.03 488.694L1363.06 480.323L1372.51 481.575L1363.07 480.712L1291 489.185L1289.75 490.286Z" fill="#17223C"/>
<path fill-rule="evenodd" clip-rule="evenodd" d="M1293.98 475.139L1294.36 474.404L1295.09 473.718L1365.39 472.696L1374.02 474.695L1365.41 473.228L1295.04 474.065L1293.98 475.139Z" fill="#17223C"/>
<path fill-rule="evenodd" clip-rule="evenodd" d="M1302.85 460.169L1303.29 459.522L1304.17 458.864L1370.67 465.724L1377.96 468.156L1370.62 466.024L1304.12 459.163L1302.85 460.169Z" fill="#17223C"/>
<path fill-rule="evenodd" clip-rule="evenodd" d="M1376.06 566.587L1375.46 566.476L1375.35 564.983L1404.34 519.103L1409.03 514.842L1404.86 519.37L1375.95 565.141L1376.06 566.587Z" fill="#17223C"/>
<path fill-rule="evenodd" clip-rule="evenodd" d="M1399.85 569.034L1399.31 569.013L1398.98 567.649L1416.21 520.988L1419.72 515.967L1416.57 521.132L1399.52 567.718L1399.85 569.034Z" fill="#17223C"/>
<path fill-rule="evenodd" clip-rule="evenodd" d="M1425.06 568.753L1424.57 568.772L1423.98 567.346L1428.26 521.435L1430.49 516.254L1428.81 521.552L1424.47 567.327L1425.06 568.753Z" fill="#17223C"/>
<path fill-rule="evenodd" clip-rule="evenodd" d="M1441.6 515.179L1443.44 519.934L1450.18 566.195L1449.34 566.411L1442.83 520.069L1441.6 515.179Z" fill="#17223C"/>
<path fill-rule="evenodd" clip-rule="evenodd" d="M1452.4 512.884L1455.98 517.636L1474.18 561.508L1474.76 561.427L1456.37 517.338L1452.4 512.884Z" fill="#17223C"/>
<path fill-rule="evenodd" clip-rule="evenodd" d="M1315.71 445.951L1316.97 444.898L1376.84 458.141L1383.3 462.002L1376.65 458.897L1316.94 445.096L1315.71 445.951Z" fill="#17223C"/>
<path fill-rule="evenodd" clip-rule="evenodd" d="M1333.12 432.359L1331.94 432.963Z" fill="url(#paint14_linear)"/>
<path fill-rule="evenodd" clip-rule="evenodd" d="M1331.94 432.963L1333.23 432.101L1384.67 451.346L1391.04 456.631L1384.24 452.088L1333.12 432.359" fill="#17223C"/>
<path fill-rule="evenodd" clip-rule="evenodd" d="M1351.75 421.272L1353.22 420.969L1394.69 445.947L1399.69 451.815L1394.33 446.533L1352.94 421.104L1351.75 421.272Z" fill="#17223C"/>
<path fill-rule="evenodd" clip-rule="evenodd" d="M1462.86 509.612L1467.99 513.32L1498.11 552.158L1498.29 554.081L1497.65 554.365L1497.46 552.347L1467.6 513.619L1462.86 509.612Z" fill="#17223C"/>
<path fill-rule="evenodd" clip-rule="evenodd" d="M1519.51 545.161L1519.96 544.903L1519.77 543.519L1478.6 508.277L1472.61 505.76L1478.1 508.541L1519.32 543.824L1519.51 545.161Z" fill="#17223C"/>
<path fill-rule="evenodd" clip-rule="evenodd" d="M1538.91 533.966L1539.35 533.66L1538.29 531.62L1488.05 502.325L1481.07 500.677L1487.68 502.767L1537.82 532.075L1538.91 533.966Z" fill="#17223C"/>
<path fill-rule="evenodd" clip-rule="evenodd" d="M1555.32 521.196L1555.73 520.7L1554.74 519.184L1496.48 495.933L1488.14 495.012L1496.32 496.539L1554.47 519.66L1555.32 521.196Z" fill="#17223C"/>
<path fill-rule="evenodd" clip-rule="evenodd" d="M1493.67 488.783L1502.38 488.241L1567.29 505.497L1568.98 506.817L1568.79 507.232L1567.23 506.09L1502.06 489.064L1493.67 488.783Z" fill="#17223C"/>
<path fill-rule="evenodd" clip-rule="evenodd" d="M1577.49 492.432L1577.67 491.969L1576.49 491.161L1506.87 481.137L1497.7 482.571L1506.74 481.934L1576.4 491.611L1577.49 492.432Z" fill="#17223C"/>
<path fill-rule="evenodd" clip-rule="evenodd" d="M1499.26 475.685L1508.31 473.732L1580.48 475.707L1582.06 476.898L1581.95 477.545L1580.17 476.286L1508.31 474.414L1499.26 475.685Z" fill="#17223C"/>
<path fill-rule="evenodd" clip-rule="evenodd" d="M1578.06 448.112L1577.32 447.34L1576.05 446.935L1505.73 458.861L1497.48 462.99L1506.22 459.571L1576.46 447.461L1578.06 448.112Z" fill="#17223C"/>
<path fill-rule="evenodd" clip-rule="evenodd" d="M1499.3 469.401L1508.53 465.963L1580.39 460.877L1582.17 461.842L1582.25 462.415L1580.51 461.443L1508.4 466.808L1499.3 469.401Z" fill="#17223C"/>
<path fill-rule="evenodd" clip-rule="evenodd" d="M1493.59 457.112L1501.32 452.375L1567.13 433.539L1568.91 434.164L1569.59 434.847L1567.68 434.386L1501.59 453.214L1493.59 457.112Z" fill="#17223C"/>
<path fill-rule="evenodd" clip-rule="evenodd" d="M1556.09 423.069L1555.6 422.652L1554.49 422.37L1494.63 446.891L1487.84 452.421L1495.07 447.56L1554.83 422.759L1556.09 423.069Z" fill="#17223C"/>
<path fill-rule="evenodd" clip-rule="evenodd" d="M1540.24 413.227L1539.28 412.924L1537.84 412.737L1486.22 442.33L1480.66 447.979L1486.58 442.767L1538.46 412.99L1540.24 413.227Z" fill="#17223C"/>
<path fill-rule="evenodd" clip-rule="evenodd" d="M1520.42 405.501L1519.26 405.225L1517.98 405.406L1476.64 438.079L1472.26 444.536L1477.23 438.435L1518.64 405.653L1520.42 405.501Z" fill="#17223C"/>
<path fill-rule="evenodd" clip-rule="evenodd" d="M1498.1 400.071L1497.39 399.879L1496.27 400.182L1465.28 435.978L1462.41 442.172L1465.73 436.401L1496.93 400.382L1498.1 400.071Z" fill="#17223C"/>
<path fill-rule="evenodd" clip-rule="evenodd" d="M1474.32 397.33L1473.48 397.253L1472.49 397.83L1452.75 435.597L1452.09 441.286L1453.36 435.803L1473.23 397.873L1474.32 397.33Z" fill="#17223C"/>
<path fill-rule="evenodd" clip-rule="evenodd" d="M1449.19 396.822L1448.43 396.881L1447.48 397.744L1442.03 425.959L1442.01 440.66L1442.83 425.798L1448.06 397.711L1449.19 396.822V396.822Z" fill="#17223C"/>
<path fill-rule="evenodd" clip-rule="evenodd" d="M1430.47 441.454L1428 428.028L1424.58 399.21L1424.86 399.17L1429.29 427.895L1430.47 441.454Z" fill="url(#paint15_linear)"/>
<path fill-rule="evenodd" clip-rule="evenodd" d="M1397.75 404.49L1398.31 404.362L1399.46 404.931L1413.79 430.56L1418.34 444.278L1413.03 430.715L1398.85 405.113L1397.75 404.49Z" fill="#17223C"/>
<path fill-rule="evenodd" clip-rule="evenodd" d="M1373.85 411.645L1374.45 411.415L1375.56 411.745L1405.73 441.233L1409.58 447.602L1405.26 441.688L1375.11 411.955L1373.85 411.645Z" fill="#17223C"/>
<path fill-rule="evenodd" clip-rule="evenodd" d="M1419.82 390.535C1419.82 390.535 1421.18 387.813 1420.14 384.893C1419.1 382.021 1416.15 380.684 1414.33 380.843C1412.5 381.002 1408.1 381.427 1406 381.039C1403.91 380.652 1402.1 380.225 1402.1 380.225C1402.1 380.225 1401.26 378.008 1399.16 376.55C1396.96 375.059 1393.52 373.694 1390.24 373.862C1387.1 374.011 1385.14 374.19 1384.06 373.757C1382.97 373.277 1382.86 372.807 1382.89 372.023C1382.93 371.24 1382.87 370.81 1382.53 370.468C1382.07 369.997 1377.13 367.626 1375.25 371.88C1373.32 376.142 1378.57 378.568 1379.66 378.074C1380.63 377.695 1380.82 376.939 1381.52 376.743C1382.21 376.499 1382.96 376.685 1383.91 377.526C1384.8 378.326 1386.99 380.792 1388.53 382.084C1390.28 383.493 1393.94 385.363 1397.01 385.419C1399.24 385.445 1400.22 384.82 1400.22 384.82C1400.22 384.82 1402.49 385.767 1403.77 386.902C1405.66 388.583 1409.13 392.913 1411.44 394.146C1413.48 395.222 1418.08 394.429 1419.82 390.535Z" fill="url(#paint16_linear)"/>
<path fill-rule="evenodd" clip-rule="evenodd" d="M1416.96 386.118C1416.96 386.118 1415.63 387.669 1415.26 388.84C1414.89 390.011 1415.02 390.966 1415.02 390.966L1416.26 391.133C1416.21 391.139 1415.81 389.687 1416.96 386.118Z" fill="#17223C"/>
<path fill-rule="evenodd" clip-rule="evenodd" d="M1426.81 389.552C1426.81 389.552 1424.75 387.311 1424.95 384.217C1425.15 381.171 1427.62 379.072 1429.42 378.722C1431.21 378.373 1435.57 377.566 1437.47 376.617C1439.38 375.668 1441 374.759 1441 374.759C1441 374.759 1441.2 372.394 1442.81 370.415C1444.52 368.375 1447.45 366.113 1450.65 365.372C1453.7 364.651 1455.64 364.281 1456.56 363.568C1457.47 362.807 1457.45 362.323 1457.2 361.579C1456.95 360.836 1456.89 360.406 1457.13 359.984C1457.43 359.406 1461.53 355.763 1464.51 359.336C1467.54 362.901 1463.16 366.679 1461.97 366.506C1460.94 366.408 1460.55 365.732 1459.83 365.737C1459.09 365.694 1458.42 366.081 1457.74 367.149C1457.11 368.163 1455.68 371.137 1454.56 372.804C1453.26 374.641 1450.26 377.448 1447.33 378.347C1445.18 378.989 1444.07 378.658 1444.07 378.658C1444.07 378.658 1442.15 380.194 1441.24 381.636C1439.88 383.773 1437.74 388.892 1435.86 390.714C1434.14 392.318 1429.55 392.817 1426.81 389.552Z" fill="url(#paint17_linear)"/>
<path fill-rule="evenodd" clip-rule="evenodd" d="M1428.24 384.533C1428.24 384.533 1429.96 385.655 1430.63 386.679C1431.31 387.703 1431.45 388.658 1431.45 388.658L1430.3 389.159C1430.35 389.152 1430.33 387.646 1428.24 384.533Z" fill="#17223C"/>
<path fill-rule="evenodd" clip-rule="evenodd" d="M1399.01 479.797C1397.37 468.152 1412.28 456.421 1432.27 453.611C1452.27 450.801 1469.83 457.969 1471.46 469.615C1473.1 481.26 1458.2 492.991 1438.2 495.801C1418.21 498.611 1400.65 491.443 1399.01 479.797ZM1402.15 477.993C1403.64 488.588 1419.61 495.152 1437.85 492.59C1456.03 490.034 1469.62 479.315 1468.13 468.72C1466.65 458.125 1450.67 451.56 1432.44 454.123C1414.21 456.685 1400.66 467.35 1402.15 477.993Z" fill="#30335C"/>
<path fill-rule="evenodd" clip-rule="evenodd" d="M1468.14 468.768C1469.59 479.417 1456.03 490.034 1437.8 492.596C1419.56 495.111 1403.59 488.547 1402.14 477.897C1400.69 467.248 1414.25 456.631 1432.48 454.068C1450.67 451.56 1466.65 458.125 1468.14 468.768Z" fill="url(#paint18_linear)"/>
<path fill-rule="evenodd" clip-rule="evenodd" d="M1460.33 455.655C1459.64 450.739 1455.51 448.302 1455.51 448.302C1455.51 448.302 1454.79 446.65 1454.03 441.257C1453.27 435.864 1451.87 432.071 1448.02 426.479C1444.8 421.823 1437.97 419.569 1435.8 418.95C1435.72 418.718 1435.68 418.48 1435.6 418.2C1435.92 417.765 1436.41 417.112 1436.82 416.227C1437.58 414.661 1437.9 411.793 1436.62 408.906C1435.56 406.573 1431.93 402.12 1430.59 399.485C1430.41 398.878 1430.22 398.271 1430.04 397.664C1430.13 395.851 1431.6 394.622 1431.28 391.942C1430.97 389.065 1428.6 384.629 1427.67 383.202C1426.74 381.775 1423.68 377.971 1424.69 377.585C1425.76 377.193 1427.88 375.726 1427.54 373.974C1427.19 372.221 1426.65 370.4 1424.92 368.453C1423.19 366.554 1419.91 367.016 1419.81 367.029C1419.77 367.036 1416.43 367.504 1415.3 369.805C1414.17 372.153 1414.15 374.054 1414.3 375.834C1414.46 377.613 1416.95 378.431 1418.03 378.522C1419.11 378.613 1417.22 383.113 1416.72 384.741C1416.21 386.321 1415.16 391.287 1415.66 394.137C1416.13 396.796 1417.85 397.625 1418.43 399.297C1418.42 399.93 1418.41 400.564 1418.4 401.198C1417.84 404.1 1415.57 409.383 1415.2 411.917C1414.76 415.044 1415.87 417.712 1417.02 419.01C1417.66 419.748 1418.31 420.24 1418.74 420.568C1418.73 420.814 1418.76 421.052 1418.76 421.345C1416.84 422.54 1410.89 426.539 1409.08 431.952C1406.93 438.387 1406.62 442.421 1407.38 447.814C1408.14 453.207 1407.9 454.992 1407.9 454.992C1407.9 454.992 1404.61 458.473 1405.3 463.389C1405.99 468.304 1412.92 478.621 1434.92 475.53C1457.2 472.399 1461.02 460.57 1460.33 455.655Z" fill="url(#paint19_linear)"/>
<path fill-rule="evenodd" clip-rule="evenodd" d="M1456.49 449.04C1457.94 450.782 1459.23 452.646 1459.53 454.841C1460.84 464.148 1449.96 473.416 1435.25 475.483C1420.54 477.55 1407.53 471.689 1406.22 462.335C1405.93 460.33 1406.46 458.212 1407.21 456.306C1405.09 459.183 1404.76 461.615 1405.13 464.288C1406.44 473.594 1420.07 479.417 1435.59 477.235C1451.11 475.054 1462.62 465.747 1461.31 456.393C1460.86 453.536 1458.9 450.696 1456.49 449.04Z" fill="#30335C"/>
<path fill-rule="evenodd" clip-rule="evenodd" d="M1419.04 420.624C1419.04 420.624 1421.49 422.811 1427.82 421.921C1434.15 421.031 1435.66 418.289 1435.66 418.289C1435.66 418.289 1435.89 422.392 1428.09 423.49C1420.28 424.587 1419.04 420.624 1419.04 420.624Z" fill="#17223C"/>
<path fill-rule="evenodd" clip-rule="evenodd" d="M1417.5 419.284C1419.63 421.709 1423.3 422.557 1427.82 421.921C1431.95 421.291 1435.1 419.828 1436.49 416.955C1436.61 416.744 1436.76 416.479 1436.88 416.268C1437.63 414.702 1437.95 411.834 1436.68 408.947C1435.62 406.614 1431.98 402.161 1430.64 399.526C1430.46 398.919 1430.28 398.312 1430.09 397.705C1430.18 395.892 1431.66 394.663 1431.33 391.983C1431.02 389.106 1428.65 384.67 1427.72 383.243C1426.8 381.864 1423.73 378.012 1424.75 377.626C1424.8 377.62 1422.78 378.146 1421.5 378.374C1419.76 378.717 1417.78 378.508 1418.18 378.55C1419.31 378.634 1417.37 383.141 1416.87 384.769C1416.36 386.349 1415.31 391.314 1415.81 394.164C1416.28 396.824 1418 397.653 1418.57 399.324C1418.57 399.958 1418.56 400.592 1418.55 401.226C1417.99 404.128 1415.72 409.41 1415.35 411.945C1414.91 415.072 1416.02 417.74 1417.17 419.038C1417.33 419.113 1417.43 419.195 1417.5 419.284Z" fill="url(#paint20_linear)"/>
<path fill-rule="evenodd" clip-rule="evenodd" d="M1418.2 378.693C1418.25 378.686 1418.3 378.727 1418.36 378.768C1419.24 378.839 1420.31 378.835 1421.44 378.626C1422.58 378.418 1423.76 378.155 1424.78 377.865C1424.82 377.811 1424.87 377.804 1424.91 377.749C1425.97 377.357 1428.14 375.836 1427.84 374.029C1427.49 372.229 1426.93 370.36 1425.15 368.42C1423.42 366.473 1420.04 366.948 1419.95 366.961V366.961V366.961V366.961V366.961C1419.9 366.968 1416.52 367.443 1415.35 369.798C1414.23 372.194 1414.16 374.102 1414.32 375.929C1414.57 377.743 1417.07 378.608 1418.2 378.693Z" fill="url(#paint21_linear)"/>
<path fill-rule="evenodd" clip-rule="evenodd" d="M1420.78 394.293C1420.78 394.293 1419.11 391.754 1416.07 391.207C1413.08 390.654 1410.44 392.535 1409.65 394.203C1408.87 395.871 1407.06 399.921 1405.63 401.532C1404.21 403.144 1402.94 404.49 1402.94 404.49C1402.94 404.49 1400.6 404.089 1398.28 405.194C1395.87 406.359 1392.99 408.662 1391.46 411.603C1390.01 414.386 1389.2 416.204 1388.23 416.924C1387.26 417.644 1386.81 417.513 1386.16 417.068C1385.52 416.624 1385.11 416.486 1384.64 416.601C1384.03 416.736 1379.47 419.859 1382.18 423.614C1384.9 427.418 1389.58 424.084 1389.75 422.891C1389.89 421.849 1389.39 421.336 1389.53 420.635C1389.67 419.933 1390.23 419.369 1391.38 418.963C1392.55 418.605 1395.76 417.959 1397.65 417.255C1399.72 416.477 1403.19 414.237 1404.81 411.576C1405.99 409.61 1405.88 408.505 1405.88 408.505C1405.88 408.505 1407.86 407.011 1409.48 406.491C1411.85 405.72 1417.36 404.848 1419.59 403.464C1421.68 402.099 1423.26 397.742 1420.78 394.293Z" fill="url(#paint22_linear)"/>
<path fill-rule="evenodd" clip-rule="evenodd" d="M1426.87 393.437C1426.87 393.437 1427.78 390.536 1430.55 389.173C1433.27 387.817 1436.33 388.895 1437.55 390.282C1438.76 391.669 1441.62 395.064 1443.43 396.22C1445.2 397.384 1446.83 398.322 1446.83 398.322C1446.83 398.322 1448.97 397.291 1451.5 397.714C1454.14 398.17 1457.55 399.59 1459.83 401.995C1461.99 404.27 1463.27 405.794 1464.4 406.219C1465.53 406.645 1465.93 406.393 1466.43 405.788C1466.92 405.183 1467.28 404.938 1467.76 404.919C1468.39 404.88 1473.63 406.625 1472.06 410.983C1470.49 415.388 1465.08 413.472 1464.59 412.374C1464.16 411.412 1464.51 410.779 1464.17 410.144C1463.84 409.509 1463.16 409.119 1461.93 409.048C1460.72 409.024 1457.45 409.288 1455.44 409.133C1453.23 408.957 1449.28 407.761 1446.99 405.649C1445.31 404.083 1445.11 402.992 1445.11 402.992C1445.11 402.992 1442.8 402.1 1441.09 402.048C1438.61 401.96 1433.07 402.64 1430.54 401.925C1428.21 401.183 1425.45 397.434 1426.87 393.437Z" fill="url(#paint23_linear)"/>
<path fill-rule="evenodd" clip-rule="evenodd" d="M1416.73 391.359C1416.73 391.359 1419.35 390.65 1421.12 393.272C1422.86 395.948 1421.86 397.499 1421.86 397.499C1421.86 397.499 1421.36 395.283 1420.62 394.17C1419.19 391.938 1416.73 391.359 1416.73 391.359Z" fill="#17223C"/>
<path fill-rule="evenodd" clip-rule="evenodd" d="M1429.87 389.512C1429.87 389.512 1427.15 389.553 1426.17 392.563C1425.24 395.614 1426.62 396.83 1426.62 396.83C1426.62 396.83 1426.5 394.561 1426.9 393.287C1427.66 390.747 1429.87 389.512 1429.87 389.512Z" fill="#17223C"/>
<path fill-rule="evenodd" clip-rule="evenodd" d="M1418.5 378.748C1418.5 378.748 1419.25 378.934 1421.58 378.559C1423.86 378.19 1424.59 377.892 1424.59 377.892C1424.59 377.892 1424.58 378.866 1421.73 379.268C1418.87 379.669 1418.5 378.748 1418.5 378.748Z" fill="url(#paint24_linear)"/>
<path opacity="0.140695" fill-rule="evenodd" clip-rule="evenodd" d="M1610.38 478.417C1610.38 478.417 1604.62 476.841 1600.93 480.621C1597.24 484.4 1605.3 488.572 1611.52 485.167C1617.74 481.762 1610.38 478.417 1610.38 478.417Z" fill="url(#paint25_linear)"/>
<path fill-rule="evenodd" clip-rule="evenodd" d="M1611 485.629C1614 485.208 1616.09 482.431 1615.66 479.426C1615.24 476.421 1612.47 474.326 1609.47 474.748C1606.48 475.169 1604.39 477.946 1604.81 480.951C1605.23 483.956 1608 486.05 1611 485.629Z" fill="url(#paint26_linear)"/>
<g filter="url(#filter2_f)">
<path fill-rule="evenodd" clip-rule="evenodd" d="M1284.5 251C1324.54 251 1357 218.541 1357 178.5C1357 138.459 1324.54 106 1284.5 106C1244.46 106 1212 138.459 1212 178.5C1212 218.541 1244.46 251 1284.5 251Z" fill="#1F30C9"/>
</g>
<path fill-rule="evenodd" clip-rule="evenodd" d="M1322.1 63.1186C1341.23 85.6813 1332.42 128.356 1299.38 165.099C1266.1 201.79 1224.02 214.989 1199.53 198.061C1204.96 203.122 1212.41 209.656 1215.67 212.693C1240.98 235.528 1287.17 228.673 1324.2 187.829C1360.98 146.931 1365.94 96.6655 1337.49 77.5916L1322.1 63.1186Z" fill="#EEEEEE"/>
<g opacity="0.8">
<path fill-rule="evenodd" clip-rule="evenodd" d="M1287.47 216.233L1263.05 194.108C1250.09 201.252 1237.07 204.998 1225.39 204.861L1247.65 224.961C1259.91 226.005 1273.77 223.219 1287.47 216.233Z" fill="url(#paint27_linear)"/>
<path fill-rule="evenodd" clip-rule="evenodd" d="M1209.01 202.42C1205.88 201.234 1202.8 199.798 1199.83 197.865C1205.26 202.926 1212.71 209.46 1215.97 212.496C1219.86 216.19 1224.47 218.993 1229.48 221.1L1209.01 202.42Z" fill="url(#paint28_linear)"/>
<path fill-rule="evenodd" clip-rule="evenodd" d="M1325.92 185.85C1337.56 172.693 1345.77 158.547 1350.78 144.763L1326.11 122.585C1320.9 136.067 1312.49 149.911 1300.8 163.317L1325.92 185.85Z" fill="url(#paint29_linear)"/>
<path fill-rule="evenodd" clip-rule="evenodd" d="M1355.58 107.488C1354.9 102.133 1353.36 97.1177 1350.98 92.4421L1327.39 71.2764C1329.58 75.6499 1330.87 80.6124 1331.6 85.7183L1355.58 107.488Z" fill="url(#paint30_linear)"/>
</g>
<path fill-rule="evenodd" clip-rule="evenodd" d="M1316.82 58.609C1343.24 76.2098 1337.11 124.663 1300.33 165.56C1263.6 206.208 1215.65 217.64 1195.6 193.317C1177.16 171.163 1188.38 126.917 1219.29 92.8474C1249.95 58.7247 1292.86 42.8362 1316.82 58.609Z" fill="white"/>
<path fill-rule="evenodd" clip-rule="evenodd" d="M1315.15 60.3386L1298.51 78.6838C1293.12 74.6727 1286.15 73.1918 1278.71 73.954L1286.98 54.6111C1276.34 55.7357 1264.56 59.7455 1253.25 66.4594L1254.35 82.0642C1246.12 86.5653 1238 92.9168 1230.62 100.726L1221 92.1677C1220.64 92.6134 1220.29 93.059 1219.68 93.4517C1210.17 103.935 1202.55 115.339 1197.27 126.721L1212.99 126.156C1208.69 135.401 1206.48 144.57 1206.33 152.614L1188.04 162.795C1187.75 173.935 1190.57 183.913 1196.77 191.482L1213.41 173.137V173.137C1218.23 178.59 1225.24 181.121 1233.27 181.265L1223.81 203.743C1235.43 204.129 1248.65 200.686 1262.35 193.7L1260.91 173.594C1269.7 168.949 1278.22 161.903 1286.31 153.202C1286.66 152.756 1287.32 152.115 1287.67 151.669L1300.61 163.015C1312.25 149.858 1320.45 135.712 1325.41 122.177L1305.24 122.84C1308.86 113.187 1310.02 104.056 1308.82 96.2457L1330.07 84.3511C1328.1 74.0334 1323.12 65.6792 1315.15 60.3386Z" fill="url(#paint31_linear)"/>
<path fill-rule="evenodd" clip-rule="evenodd" d="M1295.72 81.9994C1311.89 94.0328 1307.06 125.31 1283.94 150.876C1260.77 176.69 1230.18 184.777 1216.44 169.874C1203.54 155.93 1210.54 126.677 1231.28 103.732C1251.78 80.7347 1280.44 70.6761 1295.72 81.9994Z" stroke="white" stroke-width="1.39666" stroke-dasharray="8.29 8.29"/>
<path fill-rule="evenodd" clip-rule="evenodd" d="M1292.99 85.0658C1308.02 96.3362 1303.42 125.317 1281.97 149.153C1260.52 172.989 1232.13 180.502 1219.43 166.861C1207.36 153.876 1213.69 126.564 1233.06 105.153C1252.19 83.688 1278.85 74.5054 1292.99 85.0658Z" fill="white"/>
<path fill-rule="evenodd" clip-rule="evenodd" d="M1274.85 143.595C1289.64 125.52 1293.49 103.875 1282.89 95.1066C1272.28 86.3324 1251.88 94.302 1237.08 112.381C1222.28 130.457 1218.43 152.102 1229.04 160.87C1239.65 169.644 1260.05 161.675 1274.85 143.595ZM1272.53 141.695C1258.64 158.659 1239.91 165.973 1230.95 158.558C1221.97 151.137 1225.51 131.249 1239.4 114.281C1253.28 97.3174 1272.01 90.0031 1280.98 97.4186C1289.95 104.84 1286.42 124.728 1272.53 141.695Z" fill="#F5A623"/>
<path d="M1268.81 111.1L1247.94 144.377L1242.86 141.189L1263.73 107.913L1268.81 111.1Z" fill="#F5A623"/>
<g filter="url(#filter3_f)">
<path fill-rule="evenodd" clip-rule="evenodd" d="M1514.5 311C1554.54 311 1587 278.541 1587 238.5C1587 198.459 1554.54 166 1514.5 166C1474.46 166 1442 198.459 1442 238.5C1442 278.541 1474.46 311 1514.5 311Z" fill="#1F30C9"/>
</g>
<path fill-rule="evenodd" clip-rule="evenodd" d="M1563.31 272.097C1540.16 279.736 1510.24 259.807 1492.33 223.204C1474.53 186.427 1477.42 150.198 1497.92 136.722C1492.37 139.303 1485.07 142.977 1481.75 144.525C1456.48 156.804 1447.47 194.213 1467.29 235.136C1487.22 275.884 1524.14 295.22 1547.5 279.378L1563.31 272.097Z" fill="#EEEEEE"/>
<g opacity="0.8">
<path fill-rule="evenodd" clip-rule="evenodd" d="M1456.89 198.292L1481.35 186.473C1479.88 174.361 1481.03 163.256 1484.74 154.379L1462.5 165.166C1457.92 174.211 1455.78 185.659 1456.89 198.292Z" fill="url(#paint32_linear)"/>
<path fill-rule="evenodd" clip-rule="evenodd" d="M1491.66 142.614C1493.53 140.591 1495.58 138.685 1497.97 137.014C1492.43 139.594 1485.13 143.268 1481.81 144.816C1477.78 146.651 1474.21 149.303 1471.06 152.482L1491.66 142.614Z" fill="url(#paint33_linear)"/>
<path fill-rule="evenodd" clip-rule="evenodd" d="M1468.27 237.062C1474.74 250.023 1483.03 260.669 1492.03 268.76L1516.6 256.767C1507.89 248.62 1499.9 237.918 1493.25 224.839L1468.27 237.062Z" fill="url(#paint34_linear)"/>
<path fill-rule="evenodd" clip-rule="evenodd" d="M1519.05 283.956C1523.36 285.091 1527.67 285.469 1531.98 285.091L1555.44 273.614C1551.42 273.936 1547.23 273.384 1543.1 272.366L1519.05 283.956Z" fill="url(#paint35_linear)"/>
</g>
<path fill-rule="evenodd" clip-rule="evenodd" d="M1568.39 269.455C1546.78 284.203 1511.62 264.53 1491.68 223.781C1471.92 183.151 1477.97 142.987 1502.76 135.184C1525.39 127.949 1555.76 150.208 1572.29 184.358C1588.93 218.335 1587.84 256.031 1568.39 269.455Z" fill="white"/>
<path fill-rule="evenodd" clip-rule="evenodd" d="M1567.58 267.646L1558.69 249.257C1563.42 246.38 1566.7 241.515 1568.41 235.592L1580.65 247.894C1583.08 239.416 1583.64 229.179 1581.99 218.462L1569.72 214.48C1568.82 206.794 1566.46 198.632 1562.77 190.577L1572.28 185.871C1572.05 185.462 1571.82 185.053 1571.7 184.471C1566.62 173.963 1560.25 164.61 1553.17 157.056L1548.76 169.245C1543.01 163.096 1536.68 158.573 1530.58 155.971L1528.43 138.85C1520 135.185 1511.5 134.255 1503.8 136.646L1512.7 155.035V155.035C1507.04 157.033 1502.94 161.601 1500.35 167.693L1486.08 153.515C1482.2 162.274 1480.76 173.436 1481.87 186.069L1497.7 191.181C1498.54 199.333 1501.3 208.021 1505.46 216.893C1505.69 217.302 1505.98 218.002 1506.21 218.411L1493.54 224.783C1500.02 237.744 1508.3 248.39 1517.13 256.363L1522.84 240.751C1529.11 246.495 1535.73 250.206 1542.08 251.704L1544.62 271.62C1553.12 273.307 1561.04 272.081 1567.58 267.646Z" fill="url(#paint36_linear)"/>
<path fill-rule="evenodd" clip-rule="evenodd" d="M1557.01 246.104C1542.82 254.735 1520.39 241.374 1507.97 215.805C1495.37 190.118 1498.62 164.248 1514.26 158.362C1528.9 152.818 1549.11 167.211 1560.26 190.153C1571.53 212.922 1570.38 237.933 1557.01 246.104Z" stroke="white" stroke-width="1.15427" stroke-dasharray="6.85 6.85"/>
<path fill-rule="evenodd" clip-rule="evenodd" d="M1555.51 243.068C1542.25 251.065 1521.51 238.589 1509.89 214.829C1498.28 191.069 1501.29 167.059 1515.64 161.571C1529.29 156.37 1548.23 169.648 1558.63 191.073C1569.15 212.323 1567.95 235.531 1555.51 243.068Z" fill="white"/>
<path d="M1551.76 191.866C1560.77 208.342 1560.59 225.75 1551.36 230.747C1542.13 235.745 1527.35 226.44 1518.34 209.963C1509.34 193.487 1509.51 176.079 1518.74 171.082C1527.97 166.084 1542.75 175.39 1551.76 191.866Z" stroke="#D0021B" stroke-width="3"/>
<path d="M1546.04 214.104L1527.06 187.855" stroke="#D0021B" stroke-width="6" stroke-linejoin="round"/>
<g filter="url(#filter4_f)">
<path fill-rule="evenodd" clip-rule="evenodd" d="M1374.5 354C1414.54 354 1447 321.541 1447 281.5C1447 241.459 1414.54 209 1374.5 209C1334.46 209 1302 241.459 1302 281.5C1302 321.541 1334.46 354 1374.5 354Z" fill="#1F30C9"/>
</g>
<path fill-rule="evenodd" clip-rule="evenodd" d="M1427.06 300.127C1419.67 315.427 1395.2 320.779 1368.17 312.046C1341.12 303.17 1324.36 284.197 1327.53 267.404C1326.14 271.431 1324.45 276.865 1323.61 279.281C1317.53 297.886 1331.92 320.497 1362.03 330.366C1392.11 340.091 1419.68 330.948 1423.05 311.575L1427.06 300.127Z" fill="#EEEEEE"/>
<g opacity="0.8">
<path fill-rule="evenodd" clip-rule="evenodd" d="M1338.53 317.75L1344.45 299.777C1337.66 294.651 1332.65 288.701 1330 282.55L1324.64 298.912C1326.96 305.584 1331.66 312.196 1338.53 317.75Z" fill="url(#paint37_linear)"/>
<path fill-rule="evenodd" clip-rule="evenodd" d="M1327.45 273.39C1327.35 271.473 1327.38 269.525 1327.7 267.516C1326.31 271.543 1324.62 276.977 1323.79 279.393C1322.76 282.299 1322.36 285.368 1322.42 288.488L1327.45 273.39Z" fill="url(#paint38_linear)"/>
<path fill-rule="evenodd" clip-rule="evenodd" d="M1363.47 330.805C1373.11 333.833 1382.45 334.83 1390.87 334.236L1396.75 316.12C1388.45 316.541 1379.22 315.37 1369.44 312.373L1363.47 330.805Z" fill="url(#paint39_linear)"/>
<path fill-rule="evenodd" clip-rule="evenodd" d="M1411.57 328.045C1414.22 326.436 1416.5 324.46 1418.4 322.116L1424.01 304.805C1422.22 306.976 1419.91 308.809 1417.4 310.387L1411.57 328.045Z" fill="url(#paint40_linear)"/>
</g>
<path fill-rule="evenodd" clip-rule="evenodd" d="M1428.19 296.304C1425.12 314.27 1398.23 322.373 1368.15 312.647C1338.22 302.892 1321.01 280.431 1329.1 264.234C1336.43 249.393 1362.3 244.939 1387.42 253.181C1412.51 261.281 1430.88 280.061 1428.19 296.304Z" fill="white"/>
<path fill-rule="evenodd" clip-rule="evenodd" d="M1426.89 295.834L1413.37 291.396C1414.22 287.633 1413.37 283.635 1411.23 279.911L1423.32 279.728C1420.24 274.412 1415.38 269.176 1409.22 264.816L1401.28 269.041C1396.99 265.774 1391.75 263.006 1385.93 260.961L1388.17 253.916C1387.86 253.834 1387.54 253.753 1387.19 253.528C1379.46 250.992 1371.69 249.659 1364.48 249.551L1368.45 257.661C1362.59 257.564 1357.25 258.549 1352.99 260.35L1343.37 253.141C1337.45 255.594 1332.87 259.403 1330.34 264.418L1343.87 268.857V268.857C1342.13 272.659 1342.43 276.922 1344.23 281.166L1330.22 281.459C1332.73 287.641 1337.63 293.764 1344.5 299.318L1354.72 293.861C1359.22 297.383 1364.91 300.203 1371.37 302.412C1371.69 302.494 1372.18 302.688 1372.49 302.77L1369.56 312.2C1379.19 315.227 1388.54 316.225 1396.8 315.661L1391.74 305.245C1397.66 304.883 1402.73 303.358 1406.55 300.904L1417.76 309.266C1422.73 305.824 1425.95 301.258 1426.89 295.834Z" fill="url(#paint41_linear)"/>
<path fill-rule="evenodd" clip-rule="evenodd" d="M1410.97 290.71C1408.43 301.997 1390.87 306.774 1372.04 300.628C1353.06 294.512 1341.67 280.368 1346.29 269.685C1350.6 259.664 1367.6 256.498 1384.5 262.01C1401.37 267.379 1413.35 280.056 1410.97 290.71Z" stroke="white" stroke-width="0.807986" stroke-dasharray="4.8 4.8"/>
<path fill-rule="evenodd" clip-rule="evenodd" d="M1408.73 289.994C1406.32 300.506 1390.02 304.866 1372.48 299.19C1354.95 293.515 1344.37 280.391 1348.57 270.543C1352.57 261.186 1368.4 258.12 1384.17 263.274C1399.92 268.285 1410.97 280.115 1408.73 289.994Z" fill="white"/>
<path fill-rule="evenodd" clip-rule="evenodd" d="M1373.68 293.925C1386.9 298.567 1399.86 296.408 1402.59 288.712C1405.32 281.012 1396.6 271.236 1383.38 266.594C1370.16 261.953 1357.21 264.112 1354.47 271.808C1351.74 279.508 1360.46 289.283 1373.68 293.925ZM1374.35 292.038C1362.03 287.714 1354.1 278.829 1356.36 272.477C1358.62 266.121 1370.4 264.157 1382.72 268.481C1395.03 272.805 1402.96 281.69 1400.71 288.043C1398.45 294.399 1386.66 296.363 1374.35 292.038Z" fill="#405CD2"/>
<path d="M1389.99 285.409L1367.92 280.66L1368.76 276.75L1390.83 281.499L1389.99 285.409Z" fill="#405CD2"/>
<g filter="url(#filter5_f)">
<path fill-rule="evenodd" clip-rule="evenodd" d="M1480.5 432C1520.54 432 1553 399.541 1553 359.5C1553 319.459 1520.54 287 1480.5 287C1440.46 287 1408 319.459 1408 359.5C1408 399.541 1440.46 432 1480.5 432Z" fill="#1F30C9"/>
</g>
<path fill-rule="evenodd" clip-rule="evenodd" d="M1499.48 334.493C1509.06 342.17 1508.85 360.252 1498.3 377.837C1487.65 395.419 1471.57 404.129 1460.25 399.172C1462.86 400.804 1466.42 402.875 1467.98 403.855C1480.1 411.152 1498.36 404.702 1510.21 385.131C1521.94 365.557 1519.99 344.687 1506.89 339.171L1499.48 334.493Z" fill="#EEEEEE"/>
<g opacity="0.8">
<path fill-rule="evenodd" clip-rule="evenodd" d="M1497.5 399.61L1485.8 392.531C1481.09 396.468 1476.09 399.025 1471.32 399.894L1481.98 406.32C1487.05 405.774 1492.47 403.542 1497.5 399.61Z" fill="url(#paint42_linear)"/>
<path fill-rule="evenodd" clip-rule="evenodd" d="M1464.46 400.197C1463.09 399.962 1461.72 399.62 1460.36 399.068C1462.97 400.7 1466.52 402.771 1468.09 403.751C1469.97 404.947 1472.07 405.724 1474.27 406.185L1464.46 400.197Z" fill="url(#paint43_linear)"/>
<path fill-rule="evenodd" clip-rule="evenodd" d="M1510.75 384.188C1514.45 377.907 1516.67 371.494 1517.62 365.482L1505.82 358.401C1504.76 364.306 1502.44 370.611 1498.74 376.998L1510.75 384.188Z" fill="url(#paint44_linear)"/>
<path fill-rule="evenodd" clip-rule="evenodd" d="M1516.62 349.917C1515.92 347.789 1514.9 345.868 1513.56 344.152L1502.28 337.398C1503.52 339.006 1504.43 340.926 1505.14 342.948L1516.62 349.917Z" fill="url(#paint45_linear)"/>
</g>
<path fill-rule="evenodd" clip-rule="evenodd" d="M1496.97 333.075C1509.13 338.152 1510.46 358.376 1498.72 377.95C1486.98 397.417 1468.37 405.871 1458.28 397.551C1449.02 389.986 1450.09 371.072 1459.98 354.745C1469.76 338.417 1485.97 328.546 1496.97 333.075Z" fill="white"/>
<path fill-rule="evenodd" clip-rule="evenodd" d="M1496.43 333.911L1491.11 342.703C1488.59 341.495 1485.64 341.444 1482.67 342.344L1484.51 333.809C1480.26 335.11 1475.79 337.676 1471.71 341.306L1473.4 347.576C1470.4 350.062 1467.6 353.292 1465.21 357.058L1460.62 354.333C1460.51 354.543 1460.4 354.753 1460.18 354.961C1457.14 359.984 1454.94 365.234 1453.69 370.289L1460.05 368.813C1459.02 372.92 1458.85 376.831 1459.43 380.119L1452.79 385.715C1453.55 390.276 1455.49 394.118 1458.61 396.71L1463.93 387.919V387.919C1466.33 389.759 1469.38 390.235 1472.66 389.658L1470.59 399.564C1475.35 398.801 1480.46 396.351 1485.49 392.42L1483.31 384.344C1486.52 381.756 1489.43 378.211 1492.04 374.025C1492.15 373.816 1492.36 373.502 1492.47 373.293L1498.64 376.891C1502.33 370.609 1504.56 364.196 1505.5 358.29L1497.34 360.157C1498.05 355.939 1497.8 352.127 1496.69 349.04L1504.41 342.512C1502.79 338.464 1500.1 335.456 1496.43 333.911Z" fill="url(#paint46_linear)"/>
<path fill-rule="evenodd" clip-rule="evenodd" d="M1490.23 344.274C1497.77 347.896 1498.28 361.02 1490.89 373.265C1483.5 385.616 1471.68 391.333 1464.91 386.35C1458.55 381.691 1459.09 369.22 1465.72 358.23C1472.24 347.239 1483.12 340.871 1490.23 344.274Z" stroke="white" stroke-width="0.577133" stroke-dasharray="3.43 3.43"/>
<path fill-rule="evenodd" clip-rule="evenodd" d="M1489.36 345.739C1496.38 349.141 1496.8 361.311 1489.95 372.72C1483.1 384.129 1472.14 389.437 1465.89 384.886C1459.95 380.552 1460.36 368.925 1466.56 358.668C1472.64 348.409 1482.77 342.557 1489.36 345.739Z" fill="white"/>
<path d="M1469.64 360.946C1474.36 352.195 1482.11 347.242 1486.96 349.884C1491.81 352.526 1491.92 361.762 1487.2 370.513C1482.49 379.265 1474.73 384.218 1469.88 381.576C1465.03 378.934 1464.93 369.698 1469.64 360.946Z" stroke="#F99E3C" stroke-width="1.5"/>
<path d="M1481.42 356.814L1475.55 372.019" stroke="#F99E3C" stroke-width="3" stroke-linejoin="round"/>
<g filter="url(#filter6_f)">
<path fill-rule="evenodd" clip-rule="evenodd" d="M1113.5 756C1136.42 756 1155 737.42 1155 714.5C1155 691.58 1136.42 673 1113.5 673C1090.58 673 1072 691.58 1072 714.5C1072 737.42 1090.58 756 1113.5 756Z" fill="#1F30C9"/>
</g>
<path fill-rule="evenodd" clip-rule="evenodd" d="M1140.79 720.75C1136.56 727.781 1124.5 729.334 1111.8 724.026C1099.1 718.649 1091.8 708.856 1094.06 700.935C1093.21 702.808 1092.16 705.344 1091.65 706.468C1087.92 715.138 1093.91 726.577 1108.05 732.557C1122.18 738.466 1135.9 735.224 1138.36 726.074L1140.79 720.75Z" fill="#EEEEEE"/>
<g opacity="0.8">
<path fill-rule="evenodd" clip-rule="evenodd" d="M1097.22 725.533L1100.85 717.159C1097.79 714.421 1095.62 711.36 1094.6 708.3L1091.31 715.924C1092.14 719.22 1094.13 722.585 1097.22 725.533Z" fill="url(#paint47_linear)"/>
<path fill-rule="evenodd" clip-rule="evenodd" d="M1093.76 703.802C1093.79 702.878 1093.89 701.946 1094.14 700.996C1093.29 702.869 1092.24 705.405 1091.73 706.529C1091.11 707.879 1090.79 709.335 1090.68 710.834L1093.76 703.802Z" fill="url(#paint48_linear)"/>
<path fill-rule="evenodd" clip-rule="evenodd" d="M1108.73 732.827C1113.25 734.678 1117.73 735.544 1121.83 735.607L1125.45 727.164C1121.42 727.022 1117 726.078 1112.4 724.236L1108.73 732.827Z" fill="url(#paint49_linear)"/>
<path fill-rule="evenodd" clip-rule="evenodd" d="M1132.1 733.496C1133.46 732.834 1134.64 731.981 1135.66 730.936L1139.11 722.867C1138.16 723.834 1136.96 724.617 1135.68 725.27L1132.1 733.496Z" fill="url(#paint50_linear)"/>
</g>
<path fill-rule="evenodd" clip-rule="evenodd" d="M1141.5 718.964C1139.25 727.452 1125.9 730.223 1111.77 724.314C1097.71 718.395 1090.35 706.911 1094.95 699.48C1099.13 692.666 1111.83 691.602 1123.63 696.596C1135.42 701.519 1143.5 711.286 1141.5 718.964Z" fill="white"/>
<path fill-rule="evenodd" clip-rule="evenodd" d="M1140.89 718.684L1134.54 715.996C1135.11 714.227 1134.87 712.274 1134 710.4L1139.86 710.813C1138.6 708.136 1136.47 705.424 1133.67 703.078L1129.65 704.775C1127.72 703.031 1125.31 701.486 1122.58 700.264L1123.96 696.979C1123.81 696.927 1123.66 696.874 1123.51 696.752C1119.88 695.216 1116.17 694.255 1112.69 693.904L1114.26 697.958C1111.43 697.668 1108.81 697.92 1106.67 698.607L1102.33 694.751C1099.36 695.682 1096.98 697.319 1095.54 699.619L1101.9 702.308V702.308C1100.89 704.059 1100.86 706.116 1101.55 708.226L1094.75 707.786C1095.7 710.855 1097.81 713.994 1100.9 716.942L1106.08 714.748C1108.1 716.624 1110.73 718.212 1113.76 719.539C1113.91 719.591 1114.14 719.704 1114.29 719.757L1112.46 724.157C1116.99 726.008 1121.47 726.874 1125.49 726.946L1123.49 721.741C1126.37 721.813 1128.89 721.291 1130.84 720.273L1135.9 724.747C1138.45 723.302 1140.21 721.246 1140.89 718.684Z" fill="url(#paint51_linear)"/>
<path fill-rule="evenodd" clip-rule="evenodd" d="M1133.42 715.568C1131.7 720.875 1123 722.438 1114.16 718.711C1105.24 714.992 1100.34 707.737 1103.03 702.806C1105.55 698.179 1113.9 697.365 1121.84 700.708C1129.77 703.982 1135.02 710.557 1133.42 715.568Z" stroke="white" stroke-width="0.55" stroke-dasharray="2.11 2.11"/>
<path fill-rule="evenodd" clip-rule="evenodd" d="M1132.36 715.131C1130.74 720.072 1122.67 721.488 1114.44 718.04C1106.2 714.592 1101.65 707.86 1104.1 703.312C1106.43 698.99 1114.22 698.176 1121.63 701.301C1129.03 704.356 1133.87 710.487 1132.36 715.131Z" fill="white"/>
<path fill-rule="evenodd" clip-rule="evenodd" d="M1114.83 715.966C1120.93 718.754 1127.26 718.202 1128.96 714.448C1130.66 710.697 1126.91 705.546 1120.81 702.758C1114.7 699.97 1108.37 700.522 1106.67 704.275C1104.98 708.026 1108.72 713.178 1114.83 715.966ZM1115.45 714.601C1110 712.112 1106.78 707.684 1108.04 704.894C1109.3 702.107 1114.74 701.634 1120.19 704.123C1125.64 706.612 1128.86 711.04 1127.59 713.83C1126.33 716.617 1120.9 717.09 1115.45 714.601Z" fill="#405CD2"/>
<path d="M1123.46 712.23L1113.03 708.965L1113.62 707.056L1124.06 710.321L1123.46 712.23Z" fill="#405CD2"/>
<g opacity="0.5" filter="url(#filter7_f)">
<path fill-rule="evenodd" clip-rule="evenodd" d="M1206 50C1213.73 50 1220 43.732 1220 36C1220 28.268 1213.73 22 1206 22C1198.27 22 1192 28.268 1192 36C1192 43.732 1198.27 50 1206 50Z" fill="#5CC6FF"/>
</g>
<g filter="url(#filter8_f)">
<path fill-rule="evenodd" clip-rule="evenodd" d="M204 737C211.732 737 218 730.732 218 723C218 715.268 211.732 709 204 709C196.268 709 190 715.268 190 723C190 730.732 196.268 737 204 737Z" fill="#224AFA"/>
<path d="M217.5 723C217.5 730.456 211.456 736.5 204 736.5C196.544 736.5 190.5 730.456 190.5 723C190.5 715.544 196.544 709.5 204 709.5C211.456 709.5 217.5 715.544 217.5 723Z" stroke="#224AFA"/>
</g>
<g filter="url(#filter9_f)">
<path fill-rule="evenodd" clip-rule="evenodd" d="M154.5 426C181.286 426 203 404.286 203 377.5C203 350.714 181.286 329 154.5 329C127.714 329 106 350.714 106 377.5C106 404.286 127.714 426 154.5 426Z" fill="#1F30C9"/>
</g>
<path fill-rule="evenodd" clip-rule="evenodd" d="M175.289 326.678C188.583 338.233 188.05 364.614 173.067 389.89C157.936 415.159 135.314 427.278 119.555 419.629C123.185 422.107 128.127 425.26 130.304 426.747C147.157 437.842 172.794 429.099 189.624 400.971C206.306 372.837 203.844 342.308 185.595 333.776L175.289 326.678Z" fill="#EEEEEE"/>
<g opacity="0.8">
<path fill-rule="evenodd" clip-rule="evenodd" d="M171.657 421.636L155.387 410.876C148.743 416.449 141.707 419.996 135.03 421.089L149.848 430.858C156.956 430.248 164.57 427.189 171.657 421.636Z" fill="url(#paint52_linear)"/>
<path fill-rule="evenodd" clip-rule="evenodd" d="M125.422 421.28C123.511 420.886 121.605 420.338 119.706 419.482C123.336 421.959 128.278 425.113 130.456 426.599C133.068 428.414 135.992 429.625 139.075 430.379L125.422 421.28Z" fill="url(#paint53_linear)"/>
<path fill-rule="evenodd" clip-rule="evenodd" d="M190.398 399.616C195.654 390.585 198.848 381.307 200.256 372.568L183.838 361.802C182.287 370.38 178.949 379.496 173.689 388.682L190.398 399.616Z" fill="url(#paint54_linear)"/>
<path fill-rule="evenodd" clip-rule="evenodd" d="M199.07 349.817C198.116 346.686 196.712 343.844 194.857 341.291L179.166 331.02C180.877 333.412 182.133 336.247 183.091 339.224L199.07 349.817Z" fill="url(#paint55_linear)"/>
</g>
<path fill-rule="evenodd" clip-rule="evenodd" d="M171.798 324.516C188.734 332.372 190.335 361.936 173.653 390.07C156.975 418.05 130.819 429.704 116.81 417.191C103.954 405.811 105.7 378.248 119.75 354.784C133.652 331.313 156.466 317.504 171.798 324.516Z" fill="white"/>
<path fill-rule="evenodd" clip-rule="evenodd" d="M171.029 325.717L163.463 338.352C159.965 336.498 155.833 336.314 151.665 337.518L154.348 325.13C148.394 326.873 142.096 330.453 136.349 335.602L138.623 344.814C134.395 348.332 130.435 352.943 127.045 358.351L120.651 354.206C120.496 354.508 120.34 354.81 120.037 355.106C115.714 362.325 112.563 369.906 110.749 377.237L119.663 375.317C118.18 381.274 117.885 386.974 118.647 391.794L109.283 399.717C110.292 406.401 112.953 412.078 117.285 415.977L124.85 403.342V403.342C128.177 406.115 132.441 406.922 137.04 406.2L134.009 420.581C140.682 419.642 147.861 416.255 154.948 410.702L152.004 398.836C156.531 395.177 160.651 390.11 164.352 384.098C164.507 383.796 164.814 383.346 164.97 383.044L173.546 388.521C178.802 379.49 181.996 370.212 183.399 361.628L171.96 364.053C173.005 357.923 172.706 352.351 171.198 347.806L182.074 338.561C179.864 332.595 176.138 328.106 171.029 325.717Z" fill="url(#paint56_linear)"/>
<path fill-rule="evenodd" clip-rule="evenodd" d="M162.223 340.613C172.717 346.175 173.257 365.346 162.756 382.946C152.252 400.7 135.648 408.609 126.238 401.088C117.407 394.056 118.319 375.875 127.739 360.08C137.012 344.279 152.311 335.385 162.223 340.613Z" stroke="white" stroke-width="1.39666" stroke-dasharray="8.29 8.29"/>
<path fill-rule="evenodd" clip-rule="evenodd" d="M160.987 342.72C170.751 347.94 171.179 365.717 161.448 382.116C151.717 398.514 136.31 405.859 127.622 398.988C119.369 392.444 120.102 375.491 128.904 360.75C137.558 346.002 151.805 337.833 160.987 342.72Z" fill="white"/>
<path fill-rule="evenodd" clip-rule="evenodd" d="M156.866 379.557C163.38 367.306 163.246 353.997 156.234 349.8C149.218 345.6 138.406 352.365 131.89 364.619C125.376 376.87 125.51 390.179 132.522 394.376C139.538 398.576 150.35 391.812 156.866 379.557ZM155.334 378.651C149.219 390.15 139.295 396.36 133.365 392.81C127.429 389.257 127.306 377.027 133.422 365.525C139.537 354.026 149.461 347.817 155.392 351.366C161.327 354.919 161.45 367.149 155.334 378.651Z" fill="#F5A623"/>
<path d="M149.932 360.706L141.527 382.686L138.291 381.293L146.695 359.313L149.932 360.706Z" fill="#F5A623"/>
<path opacity="0.246954" fill-rule="evenodd" clip-rule="evenodd" d="M3.61468 954.211L465 955.172C421.722 878.036 197.455 883.419 4.17513 785.095C-3.88481 780.995 3.61468 954.211 3.61468 954.211Z" fill="#392D9B"/>
<defs>
<filter id="filter0_f" x="1150.05" y="230.282" width="58.4945" height="58.5052" filterUnits="userSpaceOnUse" color-interpolation-filters="sRGB">
<feFlood flood-opacity="0" result="BackgroundImageFix"/>
<feBlend mode="normal" in="SourceGraphic" in2="BackgroundImageFix" result="shape"/>
<feGaussianBlur stdDeviation="10.8731" result="effect1_foregroundBlur"/>
</filter>
<filter id="filter1_f" x="996.561" y="401.14" width="39.7463" height="39.7463" filterUnits="userSpaceOnUse" color-interpolation-filters="sRGB">
<feFlood flood-opacity="0" result="BackgroundImageFix"/>
<feBlend mode="normal" in="SourceGraphic" in2="BackgroundImageFix" result="shape"/>
<feGaussianBlur stdDeviation="5.43656" result="effect1_foregroundBlur"/>
</filter>
<filter id="filter2_f" x="1114.14" y="8.14185" width="340.716" height="340.716" filterUnits="userSpaceOnUse" color-interpolation-filters="sRGB">
<feFlood flood-opacity="0" result="BackgroundImageFix"/>
<feBlend mode="normal" in="SourceGraphic" in2="BackgroundImageFix" result="shape"/>
<feGaussianBlur stdDeviation="48.9291" result="effect1_foregroundBlur"/>
</filter>
<filter id="filter3_f" x="1344.14" y="68.1419" width="340.716" height="340.716" filterUnits="userSpaceOnUse" color-interpolation-filters="sRGB">
<feFlood flood-opacity="0" result="BackgroundImageFix"/>
<feBlend mode="normal" in="SourceGraphic" in2="BackgroundImageFix" result="shape"/>
<feGaussianBlur stdDeviation="48.9291" result="effect1_foregroundBlur"/>
</filter>
<filter id="filter4_f" x="1204.14" y="111.142" width="340.716" height="340.716" filterUnits="userSpaceOnUse" color-interpolation-filters="sRGB">
<feFlood flood-opacity="0" result="BackgroundImageFix"/>
<feBlend mode="normal" in="SourceGraphic" in2="BackgroundImageFix" result="shape"/>
<feGaussianBlur stdDeviation="48.9291" result="effect1_foregroundBlur"/>
</filter>
<filter id="filter5_f" x="1310.14" y="189.142" width="340.716" height="340.716" filterUnits="userSpaceOnUse" color-interpolation-filters="sRGB">
<feFlood flood-opacity="0" result="BackgroundImageFix"/>
<feBlend mode="normal" in="SourceGraphic" in2="BackgroundImageFix" result="shape"/>
<feGaussianBlur stdDeviation="48.9291" result="effect1_foregroundBlur"/>
</filter>
<filter id="filter6_f" x="974.142" y="575.142" width="278.716" height="278.716" filterUnits="userSpaceOnUse" color-interpolation-filters="sRGB">
<feFlood flood-opacity="0" result="BackgroundImageFix"/>
<feBlend mode="normal" in="SourceGraphic" in2="BackgroundImageFix" result="shape"/>
<feGaussianBlur stdDeviation="48.9291" result="effect1_foregroundBlur"/>
</filter>
<filter id="filter7_f" x="1170.25" y="0.253746" width="71.4925" height="71.4925" filterUnits="userSpaceOnUse" color-interpolation-filters="sRGB">
<feFlood flood-opacity="0" result="BackgroundImageFix"/>
<feBlend mode="normal" in="SourceGraphic" in2="BackgroundImageFix" result="shape"/>
<feGaussianBlur stdDeviation="10.8731" result="effect1_foregroundBlur"/>
</filter>
<filter id="filter8_f" x="168.254" y="687.254" width="71.4925" height="71.4925" filterUnits="userSpaceOnUse" color-interpolation-filters="sRGB">
<feFlood flood-opacity="0" result="BackgroundImageFix"/>
<feBlend mode="normal" in="SourceGraphic" in2="BackgroundImageFix" result="shape"/>
<feGaussianBlur stdDeviation="10.8731" result="effect1_foregroundBlur"/>
</filter>
<filter id="filter9_f" x="8.14185" y="231.142" width="292.716" height="292.716" filterUnits="userSpaceOnUse" color-interpolation-filters="sRGB">
<feFlood flood-opacity="0" result="BackgroundImageFix"/>
<feBlend mode="normal" in="SourceGraphic" in2="BackgroundImageFix" result="shape"/>
<feGaussianBlur stdDeviation="48.9291" result="effect1_foregroundBlur"/>
</filter>
<linearGradient id="paint0_linear" x1="1577.99" y1="493.123" x2="1514.66" y2="242.275" gradientUnits="userSpaceOnUse">
<stop stop-color="#42E8E0"/>
<stop offset="0.1055" stop-color="#37B6BF"/>
<stop offset="0.2197" stop-color="#2C87A1"/>
<stop offset="0.338" stop-color="#235F87"/>
<stop offset="0.4587" stop-color="#1C3F72"/>
<stop offset="0.5824" stop-color="#162561"/>
<stop offset="0.7105" stop-color="#121355"/>
<stop offset="0.8458" stop-color="#10084E"/>
<stop offset="1" stop-color="#0F054C"/>
</linearGradient>
<linearGradient id="paint1_linear" x1="1696.72" y1="631.893" x2="1495.92" y2="268.499" gradientUnits="userSpaceOnUse">
<stop offset="4.8e-07"/>
<stop offset="0.702"/>
</linearGradient>
<linearGradient id="paint2_linear" x1="1341.19" y1="819.937" x2="1584.64" y2="386.346" gradientUnits="userSpaceOnUse">
<stop stop-color="#61628C"/>
<stop offset="1" stop-color="#221876"/>
</linearGradient>
<linearGradient id="paint3_linear" x1="1306.14" y1="933.452" x2="1833.6" y2="502.818" gradientUnits="userSpaceOnUse">
<stop stop-color="#090A34"/>
<stop offset="1" stop-color="#221876"/>
</linearGradient>
<linearGradient id="paint4_linear" x1="1485" y1="314.607" x2="1486.17" y2="314.443" gradientUnits="userSpaceOnUse">
<stop/>
<stop offset="0.3454" stop-color="#1E1E1E"/>
<stop offset="0.6657" stop-color="#575857"/>
<stop offset="1" stop-color="#535454"/>
</linearGradient>
<linearGradient id="paint5_linear" x1="1362.49" y1="772.293" x2="1427.28" y2="491.675" gradientUnits="userSpaceOnUse">
<stop stop-color="#090A34"/>
<stop offset="1" stop-color="#221876"/>
</linearGradient>
<linearGradient id="paint6_linear" x1="981.691" y1="509.488" x2="1263.53" y2="869.407" gradientUnits="userSpaceOnUse">
<stop stop-color="#0D0C3E"/>
<stop offset="1" stop-color="#1E166C"/>
</linearGradient>
<linearGradient id="paint7_linear" x1="1397.16" y1="188.954" x2="1225.66" y2="607.272" gradientUnits="userSpaceOnUse">
<stop stop-color="#0D0C3E"/>
<stop offset="1" stop-color="#1E166C"/>
</linearGradient>
<linearGradient id="paint8_linear" x1="1467.86" y1="687" x2="1625.83" y2="301.147" gradientUnits="userSpaceOnUse">
<stop stop-color="#0D0C3E"/>
<stop offset="1" stop-color="#1E166C"/>
</linearGradient>
<linearGradient id="paint9_linear" x1="1028.88" y1="505.434" x2="1282.71" y2="829.251" gradientUnits="userSpaceOnUse">
<stop stop-color="#0D0C3E"/>
<stop offset="1" stop-color="#1E166C"/>
</linearGradient>
<linearGradient id="paint10_linear" x1="1137.8" y1="691.47" x2="1563.99" y2="529.986" gradientUnits="userSpaceOnUse">
<stop stop-color="#090A34"/>
<stop offset="1" stop-color="#221876"/>
</linearGradient>
<linearGradient id="paint11_linear" x1="1415.55" y1="566.783" x2="1505.42" y2="460.483" gradientUnits="userSpaceOnUse">
<stop stop-color="#090A34"/>
<stop offset="1" stop-color="#221876"/>
</linearGradient>
<linearGradient id="paint12_linear" x1="1433.51" y1="458.463" x2="1438.95" y2="457.256" gradientUnits="userSpaceOnUse">
<stop stop-color="#050505"/>
<stop offset="0.5363" stop-color="#6E4931"/>
<stop offset="1" stop-color="#B89069"/>
</linearGradient>
<linearGradient id="paint13_linear" x1="1335.15" y1="552.894" x2="1334.34" y2="552.486" gradientUnits="userSpaceOnUse">
<stop stop-color="#6A452E"/>
<stop offset="0.3454" stop-color="#BB8E63"/>
<stop offset="0.6657" stop-color="#E7C89F"/>
<stop offset="1" stop-color="#E0DFDF"/>
</linearGradient>
<linearGradient id="paint14_linear" x1="1332.88" y1="433.145" x2="1332.98" y2="432.26" gradientUnits="userSpaceOnUse">
<stop stop-color="#BB8E63"/>
<stop offset="0.5056" stop-color="#E7C89F"/>
<stop offset="1" stop-color="#E4D1B7"/>
</linearGradient>
<linearGradient id="paint15_linear" x1="1429.87" y1="441.438" x2="1431.15" y2="441.258" gradientUnits="userSpaceOnUse">
<stop stop-color="#BB8E63"/>
<stop offset="0.5056" stop-color="#E7C89F"/>
<stop offset="1" stop-color="#E4D1B7"/>
</linearGradient>
<linearGradient id="paint16_linear" x1="1364.84" y1="338.129" x2="1355.08" y2="433.716" gradientUnits="userSpaceOnUse">
<stop stop-color="#413F9B"/>
<stop offset="1" stop-color="#1E166C"/>
</linearGradient>
<linearGradient id="paint17_linear" x1="1412.44" y1="331.439" x2="1402.67" y2="427.026" gradientUnits="userSpaceOnUse">
<stop stop-color="#413F9B"/>
<stop offset="1" stop-color="#1E166C"/>
</linearGradient>
<linearGradient id="paint18_linear" x1="1386.04" y1="417.369" x2="1377.65" y2="543.21" gradientUnits="userSpaceOnUse">
<stop stop-color="#413F9B"/>
<stop offset="1" stop-color="#1E166C"/>
</linearGradient>
<linearGradient id="paint19_linear" x1="1415.54" y1="334.71" x2="1351.41" y2="379.381" gradientUnits="userSpaceOnUse">
<stop stop-color="#413F9B"/>
<stop offset="1" stop-color="#1E166C"/>
</linearGradient>
<linearGradient id="paint20_linear" x1="1401.14" y1="331.693" x2="1346.03" y2="437.817" gradientUnits="userSpaceOnUse">
<stop stop-color="#413F9B"/>
<stop offset="1" stop-color="#1E166C"/>
</linearGradient>
<linearGradient id="paint21_linear" x1="1409.86" y1="355.299" x2="1403.92" y2="392.075" gradientUnits="userSpaceOnUse">
<stop stop-color="#413F9B"/>
<stop offset="1" stop-color="#1E166C"/>
</linearGradient>
<linearGradient id="paint22_linear" x1="1368.33" y1="364.353" x2="1358.58" y2="460.122" gradientUnits="userSpaceOnUse">
<stop stop-color="#413F9B"/>
<stop offset="1" stop-color="#1E166C"/>
</linearGradient>
<linearGradient id="paint23_linear" x1="1416.1" y1="357.64" x2="1406.35" y2="453.407" gradientUnits="userSpaceOnUse">
<stop stop-color="#413F9B"/>
<stop offset="1" stop-color="#1E166C"/>
</linearGradient>
<linearGradient id="paint24_linear" x1="1421.53" y1="378.032" x2="1421.51" y2="379.535" gradientUnits="userSpaceOnUse">
<stop stop-color="#0D0C3E"/>
<stop offset="1" stop-color="#1E166C"/>
</linearGradient>
<linearGradient id="paint25_linear" x1="1616.83" y1="479.039" x2="1606.47" y2="471.925" gradientUnits="userSpaceOnUse">
<stop offset="4.8e-07"/>
<stop offset="1"/>
</linearGradient>
<linearGradient id="paint26_linear" x1="1614.9" y1="473.985" x2="1604.05" y2="475.51" gradientUnits="userSpaceOnUse">
<stop stop-color="#F8A440"/>
<stop offset="1" stop-color="#1D1C1C"/>
</linearGradient>
<linearGradient id="paint27_linear" x1="1229.21" y1="186.915" x2="1222.27" y2="219.567" gradientUnits="userSpaceOnUse">
<stop stop-color="#FAD961"/>
<stop offset="1" stop-color="#F76B1C"/>
</linearGradient>
<linearGradient id="paint28_linear" x1="1199.83" y1="197.865" x2="1196.39" y2="214.066" gradientUnits="userSpaceOnUse">
<stop stop-color="#FAD961"/>
<stop offset="1" stop-color="#F76B1C"/>
</linearGradient>
<linearGradient id="paint29_linear" x1="1310.18" y1="119.2" x2="1297.31" y2="179.767" gradientUnits="userSpaceOnUse">
<stop stop-color="#FAD961"/>
<stop offset="1" stop-color="#F76B1C"/>
</linearGradient>
<linearGradient id="paint30_linear" x1="1327.39" y1="71.2764" x2="1321.24" y2="100.189" gradientUnits="userSpaceOnUse">
<stop stop-color="#FAD961"/>
<stop offset="1" stop-color="#F76B1C"/>
</linearGradient>
<linearGradient id="paint31_linear" x1="1199.51" y1="3.99545" x2="1154.94" y2="213.701" gradientUnits="userSpaceOnUse">
<stop stop-color="#FAD961"/>
<stop offset="1" stop-color="#F76B1C"/>
</linearGradient>
<linearGradient id="paint32_linear" x1="1497.29" y1="162.843" x2="1474.46" y2="147.443" gradientUnits="userSpaceOnUse">
<stop stop-color="#F5515F"/>
<stop offset="1" stop-color="#9F041B"/>
</linearGradient>
<linearGradient id="paint33_linear" x1="1497.97" y1="137.014" x2="1486.64" y2="129.372" gradientUnits="userSpaceOnUse">
<stop stop-color="#F5515F"/>
<stop offset="1" stop-color="#9F041B"/>
</linearGradient>
<linearGradient id="paint34_linear" x1="1524.1" y1="245.647" x2="1481.75" y2="217.081" gradientUnits="userSpaceOnUse">
<stop stop-color="#F5515F"/>
<stop offset="1" stop-color="#9F041B"/>
</linearGradient>
<linearGradient id="paint35_linear" x1="1555.44" y1="273.614" x2="1535.23" y2="259.978" gradientUnits="userSpaceOnUse">
<stop stop-color="#F5515F"/>
<stop offset="1" stop-color="#9F041B"/>
</linearGradient>
<linearGradient id="paint36_linear" x1="1620.38" y1="215.62" x2="1520.84" y2="120.872" gradientUnits="userSpaceOnUse">
<stop stop-color="#F5515F"/>
<stop offset="1" stop-color="#9F041B"/>
</linearGradient>
<linearGradient id="paint37_linear" x1="1310.28" y1="277.538" x2="1294.23" y2="345.445" gradientUnits="userSpaceOnUse">
<stop stop-color="#3023AE"/>
<stop offset="0.475248" stop-color="#53A0FD"/>
<stop offset="1" stop-color="#B4EC51"/>
</linearGradient>
<linearGradient id="paint38_linear" x1="1312.72" y1="265.764" x2="1303.15" y2="301.359" gradientUnits="userSpaceOnUse">
<stop stop-color="#3023AE"/>
<stop offset="0.475248" stop-color="#53A0FD"/>
<stop offset="1" stop-color="#B4EC51"/>
</linearGradient>
<linearGradient id="paint39_linear" x1="1341.22" y1="311.803" x2="1342.82" y2="365.972" gradientUnits="userSpaceOnUse">
<stop stop-color="#3023AE"/>
<stop offset="0.475248" stop-color="#53A0FD"/>
<stop offset="1" stop-color="#B4EC51"/>
</linearGradient>
<linearGradient id="paint40_linear" x1="1398.02" y1="305.207" x2="1394.76" y2="346.245" gradientUnits="userSpaceOnUse">
<stop stop-color="#3023AE"/>
<stop offset="0.475248" stop-color="#53A0FD"/>
<stop offset="1" stop-color="#B4EC51"/>
</linearGradient>
<linearGradient id="paint41_linear" x1="1306.88" y1="276.155" x2="1353.09" y2="378.63" gradientUnits="userSpaceOnUse">
<stop stop-color="#3023AE"/>
<stop offset="0.475248" stop-color="#53A0FD"/>
<stop offset="1" stop-color="#B4EC51"/>
</linearGradient>
<linearGradient id="paint42_linear" x1="1471.46" y1="392.281" x2="1471.21" y2="406.132" gradientUnits="userSpaceOnUse">
<stop stop-color="#FAD961"/>
<stop offset="1" stop-color="#F76B1C"/>
</linearGradient>
<linearGradient id="paint43_linear" x1="1460.36" y1="399.068" x2="1460.24" y2="405.94" gradientUnits="userSpaceOnUse">
<stop stop-color="#FAD961"/>
<stop offset="1" stop-color="#F76B1C"/>
</linearGradient>
<linearGradient id="paint44_linear" x1="1499.07" y1="358.283" x2="1498.62" y2="383.976" gradientUnits="userSpaceOnUse">
<stop stop-color="#FAD961"/>
<stop offset="1" stop-color="#F76B1C"/>
</linearGradient>
<linearGradient id="paint45_linear" x1="1502.28" y1="337.398" x2="1502.07" y2="349.663" gradientUnits="userSpaceOnUse">
<stop stop-color="#FAD961"/>
<stop offset="1" stop-color="#F76B1C"/>
</linearGradient>
<linearGradient id="paint46_linear" x1="1453.7" y1="333.165" x2="1452.55" y2="399.249" gradientUnits="userSpaceOnUse">
<stop stop-color="#FAD961"/>
<stop offset="1" stop-color="#F76B1C"/>
</linearGradient>
<linearGradient id="paint47_linear" x1="1085.28" y1="705.079" x2="1074.83" y2="737.051" gradientUnits="userSpaceOnUse">
<stop stop-color="#3023AE"/>
<stop offset="0.475248" stop-color="#53A0FD"/>
<stop offset="1" stop-color="#B4EC51"/>
</linearGradient>
<linearGradient id="paint48_linear" x1="1086.97" y1="699.535" x2="1080.93" y2="716.251" gradientUnits="userSpaceOnUse">
<stop stop-color="#3023AE"/>
<stop offset="0.475248" stop-color="#53A0FD"/>
<stop offset="1" stop-color="#B4EC51"/>
</linearGradient>
<linearGradient id="paint49_linear" x1="1098.78" y1="722.793" x2="1097.31" y2="748.84" gradientUnits="userSpaceOnUse">
<stop stop-color="#3023AE"/>
<stop offset="0.475248" stop-color="#53A0FD"/>
<stop offset="1" stop-color="#B4EC51"/>
</linearGradient>
<linearGradient id="paint50_linear" x1="1126.53" y1="721.983" x2="1123.29" y2="741.543" gradientUnits="userSpaceOnUse">
<stop stop-color="#3023AE"/>
<stop offset="0.475248" stop-color="#53A0FD"/>
<stop offset="1" stop-color="#B4EC51"/>
</linearGradient>
<linearGradient id="paint51_linear" x1="1083.69" y1="704.276" x2="1101.46" y2="755.397" gradientUnits="userSpaceOnUse">
<stop stop-color="#3023AE"/>
<stop offset="0.475248" stop-color="#53A0FD"/>
<stop offset="1" stop-color="#B4EC51"/>
</linearGradient>
<linearGradient id="paint52_linear" x1="135.317" y1="409.984" x2="134.42" y2="430.173" gradientUnits="userSpaceOnUse">
<stop stop-color="#FAD961"/>
<stop offset="1" stop-color="#F76B1C"/>
</linearGradient>
<linearGradient id="paint53_linear" x1="119.706" y1="419.482" x2="119.261" y2="429.499" gradientUnits="userSpaceOnUse">
<stop stop-color="#FAD961"/>
<stop offset="1" stop-color="#F76B1C"/>
</linearGradient>
<linearGradient id="paint54_linear" x1="174.393" y1="361.382" x2="172.729" y2="398.831" gradientUnits="userSpaceOnUse">
<stop stop-color="#FAD961"/>
<stop offset="1" stop-color="#F76B1C"/>
</linearGradient>
<linearGradient id="paint55_linear" x1="179.166" y1="331.02" x2="178.371" y2="348.897" gradientUnits="userSpaceOnUse">
<stop stop-color="#FAD961"/>
<stop offset="1" stop-color="#F76B1C"/>
</linearGradient>
<linearGradient id="paint56_linear" x1="99.1018" y1="303.693" x2="93.3392" y2="433.353" gradientUnits="userSpaceOnUse">
<stop stop-color="#FAD961"/>
<stop offset="1" stop-color="#F76B1C"/>
</linearGradient>
</defs>
</svg>
