<svg width="110" height="129" viewBox="0 0 110 129" fill="none" xmlns="http://www.w3.org/2000/svg">
<path opacity="0.3" d="M58.1428 113.994C85.986 113.994 108.557 100.979 108.557 84.9241C108.557 68.8691 85.986 55.854 58.1428 55.854C30.2996 55.854 7.72827 68.8691 7.72827 84.9241C7.72827 100.979 30.2996 113.994 58.1428 113.994Z" fill="url(#paint0_linear)"/>
<path opacity="0.3" d="M58.1428 117.943C85.986 117.943 108.557 104.928 108.557 88.8728C108.557 72.8178 85.986 59.8027 58.1428 59.8027C30.2996 59.8027 7.72827 72.8178 7.72827 88.8728C7.72827 104.928 30.2996 117.943 58.1428 117.943Z" fill="url(#paint1_linear)"/>
<path opacity="0.2" fill-rule="evenodd" clip-rule="evenodd" d="M95.4707 93.2373C96.1147 93.601 96.4239 94.0946 96.4239 94.5882L96.3981 98.5629C96.3981 99.0565 96.0632 99.5501 95.4192 99.9398L70.3794 114.384C69.0656 115.137 66.9532 115.137 65.6651 114.384L17.363 86.353C16.7447 85.9893 16.4098 85.4957 16.4098 85.0021V81.0793C16.3841 80.5597 16.719 80.0402 17.3888 79.6505L42.4286 65.2064C43.7424 64.453 45.8548 64.453 47.1428 65.2064L49.5386 66.5833L53.4801 68.8694L90.3442 90.2498L95.4707 93.2373ZM16.4356 81.2092V81.2612C16.4613 81.2352 16.4356 81.2092 16.4356 81.2092ZM16.4613 81.2871C16.4613 81.3131 16.4613 81.3131 16.4871 81.3391C16.4613 81.3391 16.4613 81.3131 16.4613 81.2871ZM16.4871 81.3911C16.4871 81.417 16.4871 81.417 16.5129 81.443C16.4871 81.417 16.4871 81.3911 16.4871 81.3911ZM16.5258 81.495C16.5193 81.4885 16.5129 81.482 16.5129 81.469C16.5386 81.495 16.5386 81.495 16.5386 81.521C16.5386 81.508 16.5322 81.5015 16.5258 81.495ZM16.5644 81.5729C16.5644 81.5859 16.5708 81.5924 16.5773 81.5989C16.5837 81.6054 16.5901 81.6119 16.5901 81.6249C16.5901 81.5989 16.5644 81.5729 16.5644 81.5729ZM16.6674 81.7288C16.6674 81.7418 16.6739 81.7483 16.6803 81.7548C16.6867 81.7613 16.6932 81.7677 16.6932 81.7807C16.6932 81.7807 16.6674 81.7548 16.6674 81.7288ZM16.7189 81.8327L16.7705 81.8846C16.7705 81.8587 16.7447 81.8327 16.7189 81.8327ZM16.9251 82.0405L16.8736 81.9886C16.8834 81.9985 16.8932 82.0046 16.9016 82.0099C16.9152 82.0183 16.9251 82.0245 16.9251 82.0405ZM17.3244 82.3393L17.3244 82.3393C17.305 82.3263 17.2857 82.3133 17.26 82.3003C17.3115 82.3263 17.363 82.3523 17.3888 82.3782C17.363 82.3653 17.3437 82.3523 17.3244 82.3393ZM17.0281 82.1185L16.9765 82.0665C16.9765 82.0826 16.9864 82.0887 17 82.0972C17.0084 82.1024 17.0182 82.1085 17.0281 82.1185ZM17.0539 82.1444C17.0668 82.1574 17.0796 82.1639 17.0925 82.1704C17.1054 82.1769 17.1183 82.1834 17.1312 82.1964C17.1054 82.1964 17.0796 82.1704 17.0539 82.1444ZM17.1956 82.2483C17.1827 82.2418 17.1698 82.2354 17.1569 82.2224C17.1827 82.2483 17.2085 82.2743 17.2342 82.2743C17.2213 82.2613 17.2085 82.2548 17.1956 82.2483ZM95.8829 95.6533C95.9087 95.6273 95.9344 95.6014 95.9602 95.6014C95.9344 95.6273 95.9087 95.6533 95.8829 95.6533ZM96.0117 95.5234L95.9602 95.5754C95.9658 95.5698 95.9713 95.5654 95.9766 95.5617L95.9816 95.5583L95.9882 95.5542L95.9883 95.5541C96.0019 95.5456 96.0117 95.5395 96.0117 95.5234ZM96.308 95.1337C96.3144 95.1272 96.3208 95.1208 96.3208 95.1078C96.2951 95.1078 96.2951 95.1337 96.2951 95.1597C96.2951 95.1467 96.3015 95.1402 96.308 95.1337ZM96.2049 95.3156C96.2113 95.3091 96.2178 95.3026 96.2178 95.2896C96.2178 95.2896 96.192 95.3156 96.192 95.3416C96.192 95.3286 96.1985 95.3221 96.2049 95.3156ZM96.1663 95.3675C96.1663 95.3805 96.1599 95.387 96.1534 95.3935C96.147 95.4 96.1405 95.4065 96.1405 95.4195C96.1405 95.3935 96.1405 95.3675 96.1663 95.3675ZM96.0374 95.4974L96.089 95.4455C96.089 95.4615 96.0791 95.4677 96.0655 95.4761C96.0571 95.4814 96.0473 95.4875 96.0374 95.4974Z" fill="#1C4B5F"/>
<path d="M16.4355 77.0007V80.9755C16.4355 81.4691 16.7704 81.9626 17.3887 82.3263V78.3516C16.7447 77.9619 16.4355 77.4683 16.4355 77.0007Z" fill="#CDD1F6"/>
<path d="M16.4355 77.0007V80.9755C16.4355 81.4691 16.7704 81.9626 17.3887 82.3263V78.3516C16.7447 77.9619 16.4355 77.4683 16.4355 77.0007V77.0007Z" fill="#CDD1F6"/>
<path d="M96.4496 94.5363V90.5615C96.4496 91.0551 96.1147 91.5487 95.4707 91.9384V95.9131C96.1147 95.5234 96.4496 95.0298 96.4496 94.5363Z" fill="#CDD1F6"/>
<path d="M95.4451 91.9384V95.9131C96.0891 95.5234 96.424 95.0298 96.424 94.5363V90.5615C96.424 91.0551 96.1149 91.5487 95.4451 91.9384V91.9384Z" fill="#CDD1F6"/>
<path d="M17.3889 78.3516V82.3003L65.7168 110.357L65.691 106.382L17.3889 78.3516Z" fill="#CDD1F6"/>
<path d="M70.4053 106.382V110.357L95.4708 95.913L95.4451 91.9382L70.4053 106.382Z" fill="#CDD1F6"/>
<path d="M65.6909 106.382V110.357C66.979 111.11 69.0914 111.11 70.4052 110.357V106.382C69.1171 107.136 66.979 107.136 65.6909 106.382Z" fill="#CDD1F6"/>
<path d="M65.6909 106.382V110.357C66.979 111.11 69.0914 111.11 70.4052 110.357V106.382C69.1171 107.136 66.979 107.136 65.6909 106.382V106.382Z" fill="#CDD1F6"/>
<path d="M49.5388 62.5565L19.7847 79.7284L60.5645 103.395L90.3444 86.223L49.5388 62.5565Z" fill="#119CED"/>
<path d="M47.1687 61.1797C45.8806 60.4263 43.7682 60.4263 42.4544 61.1797L17.4146 75.6238C16.1265 76.3771 16.1007 77.5981 17.3888 78.3515L19.7846 79.7284L49.5387 62.5565L47.1687 61.1797Z" fill="#F5F5FD"/>
<path d="M95.4708 89.2107L90.3443 86.2231L60.5645 103.395L65.6909 106.383C66.979 107.136 69.0914 107.136 70.4052 106.383L95.445 91.9384C96.7588 91.1851 96.7588 89.9641 95.4708 89.2107Z" fill="#F5F5FD"/>
<path d="M82.2553 97.3939L78.9321 99.4722C78.0305 100.044 76.5363 100.096 75.6089 99.6021C74.6815 99.1085 74.6558 98.2252 75.5574 97.6797L78.8806 95.5754C79.7822 95.0039 81.2764 94.9519 82.2038 95.4455C83.1569 95.9391 83.1827 96.8224 82.2553 97.3939V97.3939Z" fill="#D8D6ED"/>
<path d="M90.1897 98.1991L92.7916 96.5625V94.718L90.1897 96.3547V98.1991Z" fill="#F5F5FD"/>
<path d="M92.2763 96.2507L90.2927 97.5237V98.0173L92.6885 96.5105V96.5105L92.2763 96.2507Z" fill="#5C697C"/>
<path d="M90.2927 96.4066V97.5237L92.2506 96.2508V95.1597L92.1475 95.2116L90.2927 96.4066Z" fill="#1B1B1B"/>
<path d="M90.2927 96.5884V97.3678L92.1475 96.1468V95.3674L90.2927 96.5884Z" fill="#1B1823"/>
<path d="M92.6885 96.017V94.8999L92.2764 95.1597V96.2508L92.6885 96.5106V96.017Z" fill="#404040"/>
<path d="M95.0842 94.2765C95.0842 94.848 94.7493 95.4975 94.3114 95.7313C93.8735 95.9651 93.5386 95.7053 93.5386 95.1597C93.5386 94.5882 93.8735 93.9387 94.3114 93.7049C94.7236 93.4452 95.0842 93.7049 95.0842 94.2765Z" fill="#1B1B1B"/>
<path d="M93.6159 95.3156C94.028 95.0818 94.3887 94.4063 94.3887 93.8608C94.3887 93.7829 94.3887 93.7309 94.3629 93.6789C94.7493 93.4971 95.0585 93.7569 95.0585 94.3024C95.0585 94.874 94.7236 95.5234 94.2856 95.7572C93.925 95.9651 93.6159 95.8092 93.5386 95.3676C93.5643 95.3416 93.5901 95.3416 93.6159 95.3156Z" fill="#5C697C"/>
<path d="M94.0795 95.6273C94.4917 95.3935 94.8524 94.7181 94.8524 94.1725C94.8524 93.9387 94.7751 93.7568 94.672 93.627C94.9039 93.6789 95.0584 93.9127 95.0584 94.2764C95.0584 94.8479 94.7236 95.4974 94.2856 95.7312C94.0538 95.8611 93.8219 95.8351 93.6931 95.7052C93.8219 95.7312 93.9507 95.7052 94.0795 95.6273Z" fill="#CDD1F6"/>
<path d="M28.3372 72.0647C28.3888 72.1427 28.466 72.2466 28.5948 72.2985C29.007 72.5323 29.7026 72.5064 30.1148 72.2466L36.4262 68.2978C36.5293 68.2199 36.6066 68.1419 36.6581 68.064C36.7869 67.8302 36.7096 67.5704 36.4005 67.4145C35.9883 67.1807 35.3185 67.2067 34.8806 67.4665L28.5691 71.4412C28.2857 71.6231 28.2084 71.8569 28.3372 72.0647Z" fill="#CDD1F6"/>
<path d="M28.3372 72.0647C28.3887 72.1426 28.466 72.2465 28.5948 72.2985C29.0069 72.5323 29.7025 72.5063 30.1147 72.2465L36.4261 68.2978C36.5292 68.2198 36.6065 68.1419 36.658 68.064C36.6065 67.9601 36.5292 67.8821 36.4004 67.8042C35.9882 67.5704 35.3184 67.5964 34.8805 67.8561L28.569 71.8309C28.466 71.9088 28.3887 71.9867 28.3372 72.0647Z" fill="#21212B"/>
<path d="M19.0633 76.507C19.0891 76.7149 19.2179 76.9227 19.5013 77.0786C20.0938 77.4163 21.0212 77.4163 21.6137 77.0786C21.7425 77.0006 21.8455 76.8967 21.9228 76.8188C22.1547 76.507 22.0516 76.1173 21.6137 75.8835C21.0212 75.5458 20.0938 75.5458 19.5013 75.8835C19.1921 76.0394 19.0376 76.2732 19.0633 76.507Z" fill="#928DBD"/>
<path d="M19.7847 79.7283V81.7806L60.5645 105.447V103.395L19.7847 79.7283Z" fill="#F77723"/>
<path opacity="0.5" d="M49.5388 62.5565L19.7847 79.7284L23.7261 82.0145L53.4802 64.8426L49.5388 62.5565Z" fill="url(#paint2_linear)"/>
<path fill-rule="evenodd" clip-rule="evenodd" d="M47.3749 65.5181L44.2578 67.3106L45.7004 68.1419L48.8175 66.3494L47.3749 65.5181ZM44.4382 67.2846L47.3749 65.596L48.6372 66.3234L45.7005 68.012L44.4382 67.2846Z" fill="#CDD1F6"/>
<path d="M44.3608 67.3106L45.7004 68.064L47.7871 66.869L46.4475 66.0896L44.3608 67.3106Z" fill="#CDD1F6"/>
<path d="M40.136 70.7138L40.5997 70.454L41.1149 70.7397L40.6512 70.9995L40.136 70.7138Z" fill="#CDD1F6"/>
<path d="M39.1057 70.8176L39.5694 70.5579L40.4968 71.0774L40.0331 71.3372L39.1057 70.8176Z" fill="#CDD1F6"/>
<path d="M38.0752 70.9216L38.5131 70.6619L39.8785 71.4412L39.4148 71.701L38.0752 70.9216Z" fill="#CDD1F6"/>
<path fill-rule="evenodd" clip-rule="evenodd" d="M45.082 68.3757C45.2623 68.2718 45.2881 68.1159 44.7471 67.8042C44.3091 67.5444 44 67.5444 43.8197 67.6223C43.6136 67.7262 43.4332 67.8561 43.3044 67.96L43.459 68.038L43.9227 67.7782C44.0773 67.6743 44.3349 67.8042 44.4637 67.8821C44.3349 67.934 44.1803 68.012 44.0515 68.0899C43.8197 68.2458 43.8969 68.3497 44.0515 68.4276L44.2576 68.5316C44.4637 68.6615 44.644 68.6355 44.8243 68.5316L45.082 68.3757ZM44.2833 68.1938L44.644 67.986C44.8243 68.0639 45.0046 68.2198 44.8501 68.2978L44.6697 68.4017C44.5925 68.4536 44.5409 68.4536 44.4379 68.4017L44.2833 68.3237C44.1803 68.2718 44.206 68.2458 44.2833 68.1938Z" fill="#CDD1F6"/>
<path d="M43.3304 68.1419L42.7121 68.5056L44.2062 68.8953L43.9744 69.0251L42.3772 68.6095L42.3257 68.5056L43.1243 68.038L43.3304 68.1419Z" fill="#CDD1F6"/>
<path fill-rule="evenodd" clip-rule="evenodd" d="M42.6091 68.8433C42.7636 68.9213 42.7636 68.9992 42.6091 69.1031L42.4287 69.207C42.2484 69.3109 42.1196 69.285 41.9908 69.207L41.7847 69.0771C41.6301 68.9992 41.6301 68.9213 41.7847 68.8173L41.965 68.7134C42.1454 68.6095 42.2742 68.6355 42.403 68.7134L42.6091 68.8433ZM43.1243 69.5188L42.9697 69.6227L40.9346 69.3369L41.0891 69.259L43.1243 69.5188ZM42.2741 68.8173L42.4544 68.9213C42.5317 68.9732 42.5317 68.9992 42.4544 69.0252L42.2999 69.1031C42.2226 69.1551 42.1711 69.1291 42.1195 69.1031L41.9392 68.9992C41.8619 68.9472 41.8619 68.9213 41.9392 68.8953L42.0938 68.8173C42.1711 68.7654 42.1968 68.7654 42.2741 68.8173ZM42.2999 69.7266C42.4545 69.8045 42.4545 69.8825 42.2999 69.9864L42.1196 70.0903C41.9392 70.1942 41.8104 70.1682 41.6816 70.0903L41.4755 69.9604C41.321 69.8825 41.321 69.8045 41.4755 69.7006L41.6559 69.5967C41.8362 69.4928 41.965 69.5188 42.0938 69.5967L42.2999 69.7266ZM41.965 69.7006L42.1454 69.8045C42.2226 69.8305 42.2226 69.8565 42.1454 69.9085L41.9908 69.9864C41.9135 70.0384 41.862 70.0124 41.8105 69.9864L41.6301 69.8825C41.5915 69.8565 41.5722 69.8435 41.5722 69.8305C41.5722 69.8175 41.5915 69.8045 41.6301 69.7786L41.7847 69.7006C41.862 69.6487 41.8877 69.6487 41.965 69.7006Z" fill="#CDD1F6"/>
<path d="M36.993 72.9998C36.8127 72.8959 36.5293 72.8959 36.3747 72.9998C36.1944 73.1037 36.1944 73.2596 36.3747 73.3635C36.5551 73.4674 36.8384 73.4674 36.993 73.3635C37.1476 73.2596 37.1476 73.1037 36.993 72.9998Z" fill="#F5F5FD"/>
<path d="M36.0398 72.8181C36.2201 72.7142 36.4777 72.6622 36.7096 72.6622V72.4803C36.3747 72.4803 36.0655 72.5583 35.8079 72.6882C35.5503 72.8181 35.4473 73.0259 35.4473 73.2078H35.7564C35.7564 73.0779 35.8594 72.922 36.0398 72.8181Z" fill="#F5F5FD"/>
<path d="M35.5503 72.5582C35.8594 72.3763 36.2974 72.2724 36.7096 72.2724V72.0906C36.2201 72.0906 35.7049 72.1945 35.3185 72.4283C34.932 72.6361 34.7517 72.9479 34.7517 73.2336H35.0608C35.0866 72.9738 35.2412 72.74 35.5503 72.5582Z" fill="#F5F5FD"/>
<path d="M35.1125 72.2985C35.5504 72.0387 36.1429 71.9088 36.7097 71.9088V71.7269C36.0399 71.7269 35.3958 71.8828 34.8806 72.1686C34.3654 72.4543 34.1335 72.844 34.1335 73.2337H34.4427C34.4427 72.87 34.6745 72.5582 35.1125 72.2985Z" fill="#F5F5FD"/>
<path d="M26.4826 79.4426L24.6021 78.3515L27.0751 78.1177L26.4826 79.4426Z" fill="#CDD1F6"/>
<path d="M27.6418 77.7799L28.054 76.3511L29.9346 77.4422L27.6418 77.7799Z" fill="#CDD1F6"/>
<path d="M27.5646 78.0658L27.6419 77.832L30.0119 77.4683L26.5342 79.4686L27.1782 78.1177L27.5646 78.0658Z" fill="#CDD1F6"/>
<path d="M24.5247 78.3255L28.0024 76.3252L27.5129 78.0398L24.5247 78.3255Z" fill="#CDD1F6"/>
<path d="M49.5645 62.5565L19.7847 79.7284L60.5645 103.395L90.3444 86.223L49.5645 62.5565Z" fill="url(#paint3_linear)"/>
<path d="M49.4098 62.6864L20.1709 79.5465C19.9906 79.6505 19.9906 79.9102 20.1709 80.0142L60.4098 103.369C60.487 103.421 60.5901 103.421 60.6674 103.369L89.932 86.5088C90.1123 86.4049 90.1123 86.1451 89.932 86.0412L49.6931 62.6864C49.5901 62.6345 49.487 62.6345 49.4098 62.6864Z" fill="url(#paint4_linear)"/>
<g opacity="0.7">
<path opacity="0.01" d="M46.2412 0.207866L0.309141 26.706C0.0772914 26.8359 0.0772914 27.1737 0.309141 27.3295L63.5269 64.0113C63.63 64.0633 63.7846 64.0633 63.8876 64.0113L109.82 37.5131C110.052 37.3832 110.052 37.0455 109.82 36.8897L46.6019 0.207866C46.4988 0.12993 46.37 0.12993 46.2412 0.207866Z" fill="#F77723"/>
<path opacity="0.1667" d="M46.7823 11.1449L3.63238 36.0324C3.40053 36.1623 3.40053 36.5 3.63238 36.6299L63.0118 71.1035C63.1148 71.1555 63.2436 71.1555 63.3467 71.1035L106.497 46.216C106.728 46.0861 106.728 45.7484 106.497 45.6185L47.1172 11.1449C47.0141 11.0669 46.8853 11.0669 46.7823 11.1449Z" fill="#F77723"/>
<path opacity="0.3333" d="M47.2974 22.0819L6.92971 45.3587C6.72362 45.4886 6.72362 45.8004 6.92971 45.9302L62.4965 78.1697C62.5995 78.2217 62.7283 78.2217 62.8314 78.1697L103.199 54.8929C103.405 54.763 103.405 54.4512 103.199 54.3213L47.6323 22.0819C47.5292 22.004 47.4004 22.004 47.2974 22.0819Z" fill="#F77723"/>
<path opacity="0.5" d="M47.8384 32.7331L10.253 54.4252C10.0469 54.5551 10.0469 54.8409 10.253 54.9707L61.9813 85.002C62.0843 85.054 62.1874 85.054 62.2904 85.002L99.8759 63.3359C100.082 63.206 100.082 62.9202 99.8759 62.7903L48.1476 32.7331C48.0445 32.6811 47.9415 32.6811 47.8384 32.7331Z" fill="#F77723"/>
<path opacity="0.6667" d="M48.3536 42.8907L13.5503 62.9721C13.3442 63.076 13.3442 63.3618 13.5503 63.4917L61.466 91.2888C61.5691 91.3408 61.6721 91.3408 61.7751 91.2888L96.5784 71.2073C96.7845 71.1034 96.7845 70.8177 96.5784 70.6878L48.6627 42.8907C48.5597 42.8387 48.4566 42.8387 48.3536 42.8907Z" fill="#F77723"/>
<path opacity="0.8333" d="M48.8946 53.3081L16.8735 71.7789C16.6932 71.8828 16.6932 72.1686 16.8735 72.2725L60.9508 97.8614C61.0281 97.9134 61.1569 97.9134 61.2342 97.8614L93.2553 79.3907C93.4356 79.2867 93.4356 79.001 93.2553 78.8971L49.178 53.3081C49.0749 53.2562 48.9719 53.2562 48.8946 53.3081Z" fill="#F77723"/>
<path opacity="0.5333" d="M49.5717 63.1632L20.7307 79.8278C20.5683 79.9215 20.5683 80.1793 20.7307 80.2731L60.4306 103.36C60.5002 103.407 60.6162 103.407 60.6859 103.36L89.5269 86.6952C89.6893 86.6014 89.6893 86.3436 89.5269 86.2498L49.827 63.1632C49.7342 63.1163 49.6413 63.1163 49.5717 63.1632Z" fill="#F77723"/>
</g>
<g opacity="0.8">
<path d="M74.3926 78.9403L74.3229 76.7817L73.6098 76.7905C73.1527 76.1302 72.4438 75.4794 71.5453 74.9733C67.8476 72.7236 61.9752 72.6535 58.4163 74.8308C57.5319 75.3589 56.8985 75.9873 56.4748 76.6261L55.7616 76.6349L55.8313 78.7934V78.7934C55.8847 80.2475 56.7982 81.678 58.6573 82.8254C62.355 85.0751 68.2273 85.1451 71.7863 82.9678C73.5765 81.8467 74.446 80.3943 74.3926 78.9403Z" fill="#755930"/>
<path fill-rule="evenodd" clip-rule="evenodd" d="M74.3762 79.0723L74.3125 76.9176L73.597 76.9285C73.1403 76.2706 72.4311 75.6231 71.5311 75.1204C67.828 72.8855 61.9369 72.833 58.3602 75.0171C57.4714 75.547 56.8342 76.1762 56.4073 76.8152L55.6918 76.8261L55.7555 78.9808V78.9808C55.8048 80.4322 56.7171 81.8576 58.579 82.9975C62.2821 85.2325 68.1732 85.285 71.7499 83.1008C73.5491 81.9763 74.4256 80.5237 74.3762 79.0723Z" fill="url(#paint5_linear)"/>
<path d="M64.9161 71.1734C70.0802 71.2128 74.3215 73.7189 74.3894 76.7709C74.4572 79.8229 70.3259 82.265 65.1618 82.2256C59.9977 82.1862 55.7564 79.6801 55.6885 76.6281C55.6207 73.5761 59.752 71.1339 64.9161 71.1734Z" fill="#BCD5FF"/>
<path d="M64.9161 71.1734C70.0802 71.2128 74.3215 73.7189 74.3894 76.7709C74.4572 79.8229 70.3259 82.265 65.1618 82.2256C59.9977 82.1862 55.7564 79.6801 55.6885 76.6281C55.6207 73.5761 59.752 71.1339 64.9161 71.1734Z" fill="url(#paint6_linear)"/>
<path fill-rule="evenodd" clip-rule="evenodd" d="M65.159 81.5026C69.5034 81.5291 73.0454 79.4889 72.9891 76.7986C72.9332 74.126 69.3257 72.0542 64.9901 72.0278C60.6456 72.0014 57.1037 74.0415 57.1599 76.7319C57.2158 79.4044 60.8233 81.4763 65.159 81.5026ZM65.1702 80.6438C61.2324 80.6198 58.0522 78.7934 58.0086 76.7075C57.9653 74.6393 61.0498 72.8628 64.9788 72.8867C68.9167 72.9106 72.0969 74.737 72.1405 76.823C72.1838 78.8911 69.0993 80.6677 65.1702 80.6438Z" fill="white" fill-opacity="0.5"/>
<path d="M62.0394 76.7555L68.0758 76.8321L68.0629 75.7565L62.0265 75.6799L62.0394 76.7555Z" fill="white"/>
<path d="M71.747 80.6976C68.1787 82.8234 62.324 82.7518 58.6575 80.5516C56.3869 79.1666 55.4991 77.3457 55.9702 75.5924C55.4152 77.3854 56.3023 79.3159 58.6355 80.726C62.3226 82.9711 68.1773 83.0427 71.7249 80.872C73.0893 80.0624 73.9323 79.0075 74.1902 77.9017C73.8491 78.9376 73.0274 79.9277 71.747 80.6976Z" fill="white"/>
<path d="M71.3641 75.8717L71.2944 73.7131L70.5812 73.7219C70.1241 73.0616 69.4153 72.4108 68.5167 71.9047C64.819 69.655 58.9467 69.5849 55.3877 71.7622C54.5033 72.2903 53.8699 72.9187 53.4462 73.5575L52.7331 73.5663L52.8028 75.7248V75.7248C52.8561 77.1789 53.7696 78.6094 55.6288 79.7568C59.3264 82.0065 65.1988 82.0765 68.7578 79.8992C70.5479 78.7781 71.4174 77.3257 71.3641 75.8717Z" fill="#755930"/>
<path fill-rule="evenodd" clip-rule="evenodd" d="M71.3477 76.0037L71.284 73.849L70.5684 73.8599C70.1118 73.202 69.4025 72.5545 68.5025 72.0518C64.7994 69.8169 58.9083 69.7644 55.3316 71.9485C54.4428 72.4784 53.8056 73.1076 53.3787 73.7466L52.6632 73.7575L52.7269 75.9122V75.9122C52.7763 77.3636 53.6886 78.789 55.5504 79.9289C59.2535 82.1639 65.1446 82.2164 68.7213 80.0322C70.5205 78.9077 71.397 77.4551 71.3477 76.0037Z" fill="url(#paint7_linear)"/>
<path d="M61.8876 68.1048C67.0517 68.1442 71.293 70.6503 71.3608 73.7023C71.4287 76.7543 67.2973 79.1964 62.1332 79.157C56.9691 79.1176 52.7278 76.6115 52.66 73.5595C52.5921 70.5075 56.7235 68.0653 61.8876 68.1048Z" fill="#BCD5FF"/>
<path d="M61.8876 68.1048C67.0517 68.1442 71.293 70.6503 71.3608 73.7023C71.4287 76.7543 67.2973 79.1964 62.1332 79.157C56.9691 79.1176 52.7278 76.6115 52.66 73.5595C52.5921 70.5075 56.7235 68.0653 61.8876 68.1048Z" fill="url(#paint8_linear)"/>
<path fill-rule="evenodd" clip-rule="evenodd" d="M62.1304 78.434C66.4749 78.4605 70.0168 76.4203 69.9605 73.73C69.9047 71.0574 66.2972 68.9856 61.9615 68.9592C57.6171 68.9328 54.0751 70.9729 54.1314 73.6633C54.1873 76.3358 57.7947 78.4077 62.1304 78.434ZM62.1417 77.5752C58.2038 77.5512 55.0236 75.7248 54.98 73.6389C54.9368 71.5707 58.0212 69.7942 61.9503 69.8181C65.8881 69.842 69.0683 71.6684 69.1119 73.7544C69.1552 75.8225 66.0707 77.5991 62.1417 77.5752Z" fill="white" fill-opacity="0.5"/>
<path d="M59.0109 73.6869L65.0473 73.7635L65.0343 72.6879L58.9979 72.6113L59.0109 73.6869Z" fill="white"/>
<path d="M68.7184 77.629C65.1501 79.7548 59.2954 79.6832 55.6289 77.483C53.3583 76.098 52.4706 74.2771 52.9416 72.5238C52.3867 74.3168 53.2737 76.2473 55.6069 77.6574C59.2941 79.9025 65.1487 79.9741 68.6964 77.8034C70.0607 76.9938 70.9038 75.9389 71.1617 74.8331C70.8206 75.869 69.9988 76.8591 68.7184 77.629Z" fill="white"/>
<path d="M74.7037 71.1391L74.626 68.7365L73.8309 68.7463C73.3213 68.0113 72.5311 67.287 71.5293 66.7236C67.407 64.2195 60.8603 64.1415 56.8926 66.565C55.9066 67.1528 55.2005 67.8523 54.7282 68.5634L53.9331 68.5731L54.0108 70.9757V70.9757C54.0703 72.5942 55.0887 74.1864 57.1613 75.4635C61.2836 77.9676 67.8304 78.0456 71.798 75.6221C73.7938 74.3742 74.7632 72.7576 74.7037 71.1391Z" fill="#755930"/>
<path fill-rule="evenodd" clip-rule="evenodd" d="M74.6853 71.286L74.6143 68.8877L73.8166 68.8998C73.3075 68.1676 72.5168 67.4468 71.5134 66.8873C67.385 64.3996 60.8174 64.3412 56.8299 66.7723C55.8391 67.3621 55.1287 68.0625 54.6528 68.7737L53.8551 68.7858L53.9261 71.1842V71.1842C53.9812 72.7997 54.9982 74.3863 57.0739 75.6551C61.2023 78.1427 67.7699 78.2012 71.7573 75.77C73.7632 74.5184 74.7403 72.9015 74.6853 71.286Z" fill="url(#paint9_linear)"/>
<path d="M64.1389 62.4942C69.896 62.5381 74.6244 65.3275 74.7 68.7246C74.7757 72.1217 70.1699 74.8399 64.4128 74.7961C58.6556 74.7522 53.9272 71.9627 53.8516 68.5656C53.776 65.1686 58.3818 62.4503 64.1389 62.4942Z" fill="#BCD5FF"/>
<path d="M64.1389 62.4939C69.896 62.5378 74.6244 65.3273 74.7 68.7243C74.7757 72.1214 70.1699 74.8397 64.4128 74.7958C58.6556 74.7519 53.9272 71.9625 53.8516 68.5654C53.776 65.1683 58.3818 62.45 64.1389 62.4939Z" fill="url(#paint10_linear)"/>
<path fill-rule="evenodd" clip-rule="evenodd" d="M64.4118 73.9923C69.2547 74.0237 73.2022 71.754 73.1384 68.7587C73.0749 65.7833 69.0526 63.4751 64.2194 63.4438C59.3764 63.4125 55.4289 65.6822 55.4928 68.6774C55.5562 71.6528 59.5786 73.9611 64.4118 73.9923ZM64.4239 73.0362C60.0341 73.0078 56.4882 70.973 56.4387 68.6507C56.3896 66.3482 59.8272 64.3716 64.2072 64.4C68.597 64.4284 72.1429 66.4632 72.1925 68.7855C72.2415 71.088 68.8039 73.0646 64.4239 73.0362Z" fill="white" fill-opacity="0.5"/>
<path d="M60.9318 68.7072L67.6615 68.7925L67.647 67.5953L60.9174 67.51L60.9318 68.7072Z" fill="white"/>
<path d="M71.7541 73.0953C67.776 75.4615 61.249 75.3818 57.1614 72.9328C54.6301 71.3911 53.6404 69.3644 54.1655 67.4128C53.5469 69.4086 54.5358 71.5574 57.1369 73.1269C61.2475 75.6259 67.7745 75.7056 71.7296 73.2894C73.2506 72.3882 74.1904 71.2141 74.478 69.9832C74.0977 71.1363 73.1816 72.2383 71.7541 73.0953Z" fill="white"/>
<path d="M74.3926 66.9901L74.3229 64.8315L73.6098 64.8403C73.1527 64.18 72.4438 63.5293 71.5453 63.0231C67.8476 60.7734 61.9752 60.7033 58.4163 62.8806C57.5319 63.4087 56.8985 64.0372 56.4748 64.676L55.7616 64.6847L55.8313 66.8433V66.8433C55.8847 68.2973 56.7982 69.7278 58.6573 70.8752C62.355 73.1249 68.2273 73.1949 71.7863 71.0176C73.5765 69.8965 74.446 68.4441 74.3926 66.9901Z" fill="#755930"/>
<path fill-rule="evenodd" clip-rule="evenodd" d="M74.3762 67.1221L74.3125 64.9674L73.597 64.9783C73.1404 64.3204 72.4311 63.6729 71.5311 63.1702C67.828 60.9353 61.9369 60.8828 58.3602 63.067C57.4714 63.5968 56.8342 64.2261 56.4073 64.865L55.6918 64.8759L55.7555 67.0306V67.0306C55.8048 68.482 56.7171 69.9074 58.579 71.0473C62.2821 73.2823 68.1732 73.3348 71.7499 71.1506C73.5491 70.0261 74.4256 68.5735 74.3762 67.1221Z" fill="url(#paint11_linear)"/>
<path d="M64.9161 59.2232C70.0802 59.2626 74.3216 61.7687 74.3894 64.8207C74.4572 67.8727 70.3259 70.3148 65.1618 70.2754C59.9977 70.236 55.7564 67.7299 55.6885 64.6779C55.6207 61.6259 59.752 59.1838 64.9161 59.2232Z" fill="#BCD5FF"/>
<path d="M64.9161 59.2232C70.0802 59.2626 74.3216 61.7687 74.3894 64.8207C74.4572 67.8727 70.3259 70.3148 65.1618 70.2754C59.9977 70.236 55.7564 67.7299 55.6885 64.6779C55.6207 61.6259 59.752 59.1838 64.9161 59.2232Z" fill="url(#paint12_linear)"/>
<path fill-rule="evenodd" clip-rule="evenodd" d="M65.159 69.5526C69.5034 69.579 73.0454 67.5389 72.9891 64.8485C72.9332 62.176 69.3257 60.1041 64.9901 60.0777C60.6456 60.0513 57.1037 62.0914 57.1599 64.7818C57.2158 67.4543 60.8233 69.5262 65.159 69.5526ZM65.1702 68.6937C61.2324 68.6698 58.0522 66.8433 58.0086 64.7574C57.9653 62.6893 61.0498 60.9127 64.9788 60.9366C68.9167 60.9605 72.0969 62.787 72.1405 64.8729C72.1837 66.941 69.0993 68.7176 65.1702 68.6937Z" fill="white" fill-opacity="0.5"/>
<path d="M62.0394 64.8053L68.0758 64.8819L68.0629 63.8063L62.0265 63.7297L62.0394 64.8053Z" fill="white"/>
<path d="M71.747 68.7474C68.1787 70.8732 62.324 70.8016 58.6575 68.6014C56.3869 67.2164 55.4991 65.3955 55.9702 63.6422C55.4152 65.4352 56.3023 67.3657 58.6355 68.7758C62.3226 71.0209 68.1773 71.0925 71.7249 68.9218C73.0893 68.1122 73.9323 67.0573 74.1902 65.9515C73.8491 66.9874 73.0274 67.9775 71.747 68.7474Z" fill="white"/>
<path d="M73.4249 63.4019L73.3552 61.2434L72.642 61.2522C72.1849 60.5919 71.476 59.9411 70.5775 59.435C66.8798 57.1852 61.0075 57.1152 57.4485 59.2925C56.5641 59.8206 55.9307 60.449 55.507 61.0878L54.7939 61.0966L54.8636 63.2551V63.2551C54.9169 64.7091 55.8304 66.1397 57.6896 67.287C61.3872 69.5367 67.2596 69.6068 70.8185 67.4295C72.6087 66.3084 73.4782 64.856 73.4249 63.4019Z" fill="#755930"/>
<path fill-rule="evenodd" clip-rule="evenodd" d="M73.4085 63.534L73.3448 61.3793L72.6292 61.3901C72.1726 60.7323 71.4633 60.0848 70.5633 59.5821C66.8602 57.3471 60.9691 57.2946 57.3924 59.4788C56.5036 60.0086 55.8664 60.6379 55.4395 61.2769L54.724 61.2878L54.7877 63.4425V63.4425C54.8371 64.8939 55.7493 66.3193 57.6112 67.4592C61.3143 69.6942 67.2054 69.7467 70.7821 67.5625C72.5813 66.438 73.4578 64.9854 73.4085 63.534Z" fill="url(#paint13_linear)"/>
<path d="M63.9484 55.635C69.1125 55.6745 73.3538 58.1806 73.4216 61.2326C73.4894 64.2845 69.3581 66.7267 64.194 66.6873C59.0299 66.6478 54.7886 64.1418 54.7208 61.0898C54.6529 58.0378 58.7843 55.5956 63.9484 55.635Z" fill="#BCD5FF"/>
<path d="M63.9484 55.635C69.1125 55.6745 73.3538 58.1806 73.4216 61.2326C73.4894 64.2845 69.3581 66.7267 64.194 66.6873C59.0299 66.6478 54.7886 64.1418 54.7208 61.0898C54.6529 58.0378 58.7843 55.5956 63.9484 55.635Z" fill="url(#paint14_linear)"/>
<path fill-rule="evenodd" clip-rule="evenodd" d="M64.1912 65.9644C68.5357 65.9909 72.0776 63.9507 72.0213 61.2604C71.9655 58.5878 68.358 56.516 64.0223 56.4896C59.6778 56.4632 56.1359 58.5033 56.1922 61.1936C56.248 63.8662 59.8555 65.9381 64.1912 65.9644ZM64.2025 65.1056C60.2646 65.0816 57.0844 63.2552 57.0408 61.1693C56.9975 59.1011 60.082 57.3246 64.0111 57.3485C67.9489 57.3724 71.1291 59.1988 71.1727 61.2848C71.216 63.3529 68.1315 65.1295 64.2025 65.1056Z" fill="white" fill-opacity="0.5"/>
<path d="M61.0717 61.2172L67.1081 61.2938L67.0951 60.2182L61.0587 60.1416L61.0717 61.2172Z" fill="white"/>
<path d="M70.7792 65.1593C67.2109 67.2851 61.3562 67.2135 57.6897 65.0133C55.4191 63.6282 54.5314 61.8074 55.0024 60.0541C54.4475 61.8471 55.3345 63.7776 57.6677 65.1877C61.3549 67.4328 67.2095 67.5044 70.7572 65.3336C72.1215 64.524 72.9646 63.4692 73.2225 62.3633C72.8814 63.3993 72.0596 64.3894 70.7792 65.1593Z" fill="white"/>
<path d="M74.7037 59.1888L74.626 56.7862L73.8309 56.796C73.3213 56.061 72.5311 55.3367 71.5293 54.7733C67.407 52.2692 60.8603 52.1912 56.8926 54.6147C55.9066 55.2025 55.2005 55.902 54.7282 56.613L53.9331 56.6228L54.0108 59.0254V59.0254C54.0703 60.6438 55.0887 62.2361 57.1613 63.5132C61.2836 66.0173 67.8304 66.0952 71.798 63.6718C73.7938 62.4239 74.7632 60.8073 74.7037 59.1888Z" fill="#755930"/>
<path fill-rule="evenodd" clip-rule="evenodd" d="M74.6853 59.3358L74.6143 56.9375L73.8166 56.9496C73.3075 56.2174 72.5168 55.4966 71.5134 54.9371C67.385 52.4494 60.8174 52.391 56.8299 54.8221C55.8391 55.4119 55.1287 56.1123 54.6528 56.8235L53.8551 56.8356L53.9261 59.234V59.234C53.9812 60.8495 54.9982 62.4361 57.0739 63.7049C61.2023 66.1925 67.7699 66.251 71.7573 63.8198C73.7632 62.5682 74.7403 60.9513 74.6853 59.3358Z" fill="url(#paint15_linear)"/>
<path d="M64.1389 50.5437C69.896 50.5876 74.6244 53.3771 74.7 56.7741C74.7757 60.1712 70.1699 62.8895 64.4128 62.8456C58.6556 62.8017 53.9272 60.0123 53.8516 56.6152C53.776 53.2181 58.3818 50.4998 64.1389 50.5437Z" fill="#BCD5FF"/>
<path d="M64.1389 50.5437C69.896 50.5876 74.6244 53.3771 74.7 56.7741C74.7757 60.1712 70.1699 62.8895 64.4128 62.8456C58.6556 62.8017 53.9272 60.0123 53.8516 56.6152C53.776 53.2181 58.3818 50.4998 64.1389 50.5437Z" fill="url(#paint16_linear)"/>
<path fill-rule="evenodd" clip-rule="evenodd" d="M64.4118 62.0422C69.2547 62.0735 73.2022 59.8038 73.1384 56.8085C73.075 53.8331 69.0526 51.5249 64.2194 51.4936C59.3764 51.4623 55.4289 53.732 55.4928 56.7272C55.5562 59.7026 59.5786 62.0109 64.4118 62.0422ZM64.4239 61.086C60.0341 61.0576 56.4882 59.0228 56.4387 56.7005C56.3896 54.398 59.8272 52.4214 64.2072 52.4498C68.597 52.4782 72.1429 54.513 72.1925 56.8353C72.2415 59.1378 68.8039 61.1144 64.4239 61.086Z" fill="white" fill-opacity="0.5"/>
<path d="M60.9318 56.757L67.6615 56.8423L67.647 55.6451L60.9174 55.5598L60.9318 56.757Z" fill="white"/>
<path d="M71.7541 61.145C67.776 63.5112 61.249 63.4315 57.1614 60.9825C54.6301 59.4408 53.6404 57.4141 54.1655 55.4625C53.5469 57.4583 54.5358 59.607 57.1369 61.1766C61.2475 63.6755 67.7745 63.7552 71.7296 61.3391C73.2506 60.4379 74.1904 59.2638 74.478 58.0329C74.0977 59.1859 73.1816 60.288 71.7541 61.145Z" fill="white"/>
<path d="M54.8143 78.1607L54.7446 76.0022L54.0314 76.011C53.5743 75.3507 52.8655 74.6999 51.9669 74.1937C48.2692 71.944 42.3969 71.874 38.8379 74.0513C37.9535 74.5794 37.3201 75.2078 36.8964 75.8466L36.1833 75.8554L36.253 78.0139V78.0139C36.3063 79.4679 37.2198 80.8985 39.079 82.0458C42.7766 84.2955 48.649 84.3656 52.208 82.1883C53.9981 81.0672 54.8676 79.6148 54.8143 78.1607Z" fill="#755930"/>
<path fill-rule="evenodd" clip-rule="evenodd" d="M54.7979 78.2928L54.7342 76.1381L54.0186 76.1489C53.562 75.4911 52.8527 74.8435 51.9527 74.3409C48.2496 72.1059 42.3585 72.0534 38.7818 74.2376C37.893 74.7674 37.2558 75.3967 36.8289 76.0357L36.1134 76.0466L36.1771 78.2013V78.2013C36.2265 79.6527 37.1388 81.0781 39.0006 82.218C42.7037 84.453 48.5948 84.5055 52.1715 82.3213C53.9707 81.1968 54.8472 79.7442 54.7979 78.2928Z" fill="url(#paint17_linear)"/>
<path d="M45.3378 70.3938C50.5019 70.4333 54.7432 72.9394 54.811 75.9913C54.8789 79.0433 50.7475 81.4855 45.5834 81.4461C40.4193 81.4066 36.178 78.9005 36.1102 75.8486C36.0423 72.7966 40.1737 70.3544 45.3378 70.3938Z" fill="#BCD5FF"/>
<path d="M45.3378 70.3938C50.5019 70.4333 54.7432 72.9394 54.811 75.9913C54.8789 79.0433 50.7475 81.4855 45.5834 81.4461C40.4193 81.4066 36.178 78.9005 36.1102 75.8486C36.0423 72.7966 40.1737 70.3544 45.3378 70.3938Z" fill="url(#paint18_linear)"/>
<path fill-rule="evenodd" clip-rule="evenodd" d="M45.5806 80.7231C49.9251 80.7495 53.467 78.7094 53.4107 76.0191C53.3549 73.3465 49.7474 71.2746 45.4117 71.2483C41.0673 71.2218 37.5253 73.262 37.5816 75.9523C37.6375 78.6249 41.2449 80.6967 45.5806 80.7231ZM45.5919 79.8643C41.654 79.8403 38.4738 78.0139 38.4302 75.9279C38.387 73.8598 41.4714 72.0832 45.4005 72.1071C49.3383 72.1311 52.5185 73.9575 52.5621 76.0434C52.6054 78.1116 49.5209 79.8881 45.5919 79.8643Z" fill="white" fill-opacity="0.5"/>
<path d="M42.4611 75.976L48.4975 76.0526L48.4845 74.977L42.4481 74.9004L42.4611 75.976Z" fill="white"/>
<path d="M52.1686 79.918C48.6003 82.0439 42.7456 81.9723 39.0791 79.7721C36.8085 78.387 35.9208 76.5662 36.3918 74.8129C35.8369 76.6059 36.7239 78.5364 39.0571 79.9465C42.7443 82.1916 48.5989 82.2632 52.1466 80.0924C53.5109 79.2828 54.354 78.228 54.6119 77.1221C54.2708 78.1581 53.449 79.1482 52.1686 79.918Z" fill="white"/>
<path d="M51.7857 75.0921L51.716 72.9336L51.0028 72.9424C50.5457 72.2821 49.8369 71.6313 48.9383 71.1251C45.2407 68.8754 39.3683 68.8054 35.8093 70.9827C34.9249 71.5108 34.2916 72.1392 33.8679 72.778L33.1547 72.7868L33.2244 74.9453V74.9453C33.2778 76.3993 34.1912 77.8299 36.0504 78.9772C39.7481 81.2269 45.6204 81.297 49.1794 79.1197C50.9696 77.9986 51.8391 76.5461 51.7857 75.0921Z" fill="#755930"/>
<path fill-rule="evenodd" clip-rule="evenodd" d="M51.7693 75.2242L51.7056 73.0695L50.9901 73.0803C50.5334 72.4225 49.8242 71.7749 48.9242 71.2723C45.221 69.0373 39.33 68.9848 35.7532 71.169C34.8645 71.6988 34.2272 72.3281 33.8004 72.9671L33.0848 72.978L33.1486 75.1327V75.1327C33.1979 76.5841 34.1102 78.0095 35.972 79.1494C39.6752 81.3843 45.5662 81.4369 49.143 79.2527C50.9422 78.1282 51.8186 76.6756 51.7693 75.2242Z" fill="url(#paint19_linear)"/>
<path d="M42.3092 67.3252C47.4733 67.3647 51.7146 69.8708 51.7825 72.9227C51.8503 75.9747 47.719 78.4169 42.5549 78.3775C37.3908 78.338 33.1494 75.8319 33.0816 72.78C33.0138 69.728 37.1451 67.2858 42.3092 67.3252Z" fill="#BCD5FF"/>
<path d="M42.3092 67.3252C47.4733 67.3647 51.7146 69.8708 51.7825 72.9227C51.8503 75.9747 47.719 78.4169 42.5549 78.3775C37.3908 78.338 33.1494 75.8319 33.0816 72.78C33.0138 69.728 37.1451 67.2858 42.3092 67.3252Z" fill="url(#paint20_linear)"/>
<path fill-rule="evenodd" clip-rule="evenodd" d="M42.552 77.6545C46.8965 77.6809 50.4384 75.6408 50.3822 72.9505C50.3263 70.2779 46.7188 68.206 42.3831 68.1797C38.0387 68.1532 34.4968 70.1934 34.553 72.8837C34.6089 75.5563 38.2164 77.6281 42.552 77.6545ZM42.5633 76.7956C38.6254 76.7717 35.4452 74.9453 35.4016 72.8593C35.3584 70.7912 38.4428 69.0146 42.3719 69.0385C46.3098 69.0625 49.49 70.8889 49.5336 72.9748C49.5768 75.043 46.4924 76.8195 42.5633 76.7956Z" fill="white" fill-opacity="0.5"/>
<path d="M39.4325 72.9074L45.4689 72.984L45.4559 71.9084L39.4195 71.8318L39.4325 72.9074Z" fill="white"/>
<path d="M49.14 76.8494C45.5718 78.9753 39.7171 78.9037 36.0505 76.7035C33.7799 75.3184 32.8922 73.4976 33.3633 71.7443C32.8083 73.5373 33.6953 75.4678 36.0285 76.8779C39.7157 79.123 45.5704 79.1946 49.118 77.0238C50.4823 76.2142 51.3254 75.1594 51.5833 74.0535C51.2422 75.0894 50.4204 76.0795 49.14 76.8494Z" fill="white"/>
<path d="M55.1253 70.3596L55.0476 67.957L54.2525 67.9667C53.7429 67.2318 52.9527 66.5075 51.9509 65.9441C47.8286 63.44 41.2819 63.362 37.3142 65.7855C36.3282 66.3733 35.6221 67.0728 35.1498 67.7838L34.3547 67.7936L34.4324 70.1962V70.1962C34.4919 71.8146 35.5103 73.4069 37.583 74.684C41.7053 77.1881 48.252 77.266 52.2197 74.8426C54.2155 73.5947 55.1848 71.978 55.1253 70.3596Z" fill="#755930"/>
<path fill-rule="evenodd" clip-rule="evenodd" d="M55.1069 70.5065L55.0359 68.1081L54.2382 68.1202C53.7291 67.388 52.9384 66.6672 51.935 66.1078C47.8067 63.6201 41.2391 63.5616 37.2516 65.9928C36.2607 66.5825 35.5503 67.283 35.0744 67.9942L34.2768 68.0063L34.3478 70.4046V70.4046C34.4028 72.0202 35.4198 73.6067 37.4955 74.8755C41.6239 77.3632 48.1915 77.4216 52.179 74.9905C54.1848 73.7388 55.1619 72.122 55.1069 70.5065Z" fill="url(#paint21_linear)"/>
<path d="M44.5605 61.7146C50.3177 61.7585 55.0461 64.548 55.1217 67.945C55.1973 71.3421 50.5915 74.0604 44.8344 74.0165C39.0773 73.9726 34.3489 71.1832 34.2732 67.7861C34.1976 64.389 38.8034 61.6707 44.5605 61.7146Z" fill="#BCD5FF"/>
<path d="M44.5605 61.7146C50.3177 61.7585 55.0461 64.548 55.1217 67.945C55.1973 71.3421 50.5915 74.0604 44.8344 74.0165C39.0773 73.9726 34.3489 71.1832 34.2732 67.7861C34.1976 64.389 38.8034 61.6707 44.5605 61.7146Z" fill="url(#paint22_linear)"/>
<path fill-rule="evenodd" clip-rule="evenodd" d="M44.8334 73.213C49.6764 73.2444 53.6239 70.9747 53.56 67.9794C53.4966 65.004 49.4742 62.6958 44.641 62.6645C39.798 62.6332 35.8505 64.9029 35.9144 67.8981C35.9778 70.8735 40.0002 73.1818 44.8334 73.213ZM44.8455 72.2569C40.4557 72.2285 36.9098 70.1937 36.8603 67.8714C36.8112 65.5689 40.2488 63.5923 44.6289 63.6207C49.0186 63.6491 52.5646 65.6839 52.6141 68.0062C52.6632 70.3087 49.2255 72.2853 44.8455 72.2569Z" fill="white" fill-opacity="0.5"/>
<path d="M41.3535 67.9279L48.0831 68.0132L48.0686 66.816L41.339 66.7307L41.3535 67.9279Z" fill="white"/>
<path d="M52.1757 72.3157C48.1977 74.6819 41.6707 74.6022 37.5831 72.1533C35.0517 70.6116 34.062 68.5849 34.5872 66.6333C33.9685 68.629 34.9574 70.7778 37.5585 72.3474C41.6691 74.8463 48.1961 74.926 52.1512 72.5098C53.6722 71.6087 54.6121 70.4346 54.8996 69.2037C54.5193 70.3567 53.6032 71.4588 52.1757 72.3157Z" fill="white"/>
<path d="M56.1558 65.9433L56.0781 63.5407L55.283 63.5505C54.7735 62.8155 53.9832 62.0912 52.9814 61.5278C48.8591 59.0237 42.3124 58.9457 38.3447 61.3692C37.3588 61.957 36.6527 62.6565 36.1803 63.3676L35.3852 63.3773L35.4629 65.7799V65.7799C35.5224 67.3984 36.5408 68.9906 38.6135 70.2677C42.7358 72.7718 49.2825 72.8498 53.2502 70.4263C55.246 69.1784 56.2153 67.5618 56.1558 65.9433Z" fill="#755930"/>
<path fill-rule="evenodd" clip-rule="evenodd" d="M56.1374 66.0902L56.0664 63.6919L55.2687 63.704C54.7596 62.9718 53.9689 62.251 52.9656 61.6915C48.8372 59.2038 42.2696 59.1454 38.2821 61.5765C37.2913 62.1663 36.5809 62.8667 36.105 63.5779L35.3073 63.59L35.3783 65.9884V65.9884C35.4333 67.6039 36.4504 69.1905 38.526 70.4593C42.6544 72.9469 49.222 73.0054 53.2095 70.5742C55.2153 69.3226 56.1924 67.7057 56.1374 66.0902Z" fill="url(#paint23_linear)"/>
<path d="M45.591 57.2982C51.3482 57.3421 56.0766 60.1316 56.1522 63.5287C56.2278 66.9257 51.622 69.644 45.8649 69.6001C40.1078 69.5562 35.3794 66.7668 35.3038 63.3697C35.2281 59.9726 39.8339 57.2543 45.591 57.2982Z" fill="#BCD5FF"/>
<path d="M45.591 57.2982C51.3482 57.3421 56.0766 60.1316 56.1522 63.5287C56.2278 66.9257 51.622 69.644 45.8649 69.6001C40.1078 69.5562 35.3794 66.7668 35.3038 63.3697C35.2281 59.9726 39.8339 57.2544 45.591 57.2982Z" fill="url(#paint24_linear)"/>
<path fill-rule="evenodd" clip-rule="evenodd" d="M45.8639 68.7967C50.7069 68.828 54.6544 66.5583 54.5905 63.5631C54.5271 60.5877 50.5048 58.2794 45.6716 58.2482C40.8286 58.2168 36.8811 60.4866 36.9449 63.4818C37.0084 66.4572 41.0307 68.7654 45.8639 68.7967ZM45.876 67.8405C41.4863 67.8121 37.9403 65.7773 37.8908 63.455C37.8417 61.1525 41.2794 59.1759 45.6594 59.2043C50.0492 59.2327 53.5951 61.2675 53.6446 63.5898C53.6937 65.8923 50.256 67.8689 45.876 67.8405Z" fill="white" fill-opacity="0.5"/>
<path d="M42.384 63.5115L49.1136 63.5968L49.0991 62.3996L42.3695 62.3143L42.384 63.5115Z" fill="white"/>
<path d="M53.2062 67.8995C49.2282 70.2657 42.7012 70.186 38.6136 67.737C36.0822 66.1953 35.0925 64.1686 35.6177 62.217C34.999 64.2128 35.9879 66.3616 38.589 67.9311C42.6996 70.4301 49.2267 70.5098 53.1817 68.0936C54.7027 67.1924 55.6426 66.0183 55.9301 64.7874C55.5498 65.9405 54.6337 67.0425 53.2062 67.8995Z" fill="white"/>
<path d="M66.6644 86.7337L66.5947 84.5752L65.8815 84.584C65.4244 83.9237 64.7155 83.2729 63.817 82.7667C60.1193 80.517 54.247 80.447 50.688 82.6243C49.8036 83.1524 49.1702 83.7808 48.7465 84.4196L48.0334 84.4284L48.1031 86.5869V86.5869C48.1564 88.0409 49.0699 89.4715 50.9291 90.6188C54.6267 92.8685 60.4991 92.9386 64.058 90.7613C65.8482 89.6402 66.7177 88.1878 66.6644 86.7337Z" fill="#755930"/>
<path fill-rule="evenodd" clip-rule="evenodd" d="M66.648 86.8658L66.5843 84.7111L65.8687 84.7219C65.4121 84.0641 64.7028 83.4165 63.8028 82.9139C60.0997 80.6789 54.2086 80.6264 50.6319 82.8106C49.7431 83.3404 49.1059 83.9697 48.679 84.6087L47.9635 84.6196L48.0272 86.7743V86.7743C48.0766 88.2257 48.9888 89.6511 50.8507 90.791C54.5538 93.0259 60.4449 93.0785 64.0216 90.8943C65.8208 89.7698 66.6973 88.3172 66.648 86.8658Z" fill="url(#paint25_linear)"/>
<path d="M57.1879 78.9668C62.352 79.0063 66.5933 81.5124 66.6611 84.5643C66.7289 87.6163 62.5976 90.0585 57.4335 90.0191C52.2694 89.9796 48.0281 87.4735 47.9603 84.4216C47.8924 81.3696 52.0238 78.9274 57.1879 78.9668Z" fill="#BCD5FF"/>
<path d="M57.1879 78.9668C62.352 79.0063 66.5933 81.5124 66.6611 84.5643C66.7289 87.6163 62.5976 90.0585 57.4335 90.0191C52.2694 89.9796 48.0281 87.4735 47.9603 84.4216C47.8924 81.3696 52.0238 78.9274 57.1879 78.9668Z" fill="url(#paint26_linear)"/>
<path fill-rule="evenodd" clip-rule="evenodd" d="M57.4307 89.2961C61.7752 89.3225 65.3171 87.2824 65.2608 84.5921C65.205 81.9195 61.5975 79.8476 57.2618 79.8213C52.9174 79.7948 49.3754 81.835 49.4317 84.5253C49.4876 87.1979 53.095 89.2697 57.4307 89.2961ZM57.442 88.4372C53.5041 88.4133 50.3239 86.5869 50.2803 84.5009C50.2371 82.4328 53.3215 80.6562 57.2506 80.6801C61.1884 80.7041 64.3686 82.5305 64.4122 84.6164C64.4555 86.6846 61.371 88.4611 57.442 88.4372Z" fill="white" fill-opacity="0.5"/>
<path d="M54.3112 84.549L60.3476 84.6256L60.3346 83.55L54.2982 83.4734L54.3112 84.549Z" fill="white"/>
<path d="M64.0187 88.491C60.4504 90.6169 54.5957 90.5453 50.9292 88.3451C48.6586 86.96 47.7709 85.1392 48.2419 83.3859C47.687 85.1789 48.574 87.1094 50.9072 88.5195C54.5944 90.7646 60.449 90.8362 63.9967 88.6654C65.361 87.8558 66.2041 86.801 66.462 85.6951C66.1209 86.731 65.2991 87.7211 64.0187 88.491Z" fill="white"/>
<path d="M63.6358 83.6651L63.5661 81.5066L62.8529 81.5153C62.3958 80.855 61.687 80.2043 60.7884 79.6981C57.0908 77.4484 51.2184 77.3784 47.6594 79.5557C46.775 80.0837 46.1417 80.7122 45.718 81.351L45.0048 81.3598L45.0745 83.5183V83.5183C45.1279 84.9723 46.0413 86.4029 47.9005 87.5502C51.5982 89.7999 57.4705 89.87 61.0295 87.6927C62.8197 86.5716 63.6892 85.1191 63.6358 83.6651Z" fill="#755930"/>
<path fill-rule="evenodd" clip-rule="evenodd" d="M63.6194 83.7971L63.5557 81.6424L62.8402 81.6533C62.3835 80.9955 61.6743 80.3479 60.7742 79.8453C57.0711 77.6103 51.1801 77.5578 47.6033 79.742C46.7146 80.2718 46.0773 80.9011 45.6505 81.5401L44.9349 81.5509L44.9987 83.7056V83.7056C45.048 85.1571 45.9603 86.5825 47.8221 87.7224C51.5252 89.9573 57.4163 90.0099 60.9931 87.8257C62.7923 86.7011 63.6687 85.2486 63.6194 83.7971Z" fill="url(#paint27_linear)"/>
<path d="M54.1593 75.8982C59.3234 75.9377 63.5647 78.4437 63.6325 81.4957C63.7004 84.5477 59.5691 86.9899 54.405 86.9504C49.2409 86.911 44.9995 84.4049 44.9317 81.3529C44.8639 78.301 48.9952 75.8588 54.1593 75.8982Z" fill="#BCD5FF"/>
<path d="M54.1593 75.8982C59.3234 75.9377 63.5647 78.4437 63.6325 81.4957C63.7004 84.5477 59.5691 86.9899 54.405 86.9504C49.2409 86.911 44.9995 84.4049 44.9317 81.3529C44.8639 78.301 48.9952 75.8588 54.1593 75.8982Z" fill="url(#paint28_linear)"/>
<path fill-rule="evenodd" clip-rule="evenodd" d="M54.4021 86.2275C58.7466 86.2539 62.2885 84.2138 62.2323 81.5234C62.1764 78.8509 58.5689 76.779 54.2332 76.7527C49.8888 76.7262 46.3469 78.7664 46.4031 81.4567C46.459 84.1293 50.0665 86.2011 54.4021 86.2275ZM54.4134 85.3686C50.4755 85.3447 47.2953 83.5183 47.2517 81.4323C47.2085 79.3642 50.2929 77.5876 54.222 77.6115C58.1599 77.6355 61.3401 79.4619 61.3837 81.5478C61.4269 83.616 58.3425 85.3925 54.4134 85.3686Z" fill="white" fill-opacity="0.5"/>
<path d="M51.2826 81.4804L57.319 81.557L57.306 80.4814L51.2696 80.4048L51.2826 81.4804Z" fill="white"/>
<path d="M60.9901 85.4224C57.4219 87.5483 51.5672 87.4767 47.9006 85.2765C45.63 83.8914 44.7423 82.0706 45.2134 80.3173C44.6584 82.1103 45.5454 84.0407 47.8786 85.4509C51.5658 87.696 57.4205 87.7676 60.9681 85.5968C62.3324 84.7872 63.1755 83.7324 63.4334 82.6265C63.0923 83.6624 62.2705 84.6525 60.9901 85.4224Z" fill="white"/>
<path d="M66.9754 78.9326L66.8977 76.53L66.1026 76.5397C65.593 75.8048 64.8028 75.0805 63.801 74.5171C59.6787 72.013 53.132 71.935 49.1643 74.3585C48.1783 74.9463 47.4722 75.6458 46.9999 76.3568L46.2048 76.3666L46.2825 78.7692V78.7692C46.342 80.3876 47.3604 81.9799 49.4331 83.257C53.5554 85.7611 60.1021 85.839 64.0698 83.4156C66.0655 82.1677 67.0349 80.551 66.9754 78.9326Z" fill="#755930"/>
<path fill-rule="evenodd" clip-rule="evenodd" d="M66.957 79.0795L66.886 76.6811L66.0883 76.6932C65.5792 75.961 64.7885 75.2402 63.7851 74.6808C59.6568 72.1931 53.0892 72.1346 49.1017 74.5658C48.1108 75.1555 47.4004 75.856 46.9245 76.5672L46.1269 76.5793L46.1979 78.9776V78.9776C46.2529 80.5932 47.2699 82.1797 49.3456 83.4485C53.474 85.9362 60.0416 85.9946 64.0291 83.5635C66.0349 82.3118 67.012 80.695 66.957 79.0795Z" fill="url(#paint29_linear)"/>
<path d="M56.4106 70.2876C62.1678 70.3315 66.8961 73.121 66.9718 76.518C67.0474 79.9151 62.4416 82.6334 56.6845 82.5895C50.9273 82.5456 46.199 79.7562 46.1233 76.3591C46.0477 72.962 50.6535 70.2437 56.4106 70.2876Z" fill="#BCD5FF"/>
<path d="M56.4106 70.2876C62.1678 70.3315 66.8961 73.121 66.9718 76.518C67.0474 79.9151 62.4416 82.6334 56.6845 82.5895C50.9273 82.5456 46.199 79.7562 46.1233 76.3591C46.0477 72.962 50.6535 70.2437 56.4106 70.2876Z" fill="url(#paint30_linear)"/>
<path fill-rule="evenodd" clip-rule="evenodd" d="M56.6835 81.786C61.5265 81.8174 65.474 79.5477 65.4101 76.5524C65.3467 73.577 61.3243 71.2688 56.4911 71.2375C51.6481 71.2062 47.7006 73.4759 47.7645 76.4711C47.8279 79.4465 51.8503 81.7548 56.6835 81.786ZM56.6956 80.8299C52.3058 80.8015 48.7599 78.7667 48.7104 76.4444C48.6613 74.1419 52.0989 72.1653 56.4789 72.1937C60.8687 72.2221 64.4147 74.2569 64.4642 76.5792C64.5133 78.8817 61.0756 80.8583 56.6956 80.8299Z" fill="white" fill-opacity="0.5"/>
<path d="M53.2036 76.5009L59.9332 76.5862L59.9187 75.389L53.1891 75.3037L53.2036 76.5009Z" fill="white"/>
<path d="M64.0258 80.8887C60.0478 83.2549 53.5208 83.1752 49.4332 80.7263C46.9018 79.1846 45.9121 77.1579 46.4373 75.2063C45.8186 77.202 46.8075 79.3508 49.4086 80.9204C53.5192 83.4193 60.0462 83.499 64.0013 81.0828C65.5223 80.1817 66.4622 79.0076 66.7497 77.7767C66.3694 78.9297 65.4533 80.0318 64.0258 80.8887Z" fill="white"/>
</g>
<defs>
<linearGradient id="paint0_linear" x1="-54.9751" y1="74.7081" x2="-15.9238" y2="166.181" gradientUnits="userSpaceOnUse">
<stop stop-color="#FAD961"/>
<stop offset="1" stop-color="#F76B1C"/>
</linearGradient>
<linearGradient id="paint1_linear" x1="-54.9751" y1="78.6568" x2="-15.9238" y2="170.13" gradientUnits="userSpaceOnUse">
<stop stop-color="#FAD961"/>
<stop offset="1" stop-color="#F76B1C"/>
</linearGradient>
<linearGradient id="paint2_linear" x1="19.7791" y1="82.017" x2="53.4816" y2="82.0272" gradientUnits="userSpaceOnUse">
<stop stop-color="#148A9E"/>
<stop offset="1" stop-color="#087DC2"/>
</linearGradient>
<linearGradient id="paint3_linear" x1="-24.0949" y1="75.7999" x2="3.40607" y2="139.977" gradientUnits="userSpaceOnUse">
<stop stop-color="#FAD961"/>
<stop offset="1" stop-color="#F76B1C"/>
</linearGradient>
<linearGradient id="paint4_linear" x1="-23.5155" y1="75.8656" x2="4.03903" y2="139.809" gradientUnits="userSpaceOnUse">
<stop stop-color="#FAD961"/>
<stop offset="1" stop-color="#F76B1C"/>
</linearGradient>
<linearGradient id="paint5_linear" x1="69.9821" y1="99.3251" x2="82.9583" y2="67.9446" gradientUnits="userSpaceOnUse">
<stop stop-color="#C18A51"/>
<stop offset="1" stop-color="#EAA341"/>
</linearGradient>
<linearGradient id="paint6_linear" x1="57.0444" y1="90.1784" x2="80.9554" y2="90.3896" gradientUnits="userSpaceOnUse">
<stop stop-color="#FFF0B8"/>
<stop offset="1" stop-color="#FFBE68"/>
</linearGradient>
<linearGradient id="paint7_linear" x1="66.9535" y1="96.2565" x2="79.9297" y2="64.876" gradientUnits="userSpaceOnUse">
<stop stop-color="#C18A51"/>
<stop offset="1" stop-color="#EAA341"/>
</linearGradient>
<linearGradient id="paint8_linear" x1="54.0159" y1="87.1098" x2="77.9269" y2="87.321" gradientUnits="userSpaceOnUse">
<stop stop-color="#FFF0B8"/>
<stop offset="1" stop-color="#FFBE68"/>
</linearGradient>
<linearGradient id="paint9_linear" x1="69.7865" y1="93.8288" x2="84.2137" y2="58.8839" gradientUnits="userSpaceOnUse">
<stop stop-color="#C18A51"/>
<stop offset="1" stop-color="#EAA341"/>
</linearGradient>
<linearGradient id="paint10_linear" x1="55.3632" y1="83.6478" x2="82.0201" y2="83.8837" gradientUnits="userSpaceOnUse">
<stop stop-color="#FFF0B8"/>
<stop offset="1" stop-color="#FFBE68"/>
</linearGradient>
<linearGradient id="paint11_linear" x1="69.9821" y1="87.3749" x2="82.9582" y2="55.9944" gradientUnits="userSpaceOnUse">
<stop stop-color="#C18A51"/>
<stop offset="1" stop-color="#EAA341"/>
</linearGradient>
<linearGradient id="paint12_linear" x1="57.0444" y1="78.2282" x2="80.9554" y2="78.4394" gradientUnits="userSpaceOnUse">
<stop stop-color="#FFF0B8"/>
<stop offset="1" stop-color="#FFBE68"/>
</linearGradient>
<linearGradient id="paint13_linear" x1="69.0143" y1="83.7868" x2="81.9905" y2="52.4063" gradientUnits="userSpaceOnUse">
<stop stop-color="#C18A51"/>
<stop offset="1" stop-color="#EAA341"/>
</linearGradient>
<linearGradient id="paint14_linear" x1="56.0767" y1="74.6401" x2="79.9877" y2="74.8513" gradientUnits="userSpaceOnUse">
<stop stop-color="#FFF0B8"/>
<stop offset="1" stop-color="#FFBE68"/>
</linearGradient>
<linearGradient id="paint15_linear" x1="69.7865" y1="81.8786" x2="84.2137" y2="46.9337" gradientUnits="userSpaceOnUse">
<stop stop-color="#C18A51"/>
<stop offset="1" stop-color="#EAA341"/>
</linearGradient>
<linearGradient id="paint16_linear" x1="55.3632" y1="71.6976" x2="82.0201" y2="71.9335" gradientUnits="userSpaceOnUse">
<stop stop-color="#FFF0B8"/>
<stop offset="1" stop-color="#FFBE68"/>
</linearGradient>
<linearGradient id="paint17_linear" x1="50.4037" y1="98.5456" x2="63.3799" y2="67.1651" gradientUnits="userSpaceOnUse">
<stop stop-color="#C18A51"/>
<stop offset="1" stop-color="#EAA341"/>
</linearGradient>
<linearGradient id="paint18_linear" x1="37.4661" y1="89.3988" x2="61.3771" y2="89.6101" gradientUnits="userSpaceOnUse">
<stop stop-color="#FFF0B8"/>
<stop offset="1" stop-color="#FFBE68"/>
</linearGradient>
<linearGradient id="paint19_linear" x1="47.3751" y1="95.477" x2="60.3513" y2="64.0965" gradientUnits="userSpaceOnUse">
<stop stop-color="#C18A51"/>
<stop offset="1" stop-color="#EAA341"/>
</linearGradient>
<linearGradient id="paint20_linear" x1="34.4375" y1="86.3302" x2="58.3485" y2="86.5415" gradientUnits="userSpaceOnUse">
<stop stop-color="#FFF0B8"/>
<stop offset="1" stop-color="#FFBE68"/>
</linearGradient>
<linearGradient id="paint21_linear" x1="50.2081" y1="93.0493" x2="64.6353" y2="58.1044" gradientUnits="userSpaceOnUse">
<stop stop-color="#C18A51"/>
<stop offset="1" stop-color="#EAA341"/>
</linearGradient>
<linearGradient id="paint22_linear" x1="35.7848" y1="82.8685" x2="62.4418" y2="83.1044" gradientUnits="userSpaceOnUse">
<stop stop-color="#FFF0B8"/>
<stop offset="1" stop-color="#FFBE68"/>
</linearGradient>
<linearGradient id="paint23_linear" x1="51.2386" y1="88.633" x2="65.6658" y2="53.6881" gradientUnits="userSpaceOnUse">
<stop stop-color="#C18A51"/>
<stop offset="1" stop-color="#EAA341"/>
</linearGradient>
<linearGradient id="paint24_linear" x1="36.8153" y1="78.4522" x2="63.4723" y2="78.688" gradientUnits="userSpaceOnUse">
<stop stop-color="#FFF0B8"/>
<stop offset="1" stop-color="#FFBE68"/>
</linearGradient>
<linearGradient id="paint25_linear" x1="62.2538" y1="107.119" x2="75.23" y2="75.7381" gradientUnits="userSpaceOnUse">
<stop stop-color="#C18A51"/>
<stop offset="1" stop-color="#EAA341"/>
</linearGradient>
<linearGradient id="paint26_linear" x1="49.3162" y1="97.9718" x2="73.2272" y2="98.1831" gradientUnits="userSpaceOnUse">
<stop stop-color="#FFF0B8"/>
<stop offset="1" stop-color="#FFBE68"/>
</linearGradient>
<linearGradient id="paint27_linear" x1="59.2252" y1="104.05" x2="72.2014" y2="72.6694" gradientUnits="userSpaceOnUse">
<stop stop-color="#C18A51"/>
<stop offset="1" stop-color="#EAA341"/>
</linearGradient>
<linearGradient id="paint28_linear" x1="46.2876" y1="94.9032" x2="70.1986" y2="95.1145" gradientUnits="userSpaceOnUse">
<stop stop-color="#FFF0B8"/>
<stop offset="1" stop-color="#FFBE68"/>
</linearGradient>
<linearGradient id="paint29_linear" x1="62.0582" y1="101.622" x2="76.4854" y2="66.6774" gradientUnits="userSpaceOnUse">
<stop stop-color="#C18A51"/>
<stop offset="1" stop-color="#EAA341"/>
</linearGradient>
<linearGradient id="paint30_linear" x1="47.6349" y1="91.4415" x2="74.2919" y2="91.6774" gradientUnits="userSpaceOnUse">
<stop stop-color="#FFF0B8"/>
<stop offset="1" stop-color="#FFBE68"/>
</linearGradient>
</defs>
</svg>
