<svg width="100" height="117" viewBox="0 0 100 117" fill="none" xmlns="http://www.w3.org/2000/svg">
<path opacity="0.3" d="M53.5897 109.926C79.2214 109.926 100 98.0242 100 83.3429C100 68.6616 79.2214 56.7601 53.5897 56.7601C27.958 56.7601 7.17944 68.6616 7.17944 83.3429C7.17944 98.0242 27.958 109.926 53.5897 109.926Z" fill="url(#paint0_linear)"/>
<path opacity="0.3" d="M53.5897 113.52C79.2214 113.52 100 101.619 100 86.9375C100 72.2562 79.2214 60.3547 53.5897 60.3547C27.958 60.3547 7.17944 72.2562 7.17944 86.9375C7.17944 101.619 27.958 113.52 53.5897 113.52Z" fill="url(#paint1_linear)"/>
<path opacity="0.01" d="M66.4786 17.9729C66.4786 10.0991 60.1026 3.73157 52.2564 3.73157C44.3932 3.73157 38.0342 10.1162 38.0342 17.9729C38.0342 25.8468 44.4103 32.2143 52.2564 32.2143C60.1197 32.2143 66.4786 25.8297 66.4786 17.9729Z" fill="#F77723"/>
<path opacity="0.1039" d="M64.7522 17.973C64.7522 11.0577 59.1625 5.46045 52.2565 5.46045C45.3505 5.46045 39.7607 11.0577 39.7607 17.973C39.7607 24.8883 45.3505 30.4856 52.2565 30.4856C59.1625 30.4856 64.7522 24.8883 64.7522 17.973Z" fill="#F77723"/>
<path opacity="0.2078" d="M63.0426 17.973C63.0426 12.0162 58.2221 7.17212 52.2563 7.17212C46.3076 7.17212 41.47 11.9991 41.47 17.973C41.47 23.9297 46.2905 28.7738 52.2563 28.7738C58.205 28.7567 63.0426 23.9297 63.0426 17.973Z" fill="#F77723"/>
<path opacity="0.3117" d="M61.3162 17.9729C61.3162 12.9576 57.2649 8.90088 52.2564 8.90088C47.2478 8.90088 43.1965 12.9576 43.1965 17.9729C43.1965 22.9882 47.2478 27.0449 52.2564 27.0449C57.2649 27.0278 61.3162 22.9711 61.3162 17.9729Z" fill="#F77723"/>
<path opacity="0.4156" d="M59.5898 17.973C59.5898 13.9162 56.3077 10.6298 52.2564 10.6298C48.2051 10.6298 44.9231 13.9162 44.9231 17.973C44.9231 22.0297 48.2051 25.3162 52.2564 25.3162C56.3077 25.2991 59.5898 22.0126 59.5898 17.973Z" fill="#F77723"/>
<path opacity="0.5195" d="M57.8633 17.9729C57.8633 14.8747 55.3505 12.3585 52.2565 12.3585C49.1625 12.3585 46.6497 14.8747 46.6497 17.9729C46.6497 21.0711 49.1625 23.5873 52.2565 23.5873C55.3505 23.5873 57.8633 21.0711 57.8633 17.9729Z" fill="#F77723"/>
<path opacity="0.6234" d="M56.1367 17.973C56.1367 15.8162 54.3931 14.0874 52.2563 14.0874C50.1196 14.0703 48.376 15.8162 48.376 17.973C48.376 20.1126 50.1196 21.8585 52.2563 21.8585C54.4102 21.8585 56.1367 20.1126 56.1367 17.973Z" fill="#F77723"/>
<path opacity="0.7273" d="M54.4102 17.9729C54.4102 16.7747 53.4359 15.8162 52.2564 15.8162C51.0598 15.8162 50.1025 16.7918 50.1025 17.9729C50.1025 19.1711 51.0769 20.1297 52.2564 20.1297C53.453 20.1297 54.4102 19.154 54.4102 17.9729Z" fill="#F77723"/>
<g opacity="0.6">
<g opacity="0.5">
<path d="M64.94 67.2529L67.2135 65.9349L66.1707 64.4971L63.8801 65.8322L64.94 67.2529Z" fill="#FF445F"/>
<path d="M65.9998 67.0475L68.2733 65.7295L67.2134 65.9349L64.9399 67.2529L65.9998 67.0475Z" fill="#FF445F"/>
<path d="M71.5553 64.8565L73.8459 63.5214C71.0425 65.1475 68.5297 65.6781 68.2904 65.7295L65.9998 67.0646C66.222 67.0132 68.7519 66.4826 71.5553 64.8565Z" fill="#FF445F"/>
<path d="M71.5553 64.8565L73.8459 63.5214C71.0425 65.1475 68.5297 65.6781 68.2904 65.7295L65.9998 67.0646C66.222 67.0132 68.7519 66.4826 71.5553 64.8565Z" fill="#FF445F"/>
<path d="M52.6152 18.3324L54.9058 17.0144L52.9229 15.7991L50.6323 17.1171L52.6152 18.3324Z" fill="#FF445F"/>
<path d="M71.5554 64.8566L73.846 63.5214C77.5383 61.3647 81.7264 57.2908 81.7434 49.8792L79.4528 51.2143C79.4187 58.626 75.2477 62.6998 71.5554 64.8566Z" fill="#FF445F"/>
<path d="M71.5554 64.8566L73.846 63.5214C77.5383 61.3647 81.7264 57.2908 81.7434 49.8792L79.4528 51.2143C79.4187 58.626 75.2477 62.6998 71.5554 64.8566Z" fill="#FF445F"/>
<path d="M71.5383 65.37L73.8289 64.0349C77.5212 61.8781 81.7093 57.8043 81.7264 50.3926L79.4358 51.7277C79.4187 59.1394 75.2477 63.2132 71.5383 65.37Z" fill="#FF445F"/>
<path d="M71.5383 65.37L73.8289 64.0349C77.5212 61.8781 81.7093 57.8043 81.7264 50.3926L79.4358 51.7277C79.4187 59.1394 75.2477 63.2132 71.5383 65.37Z" fill="#FF445F"/>
<path d="M63.7263 18.709L66.0169 17.3739C65.9998 17.391 63.5725 18.8117 61.0255 18.6748C57.6238 18.4865 55.3503 17.2541 54.9229 16.9973L52.6323 18.3324C53.0597 18.5721 55.3332 19.8045 58.7349 20.0099C61.2648 20.1469 63.6922 18.7261 63.7263 18.709Z" fill="#FF445F"/>
<path d="M63.7263 18.709L66.0169 17.3739C65.9998 17.391 63.5725 18.8117 61.0254 18.6748C59.4528 18.5892 58.1195 18.2811 57.0938 17.9388L54.8032 19.2739C55.8289 19.6162 57.1622 19.9243 58.7348 20.0099C61.2648 20.1469 63.6921 18.7261 63.7263 18.709Z" fill="#FF445F"/>
<path d="M54.8033 19.2739L57.0939 17.9388C55.9144 17.5451 55.1451 17.1343 54.9229 16.9973L52.6323 18.3324C52.8545 18.4694 53.6067 18.8973 54.8033 19.2739Z" fill="#FF445F"/>
<path d="M66.4271 20.2666L68.7006 18.9486L67.3673 16.5693L65.0767 17.9045L66.4271 20.2666Z" fill="#FF445F"/>
<path d="M77.5213 32.7279L79.8119 31.3927C79.3503 31.136 77.0768 29.7153 73.6751 25.9837C71.1452 23.1937 68.7349 18.9658 68.7008 18.9315L66.4102 20.2666C66.4273 20.3009 68.8375 24.5288 71.3845 27.3189C74.7862 31.0675 77.0597 32.4711 77.5213 32.7279Z" fill="#FF445F"/>
<path d="M77.5213 32.7279L79.8119 31.3927C79.3503 31.136 77.0768 29.7153 73.6751 25.9837C71.1452 23.1937 68.7349 18.9658 68.7008 18.9315L66.4102 20.2666C66.4273 20.3009 68.8375 24.5288 71.3845 27.3189C74.7862 31.0675 77.0597 32.4711 77.5213 32.7279Z" fill="#FF445F"/>
<path d="M79.4358 51.7277L81.7264 50.3926L81.7777 32.9674L79.4871 34.2854L79.4358 51.7277Z" fill="#FF445F"/>
<path d="M79.4358 51.2142L81.7264 49.879L81.7777 32.9674L79.4871 34.2854L79.4358 51.2142Z" fill="#FF445F"/>
<path d="M79.4871 34.2855L81.7777 32.9675V32.4369L79.4871 33.772V34.2855Z" fill="#FF445F"/>
<path d="M79.4871 33.7719L81.7776 32.4368L79.7947 31.4098L77.5212 32.7278L79.4871 33.7719Z" fill="#FF445F"/>
</g>
<g opacity="0.8">
<path d="M70.5983 28.8594C67.6923 25.6585 65.1966 21.2423 65.0598 21.0198L64.9402 64.6511C65.5727 64.5313 77.5214 62.152 77.5556 50.1359L77.6068 34.9702C77.6068 34.9702 77.5727 34.953 77.4872 34.9017C76.906 34.5594 74.3077 32.9332 70.5983 28.8594Z" fill="#F77723"/>
</g>
<path fill-rule="evenodd" clip-rule="evenodd" d="M58.7179 20.0099C55.3162 19.8045 53.0427 18.572 52.6153 18.3324L50.6324 17.1L50.6153 19.3252L50.564 34.4909C50.5298 47.5341 63.3333 65.079 63.8803 65.8151L64.9401 67.2529L65.9999 67.0475L66.0142 67.0444C66.7381 66.8868 79.419 64.1261 79.4529 51.1971L79.5042 34.2855V33.772L77.5213 32.7278C77.0598 32.454 74.7692 31.0504 71.3845 27.3188C68.8375 24.5288 66.4273 20.3009 66.4102 20.2666L65.0598 17.9045L63.7093 18.709C63.7081 18.7096 63.7039 18.7119 63.6969 18.7159C63.5035 18.8245 61.1584 20.142 58.7179 20.0099ZM52.4786 36.4593C52.4615 36.1341 52.4615 35.8774 52.4615 35.6035L52.5299 20.4549C52.5299 20.4549 52.5641 20.472 52.6495 20.5234C53.2307 20.8486 55.8119 22.2351 59.5384 22.4405C62.4273 22.6117 65.094 21.0198 65.094 21.0198C65.1042 21.0364 65.1276 21.0765 65.1635 21.1379C65.6064 21.8963 67.9439 25.898 70.6324 28.8594C74.3418 32.9332 76.923 34.5594 77.5042 34.8846C77.5897 34.9359 77.6239 34.953 77.6239 34.953L77.5726 50.1187C77.5384 62.1349 65.5897 64.5142 64.9572 64.634C64.923 64.5998 53.8461 49.5539 52.5812 37.7602C52.5641 37.6747 52.547 37.5891 52.547 37.5035C52.5128 37.1098 52.4957 36.7846 52.4786 36.4593Z" fill="url(#paint2_linear)"/>
<g opacity="0.8">
<path d="M65.0597 21.0026C64.923 21.0882 62.4101 22.5945 59.5042 22.4233C55.7777 22.2179 53.1965 20.8314 52.6153 20.5062C52.5298 20.4549 52.4956 20.4377 52.4956 20.4377L52.4614 35.6034C52.4614 35.8773 52.4614 36.1341 52.4785 36.4079C52.4956 36.7674 52.5127 37.0926 52.5469 37.4178C52.564 37.5719 52.564 37.6575 52.5811 37.7431C53.8631 49.5538 64.393 63.8637 64.9572 64.6168L65.0597 21.0026Z" fill="#FFA164"/>
</g>
</g>
<path opacity="0.2" d="M89.6411 89.7446C89.5044 89.0428 89.1796 88.5293 88.718 88.2041C88.718 88.2041 88.701 88.2041 88.701 88.187C88.5813 88.1014 88.4616 88.0329 88.3249 87.9816C86.8719 87.1771 84.8548 85.8077 83.5215 85.1401C79.2309 83.0005 74.9061 80.3474 71.4189 77.7285L64.6668 87.2455V78.3447C63.3505 77.8141 62.0001 77.3177 60.6497 76.8555C59.1967 76.3591 57.6924 75.9141 56.1369 75.9141C54.171 75.9312 52.3078 76.6843 50.3933 77.078C48.6155 77.4375 46.7693 77.4717 44.9916 77.8312C43.3676 78.1564 41.8633 79.0978 40.2052 79.1663C33.5386 79.3888 25.6924 77.8483 22.7693 79.7483C21.4702 80.587 21.6069 82.8293 22.171 83.4284C22.7351 84.0275 23.5898 84.2158 24.4104 84.3185C29.0428 84.8492 35.983 85.2257 42.0685 84.2843C37.7608 85.5338 32.5984 85.7564 28.0685 86.0645C27.3334 85.9104 26.4104 86.1158 26.0001 86.5609C25.6069 86.9888 25.4189 87.4167 25.4189 88.05C25.4189 88.1185 25.4189 88.1699 25.4189 88.2212C25.4702 89.0942 25.9317 89.7104 26.5129 90.0527C26.6155 90.1212 26.9232 90.241 27.2651 90.3266C28.9232 91.0113 31.8121 91.5248 33.5044 91.5933C36.4275 91.7131 39.3676 91.2167 42.2907 91.2509C43.0086 91.268 43.8292 91.3708 44.171 92.0041C42.3249 92.8086 40.342 93.0482 38.3249 93.2194C38.3249 93.2194 37.2651 96.8824 39.2309 97.6527C40.7693 98.2518 43.2309 98.0635 45.6582 97.8239C45.7266 98.4743 45.7779 99.1077 45.9659 99.741C46.0514 100.015 46.1539 100.272 46.2565 100.528C46.2565 100.545 46.2736 100.545 46.2736 100.563C46.2907 100.614 46.3249 100.665 46.342 100.717C46.4104 100.836 46.4616 100.973 46.53 101.093C46.6326 101.299 46.7522 101.487 46.889 101.675C47.3676 102.309 48.0685 102.668 48.701 102.685C48.8206 102.685 48.9403 102.685 49.0428 102.668V102.685C54.5642 101.983 64.6155 97.8239 64.6155 97.8239C66.53 98.8509 68.2565 100.015 69.9659 101.162C71.4189 102.137 73.7608 103.678 75.3847 104.654C75.4189 104.671 75.4531 104.688 75.4702 104.705C75.5044 104.722 75.5386 104.739 75.5728 104.773C77.1625 105.561 80.0343 104.534 83.077 101.863C87.3163 98.2004 90.2394 92.7572 89.6411 89.7446Z" fill="#1C4B5F"/>
<path d="M45.282 84.2844C45.2991 84.2844 45.2991 84.2673 45.3162 84.2673L45.282 84.2159L45.2478 84.233L45.282 84.2844Z" fill="#FFCDB3"/>
<path d="M74.4272 68.3312C78.6153 71.4636 83.7777 74.6131 88.8888 77.1807C90.6495 78.0537 93.3845 79.9365 95.111 80.8437C94.8888 80.9978 85.0768 87.4338 84.1879 88.5806C82.393 90.9086 80.9401 93.4932 79.7606 96.1635C79.2136 97.3959 79.8802 99.3644 79.4529 100.648C77.5042 99.5013 74.5469 97.5671 72.7349 96.3347C70.3759 94.7428 68.017 93.1509 65.299 91.7986C63.5383 90.9257 61.7093 90.1725 59.8802 89.4878C59.7606 89.4365 59.6238 89.4023 59.5042 89.3509L74.4272 68.3312Z" fill="#FFBC99"/>
<path d="M52.6325 83.7023H46.9743V69.4438C48.8205 68.742 51.5213 67.7663 52.3248 67.4925C53.4359 67.0988 54.2051 66.1573 54.359 64.9934C54.7179 62.3916 52.547 60.5429 50.5299 59.379C48.3419 58.1294 45.6068 57.0339 44.6496 54.4664C44.4102 53.8159 44.359 53.1313 44.376 52.4466C44.3931 51.916 44.3931 51.2484 44.735 50.8033C45.1624 50.2727 45.8632 50.4268 46.4273 50.6151C47.094 50.8547 47.7436 51.1286 48.4102 51.3853C51.3846 52.5664 54.1709 54.261 57.1282 55.3394C60.2051 56.452 66.7863 59.0709 66.7863 59.0709C66.7863 59.0709 76.1367 65.1645 77.2649 71.7546C77.6923 74.2879 77.9145 76.7699 78.376 79.2347C78.7179 81.032 79.641 82.6753 80.1538 84.4383C80.6666 86.2014 80.7008 88.3068 79.4701 89.659C78.8034 90.4122 77.8461 90.823 76.8889 91.1482C75.2308 91.7131 64.2735 93.4932 62.8718 94.1094C60.8889 94.9995 56.3931 95.4617 52.6325 95.6671V83.7023Z" fill="#F8C5AA"/>
<path d="M22.0171 78.3105C27.5897 77.8997 34.0341 77.6771 39.3846 76.1366C32.1196 77.2663 23.8461 76.8042 18.3076 76.188C17.3333 76.0853 16.3076 75.8456 15.641 75.1267C14.9743 74.4078 14.8205 71.7375 16.3589 70.7276C19.8461 68.4511 29.2136 70.2997 37.1794 70.0258C39.1623 69.9574 40.9572 68.8276 42.8888 68.4339C45.0256 68.006 47.2136 67.9718 49.3333 67.5439C51.6239 67.0817 53.8632 66.1745 56.2051 66.1574C58.0512 66.1403 59.8461 66.688 61.5897 67.2871C63.1965 67.8348 64.8034 68.4339 66.376 69.0673V93.4419C59.8461 94.8113 54.376 97.3275 47.7777 98.1662L46.9572 92.6374H46.1538C46.2222 92.4663 46.2051 92.278 46.0854 92.1239C42.5128 92.4149 38.3931 93.0482 36.0512 92.1239C33.6923 91.1996 34.9572 86.8176 34.9572 86.8176C37.3675 86.6122 39.7435 86.3041 41.9316 85.3627C41.5213 84.6267 40.5299 84.4897 39.6752 84.4726C36.1709 84.4213 32.6837 85.0204 29.1794 84.8834C27.0598 84.7978 23.3333 84.1132 21.4188 83.2231L22.0171 78.3105Z" fill="#FFCDB3"/>
<path d="M19.5212 80.8609C19.5212 80.7924 19.5212 80.724 19.5212 80.6555C19.5212 79.9023 19.7435 79.3888 20.205 78.8753C21.0597 77.9339 23.7264 77.9339 23.9486 79.3546C24.1366 80.587 24.0512 82.0762 23.299 83.0861C22.7349 83.8392 21.1452 83.223 20.8204 83.0519C20.1366 82.6239 19.5896 81.905 19.5212 80.8609Z" fill="#FFCDB3"/>
<path d="M17.3333 70.2483C21.3846 68.742 29.8632 70.2826 37.1794 70.0258C39.1623 69.9574 40.9572 68.8276 42.8888 68.4339C45.0256 68.006 47.2136 67.9718 49.3333 67.5439C51.6239 67.0817 53.8632 66.1745 56.2051 66.1574C58.0512 66.1403 59.8461 66.688 61.5897 67.2871C63.1965 67.8348 64.8034 68.4339 66.376 69.0673V91.1996C65.9829 90.7717 65.5555 90.3609 65.0769 90.0014C58.2906 84.6095 49.6068 84.3528 41.4017 84.8492C40.923 84.5582 40.2564 84.4897 39.6581 84.4726C37.7777 84.4384 35.8974 84.6095 34.0341 84.7294C33.7265 83.9933 33.2478 83.3771 32.5812 82.9834C29.8803 81.2888 26.735 80.3474 24.6495 78.1393C29.5555 77.8141 34.8717 77.4375 39.4017 76.1366C33.1794 77.1123 26.2051 76.9069 20.8547 76.4276C18.4273 74.9384 16.3418 73.0555 17.3333 70.2483Z" fill="#FFBC99"/>
<path d="M65.0769 90.0014C65.5385 90.3608 65.9658 90.7716 66.3761 91.1996V93.4419C64.0684 93.9212 61.8974 94.5545 59.7607 95.1878C57.1453 91.1996 52.6496 88.0843 47.6752 88.7005C47.4701 88.7689 47.1966 88.8374 47.0598 88.9743C46.6667 89.6419 46.4615 90.6176 47.1282 91.2338C46.4445 91.2509 45.7436 91.6104 45.3675 92.1752C44.8547 92.2266 44.3419 92.2779 43.8291 92.3293C43.8291 92.2095 43.812 92.0896 43.7949 91.9698C43.5898 90.7374 42.1709 90.1383 41.2137 89.3167C40.2906 88.4951 40.2051 86.9032 40.8718 85.7563C41.2308 85.6365 41.5727 85.4996 41.9145 85.3626C41.7949 85.1401 41.6068 84.9689 41.4017 84.8491C49.6068 84.3527 58.2906 84.5924 65.0769 90.0014Z" fill="#FFBC99"/>
<path d="M47.6752 88.7006C52.6667 88.0844 57.1453 91.1997 59.7607 95.1879C57.7949 95.787 55.8804 96.3861 53.8975 96.9168C53.8633 96.7627 53.8291 96.6086 53.7778 96.4717C53.2308 94.8456 51.4017 94.3663 50.171 93.2024C49.4188 92.4492 48.7351 91.5762 47.6581 91.3024C47.4872 91.251 47.2992 91.251 47.1282 91.251C46.4616 90.6348 46.6496 89.6591 47.0599 88.9916C47.1966 88.8375 47.4701 88.769 47.6752 88.7006Z" fill="#FFBC99"/>
<path d="M14.5811 67.8005L14.5981 71.2924C14.5981 71.7203 14.8887 72.1483 15.4529 72.4906L15.4358 68.9987C14.8717 68.6564 14.5811 68.2285 14.5811 67.8005Z" fill="#CDD1F6"/>
<path d="M14.5811 67.8005L14.5981 71.2924C14.5981 71.7203 14.8887 72.1483 15.4529 72.4906L15.4358 68.9987C14.8717 68.6564 14.5811 68.2285 14.5811 67.8005Z" fill="#CDD1F6"/>
<path d="M85.6067 83.2573L85.5896 79.7654C85.5896 80.2104 85.299 80.6384 84.7178 80.9807L84.7349 84.4726C85.3161 84.1302 85.6067 83.7023 85.6067 83.2573Z" fill="#CDD1F6"/>
<path d="M84.7349 80.9636L84.752 84.4555C85.3332 84.1303 85.6238 83.6852 85.6238 83.2402L85.6067 79.7483C85.6067 80.1933 85.3161 80.6384 84.7349 80.9636Z" fill="#CDD1F6"/>
<path d="M15.4358 68.9816L15.4529 72.4906L58.3247 97.1905V93.6986L15.4358 68.9816Z" fill="#CDD1F6"/>
<path d="M62.4956 93.6987L62.5127 97.1906L84.7349 84.4726V80.9636L62.4956 93.6987Z" fill="#CDD1F6"/>
<path d="M58.3247 93.6987L58.3418 97.1906C59.4871 97.8582 61.3674 97.8582 62.5298 97.1906L62.5127 93.6987C61.3503 94.3663 59.47 94.3663 58.3247 93.6987Z" fill="#CDD1F6"/>
<path d="M58.3247 93.6987L58.3418 97.1906C59.4871 97.8582 61.3674 97.8582 62.5298 97.1906L62.5127 93.6987C61.3503 94.3663 59.47 94.3663 58.3247 93.6987Z" fill="#CDD1F6"/>
<path d="M43.9825 55.0826L17.5552 70.2141L53.7603 91.0798L80.1876 75.9483L43.9825 55.0826Z" fill="#119CED"/>
<path d="M41.863 53.8502C40.7177 53.1826 38.8374 53.1826 37.675 53.8502L15.4528 66.5852C14.3075 67.2528 14.2904 68.3312 15.4357 68.9816L17.5553 70.1969L43.9827 55.0826L41.863 53.8502Z" fill="#F5F5FD"/>
<path d="M84.752 78.5672L80.2049 75.9482L53.7605 91.0797L58.3075 93.6986C59.4528 94.3662 61.3331 94.3662 62.4955 93.6986L84.7349 80.9635C85.8802 80.3131 85.8973 79.2347 84.752 78.5672Z" fill="#F5F5FD"/>
<path d="M73.0254 85.7733L70.0852 87.6049C69.2818 88.1184 67.9656 88.1697 67.145 87.7247C66.3245 87.2796 66.2903 86.5265 67.0938 86.0301L70.0339 84.1814C70.8374 83.6679 72.1536 83.6337 72.9741 84.0787C73.8117 84.5067 73.8288 85.2769 73.0254 85.7733Z" fill="url(#paint3_linear)"/>
<path d="M80.0513 86.4924L82.3761 85.0546V83.4285L80.0513 84.8663V86.4924Z" fill="#F5F5FD"/>
<path d="M81.8974 84.7808L80.1538 85.8934V86.3213L82.2735 85.0033V84.9862L81.8974 84.7808Z" fill="#5C697C"/>
<path d="M80.1538 84.9175V85.8932L81.8974 84.7806V83.8049L81.8119 83.8563L80.1538 84.9175Z" fill="#1B1B1B"/>
<path d="M80.1538 85.0718V85.7564L81.8119 84.6952V84.0105L80.1538 85.0718Z" fill="#1B1823"/>
<path d="M82.2735 84.5582V83.5825L81.8975 83.805V84.7807L82.2735 84.9861V84.5582Z" fill="#404040"/>
<path d="M84.3929 83.0347C84.3929 83.5311 84.0852 84.1131 83.7091 84.3356C83.3331 84.5581 83.0254 84.3185 83.0254 83.8221C83.0254 83.3257 83.3331 82.7437 83.7091 82.5212C84.0852 82.2987 84.3929 82.5383 84.3929 83.0347Z" fill="#1B1B1B"/>
<path d="M83.1109 83.9589C83.4869 83.7364 83.7946 83.1715 83.7946 82.658C83.7946 82.5895 83.7946 82.5382 83.7775 82.4868C84.1194 82.3328 84.3929 82.5553 84.3929 83.0346C84.3929 83.531 84.0852 84.1129 83.7091 84.3355C83.3844 84.5238 83.1109 84.3697 83.0425 83.9931C83.0596 83.976 83.0767 83.976 83.1109 83.9589Z" fill="#5C697C"/>
<path d="M83.5211 84.2157C83.8971 83.9932 84.2048 83.4283 84.2048 82.9148C84.2048 82.6923 84.1365 82.5382 84.051 82.4355C84.2561 82.4698 84.3929 82.6752 84.3929 83.0175C84.3929 83.5139 84.0852 84.0959 83.7091 84.3184C83.504 84.4382 83.2989 84.4211 83.1792 84.2842C83.2818 84.3184 83.4014 84.2842 83.5211 84.2157Z" fill="#CDD1F6"/>
<path d="M25.1623 63.4528C25.1965 63.5213 25.282 63.6068 25.4017 63.6753C25.7777 63.8807 26.376 63.8636 26.735 63.624L32.3418 60.1321C32.4444 60.0636 32.5128 59.9951 32.5469 59.9267C32.6666 59.7213 32.5811 59.4987 32.3076 59.3618C31.9316 59.1564 31.3333 59.1735 30.9572 59.4132L25.3675 62.905C25.1111 63.0591 25.0427 63.2816 25.1623 63.4528Z" fill="#CDD1F6"/>
<path d="M25.1624 63.4527C25.1965 63.5212 25.282 63.6068 25.4017 63.6752C25.7777 63.8807 26.376 63.8635 26.735 63.6239L32.3418 60.132C32.4444 60.0636 32.5128 59.9951 32.547 59.9266C32.5128 59.841 32.4273 59.7554 32.3077 59.7041C31.9316 59.4987 31.3333 59.5158 30.9572 59.7554L25.3675 63.2473C25.2649 63.3158 25.1965 63.3843 25.1624 63.4527Z" fill="#21212B"/>
<path d="M16.94 67.3726C16.9571 67.5609 17.0767 67.7492 17.316 67.869C17.8289 68.16 18.6665 68.16 19.1964 67.869C19.316 67.8005 19.4186 67.7149 19.4699 67.6294C19.675 67.3555 19.5895 67.0132 19.1964 66.7906C18.6836 66.4996 17.846 66.4996 17.316 66.7906C17.0425 66.9618 16.9058 67.1672 16.94 67.3726Z" fill="#F77723"/>
<path d="M17.5554 70.2141V72.0114L53.7606 92.8771V91.0798L17.5554 70.2141Z" fill="#F77723"/>
<path opacity="0.5" d="M43.9828 55.0826L17.5554 70.2141L21.0597 72.2168L47.487 57.0853L43.9828 55.0826Z" fill="url(#paint4_linear)"/>
<path fill-rule="evenodd" clip-rule="evenodd" d="M42.0512 57.6843L39.2991 59.2591L40.564 59.9951L43.3162 58.4204L42.0512 57.6843ZM39.4529 59.2591L42.0512 57.7699L43.1623 58.4032L40.564 59.8924L39.4529 59.2591Z" fill="#CDD1F6"/>
<path d="M39.3674 59.2591L40.564 59.9438L42.4273 58.8826L41.2307 58.1979L39.3674 59.2591Z" fill="#CDD1F6"/>
<path d="M35.6409 62.2546L36.0511 62.0321L36.4956 62.2717L36.0853 62.5114L35.6409 62.2546Z" fill="#CDD1F6"/>
<path d="M34.7178 62.3573L35.128 62.1177L35.9314 62.597L35.5383 62.8195L34.7178 62.3573Z" fill="#CDD1F6"/>
<path d="M33.7947 62.46L34.1878 62.2203L35.3844 62.905L34.9913 63.1447L33.7947 62.46Z" fill="#CDD1F6"/>
<path fill-rule="evenodd" clip-rule="evenodd" d="M40.0167 60.2176C40.1877 60.1149 40.2048 59.978 39.7261 59.7041C39.3159 59.4816 39.0595 59.4816 38.9227 59.55C38.7689 59.6356 38.5979 59.7383 38.4783 59.841L38.615 59.9095L39.0082 59.687C39.1449 59.6185 39.3672 59.7212 39.4868 59.7897C39.3672 59.8239 39.2304 59.8924 39.1107 59.9608C38.9056 60.0807 38.974 60.1662 39.1107 60.2518L39.2817 60.3545C39.4697 60.4572 39.6407 60.423 39.7945 60.3374L40.0167 60.2176ZM39.3159 60.0293L39.6236 59.8581C39.7774 59.9437 39.9655 60.0635 39.8287 60.1491L39.6749 60.2347C39.6065 60.2689 39.5381 60.2861 39.4527 60.2347L39.3159 60.1491C39.2304 60.0978 39.2475 60.0635 39.3159 60.0293Z" fill="#CDD1F6"/>
<path d="M38.4782 60.0122L37.9312 60.3204L39.2475 60.6627L39.0423 60.7654L37.6235 60.3888L37.5894 60.3032L38.3073 59.9095L38.4782 60.0122Z" fill="#CDD1F6"/>
<path fill-rule="evenodd" clip-rule="evenodd" d="M37.8288 60.6284C37.9655 60.6969 37.9826 60.7654 37.8288 60.851L37.6749 60.9365C37.5211 61.0221 37.4014 61.0221 37.2817 60.9365L37.0937 60.8338C36.957 60.7654 36.9399 60.6969 37.0937 60.6113L37.2476 60.5257C37.4014 60.4402 37.5211 60.4402 37.6407 60.5257L37.8288 60.6284ZM38.2903 61.2104L38.1535 61.2789L36.3586 61.0221L36.4954 60.9365L38.2903 61.2104ZM37.5211 60.5942L37.692 60.6969C37.7433 60.7311 37.7433 60.7483 37.6749 60.7654L37.5553 60.8338C37.4698 60.8681 37.4356 60.8681 37.3843 60.8338L37.2305 60.7483C37.1621 60.714 37.1621 60.6969 37.2305 60.6627L37.3501 60.5942C37.4185 60.56 37.4527 60.56 37.5211 60.5942ZM37.5552 61.3987C37.692 61.4672 37.7091 61.5356 37.5552 61.6212L37.4014 61.7068C37.2475 61.7924 37.1279 61.7924 37.0082 61.7068L36.8202 61.6041C36.6834 61.5356 36.6664 61.4672 36.8202 61.3816L36.974 61.296C37.1279 61.2104 37.2475 61.2104 37.3672 61.296L37.5552 61.3987ZM37.2646 61.3645L37.4185 61.4501C37.4698 61.4843 37.4698 61.5185 37.4185 61.5356L37.2988 61.6041C37.2134 61.6383 37.1792 61.6383 37.1279 61.6041L36.9741 61.5185C36.9057 61.4843 36.9057 61.4672 36.9741 61.4329L37.0937 61.3645C37.1621 61.3302 37.1963 61.3302 37.2646 61.3645Z" fill="#CDD1F6"/>
<path d="M32.8374 64.2915C32.6836 64.2059 32.4272 64.2059 32.2733 64.2915C32.1195 64.3771 32.1195 64.514 32.2733 64.6167C32.4272 64.7023 32.6836 64.7023 32.8374 64.6167C32.9742 64.514 32.9742 64.3771 32.8374 64.2915Z" fill="#F5F5FD"/>
<path d="M31.9999 64.1203C32.1708 64.0176 32.376 63.9834 32.5982 63.9834V63.8293C32.3076 63.8293 32.017 63.8978 31.7948 64.0176C31.5725 64.1375 31.47 64.3086 31.47 64.4798H31.7435C31.7435 64.3429 31.8289 64.223 31.9999 64.1203Z" fill="#F5F5FD"/>
<path d="M31.5727 63.8806C31.8633 63.7095 32.2393 63.641 32.5983 63.641V63.4869C32.1539 63.4869 31.7094 63.5896 31.3676 63.7779C31.0257 63.9662 30.8547 64.223 30.8547 64.4797H31.1282C31.1453 64.2572 31.2821 64.0347 31.5727 63.8806Z" fill="#F5F5FD"/>
<path d="M31.1794 63.6581C31.5726 63.4356 32.0854 63.3158 32.5982 63.3158V63.1617C32.017 63.1617 31.4187 63.2816 30.9743 63.5383C30.5298 63.7951 30.3076 64.1374 30.3076 64.4626H30.5811C30.5811 64.1717 30.7862 63.8807 31.1794 63.6581Z" fill="#F5F5FD"/>
<path d="M23.5041 69.9572L21.8289 68.9986L24.0511 68.7932L23.5041 69.9572Z" fill="#CDD1F6"/>
<path d="M24.5469 68.5023L24.9058 67.2356L26.5811 68.1941L24.5469 68.5023Z" fill="#CDD1F6"/>
<path d="M24.4785 68.759L24.5298 68.5365L26.6323 68.2284L23.5554 69.9915L24.1195 68.7933L24.4785 68.759Z" fill="#CDD1F6"/>
<path d="M21.7776 68.9645L24.8545 67.2014L24.4272 68.7248L21.7776 68.9645Z" fill="#CDD1F6"/>
<path d="M43.9828 55.0826L17.5554 70.2141L53.7776 91.0798L80.1879 75.9312L43.9828 55.0826Z" fill="url(#paint5_linear)"/>
<path fill-rule="evenodd" clip-rule="evenodd" d="M42.2222 70.2141C41.6752 69.2556 42.1026 68.0574 44.171 68.0403C46.3819 68.0256 47.8654 68.7142 49.4272 69.4392C49.6888 69.5606 49.9525 69.683 50.2222 69.8033C50.4616 69.9231 50.1539 70.1114 49.9146 70.0087C49.6286 69.9032 49.3425 69.7844 49.0449 69.6524C50.3738 70.2589 51.7027 71.2706 50.9231 72.2339C50.171 73.1583 48.1197 72.9529 46.7863 72.6276C45.0257 72.1826 42.8718 71.3096 42.2222 70.2141ZM46.2051 69.3412C46.6667 69.4096 47.1282 69.4952 47.5727 69.615C47.3675 69.5466 47.1624 69.4781 46.9915 69.3925C46.9314 69.377 46.86 69.3578 46.7795 69.3361C46.0587 69.1417 44.6152 68.7525 44.1539 69.1529C43.5798 69.662 44.5951 70.4547 45.2521 70.8357C45.4019 70.9289 45.5636 71.0163 45.7331 71.0967C46.1746 71.3228 46.6536 71.5294 47.1624 71.6862C47.7949 71.8916 49.6752 72.3024 49.4359 71.3952C49.1966 70.488 47.7949 69.906 46.3248 69.7006C46.2798 69.695 46.234 69.6889 46.1875 69.6827L46.1874 69.6827C45.951 69.6514 45.6986 69.6179 45.4701 69.6322C45.0598 69.9231 45.0257 70.1799 45.3846 70.3853C45.7607 70.6421 46.3077 70.9844 46.8547 71.1385C47.2137 71.2412 47.7265 71.361 48.1368 71.3267C48.6838 71.2754 48.4957 71.0529 48.1539 70.8304C48.1539 70.8988 48.0342 71.0015 47.8804 70.9673C47.4017 70.8817 44.8547 70.4024 45.2821 69.8889C45.641 69.461 46.9915 69.8718 47.4188 70.043L47.5149 70.0812C48.168 70.3404 49.5575 70.8918 48.9402 71.4123C48.4957 71.806 47.4017 71.6349 46.7863 71.4808C46.4266 71.3851 46.065 71.2542 45.7331 71.0967C45.5962 71.0266 45.4628 70.9546 45.3333 70.8817C45.307 70.8671 45.2799 70.8518 45.2521 70.8357C44.8035 70.5564 44.4623 70.2249 44.3419 69.8718C44.1368 69.2727 45.5898 69.2556 46.2051 69.3412ZM46.0855 70.197C45.9659 70.043 46.0342 70.0258 46.2906 70.0943C46.6667 70.1457 46.9744 70.2655 47.2821 70.3853C47.3505 70.4024 47.6582 70.5565 47.9488 70.7105C47.265 70.5907 46.6667 70.4195 46.0855 70.197ZM48.735 69.5123C48.8034 69.5423 48.8718 69.5722 48.9402 69.5979C47.4872 68.9646 45.8291 68.2799 44.0342 68.4682C42.6496 68.588 42.4444 69.4439 42.9402 70.0943C43.3846 70.6934 44.2051 71.1727 45.1111 71.5493C46.1368 71.9772 48.6667 72.9529 49.9487 72.3366C50.9573 71.8403 50.2222 70.8646 49.4701 70.4367C49.3675 70.3682 49.265 70.3168 49.1624 70.2655C49.4017 70.4195 49.6068 70.5907 49.7778 70.779C50.1538 71.2069 50.3077 71.9772 49.4359 72.2682C48.0684 72.7132 46.2564 71.9601 45.265 71.4466C44.3248 70.9673 42.2735 69.6322 43.5897 68.8961C44.9231 68.143 47.2821 68.9646 48.5299 69.4268C48.5983 69.4524 48.6667 69.4824 48.735 69.5123Z" fill="#F5F5FD"/>
<path d="M50.6153 70.3169C50.9743 70.8304 51.5384 71.1899 51.641 71.789C51.8119 72.8674 50.3076 72.9701 48.923 73.0899C48.7863 73.107 48.7521 73.1926 48.8717 73.2439C49.8461 73.552 51.7264 73.2953 52.0341 72.6106C52.3589 71.8917 51.9316 70.6592 50.7008 70.2998C50.6495 70.2656 50.5982 70.2827 50.6153 70.3169Z" fill="#F5F5FD"/>
<path d="M43.5726 67.8863C43.8974 67.8692 44.2392 67.8863 44.5127 67.9205C46.6153 68.0746 48.6666 68.9818 50.205 69.7691C51.6922 70.5394 55.6751 74.2538 51.658 74.5448C49.7606 74.6817 46.9572 74.0998 45.5384 73.3466C45.3845 73.261 45.1794 73.398 45.3162 73.4835C46.9401 74.4421 50.9743 75.4349 53.1452 74.5619C54.6837 73.9286 53.6922 72.525 53.111 71.789C51.9657 70.2827 50.3247 69.2556 47.8632 68.3998C46.2392 67.8349 43.1281 67.0133 41.6922 68.1773C40.5469 69.1187 41.5555 70.7106 42.5982 71.5151C44.188 72.7304 47.2649 73.3637 49.7264 73.7403C51.5384 74.0142 52.8546 73.0727 52.5811 72.0971C52.5469 71.9944 52.3247 72.0115 52.3076 72.1142C52.2905 72.7646 51.8119 73.3466 50.6153 73.4664C49.6239 73.5691 48.4102 73.2097 47.5042 73.0043C45.5384 72.5592 43.5726 71.9601 42.4444 70.8818C41.9486 70.4196 41.7606 69.8547 41.7435 69.3241C41.7264 68.9475 41.8119 68.5367 42.205 68.2286C42.5127 67.989 43.0427 67.9034 43.5726 67.8863Z" fill="#F5F5FD"/>
<path d="M52.6152 72.9529C52.5127 73.3637 52.5981 73.7232 51.8289 73.9286C51.1793 74.0826 50.4614 74.0313 49.7947 73.9628C48.4614 73.843 47.1623 73.5006 45.9657 73.1412C45.8802 73.1241 45.8118 73.1754 45.8802 73.2096C47.3845 73.9286 49.3845 74.3736 51.3674 74.3051C52.564 74.2709 53.658 73.5691 52.8204 72.9358C52.7691 72.8844 52.6323 72.8844 52.6152 72.9529Z" fill="#F5F5FD"/>
<path d="M43.9659 72.4736C43.8804 72.4736 43.812 72.5079 43.812 72.5421C43.8291 72.679 44.0342 72.7817 44.2052 72.8844C44.4274 72.9871 44.6325 73.1241 44.906 73.1925C44.9915 73.2097 45.0941 73.1754 45.0599 73.107C44.9744 72.9529 44.7693 72.8331 44.5812 72.7304C44.4274 72.6277 44.2394 72.4907 43.9659 72.4736Z" fill="#F5F5FD"/>
<path d="M44.2051 67.116C42.0854 67.0988 40.188 68.006 40.188 69.2727C40.188 70.779 41.8974 72.1312 43.7777 73.0898C43.8974 73.1583 44.1025 73.0556 44 72.9871C42.547 71.9772 41.0598 70.9844 40.7179 69.6322C40.2906 67.9889 42.923 67.2358 45.3504 67.4412C47.3504 67.6295 49.1794 68.3484 50.5982 69.1529C51.3162 69.5637 51.8632 70.043 52.3931 70.5394C53.0256 71.1556 53.1965 71.8403 53.6752 72.4907C53.7094 72.5421 53.8461 72.5249 53.829 72.4736C53.3504 70.9673 52.3931 69.752 50.4444 68.7078C48.735 67.7835 46.5128 67.1331 44.2051 67.116Z" fill="#F5F5FD"/>
<path d="M52.718 70.2142C53.6582 70.8646 54.2394 71.652 54.3077 72.4908C54.3419 72.9187 54.1368 73.3466 54.0001 73.7745C53.7778 74.5106 53.2308 75.0754 51.8633 75.1781C50.359 75.298 48.6496 75.007 47.3334 74.6304C45.8804 74.2196 44.7522 73.4493 43.2992 73.0727C43.1966 73.0385 43.077 73.1241 43.1454 73.1754C43.7095 73.6034 44.5813 73.9286 45.3334 74.2538C46.2223 74.6304 47.1624 74.9727 48.2052 75.2124C49.4701 75.5034 51.7095 75.7772 53.0086 75.3835C54.4958 74.9385 54.8035 73.7403 54.8377 72.8502C54.8719 71.7376 54.0855 70.9674 52.8035 70.1971C52.7522 70.1457 52.6667 70.18 52.718 70.2142Z" fill="#F5F5FD"/>
<path d="M41.3334 66.9619C37.1453 68.2115 40.3419 71.5493 42.2051 73.0556C43.7949 74.3394 45.9145 75.4006 48.547 75.897C50.6496 76.2907 53.5214 75.9141 54.7863 74.8186C54.8547 74.7502 54.718 74.6817 54.6325 74.7331C52.9744 75.8286 50.1368 75.9141 47.9316 75.452C45.7265 74.9898 43.9829 73.9628 42.6325 72.8844C40.8547 71.4808 38 68.6394 41.3675 67.3043C43.265 66.5511 46.0513 66.9106 47.9658 67.4583C50.1881 68.1088 52.3932 69.2043 54.0171 70.2998C55.6069 71.361 56.5983 72.6106 56.8034 74.0141C56.9231 74.8186 56.6838 75.6574 55.7949 76.2907C54.9573 76.8898 53.5556 77.3006 52.3419 77.5916C52.171 77.6258 52.2222 77.797 52.4103 77.7799C54.7522 77.5231 56.7522 76.4619 57.2137 75.1096C57.7436 73.5349 56.6496 71.9259 55.1111 70.6592C54.5128 70.1799 53.812 69.7178 53.0428 69.2727C53.2137 69.3412 53.3675 69.4268 53.5385 69.5124C54.1881 69.8376 54.7692 70.1971 55.4188 70.5394C56.7693 71.2412 57.3675 72.0799 57.6752 73.0898C58.2393 74.9042 56.8718 77.0439 53.7265 77.7114C53.5385 77.7457 53.3334 77.7799 53.1282 77.8141C53.094 77.8141 53.0598 77.797 53.0257 77.8141C52.9402 77.8312 52.8547 77.8484 52.7692 77.8655C50.0342 78.1222 47.094 77.1294 45.0428 76.2394C42.5299 75.161 40.4103 73.7745 39.0086 72.1484C38.9402 72.0799 38.7522 72.1313 38.7863 72.2169C39.2137 73.0214 40.4616 73.8087 41.3163 74.4763C42.547 75.4349 44.171 76.1709 45.8462 76.8556C47.5556 77.5403 49.6069 78.1051 51.6923 78.1394C51.5214 78.1736 51.3504 78.2078 51.1795 78.2078C50.4103 78.2592 49.7436 78.088 49.0257 77.9682C48.9573 77.9511 48.9231 78.0195 48.9744 78.0366C50.0171 78.4817 52 78.5844 53.0769 78.088C53.5727 78.0366 54.0855 77.9511 54.5641 77.8312C57.4017 77.0952 58.4616 74.9727 58.1539 73.3295C58 72.4907 57.5214 71.4979 56.5299 70.8646C55.8975 70.4538 55.1624 70.1115 54.4787 69.7178C53.7607 69.307 53.0598 68.8448 52.1026 68.6394C52 68.6223 51.8975 68.6565 51.8804 68.7079C50.718 68.143 49.4701 67.6466 48.2222 67.2529C46.1539 66.534 43.4359 66.3457 41.3334 66.9619Z" fill="#F5F5FD"/>
<path d="M52.4617 69.7349C53.077 70.3853 54.0172 70.9331 54.701 71.5493C54.7352 71.5835 54.7694 71.6177 54.7864 71.6348C54.7352 71.652 54.701 71.6691 54.7181 71.7033C54.8548 72.1312 55.1967 72.5249 55.3335 72.9529C55.5557 73.6204 55.5215 74.3222 55.1454 74.9556C54.4275 76.188 52.0514 76.3934 50.1369 76.2393C50.0685 76.2393 50.0343 76.2907 50.1027 76.3078C51.8121 76.7871 54.3249 76.3592 55.248 75.3835C55.8463 74.7501 55.9488 74.0655 55.8634 73.3466C55.8463 73.2096 55.8292 73.0727 55.795 72.9186C55.9488 73.2267 56.0685 73.552 56.1027 73.8943C56.2394 74.8015 55.7608 75.7943 54.3591 76.2907C53.077 76.7357 51.3847 76.633 50.0001 76.4447C47.06 76.0339 44.4788 74.6988 42.4275 73.4835C40.5471 72.388 39.0087 71.0358 39.077 69.4439C39.077 69.3583 38.8206 69.3412 38.8035 69.4268C38.4446 71.0529 40.3078 72.5421 42.154 73.6718C44.4958 75.0925 47.436 76.479 50.8548 76.8213C53.8292 77.1123 56.2907 76.2907 56.5813 74.5105C56.7181 73.6204 56.3078 72.7475 55.6411 71.943C55.3164 71.5493 54.889 71.1898 54.4617 70.8475C53.9317 70.4024 53.1625 70.0943 52.6839 69.615C52.5813 69.5808 52.3933 69.6493 52.4617 69.7349Z" fill="#F5F5FD"/>
<path d="M46.9743 66.5853C46.8546 66.5853 46.8204 66.6538 46.9059 66.688C47.846 67.0304 48.8546 67.27 49.7948 67.6295C50.6153 67.9376 51.4187 68.2628 52.3589 68.434C52.4614 68.4511 52.4785 68.3655 52.4102 68.3484C51.47 68.006 50.5298 67.6808 49.6067 67.3214C48.7862 67.0133 47.9486 66.6538 46.9743 66.5853Z" fill="#F5F5FD"/>
<path d="M53.1111 78.8582C51.9316 78.8239 50.7863 78.9266 49.5897 78.8239C48.3077 78.7041 47.282 78.242 46.1367 77.9339C46.0855 77.9167 46.0342 77.9681 46.0855 77.9852C47.1795 78.4131 48.2393 78.8411 49.5384 79.0122C50.7008 79.1663 52.0171 79.1321 53.1453 78.9266C53.2137 78.9095 53.1795 78.8582 53.1111 78.8582Z" fill="#F5F5FD"/>
<path d="M45.9829 66.1061C44.0171 65.8664 41.9145 65.9863 40.2906 66.7052C38.5812 67.4583 37.8633 68.7935 38.0513 69.9916C38.2564 71.3097 39.5898 72.525 41.0086 73.5178C42.7351 74.7331 44.8889 75.9997 47.265 76.77C48.2564 77.0952 49.5214 77.3006 50.6496 77.3177C51.8975 77.3349 52.9915 77.1123 54.2051 76.9583C54.3761 76.9412 54.3077 76.77 54.1368 76.7871C52.547 76.9412 51.2137 77.1295 49.5898 76.9412C47.6069 76.7186 46.0684 76.0168 44.6496 75.2295C42.6154 74.1169 40.5812 72.97 39.3504 71.4979C38.1368 70.043 38.2393 68.3313 40.2222 67.116C42.0171 66.0205 44.9573 66.1745 47.2137 66.5682C49.7778 67.0133 52.1026 67.9718 54.0855 68.9989C56.3761 70.1799 58.2735 71.7376 58.5812 73.5349C58.8547 75.0925 57.7265 76.7529 55.624 77.7114C52.8376 78.9952 49.2308 78.4303 46.547 77.3862C44.4957 76.5988 42.8205 75.606 41.2137 74.5277C39.624 73.4664 38.1539 72.2853 37.7778 70.8646C37.4359 69.5808 37.7607 68.0745 39.1282 67.0133C40.4103 66.0034 42.4445 65.7466 44.4787 65.7466C44.3761 65.7124 44.2393 65.6268 44.1881 65.6097C44.1197 65.5755 44.0171 65.5241 43.9145 65.4899C42.6325 65.5241 41.3846 65.6953 40.3419 66.0718C37.8462 66.9619 37.265 68.7079 37.3334 70.2826C37.4188 72.1142 39.1453 73.5349 41.1282 74.87C44.4274 77.0952 50.1197 79.9538 55.4359 78.1394C59.641 76.7015 59.7949 73.3637 57.7094 71.1214C55.453 68.7079 50.6496 66.6538 45.9829 66.1061Z" fill="#F5F5FD"/>
<path d="M48 72.0458C47.9658 72.0629 48.0171 72.0971 48.0513 72.08C48.0855 72.0629 48.0342 72.0286 48 72.0458Z" fill="#F5F5FD"/>
<path d="M48.0171 72.0457C48 72.0628 48.0171 72.0628 48.0342 72.0628C48.0513 72.0628 48.0342 72.0457 48.0171 72.0457Z" fill="#F5F5FD"/>
<path fill-rule="evenodd" clip-rule="evenodd" d="M42.9231 63.2817L42.5299 63.0592L45.7265 61.2106L48.6838 62.9223L48.2906 63.1448L45.7265 61.6556L42.9231 63.2817ZM63.3846 75.1267L66.188 73.5006L63.6923 72.0457L64.0854 71.8231L66.9743 73.5006L63.7777 75.3492L63.3846 75.1267ZM47.7607 81.2546L47.3675 81.4771L50.2564 83.1546L53.4701 81.306L53.0769 81.0835L50.2564 82.7096L47.7607 81.2546ZM31.9829 72.5934L29.0256 70.8817L32.2393 69.0331L32.6325 69.2556L29.812 70.8817L32.3761 72.3709L31.9829 72.5934Z" fill="#F5F5FD"/>
<g opacity="0.5">
<path opacity="0.01" d="M41.0598 0.119812L0.273475 23.4675C0.0683469 23.5873 0.0683469 23.8954 0.273475 24.0152L56.3931 56.3493C56.4957 56.4006 56.6154 56.4006 56.7179 56.3493L97.4872 33.0016C97.6923 32.8818 97.6923 32.5737 97.4872 32.4539L41.3846 0.119812C41.282 0.068461 41.1624 0.068461 41.0598 0.119812Z" fill="#F77723"/>
<path opacity="0.1667" d="M41.5214 9.29449L3.21366 31.2385C3.00853 31.3584 3.00853 31.6493 3.21366 31.7521L55.9316 62.1348C56.0342 62.1861 56.1367 62.1861 56.2393 62.1348L94.547 40.1908C94.7521 40.0709 94.7521 39.7799 94.547 39.6772L41.829 9.29449C41.7436 9.24314 41.6239 9.24314 41.5214 9.29449Z" fill="#F77723"/>
<path opacity="0.3333" d="M41.9999 18.4692L6.15372 38.9926C5.96569 39.0953 5.96569 39.3862 6.15372 39.4889L55.47 67.9032C55.5554 67.9546 55.6751 67.9546 55.7606 67.9032L91.6067 47.397C91.7947 47.2943 91.7947 47.0033 91.6067 46.9006L42.2905 18.4863C42.205 18.4179 42.0853 18.4179 41.9999 18.4692Z" fill="#F77723"/>
<path opacity="0.5" d="M42.4614 27.644L9.09391 46.7637C8.90587 46.8664 8.90587 47.1403 9.09391 47.243L55.0084 73.7059C55.0939 73.7573 55.1965 73.7573 55.2819 73.7059L88.6666 54.5862C88.8546 54.4835 88.8546 54.2096 88.6666 54.1069L42.7349 27.644C42.6495 27.6097 42.5469 27.6097 42.4614 27.644Z" fill="#F77723"/>
<path opacity="0.6667" d="M42.9402 36.8359L12.0342 54.5178C11.8633 54.6205 11.8633 54.8772 12.0342 54.9799L54.5641 79.4744C54.6496 79.5258 54.7522 79.5258 54.8376 79.4744L85.7265 61.7925C85.8975 61.6898 85.8975 61.4331 85.7265 61.3304L43.1966 36.8359C43.1111 36.7845 43.0086 36.7845 42.9402 36.8359Z" fill="#F77723"/>
<path opacity="0.8333" d="M43.4017 46.0106L14.9744 62.2889C14.8035 62.3916 14.8035 62.6312 14.9744 62.7168L54.1026 85.2599C54.1881 85.3113 54.2735 85.3113 54.359 85.2599L82.7693 68.9816C82.9402 68.8789 82.9402 68.6393 82.7693 68.5537L43.6582 46.0106C43.5727 45.9592 43.4701 45.9592 43.4017 46.0106Z" fill="#F77723"/>
<path d="M43.8632 55.1853L17.9145 70.0429C17.7606 70.1285 17.7606 70.3682 17.9145 70.4537L53.641 91.0455C53.7093 91.0798 53.8119 91.0798 53.8803 91.0455L79.829 76.188C79.9828 76.1024 79.9828 75.8627 79.829 75.7771L44.1025 55.1853C44.0341 55.1511 43.9486 55.1511 43.8632 55.1853Z" fill="#F77723"/>
</g>
<path d="M44.4101 95.5815C44.4101 95.5986 44.4272 95.5986 44.4272 95.6157C44.4614 95.6842 44.4956 95.7355 44.5127 95.804C44.5811 95.9581 44.6494 96.1121 44.7349 96.2491C44.8717 96.4887 45.0084 96.7283 45.1794 96.9337C45.7606 97.6869 46.5811 98.1148 47.3503 98.149C48.1195 98.1833 48.8204 97.8238 49.3674 97.2761C49.7264 96.8995 50.017 96.4202 50.1708 95.8382C50.3417 95.1193 50.2734 94.2977 50.0853 93.5103C50.0511 93.3734 50.017 93.2193 49.9657 93.0653C49.9315 92.9112 49.8802 92.7572 49.8289 92.6202C49.7776 92.4662 49.7264 92.3293 49.6751 92.1752L49.6067 92.004C49.5896 91.9527 49.5554 91.8842 49.5212 91.8329C49.4529 91.6617 49.3845 91.4905 49.3161 91.3365C49.0255 90.7203 48.7349 90.3608 48.3076 89.9158C47.5383 89.1112 46.752 88.5122 45.8289 88.4095C45.7264 88.3923 45.6238 88.3923 45.5212 88.3923C44.9742 88.3923 44.5469 88.6662 44.2221 89.0941C43.8631 89.5734 43.658 90.2239 43.6238 90.9257C43.6067 91.3022 43.6409 91.713 43.658 92.1067C43.658 92.141 43.6751 92.1923 43.6751 92.2266C43.7435 93.0311 43.8289 93.8527 44.0511 94.6572C44.1537 94.9482 44.2734 95.2734 44.4101 95.5815Z" fill="#FFD8C3"/>
<path d="M47.7778 90.2751C47.4359 89.9328 47.0598 89.6247 46.6154 89.4535C46.1709 89.2824 45.641 89.2824 45.2308 89.5391C44.735 89.8472 44.4957 90.4463 44.3932 91.0283C44.2906 91.6103 44.3761 92.7914 44.5128 92.7914C45.0427 92.7742 46.7008 92.6886 47.2308 92.6373C47.7949 92.5859 49.1795 92.5004 48.7521 91.5589C48.547 91.0796 48.1367 90.6346 47.7778 90.2751Z" fill="#F5AAA5"/>
<path d="M34.0513 87.3825C34.0513 87.3996 34.0513 87.4167 34.0513 87.4338C34.0342 87.5194 34.0342 87.5879 34.0171 87.6735C33.9829 87.8617 33.9487 88.05 33.9317 88.2383C33.8975 88.5464 33.8804 88.8716 33.8804 89.1626C33.8975 90.241 34.3248 91.1482 34.9402 91.6446C35.5556 92.141 36.3248 92.2437 37.1111 92.0212C37.624 91.8842 38.1539 91.5933 38.6154 91.1311C39.1795 90.5491 39.6069 89.7275 39.9146 88.8545C39.9658 88.7005 40.0342 88.5293 40.0855 88.3581C40.1368 88.187 40.2052 88.0158 40.2393 87.8446C40.2906 87.6735 40.3248 87.5023 40.3761 87.3311L40.4274 87.1257C40.4445 87.0572 40.4616 86.9717 40.4616 86.9032C40.5128 86.6978 40.547 86.4924 40.5812 86.287C40.718 85.5167 40.6838 85.0032 40.5983 84.3014C40.4445 83.069 40.1539 82.0077 39.4701 81.3401C39.4017 81.2717 39.3163 81.2032 39.2308 81.1347C38.7864 80.8095 38.2564 80.8095 37.7436 81.0149C37.1795 81.2546 36.6154 81.751 36.171 82.4014C35.9317 82.7609 35.7094 83.1546 35.5043 83.5654C35.4872 83.5996 35.4701 83.6509 35.453 83.6852C35.0428 84.5068 34.6154 85.3284 34.3248 86.2356C34.2052 86.6122 34.1197 87.0059 34.0513 87.3825Z" fill="#FFD8C3"/>
<path d="M39.658 82.4186C39.5213 82.0592 39.2991 81.6997 38.9401 81.5457C38.6495 81.4258 38.3076 81.4601 38.0341 81.597C37.7435 81.734 37.5042 81.9394 37.2991 82.179C36.7863 82.7096 36.3418 83.3258 36.017 83.9934C35.9145 84.1817 35.829 84.4213 35.9316 84.6096C36.017 84.7808 36.2222 84.8321 36.3931 84.8835C36.9059 85.0375 37.4187 85.1745 37.9316 85.3285C38.2905 85.4312 38.6837 85.5853 39.0598 85.5682C39.8803 85.5511 39.9486 84.6438 39.9657 83.9934C39.9486 83.4628 39.8632 82.915 39.658 82.4186Z" fill="#F5AAA5"/>
<path d="M91.3307 94.2036C95.8354 88.8569 97.6037 82.9314 95.2803 80.9686C92.9568 79.0058 87.4216 81.749 82.9169 87.0958C78.4122 92.4425 76.644 98.368 78.9674 100.331C81.2908 102.294 86.8261 99.5504 91.3307 94.2036Z" fill="#E9A37D"/>
<g opacity="0.5">
<path d="M33.1111 42.6899L43.6581 48.7836V36.5962L33.1111 30.5026V42.6899Z" fill="#F4FAFA"/>
</g>
<g opacity="0.5">
<path d="M33.1111 13.7449L43.6581 19.8386V7.65128L33.1111 1.55762V13.7449Z" fill="#F4FAFA"/>
</g>
<g opacity="0.5">
<path d="M33.1111 28.2088L43.6581 34.3025V22.1152L33.1111 16.0215V28.2088Z" fill="#F4FAFA"/>
</g>
<path d="M37.8803 36.2539C37.641 36.2196 37.5042 36.271 37.282 36.2881C37.5726 36.0656 37.8461 35.98 38.3247 36.271C38.5469 36.4079 38.7521 36.5962 38.9401 36.8358C38.6324 36.5449 38.3076 36.3223 37.8803 36.2539Z" fill="#F5F5FD"/>
<path d="M38.3759 38.5476C37.8631 38.4278 37.4358 39.1638 37.1281 39.7115C36.9571 40.0025 36.8375 40.2079 36.7349 40.2422C36.7007 40.2593 36.6665 40.2764 36.6152 40.2935C36.6152 40.2251 36.5981 40.1395 36.5981 40.0539C36.6152 40.0539 36.6152 40.0368 36.6323 40.0368C36.7178 40.0025 36.8375 39.78 36.9913 39.5404C37.3161 38.9755 37.7605 38.2053 38.3246 38.3422C39.0255 38.5134 39.6409 39.198 40.0511 39.8142C40.0682 39.8998 40.0682 40.0025 40.0853 40.1052C39.6922 39.489 39.0768 38.7188 38.3759 38.5476Z" fill="#F5F5FD"/>
<path d="M38.1366 37.9998C37.5554 37.9827 37.2477 38.4277 36.9059 38.9241C36.7862 39.0953 36.6665 39.2665 36.5469 39.4205C36.5469 39.3178 36.5298 39.198 36.5298 39.0782C36.6153 38.9755 36.6836 38.8557 36.7691 38.7359C37.111 38.2395 37.4358 37.7602 38.0682 37.7773C38.7349 37.8115 39.4529 38.5133 39.9486 39.1124C39.9657 39.2151 39.9828 39.3007 39.9999 39.4034C39.5212 38.8214 38.7862 38.0169 38.1366 37.9998Z" fill="#F5F5FD"/>
<path d="M38.0512 37.3494C37.5041 37.3323 37.1794 37.6917 36.8033 38.1025C36.7178 38.2052 36.6153 38.3079 36.5298 38.4106C36.5298 38.2908 36.5469 38.171 36.5469 38.0683C36.5811 38.017 36.6323 37.9827 36.6665 37.9314C37.0426 37.5034 37.3845 37.1269 37.9828 37.1611C38.5811 37.1782 39.2306 37.7602 39.7093 38.3251C39.7435 38.4449 39.7776 38.5476 39.8118 38.6674C39.3503 38.0683 38.6665 37.3665 38.0512 37.3494Z" fill="#F5F5FD"/>
<path d="M37.846 36.6304C37.3332 36.6133 37.0255 36.9214 36.6836 37.298C36.7349 37.0926 36.8033 36.9214 36.8887 36.7673C37.128 36.5619 37.4015 36.4079 37.7776 36.425C38.3075 36.4421 38.8716 36.9214 39.3503 37.452C39.4357 37.6061 39.5041 37.7601 39.5725 37.9313C39.0768 37.3151 38.4101 36.6646 37.846 36.6304Z" fill="#F5F5FD"/>
<path d="M38.2564 40.1908C38.2734 39.8827 38.4102 39.7286 38.6495 39.7971C38.9914 39.8655 39.2991 40.225 39.4871 40.7556C39.6581 41.2349 39.6923 41.7826 39.4358 41.8682C39.3162 41.9025 39.1623 41.834 39.0085 41.6799C38.7692 41.4061 38.564 40.9268 38.547 40.6016C38.547 40.4133 38.5982 40.3106 38.7179 40.2935C38.8205 40.2763 38.923 40.3448 39.0256 40.4646C39.1794 40.67 39.282 40.9781 39.2649 41.1664C39.2649 41.2862 39.2136 41.3547 39.1452 41.3547C39.1111 41.3547 39.0598 41.3034 39.0427 41.252C39.0256 41.2007 39.0427 41.1493 39.0769 41.1493C39.094 41.1493 39.1111 41.1151 39.1111 41.0637C39.1111 40.9268 39.0427 40.7043 38.9401 40.5673C38.8888 40.516 38.8546 40.4817 38.8034 40.4817C38.735 40.4817 38.7008 40.5502 38.7179 40.67C38.735 40.9268 38.9059 41.3205 39.0769 41.5259C39.1794 41.6286 39.2649 41.6799 39.3333 41.6457C39.5042 41.5944 39.5042 41.1835 39.3504 40.7385C39.282 40.5331 39.0769 40.0538 38.7008 39.9854C38.4786 39.934 38.4273 40.1223 38.4273 40.2763C38.3931 40.8583 38.8546 42.0052 39.6581 42.9637C39.6239 42.998 39.5897 43.0322 39.5555 43.0493C38.7008 42.0223 38.2222 40.8241 38.2564 40.1908Z" fill="#F5F5FD"/>
<path d="M37.9999 39.4547C38.1024 39.2322 38.2905 39.1808 38.564 39.2664C38.8546 39.3691 39.1452 39.5916 39.3674 39.8998C39.6409 40.2763 39.8289 40.7385 39.8802 41.2691C39.9828 42.125 39.8118 42.3475 39.6409 42.3817C39.47 42.416 39.2477 42.279 39.1794 42.1934C39.1452 42.1421 39.1281 42.0907 39.1452 42.0565C39.1623 42.0223 39.2135 42.0394 39.2477 42.0736C39.2819 42.1079 39.4187 42.2106 39.5383 42.1763C39.658 42.1421 39.7947 41.9538 39.7093 41.2007C39.658 40.7385 39.487 40.3277 39.2648 40.0025C39.0768 39.7286 38.8204 39.5403 38.5811 39.4718C38.3759 39.4034 38.2221 39.4547 38.1366 39.6259C37.9657 40.0025 38.1537 40.8412 38.2563 41.0808C38.5469 41.8169 38.9913 42.5015 39.4187 43.1349C39.4016 43.152 39.3503 43.1691 39.299 43.1862C38.8717 42.5529 38.4272 41.8511 38.1195 41.0979C37.9999 40.7898 37.7947 39.8998 37.9999 39.4547Z" fill="#F5F5FD"/>
<path d="M37.7434 39.0269C37.9315 38.753 38.2734 38.7016 38.7349 38.8728C39.3674 39.1296 39.8118 39.8485 40.1024 40.5332C40.1024 40.5674 40.1024 40.5845 40.1024 40.6187C40.1024 40.7043 40.1024 40.807 40.1024 40.8926C39.846 40.2079 39.4187 39.335 38.7691 39.0611C38.3588 38.8899 38.0682 38.9413 37.8973 39.1809C37.7093 39.4719 37.7093 40.0539 37.9144 40.7214C38.1195 41.389 38.4956 42.2962 38.8887 43.1178C38.8204 43.1349 38.752 43.1178 38.7007 43.0836C38.3075 42.2791 37.9486 41.389 37.7434 40.7386C37.5383 39.9854 37.5383 39.3521 37.7434 39.0269Z" fill="#F5F5FD"/>
<path d="M36.7007 40.7043C36.6836 40.6359 36.6665 40.5674 36.6494 40.4989C37.1964 40.4305 37.299 39.9683 37.3161 39.8485C37.3161 39.8314 37.3161 39.8314 37.3161 39.8142C37.3161 39.7629 37.3674 39.7629 37.4016 39.78C37.4528 39.8142 37.4699 39.8827 37.4699 39.9169C37.4699 39.9169 37.4699 39.9341 37.4699 39.9512C37.4186 40.5845 38.034 42.0566 38.4614 42.998C38.4101 42.9638 38.3588 42.9295 38.2904 42.8953C38.2904 42.8953 38.2733 42.8953 38.2733 42.8782C37.9144 42.0908 37.487 41.0467 37.3674 40.3106C37.2477 40.4989 37.0597 40.6701 36.7007 40.7043Z" fill="#F5F5FD"/>
<path d="M36.9571 41.4232C36.9229 41.3548 36.8887 41.2863 36.8716 41.2178C37.1451 41.1322 37.2135 40.9268 37.2135 40.8755V40.8584C37.2135 40.807 37.2647 40.807 37.2989 40.8412C37.3331 40.8755 37.3673 40.9268 37.3673 40.9782C37.3673 40.9782 37.3673 40.9953 37.3673 41.0124C37.3331 41.2863 37.5724 41.9367 37.8459 42.6214C37.7776 42.5358 37.6921 42.4674 37.6237 42.3989C37.4186 41.9196 37.2989 41.5259 37.2476 41.2521C37.1793 41.3034 37.0938 41.3719 36.9571 41.4232Z" fill="#F5F5FD"/>
<path fill-rule="evenodd" clip-rule="evenodd" d="M34.4785 40.071V34.6791C34.4785 33.7548 35.1281 33.3611 35.9486 33.8233L40.6153 36.5278C41.4187 36.9899 42.0854 38.1368 42.0854 39.0782V44.4701C42.0854 45.4115 41.4187 45.7881 40.6153 45.3259L35.9486 42.6214C35.1452 42.1593 34.4785 41.0124 34.4785 40.071ZM35.9486 34.3026C35.3674 33.9602 34.8888 34.2512 34.8888 34.9188V40.3106C34.8888 40.9782 35.3674 41.7998 35.9486 42.1422L40.6153 44.8467C41.1965 45.189 41.6751 44.9151 41.6751 44.2476V38.8386C41.6751 38.171 41.1965 37.3494 40.6153 37.007L35.9486 34.3026Z" fill="#F5F5FD"/>
<path d="M39.9658 10.1846L39.5726 9.96208V9.34587C39.5726 8.50713 38.9914 7.49723 38.2735 7.08642L38.0513 6.94948C37.3333 6.53867 36.7521 6.86389 36.7521 7.70263V8.31884L36.359 8.09632C36.2564 8.02785 36.1538 7.99362 36.0513 7.9765V7.30894C36.0513 6.02516 36.9573 5.51165 38.0684 6.14498L38.2906 6.28192C39.4017 6.93236 40.3077 8.49001 40.3077 9.77379V10.4414C40.1709 10.3215 40.0684 10.2531 39.9658 10.1846Z" fill="#F5F5FD"/>
<path fill-rule="evenodd" clip-rule="evenodd" d="M35.3162 12.1359V8.78098C35.3162 8.14765 35.7777 7.89089 36.3247 8.199L39.9486 10.3044C40.5127 10.6296 40.9572 11.3999 40.9572 12.0503V15.4053C40.9572 16.0557 40.5127 16.3125 39.9486 15.9872L36.3247 13.8819C35.7606 13.5566 35.3162 12.7864 35.3162 12.1359ZM38.1367 12.5296C37.8632 12.3756 37.641 12.5125 37.641 12.8206C37.641 12.9918 37.7094 13.1801 37.829 13.3683V13.9332L38.4615 14.2927V13.7278C38.5641 13.6764 38.6324 13.5566 38.6324 13.3855C38.6324 13.0774 38.4102 12.6837 38.1367 12.5296Z" fill="#F5F5FD"/>
<path fill-rule="evenodd" clip-rule="evenodd" d="M35.5212 23.7413V20.0098L35.9144 20.2665C35.9999 20.3179 36.4956 20.5917 37.2135 20.626C37.7606 20.6602 38.2734 20.3521 38.2734 20.3521L38.564 20.1809L38.8546 20.6944C38.8546 20.7116 39.3674 21.6017 39.9144 22.2007C40.6323 22.9881 41.1281 23.2962 41.2135 23.3476L41.6409 23.5701V24.0494V27.2845C41.6409 30.0575 38.9229 30.6566 38.8033 30.6737L38.5811 30.725L38.3588 30.4169C38.3535 30.4089 38.3411 30.3913 38.3223 30.3646C37.9794 29.8776 35.5212 26.3864 35.5212 23.7413ZM37.4016 21.1566C36.5127 21.1053 35.9144 20.7287 35.9144 20.7287V23.9809C35.9144 26.5485 38.5811 30.1773 38.5811 30.1773V20.8485C38.5811 20.8485 38.017 21.1908 37.4016 21.1566Z" fill="#F5F5FD"/>
<rect opacity="0.2" x="35.6238" y="28.3972" width="1.35043" height="7.51438" fill="#F77723"/>
<rect opacity="0.2" x="13.6924" y="44.5898" width="1.35043" height="6.17925" fill="#F77723"/>
<rect opacity="0.2" x="78.6155" y="31.6494" width="1.35044" height="6.17925" fill="#F77723"/>
<rect opacity="0.2" x="51.5383" y="45.8223" width="1.35043" height="6.17926" fill="#F77723"/>
<rect opacity="0.2" x="19.2307" y="20.5404" width="1.35043" height="6.17925" fill="#F77723"/>
<rect opacity="0.2" x="41.5212" y="55.6989" width="1.35043" height="2.82431" fill="#F77723"/>
<rect opacity="0.2" x="77.7437" y="64.942" width="1.35043" height="6.17925" fill="#F77723"/>
<rect opacity="0.2" x="35.282" y="65.2501" width="1.35043" height="1.40359" fill="#F77723"/>
<rect opacity="0.2" x="41.5898" y="38.3936" width="1.35043" height="1.4036" fill="#F77723"/>
<rect opacity="0.2" x="20.53" y="56.0413" width="1.35043" height="1.4036" fill="#F77723"/>
<rect opacity="0.2" x="30.564" y="45.1034" width="1.35043" height="1.42071" fill="#F77723"/>
<rect opacity="0.2" x="81.9316" y="47.5682" width="1.35043" height="1.42072" fill="#F77723"/>
<rect opacity="0.2" x="66.4272" y="42.8611" width="1.35043" height="1.42072" fill="#F77723"/>
<rect opacity="0.2" x="8.11963" y="28.38" width="1.35043" height="1.42072" fill="#F77723"/>
<rect opacity="0.2" x="35.8291" y="25.2134" width="1.35043" height="1.36937" fill="#F77723"/>
<rect opacity="0.2" x="26.7693" y="34.525" width="1.35043" height="1.36936" fill="#F77723"/>
<rect opacity="0.2" x="47.3845" y="20.5062" width="1.35043" height="1.36936" fill="#F77723"/>
<rect opacity="0.2" x="86.4614" y="58.5061" width="1.35043" height="1.36936" fill="#F77723"/>
<defs>
<linearGradient id="paint0_linear" x1="-50.5436" y1="74.001" x2="-14.9988" y2="157.819" gradientUnits="userSpaceOnUse">
<stop stop-color="#FAD961"/>
<stop offset="1" stop-color="#F76B1C"/>
</linearGradient>
<linearGradient id="paint1_linear" x1="-50.5436" y1="77.5956" x2="-14.9988" y2="161.414" gradientUnits="userSpaceOnUse">
<stop stop-color="#FAD961"/>
<stop offset="1" stop-color="#F76B1C"/>
</linearGradient>
<linearGradient id="paint2_linear" x1="32.5667" y1="33.3639" x2="77.7983" y2="68.6168" gradientUnits="userSpaceOnUse">
<stop stop-color="#FAD961"/>
<stop offset="1" stop-color="#F76B1C"/>
</linearGradient>
<linearGradient id="paint3_linear" x1="74.1631" y1="85.7995" x2="71.5528" y2="83.0789" gradientUnits="userSpaceOnUse">
<stop stop-color="#857FAA"/>
<stop offset="0.2214" stop-color="#8F89B4"/>
<stop offset="0.6427" stop-color="#9D98C2"/>
<stop offset="1" stop-color="#A29DC7"/>
</linearGradient>
<linearGradient id="paint4_linear" x1="17.5597" y1="72.2139" x2="47.476" y2="72.2231" gradientUnits="userSpaceOnUse">
<stop stop-color="#148A9E"/>
<stop offset="1" stop-color="#087DC2"/>
</linearGradient>
<linearGradient id="paint5_linear" x1="-21.3944" y1="66.7561" x2="2.7293" y2="123.448" gradientUnits="userSpaceOnUse">
<stop stop-color="#FAD961"/>
<stop offset="1" stop-color="#F76B1C"/>
</linearGradient>
</defs>
</svg>
