<svg width="2500" height="2500" viewBox="0 0 2500 2500" fill="none" xmlns="http://www.w3.org/2000/svg">
<path d="M2500 1249.99C2500 1940.35 1940.37 2500 1250.02 2500C559.656 2500 0.0152588 1940.35 0.0152588 1249.99C0.0152588 559.641 559.656 0 1250.02 0C1940.36 0 2500 559.641 2500 1249.99Z" fill="#355D9D"/>
<path d="M2234.61 1250.01C2234.61 1793.76 1793.79 2234.61 1250.02 2234.61C706.244 2234.61 265.394 1793.76 265.394 1250.01C265.394 706.213 706.244 265.386 1250.02 265.386C1793.8 265.386 2234.61 706.206 2234.61 1250.01Z" fill="#355D9D"/>
<path d="M1176.96 1583.92L1258.15 1278.2L1450.37 1207.97L1498.18 1028.3L1496.55 1023.85L1307.33 1092.97L1443.66 579.633H1057.03L878.739 1249.55L729.88 1303.93L680.694 1489.16L829.438 1434.83L724.36 1829.64H1753.35L1819.32 1583.92H1176.96Z" fill="white"/>
</svg>
