<svg width="100" height="117" viewBox="0 0 100 117" fill="none" xmlns="http://www.w3.org/2000/svg">
<path opacity="0.2" d="M15.1716 92.7595V93.3981L24.2648 98.7028L28.6765 95.1909L20.9805 90.451L15.1716 92.7595Z" fill="#1C4B5F"/>
<path opacity="0.2" d="M96.005 77.8767C98.8972 79.5467 98.8972 82.2728 96.005 83.9428C93.1129 85.6128 88.4315 85.6128 85.5148 83.9428C82.6227 82.2728 82.6227 79.5467 85.5148 77.8767C88.407 76.2067 93.1129 76.2067 96.005 77.8767Z" fill="#1C4B5F"/>
<path opacity="0.2" d="M99.6815 90.8439C99.6815 90.6474 99.5589 90.4509 99.2893 90.3036L86.2011 82.7394C85.6864 82.4447 84.8285 82.4447 84.3138 82.7394L82.4021 83.8446L82.7697 84.041L68.9217 92.0473L68.603 91.8508L65.2452 93.791C64.9756 93.9383 64.853 94.1594 64.853 94.3558V95.5592C64.853 95.7557 65.0001 95.9276 65.2452 96.075L78.3334 103.639C78.8481 103.934 79.706 103.934 80.2207 103.639L99.2893 92.5385C99.5344 92.3911 99.657 92.1946 99.6815 92.0227V90.8439Z" fill="#1C4B5F"/>
<path opacity="0.2" fill-rule="evenodd" clip-rule="evenodd" d="M61.2992 108.895C61.5198 109.018 61.6423 109.165 61.6423 109.337V110.638C61.6423 110.81 61.5198 110.982 61.2992 111.105L52.5737 115.943C52.108 116.189 51.3727 116.189 50.9315 115.943L34.0933 106.562C33.8727 106.439 33.7501 106.292 33.7501 106.12V104.843C33.7256 104.671 33.8482 104.499 34.0933 104.351L42.8188 99.5132C43.2845 99.2676 44.0198 99.2676 44.4609 99.5132L61.2992 108.895ZM61.2992 109.803C61.4217 109.73 61.4953 109.681 61.5443 109.582C61.4953 109.656 61.4217 109.73 61.2992 109.803Z" fill="#1C4B5F"/>
<g opacity="0.2">
<path d="M48.5296 79.8906L48.5051 86.8899L70.4414 74.1192V67.1199L48.5296 79.8906Z" fill="#1C4B5F"/>
<path d="M24.2158 65.8674V72.8422L48.505 86.8899L48.5295 79.8906L70.4413 67.1199L46.1276 53.0967L24.2158 65.8674Z" fill="#1C4B5F"/>
</g>
<path fill-rule="evenodd" clip-rule="evenodd" d="M85.7109 94.1102L90.7844 97.745C91.5933 98.3344 92.059 99.2676 92.0344 100.324C91.9854 101.306 91.4217 102.215 90.5639 102.706L77.8188 110.074C76.7893 110.663 75.4413 110.958 74.0933 110.958C72.7452 110.958 71.3972 110.663 70.3678 110.074L67.4511 108.453C66.4217 107.839 65.858 107.028 65.858 106.169C65.858 105.285 66.4217 104.474 67.4511 103.885L68.9707 103.001C69.8776 102.485 70.3678 101.797 70.3678 101.085C70.3678 100.373 69.8776 99.6851 68.9707 99.1694L66.8138 97.8923L61.3237 101.06C60.0491 101.797 57.9903 101.797 56.7403 101.06C55.5884 100.397 53.7256 100.397 52.5737 101.06L44.5589 105.702L44.3629 105.334L52.3531 100.692C53.6276 99.9553 55.6864 99.9553 56.9364 100.692C58.0884 101.355 59.9511 101.355 61.1031 100.692L66.3727 97.6467L53.5295 90.058C52.5246 90.5492 51.3727 90.893 50.1717 91.0895L50.1962 91.114L28.9707 103.222C27.8433 103.885 26.3727 104.204 24.9021 104.204C23.4315 104.204 21.9609 103.86 20.8335 103.222L17.6472 101.453C16.5197 100.79 15.907 99.9307 15.907 98.9729C15.907 98.0151 16.5197 97.131 17.6472 96.4925L29.7305 89.7142L29.9266 90.0826L17.8433 96.8609C16.8629 97.4257 16.3236 98.187 16.3236 98.9729C16.3236 99.7588 16.8874 100.52 17.8678 101.085L21.054 102.853C23.2109 104.081 26.6668 104.081 28.7991 102.853L49.1178 91.2123C48.7011 91.2368 48.2599 91.2614 47.8433 91.2614C45.6129 91.2614 43.407 90.7702 41.7158 89.7878L30.5148 83.3043C28.8482 82.3465 27.9168 81.0448 27.9168 79.645C27.9168 78.2451 28.8482 76.9435 30.5148 75.9857L51.3237 63.9517C54.6815 62.0116 60.1717 62.0116 63.554 63.9517L71.5197 68.5688L75.4168 66.3094C75.7354 66.1129 75.9315 65.8673 75.9315 65.6217C75.9315 65.3762 75.7599 65.1306 75.4168 64.9341L70.907 62.3308C70.4413 62.0607 70.1717 61.6923 70.1717 61.2748C70.1717 60.8573 70.4413 60.4889 70.907 60.2188L75.2697 57.6892C76.1766 57.1734 77.5982 57.1734 78.505 57.6892L81.1766 59.2364L80.9805 59.6048L78.3089 58.0576C77.5246 57.6155 76.2746 57.6155 75.4903 58.0576L71.1276 60.5871C70.8089 60.7836 70.6129 61.0292 70.6129 61.2748C70.6129 61.5204 70.7844 61.766 71.1276 61.9624L75.6374 64.5657C76.1031 64.8359 76.3727 65.2042 76.3727 65.6217C76.3727 66.0392 76.1031 66.4076 75.6374 66.6778L71.9609 68.8144L74.7795 70.4353C76.4462 71.3931 77.3776 72.6948 77.3776 74.0946C77.3776 75.4945 76.4462 76.7961 74.7795 77.7539L53.9707 89.7878C53.9707 89.7878 53.9462 89.8124 53.9217 89.8124L69.1178 98.801C70.1472 99.3904 70.7109 100.176 70.7109 101.06C70.7109 101.945 70.1472 102.755 69.1178 103.344L67.6227 104.229C66.7158 104.744 66.2256 105.432 66.2256 106.144C66.2256 106.856 66.7158 107.544 67.6227 108.06L70.5393 109.681C72.4756 110.81 75.6374 110.81 77.5737 109.681L90.3188 102.313C91.054 101.871 91.5197 101.11 91.5688 100.25C91.6178 99.415 91.2256 98.6045 90.5393 98.0888L85.4658 94.4541L85.7109 94.1102ZM30.809 82.9604L41.9854 89.4195C45.2697 91.3105 50.5639 91.3105 53.8237 89.444L74.6325 77.4101C76.1521 76.526 77.0099 75.3471 77.0099 74.1192C77.0099 72.8912 76.1766 71.7124 74.6325 70.8283L63.4315 64.3447C61.8139 63.3869 59.657 62.9202 57.5247 62.9202C55.3923 62.9202 53.2599 63.4114 51.6178 64.3447L30.809 76.3786C29.2894 77.2627 28.4315 78.4416 28.4315 79.6695C28.4315 80.8975 29.2648 82.0763 30.809 82.9604Z" fill="#F77723"/>
<path d="M60.8262 56.1174V57.7383C60.8262 57.9348 61.0345 58.1313 61.4928 58.2786V56.6577C61.0762 56.5349 60.8262 56.3385 60.8262 56.1174Z" fill="#DCDEED"/>
<path d="M60.8262 56.1174V57.7383C60.8262 57.9348 61.0345 58.1313 61.4928 58.2786V56.6577C61.0762 56.5349 60.8262 56.3385 60.8262 56.1174Z" fill="#DCDEED"/>
<path d="M97.152 61.0784V59.4575C97.152 59.6539 97.0131 59.875 96.7075 60.0223V61.6432C97.0131 61.4959 97.152 61.2748 97.152 61.0784Z" fill="#DCDEED"/>
<path d="M96.7075 60.0223V61.6432C97.0131 61.4959 97.152 61.2748 97.152 61.0784V59.4575C97.152 59.6539 97.0131 59.875 96.7075 60.0223Z" fill="#DCDEED"/>
<path d="M61.2009 56.6823V58.3032L80.8333 69.7232V68.1023L61.2009 56.6823Z" fill="#DCDEED"/>
<path d="M82.7451 68.1023V69.7232L96.6912 61.6432V60.0223L82.7451 68.1023Z" fill="#DCDEED"/>
<path d="M80.8333 68.1022V69.7231C81.348 70.0178 82.2303 70.0178 82.745 69.7231V68.1022C82.2303 68.3969 81.3725 68.3969 80.8333 68.1022Z" fill="#E8E0DD"/>
<path d="M80.8333 68.1022V69.7231C81.348 70.0178 82.2303 70.0178 82.745 69.7231V68.1022C82.2303 68.3969 81.3725 68.3969 80.8333 68.1022Z" fill="#D9E1EE"/>
<path d="M61.201 55.5771C60.6618 55.8719 60.6618 56.3876 61.201 56.6823L80.8334 68.1023C81.3481 68.397 82.2305 68.397 82.7452 68.1023L96.6912 60.0223C97.2305 59.7276 97.2305 59.2119 96.6912 58.9172L77.0589 47.4972C76.5442 47.2025 75.6618 47.2025 75.1471 47.4972L61.201 55.5771Z" fill="#F5F5FD"/>
<path d="M63.5049 57.0015C63.5049 57.0507 63.5294 57.0752 63.5539 57.1243C63.6275 57.2717 63.75 57.4191 63.9461 57.5418L78.3824 65.9165C78.9706 66.2603 79.951 66.2603 80.5392 65.9165L92.7941 58.8189C92.9902 58.6961 93.1373 58.5488 93.1863 58.4014C93.2108 58.3523 93.2108 58.3277 93.2353 58.2786C93.2843 58.0085 93.1373 57.7629 92.7941 57.5664L78.3579 49.1918C77.7696 48.8479 76.7892 48.8479 76.201 49.1918L63.9461 56.2893C63.5785 56.4612 63.4559 56.7314 63.5049 57.0015Z" fill="#DCDEED"/>
<path d="M78.6275 49.511L77.4511 50.1987L73.7746 52.3353L70.9069 53.9808L64.3628 57.7874L63.9216 57.5173C63.7256 57.3945 63.5785 57.2471 63.5295 57.0998C63.505 57.0507 63.505 57.0261 63.4805 56.977C63.505 56.7805 63.652 56.5841 63.9216 56.4367L70.6128 52.5564L73.4805 50.9109L76.2011 49.3391C76.4216 49.2163 76.6667 49.1427 76.9363 49.0935C77.4265 49.0199 77.9903 49.0935 78.3579 49.3391L78.6275 49.511Z" fill="#F77723"/>
<path fill-rule="evenodd" clip-rule="evenodd" d="M67.6473 54.7667L66.3728 55.5034L66.961 55.8473L68.2355 55.1105L67.6473 54.7667ZM66.4463 55.5034L67.6473 54.8158L68.162 55.1105L66.961 55.7981L66.4463 55.5034Z" fill="#D9E1EE"/>
<path d="M66.4219 55.5035L66.9611 55.8227L67.8189 55.3315L67.2552 55.0123L66.4219 55.5035Z" fill="#D9E1EE"/>
<path d="M64.7061 56.8986L64.9021 56.7871L65.0982 56.9264L64.9021 57.0378L64.7061 56.8986Z" fill="#D9E1EE"/>
<path d="M64.2896 56.9543L64.4611 56.8428L64.8533 57.0935L64.6572 57.205L64.2896 56.9543Z" fill="#D9E1EE"/>
<path d="M63.8728 57.01L64.0444 56.8986L64.5836 57.2607L64.412 57.3721L63.8728 57.01Z" fill="#D9E1EE"/>
<path fill-rule="evenodd" clip-rule="evenodd" d="M66.7899 56.273C66.8711 56.1747 66.8711 56.0272 66.6275 55.7814C66.4381 55.5848 66.3028 55.5848 66.2216 55.6831C66.1404 55.7323 66.0592 55.8306 66.0051 55.9289L66.0863 55.9781L66.3028 55.7814C66.384 55.7323 66.4922 55.8306 66.5464 55.8797C66.5193 55.9043 66.4855 55.9289 66.4516 55.9535C66.4178 55.9781 66.384 56.0026 66.3569 56.0272C66.2487 56.1255 66.2757 56.2239 66.3569 56.273L66.4381 56.3713C66.5193 56.4697 66.6005 56.4697 66.6817 56.3713L66.7899 56.273ZM66.4381 56.0764L66.6005 55.9289C66.6212 55.9665 66.6497 56.004 66.6741 56.0361C66.7136 56.088 66.7422 56.1256 66.7087 56.1256L66.6276 56.2239C66.6005 56.273 66.5734 56.273 66.5193 56.2239L66.4381 56.1747C66.3966 56.137 66.4029 56.1282 66.4203 56.1039C66.4256 56.0966 66.4318 56.0878 66.4381 56.0764Z" fill="#D9E1EE"/>
<path d="M66.0052 55.8472L65.7601 55.9946L66.3728 56.1419L66.2748 56.1911L65.6375 56.0191L65.613 55.97L65.9317 55.7736L66.0052 55.8472Z" fill="#D9E1EE"/>
<path fill-rule="evenodd" clip-rule="evenodd" d="M65.7109 56.173C65.76 56.2073 65.7845 56.2761 65.7109 56.3105L65.6374 56.3792C65.5639 56.448 65.5149 56.4136 65.4658 56.3792L65.3678 56.3105C65.3188 56.2761 65.2943 56.2073 65.3678 56.173L65.4413 56.1042C65.5149 56.0355 65.5639 56.0698 65.6129 56.1042L65.7109 56.173ZM65.9315 56.5168L65.858 56.5855L65.0247 56.4136L65.0982 56.3792L65.9315 56.5168ZM65.5639 56.1386L65.6374 56.2073C65.6619 56.2073 65.6619 56.2417 65.6374 56.2761L65.5884 56.3105C65.5639 56.3449 65.5393 56.3449 65.5148 56.3105L65.4413 56.2417C65.429 56.2245 65.4229 56.2159 65.4229 56.2073C65.4229 56.1988 65.429 56.1902 65.4413 56.173L65.4903 56.1386C65.5148 56.1042 65.5393 56.1042 65.5639 56.1386ZM65.5884 56.6543C65.6374 56.6886 65.6619 56.7574 65.5884 56.7918L65.5149 56.8605C65.4413 56.9293 65.3923 56.8949 65.3433 56.8605L65.2453 56.7918C65.1962 56.7574 65.1717 56.6886 65.2453 56.6543L65.3188 56.5855C65.3923 56.5168 65.4413 56.5511 65.4904 56.5855L65.5884 56.6543ZM65.4413 56.6199L65.5148 56.6886C65.5271 56.7058 65.5332 56.7144 65.5332 56.723C65.5332 56.7316 65.5271 56.7402 65.5148 56.7574L65.4658 56.7918C65.4413 56.8262 65.4168 56.8262 65.3923 56.7918L65.3187 56.723C65.3065 56.7058 65.3004 56.6972 65.3004 56.6886C65.3004 56.68 65.3065 56.6715 65.3187 56.6543L65.3678 56.6199C65.3923 56.5855 65.4168 56.5855 65.4413 56.6199Z" fill="#D9E1EE"/>
<path d="M69.1669 54.4965C69.0934 54.4474 68.9709 54.4474 68.9218 54.4965C68.8483 54.5456 68.8483 54.5947 68.9218 54.6439C68.9954 54.693 69.1179 54.693 69.1669 54.6439C69.2405 54.6193 69.2405 54.5456 69.1669 54.4965Z" fill="white"/>
<path d="M68.7746 54.4229C68.8482 54.3737 68.9462 54.3492 69.0443 54.3492V54.2755C68.9217 54.2755 68.7746 54.3001 68.6766 54.3737C68.5786 54.4229 68.5295 54.4965 68.5295 54.5948H68.6521C68.6766 54.5211 68.7011 54.472 68.7746 54.4229Z" fill="white"/>
<path d="M68.5786 54.3246C68.7012 54.2509 68.8728 54.2018 69.0443 54.2018V54.1281C68.8482 54.1281 68.6277 54.1772 68.4806 54.2509C68.3335 54.3491 68.26 54.4474 68.26 54.5702H68.3826C68.3826 54.4965 68.4561 54.3983 68.5786 54.3246Z" fill="white"/>
<path d="M68.407 54.2018C68.5786 54.1036 68.8237 54.0545 69.0688 54.0545V53.9808C68.7992 53.9808 68.5296 54.0299 68.3335 54.1527C68.1374 54.2755 68.0149 54.4228 68.0149 54.5702H68.1374C68.1374 54.4474 68.2355 54.3246 68.407 54.2018Z" fill="white"/>
<path d="M76.1028 50.6407L75.343 50.1987L76.3479 50.125L76.1028 50.6407Z" fill="#D9E1EE"/>
<path d="M76.5686 49.9777L76.7402 49.3882L77.5 49.8303L76.5686 49.9777Z" fill="#D9E1EE"/>
<path d="M76.5441 50.1004L76.5686 50.0022L77.5245 49.8549L76.1274 50.6653L76.3725 50.1004H76.5441Z" fill="#D9E1EE"/>
<path d="M75.3186 50.1987L76.7157 49.3882L76.5196 50.0759L75.3186 50.1987Z" fill="#D9E1EE"/>
<path d="M93.309 58.3277C93.309 58.3768 93.2845 58.4014 93.26 58.4505C93.1864 58.5979 93.0639 58.7452 92.8678 58.868L80.9806 65.7691L80.6129 65.9901C80.0247 66.334 79.0443 66.334 78.456 65.9901L76.6423 64.9341L72.9413 62.7975L64.4609 57.8856L71.0051 54.079L73.8727 52.4335L77.5492 50.2969L78.7256 49.6093L92.8678 57.7874C93.1129 57.9348 93.26 58.1312 93.309 58.3277Z" fill="url(#paint0_linear)"/>
<path d="M78.5217 55.1356C81.2484 54.8839 83.5829 55.9442 83.7361 57.5037C83.8892 59.0632 81.8029 60.5315 79.0763 60.7832C76.3496 61.0348 74.015 59.9746 73.8619 58.4151C73.7087 56.8555 75.795 55.3872 78.5217 55.1356Z" fill="url(#paint1_linear)"/>
<path d="M78.6344 55.8261C80.6924 55.6535 82.461 56.4533 82.5846 57.6125C82.7081 58.7717 81.1399 59.8514 79.0819 60.0241C77.0238 60.1967 75.2552 59.3969 75.1317 58.2377C75.0081 57.0784 76.5763 55.9987 78.6344 55.8261Z" stroke="white" stroke-opacity="0.5" stroke-width="0.5"/>
<path d="M77.176 58.1596L80.3902 57.8982L80.3379 57.3386L77.1237 57.6L77.176 58.1596Z" fill="white"/>
<path d="M89.8286 63.1904L88.456 64.0009C88.0884 64.2219 87.4757 64.2219 87.108 64.0009C86.7404 63.7799 86.7404 63.436 87.108 63.215L88.4806 62.4045C88.8482 62.1835 89.4609 62.1835 89.8286 62.4045C90.1962 62.601 90.1962 62.9694 89.8286 63.1904Z" fill="#DCDEED"/>
<path d="M94.5344 62.5765L95.6129 61.9134V61.152L94.5344 61.8151V62.5765Z" fill="white"/>
<path d="M95.3923 61.7906L94.5835 62.3063V62.5028L95.5639 61.8888L95.3923 61.7906Z" fill="#5C697C"/>
<path d="M94.5835 61.8397V62.3063L95.3923 61.7906V61.324L95.3433 61.3485L94.5835 61.8397Z" fill="#1B1B1B"/>
<path d="M94.5835 61.9134V62.2326L95.3433 61.7414V61.4222L94.5835 61.9134Z" fill="#1B1823"/>
<path d="M95.5638 61.6923V61.2257L95.3922 61.3239V61.7906L95.5638 61.8888V61.6923Z" fill="#404040"/>
<path d="M96.6111 60.9801C96.6111 61.2012 96.4445 61.4713 96.25 61.5695C96.0556 61.6678 95.8889 61.5695 95.8889 61.324C95.8889 61.1029 96.0556 60.8328 96.25 60.7345C96.4445 60.6363 96.6111 60.7345 96.6111 60.9801Z" fill="#1B1B1B"/>
<path d="M95.9446 61.3976C96.139 61.2994 96.3057 61.0292 96.3057 60.8082C96.3057 60.7836 96.3057 60.7591 96.3057 60.7345C96.4724 60.6608 96.639 60.7591 96.639 60.9801C96.639 61.2011 96.4724 61.4713 96.2779 61.5695C96.1112 61.6678 95.9724 61.5941 95.9446 61.4222C95.9446 61.4222 95.9446 61.4222 95.9446 61.3976Z" fill="#5C697C"/>
<path d="M96.1669 61.5204C96.3613 61.4222 96.528 61.152 96.528 60.931C96.528 60.8328 96.5002 60.7591 96.4446 60.71C96.5558 60.7345 96.6113 60.8328 96.6113 60.9801C96.6113 61.2011 96.4446 61.4713 96.2502 61.5695C96.1391 61.6186 96.0557 61.6186 95.9724 61.545C96.0557 61.5695 96.1113 61.5695 96.1669 61.5204Z" fill="#D9E1EE"/>
<path d="M67.5 52.6546C67.5245 52.6792 67.549 52.7283 67.598 52.7528C67.7696 52.8511 68.0392 52.8511 68.2108 52.7528L70.8333 51.2547C70.8823 51.2302 70.9069 51.2056 70.9314 51.1565C70.9804 51.0583 70.9559 50.96 70.8333 50.8864C70.6618 50.7881 70.3921 50.7881 70.2206 50.8864L67.598 52.3845C67.4755 52.4827 67.451 52.5809 67.5 52.6546Z" fill="#DCDEED"/>
<path d="M67.5 52.6546C67.5245 52.6792 67.549 52.7283 67.598 52.7529C67.7696 52.8511 68.0392 52.8511 68.2108 52.7529L70.8333 51.2548C70.8824 51.2302 70.9069 51.2057 70.9314 51.1565C70.9069 51.1074 70.8824 51.0829 70.8333 51.0583C70.6618 50.9601 70.3922 50.9601 70.2206 51.0583L67.598 52.5564C67.549 52.6055 67.5 52.6301 67.5 52.6546Z" fill="#30273B"/>
<path d="M75.147 48.0866C75.147 48.1603 75.2206 48.2585 75.3186 48.3077C75.5637 48.455 75.9313 48.455 76.1764 48.3077C76.2255 48.2831 76.2745 48.234 76.299 48.1849C76.397 48.0621 76.348 47.9147 76.1764 47.7919C75.9313 47.6446 75.5637 47.6446 75.3186 47.7919C75.196 47.8901 75.1225 47.9884 75.147 48.0866Z" fill="#30273B"/>
<path d="M65.0735 60.3416L63.3088 59.3101L63.3333 58.6224L65.0981 59.6539L65.0735 60.3416Z" fill="#D9E1EE"/>
<path d="M65.098 59.6539L63.3333 58.6225L63.6029 58.4751L65.3676 59.5066L65.098 59.6539Z" fill="#D9E1EE"/>
<path d="M65.3676 59.5066L65.3431 60.1942L65.0735 60.3416L65.098 59.6539L65.3676 59.5066Z" fill="#DCDEED"/>
<path d="M62.8186 59.0154L62.0588 58.5733V57.8857L62.8186 58.3277V59.0154Z" fill="#D9E1EE"/>
<path d="M62.8186 58.3278L62.0588 57.8857L62.3284 57.7383L63.0882 58.1804L62.8186 58.3278Z" fill="#D9E1EE"/>
<path d="M63.0882 58.1804V58.8681L62.8186 59.0154V58.3278L63.0882 58.1804Z" fill="#DCDEED"/>
<path opacity="0.47" d="M80.9068 65.6709L80.5391 65.8919C79.9509 66.2358 78.9705 66.2358 78.3823 65.8919L76.5686 64.8359L73.7744 52.3353L73.4558 50.9355L76.1764 49.3637C76.397 49.2409 76.6421 49.1672 76.9117 49.1181L77.2548 49.3146L77.4509 50.1741L80.9068 65.6709Z" fill="white"/>
<path opacity="0.35" d="M72.8676 62.6993L64.3872 57.7875L63.9461 57.5173C63.75 57.3945 63.6029 57.2472 63.5539 57.0998C63.5294 57.0507 63.5294 57.0261 63.5049 56.977C63.5294 56.7806 63.6765 56.5841 63.9461 56.4367L70.6372 52.5564L70.9559 53.9563L72.8676 62.6993Z" fill="white"/>
<path d="M97.4589 79.909L97.4028 78.2718L96.857 78.2776C96.5064 77.7762 95.963 77.2817 95.2747 76.8967C92.4419 75.1857 87.9475 75.125 85.2264 76.7717C84.5502 77.1711 84.0663 77.6469 83.7429 78.1309L83.197 78.1366L83.2531 79.7738C83.2958 80.8767 83.9967 81.9628 85.421 82.8354C88.2538 84.5464 92.7482 84.607 95.4693 82.9603C96.838 82.1123 97.5016 81.0119 97.4589 79.909Z" fill="#755930"/>
<path fill-rule="evenodd" clip-rule="evenodd" d="M97.4466 80.0091L97.3951 78.3749L96.8475 78.3822C96.4972 77.8827 95.9535 77.3906 95.2641 77.0083C92.4271 75.3084 87.9184 75.261 85.1838 76.913C84.5042 77.3137 84.0174 77.7901 83.6914 78.2742L83.1438 78.2815L83.1953 79.9158C83.2349 81.0167 83.9349 82.0989 85.3613 82.9659C88.1983 84.6657 92.707 84.7131 95.4416 83.0611C96.8172 82.2106 97.4862 81.11 97.4466 80.0091Z" fill="url(#paint2_linear)"/>
<path d="M90.1964 74.0062C94.1487 74.0427 97.3979 75.9489 97.4537 78.2637C97.5095 80.5785 94.3507 82.4254 90.3984 82.3889C86.4461 82.3523 83.1969 80.4462 83.1411 78.1314C83.0853 75.8165 86.2441 73.9696 90.1964 74.0062Z" fill="#BCD5FF"/>
<path d="M90.1964 74.0062C94.1487 74.0427 97.3979 75.9489 97.4537 78.2637C97.5095 80.5785 94.3507 82.4254 90.3984 82.3889C86.4461 82.3523 83.1969 80.4462 83.1411 78.1314C83.0853 75.8165 86.2441 73.9696 90.1964 74.0062Z" fill="url(#paint3_linear)"/>
<path d="M90.2388 74.9732C93.4027 75.0092 96.0062 76.5043 96.0537 78.3127C96.1013 80.121 93.5749 81.5578 90.411 81.5218C87.247 81.4858 84.6436 79.9907 84.596 78.1823C84.5485 76.374 87.0748 74.9372 90.2388 74.9732Z" stroke="white" stroke-opacity="0.5" stroke-width="0.777887"/>
<path d="M88.002 78.2362L92.622 78.302L92.6107 77.4862L87.9907 77.4204L88.002 78.2362Z" fill="white"/>
<path d="M95.4365 81.2385C92.7082 82.8462 88.2273 82.7844 85.4184 81.1109C83.6789 80.0575 82.9972 78.6754 83.3555 77.3462C82.933 78.7054 83.6144 80.1707 85.4018 81.2432C88.2266 82.9507 92.7074 83.0125 95.4198 81.3707C96.463 80.7584 97.1069 79.9595 97.3028 79.1211C97.0431 79.9063 96.4154 80.6562 95.4365 81.2385Z" fill="white"/>
<path d="M95.3723 77.8256L95.3162 76.1884L94.7704 76.1942C94.4197 75.6928 93.8764 75.1983 93.188 74.8133C90.3552 73.1023 85.8608 73.0416 83.1398 74.6884C82.4636 75.0877 81.9796 75.5636 81.6562 76.0475L81.1104 76.0532L81.1664 77.6904C81.2091 78.7933 81.91 79.8794 83.3344 80.752C86.1672 82.463 90.6616 82.5237 93.3826 80.8769C94.7513 80.0289 95.4149 78.9285 95.3723 77.8256Z" fill="#755930"/>
<path fill-rule="evenodd" clip-rule="evenodd" d="M95.3599 77.9258L95.3084 76.2915L94.7608 76.2988C94.4105 75.7993 93.8668 75.3073 93.1774 74.9249C90.3405 73.2251 85.8317 73.1777 83.0971 74.8296C82.4176 75.2303 81.9307 75.7068 81.6048 76.1908L81.0572 76.1982L81.1087 77.8324C81.1483 78.9333 81.8483 80.0155 83.2747 80.8825C86.1116 82.5823 90.6203 82.6297 93.355 80.9777C94.7305 80.1272 95.3995 79.0266 95.3599 77.9258Z" fill="url(#paint4_linear)"/>
<path d="M88.1098 71.9228C92.0621 71.9594 95.3113 73.8655 95.367 76.1803C95.4228 78.4951 92.264 80.342 88.3117 80.3055C84.3594 80.2689 81.1102 78.3628 81.0544 76.048C80.9987 73.7332 84.1574 71.8863 88.1098 71.9228Z" fill="#BCD5FF"/>
<path d="M88.1098 71.9228C92.0621 71.9594 95.3113 73.8655 95.367 76.1803C95.4228 78.4951 92.264 80.342 88.3117 80.3055C84.3594 80.2689 81.1102 78.3628 81.0544 76.048C80.9987 73.7332 84.1574 71.8863 88.1098 71.9228Z" fill="url(#paint5_linear)"/>
<path d="M88.1521 72.8898C91.316 72.9257 93.9195 74.4209 93.967 76.2293C94.0146 78.0376 91.4883 79.4744 88.3243 79.4384C85.1604 79.4024 82.5569 77.9073 82.5094 76.0989C82.4618 74.2906 84.9881 72.8538 88.1521 72.8898Z" stroke="white" stroke-opacity="0.5" stroke-width="0.777887"/>
<path d="M85.9153 76.1527L90.5353 76.2186L90.524 75.4028L85.904 75.337L85.9153 76.1527Z" fill="white"/>
<path d="M93.3498 79.1551C90.6216 80.7628 86.1407 80.701 83.3318 79.0276C81.5922 77.9742 80.9105 76.592 81.2688 75.2629C80.8464 76.622 81.5277 78.0873 83.3151 79.1598C86.1399 80.8673 90.6208 80.9291 93.3332 79.2873C94.3763 78.6751 95.0202 77.8761 95.2162 77.0377C94.9564 77.823 94.3288 78.5728 93.3498 79.1551Z" fill="white"/>
<path d="M96.9613 74.1648L96.9078 72.5336L96.36 72.5402C96.0089 72.0412 95.4644 71.5494 94.7743 71.1669C91.9342 69.4667 87.4237 69.4138 84.6901 71.0592C84.0108 71.4583 83.5243 71.9332 83.1989 72.416L82.6511 72.4226L82.7047 74.0539C82.7456 75.1527 83.4473 76.2337 84.8753 77.1008C87.7154 78.801 92.2258 78.8539 94.9594 77.2085C96.3345 76.3613 97.0023 75.2636 96.9613 74.1648Z" fill="#755930"/>
<path fill-rule="evenodd" clip-rule="evenodd" d="M96.9487 74.2646L96.8998 72.6362L96.3502 72.6445C95.9994 72.1473 95.4547 71.658 94.7634 71.2781C91.9191 69.5891 87.3942 69.5494 84.647 71.2C83.9644 71.6004 83.4749 72.076 83.147 72.5589L82.5975 72.5671L82.6464 74.1954C82.6843 75.2923 83.385 76.3695 84.8151 77.231C87.6594 78.9199 92.1842 78.9596 94.9314 77.309C96.3134 76.4592 96.9866 75.3615 96.9487 74.2646Z" fill="url(#paint6_linear)"/>
<path d="M89.6827 68.2952C93.6491 68.325 96.9068 70.2189 96.9589 72.5254C97.011 74.8318 93.8378 76.6774 89.8713 76.6476C85.9049 76.6178 82.6472 74.7239 82.5951 72.4174C82.543 70.111 85.7162 68.2654 89.6827 68.2952Z" fill="#BCD5FF"/>
<path d="M89.6827 68.2952C93.6491 68.325 96.9068 70.2189 96.9589 72.5254C97.011 74.8318 93.8378 76.6774 89.8713 76.6476C85.9049 76.6178 82.6472 74.7239 82.5951 72.4174C82.543 70.111 85.7162 68.2654 89.6827 68.2952Z" fill="url(#paint7_linear)"/>
<path fill-rule="evenodd" clip-rule="evenodd" d="M89.8833 76.1094C93.2176 76.1427 95.9297 74.6085 95.8784 72.5707C95.8274 70.5464 93.0525 68.9662 89.725 68.9329C86.3907 68.8996 83.6785 70.4338 83.7298 72.4716C83.7808 74.4958 86.5557 76.0761 89.8833 76.1094ZM89.8893 75.4593C86.8667 75.429 84.4203 74.0358 84.3805 72.4557C84.3411 70.8891 86.7031 69.5529 89.7189 69.583C92.7414 69.6133 95.1879 71.0064 95.2276 72.5866C95.2671 74.1532 92.905 75.4894 89.8893 75.4593Z" fill="white" fill-opacity="0.5"/>
<path d="M87.4729 72.5137L92.1094 72.5716L92.0994 71.7588L87.463 71.7009L87.4729 72.5137Z" fill="white"/>
<path d="M94.9292 75.4929C92.1885 77.0994 87.6916 77.0453 84.8754 75.3826C83.1314 74.3359 82.4496 72.9598 82.8114 71.6348C82.3851 72.9899 83.0664 74.4487 84.8585 75.5144C87.6906 77.211 92.1875 77.2652 94.9123 75.6247C95.9603 75.0129 96.6078 74.2157 96.8059 73.38C96.5439 74.1629 95.9127 74.9111 94.9292 75.4929Z" fill="white"/>
<path d="M96.0255 71.3572L95.972 69.7259L95.4242 69.7326C95.0731 69.2336 94.5287 68.7418 93.8385 68.3593C90.9984 66.6591 86.4879 66.6062 83.7543 68.2516C83.075 68.6507 82.5885 69.1256 82.2631 69.6084L81.7153 69.615L81.7689 71.2462C81.8099 72.3451 82.5115 73.4261 83.9395 74.2932C86.7796 75.9933 91.29 76.0463 94.0236 74.4009C95.3987 73.5536 96.0665 72.456 96.0255 71.3572Z" fill="#755930"/>
<path fill-rule="evenodd" clip-rule="evenodd" d="M96.0129 71.4569L95.964 69.8286L95.4144 69.8368C95.0636 69.3396 94.5189 68.8503 93.8276 68.4704C90.9833 66.7814 86.4584 66.7417 83.7112 68.3924C83.0286 68.7928 82.5391 69.2683 82.2112 69.7512L81.6617 69.7594L81.7106 71.3878C81.7485 72.4846 82.4492 73.5618 83.8793 74.4233C86.7236 76.1123 91.2484 76.1519 93.9957 74.5013C95.3776 73.6515 96.0508 72.5538 96.0129 71.4569Z" fill="url(#paint8_linear)"/>
<path d="M88.7469 65.4876C92.7133 65.5174 95.971 67.4113 96.0231 69.7177C96.0752 72.0242 92.902 73.8697 88.9355 73.8399C84.9691 73.8101 81.7114 71.9163 81.6593 69.6098C81.6072 67.3034 84.7804 65.4578 88.7469 65.4876Z" fill="#BCD5FF"/>
<path d="M88.7469 65.4875C92.7133 65.5173 95.971 67.4112 96.0231 69.7177C96.0752 72.0241 92.902 73.8697 88.9355 73.8399C84.9691 73.8101 81.7114 71.9162 81.6593 69.6098C81.6072 67.3033 84.7804 65.4577 88.7469 65.4875Z" fill="url(#paint9_linear)"/>
<path fill-rule="evenodd" clip-rule="evenodd" d="M88.9475 73.3017C92.2818 73.335 94.9939 71.8008 94.9426 69.763C94.8916 67.7388 92.1167 66.1585 88.7892 66.1252C85.4549 66.0919 82.7427 67.6262 82.794 69.6639C82.845 71.6882 85.6199 73.2684 88.9475 73.3017ZM88.9535 72.6516C85.931 72.6213 83.4845 71.2282 83.4447 69.648C83.4053 68.0814 85.7673 66.7452 88.7831 66.7753C91.8056 66.8056 94.2521 68.1988 94.2919 69.7789C94.3313 71.3455 91.9693 72.6817 88.9535 72.6516Z" fill="white" fill-opacity="0.5"/>
<path d="M86.5371 69.7061L91.1736 69.7639L91.1636 68.9511L86.5272 68.8932L86.5371 69.7061Z" fill="white"/>
<path d="M93.9935 72.6852C91.2527 74.2918 86.7558 74.2377 83.9396 72.5749C82.1956 71.5282 81.5138 70.1522 81.8756 68.8272C81.4493 70.1822 82.1307 71.6411 83.9227 72.7067C86.7548 74.4034 91.2517 74.4575 93.9766 72.817C95.0245 72.2052 95.672 71.408 95.8701 70.5723C95.6081 71.3552 94.9769 72.1034 93.9935 72.6852Z" fill="white"/>
<path d="M96.9613 68.5494L96.9078 66.9181L96.36 66.9248C96.0089 66.4258 95.4644 65.934 94.7743 65.5515C91.9342 63.8513 87.4237 63.7984 84.6901 65.4438C84.0108 65.8429 83.5243 66.3178 83.1989 66.8006L82.6511 66.8072L82.7047 68.4384C82.7456 69.5373 83.4473 70.6183 84.8753 71.4854C87.7154 73.1855 92.2258 73.2385 94.9594 71.5931C96.3345 70.7458 97.0023 69.6482 96.9613 68.5494Z" fill="#755930"/>
<path fill-rule="evenodd" clip-rule="evenodd" d="M96.9487 68.6492L96.8998 67.0208L96.3502 67.029C95.9994 66.5319 95.4547 66.0425 94.7634 65.6627C91.9191 63.9737 87.3942 63.934 84.647 65.5846C83.9644 65.985 83.4749 66.4606 83.147 66.9435L82.5975 66.9517L82.6464 68.58C82.6843 69.6769 83.385 70.7541 84.8151 71.6155C87.6594 73.3045 92.1842 73.3442 94.9314 71.6936C96.3134 70.8438 96.9866 69.746 96.9487 68.6492Z" fill="url(#paint10_linear)"/>
<path d="M89.6827 62.6798C93.6491 62.7096 96.9068 64.6035 96.9589 66.9099C97.011 69.2164 93.8378 71.0619 89.8713 71.0321C85.9049 71.0023 82.6472 69.1085 82.5951 66.802C82.543 64.4956 85.7162 62.65 89.6827 62.6798Z" fill="#BCD5FF"/>
<path d="M89.6827 62.6798C93.6491 62.7096 96.9068 64.6035 96.9589 66.9099C97.011 69.2164 93.8378 71.0619 89.8713 71.0321C85.9049 71.0023 82.6472 69.1085 82.5951 66.802C82.543 64.4956 85.7162 62.65 89.6827 62.6798Z" fill="url(#paint11_linear)"/>
<path fill-rule="evenodd" clip-rule="evenodd" d="M89.8833 70.4939C93.2176 70.5273 95.9297 68.993 95.8784 66.9553C95.8274 64.931 93.0525 63.3508 89.725 63.3175C86.3907 63.2842 83.6785 64.8184 83.7298 66.8562C83.7808 68.8804 86.5557 70.4607 89.8833 70.4939ZM89.8893 69.8438C86.8667 69.8136 84.4203 68.4204 84.3805 66.8403C84.3411 65.2737 86.7031 63.9375 89.7189 63.9676C92.7414 63.9978 95.1879 65.391 95.2276 66.9712C95.2671 68.5378 92.905 69.874 89.8893 69.8438Z" fill="white" fill-opacity="0.5"/>
<path d="M87.4729 66.8983L92.1094 66.9562L92.0994 66.1434L87.463 66.0855L87.4729 66.8983Z" fill="white"/>
<path d="M94.9292 69.8775C92.1885 71.484 87.6916 71.4299 84.8754 69.7672C83.1314 68.7205 82.4496 67.3444 82.8114 66.0194C82.3851 67.3744 83.0664 68.8333 84.8585 69.899C87.6906 71.5956 92.1875 71.6497 94.9123 70.0093C95.9603 69.3975 96.6078 68.6003 96.8059 67.7646C96.5439 68.5474 95.9127 69.2957 94.9292 69.8775Z" fill="white"/>
<path d="M96.0255 64.8058L95.972 63.1746L95.4242 63.1812C95.0731 62.6822 94.5287 62.1904 93.8385 61.8079C90.9984 60.1077 86.4879 60.0548 83.7543 61.7002C83.075 62.0993 82.5885 62.5742 82.2631 63.057L81.7153 63.0636L81.7689 64.6948C81.8099 65.7937 82.5115 66.8747 83.9395 67.7418C86.7796 69.442 91.29 69.4949 94.0236 67.8495C95.3987 67.0023 96.0665 65.9046 96.0255 64.8058Z" fill="#755930"/>
<path fill-rule="evenodd" clip-rule="evenodd" d="M96.0129 64.9056L95.964 63.2772L95.4144 63.2854C95.0636 62.7883 94.5189 62.299 93.8276 61.9191C90.9833 60.2301 86.4584 60.1904 83.7112 61.841C83.0286 62.2414 82.5391 62.717 82.2112 63.1999L81.6617 63.2081L81.7106 64.8364C81.7485 65.9333 82.4492 67.0105 83.8793 67.8719C86.7236 69.5609 91.2484 69.6006 93.9957 67.95C95.3776 67.1002 96.0508 66.0024 96.0129 64.9056Z" fill="url(#paint12_linear)"/>
<path d="M88.7469 58.9363C92.7133 58.9661 95.971 60.86 96.0231 63.1664C96.0752 65.4728 92.902 67.3184 88.9355 67.2886C84.9691 67.2588 81.7114 65.3649 81.6593 63.0585C81.6072 60.7521 84.7804 58.9065 88.7469 58.9363Z" fill="#BCD5FF"/>
<path d="M88.7469 58.9362C92.7133 58.966 95.971 60.8599 96.0231 63.1663C96.0752 65.4728 92.902 67.3184 88.9355 67.2886C84.9691 67.2588 81.7114 65.3649 81.6593 63.0584C81.6072 60.752 84.7804 58.9064 88.7469 58.9362Z" fill="url(#paint13_linear)"/>
<path fill-rule="evenodd" clip-rule="evenodd" d="M88.9475 66.7503C92.2818 66.7837 94.9939 65.2494 94.9426 63.2117C94.8916 61.1874 92.1167 59.6072 88.7892 59.5739C85.4549 59.5406 82.7427 61.0748 82.794 63.1126C82.845 65.1368 85.6199 66.7171 88.9475 66.7503ZM88.9535 66.1002C85.931 66.07 83.4845 64.6768 83.4447 63.0967C83.4053 61.5301 85.7673 60.1939 88.7831 60.224C91.8056 60.2542 94.2521 61.6474 94.2919 63.2276C94.3313 64.7942 91.9693 66.1304 88.9535 66.1002Z" fill="white" fill-opacity="0.5"/>
<path d="M86.5371 63.1547L91.1736 63.2126L91.1636 62.3998L86.5272 62.3419L86.5371 63.1547Z" fill="white"/>
<path d="M93.9935 66.1339C91.2527 67.7404 86.7558 67.6863 83.9396 66.0236C82.1956 64.9769 81.5138 63.6008 81.8756 62.2758C81.4493 63.6308 82.1307 65.0897 83.9227 66.1554C86.7548 67.852 91.2517 67.9061 93.9766 66.2657C95.0245 65.6539 95.672 64.8567 95.8701 64.021C95.6081 64.8038 94.9769 65.5521 93.9935 66.1339Z" fill="white"/>
<path d="M96.0255 62.466L95.972 60.8348L95.4242 60.8414C95.0731 60.3424 94.5287 59.8506 93.8385 59.4681C90.9984 57.768 86.4879 57.715 83.7543 59.3604C83.075 59.7595 82.5885 60.2344 82.2631 60.7172L81.7153 60.7238L81.7689 62.3551C81.8099 63.4539 82.5115 64.535 83.9395 65.402C86.7796 67.1022 91.29 67.1551 94.0236 65.5097C95.3987 64.6625 96.0665 63.5648 96.0255 62.466Z" fill="#755930"/>
<path fill-rule="evenodd" clip-rule="evenodd" d="M96.0129 62.5658L95.964 60.9375L95.4144 60.9457C95.0636 60.4485 94.5189 59.9592 93.8276 59.5793C90.9833 57.8903 86.4584 57.8506 83.7112 59.5013C83.0286 59.9017 82.5391 60.3772 82.2112 60.8601L81.6617 60.8683L81.7106 62.4967C81.7485 63.5935 82.4492 64.6707 83.8793 65.5322C86.7236 67.2212 91.2484 67.2608 93.9957 65.6102C95.3776 64.7604 96.0508 63.6627 96.0129 62.5658Z" fill="url(#paint14_linear)"/>
<path d="M88.7469 56.5964C92.7133 56.6262 95.971 58.5201 96.0231 60.8266C96.0752 63.133 92.902 64.9786 88.9355 64.9488C84.9691 64.919 81.7114 63.0251 81.6593 60.7187C81.6072 58.4122 84.7804 56.5666 88.7469 56.5964Z" fill="#BCD5FF"/>
<path d="M88.7469 56.5964C92.7133 56.6262 95.971 58.5201 96.0231 60.8266C96.0752 63.133 92.902 64.9786 88.9355 64.9488C84.9691 64.919 81.7114 63.0251 81.6593 60.7187C81.6072 58.4122 84.7804 56.5666 88.7469 56.5964Z" fill="url(#paint15_linear)"/>
<path fill-rule="evenodd" clip-rule="evenodd" d="M88.9475 64.4106C92.2818 64.4439 94.9939 62.9097 94.9426 60.8719C94.8916 58.8477 92.1167 57.2674 88.7892 57.2341C85.4549 57.2008 82.7427 58.735 82.794 60.7728C82.845 62.7971 85.6199 64.3773 88.9475 64.4106ZM88.9535 63.7605C85.931 63.7302 83.4845 62.3371 83.4447 60.7569C83.4053 59.1903 85.7673 57.8541 88.7831 57.8842C91.8056 57.9145 94.2521 59.3077 94.2919 60.8878C94.3313 62.4544 91.9693 63.7906 88.9535 63.7605Z" fill="white" fill-opacity="0.5"/>
<path d="M86.5371 60.815L91.1736 60.8728L91.1636 60.06L86.5272 60.0021L86.5371 60.815Z" fill="white"/>
<path d="M93.9935 63.7941C91.2527 65.4006 86.7558 65.3465 83.9396 63.6838C82.1956 62.6371 81.5138 61.2611 81.8756 59.9361C81.4493 61.2911 82.1307 62.75 83.9227 63.8156C86.7548 65.5123 91.2517 65.5664 93.9766 63.9259C95.0245 63.3141 95.672 62.5169 95.8701 61.6812C95.6081 62.4641 94.9769 63.2123 93.9935 63.7941Z" fill="white"/>
<path d="M97.4293 60.1263L97.3758 58.495L96.828 58.5017C96.4769 58.0027 95.9325 57.5109 95.2423 57.1284C92.4022 55.4282 87.8917 55.3753 85.1581 57.0207C84.4788 57.4198 83.9924 57.8947 83.6669 58.3775L83.1191 58.3841L83.1727 60.0153C83.2137 61.1142 83.9153 62.1952 85.3433 63.0623C88.1834 64.7625 92.6939 64.8154 95.4275 63.17C96.8025 62.3227 97.4703 61.2251 97.4293 60.1263Z" fill="#755930"/>
<path fill-rule="evenodd" clip-rule="evenodd" d="M97.4167 60.2261L97.3678 58.5977L96.8182 58.6059C96.4675 58.1088 95.9227 57.6195 95.2314 57.2396C92.3871 55.5506 87.8623 55.5109 85.115 57.1615C84.4324 57.5619 83.9429 58.0375 83.6151 58.5204L83.0655 58.5286L83.1144 60.1569C83.1523 61.2538 83.853 62.331 85.2831 63.1924C88.1274 64.8814 92.6522 64.9211 95.3995 63.2705C96.7814 62.4207 97.4546 61.3229 97.4167 60.2261Z" fill="url(#paint16_linear)"/>
<path d="M90.1507 54.2567C94.1171 54.2865 97.3748 56.1804 97.4269 58.4868C97.479 60.7933 94.3058 62.6388 90.3394 62.6091C86.3729 62.5793 83.1152 60.6854 83.0631 58.3789C83.011 56.0725 86.1842 54.2269 90.1507 54.2567Z" fill="#BCD5FF"/>
<path d="M90.1507 54.2567C94.1171 54.2865 97.3748 56.1804 97.4269 58.4868C97.479 60.7933 94.3058 62.6388 90.3394 62.6091C86.3729 62.5793 83.1152 60.6854 83.0631 58.3789C83.011 56.0725 86.1842 54.2269 90.1507 54.2567Z" fill="url(#paint17_linear)"/>
<path fill-rule="evenodd" clip-rule="evenodd" d="M90.3513 62.0708C93.6856 62.1042 96.3977 60.5699 96.3464 58.5322C96.2954 56.5079 93.5205 54.9277 90.193 54.8944C86.8587 54.8611 84.1465 56.3953 84.1979 58.4331C84.2488 60.4573 87.0237 62.0376 90.3513 62.0708ZM90.3573 61.4207C87.3348 61.3905 84.8883 59.9973 84.8485 58.4172C84.8091 56.8506 87.1711 55.5144 90.1869 55.5445C93.2094 55.5747 95.6559 56.9679 95.6957 58.5481C95.7351 60.1147 93.3731 61.4509 90.3573 61.4207Z" fill="white" fill-opacity="0.5"/>
<path d="M87.941 58.4752L92.5774 58.5331L92.5674 57.7203L87.931 57.6624L87.941 58.4752Z" fill="white"/>
<path d="M95.3973 61.4544C92.6565 63.0609 88.1597 63.0068 85.3434 61.3441C83.5994 60.2974 82.9176 58.9213 83.2794 57.5963C82.8531 58.9513 83.5345 60.4102 85.3265 61.4759C88.1586 63.1725 92.6555 63.2266 95.3804 61.5862C96.4283 60.9744 97.0758 60.1772 97.2739 59.3415C97.0119 60.1243 96.3807 60.8726 95.3973 61.4544Z" fill="white"/>
<path d="M64.9511 77.1154L84.0198 66.0147C84.5345 65.72 84.9756 65.941 84.9756 66.555L85.0492 80.2835C85.0492 80.8729 84.6325 81.6097 84.1178 81.929L65.0492 93.0296C64.5345 93.3244 64.0933 93.1033 64.0933 92.4894L64.0198 78.7608C64.0198 78.1469 64.4364 77.4101 64.9511 77.1154Z" fill="#F0F3F9"/>
<rect x="82.9561" y="83.6533" width="0.539207" height="0.761337" transform="rotate(-180 82.9561 83.6533)" fill="#D4D0C8"/>
<path d="M64.853 93.4472H65.3677V94.012L84.3383 82.985C84.853 82.6903 85.7109 82.6658 86.2256 82.985L99.706 89.9107V91.1386C99.706 91.3351 99.5589 91.507 99.3138 91.6544L80.2452 102.755C79.7305 103.05 78.8726 103.05 78.3579 102.755L65.2697 95.1909C65.0246 95.0435 64.902 94.8716 64.8775 94.6751V93.4472H64.853Z" fill="#DCDEED"/>
<path d="M65.2452 93.9875L78.3334 101.552C78.8481 101.846 79.7059 101.846 80.2206 101.552L99.2893 90.451C99.804 90.1563 99.804 89.6651 99.2893 89.3704L86.201 81.7816C85.6863 81.4869 84.8285 81.4869 84.3138 81.7816L82.402 82.8868L82.7697 83.0833L68.9216 91.1141L68.603 90.9176L65.2452 92.8578C64.7305 93.2016 64.7305 93.6928 65.2452 93.9875Z" fill="#F0F3F9"/>
<path d="M84.314 65.72C84.2404 65.6709 84.1424 65.6218 84.0443 65.5727C83.8728 65.4744 83.6277 65.499 83.3826 65.6464L64.3139 76.747C63.7992 77.0417 63.3826 77.7785 63.3826 78.3925L63.4561 92.121C63.4561 92.4157 63.5541 92.6367 63.7257 92.735C63.9463 92.8578 64.1669 93.0051 64.3875 93.1279C64.2159 93.0297 64.1179 92.8086 64.1179 92.5139L64.0443 78.7854C64.0443 78.196 64.461 77.4592 64.9757 77.14L84.0443 66.0393C84.3139 65.8919 84.559 65.8674 84.7061 65.9656C84.6816 65.9411 84.3875 65.7691 84.314 65.72Z" fill="#DCDEED"/>
<path d="M67.7029 95.9276C67.7029 96.1732 67.8695 96.4434 68.064 96.5416C68.2584 96.6399 68.4251 96.5416 68.4251 96.296C68.4251 96.0504 68.2584 95.7803 68.064 95.6821C67.8418 95.5838 67.7029 95.6821 67.7029 95.9276Z" fill="#303030"/>
<path d="M68.3695 96.3697C68.175 96.2714 68.0084 96.0013 68.0084 95.7557C68.0084 95.7311 68.0084 95.7066 68.0084 95.682C67.8139 95.6083 67.675 95.7066 67.675 95.9276C67.675 96.1732 67.8417 96.4434 68.0362 96.5416C68.2028 96.6398 68.3695 96.5662 68.3973 96.3697C68.3973 96.3697 68.3973 96.3697 68.3695 96.3697Z" fill="#5C697C"/>
<path d="M68.1473 96.4925C67.9528 96.3942 67.7862 96.1241 67.7862 95.8785C67.7862 95.7803 67.8139 95.7066 67.8695 95.6575C67.7584 95.682 67.675 95.7803 67.675 95.9276C67.675 96.1732 67.8417 96.4434 68.0362 96.5416C68.1473 96.5907 68.2584 96.5907 68.3139 96.517C68.2861 96.517 68.2306 96.517 68.1473 96.4925Z" fill="#F2F2F2"/>
<path d="M68.7991 96.5662C68.7991 96.8118 68.9461 97.0819 69.1177 97.1801C69.2893 97.2784 69.4363 97.1801 69.4363 96.9346C69.4363 96.689 69.2893 96.4188 69.1177 96.3206C68.9461 96.2469 68.7991 96.3451 68.7991 96.5662Z" fill="#303030"/>
<path d="M69.4118 97.0082C69.2403 96.91 69.0932 96.6398 69.0932 96.3943C69.0932 96.3697 69.0932 96.3451 69.0932 96.3206C68.9216 96.2469 68.7991 96.3451 68.7991 96.5662C68.7991 96.8118 68.9461 97.0819 69.1177 97.1801C69.2648 97.2784 69.4118 97.2047 69.4363 97.0082C69.4363 97.0328 69.4118 97.0082 69.4118 97.0082Z" fill="#5C697C"/>
<path d="M69.2157 97.131C69.0442 97.0328 68.8971 96.7626 68.8971 96.5171C68.8971 96.4188 68.9216 96.3451 68.9706 96.296C68.8726 96.3206 68.7991 96.4188 68.7991 96.5662C68.7991 96.8118 68.9461 97.0819 69.1177 97.1802C69.2157 97.2293 69.3138 97.2293 69.3628 97.1556C69.3383 97.1802 69.2648 97.1802 69.2157 97.131Z" fill="#F2F2F2"/>
<path d="M67.2306 93.4718C67.3042 93.6682 67.5002 93.8893 67.7944 94.0612L74.4855 97.9661C75.2208 98.3836 76.2993 98.4327 76.9365 98.0643L93.8728 88.2898C93.8728 88.2898 93.8973 88.2898 93.8973 88.2652C94.0934 88.167 94.1914 88.0197 94.2649 87.8723C94.3875 87.553 94.1914 87.1601 93.7012 86.8654L87.01 82.9605C86.2747 82.543 85.1963 82.4939 84.5591 82.8623L67.6228 92.6368C67.4512 92.735 67.3287 92.8578 67.2551 92.9806C67.1571 93.1525 67.1571 93.2998 67.2306 93.4718Z" fill="#B3B3B3"/>
<path d="M67.2307 93.4717C67.3042 93.6682 67.5003 93.8892 67.7944 94.0611L74.4856 97.966C75.2209 98.3835 76.2993 98.4327 76.9366 98.0643L93.8729 88.2898C93.8729 88.2898 93.8974 88.2898 93.8974 88.2652C94.0935 88.167 94.1915 88.0196 94.265 87.8723C94.1915 87.6758 93.9954 87.4548 93.7013 87.2829L87.0101 83.378C86.2748 82.9605 85.1964 82.9113 84.5591 83.2797L67.6229 93.0542C67.4513 93.1525 67.3288 93.2753 67.2552 93.3981C67.2307 93.4226 67.2307 93.4472 67.2307 93.4717Z" fill="#F2F2F2"/>
<path d="M84.5591 85.5392L85.8826 86.3005L84.5101 87.111L83.1865 86.3496L84.5591 85.5392Z" fill="#5C697C"/>
<path d="M86.667 86.1777L87.9905 86.9391L86.618 87.7495L85.2944 86.9882L86.667 86.1777Z" fill="#5C697C"/>
<path d="M88.5787 85.1708L90.0983 86.0549L90.9807 86.5706L91.4219 86.8162L89.1179 88.167L87.7944 87.4057L88.5052 86.9881L86.9856 86.104L88.5787 85.1708Z" fill="#5C697C"/>
<path d="M85.1229 87.0864L86.4465 87.8478L85.0739 88.6582L83.7749 87.8969L85.1229 87.0864Z" fill="#5C697C"/>
<path d="M91.7405 86.9882L93.064 87.7495L90.2454 89.395L88.9219 88.6336L91.7405 86.9882Z" fill="#5C697C"/>
<path d="M88.7749 88.7319L90.0985 89.4932L87.9661 90.7457L86.6426 89.9598L88.7749 88.7319Z" fill="#5C697C"/>
<path d="M84.5591 89.2967L85.8826 90.058L84.5101 90.8685L83.1865 90.1071L84.5591 89.2967Z" fill="#5C697C"/>
<path d="M85.2453 83.2552L86.5689 84.0165L85.1963 84.827L83.8728 84.0656L85.2453 83.2552Z" fill="#5C697C"/>
<path d="M83.6277 84.213L84.9512 84.9743L83.5787 85.7602L82.2551 84.9989L83.6277 84.213Z" fill="#5C697C"/>
<path d="M86.863 84.1884L88.1865 84.9497L86.0787 86.2023L84.7551 85.4164L86.863 84.1884Z" fill="#5C697C"/>
<path d="M81.9856 85.1708L83.3091 85.9321L81.9366 86.718L80.613 85.9567L81.9856 85.1708Z" fill="#5C697C"/>
<path d="M80.3679 86.104L81.6914 86.8653L80.3189 87.6758L78.9954 86.9145L80.3679 86.104Z" fill="#5C697C"/>
<path d="M82.9906 86.4479L84.3141 87.2092L82.9661 88.0196L81.6426 87.2583L82.9906 86.4479Z" fill="#5C697C"/>
<path d="M78.7258 87.0618L80.0493 87.8232L78.7013 88.6336L77.3533 87.8723L78.7258 87.0618Z" fill="#5C697C"/>
<path d="M81.4465 87.3566L82.7701 88.1179L81.3975 88.9284L80.074 88.167L81.4465 87.3566Z" fill="#5C697C"/>
<path d="M87.6228 87.5039L88.9463 88.2652L87.5738 89.0757L86.2502 88.3144L87.6228 87.5039Z" fill="#5C697C"/>
<path d="M77.1081 88.0197L78.4317 88.781L77.0591 89.5914L75.7356 88.8301L77.1081 88.0197Z" fill="#5C697C"/>
<path d="M83.5788 87.9951L84.9268 88.7564L83.5542 89.5423L82.2307 88.781L83.5788 87.9951Z" fill="#5C697C"/>
<path d="M79.8778 88.2653L81.2013 89.0266L79.8533 89.837L78.5298 89.0757L79.8778 88.2653Z" fill="#5C697C"/>
<path d="M86.0788 88.4126L87.4024 89.1739L86.0543 89.9598L84.7063 89.223L86.0788 88.4126Z" fill="#5C697C"/>
<path d="M82.0591 88.8792L83.3826 89.6405L82.0101 90.451L80.6865 89.6897L82.0591 88.8792Z" fill="#5C697C"/>
<path d="M75.466 88.9774L76.7895 89.7388L75.4415 90.5246L74.1179 89.7633L75.466 88.9774Z" fill="#5C697C"/>
<path d="M78.3337 89.1739L79.6573 89.9352L78.2847 90.7457L76.9612 89.9843L78.3337 89.1739Z" fill="#5C697C"/>
<path d="M80.5151 89.7879L81.8387 90.5492L80.4661 91.3597L79.1426 90.5738L80.5151 89.7879Z" fill="#5C697C"/>
<path d="M73.8484 89.9352L75.1719 90.6966L73.7994 91.4825L72.4758 90.7211L73.8484 89.9352Z" fill="#5C697C"/>
<path d="M76.765 90.0826L78.0886 90.8439L76.7405 91.6544L75.417 90.893L76.765 90.0826Z" fill="#5C697C"/>
<path d="M82.966 90.23L84.2895 90.9913L82.9414 91.8018L81.6179 91.0159L82.966 90.23Z" fill="#5C697C"/>
<path d="M78.9709 90.6966L80.2945 91.4579L78.9464 92.2438L77.5984 91.4825L78.9709 90.6966Z" fill="#5C697C"/>
<path d="M72.2307 90.8685L73.5542 91.6299L72.1817 92.4403L70.8582 91.679L72.2307 90.8685Z" fill="#5C697C"/>
<path d="M75.2209 90.9913L76.5445 91.7526L75.1719 92.563L73.8484 91.8017L75.2209 90.9913Z" fill="#5C697C"/>
<path d="M81.4465 91.1141L82.7701 91.8754L81.422 92.6859L80.074 91.9245L81.4465 91.1141Z" fill="#5C697C"/>
<path d="M77.4269 91.5807L78.7504 92.342L77.4024 93.1525L76.0789 92.3911L77.4269 91.5807Z" fill="#5C697C"/>
<path d="M79.9267 92.0228L81.2258 92.7841L79.8777 93.57L78.5542 92.8087L79.9267 92.0228Z" fill="#5C697C"/>
<path d="M69.9758 92.1947L71.2993 92.956L69.9268 93.7419L68.6033 93.0051L69.9758 92.1947Z" fill="#5C697C"/>
<path d="M75.9072 92.4894L77.2307 93.2507L75.8582 94.0612L74.5347 93.2753L75.9072 92.4894Z" fill="#5C697C"/>
<path d="M86.4954 90.058L87.8189 90.8194L81.814 94.3313L80.4905 93.57L86.4954 90.058Z" fill="#5C697C"/>
<path d="M78.4072 92.9069L79.7308 93.6683L78.3582 94.4787L77.0347 93.7174L78.4072 92.9069Z" fill="#5C697C"/>
<path d="M73.6033 91.9491L74.9268 92.7104L71.5445 94.6751L70.2209 93.9384L73.6033 91.9491Z" fill="#5C697C"/>
<path d="M74.3631 93.3981L75.6867 94.1594L73.1621 95.6084L71.8386 94.8471L74.3631 93.3981Z" fill="#5C697C"/>
<path d="M80.2945 93.6928L81.618 94.4541L79.4856 95.7066L78.1621 94.9208L80.2945 93.6928Z" fill="#5C697C"/>
<path d="M76.8386 93.8156L78.1621 94.5769L74.8042 96.5416L73.4807 95.7803L76.8386 93.8156Z" fill="#5C697C"/>
<path d="M77.9906 95.0435L79.3141 95.8049L76.4219 97.4994L75.0984 96.7381L77.9906 95.0435Z" fill="#5C697C"/>
<path d="M84.5099 94.9944C84.5835 95.1172 84.706 95.24 84.8776 95.3628L86.054 96.075C86.5687 96.3697 87.3531 96.3943 87.7942 96.1487L90.8825 94.3804C91.005 94.3067 91.0785 94.2331 91.1276 94.1348C91.2746 93.8892 91.1276 93.57 90.7599 93.3735L89.5835 92.6613C89.0687 92.3666 88.2844 92.342 87.8433 92.5876L84.755 94.3559C84.4854 94.5032 84.3874 94.7488 84.5099 94.9944Z" fill="#7C93B8"/>
<path d="M84.51 94.9944C84.5835 95.1172 84.7061 95.24 84.8777 95.3628L86.0541 96.075C86.5688 96.3697 87.3531 96.3943 87.7943 96.1487L90.8826 94.3804C91.0051 94.3068 91.0786 94.2331 91.1277 94.1348C91.0541 94.0121 90.9316 93.8893 90.76 93.7665L89.5835 93.0543C89.0688 92.7595 88.2845 92.7104 87.8433 92.9806L84.7551 94.7488C84.6571 94.8225 84.559 94.8962 84.51 94.9944Z" fill="#F2F2F2"/>
<path d="M74.4609 72.6948C74.4609 72.9404 74.3139 73.2351 74.1178 73.3579C73.9217 73.4561 73.7747 73.3579 73.7747 73.0878C73.7747 72.8422 73.9217 72.5475 74.1178 72.4247C74.2894 72.3264 74.4609 72.4492 74.4609 72.6948Z" fill="#1B1823"/>
<path d="M84.0198 80.7501L65.3188 91.7771V79.0064L84.0198 67.9794V80.7501Z" fill="url(#paint18_linear)"/>
<path d="M83.7012 68.1759V80.5782L65.3188 91.4333V91.7771L84.0198 80.7501V67.9794L83.7012 68.1759Z" fill="#B3B3B3"/>
<path d="M65.3188 91.7772L84.0198 80.7502L83.7012 80.5782L65.3188 91.4333V91.7772Z" fill="#F2F2F2"/>
<path d="M67.2796 96.1732L66.0786 95.4856V94.626L67.2796 95.3137V96.1732Z" fill="#F2F2F2"/>
<path d="M66.3238 95.3383L67.2306 95.854V96.0996L66.1277 95.4611L66.3238 95.3383Z" fill="#5C697C"/>
<path d="M67.2306 95.3382V95.854L66.3237 95.3382V94.8225L66.3728 94.8716L67.2306 95.3382Z" fill="#303030"/>
<path d="M67.2306 95.4365V95.7803L66.3728 95.3137V94.9453L67.2306 95.4365Z" fill="#30273B"/>
<path d="M66.1275 95.24V94.7242L66.3236 94.8225V95.3382L66.1275 95.461V95.24Z" fill="#404040"/>
<path opacity="0.2" d="M74.461 73.6281C77.6963 75.0279 80.9071 76.5015 84.0443 78.2206V80.7502L83.1375 81.2905C79.0688 79.3994 74.9022 77.6312 70.76 75.8138L74.461 73.6281Z" fill="#B6CCDF"/>
<path opacity="0.2" d="M78.7011 71.123C80.5148 72.0317 82.304 72.9895 84.0442 74.021V74.9051C82.0099 73.7017 79.9265 72.6703 77.7942 71.6879L78.7011 71.123Z" fill="#B6CCDF"/>
<path d="M76.8367 101.65L76.3367 101.38V100.52L76.8367 100.79V101.65Z" fill="#F2F2F2"/>
<path d="M76.6143 101.232L76.781 101.331V101.552L76.3921 101.355L76.6143 101.232Z" fill="#4A4E57"/>
<path d="M76.7811 100.815V101.331L76.6144 101.232V100.717L76.6699 100.766L76.7811 100.815Z" fill="#393C41"/>
<path d="M76.7811 100.889V101.257L76.67 101.183V100.839L76.7811 100.889Z" fill="#1B2029"/>
<path d="M76.3923 101.134V100.618L76.6145 100.717V101.232L76.3923 101.355V101.134Z" fill="#1B2029"/>
<path d="M76.1848 101.282L75.657 101.036V100.176L76.1848 100.422V101.282Z" fill="#F2F2F2"/>
<path d="M75.9349 100.889L76.1293 100.962V101.208L75.7126 100.987L75.9349 100.889Z" fill="#4A4E57"/>
<path d="M76.1292 100.471V100.962L75.9347 100.889V100.373L75.9903 100.397L76.1292 100.471Z" fill="#393C41"/>
<path d="M76.1292 100.545V100.889L75.9903 100.839V100.471L76.1292 100.545Z" fill="#1B2029"/>
<path d="M75.7126 100.766V100.25L75.9348 100.373V100.889L75.7126 100.987V100.766Z" fill="#1B2029"/>
<path d="M33.8704 103.443V104.769C33.8704 104.941 34.037 105.088 34.412 105.211V103.885C34.0787 103.787 33.8704 103.615 33.8704 103.443Z" fill="#DCDEED"/>
<path d="M33.8704 103.443V104.769C33.8704 104.941 34.037 105.088 34.412 105.211V103.885C34.0787 103.787 33.8704 103.615 33.8704 103.443Z" fill="#DCDEED"/>
<path d="M60.7575 109.312V107.986C60.7575 108.158 60.5908 108.33 60.2158 108.453V109.779C60.5492 109.656 60.7575 109.484 60.7575 109.312Z" fill="#DCDEED"/>
<path d="M60.1743 108.453V109.779C60.5493 109.656 60.716 109.484 60.716 109.312V107.986C60.7576 108.158 60.5493 108.33 60.1743 108.453Z" fill="#DCDEED"/>
<path d="M34.0688 103.909L34.0934 105.236L50.1963 114.617V113.291L34.0688 103.909Z" fill="#DCDEED"/>
<path d="M51.7649 113.291L51.7894 114.617L60.1472 109.779L60.1227 108.453L51.7649 113.291Z" fill="#DCDEED"/>
<path d="M50.1963 113.291V114.617C50.6375 114.863 51.3237 114.863 51.7649 114.617V113.291C51.3482 113.536 50.6375 113.536 50.1963 113.291Z" fill="#E8E0DD"/>
<path d="M50.1963 113.291V114.617C50.6375 114.863 51.3237 114.863 51.7649 114.617V113.291C51.3482 113.536 50.6375 113.536 50.1963 113.291Z" fill="#DCDEED"/>
<path d="M34.0933 103.001C33.6522 103.246 33.6522 103.664 34.0933 103.909L50.2208 113.291C50.662 113.536 51.3482 113.536 51.7894 113.291L60.1473 108.453C60.5884 108.207 60.5884 107.79 60.1473 107.544L44.0198 98.1625C43.5786 97.9169 42.8924 97.9169 42.4512 98.1625L34.0933 103.001Z" fill="#F0F3F9"/>
<path d="M35.956 104.155C35.956 104.179 35.9805 104.229 35.9805 104.253C36.0295 104.376 36.152 104.499 36.2991 104.597L48.1618 111.474C48.652 111.768 49.4609 111.768 49.9511 111.474L56.9364 107.446C57.1079 107.348 57.206 107.225 57.255 107.102C57.2795 107.077 57.2795 107.028 57.2795 107.004C57.3285 106.783 57.206 106.562 56.9118 106.414L45.0491 99.5378C44.5589 99.2431 43.7501 99.2431 43.2599 99.5378L36.2746 103.565C36.0295 103.737 35.9069 103.958 35.956 104.155Z" fill="#DCDEED"/>
<path d="M36.3239 104.597C36.1523 104.499 36.0542 104.376 36.0052 104.253C35.9807 104.229 35.9807 104.18 35.9807 104.155C36.0052 104.008 36.1278 103.836 36.3484 103.713L43.3337 99.6852C43.8238 99.3905 44.6327 99.3905 45.1229 99.6852L45.368 99.8326L36.7405 104.818L36.3239 104.597Z" fill="#F77723"/>
<path fill-rule="evenodd" clip-rule="evenodd" d="M38.1378 103.148L37.1084 103.737L37.5986 104.008L38.628 103.418L38.1378 103.148ZM37.1575 103.737L38.1379 103.173L38.5545 103.418L37.5741 103.983L37.1575 103.737Z" fill="#D9E1EE"/>
<path d="M37.1328 103.737L37.574 103.983L38.2848 103.59L37.8191 103.32L37.1328 103.737Z" fill="#D9E1EE"/>
<path d="M36.9612 104.108L37.1082 103.996L37.2798 104.108L37.1328 104.219L36.9612 104.108Z" fill="#D9E1EE"/>
<path d="M36.6182 104.136L36.7652 104.052L37.0593 104.247L36.9123 104.331L36.6182 104.136Z" fill="#D9E1EE"/>
<path d="M36.2505 104.191L36.4221 104.08L36.8632 104.386L36.7162 104.47L36.2505 104.191Z" fill="#D9E1EE"/>
<path d="M39.3384 103.024C39.2894 102.996 39.1913 102.996 39.1178 103.024C39.0688 103.052 39.0688 103.136 39.1178 103.163C39.1668 103.191 39.2649 103.191 39.3384 103.163C39.3874 103.108 39.3874 103.052 39.3384 103.024Z" fill="white"/>
<path d="M39.0198 102.941C39.0933 102.913 39.1669 102.885 39.2404 102.885V102.829C39.1424 102.829 39.0198 102.857 38.9463 102.913C38.8727 102.968 38.8237 103.024 38.8237 103.108H38.9218C38.9218 103.024 38.9463 102.996 39.0198 102.941Z" fill="white"/>
<path d="M38.8482 102.829C38.9463 102.746 39.0933 102.718 39.2404 102.718V102.662C39.0688 102.662 38.8972 102.718 38.7747 102.773C38.6521 102.857 38.5786 102.968 38.5786 103.08H38.6767C38.7012 102.996 38.7502 102.913 38.8482 102.829Z" fill="white"/>
<path d="M38.7012 102.746C38.8483 102.662 39.0443 102.606 39.2404 102.606V102.551C39.0198 102.551 38.7992 102.606 38.6277 102.718C38.4561 102.829 38.3826 102.968 38.3826 103.108H38.4806C38.4806 102.968 38.5541 102.829 38.7012 102.746Z" fill="white"/>
<path d="M43.2354 100.766L42.5981 100.397L43.4315 100.324L43.2354 100.766Z" fill="#D9E1EE"/>
<path d="M43.6274 100.201L43.75 99.7098L44.3872 100.078L43.6274 100.201Z" fill="#D9E1EE"/>
<path d="M43.6031 100.299V100.226L44.412 100.103L43.26 100.766L43.4561 100.299H43.6031Z" fill="#D9E1EE"/>
<path d="M42.5737 100.373L43.7257 99.7098L43.5786 100.275L42.5737 100.373Z" fill="#D9E1EE"/>
<path d="M45.3926 99.9553L57.0102 106.684C57.2308 106.807 57.3289 106.955 57.3779 107.127C57.3779 107.151 57.3534 107.2 57.3534 107.225C57.3044 107.348 57.1818 107.47 57.0347 107.569L50.0494 111.596C49.5593 111.891 48.7504 111.891 48.2602 111.596L36.7651 104.941L45.3926 99.9553Z" fill="url(#paint19_linear)"/>
<path d="M46.7062 103.785C48.7954 103.607 50.5923 104.443 50.7196 105.651C50.8468 106.859 49.2563 107.983 47.1671 108.16C45.0778 108.338 43.2809 107.502 43.1537 106.294C43.0264 105.085 44.6169 103.962 46.7062 103.785Z" fill="url(#paint20_linear)"/>
<path d="M46.7969 104.32C48.374 104.199 49.7352 104.83 49.8372 105.728C49.9393 106.626 48.7436 107.452 47.1665 107.572C45.5895 107.693 44.2283 107.063 44.1262 106.164C44.0241 105.266 45.2198 104.44 46.7969 104.32Z" stroke="white" stroke-opacity="0.5" stroke-width="0.5"/>
<path d="M45.6933 106.117L48.1563 105.935L48.1126 105.502L45.6496 105.684L45.6933 106.117Z" fill="white"/>
<path d="M55.7356 110.27L54.6327 110.958C54.3385 111.154 53.8238 111.179 53.5297 111.007C53.2111 110.835 53.2111 110.54 53.5052 110.368L54.6082 109.656C54.9023 109.46 55.417 109.435 55.7111 109.607C56.0297 109.804 56.0297 110.074 55.7356 110.27Z" fill="#96AAC9"/>
<path d="M58.3826 110.54L59.2404 110V109.386L58.3826 109.926V110.54Z" fill="white"/>
<path d="M59.0687 109.902L58.407 110.319V110.491L59.2158 109.975L59.0687 109.902Z" fill="#5C697C"/>
<path d="M58.407 109.951V110.319L59.0687 109.902V109.533L59.0442 109.558L58.407 109.951Z" fill="#1B1B1B"/>
<path d="M58.407 110V110.27L59.0442 109.853V109.607L58.407 110Z" fill="#1B1823"/>
<path d="M59.2159 109.804V109.435L59.0688 109.533V109.902L59.2159 109.975V109.804Z" fill="#404040"/>
<path d="M60.0917 109.239C60.0917 109.435 59.9528 109.656 59.8139 109.73C59.6472 109.804 59.5361 109.73 59.5361 109.533C59.5361 109.337 59.675 109.116 59.8139 109.042C59.9806 108.969 60.0917 109.042 60.0917 109.239Z" fill="#1B1B1B"/>
<path d="M59.5361 109.582C59.7028 109.509 59.8139 109.288 59.8139 109.091C59.8139 109.067 59.8139 109.042 59.8139 109.018C59.9528 108.969 60.0639 109.042 60.0639 109.214C60.0639 109.411 59.925 109.632 59.7861 109.705C59.675 109.804 59.5361 109.73 59.5361 109.582Z" fill="#5C697C"/>
<path d="M59.7304 109.681C59.8971 109.607 60.0082 109.386 60.0082 109.19C60.0082 109.116 59.9804 109.042 59.9527 109.018C60.036 109.042 60.0916 109.116 60.0916 109.239C60.0916 109.435 59.9527 109.656 59.8138 109.73C59.7304 109.779 59.6471 109.779 59.5916 109.705C59.6193 109.73 59.6749 109.705 59.7304 109.681Z" fill="#D9E1EE"/>
<path d="M37.7206 101.797C37.7451 101.822 37.7696 101.846 37.8187 101.871C37.9657 101.945 38.1863 101.945 38.3334 101.846L40.4412 100.52C40.4657 100.496 40.5147 100.471 40.5147 100.447C40.5638 100.373 40.5392 100.275 40.4167 100.225C40.2696 100.152 40.049 100.152 39.902 100.25L37.7941 101.576C37.7206 101.65 37.6961 101.724 37.7206 101.797Z" fill="#DCDEED"/>
<path d="M37.7207 101.797C37.7452 101.822 37.7697 101.846 37.8187 101.871C37.9658 101.945 38.1864 101.945 38.3334 101.846L40.4413 100.52C40.4658 100.496 40.5148 100.471 40.5148 100.447C40.4903 100.422 40.4658 100.373 40.4168 100.348C40.2697 100.275 40.0491 100.275 39.9021 100.373L37.7942 101.699C37.7697 101.748 37.7452 101.773 37.7207 101.797Z" fill="#30273B"/>
<path d="M34.6326 103.295C34.6326 103.369 34.6816 103.443 34.7796 103.492C34.9757 103.615 35.2943 103.615 35.4904 103.492C35.5394 103.467 35.5639 103.443 35.5885 103.394C35.662 103.295 35.6375 103.173 35.4904 103.074C35.2943 102.952 34.9757 102.952 34.7796 103.074C34.6816 103.123 34.6326 103.222 34.6326 103.295Z" fill="#30273B"/>
<path d="M37.2552 106.906L35.8091 106.071V105.506L37.2797 106.341L37.2552 106.906Z" fill="#C7D3E6"/>
<path d="M37.2797 106.341L35.8091 105.506L36.0297 105.383L37.5003 106.218L37.2797 106.341Z" fill="#E9EEF7"/>
<path d="M37.5002 106.218L37.4757 106.783L37.2551 106.906L37.2796 106.341L37.5002 106.218Z" fill="#B3C2DB"/>
<path d="M35.3925 105.825L34.7798 105.457V104.892L35.417 105.26L35.3925 105.825Z" fill="#C7D3E6"/>
<path d="M35.417 105.26L34.7798 104.892L35.0004 104.769L35.6376 105.137L35.417 105.26Z" fill="#E9EEF7"/>
<path d="M35.6377 105.137L35.6132 105.702L35.3926 105.825L35.4171 105.26L35.6377 105.137Z" fill="#B3C2DB"/>
<path opacity="0.47" d="M49.3139 102.141L51.2257 110.712L49.9512 111.449C49.7796 111.547 49.559 111.621 49.3139 111.645L46.8875 100.717L49.3139 102.141Z" fill="white"/>
<path opacity="0.35" d="M43.0885 99.808L45.3189 109.804L40.2698 106.881L39.1914 102.067L43.0885 99.808Z" fill="white"/>
<path d="M69.2157 36.2246L69.1422 36.1755L69.2157 36.1264V36.2246Z" fill="url(#paint21_linear)"/>
<path d="M70.4414 65.5235V72.5228L48.5051 85.2935L48.5296 78.2942L70.4414 65.5235Z" fill="#F0F3F9"/>
<path d="M48.5295 78.2942L48.505 85.2935L24.2158 71.2458V64.271L48.5295 78.2942Z" fill="#DCDEED"/>
<path d="M25.4167 66.0884V70.9756L47.0834 83.5007V78.6135L25.4167 66.0884Z" fill="#F0F3F9"/>
<path d="M49.1423 78.7608L70.0492 66.6778V72.1299L49.1423 84.2375V78.7608Z" fill="#DCDEED"/>
<path d="M46.1276 51.5003L24.2158 64.271L48.5295 78.2942L70.4413 65.5235L46.1276 51.5003Z" fill="#F5F5FD"/>
<path d="M45.7598 53.0475L27.8432 63.4851C27.2059 63.8535 27.2059 64.7867 27.8432 65.1551L47.9412 76.747C48.2353 76.9189 48.603 76.9189 48.8971 76.747L66.8138 66.3094C67.451 65.941 67.451 65.0078 66.8138 64.6394L46.7157 53.0475C46.4216 52.8756 46.054 52.8756 45.7598 53.0475Z" fill="url(#paint22_linear)"/>
<path d="M45.7598 52.5809L27.8432 63.0185C27.2059 63.3869 27.2059 64.3201 27.8432 64.6885L47.9412 76.2804C48.2353 76.4523 48.603 76.4523 48.8971 76.2804L66.8138 65.8428C67.451 65.4744 67.451 64.5412 66.8138 64.1728L46.7157 52.5809C46.4216 52.409 46.054 52.409 45.7598 52.5809Z" fill="url(#paint23_linear)"/>
<path d="M45.7598 52.1388L27.8432 62.5764C27.2059 62.9448 27.2059 63.878 27.8432 64.2464L47.9412 75.8383C48.2353 76.0102 48.603 76.0102 48.8971 75.8383L66.8138 65.4007C67.451 65.0323 67.451 64.0991 66.8138 63.7307L46.7157 52.1388C46.4216 51.9669 46.054 51.9669 45.7598 52.1388Z" fill="url(#paint24_linear)"/>
<path d="M45.7598 51.6722L27.8432 62.1098C27.2059 62.4782 27.2059 63.4114 27.8432 63.7798L47.9412 75.3717C48.2353 75.5436 48.603 75.5436 48.8971 75.3717L66.8138 64.9341C67.451 64.5657 67.451 63.6325 66.8138 63.2641L46.7157 51.6722C46.4216 51.5003 46.054 51.5003 45.7598 51.6722Z" fill="url(#paint25_linear)"/>
<path d="M45.7598 51.2056L27.8432 61.6678C27.2059 62.0361 27.2059 62.9694 27.8432 63.3378L47.9412 74.9296C48.2353 75.1016 48.603 75.1016 48.8971 74.9296L66.8138 64.4921C67.451 64.1237 67.451 63.1904 66.8138 62.822L46.7157 51.2302C46.4216 51.0337 46.054 51.0337 45.7598 51.2056Z" fill="url(#paint26_linear)"/>
<path d="M45.7598 50.7635L27.8432 61.2011C27.2059 61.5695 27.2059 62.5027 27.8432 62.8711L47.9412 74.463C48.2353 74.6349 48.603 74.6349 48.8971 74.463L66.8138 64.0254C67.451 63.657 67.451 62.7238 66.8138 62.3554L46.7157 50.7635C46.4216 50.5916 46.054 50.5916 45.7598 50.7635Z" fill="url(#paint27_linear)"/>
<path d="M45.7598 50.2969L27.8432 60.7345C27.2059 61.1029 27.2059 62.0361 27.8432 62.4045L47.9412 73.9964C48.2353 74.1683 48.603 74.1683 48.8971 73.9964L66.8138 63.5588C67.451 63.1904 67.451 62.2572 66.8138 61.8888L46.7157 50.2969C46.4216 50.125 46.054 50.125 45.7598 50.2969Z" fill="url(#paint28_linear)"/>
<path d="M45.7598 49.8548L27.8432 60.2924C27.2059 60.6608 27.2059 61.594 27.8432 61.9624L47.9412 73.5543C48.2353 73.7262 48.603 73.7262 48.8971 73.5543L66.8138 63.1167C67.451 62.7483 67.451 61.8151 66.8138 61.4467L46.7157 49.8548C46.4216 49.6829 46.054 49.6829 45.7598 49.8548Z" fill="url(#paint29_linear)"/>
<path d="M45.7598 49.3882L27.8432 59.8258C27.2059 60.1942 27.2059 61.1274 27.8432 61.4958L47.9412 73.0877C48.2353 73.2596 48.603 73.2596 48.8971 73.0877L66.8138 62.6501C67.451 62.2817 67.451 61.3485 66.8138 60.9801L46.7157 49.3882C46.4216 49.2163 46.054 49.2163 45.7598 49.3882Z" fill="url(#paint30_linear)"/>
<path d="M45.7598 48.9462L27.8432 59.3838C27.2059 59.7521 27.2059 60.6854 27.8432 61.0538L47.9412 72.6456C48.2353 72.8176 48.603 72.8176 48.8971 72.6456L66.8138 62.208C67.451 61.8397 67.451 60.9064 66.8138 60.538L46.7157 48.9462C46.4216 48.7497 46.054 48.7742 45.7598 48.9462Z" fill="url(#paint31_linear)"/>
<path d="M45.7598 48.4795L27.8432 58.9171C27.2059 59.2855 27.2059 60.2187 27.8432 60.5871L47.9412 72.179C48.2353 72.3509 48.603 72.3509 48.8971 72.179L66.8138 61.7414C67.451 61.373 67.451 60.4398 66.8138 60.0714L46.7157 48.4795C46.4216 48.3076 46.054 48.3076 45.7598 48.4795Z" fill="url(#paint32_linear)"/>
<path d="M45.7598 48.0129L27.8432 58.4751C27.2059 58.8435 27.2059 59.7767 27.8432 60.1451L47.9412 71.737C48.2353 71.9089 48.603 71.9089 48.8971 71.737L66.8138 61.2994C67.451 60.931 67.451 59.9977 66.8138 59.6293L46.7157 48.0375C46.4216 47.841 46.054 47.841 45.7598 48.0129Z" fill="url(#paint33_linear)"/>
<path d="M70.4414 51.6722V58.647L48.5051 71.4177L48.5296 64.4184L70.4414 51.6722Z" fill="#F0F3F9"/>
<path d="M48.5295 64.4184L48.505 71.4177L24.2158 57.3945V50.3951L48.5295 64.4184Z" fill="#DCDEED"/>
<path d="M25.4167 52.2125V57.0998L47.0834 69.6249V64.7376L25.4167 52.2125Z" fill="#F0F3F9"/>
<path d="M49.1423 64.9095L70.0492 52.8019V58.254L49.1423 70.3617V64.9095Z" fill="#DCDEED"/>
<path d="M46.1276 37.6245L24.2158 50.3952L48.5295 64.4184L70.4413 51.6722L46.1276 37.6245Z" fill="#F5F5FD"/>
<path d="M45.7598 38.6805L27.8432 49.1181C27.2059 49.4865 27.2059 50.4197 27.8432 50.7881L47.9412 62.38C48.2353 62.5519 48.603 62.5519 48.8971 62.38L66.8138 51.9424C67.451 51.574 67.451 50.6408 66.8138 50.2724L46.7157 38.6805C46.4216 38.5086 46.054 38.5086 45.7598 38.6805Z" fill="url(#paint34_linear)"/>
<path d="M45.7598 38.2384L27.8432 48.676C27.2059 49.0444 27.2059 49.9776 27.8432 50.346L47.9412 61.9379C48.2353 62.1098 48.603 62.1098 48.8971 61.9379L66.8138 51.5003C67.451 51.1319 67.451 50.1987 66.8138 49.8303L46.7157 38.2384C46.4216 38.0419 46.054 38.0665 45.7598 38.2384Z" fill="url(#paint35_linear)"/>
<path d="M45.7598 37.7718L27.8432 48.2094C27.2059 48.5778 27.2059 49.511 27.8432 49.8794L47.9412 61.4713C48.2353 61.6432 48.603 61.6432 48.8971 61.4713L66.8138 51.0337C67.451 50.6653 67.451 49.7321 66.8138 49.3637L46.7157 37.7718C46.4216 37.5999 46.054 37.5999 45.7598 37.7718Z" fill="url(#paint36_linear)"/>
<path d="M45.7598 37.3052L27.8432 47.7673C27.2059 48.1357 27.2059 49.0689 27.8432 49.4373L47.9412 61.0292C48.2353 61.2011 48.603 61.2011 48.8971 61.0292L66.8138 50.5916C67.451 50.2232 67.451 49.29 66.8138 48.9216L46.7157 37.3297C46.4216 37.1332 46.054 37.1332 45.7598 37.3052Z" fill="url(#paint37_linear)"/>
<path d="M45.7598 36.8631L27.8432 47.3007C27.2059 47.6691 27.2059 48.6024 27.8432 48.9707L47.9412 60.5626C48.2353 60.7345 48.603 60.7345 48.8971 60.5626L66.8138 50.125C67.451 49.7566 67.451 48.8234 66.8138 48.455L46.7157 36.8631C46.4216 36.6912 46.054 36.6912 45.7598 36.8631Z" fill="url(#paint38_linear)"/>
<path d="M45.7598 36.3965L27.8432 46.8341C27.2059 47.2025 27.2059 48.1357 27.8432 48.5041L47.9412 60.096C48.2353 60.2679 48.603 60.2679 48.8971 60.096L66.8138 49.6584C67.451 49.29 67.451 48.3568 66.8138 47.9884L46.7157 36.3965C46.4216 36.2246 46.054 36.2246 45.7598 36.3965Z" fill="url(#paint39_linear)"/>
<path d="M45.7598 35.9544L27.8432 46.392C27.2059 46.7604 27.2059 47.6937 27.8432 48.062L47.9412 59.6539C48.2353 59.8258 48.603 59.8258 48.8971 59.6539L66.8138 49.2163C67.451 48.8479 67.451 47.9147 66.8138 47.5463L46.7157 35.9544C46.4216 35.7825 46.054 35.7825 45.7598 35.9544Z" fill="url(#paint40_linear)"/>
<path d="M45.7598 35.4878L27.8432 45.9254C27.2059 46.2938 27.2059 47.227 27.8432 47.5954L47.9412 59.1873C48.2353 59.3592 48.603 59.3592 48.8971 59.1873L66.8138 48.7497C67.451 48.3813 67.451 47.4481 66.8138 47.0797L46.7157 35.4878C46.4216 35.3159 46.054 35.3159 45.7598 35.4878Z" fill="url(#paint41_linear)"/>
<path d="M45.7598 35.0457L27.8432 45.4833C27.2059 45.8517 27.2059 46.785 27.8432 47.1533L47.9412 58.7452C48.2353 58.9171 48.603 58.9171 48.8971 58.7452L66.8138 48.3076C67.451 47.9392 67.451 47.006 66.8138 46.6376L46.7157 35.0457C46.4216 34.8493 46.054 34.8493 45.7598 35.0457Z" fill="url(#paint42_linear)"/>
<path d="M45.7598 34.5791L27.8432 45.0167C27.2059 45.3851 27.2059 46.3184 27.8432 46.6867L47.9412 58.2786C48.2353 58.4505 48.603 58.4505 48.8971 58.2786L66.8138 47.841C67.451 47.4726 67.451 46.5394 66.8138 46.171L46.7157 34.5791C46.4216 34.4072 46.054 34.4072 45.7598 34.5791Z" fill="url(#paint43_linear)"/>
<path d="M45.7598 34.1125L27.8432 44.5501C27.2059 44.9185 27.2059 45.8517 27.8432 46.2201L47.9412 57.812C48.2353 57.9839 48.603 57.9839 48.8971 57.812L66.8138 47.3989C67.451 47.0305 67.451 46.0973 66.8138 45.7289L46.7157 34.137C46.4216 33.9406 46.054 33.9406 45.7598 34.1125Z" fill="url(#paint44_linear)"/>
<path d="M45.7598 33.6704L27.8432 44.108C27.2059 44.4764 27.2059 45.4097 27.8432 45.778L47.9412 57.3699C48.2353 57.5418 48.603 57.5418 48.8971 57.3699L66.8138 46.9323C67.451 46.5639 67.451 45.6307 66.8138 45.2623L46.7157 33.6704C46.4216 33.4985 46.054 33.4985 45.7598 33.6704Z" fill="url(#paint45_linear)"/>
<path d="M70.4414 37.3052V44.3046L48.5051 57.0753L48.5296 50.0759L70.4414 37.3052Z" fill="#F0F3F9"/>
<path d="M48.5295 50.0759L48.505 57.0752L24.2158 43.0275V36.0281L48.5295 50.0759Z" fill="#DCDEED"/>
<path d="M25.4167 37.8701V42.7573L47.0834 55.2579V50.3706L25.4167 37.8701Z" fill="#F0F3F9"/>
<path d="M49.1423 50.5425L70.0492 38.4349V43.9116L49.1423 55.9947V50.5425Z" fill="#DCDEED"/>
<path d="M46.1276 23.2574L24.2158 36.0282L48.5295 50.0759L70.4413 37.3052L46.1276 23.2574Z" fill="#F5F5FD"/>
<path d="M66.2501 38.3367C66.1275 38.5086 65.956 38.656 65.7599 38.7542L49.2403 48.3814C48.7256 48.6761 48.0883 48.6761 47.5736 48.3814L28.8972 37.5999C28.7011 37.4771 28.5295 37.3298 28.407 37.1579C27.8187 36.3965 27.9903 35.2177 28.8972 34.6774L45.4168 25.0503C45.9315 24.7555 46.5687 24.7555 47.0834 25.0503L65.7599 35.8562C66.6668 36.3965 66.8383 37.5754 66.2501 38.3367Z" fill="#F77723"/>
<g opacity="0.5">
<path opacity="0.01" d="M45.4169 0.221031L28.8973 9.84818C27.7943 10.4867 27.7943 12.1076 28.8973 12.7461L47.5737 23.5276C48.0885 23.8223 48.7257 23.8223 49.2404 23.5276L65.76 13.9004C66.863 13.2619 66.863 11.641 65.76 11.0025L47.0835 0.221031C46.5688 -0.0736772 45.9316 -0.0736772 45.4169 0.221031Z" fill="#F77723"/>
<path opacity="0.1667" d="M45.4169 4.37148L28.8973 13.9986C27.7943 14.6372 27.7943 16.2581 28.8973 16.8966L47.5737 27.678C48.0885 27.9727 48.7257 27.9727 49.2404 27.678L65.76 18.0509C66.863 17.4123 66.863 15.7914 65.76 15.1529L47.0835 4.37148C46.5688 4.07677 45.9316 4.07677 45.4169 4.37148Z" fill="#F77723"/>
<path opacity="0.3333" d="M45.4169 8.52197L28.8973 18.1246C27.7943 18.7631 27.7943 20.384 28.8973 21.0225L47.5737 31.8039C48.0885 32.0987 48.7257 32.0987 49.2404 31.8039L65.76 22.1768C66.863 21.5383 66.863 19.9174 65.76 19.2788L47.0835 8.49741C46.5688 8.2027 45.9316 8.2027 45.4169 8.52197Z" fill="#F77723"/>
<path opacity="0.5" d="M45.4169 12.6479L28.8973 22.2751C27.7943 22.9136 27.7943 24.5345 28.8973 25.173L47.5737 35.9544C48.0885 36.2492 48.7257 36.2492 49.2404 35.9544L65.76 26.3273C66.863 25.6888 66.863 24.0679 65.76 23.4293L47.0835 12.6479C46.5688 12.3532 45.9316 12.3532 45.4169 12.6479Z" fill="#F77723"/>
<path opacity="0.6667" d="M45.4169 16.7984L28.8973 26.4255C27.7943 27.064 27.7943 28.6849 28.8973 29.3235L47.5737 40.1049C48.0885 40.3996 48.7257 40.3996 49.2404 40.1049L65.76 30.4778C66.863 29.8392 66.863 28.2183 65.76 27.5798L47.0835 16.7984C46.5688 16.5037 45.9316 16.5037 45.4169 16.7984Z" fill="#F77723"/>
<path opacity="0.8333" d="M45.4169 20.9489L28.8973 30.5514C27.7943 31.19 27.7943 32.8109 28.8973 33.4494L47.5737 44.2308C48.0885 44.5255 48.7257 44.5255 49.2404 44.2308L65.76 34.6282C66.863 33.9897 66.863 32.3688 65.76 31.7303L47.0835 20.9243C46.5688 20.6296 45.9316 20.6296 45.4169 20.9489Z" fill="#F77723"/>
<path d="M45.4169 25.0748L28.8973 34.7019C27.7943 35.3405 27.7943 36.9614 28.8973 37.5999L47.5737 48.3813C48.0885 48.676 48.7257 48.676 49.2404 48.3813L65.76 38.7542C66.863 38.1156 66.863 36.4947 65.76 35.8562L47.0835 25.0748C46.5688 24.7801 45.9316 24.7801 45.4169 25.0748Z" fill="#F77723"/>
</g>
<path d="M66.2501 38.3367C66.1276 38.5086 65.956 38.656 65.7599 38.7542L49.2403 48.3813C48.7256 48.6761 48.0884 48.6761 47.5736 48.3813L28.8972 37.5999C28.7011 37.4771 28.5295 37.3298 28.407 37.1579C28.5295 36.9859 28.7011 36.8386 28.8972 36.7158L45.4168 27.0886C45.9315 26.7939 46.5687 26.7939 47.0835 27.0886L65.7599 37.8701C65.956 38.0174 66.1276 38.1648 66.2501 38.3367Z" fill="#F77723"/>
<path d="M39.6769 35.6308L42.444 37.1132L42.962 36.1879C44.1317 36.0798 45.4762 35.6404 46.7795 34.8513C52.3526 31.7253 56.797 24.2095 56.6981 18.0378C56.6899 16.5135 56.3691 15.2397 55.8798 14.2285L56.3978 13.3031L53.6307 11.8207C51.762 10.8304 49.2848 10.9655 46.4623 12.5254C40.8892 15.6513 36.4448 23.1671 36.5437 29.3389C36.626 32.4622 37.8081 34.6405 39.6769 35.6308Z" fill="#755930"/>
<path fill-rule="evenodd" clip-rule="evenodd" d="M39.523 35.5135L42.2808 37.0009L42.798 36.071C43.9643 35.9617 45.305 35.5195 46.605 34.7259C52.1636 31.5822 56.5998 24.0295 56.5054 17.8298C56.4982 16.2987 56.1793 15.0193 55.6921 14.0038L56.2092 13.0739L53.4514 11.5866C51.5889 10.593 49.119 10.7303 46.3038 12.2991C40.7453 15.4428 36.3091 22.9955 36.4035 29.1951C36.4834 32.3325 37.6605 34.52 39.523 35.5135Z" fill="url(#paint46_linear)"/>
<path d="M56.4772 29.0773C52.5967 35.7028 46.2978 39.3425 42.4081 37.2069C38.5184 35.0714 38.511 27.9692 42.3914 21.3437C46.2718 14.7183 52.5707 11.0785 56.4604 13.2141C60.3501 15.3497 60.3576 22.4519 56.4772 29.0773Z" fill="#BCD5FF"/>
<path d="M56.4772 29.0773C52.5967 35.7028 46.2978 39.3425 42.4081 37.2069C38.5184 35.0714 38.511 27.9692 42.3914 21.3437C46.2718 14.7183 52.5707 11.0785 56.4604 13.2141C60.3501 15.3497 60.3576 22.4519 56.4772 29.0773Z" fill="url(#paint47_linear)"/>
<path fill-rule="evenodd" clip-rule="evenodd" d="M43.265 21.8891C39.9815 27.4439 39.9143 33.4642 43.362 35.3386C46.7869 37.2005 52.1084 34.0712 55.3853 28.5277C58.6688 22.9729 58.7359 16.9526 55.2882 15.0782C51.8633 13.2163 46.5419 16.3456 43.265 21.8891ZM44.3431 22.5245C47.3196 17.489 52.0114 14.73 54.685 16.1835C57.3357 17.6246 57.2772 22.868 54.3073 27.8923C51.3307 32.9278 46.6389 35.6868 43.9654 34.2333C41.3146 32.7922 41.3731 27.5488 44.3431 22.5245Z" fill="white" fill-opacity="0.5"/>
<path d="M51.5889 21.3048L47.0146 29.0272L48.3773 29.7939L52.9516 22.0715L51.5889 21.3048Z" fill="white"/>
<path d="M39.4287 30.9417C39.4014 24.7954 43.8346 17.3036 49.3224 14.1817C52.7491 12.2647 55.6983 12.4471 57.5545 14.3312C55.7105 12.3101 52.624 12.047 49.1193 14.0263C43.5598 17.1421 39.1266 24.6339 39.2256 30.7863C39.232 33.134 39.9336 34.9887 41.1334 36.1264C40.0833 34.9324 39.4474 33.1523 39.4287 30.9417Z" fill="white"/>
<path d="M25.9807 96.4679L27.1081 95.5347C27.7454 94.9944 28.113 94.2085 28.113 93.3735V85.8584H27.7454V93.3735C27.7454 94.1102 27.4268 94.7979 26.863 95.2645L25.613 96.3205L25.9807 96.4679Z" fill="#F5F5FD"/>
<path d="M24.167 97.6468V97.9169L25.9807 96.4679L25.8091 96.3697L25.7601 96.3942L24.167 97.6468Z" fill="#DCDEED"/>
<path d="M24.167 97.6468V97.9169L25.9807 96.4679V96.2224L25.8582 96.3206L25.8091 96.3697L25.7601 96.3943L24.167 97.6468Z" fill="#F5F5FD"/>
<path d="M15.1719 92.4894L24.167 97.6468L25.7601 96.3697L25.7846 96.3451L25.8581 96.296H25.8827L25.9807 96.1978L26.9856 95.3382L27.0101 95.3136C27.5738 94.847 27.8925 94.1839 27.8925 93.4717V86.2022L27.7209 86.104L22.1327 83.0096L20.1474 81.1922H19.7797V88.6827C19.7797 88.7318 19.7797 88.7809 19.7797 88.8055C19.7552 89.4932 19.4366 90.1071 18.8974 90.5492C18.8729 90.5738 18.8238 90.5983 18.7748 90.6474C18.2846 91.0158 16.765 91.7526 15.1719 92.4894Z" fill="#DCDEED"/>
<path d="M19.8042 88.8546L27.9169 93.4963V86.7671C27.3532 86.2022 26.912 85.8338 26.863 85.883C26.7405 86.0303 21.5444 84.6059 19.8042 84.3603V88.7072C19.8042 88.7564 19.8042 88.8055 19.8042 88.8546Z" fill="#B5B9DC"/>
<path d="M24.167 97.6468L15.1719 92.4894V92.7595L24.167 97.9169V97.6468Z" fill="#B5B9DC"/>
<path d="M18.7993 90.672L26.9856 95.3628L27.0101 95.3382C27.5738 94.8716 27.8925 94.2085 27.8925 93.4963L19.7797 88.8546C19.7552 89.5423 19.4366 90.1562 18.8974 90.5983C18.8974 90.6229 18.8483 90.6474 18.7993 90.672Z" fill="#CDD1F6"/>
<path d="M9.85327 59.3837L10.0493 59.4329L10.466 59.5065C10.466 59.5557 10.4415 59.6048 10.4415 59.6293C10.417 59.7521 10.417 59.8749 10.417 59.9977L10.466 64.271L10.5641 78.8591C10.5641 79.9888 11.2748 81.315 12.1327 81.8062L38.3092 96.91C38.3337 96.91 38.3337 96.9345 38.3582 96.9345L38.1621 97.6713L39.0444 97.1556C39.3386 96.9837 39.5346 96.6153 39.5837 96.0995C39.5837 96.0258 39.5837 95.9767 39.5837 95.9031L39.4366 77.0663V77.0417C39.4366 76.2558 39.0935 75.3962 38.6033 74.7577C38.3827 74.4876 38.1376 74.242 37.868 74.0946L11.667 58.9662C11.2993 58.7452 10.9562 58.7452 10.6866 58.868L9.95131 59.3101L9.85327 59.3837Z" fill="#DCDEED"/>
<path d="M9.95117 59.3101L10.0247 59.4083L10.4169 59.6293L37.6963 75.1507L38.6031 74.7331C38.3825 74.463 38.1374 74.2174 37.8678 74.0701L11.6669 58.9662C11.2992 58.7452 10.9561 58.7452 10.6865 58.868L9.95117 59.3101Z" fill="#DCDEED"/>
<path d="M36.5444 75.7155L37.5248 78.1223L39.4121 77.0417V77.0172C39.4121 76.2313 39.0689 75.3717 38.5787 74.7332L36.5444 75.7155Z" fill="#DCDEED"/>
<path d="M9.31396 60.6363L9.33847 62.5273L9.36298 64.9096L9.46102 79.4976C9.46102 80.6273 10.1718 81.9535 11.0297 82.4447L20.613 87.8968L30.9071 93.7419L31.1522 93.8892L37.2061 97.5485C37.9169 97.9415 38.4806 97.6713 38.6767 96.9345C38.7012 96.8363 38.7257 96.7135 38.7257 96.5662C38.7257 96.4925 38.7257 96.4434 38.7257 96.3697L38.7012 94.233L38.6522 88.7073L38.5787 77.5083C38.5787 76.3786 37.8679 75.0524 37.01 74.5613L26.2012 68.4215L26.1767 68.3969L22.4757 66.2112L17.7944 63.436L12.3777 60.3661L10.8091 59.482C10.2453 59.1627 9.73063 59.2855 9.48553 59.7522C9.36298 59.9486 9.31396 60.2679 9.31396 60.6363Z" fill="#F0F3F9"/>
<path d="M37.721 76.968V96.1977L28.8239 90.9912L20.221 85.9566L20.1719 85.9321L16.3974 83.7217L15.8337 83.3779L10.3435 80.1607V60.9555L17.0837 64.885L17.721 65.2779L18.971 66.0147L19.8043 66.4813L24.8533 69.4529L26.2994 70.2879L29.6327 72.2527L34.5592 75.1261L37.721 76.968Z" fill="url(#paint48_linear)"/>
<path d="M10.7357 61.1765V79.9642L37.721 95.7557V96.1977L10.3435 80.1607V60.9555L10.7357 61.1765Z" fill="#DCDEED"/>
<path d="M37.721 96.1978L10.3435 80.1607L10.7357 79.9642L37.721 95.7557V96.1978Z" fill="#F2F2F2"/>
<path d="M19.4394 79.5163C21.0948 83.0604 24.1034 85.1883 26.1593 84.2692C28.2152 83.3501 28.5399 79.732 26.8846 76.188C25.2292 72.6439 22.2206 70.516 20.1647 71.4351C18.1088 72.3542 17.7841 75.9723 19.4394 79.5163Z" fill="url(#paint49_linear)"/>
<path d="M20.3823 79.1649C21.6533 81.8276 23.9282 83.442 25.4635 82.7709C26.9987 82.0997 27.2129 79.3971 25.9418 76.7344C24.6708 74.0717 22.3959 72.4573 20.8606 73.1284C19.3254 73.7996 19.1112 76.5022 20.3823 79.1649Z" stroke="white" stroke-opacity="0.5" stroke-width="0.726023"/>
<path d="M22.2396 75.7068L24.2349 79.8595L23.499 80.1925L21.5038 76.0399L22.2396 75.7068Z" fill="white"/>
<path opacity="0.2" d="M34.5592 75.1261C28.3092 77.8522 22.0347 80.5782 15.8337 83.3779L10.3435 80.1607V77.9995C15.5641 75.1998 20.9072 72.6702 26.2994 70.288L29.6327 72.2281L34.5592 75.1261Z" fill="#B6CCDF"/>
<path opacity="0.2" d="M18.971 66.0147C16.0543 67.4146 13.1621 68.9127 10.3435 70.5336V68.5934C12.5494 67.3163 14.8043 66.0884 17.0592 64.9095L17.721 65.2779L18.971 66.0147Z" fill="#B6CCDF"/>
<path d="M78.0817 81.0193C76.7659 83.8414 74.3745 85.5359 72.7403 84.804C71.1061 84.0721 70.848 81.1911 72.1638 78.369C73.4796 75.5469 75.871 73.8524 77.5052 74.5843C79.1394 75.3161 79.3975 78.1972 78.0817 81.0193Z" fill="url(#paint50_linear)"/>
<path d="M77.3324 80.7395C76.3221 82.8598 74.5138 84.1454 73.2935 83.6109C72.0731 83.0765 71.9029 80.9244 72.9132 78.8041C73.9235 76.6838 75.7318 75.3982 76.9521 75.9327C78.1724 76.4671 78.3427 78.6192 77.3324 80.7395Z" stroke="white" stroke-opacity="0.5" stroke-width="0.571744"/>
<path d="M75.8557 77.9858L74.2698 81.2926L74.8547 81.5577L76.4406 78.251L75.8557 77.9858Z" fill="white"/>
<path opacity="0.01" d="M24.1178 61.3485C24.1178 54.693 18.7501 49.3146 12.1079 49.3146C5.46579 49.3146 0.0981445 54.693 0.0981445 61.3485C0.0981445 68.004 5.46579 73.3824 12.1079 73.3824C18.7501 73.3824 24.1178 68.004 24.1178 61.3485Z" fill="#F77723"/>
<path opacity="0.1212" d="M22.4755 61.3485C22.4755 55.6262 17.8432 50.96 12.1079 50.96C6.3971 50.96 1.74023 55.6017 1.74023 61.3485C1.74023 67.0953 6.37259 71.737 12.1079 71.737C17.8187 71.737 22.4755 67.0953 22.4755 61.3485Z" fill="#F77723"/>
<path opacity="0.2424" d="M20.8089 61.3485C20.8089 56.535 16.9119 52.6301 12.108 52.6301C7.30404 52.6301 3.40698 56.535 3.40698 61.3485C3.40698 66.1621 7.30404 70.067 12.108 70.067C16.9119 70.067 20.8089 66.1621 20.8089 61.3485Z" fill="#F77723"/>
<path opacity="0.3636" d="M19.1667 61.3485C19.1667 57.4436 16.005 54.2755 12.1079 54.2755C8.21084 54.2755 5.04907 57.4436 5.04907 61.3485C5.04907 65.2534 8.21084 68.4215 12.1079 68.4215C16.005 68.4215 19.1667 65.2534 19.1667 61.3485Z" fill="#F77723"/>
<path opacity="0.4848" d="M17.5245 61.3485C17.5245 58.3523 15.0981 55.9455 12.1324 55.9455C9.14219 55.9455 6.74023 58.3768 6.74023 61.3485C6.74023 64.3201 9.1667 66.7515 12.1324 66.7515C15.0981 66.776 17.5245 64.3447 17.5245 61.3485Z" fill="#F77723"/>
<path opacity="0.6061" d="M15.8579 61.3485C15.8579 59.261 14.1667 57.5909 12.1079 57.5909C10.0246 57.5909 8.35791 59.2855 8.35791 61.3485C8.35791 63.4114 10.0491 65.106 12.1079 65.106C14.1912 65.106 15.8579 63.436 15.8579 61.3485Z" fill="#F77723"/>
<path opacity="0.7273" d="M14.2157 61.3485C14.2157 60.1943 13.2843 59.2365 12.1078 59.2365C10.9559 59.2365 10 60.1697 10 61.3485C10 62.5274 10.9314 63.4606 12.1078 63.4606C13.2598 63.4606 14.2157 62.5274 14.2157 61.3485Z" fill="#F77723"/>
<defs>
<linearGradient id="paint0_linear" x1="46.521" y1="55.005" x2="57.6988" y2="81.1809" gradientUnits="userSpaceOnUse">
<stop stop-color="#FAD961"/>
<stop offset="1" stop-color="#F76B1C"/>
</linearGradient>
<linearGradient id="paint1_linear" x1="75.0984" y1="65.2836" x2="87.7456" y2="64.4501" gradientUnits="userSpaceOnUse">
<stop stop-color="#FFF0B8"/>
<stop offset="1" stop-color="#FFBE68"/>
</linearGradient>
<linearGradient id="paint2_linear" x1="94.1091" y1="95.3639" x2="103.905" y2="71.5411" gradientUnits="userSpaceOnUse">
<stop stop-color="#C18A51"/>
<stop offset="1" stop-color="#EAA341"/>
</linearGradient>
<linearGradient id="paint3_linear" x1="84.1959" y1="88.4101" x2="102.497" y2="88.5427" gradientUnits="userSpaceOnUse">
<stop stop-color="#FFF0B8"/>
<stop offset="1" stop-color="#FFBE68"/>
</linearGradient>
<linearGradient id="paint4_linear" x1="92.0225" y1="93.2805" x2="101.818" y2="69.4577" gradientUnits="userSpaceOnUse">
<stop stop-color="#C18A51"/>
<stop offset="1" stop-color="#EAA341"/>
</linearGradient>
<linearGradient id="paint5_linear" x1="82.1093" y1="86.3267" x2="100.41" y2="86.4594" gradientUnits="userSpaceOnUse">
<stop stop-color="#FFF0B8"/>
<stop offset="1" stop-color="#FFBE68"/>
</linearGradient>
<linearGradient id="paint6_linear" x1="93.5736" y1="89.57" x2="103.267" y2="65.7441" gradientUnits="userSpaceOnUse">
<stop stop-color="#C18A51"/>
<stop offset="1" stop-color="#EAA341"/>
</linearGradient>
<linearGradient id="paint7_linear" x1="83.6365" y1="82.6576" x2="102.002" y2="82.8225" gradientUnits="userSpaceOnUse">
<stop stop-color="#FFF0B8"/>
<stop offset="1" stop-color="#FFBE68"/>
</linearGradient>
<linearGradient id="paint8_linear" x1="92.6378" y1="86.7623" x2="102.331" y2="62.9364" gradientUnits="userSpaceOnUse">
<stop stop-color="#C18A51"/>
<stop offset="1" stop-color="#EAA341"/>
</linearGradient>
<linearGradient id="paint9_linear" x1="82.7007" y1="79.8499" x2="101.066" y2="80.0148" gradientUnits="userSpaceOnUse">
<stop stop-color="#FFF0B8"/>
<stop offset="1" stop-color="#FFBE68"/>
</linearGradient>
<linearGradient id="paint10_linear" x1="93.5736" y1="83.9545" x2="103.267" y2="60.1287" gradientUnits="userSpaceOnUse">
<stop stop-color="#C18A51"/>
<stop offset="1" stop-color="#EAA341"/>
</linearGradient>
<linearGradient id="paint11_linear" x1="83.6365" y1="77.0422" x2="102.002" y2="77.2071" gradientUnits="userSpaceOnUse">
<stop stop-color="#FFF0B8"/>
<stop offset="1" stop-color="#FFBE68"/>
</linearGradient>
<linearGradient id="paint12_linear" x1="92.6378" y1="80.211" x2="102.331" y2="56.3851" gradientUnits="userSpaceOnUse">
<stop stop-color="#C18A51"/>
<stop offset="1" stop-color="#EAA341"/>
</linearGradient>
<linearGradient id="paint13_linear" x1="82.7007" y1="73.2986" x2="101.066" y2="73.4635" gradientUnits="userSpaceOnUse">
<stop stop-color="#FFF0B8"/>
<stop offset="1" stop-color="#FFBE68"/>
</linearGradient>
<linearGradient id="paint14_linear" x1="92.6378" y1="77.8712" x2="102.331" y2="54.0453" gradientUnits="userSpaceOnUse">
<stop stop-color="#C18A51"/>
<stop offset="1" stop-color="#EAA341"/>
</linearGradient>
<linearGradient id="paint15_linear" x1="82.7007" y1="70.9588" x2="101.066" y2="71.1237" gradientUnits="userSpaceOnUse">
<stop stop-color="#FFF0B8"/>
<stop offset="1" stop-color="#FFBE68"/>
</linearGradient>
<linearGradient id="paint16_linear" x1="94.0416" y1="75.5314" x2="103.735" y2="51.7056" gradientUnits="userSpaceOnUse">
<stop stop-color="#C18A51"/>
<stop offset="1" stop-color="#EAA341"/>
</linearGradient>
<linearGradient id="paint17_linear" x1="84.1045" y1="68.6191" x2="102.47" y2="68.784" gradientUnits="userSpaceOnUse">
<stop stop-color="#FFF0B8"/>
<stop offset="1" stop-color="#FFBE68"/>
</linearGradient>
<linearGradient id="paint18_linear" x1="53.6891" y1="75.6967" x2="75.7826" y2="99.1466" gradientUnits="userSpaceOnUse">
<stop stop-color="#FAD961"/>
<stop offset="1" stop-color="#F76B1C"/>
</linearGradient>
<linearGradient id="paint19_linear" x1="23.9465" y1="103.802" x2="31.9029" y2="122.476" gradientUnits="userSpaceOnUse">
<stop stop-color="#FAD961"/>
<stop offset="1" stop-color="#F76B1C"/>
</linearGradient>
<linearGradient id="paint20_linear" x1="44.1452" y1="111.619" x2="53.8273" y2="110.908" gradientUnits="userSpaceOnUse">
<stop stop-color="#FFF0B8"/>
<stop offset="1" stop-color="#FFBE68"/>
</linearGradient>
<linearGradient id="paint21_linear" x1="69.1558" y1="36.2815" x2="69.3668" y2="36.3033" gradientUnits="userSpaceOnUse">
<stop offset="0.00510204" stop-color="#E4E9F2"/>
<stop offset="0.2748" stop-color="#DFE5EF"/>
<stop offset="0.598" stop-color="#D0D9E8"/>
<stop offset="0.9475" stop-color="#B8C5DC"/>
<stop offset="1" stop-color="#B4C2DA"/>
</linearGradient>
<linearGradient id="paint22_linear" x1="2.53582" y1="60.6876" x2="19.0696" y2="97.9047" gradientUnits="userSpaceOnUse">
<stop stop-color="#FAD961"/>
<stop offset="1" stop-color="#F76B1C"/>
</linearGradient>
<linearGradient id="paint23_linear" x1="2.53582" y1="60.221" x2="19.0696" y2="97.4381" gradientUnits="userSpaceOnUse">
<stop stop-color="#FAD961"/>
<stop offset="1" stop-color="#F76B1C"/>
</linearGradient>
<linearGradient id="paint24_linear" x1="2.53582" y1="59.779" x2="19.0696" y2="96.996" gradientUnits="userSpaceOnUse">
<stop stop-color="#FAD961"/>
<stop offset="1" stop-color="#F76B1C"/>
</linearGradient>
<linearGradient id="paint25_linear" x1="2.53582" y1="59.3123" x2="19.0696" y2="96.5294" gradientUnits="userSpaceOnUse">
<stop stop-color="#FAD961"/>
<stop offset="1" stop-color="#F76B1C"/>
</linearGradient>
<linearGradient id="paint26_linear" x1="2.53582" y1="58.8557" x2="19.0946" y2="96.0953" gradientUnits="userSpaceOnUse">
<stop stop-color="#FAD961"/>
<stop offset="1" stop-color="#F76B1C"/>
</linearGradient>
<linearGradient id="paint27_linear" x1="2.53582" y1="58.4036" x2="19.0696" y2="95.6207" gradientUnits="userSpaceOnUse">
<stop stop-color="#FAD961"/>
<stop offset="1" stop-color="#F76B1C"/>
</linearGradient>
<linearGradient id="paint28_linear" x1="2.53582" y1="57.937" x2="19.0696" y2="95.1541" gradientUnits="userSpaceOnUse">
<stop stop-color="#FAD961"/>
<stop offset="1" stop-color="#F76B1C"/>
</linearGradient>
<linearGradient id="paint29_linear" x1="2.53582" y1="57.495" x2="19.0696" y2="94.712" gradientUnits="userSpaceOnUse">
<stop stop-color="#FAD961"/>
<stop offset="1" stop-color="#F76B1C"/>
</linearGradient>
<linearGradient id="paint30_linear" x1="2.53582" y1="57.0283" x2="19.0696" y2="94.2454" gradientUnits="userSpaceOnUse">
<stop stop-color="#FAD961"/>
<stop offset="1" stop-color="#F76B1C"/>
</linearGradient>
<linearGradient id="paint31_linear" x1="2.53582" y1="56.58" x2="19.0804" y2="93.8068" gradientUnits="userSpaceOnUse">
<stop stop-color="#FAD961"/>
<stop offset="1" stop-color="#F76B1C"/>
</linearGradient>
<linearGradient id="paint32_linear" x1="2.53582" y1="56.1197" x2="19.0696" y2="93.3367" gradientUnits="userSpaceOnUse">
<stop stop-color="#FAD961"/>
<stop offset="1" stop-color="#F76B1C"/>
</linearGradient>
<linearGradient id="paint33_linear" x1="2.53582" y1="55.663" x2="19.0946" y2="92.9026" gradientUnits="userSpaceOnUse">
<stop stop-color="#FAD961"/>
<stop offset="1" stop-color="#F76B1C"/>
</linearGradient>
<linearGradient id="paint34_linear" x1="2.53582" y1="46.3206" x2="19.0696" y2="83.5377" gradientUnits="userSpaceOnUse">
<stop stop-color="#FAD961"/>
<stop offset="1" stop-color="#F76B1C"/>
</linearGradient>
<linearGradient id="paint35_linear" x1="2.53582" y1="45.8722" x2="19.0804" y2="83.099" gradientUnits="userSpaceOnUse">
<stop stop-color="#FAD961"/>
<stop offset="1" stop-color="#F76B1C"/>
</linearGradient>
<linearGradient id="paint36_linear" x1="2.53582" y1="45.4119" x2="19.0697" y2="82.629" gradientUnits="userSpaceOnUse">
<stop stop-color="#FAD961"/>
<stop offset="1" stop-color="#F76B1C"/>
</linearGradient>
<linearGradient id="paint37_linear" x1="2.53582" y1="44.9552" x2="19.0946" y2="82.1948" gradientUnits="userSpaceOnUse">
<stop stop-color="#FAD961"/>
<stop offset="1" stop-color="#F76B1C"/>
</linearGradient>
<linearGradient id="paint38_linear" x1="2.53582" y1="44.5033" x2="19.0696" y2="81.7203" gradientUnits="userSpaceOnUse">
<stop stop-color="#FAD961"/>
<stop offset="1" stop-color="#F76B1C"/>
</linearGradient>
<linearGradient id="paint39_linear" x1="2.53582" y1="44.0366" x2="19.0696" y2="81.2537" gradientUnits="userSpaceOnUse">
<stop stop-color="#FAD961"/>
<stop offset="1" stop-color="#F76B1C"/>
</linearGradient>
<linearGradient id="paint40_linear" x1="2.53582" y1="43.5946" x2="19.0696" y2="80.8117" gradientUnits="userSpaceOnUse">
<stop stop-color="#FAD961"/>
<stop offset="1" stop-color="#F76B1C"/>
</linearGradient>
<linearGradient id="paint41_linear" x1="2.53582" y1="43.128" x2="19.0696" y2="80.345" gradientUnits="userSpaceOnUse">
<stop stop-color="#FAD961"/>
<stop offset="1" stop-color="#F76B1C"/>
</linearGradient>
<linearGradient id="paint42_linear" x1="2.53582" y1="42.6734" x2="19.0909" y2="79.9097" gradientUnits="userSpaceOnUse">
<stop stop-color="#FAD961"/>
<stop offset="1" stop-color="#F76B1C"/>
</linearGradient>
<linearGradient id="paint43_linear" x1="2.53582" y1="42.2193" x2="19.0696" y2="79.4363" gradientUnits="userSpaceOnUse">
<stop stop-color="#FAD961"/>
<stop offset="1" stop-color="#F76B1C"/>
</linearGradient>
<linearGradient id="paint44_linear" x1="2.53582" y1="41.7546" x2="19.0663" y2="78.9686" gradientUnits="userSpaceOnUse">
<stop stop-color="#FAD961"/>
<stop offset="1" stop-color="#F76B1C"/>
</linearGradient>
<linearGradient id="paint45_linear" x1="2.53582" y1="41.3106" x2="19.0696" y2="78.5276" gradientUnits="userSpaceOnUse">
<stop stop-color="#FAD961"/>
<stop offset="1" stop-color="#F76B1C"/>
</linearGradient>
<linearGradient id="paint46_linear" x1="17.3049" y1="15.0999" x2="47.8459" y2="54.1366" gradientUnits="userSpaceOnUse">
<stop stop-color="#C18A51"/>
<stop offset="1" stop-color="#EAA341"/>
</linearGradient>
<linearGradient id="paint47_linear" x1="38.4085" y1="5.09155" x2="20.3173" y2="35.6961" gradientUnits="userSpaceOnUse">
<stop stop-color="#FFF0B8"/>
<stop offset="1" stop-color="#FFBE68"/>
</linearGradient>
<linearGradient id="paint48_linear" x1="-6.68194" y1="72.3841" x2="26.0567" y2="106.735" gradientUnits="userSpaceOnUse">
<stop stop-color="#FAD961"/>
<stop offset="1" stop-color="#F76B1C"/>
</linearGradient>
<linearGradient id="paint49_linear" x1="29.6254" y1="68.0808" x2="37.5396" y2="84.3696" gradientUnits="userSpaceOnUse">
<stop stop-color="#FFF0B8"/>
<stop offset="1" stop-color="#FFBE68"/>
</linearGradient>
<linearGradient id="paint50_linear" x1="69.9852" y1="71.9133" x2="63.6762" y2="84.8751" gradientUnits="userSpaceOnUse">
<stop stop-color="#FFF0B8"/>
<stop offset="1" stop-color="#FFBE68"/>
</linearGradient>
</defs>
</svg>
