<svg width="100" height="100" viewBox="0 0 100 100" fill="none" xmlns="http://www.w3.org/2000/svg">
<path opacity="0.3" d="M51.166 85.3464C74.7423 85.3464 93.8546 74.4222 93.8546 60.9466C93.8546 47.4709 74.7423 36.5468 51.166 36.5468C27.5898 36.5468 8.47742 47.4709 8.47742 60.9466C8.47742 74.4222 27.5898 85.3464 51.166 85.3464Z" fill="url(#paint0_linear)"/>
<path opacity="0.3" d="M51.166 88.65C74.7423 88.65 93.8546 77.7258 93.8546 64.2502C93.8546 50.7745 74.7423 39.8503 51.166 39.8503C27.5898 39.8503 8.47742 50.7745 8.47742 64.2502C8.47742 77.7258 27.5898 88.65 51.166 88.65Z" fill="url(#paint1_linear)"/>
<path d="M63.1413 66.9095L65.1029 65.2645C66.2277 64.3324 66.8724 62.9479 66.8724 61.4949V48.3629H66.2414V61.4949C66.2414 62.7697 65.679 63.976 64.7051 64.7848L62.4966 66.6353L63.1413 66.9095Z" fill="#B5B9DC"/>
<path d="M59.9589 68.9793H59.9726V69.418L63.1413 66.9095L63.155 66.8958L62.8395 66.7039L62.7709 66.7587L59.9589 68.9793Z" fill="#F3E7E0"/>
<path d="M59.9589 68.9794H59.9726V69.418L63.1413 66.9095L63.155 66.8958V66.4434L62.9355 66.6216L62.8395 66.7039L62.7709 66.7587L59.9589 68.9794Z" fill="#B5B9DC"/>
<path d="M44.1564 59.9459L59.9588 68.9793L62.7709 66.7587L62.8395 66.7038L62.9492 66.6079H62.9767L63.1687 66.4434L64.9383 64.963L65.0069 64.9081C65.9808 64.0994 66.5432 62.9205 66.5432 61.6731V48.9523L66.2551 48.8015L56.4335 43.3732L52.9218 40.1793H52.2908V53.3114C52.2908 53.3936 52.2908 53.4759 52.2771 53.5444C52.2085 54.737 51.6735 55.8473 50.7407 56.6012C50.6859 56.6423 50.6173 56.6972 50.5213 56.752C49.6571 57.3414 46.9684 58.63 44.1564 59.9459Z" fill="#F5F5FD"/>
<path d="M52.2771 53.5444L66.5295 61.6731V49.8844C65.5281 48.8975 64.7874 48.2395 64.6914 48.3492C64.4582 48.6233 55.3635 46.1011 52.2908 45.6761V53.2977C52.2908 53.3936 52.2908 53.4759 52.2771 53.5444Z" fill="#B5B9DC"/>
<path d="M59.9588 68.9793L44.1564 59.9459V60.3846L59.9726 69.418L59.9588 68.9793Z" fill="#F2EAE6"/>
<path d="M50.5349 56.752L64.9245 64.9629L64.9931 64.9081C65.967 64.0994 66.5294 62.9205 66.5294 61.6731L52.277 53.5444C52.2084 54.7369 51.6735 55.8473 50.7407 56.6012C50.6995 56.656 50.6309 56.6972 50.5349 56.752Z" fill="#CDD1F6"/>
<path d="M34.8285 1.94835L35.1714 2.01689L35.8847 2.15397C35.871 2.22251 35.8573 2.30476 35.8436 2.387C35.8161 2.59262 35.8024 2.79824 35.8024 3.03127L35.871 10.5157L36.0493 36.0533C36.0631 38.0546 37.2976 40.3575 38.7928 41.2074L84.7462 67.636C84.7736 67.6497 84.8011 67.6634 84.8285 67.6771L84.4718 68.9519L86.0356 68.0335C86.5569 67.7319 86.8998 67.0877 86.9684 66.1692C86.9821 66.0596 86.9821 65.9362 86.9821 65.8265L86.7352 32.8594V32.8045C86.7352 31.4338 86.1454 29.9122 85.2812 28.8156C84.8971 28.3221 84.4581 27.9109 83.978 27.6504L38.0247 1.22184C37.3662 0.851732 36.7764 0.824317 36.31 1.07106L35.0205 1.83869L34.8285 1.94835Z" fill="#B5B9DC"/>
<path d="M35.0205 1.83872L35.1714 2.01692L35.8436 2.38703L83.7036 29.5695L85.2811 28.8293C84.8971 28.3358 84.4581 27.9246 83.978 27.6641L38.0246 1.23557C37.3662 0.865465 36.7763 0.83805 36.3099 1.08479L35.0205 1.83872Z" fill="#F5F5FD"/>
<path d="M81.6873 30.5565L83.4019 34.7647L86.7215 32.8731V32.8182C86.7215 31.4475 86.1317 29.9259 85.2675 28.8293L81.6873 30.5565Z" fill="#B5B9DC"/>
<path d="M33.8683 4.169L33.8957 7.45887L33.9369 11.6534L34.1152 37.191C34.1289 39.1786 35.3635 41.4952 36.8724 42.3451L53.69 51.8857L71.7695 62.1254L72.1948 62.3722L82.812 68.7737C84.0466 69.4728 85.0754 68.9793 85.4046 67.6908C85.4595 67.4989 85.4869 67.2933 85.5007 67.0602C85.5007 66.9506 85.5007 66.8272 85.5007 66.7038L85.4732 62.9479L85.4046 53.2702L85.2675 33.6818C85.2537 31.6805 84.0192 29.3776 82.5103 28.514L63.5528 17.7808L63.5116 17.7534L57.0233 13.9152L48.8066 9.03526L39.3141 3.64811L36.5706 2.08542C35.5692 1.5234 34.6913 1.74273 34.2249 2.53778C33.9917 2.96272 33.8683 3.51103 33.8683 4.169Z" fill="#F0F3F9"/>
<path d="M35.6927 4.73108V38.3699C45.0617 43.8393 45.0892 43.853 65.3635 55.6965C70.631 58.7808 64.6914 55.3127 83.7312 66.416V32.7772C56.9685 17.1366 43.8958 9.51509 36.0357 4.92299L35.6927 4.73108Z" fill="#F9408F"/>
<path d="M36.3786 5.11487V37.9861L83.7312 65.6484V66.416L35.6927 38.3562V4.71735L36.3786 5.11487Z" fill="#B5B9DC"/>
<path d="M83.7312 66.416L35.6927 38.3562L36.3786 37.9861L83.7312 65.6484V66.416Z" fill="#F5F5FD"/>
<path opacity="0.3" d="M65.5144 22.1262L83.7311 53.6814V44.6343L73.3882 26.732L72.9492 26.4715L71.0425 25.3612L69.6022 24.525L66.4609 22.6882L65.5144 22.1262Z" fill="#B6CCDF"/>
<path opacity="0.3" d="M36.0356 4.92291L65.3635 55.6828L69.2592 57.9583L69.4376 58.0679L83.7311 66.416V64.7025L55.8848 16.506L54.8834 15.9165L54.6639 15.8069L54.4033 15.6561L53.8546 15.3271L52.9767 14.8062L52.5514 14.5595L36.0356 4.92291Z" fill="#B6CCDF"/>
<g opacity="0.8">
<path opacity="0.01" d="M0.315503 14.0249C0.219481 13.9701 0.109741 14.0386 0.109741 14.1483V60.6999C0.109741 60.9603 0.246915 61.1933 0.466394 61.3167C13.251 68.7874 13.5528 68.9519 41.7558 85.4287C49.0535 89.6918 41.0425 85.0174 66.4472 99.8492C66.9273 100.123 67.5309 99.7807 67.5309 99.2324V53.6815C67.5309 53.421 67.3937 53.188 67.1742 53.0646C29.8628 31.2693 11.5912 20.6046 0.589851 14.1894L0.315503 14.0249Z" fill="#FEA7EA"/>
<path opacity="0.1667" d="M6.43342 12.6678C6.3374 12.613 6.22766 12.6815 6.22766 12.7912V56.9439C6.22766 57.2043 6.36484 57.4374 6.58431 57.5607C18.7105 64.6339 18.9986 64.7984 45.7476 80.439C52.6748 84.4828 45.0891 80.0552 69.1357 94.0919C69.6159 94.3661 70.2194 94.0234 70.2194 93.4751V50.323C70.2194 50.0626 70.0823 49.8295 69.8628 49.7062C34.4581 29.0212 17.1193 18.9048 6.68034 12.8186L6.43342 12.6678Z" fill="#F77723"/>
<path opacity="0.3333" d="M12.5515 11.3107C12.4554 11.2559 12.3457 11.3244 12.3457 11.4341V53.188C12.3457 53.4484 12.4829 53.6814 12.7024 53.8048C24.1564 60.4942 24.4445 60.6587 49.7531 75.4357C56.2963 79.2601 49.1358 75.0793 71.8382 88.321C72.3183 88.5951 72.9218 88.2524 72.9218 87.7041V46.9646C72.9218 46.7042 72.7847 46.4712 72.5652 46.3478C39.0535 26.7731 22.6475 17.2051 12.7709 11.4478L12.5515 11.3107Z" fill="#F77723"/>
<path opacity="0.5" d="M18.6694 9.96742C18.5734 9.91259 18.4636 9.98113 18.4636 10.0908V49.4321C18.4636 49.6925 18.6008 49.9256 18.8203 50.0489C29.6022 56.3408 29.8902 56.5053 53.7585 70.4461C59.9314 74.0512 53.1961 70.1171 74.5267 82.5775C75.0068 82.8516 75.6104 82.5089 75.6104 81.9606V43.62C75.6104 43.3595 75.4732 43.1265 75.2537 43.0031C43.6625 24.5388 28.1756 15.5191 18.8614 10.0771L18.6694 9.96742Z" fill="#F77723"/>
<path opacity="0.6667" d="M24.7874 8.6103C24.6914 8.55547 24.5817 8.62401 24.5817 8.73367V45.6898C24.5817 45.9503 24.7188 46.1833 24.9383 46.3067C35.0618 52.2147 35.3361 52.3792 57.7641 65.4701C63.5529 68.8559 57.2428 65.1685 77.2291 76.8338C77.7092 77.108 78.3128 76.7653 78.3128 76.217V40.2615C78.3128 40.0011 78.1756 39.7681 77.9562 39.6447C48.2579 22.3044 33.7175 13.8193 24.9658 8.70626L24.7874 8.6103Z" fill="#F77723"/>
<path opacity="0.8333" d="M30.9053 7.25325C30.8093 7.19841 30.6996 7.26695 30.6996 7.37662V41.9339C30.6996 42.1943 30.8368 42.4274 31.0562 42.5507C40.5075 48.0613 40.7956 48.2258 61.7558 60.4805C67.1742 63.647 61.2894 60.2063 79.904 71.0766C80.3841 71.3508 80.9877 71.0081 80.9877 70.4597V36.9031C80.9877 36.6427 80.8505 36.4097 80.631 36.2863C52.8669 20.0563 39.2455 12.1195 31.0562 7.33549L30.9053 7.25325Z" fill="#F77723"/>
<path d="M37.0233 5.89619C36.9272 5.84136 36.8175 5.9099 36.8175 6.01956V38.178C36.8175 38.4384 36.9547 38.6715 37.1742 38.7948C45.9533 43.9215 46.2414 44.086 65.7613 55.4909C70.8093 58.4381 65.336 55.2441 82.6063 65.3194C83.0864 65.5935 83.6899 65.2508 83.6899 64.7025V33.5585C83.6899 33.298 83.5528 33.065 83.3333 32.9416C57.4622 17.8219 44.7873 10.4335 37.1467 5.97844L37.0233 5.89619Z" fill="#F77723"/>
</g>
<path opacity="0.6" d="M71.2208 5.16968V14.628L100 31.2418V21.7698L71.2208 5.16968Z" fill="#F77723"/>
<path d="M21.5638 6.15664C22.2085 5.77282 23.0178 5.66316 23.9095 5.85507C24.4582 5.96473 25.048 6.19776 25.6653 6.55416C26.2551 6.89686 26.8176 7.3218 27.3525 7.81528L24.7599 9.32313C24.225 8.82965 23.6625 8.40471 23.0727 8.06202C22.4554 7.70562 21.8656 7.47259 21.3169 7.36292C20.4252 7.17101 19.6159 7.28068 18.9712 7.66449L21.5638 6.15664Z" fill="#DCDEED"/>
<path d="M21.5638 6.15664C22.2085 5.77282 23.0178 5.66316 23.9095 5.85507C24.4582 5.96473 25.048 6.19776 25.6653 6.55416C26.2551 6.89686 26.8176 7.3218 27.3525 7.81528L24.7599 9.32313C24.225 8.82965 23.6625 8.40471 23.0727 8.06202C22.4554 7.70562 21.8656 7.47259 21.3169 7.36292C20.4252 7.17101 19.6159 7.28068 18.9712 7.66449L21.5638 6.15664Z" fill="#DCDEED"/>
<path d="M29.2182 4.64878C29.9727 4.21013 30.8917 4.08676 31.9343 4.30608C32.579 4.44316 33.2648 4.70361 33.9644 5.11484C35.1441 5.78652 36.2415 6.77348 37.2017 7.95235C38.9713 10.1045 40.2333 12.8734 40.5488 15.4368C41.0838 15.5602 41.6462 15.7795 42.236 16.1222C43.2511 16.7116 44.1976 17.5615 45.0344 18.5622C46.8039 20.7143 47.9974 23.5792 47.9974 26.074C47.9974 27.8834 47.3526 29.172 46.3101 29.7751L43.7175 31.283C44.76 30.6798 45.391 29.405 45.4048 27.5819C45.4048 25.0871 44.2113 22.2221 42.4418 20.07C41.6188 19.0693 40.6585 18.2195 39.6434 17.63C39.0536 17.2873 38.4912 17.068 37.9562 16.9446C37.6544 14.3676 36.3787 11.6123 34.6091 9.4602C33.6489 8.29504 32.5515 7.30808 31.3718 6.62269C30.6585 6.21146 29.9864 5.95101 29.3417 5.81394C28.2991 5.59461 27.3801 5.71798 26.6256 6.15663L29.2182 4.64878Z" fill="#DCDEED"/>
<path d="M29.2182 4.64878C29.9727 4.21013 30.8917 4.08676 31.9343 4.30608C32.579 4.44316 33.2648 4.70361 33.9644 5.11484C35.1441 5.78652 36.2415 6.77348 37.2017 7.95235C38.9713 10.1045 40.2333 12.8734 40.5488 15.4368C41.0838 15.5602 41.6462 15.7795 42.236 16.1222C43.2511 16.7116 44.1976 17.5615 45.0344 18.5622C46.8039 20.7143 47.9974 23.5792 47.9974 26.074C47.9974 27.8834 47.3526 29.172 46.3101 29.7751L43.7175 31.283C44.76 30.6798 45.391 29.405 45.4048 27.5819C45.4048 25.0871 44.2113 22.2221 42.4418 20.07C41.6188 19.0693 40.6585 18.2195 39.6434 17.63C39.0536 17.2873 38.4912 17.068 37.9562 16.9446C37.6544 14.3676 36.3787 11.6123 34.6091 9.4602C33.6489 8.29504 32.5515 7.30808 31.3718 6.62269C30.6585 6.21146 29.9864 5.95101 29.3417 5.81394C28.2991 5.59461 27.3801 5.71798 26.6256 6.15663L29.2182 4.64878Z" fill="#DCDEED"/>
<path d="M31.3718 6.6227C28.0247 4.6899 25.2538 5.9236 24.76 9.32313C24.225 8.82965 23.6626 8.40471 23.0727 8.06201C19.8903 6.22517 17.2977 7.6919 17.284 11.3656C17.2703 15.0256 19.8491 19.4806 23.0316 21.3174L39.5885 30.8717C42.771 32.7086 45.3636 31.2418 45.3773 27.5819C45.391 23.9219 42.8121 19.4669 39.6297 17.6163C39.0398 17.2736 38.4774 17.0543 37.9424 16.9309C37.476 12.9694 34.7188 8.55549 31.3718 6.6227Z" fill="#F5F5FD"/>
<path fill-rule="evenodd" clip-rule="evenodd" d="M92.0165 46.1011L97.7366 49.4046C97.915 49.5006 98.0658 49.761 98.0658 49.9666V53.4895C98.0658 53.6952 97.915 53.7911 97.7366 53.6814L92.0165 50.3779C91.8381 50.2682 91.6873 50.0078 91.6873 49.8022V46.293C91.6873 46.0873 91.8381 45.9914 92.0165 46.1011ZM97.7504 52.763L97.8464 52.8179V50.3779L97.7504 50.3231C97.4897 50.186 97.284 49.8159 97.284 49.528V49.4183L92.4554 46.6357V46.7453C92.4554 47.0332 92.2497 47.1566 91.989 47.0058L91.893 46.9509V49.3909L91.989 49.4458C92.2497 49.5828 92.4554 49.9529 92.4554 50.2408V50.3505L97.284 53.1331V53.0235C97.284 52.7356 97.4897 52.6122 97.7504 52.763Z" fill="#F1F5FA"/>
<path d="M94.4719 49.3087C94.4719 49.0345 94.6228 49.0345 94.8011 49.1305V48.966L94.9657 49.062V49.2265C95.0892 49.295 95.1715 49.3772 95.2538 49.4458V49.6925C95.1578 49.624 94.9795 49.5143 94.8972 49.4732C94.8011 49.4184 94.76 49.4047 94.76 49.5006V49.5417C94.76 49.624 94.7874 49.6788 94.8834 49.7199L95.0206 49.8022C95.2675 49.9393 95.3224 50.1997 95.3224 50.3642V50.4464C95.3224 50.7754 95.1578 50.748 94.9932 50.6521V50.8028L94.8286 50.7069V50.5424C94.6914 50.4601 94.6502 50.419 94.5405 50.3231V50.0763C94.6091 50.1175 94.7737 50.2271 94.9246 50.3094C94.9932 50.3505 95.048 50.3642 95.048 50.2819V50.2408C95.048 50.1723 95.0343 50.1175 94.952 50.0763L94.8286 50.0078C94.5268 49.8433 94.5131 49.5417 94.5131 49.4321V49.3087H94.4719Z" fill="#F1F5FA"/>
<path fill-rule="evenodd" clip-rule="evenodd" d="M92.5651 46.8002L97.1879 49.4595C97.1879 49.8159 97.4348 50.2545 97.7503 50.4327V52.6397C97.4348 52.4615 97.1879 52.6123 97.1879 52.9687L92.5651 50.3094C92.5651 49.953 92.3182 49.5143 92.0027 49.3361V47.1292C92.3182 47.3074 92.5651 47.1566 92.5651 46.8002ZM92.5102 48.5136C92.5102 48.7467 92.6611 49.0345 92.8669 49.1442C93.0727 49.2676 93.2373 49.1716 93.2235 48.9386C93.2235 48.7056 93.0727 48.4177 92.8669 48.308C92.6748 48.1847 92.5102 48.2806 92.5102 48.5136ZM94.8696 51.3511C94.1837 50.9536 93.6213 49.9804 93.6213 49.1716C93.6213 48.3629 94.1837 48.0339 94.8696 48.4314C95.5555 48.8289 96.1179 49.8022 96.1179 50.6109C96.1179 51.4197 95.5692 51.7487 94.8696 51.3511ZM96.5157 50.8303C96.5157 51.0633 96.6666 51.3512 96.8724 51.4608C97.0781 51.5705 97.2427 51.4745 97.229 51.2552C97.229 51.0222 97.0781 50.7343 96.8724 50.6246C96.6803 50.5013 96.5157 50.5972 96.5157 50.8303Z" fill="#F1F5FA"/>
<path opacity="0.4" d="M99.6159 52.6259C99.6159 49.6102 97.4897 45.9365 94.8696 44.415C92.2496 42.9071 90.1234 44.1271 90.1234 47.1565C90.1234 50.1722 92.2496 53.8596 94.8696 55.3675C97.4897 56.8616 99.6159 55.6416 99.6159 52.6259Z" fill="#F1F5FA"/>
<path d="M97.0781 37.4652V38.5618C97.133 38.6578 97.1879 38.7537 97.229 38.8497L97.3936 37.8764C97.4073 37.7531 97.3799 37.6434 97.2976 37.5611C97.2839 37.5474 97.2016 37.4926 97.0781 37.4241C97.0781 37.4378 97.0781 37.4515 97.0781 37.4652Z" fill="#F1F5FA"/>
<path fill-rule="evenodd" clip-rule="evenodd" d="M97.4211 39.5213L97.6543 39.7407C97.8052 39.8914 97.9423 40.193 97.9149 40.426V40.9881C97.9149 41.2074 97.7914 41.3582 97.6268 41.3308L97.3936 41.2759C97.2702 41.5364 97.0644 41.7146 96.8038 41.8242L96.9135 42.5645C96.9684 42.7701 96.7901 42.8934 96.5294 42.8386L96.2825 42.7838C96.1316 42.7564 96.0082 42.7015 95.8847 42.5782C95.8436 42.537 95.6378 42.1258 95.4732 41.7831C95.2537 41.7146 95.0205 41.6049 94.7873 41.4678C94.5541 41.3308 94.3209 41.1663 94.1015 40.9881L94.0723 41.0148C93.9135 41.1605 93.7287 41.33 93.6899 41.3171C93.5665 41.3033 93.443 41.2074 93.2921 41.0703L93.0452 40.8373C92.7846 40.5768 92.6063 40.2616 92.6611 40.1108L92.7709 39.4939C92.3045 38.7674 92.0164 37.9861 92.0164 37.3144C92.0164 36.7661 92.1399 36.3823 92.3456 36.1355L92.2908 36.0807C92.1673 35.9436 92.0164 35.7654 91.9753 35.5872C91.9615 35.5461 91.9615 35.5187 91.9615 35.4913C91.8655 35.3542 91.7695 35.1897 91.8244 35.08C91.8381 35.0526 91.8655 35.08 91.8655 35.1074C91.8655 35.2034 91.9067 35.3131 91.9753 35.3953C91.989 35.3268 92.0301 35.2719 92.085 35.2582C92.1673 35.2308 92.2908 35.2993 92.3456 35.4364C92.3868 35.5461 92.4005 35.6832 92.3319 35.7106C92.2908 35.7243 92.2222 35.6969 92.1536 35.642C92.1568 35.6485 92.1601 35.6557 92.1635 35.6634L92.1635 35.6634C92.1745 35.6881 92.1875 35.717 92.2085 35.738C92.277 35.8339 92.3594 35.9299 92.4417 35.9984C92.9355 35.5735 93.8134 35.7517 94.8011 36.3274C95.1714 36.533 95.5281 36.8072 95.8436 37.1088C96.406 36.8209 96.8038 37.0402 96.8449 37.0814C96.9273 37.1499 96.9821 37.2596 96.9821 37.3966V38.5344C97.1604 38.8634 97.3113 39.1923 97.4211 39.5213ZM92.2496 35.4638C92.2084 35.3816 92.1536 35.409 92.1261 35.4501C92.1124 35.4638 92.1124 35.4913 92.1124 35.505C92.1947 35.5598 92.3182 35.6146 92.2496 35.4638ZM94.0054 36.3137H93.9917C93.9643 36.3 93.9506 36.2726 93.9368 36.2452C93.9231 36.2041 93.9506 36.1766 93.978 36.1903C94.4993 36.3137 95.0891 36.6427 95.6104 37.1362C95.6378 37.1636 95.6515 37.2047 95.6515 37.2321C95.6515 37.2596 95.6104 37.2596 95.5829 37.2321C95.0754 36.7524 94.513 36.4371 94.0054 36.3137ZM96.5157 39.1238C96.5157 39.2472 96.598 39.3843 96.694 39.4391C96.7901 39.4939 96.8724 39.4528 96.8724 39.3294C96.8724 39.2061 96.7901 39.069 96.694 39.0142C96.598 38.9593 96.5157 39.0142 96.5157 39.1238Z" fill="#F1F5FA"/>
<path fill-rule="evenodd" clip-rule="evenodd" d="M94.17 34.751C94.17 34.2987 94.4855 34.1205 94.8696 34.3398C95.2674 34.5591 95.5692 35.1074 95.5692 35.5598C95.5692 36.0122 95.2537 36.1904 94.8696 35.971C94.4855 35.7517 94.17 35.2034 94.17 34.751ZM94.2523 34.7922C94.2523 35.1897 94.5267 35.6695 94.8696 35.8614C95.2126 36.0533 95.4869 35.9025 95.4869 35.505C95.4869 35.1074 95.2126 34.6277 94.8696 34.4358C94.5267 34.2439 94.2523 34.3946 94.2523 34.7922Z" fill="#F1F5FA"/>
<path fill-rule="evenodd" clip-rule="evenodd" d="M94.3346 34.8333C94.3346 34.4906 94.5678 34.3398 94.8696 34.518C95.1714 34.6962 95.4045 35.1074 95.4045 35.4501C95.4045 35.7928 95.1714 35.9436 94.8696 35.7654C94.5815 35.6009 94.3346 35.176 94.3346 34.8333ZM94.9107 35.5872C95.0068 35.6283 95.1028 35.642 95.1028 35.4638V35.4227C95.1028 35.3405 95.0753 35.1897 94.9382 35.1074L94.8696 35.0663C94.8147 35.0252 94.801 34.9978 94.801 34.9567V34.9292C94.801 34.8744 94.8284 34.8881 94.8833 34.9155C94.9382 34.9429 95.0342 34.9978 95.0891 35.0389V34.9018C95.0708 34.8881 95.054 34.8744 95.0372 34.8607C95.0037 34.8333 94.9702 34.8059 94.9245 34.7785V34.6825L94.8284 34.6277V34.7236C94.7187 34.6688 94.6364 34.6688 94.6364 34.8196V34.8881C94.6364 34.9567 94.6501 35.1211 94.8147 35.2171L94.8833 35.2582C94.9245 35.2856 94.9382 35.3131 94.9382 35.3542V35.3816C94.9382 35.4227 94.9107 35.4227 94.8696 35.3953C94.7736 35.3405 94.6913 35.2856 94.6501 35.2582V35.3953C94.705 35.4501 94.7324 35.4775 94.8147 35.5187V35.6146L94.9107 35.6695V35.5872Z" fill="#F1F5FA"/>
<path opacity="0.4" d="M99.6159 40.8921C99.6159 37.8764 97.4897 34.2027 94.8696 32.6812C92.2496 31.1733 90.1234 32.3933 90.1234 35.4227C90.1234 38.4384 92.2496 42.1258 94.8696 43.6337C97.4897 45.1415 99.6159 43.9078 99.6159 40.8921Z" fill="#F1F5FA"/>
<path d="M97.5857 63.1261C97.764 63.4277 97.9698 63.7018 98.1893 63.9486C98.203 63.9349 98.203 63.9074 98.2167 63.8937V64.1953C98.107 64.4009 97.9561 64.5517 97.7915 64.6751L98.2167 65.4153C98.2167 65.4016 98.2167 65.4016 98.2167 65.3879V62.4955V62.7834L97.5857 63.1261Z" fill="#F1F5FA"/>
<path d="M93.3196 59.8362C93.3882 59.7814 93.4293 59.6992 93.4293 59.5621C93.4293 59.4387 93.3882 59.3016 93.3196 59.1646C93.251 59.2194 93.2098 59.3016 93.2098 59.4387C93.2098 59.5621 93.251 59.7129 93.3196 59.8362Z" fill="#F1F5FA"/>
<path d="M93.5528 59.6443C93.5528 59.8088 93.498 59.9185 93.4156 59.987C93.4842 60.0693 93.5665 60.1515 93.6488 60.1926V60.2612V60.1926C93.882 60.3297 94.0878 60.2201 94.0878 59.9459C94.0878 59.8088 94.0467 59.658 93.9644 59.521C93.882 59.3839 93.7723 59.2605 93.6626 59.192C93.5803 59.1371 93.498 59.1234 93.4294 59.1371C93.5117 59.3016 93.5528 59.4798 93.5528 59.6443Z" fill="#F1F5FA"/>
<path d="M92.9218 59.2742C92.9218 59.4387 92.867 59.5484 92.7847 59.6169C92.8533 59.6992 92.9356 59.7814 93.0179 59.8225V59.8911V59.8225C93.1002 59.8774 93.1825 59.8911 93.2511 59.8774C93.1688 59.7129 93.1139 59.5347 93.1139 59.3702C93.1139 59.2057 93.1688 59.096 93.2511 59.0275C93.1825 58.9452 93.1002 58.863 93.0179 58.8219C92.9356 58.767 92.8533 58.7533 92.7847 58.767C92.867 58.9315 92.9218 59.1097 92.9218 59.2742Z" fill="#F1F5FA"/>
<path d="M92.3594 59.4524V59.521V59.4524C92.4417 59.5073 92.524 59.521 92.5926 59.5073C92.5103 59.3428 92.4554 59.1646 92.4554 59.0001C92.4554 58.8356 92.5103 58.7259 92.5926 58.6574C92.524 58.5751 92.4417 58.4929 92.3594 58.4518C92.1262 58.3147 91.9204 58.4244 91.9204 58.6985C91.9341 58.9727 92.1262 59.3154 92.3594 59.4524Z" fill="#F1F5FA"/>
<path d="M92.6886 59.4661C92.7572 59.4113 92.7984 59.329 92.7984 59.192C92.7984 59.0686 92.7572 58.9315 92.6886 58.7944C92.6201 58.8493 92.5789 58.9315 92.5789 59.0686C92.5652 59.192 92.6201 59.3427 92.6886 59.4661Z" fill="#F1F5FA"/>
<path d="M98.011 65.7169C97.9973 65.7169 97.9836 65.7306 97.9699 65.7306C97.9836 65.7169 97.9973 65.7169 98.011 65.7169Z" fill="#F1F5FA"/>
<path d="M98.0522 65.7032C98.0659 65.6894 98.0796 65.6894 98.0933 65.6757C98.0796 65.6757 98.0659 65.6894 98.0522 65.7032Z" fill="#F1F5FA"/>
<path d="M98.1756 65.5249C98.1756 65.5387 98.1618 65.5661 98.1481 65.5798C98.1756 65.5661 98.1756 65.5524 98.1756 65.5249Z" fill="#F1F5FA"/>
<path d="M98.1482 65.6072C98.1345 65.621 98.1345 65.6347 98.1208 65.6484C98.1208 65.6347 98.1345 65.621 98.1482 65.6072Z" fill="#F1F5FA"/>
<path d="M98.203 65.429C98.203 65.4564 98.203 65.4701 98.1893 65.4975C98.203 65.4701 98.203 65.4564 98.203 65.429Z" fill="#F1F5FA"/>
<path d="M95.7888 62.7697C96.022 63.0302 96.2415 63.3317 96.4198 63.6333L96.8999 63.3455L96.2415 62.2077C96.0495 62.3448 95.8986 62.5367 95.7888 62.7697Z" fill="#F1F5FA"/>
<path d="M95.2812 62.2625C95.3498 62.3174 95.4321 62.3859 95.5007 62.4545C95.5693 62.523 95.6379 62.5915 95.7065 62.6601C95.8162 62.4133 95.9808 62.2214 96.1866 62.0843L95.7339 61.3167C95.4733 61.4949 95.3087 61.8239 95.2812 62.2625Z" fill="#F1F5FA"/>
<path d="M96.8039 61.3167C96.4198 61.1385 96.0631 61.1385 95.8025 61.2755L96.2552 62.0432C96.4609 61.9335 96.6941 61.8787 96.9548 61.8924C96.9273 61.8101 96.8999 61.7142 96.8862 61.6319C96.845 61.536 96.8313 61.4263 96.8039 61.3167Z" fill="#F1F5FA"/>
<path d="M95.2675 62.3996C95.2675 62.7697 95.3635 63.1672 95.5144 63.5647C95.5144 63.3043 95.5555 63.0713 95.6241 62.8519C95.6378 62.8245 95.6515 62.7834 95.6653 62.756C95.5418 62.6189 95.4046 62.4955 95.2675 62.3859C95.2675 62.3859 95.2675 62.3996 95.2675 62.3996Z" fill="#F1F5FA"/>
<path d="M96.845 64.7025C96.7352 64.4009 96.5981 64.0994 96.4335 63.7978L95.8162 64.1542C95.8573 64.2227 95.8985 64.2776 95.9396 64.3461C96.2551 64.5517 96.5569 64.6751 96.845 64.7025Z" fill="#F1F5FA"/>
<path d="M98.1481 64.0308C97.9149 63.7704 97.7092 63.4825 97.5171 63.1672L97.0645 63.4414L97.7092 64.538C97.8875 64.4146 98.0384 64.2364 98.1481 64.0308Z" fill="#F1F5FA"/>
<path d="M96.3511 63.6744C96.1728 63.3728 95.967 63.0987 95.7475 62.8519C95.6515 63.1124 95.5966 63.4414 95.6104 63.7978C95.6515 63.88 95.6927 63.9623 95.7338 64.0308L96.3511 63.6744Z" fill="#F1F5FA"/>
<path d="M96.9136 61.3715C96.941 61.5497 96.9822 61.7279 97.037 61.9061C97.0782 61.9061 97.1331 61.9198 97.1742 61.9335C97.3937 61.9747 97.6132 62.0569 97.8464 62.1803C97.5994 61.865 97.2977 61.5908 96.9822 61.4126C96.9684 61.3989 96.941 61.3852 96.9136 61.3715Z" fill="#F1F5FA"/>
<path d="M97.6269 64.5792L96.9822 63.4825L96.5021 63.7704C96.6804 64.0857 96.8176 64.401 96.941 64.7299C97.1879 64.7299 97.4211 64.6888 97.6269 64.5792Z" fill="#F1F5FA"/>
<path d="M97.4348 63.0439C97.2565 62.7149 97.0919 62.3722 96.9822 62.0432C96.7353 62.0295 96.5158 62.0706 96.3237 62.1803L96.9822 63.318L97.4348 63.0439Z" fill="#F1F5FA"/>
<path d="M98.1619 62.6189C98.1208 62.5367 98.0659 62.4682 98.011 62.3996C97.6955 62.2077 97.38 62.0843 97.0782 62.0432C97.188 62.3585 97.3252 62.6875 97.5035 63.0028L98.1619 62.6189Z" fill="#F1F5FA"/>
<path fill-rule="evenodd" clip-rule="evenodd" d="M97.6955 60.8232L92.0576 57.5745C91.7696 57.41 91.5364 57.547 91.5364 57.876V61.5223C91.5364 61.8513 91.7696 62.2488 92.0576 62.4133L96.0818 64.7322L96.0906 64.7436L96.4198 64.9355L96.3998 64.9154L97.007 65.2653L97.0096 65.2782L97.1194 65.3331L97.1185 65.3296L97.6955 65.662L97.5858 65.5935C97.8052 65.6346 98.011 65.5935 98.1893 65.5113L97.7229 64.7025C97.5172 64.8122 97.2703 64.867 96.9959 64.8533C97.0058 64.893 97.0176 64.9308 97.0291 64.9682L97.0291 64.9682C97.0495 65.0342 97.0695 65.0986 97.0782 65.1686L97.1185 65.3296L97.007 65.2653C96.9858 65.1624 96.957 65.0592 96.9266 64.9499C96.9178 64.9183 96.9088 64.8861 96.8999 64.8533C96.8793 64.8533 96.8622 64.8499 96.845 64.8464C96.8279 64.843 96.8107 64.8396 96.7901 64.8396C96.5707 64.7985 96.3375 64.7162 96.1043 64.5791C96.1945 64.695 96.2968 64.8109 96.3998 64.9154L96.0818 64.7322C96.0642 64.7094 96.0465 64.6888 96.0289 64.6683L96.0288 64.6682L96.0288 64.6682C96.0082 64.6442 95.9877 64.6202 95.9671 64.5928C95.8848 64.4832 95.8025 64.3598 95.7202 64.2364L95.6928 64.1816L95.6653 64.1268C94.9657 62.8931 94.9794 61.5634 95.679 61.1522C96.0357 60.9329 96.5158 61.0014 96.9959 61.2756C97.1468 61.3578 97.3114 61.4812 97.4623 61.6183C97.4692 61.6183 97.4726 61.6217 97.476 61.6251C97.4794 61.6285 97.4829 61.632 97.4897 61.632L97.5172 61.6594C97.6818 61.8102 97.8327 61.9747 97.9836 62.1529C98.0659 62.2625 98.1482 62.3722 98.2305 62.4955V61.7416C98.203 61.3852 97.9698 60.9877 97.6955 60.8232ZM92.3594 58.3147C92.4828 58.3832 92.5926 58.4929 92.6749 58.6163C92.7709 58.5888 92.8807 58.6163 92.9904 58.6848C93.1138 58.7533 93.2236 58.863 93.3059 58.9864C93.4019 58.959 93.5117 58.9864 93.6214 59.0549C93.7723 59.1372 93.9095 59.2879 94.0192 59.4661C94.1289 59.6443 94.1838 59.8362 94.1838 60.0144C94.1838 60.3709 93.9369 60.5079 93.6351 60.3297C93.5117 60.2612 93.4019 60.1515 93.3196 60.0282C93.2236 60.0556 93.1138 60.0282 93.0041 59.9596C92.8807 59.8911 92.7709 59.7814 92.6886 59.658C92.5926 59.6855 92.4828 59.658 92.3731 59.5895C92.0713 59.4113 91.8244 58.9864 91.8244 58.63C91.8107 58.2736 92.0576 58.1365 92.3594 58.3147ZM94.3759 62.3174V61.7416L91.8793 60.3023V60.878L94.3759 62.3174ZM93.4294 62.6738L91.8656 61.769V61.1933L93.4294 62.098V62.6738ZM93.5254 62.7286L94.5817 63.3454V62.7697L93.5254 62.1529V62.7286Z" fill="#F1F5FA"/>
<path d="M97.8327 65.7169C97.819 65.7169 97.8053 65.7169 97.7915 65.7032C97.8053 65.7169 97.819 65.7169 97.8327 65.7169Z" fill="#F1F5FA"/>
<path opacity="0.4" d="M99.6159 64.3461C99.6159 61.3304 97.4897 57.6567 94.8696 56.1351C92.2496 54.6273 90.1234 55.8473 90.1234 58.8767C90.1234 61.8924 92.2496 65.5798 94.8696 67.0876C97.4897 68.5955 99.6159 67.3755 99.6159 64.3461Z" fill="#F1F5FA"/>
<path d="M69.8354 41.8791C69.7805 42.5508 69.4376 43.1539 68.9163 43.5651C66.4198 45.4568 65.7888 45.9914 63.2099 47.8145C62.3183 48.4451 61.4952 49.0071 60.7956 49.4869C59.465 50.3779 58.546 50.9262 58.3539 50.8988C57.3388 50.748 56.4198 49.0208 55.7339 48.2669C53.7586 46.1011 51.3032 44.4561 48.8752 42.8249C48.3128 42.4548 47.7641 42.071 47.1742 41.742C46.4472 41.3171 45.9945 40.5357 46.0082 39.6858C46.022 38.6303 46.7353 37.6845 47.7641 37.4241C48.642 37.2047 49.4925 36.7113 50.2606 36.2178C51.2209 35.6009 56.2552 31.4886 58.1619 31.2007C59.1084 31.0499 60.0823 31.1459 61.0151 31.3652C61.8656 31.5708 62.6475 31.9958 63.3882 32.4481C66.1454 34.1479 68.93 36.9169 69.7119 40.1656C69.8354 40.7413 69.8766 41.3171 69.8354 41.8791Z" fill="#F5C2A6"/>
<path d="M63.1962 47.8008C62.3046 48.4314 62.9356 47.9105 62.236 48.3903C62.8395 46.3752 62.867 45.6487 61.7147 43.5788C60.9603 42.2355 59.4513 41.1388 58.4088 39.9052C59.0673 40.2478 59.6983 41.0155 60.2607 41.509C61.2209 42.3314 61.8793 43.2498 62.5515 44.3328C63.2236 45.4431 63.3197 46.526 63.1962 47.8008Z" fill="#F5C2A6"/>
<path d="M60.974 52.1462C60.8642 52.4478 60.7545 52.7493 60.631 53.0509C60.3292 53.8048 59.9863 54.5451 59.6434 55.2579C59.1221 56.3682 58.5871 57.4785 57.8875 58.4792C57.819 58.5751 57.7504 58.6711 57.6818 58.7533C57.5309 58.959 57.3663 59.1646 57.188 59.3702C56.2826 60.4257 55.1852 61.303 53.9506 61.961C52.5926 62.6875 41.6735 69.8429 39.6022 70.7476C37.0919 71.8306 35.1578 69.6921 35.2949 69.3495C34.8286 69.747 34.4033 70.0897 33.9918 70.4187C31.8107 72.1458 30.3567 73.0094 28.4637 73.969C25.6104 75.422 23.155 73.873 23.786 72.8586L23.7723 72.8723C23.5254 73.1328 23.1962 73.3932 22.7984 73.6126C21.5089 74.3665 19.5611 74.8051 18.0384 73.7771C16.8039 72.9546 18.6146 69.7607 19.6708 68.7189C19.3004 68.8286 18.9301 68.9656 18.5734 69.1027C18.107 69.2809 17.6406 69.4317 17.1468 69.5139C16.2689 69.651 15.2538 69.4317 14.7874 68.6915C14.0192 67.4989 15.0892 66.0048 16.0768 64.9904C16.2552 64.8122 17.6132 63.8663 19.5199 62.4819C19.6159 62.4133 19.712 62.3448 19.808 62.2762C21.6598 60.9466 23.9781 59.2331 26.2826 57.4237C26.5021 57.2592 26.7078 57.081 26.9273 56.9165C29.369 54.9563 31.7284 52.9138 33.3882 51.1044C33.4157 51.0633 33.4568 51.0359 33.4842 50.9948C33.9095 50.515 34.2936 50.0626 34.6091 49.624C34.8286 49.3224 35.0206 49.0345 35.1715 48.7604C35.5144 48.171 35.6928 47.6364 35.6928 47.184C35.6928 47.1155 35.583 47.1017 35.4047 47.1292C35.1029 47.1566 34.5816 47.2937 33.9232 47.4856C31.1111 48.2943 25.8162 50.2408 24.1976 50.7206C22.5103 51.2141 20.5899 51.7076 19.0947 50.7617C18.1207 50.1449 17.3114 48.9386 17.7641 47.8831C17.9287 47.4993 18.2442 47.184 18.5597 46.9098C20 45.6624 21.6735 44.7988 23.4431 44.0997C23.4842 44.086 23.5391 44.0586 23.5803 44.0449C25.7202 43.2087 27.9973 42.5919 30.1646 41.7968C32.8258 40.8236 35.3773 39.5625 37.9973 38.5207C39.177 38.0546 40.3841 37.6434 41.6187 37.3967C43.6489 36.9991 45.7751 37.1225 47.7641 37.6982C49.8903 38.1506 52.1674 38.8223 53.594 39.4939C56.845 41.0292 60.4253 42.9483 61.4266 46.3889C61.989 48.2943 61.6461 50.2545 60.974 52.1462Z" fill="#FFD6BF"/>
<path d="M35.4321 46.8002C35.4321 46.9098 35.4321 47.0195 35.4184 47.1292C35.1166 47.1566 34.5953 47.2937 33.9369 47.4856C34.1701 47.0058 34.3484 46.5672 34.4582 46.2793C34.9794 44.9496 35.0617 43.6885 35.048 42.2492C35.3086 43.7708 35.4321 45.2649 35.4321 46.8002Z" fill="#F5C2A6"/>
<path d="M25.0069 49.624C24.6228 48.7193 24.5543 45.2238 23.4706 44.0998C23.5117 44.086 23.5666 44.0586 23.6078 44.0449C24.9932 44.9496 26.6942 47.7186 25.0069 49.624Z" fill="#F5C2A6"/>
<path d="M35.6928 55.4909C35.4596 56.2997 34.1153 57.177 33.4431 57.739C32.2771 58.7396 31.0014 59.5895 29.7806 60.5217C27.4075 62.3585 25.2538 64.4695 22.8533 66.2652C21.7147 67.1151 20.7271 67.7731 19.6846 68.7463C19.3142 68.856 18.9438 68.9931 18.5872 69.1301C20.0961 67.4441 22.4006 66.2378 24.0741 64.7848C26.7627 62.4682 29.9177 60.4942 32.4418 57.9857C33.3334 57.1084 34.4308 55.6554 35.6928 55.4909Z" fill="#F5C2A6"/>
<path d="M41.6735 56.8068C38.9575 59.0823 36.1317 61.207 33.4568 63.551C31.2757 65.4701 29.0946 67.4029 26.9547 69.3631C26.0082 70.2267 24.8697 71.3234 24.1289 72.3651C24.0192 72.5296 23.8957 72.7078 23.7723 72.8723C23.69 72.9546 23.6077 73.0368 23.5117 73.1191C23.3059 73.2973 23.8272 71.9128 27.2702 68.5818C30.1235 65.8128 32.9081 62.8794 35.9945 60.3434C37.5583 59.0549 39.6159 57.081 41.6735 56.8068Z" fill="#F5C2A6"/>
<path d="M45.048 59.3291C44.3073 60.6862 42.3457 61.9062 41.1935 62.9754C40.1921 63.9212 39.1221 64.7848 38.1345 65.758C36.9548 66.9369 36.0769 67.9787 35.2812 69.3632C35.2812 69.3632 35.4733 68.4036 36.022 67.5263C38.4637 63.647 43.155 61.2071 45.048 59.3291Z" fill="#F5C2A6"/>
<path d="M48.9301 43.0168C48.642 45.9914 47.2429 48.6644 44.568 50.186C43.3745 50.8577 41.9479 51.0085 40.6173 51.2963C38.6832 51.7076 35.4047 52.1599 33.6626 51.1867L33.402 51.1181C33.4294 51.077 33.4706 51.0496 33.498 51.0085C37.5172 51.5293 44.8149 51.2963 47.2154 46.2107C48.3128 43.8941 47.2703 40.618 47.5995 38.3151C48.8615 39.4939 49.0947 41.3582 48.9301 43.0168Z" fill="#F5C2A6"/>
<path d="M43.2373 44.511C42.4829 49.4869 35.4596 49.7611 35.0069 49.6651C34.8834 49.6377 34.76 49.6377 34.6228 49.6377C34.8423 49.3361 35.0343 49.0483 35.1852 48.7741C41.3992 48.8975 43.1139 45.0045 43.2373 44.511Z" fill="#F5C2A6"/>
<path d="M43.2373 44.4699C43.2373 44.4836 43.2373 44.4973 43.2236 44.511C43.2373 44.4973 43.2373 44.4836 43.2373 44.4699Z" fill="#F5C2A6"/>
<path d="M38.7655 53.4484C41.9479 53.4484 44.9795 53.4347 48.011 52.4478C51.4678 51.3237 54.8697 49.2676 58.6009 49.2538C55.4047 49.2813 52.0988 51.5705 49.1907 52.6808C47.188 53.4484 45.1852 53.8048 43.0453 54.0927C41.0426 54.3668 38.6283 53.7226 36.7079 54.312L38.7655 53.4484Z" fill="#F5C2A6"/>
<path d="M44.2524 55.4223C45.9671 55.5457 47.9836 54.1064 49.6708 53.7363C51.8107 53.2565 54.1016 53.2017 56.2003 52.6808C55.3773 52.6945 54.4033 53.1606 53.6489 53.4484C52.3183 53.9556 51.0563 54.2435 49.6434 54.4765C47.8053 54.7781 45.4459 54.7781 44.2524 55.4223Z" fill="#F5C2A6"/>
<path d="M44.9795 59.3839C46.2964 58.4517 49.5748 58.5751 50.782 60.0693C50.8231 60.0967 50.8231 60.0967 50.782 60.0693C49.8629 59.7814 48.258 59.3702 47.2977 59.329C46.6393 59.3016 45.9671 59.1783 44.9795 59.3839Z" fill="#F5C2A6"/>
<path d="M38.5049 64.9492C39.6297 64.634 40.9328 64.5517 42.1125 64.6614C43.2099 64.771 43.7998 65.3056 44.7188 65.8265C43.7175 65.196 42.0028 65.2508 40.8368 65.0452C40.3156 64.9492 39.7531 64.771 39.2456 64.7573C38.6695 64.7573 38.1482 65.0589 38.5049 64.9492Z" fill="#F5C2A6"/>
<path d="M29.1495 66.978C29.4788 66.3063 32.6475 67.9376 32.9904 68.7463C32.5377 68.1021 31.4815 68.3214 30.8093 67.9924C30.0549 67.6223 29.7943 67.1562 29.1495 66.978Z" fill="#F5C2A6"/>
<path d="M35.0754 61.9884C35.1029 61.9061 35.0617 61.8102 35.0891 61.7279C36.3512 61.632 38.0384 62.29 39.0261 63.0987C38.3539 63.1398 35.0206 62.2351 34.5267 62.1666C34.5405 62.0432 34.609 61.961 35.0754 61.9884Z" fill="#F5C2A6"/>
<path d="M40.535 57.177C41.6461 57.2318 42.6338 56.9713 43.7723 57.314C44.4856 57.5334 45.1029 57.8898 45.7888 58.1913C43.4431 58.2462 41.166 57.8486 40.535 57.177Z" fill="#F5C2A6"/>
<path d="M21.6598 66.7998C22.9629 66.2789 25.2538 67.2659 26.4472 67.9787C25.5967 68.102 21.9341 67.54 21.6598 66.7998Z" fill="#F5C2A6"/>
<path d="M29.2455 60.8781C30.5212 60.8781 32.6337 60.8644 33.5665 61.9061C32.0438 61.2756 30.5212 61.5086 29.2455 60.8781Z" fill="#F5C2A6"/>
<path d="M35.3772 55.8885C36.2551 55.1619 38.9712 55.6828 40 56.19C37.6543 55.6965 36.8038 55.6006 35.3772 55.8885Z" fill="#F5C2A6"/>
<path d="M22.1947 65.2097C21.8244 64.7847 21.7009 64.2227 21.2071 63.7155C20.8504 63.3591 20.1783 62.7971 19.5336 62.4955C19.6296 62.427 19.7256 62.3585 19.8216 62.2899C21.1522 62.6052 22.3045 63.976 22.1947 65.2097Z" fill="#F5C2A6"/>
<path d="M28.9574 59.658C28.107 59.329 27.3388 57.7526 26.2963 57.4374C26.5157 57.2729 26.7215 57.0947 26.941 56.9302C28.0384 57.3688 29.1221 58.7396 28.9574 59.658Z" fill="#F5C2A6"/>
<path d="M57.6818 58.7534C57.5309 58.959 57.3663 59.1646 57.1879 59.3702C57.1879 59.2743 57.1879 59.1783 57.1879 59.0824C57.1879 58.5066 57.0233 58.0543 56.749 57.5608C56.4609 57.0536 56.1454 56.6013 55.6516 56.2586C55.4595 56.1215 55.2949 56.0118 55.144 55.8336C55.4184 56.0941 55.8436 56.2311 56.1454 56.4916C56.4746 56.7795 56.7353 57.177 56.9685 57.5334C57.2428 57.9446 57.5034 58.2873 57.6818 58.7534Z" fill="#F5C2A6"/>
<path d="M60.974 52.1462C60.8643 52.4478 60.7546 52.7493 60.6311 53.0509C60.4528 52.859 60.2745 52.6808 60.1236 52.5163C59.6023 51.9406 58.9027 51.5431 58.4226 50.9399C59.2731 50.5561 60.4528 51.5431 60.974 52.1462Z" fill="#F5C2A6"/>
<path d="M35.3224 55.6828C35.5007 55.4086 35.2263 54.9426 35.0892 54.7095C34.7599 54.1475 34.225 53.6951 33.6763 53.3387C33.2922 53.092 32.7572 52.9549 32.2908 52.9823C32.1536 52.996 31.9204 53.0235 31.8381 53.1057C32.332 53.1605 32.7572 53.4895 33.1824 53.7363C33.5117 53.9282 33.786 54.1201 34.0604 54.3942C34.2661 54.5999 34.5405 54.7232 34.7188 54.97C34.8971 55.2167 35.0069 55.5046 35.1303 55.7787C35.144 55.8061 35.1715 55.9295 35.1989 55.9432C35.3086 56.0118 35.5693 55.7924 35.5967 55.7102C35.5556 55.6965 35.5007 55.6828 35.3224 55.6828Z" fill="#F5C2A6"/>
<path d="M51.6505 56.7073L51.5589 53.911L50.6213 53.9224C50.0203 53.067 49.0885 52.224 47.9071 51.5683C43.046 48.6539 35.3259 48.5631 30.647 51.3837C29.4844 52.0678 28.6517 52.8819 28.0947 53.7094L27.1571 53.7208L27.2488 56.5171C27.3189 58.4007 28.5198 60.2538 30.964 61.7402C35.8251 64.6546 43.5452 64.7453 48.2241 61.9247C50.5776 60.4724 51.7206 58.5909 51.6505 56.7073Z" fill="#755930"/>
<path fill-rule="evenodd" clip-rule="evenodd" d="M51.629 56.8783L51.5452 54.087L50.6046 54.1011C50.0042 53.2489 49.0718 52.41 47.8886 51.7589C43.0203 48.8636 35.2755 48.7956 30.5734 51.6251C29.4049 52.3114 28.5672 53.1266 28.006 53.9544L27.0654 53.9685L27.1491 56.7598C27.214 58.64 28.4133 60.4865 30.861 61.9632C35.7293 64.8585 43.4741 64.9265 48.1762 62.097C50.5416 60.6403 51.6938 58.7585 51.629 56.8783Z" fill="url(#paint2_linear)"/>
<path d="M39.1924 46.6457C45.9814 46.6968 51.5572 49.9433 51.6464 53.8969C51.7356 57.8506 46.3043 61.0143 39.5153 60.9632C32.7263 60.9121 27.1504 57.6656 27.0612 53.712C26.9721 49.7583 32.4033 46.5946 39.1924 46.6457Z" fill="#BCD5FF"/>
<path d="M39.1924 46.6457C45.9814 46.6968 51.5572 49.9433 51.6464 53.8969C51.7356 57.8506 46.3043 61.0143 39.5153 60.9632C32.7263 60.9121 27.1504 57.6656 27.0612 53.712C26.9721 49.7583 32.4033 46.5946 39.1924 46.6457Z" fill="url(#paint3_linear)"/>
<path fill-rule="evenodd" clip-rule="evenodd" d="M39.5337 60.0394C45.2411 60.0944 49.8846 57.4632 49.7981 53.9708C49.7121 50.5016 44.9632 47.7951 39.2674 47.7401C33.56 47.6851 28.9165 50.3163 29.003 53.8087C29.089 57.2779 33.8379 59.9844 39.5337 60.0394ZM39.5445 58.9251C34.3708 58.8752 30.1841 56.4891 30.117 53.7811C30.0505 51.0961 34.0945 48.8046 39.2566 48.8544C44.4303 48.9042 48.617 51.2904 48.6841 53.9984C48.7507 56.6834 44.7066 58.9749 39.5445 58.9251Z" fill="white" fill-opacity="0.5"/>
<path d="M35.4106 53.877L43.3464 53.9762L43.3293 52.5829L35.3935 52.4836L35.4106 53.877Z" fill="white"/>
<path d="M48.1724 58.9838C43.4813 61.7378 35.7845 61.645 30.9642 58.7947C27.9792 57.0005 26.8121 54.6417 27.4314 52.3704C26.7018 54.6931 27.868 57.1939 30.9353 59.0207C35.7826 61.9291 43.4795 62.0218 48.1435 59.2098C49.9371 58.161 51.0454 56.7945 51.3845 55.3619C50.936 56.7039 49.8557 57.9865 48.1724 58.9838Z" fill="white"/>
<path d="M47.6689 52.732L47.5773 49.9358L46.6397 49.9471C46.0388 49.0917 45.1069 48.2487 43.9256 47.593C39.0644 44.6787 31.3443 44.5879 26.6655 47.4085C25.5028 48.0926 24.6702 48.9067 24.1131 49.7342L23.1756 49.7456L23.2672 52.5419C23.3373 54.4255 24.5382 56.2786 26.9824 57.765C31.8435 60.6793 39.5637 60.7701 44.2425 57.9495C46.596 56.4972 47.7391 54.6157 47.6689 52.732Z" fill="#755930"/>
<path fill-rule="evenodd" clip-rule="evenodd" d="M47.6474 52.903L47.5636 50.1117L46.623 50.1258C46.0226 49.2736 45.0902 48.4348 43.907 47.7836C39.0387 44.8883 31.294 44.8203 26.5918 47.6498C25.4234 48.3362 24.5857 49.1513 24.0244 49.9791L23.0838 49.9932L23.1675 52.7845C23.2324 54.6647 24.4318 56.5113 26.8795 57.9879C31.7478 60.8832 39.4925 60.9512 44.1947 58.1217C46.56 56.665 47.7123 54.7833 47.6474 52.903Z" fill="url(#paint4_linear)"/>
<path d="M35.2108 42.6704C41.9998 42.7215 47.5757 45.968 47.6648 49.9217C47.754 53.8753 42.3227 57.039 35.5337 56.9879C28.7447 56.9369 23.1689 53.6904 23.0797 49.7367C22.9905 45.783 28.4218 42.6193 35.2108 42.6704Z" fill="#BCD5FF"/>
<path d="M35.2108 42.6704C41.9998 42.7215 47.5757 45.968 47.6648 49.9217C47.754 53.8753 42.3227 57.039 35.5337 56.9879C28.7447 56.9369 23.1689 53.6904 23.0797 49.7367C22.9905 45.783 28.4218 42.6193 35.2108 42.6704Z" fill="url(#paint5_linear)"/>
<path fill-rule="evenodd" clip-rule="evenodd" d="M35.5522 56.0641C41.2596 56.1191 45.903 53.4879 45.8165 49.9955C45.7306 46.5263 40.9817 43.8198 35.2858 43.7649C29.5784 43.7098 24.9349 46.341 25.0215 49.8334C25.1074 53.3026 29.8563 56.0092 35.5522 56.0641ZM35.5629 54.9498C30.3892 54.9 26.2025 52.5138 26.1354 49.8058C26.0689 47.1208 30.1129 44.8293 35.2751 44.8791C40.4487 44.929 44.6355 47.3151 44.7026 50.0231C44.7691 52.7081 40.7251 54.9996 35.5629 54.9498Z" fill="white" fill-opacity="0.5"/>
<path d="M31.429 49.9017L39.3648 50.001L39.3477 48.6076L31.4119 48.5084L31.429 49.9017Z" fill="white"/>
<path d="M44.1908 55.0086C39.4998 57.7625 31.8029 57.6697 26.9827 54.8195C23.9976 53.0252 22.8305 50.6664 23.4498 48.3951C22.7202 50.7178 23.8864 53.2187 26.9537 55.0454C31.8011 57.9538 39.498 58.0465 44.1619 55.2345C45.9555 54.1857 47.0638 52.8192 47.4029 51.3866C46.9545 52.7286 45.8741 54.0112 44.1908 55.0086Z" fill="white"/>
<path d="M52.0595 46.6013L51.9573 43.4889L50.9121 43.5015C50.2421 42.5494 49.2032 41.6111 47.8862 40.8812C42.4668 37.6373 33.8602 37.5363 28.644 40.6758C27.3478 41.4373 26.4195 42.3434 25.7986 43.2645L24.7533 43.2772L24.8555 46.3896C24.9337 48.4862 26.2725 50.5489 28.9973 52.2033C34.4167 55.4472 43.0234 55.5482 48.2396 52.4087C50.8633 50.7922 52.1377 48.6979 52.0595 46.6013Z" fill="#755930"/>
<path fill-rule="evenodd" clip-rule="evenodd" d="M52.0354 46.7916L51.942 43.6847L50.8933 43.7004C50.224 42.7518 49.1845 41.8181 47.8654 41.0933C42.438 37.8707 33.8039 37.795 28.5617 40.9444C27.2591 41.7084 26.3252 42.6157 25.6995 43.5371L24.6509 43.5528L24.7442 46.6597C24.8166 48.7525 26.1536 50.8078 28.8824 52.4515C34.3098 55.6741 42.944 55.7498 48.1861 52.6004C50.8231 50.979 52.1077 48.8845 52.0354 46.7916Z" fill="url(#paint6_linear)"/>
<path d="M38.1706 35.4021C45.7392 35.4589 51.9554 39.0725 52.0548 43.4732C52.1543 47.8739 46.0992 51.3953 38.5306 51.3385C30.9619 51.2816 24.7457 47.6681 24.6463 43.2673C24.5469 38.8666 30.6019 35.3452 38.1706 35.4021Z" fill="#BCD5FF"/>
<path d="M38.1706 35.4021C45.7392 35.4589 51.9554 39.0725 52.0548 43.4732C52.1543 47.8739 46.0992 51.3953 38.5306 51.3385C30.9619 51.2816 24.7457 47.6681 24.6463 43.2673C24.5469 38.8666 30.6019 35.3452 38.1706 35.4021Z" fill="url(#paint7_linear)"/>
<path fill-rule="evenodd" clip-rule="evenodd" d="M38.5538 50.3116C44.9162 50.3754 50.0913 47.4481 49.9934 43.56C49.896 39.6976 44.601 36.6823 38.2515 36.6187C31.8892 36.555 26.714 39.4823 26.812 43.3704C26.9093 47.2328 32.2043 50.248 38.5538 50.3116ZM38.5653 49.0712C32.7979 49.0134 28.1296 46.3551 28.0537 43.3402C27.9783 40.3509 32.4854 37.8015 38.24 37.8591C44.0075 37.9169 48.6757 40.5753 48.7517 43.5902C48.827 46.5794 44.3199 49.1289 38.5653 49.0712Z" fill="white" fill-opacity="0.5"/>
<path d="M33.9545 43.4511L42.8016 43.5615L42.7826 42.0106L33.9355 41.9001L33.9545 43.4511Z" fill="white"/>
<path d="M48.1818 49.1353C42.9521 52.2006 34.3713 52.0973 28.9975 48.9248C25.6696 46.9277 24.3686 44.3021 25.059 41.774C24.2456 44.3594 25.5457 47.143 28.9653 49.1763C34.3693 52.4135 42.9501 52.5168 48.1496 49.3867C50.1492 48.2194 51.3848 46.6984 51.7628 45.1038C51.2629 46.5975 50.0585 48.0252 48.1818 49.1353Z" fill="white"/>
<g opacity="0.1">
<path fill-rule="evenodd" clip-rule="evenodd" d="M16.4884 13.5451L12.3046 19.6862L19.1084 19.4806L16.4884 13.5451ZM13.155 19.2201L16.4061 14.4498L18.4362 19.0693L13.155 19.2201Z" fill="#F77723"/>
</g>
<g opacity="0.1">
<path fill-rule="evenodd" clip-rule="evenodd" d="M71.9617 42.2766L67.7778 48.4177L74.5817 48.2121L71.9617 42.2766ZM68.6283 47.9516L71.8793 43.1813L73.9095 47.8008L68.6283 47.9516Z" fill="#F9408F"/>
</g>
<path opacity="0.1" d="M33.1277 32.6674L32.9082 37.6296L37.3252 33.8326L33.1277 32.6674Z" fill="#F9408F"/>
<path opacity="0.1" d="M33.7587 18.0139L29.1908 19.9878L34.5406 22.2907L33.7587 18.0139Z" fill="#F77723"/>
<g opacity="0.1">
<path fill-rule="evenodd" clip-rule="evenodd" d="M1.44043 38.2191L7.6407 40.8921L6.73535 35.9436L1.44043 38.2191ZM7.05083 40.1656L2.55152 38.2328L6.3924 36.5742L7.05083 40.1656Z" fill="#F77723"/>
</g>
<g opacity="0.1">
<path d="M8.93012 27.1981L7.39376 28.0754L2.66125 22.8664L4.19761 21.9754L8.93012 27.1981Z" fill="#F77723"/>
</g>
<g opacity="0.1">
<path fill-rule="evenodd" clip-rule="evenodd" d="M30.8231 79.1779L34.7463 83.4958L36.3101 82.5911L32.3869 78.2732L30.8231 79.1779ZM34.8286 82.9338L31.509 79.2876L32.2909 78.8352L35.6105 82.4815L34.8286 82.9338Z" fill="#F9408F"/>
</g>
<g opacity="0.1">
<path d="M9.35532 55.6828L7.81897 56.5738L10.3567 51.2415L11.893 50.3505L9.35532 55.6828Z" fill="#F9408F"/>
</g>
<g opacity="0.1">
<path d="M81.2758 61.207L78.6969 62.6874V59.7128L81.2758 58.2187V61.207Z" fill="#F9408F"/>
</g>
<g opacity="0.1">
<path d="M22.6613 28.9526L25.2401 30.4468V27.4722L22.6613 25.978V28.9526Z" fill="#F77723"/>
</g>
<path opacity="0.1" d="M70.6585 82.0154L66.0906 83.9893L71.4541 86.2922L70.6585 82.0154Z" fill="#F9408F"/>
<g opacity="0.1">
<path d="M59.5612 92.9542L62.1538 94.4483V91.4601L59.5612 89.9796V92.9542Z" fill="#F9408F"/>
</g>
<path fill-rule="evenodd" clip-rule="evenodd" d="M73.7174 9.88517C73.5528 9.80292 73.4156 9.73439 73.3059 9.70697V12.5445L73.594 12.709V11.5301C73.6077 11.5392 73.6199 11.5484 73.6321 11.5575C73.6565 11.5758 73.6809 11.5941 73.7174 11.6123C73.9369 11.7357 74.1701 11.7631 74.3073 11.6261C74.4033 11.5301 74.4582 11.3793 74.4582 11.1189C74.4582 10.8721 74.3896 10.6254 74.2661 10.4198C74.1427 10.1867 73.9506 10.0222 73.7174 9.88517ZM73.69 11.3382C73.6488 11.3108 73.6077 11.2834 73.5802 11.2559H73.5665V10.1182C73.6077 10.1182 73.6625 10.1456 73.7311 10.1867C74.0466 10.3787 74.1564 10.6939 74.1564 10.9955C74.1564 11.393 73.978 11.5027 73.69 11.3382L73.69 11.3382Z" fill="white"/>
<path fill-rule="evenodd" clip-rule="evenodd" d="M74.7051 13.3532L74.8697 12.5856L75.4322 12.9009L75.5968 13.8604L75.8848 14.0249L75.3224 10.8173L75.0069 10.6391L74.4308 13.1887L74.7051 13.3532ZM75.2538 11.818L75.3773 12.6267L74.9246 12.3526L75.0481 11.6946C75.0583 11.6281 75.0705 11.5558 75.0831 11.4806C75.1043 11.3545 75.1269 11.2203 75.1441 11.0915L75.1578 11.1052C75.1604 11.1273 75.163 11.1495 75.1656 11.1718C75.1906 11.3849 75.2166 11.607 75.2538 11.818Z" fill="white"/>
<path d="M76.3512 14.3128V13.0928L75.8025 11.1189L76.1043 11.2971L76.3238 12.147C76.3923 12.38 76.4472 12.6542 76.5158 12.9009H76.5295C76.5844 12.709 76.6393 12.5308 76.7078 12.3389L76.9136 11.7495L77.2154 11.9277L76.6393 13.2436V14.4773L76.3512 14.3128Z" fill="white"/>
<path d="M78.9164 14.5458C78.9027 14.1483 78.8752 13.7233 78.8889 13.408L78.8752 13.3943C78.8203 13.6822 78.7518 13.9838 78.6695 14.2853L78.3677 15.4642L78.1893 15.3546L77.9013 13.8878C77.819 13.4766 77.7504 13.0791 77.6955 12.709H77.6818C77.6818 13.0516 77.6681 13.4355 77.6544 13.8467L77.5995 15.0393L77.3389 14.8885L77.4898 12.0921L77.7915 12.2703L78.0796 13.7507C78.1619 14.1757 78.2305 14.5047 78.2854 14.8611H78.2991C78.354 14.5595 78.4088 14.3128 78.4911 13.9701L78.7792 12.8186L79.0947 12.9968L79.2456 15.9577L78.985 15.8069L78.9164 14.5458Z" fill="white"/>
<path d="M80.535 15.3546L79.904 14.9982V16.0811L80.6173 16.4923V16.7802L79.616 16.2044V13.3258L80.5625 13.8741V14.162L79.8903 13.7782V14.724L80.5213 15.0804V15.3546H80.535Z" fill="white"/>
<path d="M80.9329 16.9584V14.0798L81.2072 14.2306L81.6599 15.8481C81.7696 16.2182 81.8931 16.6705 81.9754 17.0407H81.9891C81.9617 16.5746 81.9617 16.1908 81.9617 15.6973V14.6692L82.2223 14.82V17.6986L81.9479 17.5478L81.4678 15.8892C81.3718 15.5465 81.2621 15.149 81.1661 14.7377H81.1523C81.1798 15.1353 81.1798 15.5054 81.1798 16.1222V17.1229L80.9329 16.9584Z" fill="white"/>
<path d="M82.9493 15.5328L82.4966 15.2723V14.9708L83.69 15.6562V15.9577L83.2373 15.6973V18.288L82.9493 18.1235V15.5328Z" fill="white"/>
<path d="M85.7888 19.6862C85.6791 19.6725 85.5008 19.6177 85.3499 19.5217C85.1304 19.3984 84.9246 19.2065 84.76 18.9049C84.5817 18.5759 84.4583 18.1098 84.4583 17.5889C84.4583 16.4649 84.9521 16.3689 85.4048 16.6294C85.5556 16.7253 85.6791 16.8213 85.7614 16.9173L85.6928 17.164C85.6242 17.0817 85.5419 16.9995 85.4048 16.931C85.0893 16.7528 84.76 16.8487 84.76 17.7397C84.76 18.6307 85.0481 19.0831 85.3499 19.2613C85.4459 19.3161 85.5008 19.3298 85.5282 19.3298V18.384L85.2127 18.1921V17.9179L85.8026 18.2606V19.6862H85.7888Z" fill="white"/>
<path d="M86.4472 17.26V19.1927C86.4472 19.7136 86.5981 19.9741 86.7901 20.0838C86.9959 20.2071 87.1331 20.0975 87.1331 19.5903V17.6575L87.4211 17.822V19.6999C87.4211 20.4539 87.1605 20.5772 86.7901 20.3716C86.4198 20.1523 86.1729 19.7273 86.1729 19.0145V17.0955L86.4472 17.26Z" fill="white"/>
<path fill-rule="evenodd" clip-rule="evenodd" d="M87.9561 21.0022L88.1207 20.2345L88.6831 20.5498L88.8477 21.5094L89.1358 21.6738L88.5734 18.4662L88.2579 18.288L87.6818 20.8377L87.9561 21.0022ZM88.5048 19.4532L88.6283 20.2619L88.1756 19.9878L88.299 19.3298C88.3093 19.2633 88.3214 19.191 88.3341 19.1158C88.3553 18.9897 88.3779 18.8555 88.3951 18.7267L88.4088 18.7404C88.4114 18.7625 88.414 18.7847 88.4166 18.807C88.4415 19.0201 88.4675 19.2422 88.5048 19.4532Z" fill="white"/>
<path fill-rule="evenodd" clip-rule="evenodd" d="M89.8491 19.1927C89.7119 19.1105 89.561 19.0419 89.4375 19.0145H89.4238V21.8657L89.7119 22.0302V20.7691L89.8354 20.8102C90.0823 20.961 90.192 21.1666 90.2469 21.5916C90.2506 21.6176 90.2542 21.6432 90.2578 21.6684C90.3073 22.0154 90.3457 22.2844 90.3841 22.3866L90.6721 22.5511C90.6447 22.4415 90.5898 22.1673 90.5349 21.7424C90.4801 21.3448 90.3841 21.0707 90.192 20.9062V20.8925C90.4389 20.9062 90.5898 20.7554 90.5898 20.3853C90.5898 20.166 90.5349 19.9467 90.4115 19.7273C90.288 19.508 90.096 19.3298 89.8491 19.1927ZM89.8353 20.5772L89.7119 20.5087V19.3983C89.753 19.4121 89.8079 19.4395 89.8628 19.4669L89.8628 19.4669C90.1646 19.6588 90.288 19.9329 90.288 20.2619C90.288 20.6046 90.1097 20.7417 89.8353 20.5772Z" fill="white"/>
<path fill-rule="evenodd" clip-rule="evenodd" d="M91.1111 22.8253L91.2757 22.0576L91.8382 22.3729L92.0028 23.3325L92.2908 23.497L91.7284 20.2893L91.4129 20.1111L90.8368 22.6608L91.1111 22.8253ZM91.6598 21.2763L91.7833 22.0851L91.3306 21.8109L91.4541 21.1529C91.4643 21.0864 91.4765 21.0141 91.4891 20.939C91.5103 20.8129 91.5329 20.6786 91.5501 20.5498L91.5638 20.5635C91.5664 20.5856 91.569 20.6078 91.5716 20.6301C91.5966 20.8432 91.6226 21.0654 91.6598 21.2763Z" fill="white"/>
<path d="M92.5789 23.6752V20.7966L92.8532 20.9474L93.3059 22.5649C93.4156 22.935 93.5391 23.3873 93.6214 23.7574H93.6351C93.6077 23.2914 93.6077 22.9076 93.6077 22.4141V21.386L93.8683 21.5368V24.4154L93.594 24.2646L93.1138 22.606C93.0178 22.2633 92.9081 21.8658 92.8121 21.4545H92.7983C92.8258 21.8521 92.8258 22.2222 92.8258 22.839V23.8397L92.5789 23.6752Z" fill="white"/>
<path d="M94.5954 22.2496L94.1427 21.9891V21.6876L95.3361 22.3729V22.6745L94.8834 22.4141V25.0048L94.5954 24.8403V22.2496Z" fill="white"/>
<path d="M96.5295 24.5799L95.8985 24.2235V25.3064L96.6118 25.7176V26.0055L95.6105 25.4298V22.5511L96.557 23.0995V23.3873L95.8848 23.0035V23.9493L96.5158 24.3057V24.5799H96.5295Z" fill="white"/>
<path d="M97.8463 25.3338L97.2153 24.9774V26.0603L97.9286 26.4715V26.7594L96.9272 26.1837V23.3051L97.8738 23.8534V24.1412L97.2016 23.7574V24.7032L97.8326 25.0596V25.3338H97.8463Z" fill="white"/>
<defs>
<linearGradient id="paint0_linear" x1="-44.6168" y1="52.3719" x2="-12.0385" y2="129.356" gradientUnits="userSpaceOnUse">
<stop stop-color="#FAD961"/>
<stop offset="1" stop-color="#F76B1C"/>
</linearGradient>
<linearGradient id="paint1_linear" x1="-44.6168" y1="55.6754" x2="-12.0385" y2="132.66" gradientUnits="userSpaceOnUse">
<stop stop-color="#FAD961"/>
<stop offset="1" stop-color="#F76B1C"/>
</linearGradient>
<linearGradient id="paint2_linear" x1="45.8522" y1="83.1147" x2="62.4869" y2="42.29" gradientUnits="userSpaceOnUse">
<stop stop-color="#C18A51"/>
<stop offset="1" stop-color="#EAA341"/>
</linearGradient>
<linearGradient id="paint3_linear" x1="28.8438" y1="71.2656" x2="60.2784" y2="71.5474" gradientUnits="userSpaceOnUse">
<stop stop-color="#FFF0B8"/>
<stop offset="1" stop-color="#FFBE68"/>
</linearGradient>
<linearGradient id="paint4_linear" x1="41.8706" y1="79.1394" x2="58.5053" y2="38.3148" gradientUnits="userSpaceOnUse">
<stop stop-color="#C18A51"/>
<stop offset="1" stop-color="#EAA341"/>
</linearGradient>
<linearGradient id="paint5_linear" x1="24.8622" y1="67.2903" x2="56.2969" y2="67.5722" gradientUnits="userSpaceOnUse">
<stop stop-color="#FFF0B8"/>
<stop offset="1" stop-color="#FFBE68"/>
</linearGradient>
<linearGradient id="paint6_linear" x1="45.5951" y1="75.9946" x2="64.0898" y2="30.5333" gradientUnits="userSpaceOnUse">
<stop stop-color="#C18A51"/>
<stop offset="1" stop-color="#EAA341"/>
</linearGradient>
<linearGradient id="paint7_linear" x1="26.6335" y1="62.8058" x2="61.6781" y2="63.1205" gradientUnits="userSpaceOnUse">
<stop stop-color="#FFF0B8"/>
<stop offset="1" stop-color="#FFBE68"/>
</linearGradient>
</defs>
</svg>
