<svg width="100" height="117" viewBox="0 0 100 117" fill="none" xmlns="http://www.w3.org/2000/svg">
<path opacity="0.3" d="M47.155 105.767C72.944 105.767 93.8501 93.8141 93.8501 79.0697C93.8501 64.3253 72.944 52.3726 47.155 52.3726C21.3661 52.3726 0.459961 64.3253 0.459961 79.0697C0.459961 93.8141 21.3661 105.767 47.155 105.767Z" fill="url(#paint0_linear)"/>
<path opacity="0.3" d="M47.155 109.359C72.944 109.359 93.8501 97.4067 93.8501 82.6623C93.8501 67.9179 72.944 55.9651 47.155 55.9651C21.3661 55.9651 0.459961 67.9179 0.459961 82.6623C0.459961 97.4067 21.3661 109.359 47.155 109.359Z" fill="url(#paint1_linear)"/>
<path opacity="0.2" d="M88.654 81.7428C88.654 81.7599 88.654 81.7599 88.654 81.7428C88.654 81.3002 88.3644 80.8575 87.7852 80.517L83.1344 77.8438L49.6762 58.6042L46.0987 56.544L43.9351 55.3011C42.7597 54.6201 40.8346 54.6201 39.6591 55.3011L16.9164 68.2921C16.3201 68.6327 16.0305 69.0924 16.0305 69.535C16.0305 69.535 16.0305 69.535 16.0305 69.518L16.0476 73.0935C16.0476 73.5362 16.3372 73.9789 16.9164 74.3194L60.7835 99.5523C61.959 100.233 63.884 100.233 65.0595 99.5523L87.8022 86.5613C88.3985 86.2207 88.6881 85.7781 88.6881 85.3184L88.654 81.7428Z" fill="#1C4B5F"/>
<path d="M16.2861 68.173L16.3032 71.6804C16.3032 72.106 16.5928 72.5487 17.155 72.8722L17.1379 69.3648C16.5757 69.0413 16.3032 68.5986 16.2861 68.173Z" fill="#CDD1F6"/>
<path d="M16.2861 68.173L16.3032 71.6804C16.3032 72.106 16.5928 72.5487 17.155 72.8722L17.1379 69.3648C16.5757 69.0413 16.3032 68.5986 16.2861 68.173Z" fill="#CDD1F6"/>
<path d="M87.7511 83.6838L87.7341 80.1765C87.7341 80.6191 87.4445 81.0618 86.8652 81.3853L86.8823 84.8927C87.4615 84.5692 87.7511 84.1265 87.7511 83.6838Z" fill="#CDD1F6"/>
<path d="M86.8652 81.3853L86.8823 84.8927C87.4615 84.5522 87.7511 84.1265 87.7511 83.6838L87.7341 80.1765C87.7341 80.6191 87.4445 81.0618 86.8652 81.3853Z" fill="#CDD1F6"/>
<path d="M17.155 69.3648V72.8722L60.3066 97.6794L60.2896 94.172L17.155 69.3648Z" fill="#CDD1F6"/>
<path d="M64.4973 94.172V97.6794L86.8653 84.9097V81.3853L64.4973 94.172Z" fill="#CDD1F6"/>
<path d="M60.2896 94.172L60.3066 97.6794C61.465 98.3434 63.356 98.3434 64.5144 97.6794L64.4974 94.172C63.3389 94.836 61.448 94.836 60.2896 94.172Z" fill="#CDD1F6"/>
<path d="M60.2896 94.172L60.3066 97.6794C61.465 98.3434 63.356 98.3434 64.5144 97.6794L64.4974 94.172C63.3389 94.836 61.448 94.836 60.2896 94.172Z" fill="#CDD1F6"/>
<path d="M45.8773 55.4033L19.2844 70.5906L55.7069 91.5329L82.2998 76.3455L45.8773 55.4033Z" fill="#119CED"/>
<path d="M43.7307 54.1774C42.5723 53.5134 40.6813 53.5134 39.5229 54.1774L17.1549 66.9641C15.9965 67.6281 15.9965 68.7178 17.1379 69.3818L19.2673 70.6077L45.8431 55.4203L43.7307 54.1774Z" fill="#F5F5FD"/>
<path d="M86.8823 78.9846L82.2997 76.3455L55.7239 91.5329L60.3065 94.172C61.4649 94.836 63.3559 94.836 64.5143 94.172L86.8823 81.3853C88.0237 80.7213 88.0237 79.6486 86.8823 78.9846Z" fill="#F5F5FD"/>
<path d="M75.0937 86.2207L72.1295 88.0596C71.3288 88.5704 70 88.6214 69.1652 88.1788C68.3305 87.7361 68.3134 86.9699 69.1141 86.4761L72.0784 84.6203C72.879 84.1095 74.2078 84.0584 75.0426 84.5181C75.8773 84.9438 75.8944 85.71 75.0937 86.2207Z" fill="url(#paint2_linear)"/>
<path d="M82.1462 86.9359L84.4801 85.4886V83.8541L82.1462 85.3014V86.9359Z" fill="#F5F5FD"/>
<path d="M84.0202 85.2162L82.2485 86.3399V86.7656L84.395 85.4375L84.0202 85.2162Z" fill="#5C697C"/>
<path d="M82.2485 85.3524V86.34L84.0202 85.2162V84.2457L83.918 84.2968L82.2485 85.3524Z" fill="#1B1B1B"/>
<path d="M82.2485 85.5057V86.2038L83.918 85.1311V84.433L82.2485 85.5057Z" fill="#1B1823"/>
<path d="M84.395 84.9949V84.0244L84.0203 84.2458V85.2163L84.395 85.4376V84.9949Z" fill="#404040"/>
<path d="M86.5245 83.4625C86.5245 83.9562 86.2178 84.5522 85.8431 84.7565C85.4683 84.9778 85.1616 84.7394 85.1616 84.2457C85.1616 83.7519 85.4683 83.156 85.8431 82.9517C86.2178 82.7303 86.5245 82.9687 86.5245 83.4625Z" fill="#1B1B1B"/>
<path d="M85.2298 84.3989C85.6046 84.1776 85.9112 83.5987 85.9112 83.1049C85.9112 83.0368 85.9112 82.9858 85.8942 82.9347C86.2349 82.7814 86.5245 83.0028 86.5245 83.4795C86.5245 83.9733 86.2179 84.5692 85.8431 84.7735C85.5024 84.9608 85.2298 84.8076 85.1787 84.433C85.1787 84.416 85.1957 84.3989 85.2298 84.3989Z" fill="#5C697C"/>
<path d="M85.6386 84.6543C86.0134 84.433 86.32 83.8541 86.32 83.3603C86.32 83.139 86.2519 82.9858 86.1667 82.8836C86.3711 82.9177 86.5074 83.139 86.5074 83.4625C86.5074 83.9563 86.2008 84.5522 85.826 84.7565C85.6045 84.8757 85.4171 84.8587 85.2979 84.7224C85.4001 84.7395 85.5193 84.7224 85.6386 84.6543Z" fill="#CDD1F6"/>
<path d="M26.9333 63.8142C26.9674 63.8994 27.0526 63.9675 27.1718 64.0356C27.5466 64.2399 28.1599 64.2229 28.5177 63.9845L34.1565 60.4771C34.2587 60.409 34.3269 60.3409 34.3609 60.2557C34.4802 60.0514 34.395 59.8301 34.1224 59.6768C33.7476 59.4725 33.1514 59.4896 32.7766 59.7279L27.1548 63.2353C26.8822 63.4056 26.8141 63.6269 26.9333 63.8142Z" fill="#CDD1F6"/>
<path d="M26.9333 63.8142C26.9674 63.8993 27.0526 63.9674 27.1719 64.0356C27.5466 64.2399 28.1599 64.2228 28.5177 63.9845L34.1565 60.4771C34.2587 60.409 34.3269 60.3409 34.361 60.2557C34.3269 60.1706 34.2417 60.0855 34.1224 60.0344C33.7477 59.8301 33.1514 59.8471 32.7766 60.0855L27.1548 63.5929C27.0356 63.661 26.9674 63.7291 26.9333 63.8142Z" fill="#21212B"/>
<path d="M18.6539 67.7473C18.671 67.9346 18.7902 68.1219 19.0287 68.2581C19.5568 68.5475 20.3916 68.5475 20.9197 68.2581C21.0389 68.19 21.1412 68.1048 21.1923 68.0197C21.3967 67.7303 21.3115 67.4068 20.9197 67.1854C20.3916 66.896 19.5568 66.896 19.0287 67.1854C18.7562 67.3216 18.6369 67.5259 18.6539 67.7473Z" fill="#21212B"/>
<path d="M19.2844 70.5907V72.3955L55.7069 93.3548V91.5329L19.2844 70.5907Z" fill="#F77723"/>
<path opacity="0.5" d="M45.8773 55.4033L19.2844 70.5906L22.7938 72.6168L49.3866 57.4124L45.8773 55.4033Z" fill="url(#paint3_linear)"/>
<path fill-rule="evenodd" clip-rule="evenodd" d="M43.9353 58.0083L41.1584 59.5917L42.4361 60.3239L45.213 58.7404L43.9353 58.0083ZM41.3118 59.5917L43.9353 58.0934L45.0596 58.7404L42.4361 60.2387L41.3118 59.5917Z" fill="#CDD1F6"/>
<path d="M41.2266 59.5918L42.4361 60.2728L44.293 59.2172L43.1005 58.5191L41.2266 59.5918Z" fill="#CDD1F6"/>
<path d="M37.4788 62.6054L37.8876 62.367L38.3306 62.6224L37.9217 62.8608L37.4788 62.6054Z" fill="#CDD1F6"/>
<path d="M36.5417 62.7075L36.9506 62.4692L37.7683 62.9459L37.3765 63.1673L36.5417 62.7075Z" fill="#CDD1F6"/>
<path d="M35.6218 62.8097L36.0136 62.5714L37.2232 63.2524L36.8143 63.4908L35.6218 62.8097Z" fill="#CDD1F6"/>
<path fill-rule="evenodd" clip-rule="evenodd" d="M41.8741 60.5452C42.0615 60.443 42.0615 60.3068 41.5845 60.0344C41.1757 59.8131 40.9201 59.8131 40.7327 59.8812C40.5794 59.9663 40.409 60.0685 40.2898 60.1706L40.4261 60.2558L40.8349 60.0174C40.9883 59.9493 41.2097 60.0514 41.329 60.1195C41.2097 60.1706 41.0734 60.2387 40.9542 60.3068C40.7498 60.426 40.8179 60.5111 40.9542 60.5963L41.1416 60.6984C41.329 60.8006 41.4993 60.7665 41.6527 60.6814L41.8741 60.5452ZM41.1587 60.3749L41.4823 60.1876C41.6357 60.2728 41.8231 60.392 41.6697 60.4941L41.5164 60.5792C41.4483 60.6133 41.3801 60.6303 41.2949 60.5792L41.1587 60.4941C41.0735 60.443 41.0905 60.409 41.1587 60.3749Z" fill="#CDD1F6"/>
<path d="M40.3239 60.3409L39.7787 60.6473L41.1075 60.9879L40.9031 61.107L39.4721 60.7325L39.438 60.6473L40.1535 60.2387L40.3239 60.3409Z" fill="#CDD1F6"/>
<path fill-rule="evenodd" clip-rule="evenodd" d="M39.6765 60.9709C39.8127 61.039 39.8298 61.1071 39.6765 61.1922L39.5231 61.2773C39.3698 61.3625 39.2506 61.3625 39.1143 61.2773L38.9269 61.1582C38.7906 61.0901 38.7736 61.022 38.9269 60.9368L39.0802 60.8517C39.2335 60.7666 39.3528 60.7666 39.4891 60.8517L39.6765 60.9709ZM40.1364 61.5498L40.0001 61.6349L38.1943 61.3795L38.3306 61.2944L40.1364 61.5498ZM39.3869 60.9538L39.5402 61.039C39.5913 61.073 39.5913 61.0901 39.5402 61.1411L39.4039 61.2092C39.3187 61.2433 39.2847 61.2433 39.2336 61.2092L39.0802 61.1241C39.0121 61.073 39.0121 61.056 39.0802 61.022L39.2165 60.9538C39.2847 60.9198 39.3187 60.9198 39.3869 60.9538ZM39.4039 61.7371C39.5402 61.8052 39.5572 61.8733 39.4039 61.9584L39.2506 62.0435C39.0973 62.1287 38.978 62.1287 38.8417 62.0435L38.6543 61.9243C38.518 61.8562 38.501 61.7881 38.6543 61.703L38.8076 61.6179C38.961 61.5327 39.0802 61.5327 39.2165 61.6179L39.4039 61.7371ZM39.1142 61.72L39.2676 61.8052C39.3187 61.8392 39.3187 61.8562 39.2676 61.9073L39.1313 61.9754C39.0461 62.0095 39.012 62.0095 38.9609 61.9754L38.8076 61.8903C38.7394 61.8392 38.7394 61.8222 38.8076 61.7881L38.9439 61.72C39.012 61.686 39.0461 61.686 39.1142 61.72Z" fill="#CDD1F6"/>
<path d="M34.6508 64.6485C34.4975 64.5634 34.2419 64.5634 34.0886 64.6485C33.9353 64.7336 33.9353 64.8869 34.0886 64.972C34.2419 65.0571 34.4975 65.0571 34.6508 64.972C34.8041 64.8698 34.8041 64.7336 34.6508 64.6485Z" fill="#F5F5FD"/>
<path d="M33.816 64.4782C33.9863 64.3761 34.2078 64.342 34.4122 64.342V64.1888C34.1226 64.1888 33.833 64.2569 33.6115 64.3761C33.3901 64.4953 33.2878 64.6655 33.2878 64.8358H33.5604C33.5604 64.6996 33.6456 64.5804 33.816 64.4782Z" fill="#F5F5FD"/>
<path d="M33.373 64.2399C33.6626 64.0696 34.0374 64.0015 34.4122 64.0015V63.8483C33.9693 63.8483 33.5263 63.9504 33.1856 64.1377C32.8449 64.325 32.6746 64.5804 32.6746 64.8358H32.9471C32.9471 64.6145 33.0834 64.3931 33.373 64.2399Z" fill="#F5F5FD"/>
<path d="M32.9813 64.0015C33.3731 63.7802 33.9013 63.661 34.4123 63.661V63.5078C33.8161 63.5078 33.2369 63.644 32.7769 63.8994C32.334 64.1547 32.0955 64.4953 32.0955 64.8358H32.368C32.3851 64.5293 32.5895 64.2399 32.9813 64.0015Z" fill="#F5F5FD"/>
<path d="M25.2642 70.3353L23.5776 69.3648L25.8093 69.1605L25.2642 70.3353Z" fill="#CDD1F6"/>
<path d="M26.3203 68.871L26.6781 67.6111L28.3646 68.5646L26.3203 68.871Z" fill="#CDD1F6"/>
<path d="M26.2522 69.1264L26.3033 68.9221L28.4157 68.5986L25.3152 70.3694L25.8774 69.1605L26.2522 69.1264Z" fill="#CDD1F6"/>
<path d="M23.5264 69.3307L26.6269 67.577L26.1839 69.0924L23.5264 69.3307Z" fill="#CDD1F6"/>
<g opacity="0.7">
<path opacity="0.01" d="M42.9301 0.204317L1.90796 23.6664C1.70353 23.7856 1.70353 24.0921 1.90796 24.2113L58.3475 56.6803C58.4497 56.7314 58.5689 56.7314 58.6712 56.6803L99.6933 33.2352C99.8977 33.116 99.8977 32.8095 99.6933 32.6903L43.2538 0.221343C43.1516 0.153239 43.0323 0.153239 42.9301 0.204317Z" fill="#F77723"/>
<path opacity="0.1667" d="M43.3901 9.43254L4.85523 31.4645C4.6508 31.5836 4.6508 31.8731 4.85523 31.9923L57.8876 62.4862C57.9898 62.5373 58.092 62.5373 58.1942 62.4862L96.7292 40.4543C96.9336 40.3351 96.9336 40.0457 96.7292 39.9265L43.6968 9.43254C43.6116 9.38146 43.4924 9.38146 43.3901 9.43254Z" fill="#F77723"/>
<path opacity="0.3333" d="M43.8672 18.6437L7.8195 39.2454C7.63211 39.3646 7.63211 39.637 7.8195 39.7392L57.4277 68.2751C57.5129 68.3262 57.6321 68.3262 57.7173 68.2751L93.765 47.6734C93.9524 47.5542 93.9524 47.2818 93.765 47.1797L44.1568 18.6437C44.0716 18.5926 43.9524 18.5926 43.8672 18.6437Z" fill="#F77723"/>
<path opacity="0.5" d="M44.3441 27.8549L10.7836 47.0434C10.5962 47.1456 10.5962 47.418 10.7836 47.5202L56.9846 74.0811C57.0698 74.1321 57.172 74.1321 57.2572 74.0811L90.8177 54.8925C91.0051 54.7904 91.0051 54.5179 90.8177 54.4158L44.6167 27.8549C44.5315 27.8038 44.4293 27.8038 44.3441 27.8549Z" fill="#F77723"/>
<path opacity="0.6667" d="M44.804 37.0661L13.7308 54.8244C13.5604 54.9266 13.5604 55.182 13.7308 55.2841L56.5076 79.887C56.5928 79.9381 56.695 79.9381 56.7802 79.887L87.8534 62.1287C88.0238 62.0265 88.0238 61.7711 87.8534 61.669L45.0766 37.0661C44.9914 37.032 44.8892 37.032 44.804 37.0661Z" fill="#F77723"/>
<path opacity="0.8333" d="M45.2812 46.2943L16.6952 62.6395C16.5248 62.7416 16.5248 62.98 16.6952 63.0651L56.0478 85.71C56.133 85.7611 56.2182 85.7611 56.3033 85.71L84.8894 69.3648C85.0597 69.2627 85.0597 69.0243 84.8894 68.9221L45.5367 46.2773C45.4515 46.2432 45.3664 46.2432 45.2812 46.2943Z" fill="#F77723"/>
<path d="M45.758 55.5055L19.6592 70.4204C19.5059 70.5056 19.5059 70.7439 19.6592 70.8291L55.6047 91.4989C55.6728 91.55 55.775 91.55 55.8432 91.4989L81.942 76.5839C82.0953 76.4988 82.0953 76.2604 81.942 76.1753L45.9965 55.5055C45.9113 55.4544 45.8261 55.4544 45.758 55.5055Z" fill="#F77723"/>
</g>
<path d="M45.8773 55.4033L19.2844 70.5907L55.7069 91.533L82.2998 76.3456L45.8773 55.4033Z" fill="url(#paint4_linear)"/>
<path d="M54.821 47.9629L55.1958 47.7415C55.3662 47.6394 55.4684 47.4351 55.4684 47.1456L55.0936 47.367C55.0936 47.6734 54.9914 47.8607 54.821 47.9629Z" fill="#DCDEED"/>
<path d="M54.821 47.9629L55.1958 47.7415C55.3662 47.6394 55.4684 47.4351 55.4684 47.1456L55.0936 47.367C55.0936 47.6734 54.9914 47.8607 54.821 47.9629Z" fill="#DCDEED"/>
<path d="M58.2623 47.0945L58.6371 46.8902L58.1431 46.0389L57.7683 46.2602L58.2623 47.0945Z" fill="#DCDEED"/>
<path d="M57.7683 46.2602L58.1431 46.0389C57.9897 45.7835 57.7853 45.5792 57.5979 45.46C57.3935 45.3408 57.2061 45.3238 57.0528 45.4089L56.678 45.6303C56.8313 45.5451 57.0357 45.5792 57.2231 45.6813C57.4276 45.8005 57.6149 46.0048 57.7683 46.2602Z" fill="#DCDEED"/>
<path d="M57.7683 46.2602L58.1431 46.0389C57.9898 45.7835 57.7853 45.5792 57.5979 45.46C57.4446 45.3749 57.2743 45.3408 57.138 45.3749L56.7632 45.5962C56.8995 45.5622 57.0528 45.5962 57.2232 45.6813C57.4276 45.8005 57.615 46.0048 57.7683 46.2602Z" fill="#DCDEED"/>
<path d="M56.7802 45.5962L57.155 45.3749C57.1209 45.3749 57.0868 45.3919 57.0528 45.4089L56.678 45.6303C56.712 45.6132 56.7461 45.5962 56.7802 45.5962Z" fill="#DCDEED"/>
<path d="M55.0938 47.384L55.4685 47.1626L55.4856 41.3397L55.1108 41.561L55.0938 47.384Z" fill="#DCDEED"/>
<path d="M53.6115 37.7982L53.9693 37.5939L52.0442 38.6836L51.6694 38.9049L53.6115 37.7982Z" fill="#DCDEED"/>
<path d="M54.1567 38.1263L54.5315 37.7641C54.3271 37.5691 54.1397 37.5413 53.9864 37.6806L53.6116 38.0427C53.7479 37.8756 53.9523 37.9313 54.1567 38.1263Z" fill="#DCDEED"/>
<path d="M54.1567 38.1263L54.5315 37.7641C54.3782 37.6248 54.2078 37.5413 54.0716 37.597L53.6968 37.9591C53.8331 37.9034 53.9864 37.9591 54.1567 38.1263Z" fill="#DCDEED"/>
<path d="M53.6967 37.9591L54.0715 37.597C54.0374 37.597 54.0033 37.6248 53.9693 37.6527L53.5945 38.0148C53.6286 37.987 53.6626 37.987 53.6967 37.9591Z" fill="#DCDEED"/>
<path d="M54.2326 38.1405L54.6909 37.6963C54.6701 37.6963 54.6493 37.6621 54.6493 37.6621L54.1909 38.1063C54.2118 38.1063 54.2118 38.1405 54.2326 38.1405Z" fill="#DCDEED"/>
<path d="M54.2326 38.1405L54.6909 37.6963C54.6701 37.6963 54.6493 37.6621 54.6493 37.6621L54.1909 38.1063C54.2118 38.1063 54.2118 38.1405 54.2326 38.1405Z" fill="#DCDEED"/>
<path d="M56.6951 43.0253L57.0699 42.8039C57.3765 42.6337 57.3765 42.0718 57.0699 41.561L56.6951 41.7824C57.0017 42.2932 57.0017 42.855 56.6951 43.0253Z" fill="#DCDEED"/>
<path d="M56.6951 43.0253L57.0699 42.804C57.3595 42.6337 57.3765 42.0889 57.0869 41.5951L56.7121 41.8164C57.0017 42.3272 57.0017 42.855 56.6951 43.0253Z" fill="#DCDEED"/>
<path d="M56.7292 41.8164L57.104 41.5951C57.104 41.5781 57.087 41.5781 57.087 41.561L56.7122 41.7824C56.7122 41.7824 56.7122 41.7994 56.7292 41.8164Z" fill="#DCDEED"/>
<path d="M54.787 38.4792L55.1618 38.2579C55.0084 38.0025 54.804 37.7982 54.6166 37.679C54.5996 37.679 54.5996 37.662 54.5825 37.662L54.2078 37.8833C54.2248 37.8833 54.2248 37.9004 54.2418 37.9004C54.4292 38.0195 54.6337 38.2239 54.787 38.4792Z" fill="#DCDEED"/>
<path d="M54.787 38.4792L55.1618 38.2579C55.0084 38.0025 54.804 37.7982 54.6166 37.679C54.5996 37.679 54.5996 37.662 54.5825 37.662L54.2078 37.8833C54.2248 37.8833 54.2248 37.9004 54.2418 37.9004C54.4292 38.0195 54.6337 38.2239 54.787 38.4792Z" fill="#DCDEED"/>
<path d="M54.1567 37.8663C53.9523 37.7471 53.7649 37.7301 53.6116 37.8152L51.6865 38.9049C51.3799 39.0752 51.3799 39.637 51.6865 40.1478C51.8398 40.4032 52.0272 40.6075 52.2317 40.7267C52.4361 40.8459 52.6235 40.8629 52.7768 40.7778L53.2709 40.5054L53.2538 46.3283C53.2538 46.9072 53.6627 47.6223 54.1737 47.9118C54.6848 48.2012 55.0937 47.9629 55.1107 47.384L55.1278 41.561L55.6218 42.3953C55.7751 42.6507 55.9795 42.855 56.1669 42.9742C56.3714 43.0934 56.5588 43.1104 56.7121 43.0253C57.0187 42.855 57.0187 42.2931 56.7121 41.7823L54.787 38.4793C54.6337 38.2239 54.4293 38.0195 54.2419 37.9004C54.2249 37.9004 54.2249 37.8833 54.2078 37.8833C54.1737 37.8833 54.1737 37.8663 54.1567 37.8663Z" fill="#F5F5FD"/>
<path d="M56.6951 41.7824L57.0699 41.561L55.1619 38.2579L54.7871 38.4793L56.6951 41.7824Z" fill="#DCDEED"/>
<path d="M60.6134 47.8777L60.9882 47.6734L60.4942 47.9458L60.1194 48.1672L60.6134 47.8777Z" fill="#DCDEED"/>
<path d="M61.7036 49.7677L62.0784 49.5463C62.385 49.3761 62.385 48.8142 62.0784 48.3034C61.925 48.048 61.7206 47.8437 61.5332 47.7245C61.3288 47.6053 61.1414 47.5883 60.9881 47.6734L60.6133 47.8948C60.7666 47.8097 60.971 47.8267 61.1584 47.9459C61.3629 48.065 61.5502 48.2523 61.7036 48.5248C62.0102 49.0355 62.0102 49.5804 61.7036 49.7677Z" fill="#DCDEED"/>
<path d="M61.7036 49.7677L62.0784 49.5463C62.368 49.3761 62.385 48.8482 62.0954 48.3375L61.7206 48.5588C62.0103 49.0526 61.9932 49.5974 61.7036 49.7677Z" fill="#DCDEED"/>
<path d="M61.7206 48.5418L62.0954 48.3204C62.0954 48.3034 62.0784 48.3034 62.0784 48.2864C61.9251 48.031 61.7206 47.8267 61.5332 47.7075C61.3799 47.6224 61.2096 47.5883 61.0733 47.6224L60.6985 47.8437C60.8348 47.8097 60.9881 47.8437 61.1585 47.9288C61.3629 48.048 61.5503 48.2353 61.7036 48.5077C61.7206 48.5247 61.7206 48.5418 61.7206 48.5418Z" fill="#DCDEED"/>
<path d="M60.6984 47.8437L61.0732 47.6224C61.0391 47.6394 61.005 47.6394 60.971 47.6564L60.5962 47.8778C60.6473 47.8607 60.6643 47.8607 60.6984 47.8437Z" fill="#DCDEED"/>
<path d="M60.1194 48.1672L60.4942 47.9458L60.5112 42.1229L60.1364 42.3442L60.1194 48.1672Z" fill="#DCDEED"/>
<path d="M58.9268 40.5472L58.552 40.9093C58.7224 40.7422 58.9609 40.77 59.2164 41.0207L59.5912 40.6586C59.3186 40.4357 59.0971 40.4079 58.9268 40.5472Z" fill="#DCDEED"/>
<path d="M59.2163 41.0208L59.5911 40.6586C59.3866 40.4636 59.1993 40.4079 59.0459 40.4915L58.6711 40.8536C58.8245 40.77 59.0119 40.8258 59.2163 41.0208Z" fill="#DCDEED"/>
<path d="M58.6713 40.8258L59.046 40.4636C59.012 40.4915 58.9609 40.5193 58.9268 40.5472L58.552 40.9093C58.5861 40.8815 58.6201 40.8536 58.6713 40.8258Z" fill="#DCDEED"/>
<path d="M59.2164 40.7608C58.7053 40.4713 58.2964 40.7097 58.2964 41.2886L58.2794 47.1116L57.7854 46.2773C57.632 46.0219 57.4276 45.8176 57.2402 45.6984C57.0358 45.5792 56.8484 45.5622 56.6951 45.6473C56.3884 45.8176 56.3884 46.3794 56.6951 46.8902L58.6201 50.1933C58.7734 50.4487 58.9779 50.653 59.1653 50.7722C59.1823 50.7722 59.1823 50.7892 59.1993 50.7892C59.2164 50.7892 59.2334 50.8063 59.2334 50.8063C59.4378 50.9254 59.6252 50.9425 59.7785 50.8573L61.7036 49.7677C62.0102 49.5974 62.0102 49.0355 61.7036 48.5248C61.5503 48.2694 61.3458 48.065 61.1584 47.9459C60.954 47.8267 60.7666 47.8096 60.6133 47.8948L60.1193 48.1672L60.1363 42.3442C60.1363 41.7653 59.7274 41.0502 59.2164 40.7608Z" fill="#F5F5FD"/>
<path d="M60.1365 42.3442L60.5113 42.1229C60.5113 41.544 60.1024 40.8289 59.5913 40.5394L59.2166 40.7608C59.7276 41.0502 60.1365 41.7653 60.1365 42.3442Z" fill="#DCDEED"/>
<path d="M60.1364 42.3442L60.5112 42.1229C60.5112 41.8504 60.4261 41.544 60.2727 41.2715L59.8979 41.4929C60.0342 41.7653 60.1364 42.0718 60.1364 42.3442Z" fill="#DCDEED"/>
<path d="M59.8809 41.4929L60.2557 41.2716C60.0853 40.9651 59.8468 40.6927 59.5743 40.5394L59.1995 40.7608C59.472 40.914 59.7276 41.1864 59.8809 41.4929Z" fill="#DCDEED"/>
<path opacity="0.3" d="M63.7479 79.7508C57.4787 83.3603 47.2913 83.3433 40.9881 79.7167C34.6848 76.0731 34.6507 70.1991 40.9199 66.5725C47.1891 62.9629 57.3765 62.9799 63.6797 66.6065C69.9829 70.2501 70.017 76.1412 63.7479 79.7508Z" fill="#9E9E9E"/>
<path d="M64.1497 74.7411L64.0551 72.034L63.0874 72.045C62.4672 71.2169 61.5053 70.4007 60.286 69.7659C55.2686 66.9444 47.3003 66.8566 42.4711 69.5872C41.2711 70.2495 40.4117 71.0377 39.8367 71.8389L38.869 71.8499L38.9636 74.557C39.036 76.3806 40.2755 78.1747 42.7982 79.6136C47.8156 82.4351 55.7839 82.523 60.6131 79.7923C63.0423 78.3863 64.2221 76.5647 64.1497 74.7411Z" fill="#755930"/>
<path fill-rule="evenodd" clip-rule="evenodd" d="M64.1273 74.9067L64.0408 72.2044L63.07 72.218C62.4503 71.393 61.4879 70.5809 60.2667 69.9505C55.2419 67.1475 47.2482 67.0816 42.3949 69.8209C41.1889 70.4854 40.3242 71.2746 39.745 72.076L38.7741 72.0896L38.8605 74.792C38.9275 76.6123 40.1654 78.4 42.6918 79.8296C47.7166 82.6326 55.7103 82.6984 60.5636 79.9591C63.0049 78.5488 64.1942 76.727 64.1273 74.9067Z" fill="url(#paint5_linear)"/>
<path d="M51.2909 65.0002C58.2982 65.0497 64.0533 68.1927 64.1453 72.0204C64.2374 75.848 58.6315 78.9109 51.6243 78.8614C44.617 78.812 38.8619 75.669 38.7699 71.8413C38.6778 68.0136 44.2837 64.9508 51.2909 65.0002Z" fill="#BCD5FF"/>
<path d="M51.2909 65.0003C58.2982 65.0498 64.0533 68.1928 64.1453 72.0204C64.2374 75.8481 58.6315 78.9109 51.6243 78.8615C44.617 78.812 38.8619 75.669 38.7699 71.8414C38.6778 68.0137 44.2837 64.9509 51.2909 65.0003Z" fill="url(#paint6_linear)"/>
<path fill-rule="evenodd" clip-rule="evenodd" d="M51.744 78.0195C57.6165 78.1598 62.3503 75.6613 62.2039 72.2503C62.0585 68.8618 57.1285 66.1474 51.2678 66.0074C45.3953 65.8671 40.6615 68.3656 40.8079 71.7766C40.9533 75.165 45.8833 77.8795 51.744 78.0195ZM51.7368 76.934C46.4115 76.8068 42.0635 74.4126 41.95 71.7664C41.8374 69.1429 45.9616 66.9659 51.275 67.0929C56.6003 67.2201 60.9483 69.6143 61.0618 72.2604C61.1744 74.884 57.0502 77.0609 51.7368 76.934Z" fill="white" fill-opacity="0.5"/>
<path d="M47.3875 72.0012L55.5784 72.0972L55.5607 70.7482L47.3699 70.6522L47.3875 72.0012Z" fill="white"/>
<path d="M60.5595 76.9452C55.7177 79.6113 47.7734 79.5215 42.7982 76.7621C39.7172 75.025 38.5126 72.7414 39.1518 70.5425C38.3988 72.7912 39.6024 75.2123 42.7684 76.9808C47.7715 79.7965 55.7158 79.8863 60.5297 77.1639C62.3809 76.1485 63.5249 74.8256 63.8748 73.4386C63.412 74.7379 62.297 75.9796 60.5595 76.9452Z" fill="white"/>
<path d="M60.3582 70.9489L60.2636 68.2418L59.2959 68.2528C58.6757 67.4247 57.7138 66.6086 56.4945 65.9737C51.4771 63.1523 43.5088 63.0644 38.6796 65.795C37.4796 66.4574 36.6201 67.2455 36.0452 68.0467L35.0775 68.0577L35.1721 70.7648C35.2445 72.5884 36.484 74.3825 39.0067 75.8215C44.0241 78.6429 51.9924 78.7308 56.8216 76.0001C59.2508 74.5941 60.4306 72.7725 60.3582 70.9489Z" fill="#755930"/>
<path fill-rule="evenodd" clip-rule="evenodd" d="M60.3358 71.1146L60.2493 68.4122L59.2785 68.4259C58.6588 67.6008 57.6964 66.7887 56.4752 66.1583C51.4504 63.3553 43.4567 63.2895 38.6034 66.0288C37.3974 66.6932 36.5327 67.4825 35.9535 68.2838L34.9826 68.2975L35.069 70.9998C35.136 72.8201 36.3739 74.6078 38.9003 76.0374C43.9251 78.8404 51.9188 78.9062 56.7721 76.1669C59.2134 74.7566 60.4027 72.9349 60.3358 71.1146Z" fill="url(#paint7_linear)"/>
<path d="M47.4994 61.2081C54.5067 61.2575 60.2618 64.4005 60.3538 68.2282C60.4459 72.0559 54.84 75.1187 47.8328 75.0693C40.8255 75.0198 35.0704 71.8768 34.9784 68.0491C34.8863 64.2215 40.4922 61.1586 47.4994 61.2081Z" fill="#BCD5FF"/>
<path d="M47.4994 61.2081C54.5067 61.2575 60.2618 64.4005 60.3538 68.2282C60.4459 72.0559 54.84 75.1187 47.8328 75.0693C40.8255 75.0198 35.0704 71.8768 34.9784 68.0491C34.8863 64.2215 40.4922 61.1586 47.4994 61.2081Z" fill="url(#paint8_linear)"/>
<path fill-rule="evenodd" clip-rule="evenodd" d="M47.9525 74.2273C53.825 74.3676 58.5588 71.8691 58.4124 68.458C58.267 65.0696 53.337 62.3551 47.4763 62.2151C41.6038 62.0748 36.87 64.5733 37.0164 67.9843C37.1618 71.3728 42.0918 74.0873 47.9525 74.2273ZM47.9453 73.1418C42.62 73.0145 38.272 70.6203 38.1585 67.9742C38.0459 65.3506 42.1701 63.1737 47.4835 63.3006C52.8088 63.4278 57.1568 65.8221 57.2703 68.4682C57.3829 71.0918 53.2587 73.2687 47.9453 73.1418Z" fill="white" fill-opacity="0.5"/>
<path d="M43.596 68.2089L51.7869 68.305L51.7692 66.956L43.5784 66.8599L43.596 68.2089Z" fill="white"/>
<path d="M56.768 73.153C51.9262 75.8191 43.9819 75.7293 39.0067 72.9699C35.9257 71.2328 34.7211 68.9492 35.3603 66.7503C34.6073 68.999 35.8109 71.4201 38.9769 73.1886C43.98 76.0043 51.9243 76.0941 56.7382 73.3717C58.5894 72.3563 59.7334 71.0334 60.0833 69.6465C59.6205 70.9457 58.5055 72.1874 56.768 73.153Z" fill="white"/>
<path d="M64.021 64.008L63.9237 61.0389L62.9283 61.051C62.2904 60.1427 61.3011 59.2476 60.0469 58.5513C54.8862 55.4568 46.6902 55.3604 41.723 58.3553C40.4887 59.0818 39.6047 59.9462 39.0134 60.8249L38.018 60.8369L38.1153 63.8061C38.1898 65.8061 39.4647 67.7738 42.0595 69.3521C47.2202 72.4466 55.4162 72.5429 60.3834 69.548C62.8819 68.0059 64.0955 66.0081 64.021 64.008Z" fill="#755930"/>
<path fill-rule="evenodd" clip-rule="evenodd" d="M63.998 64.1896L63.9091 61.2257L62.9105 61.2407C62.2731 60.3358 61.2832 59.4451 60.0271 58.7537C54.8588 55.6794 46.6367 55.6072 41.6447 58.6116C40.4042 59.3404 39.5149 60.206 38.9191 61.0849L37.9205 61.0999L38.0094 64.0637C38.0782 66.0602 39.3515 68.0209 41.9501 69.5888C47.1184 72.6631 55.3405 72.7353 60.3325 69.7309C62.8436 68.1841 64.0669 66.186 63.998 64.1896Z" fill="url(#paint9_linear)"/>
<path d="M50.795 53.3244C58.0024 53.3787 63.922 56.8259 64.0166 61.0239C64.1113 65.222 58.3453 68.5813 51.1378 68.527C43.9304 68.4728 38.0109 65.0256 37.9162 60.8275C37.8215 56.6294 43.5875 53.2702 50.795 53.3244Z" fill="#BCD5FF"/>
<path d="M50.795 53.3244C58.0024 53.3787 63.922 56.8259 64.0166 61.0239C64.1113 65.222 58.3453 68.5813 51.1378 68.527C43.9304 68.4728 38.0109 65.0256 37.9162 60.8275C37.8215 56.6294 43.5875 53.2702 50.795 53.3244Z" fill="url(#paint10_linear)"/>
<path fill-rule="evenodd" clip-rule="evenodd" d="M51.1573 67.5458C57.2165 67.604 62.1463 64.81 62.0546 61.1019C61.9635 57.4182 56.922 54.5447 50.875 54.4866C44.8158 54.4285 39.886 57.2225 39.9777 60.9306C40.0688 64.6142 45.1103 67.4878 51.1573 67.5458ZM51.1688 66.3628C45.6761 66.31 41.2314 63.7766 41.1603 60.9013C41.0898 58.0504 45.3832 55.6171 50.8636 55.6697C56.3562 55.7225 60.8009 58.2558 60.872 61.1312C60.9425 63.9821 56.6491 66.4154 51.1688 66.3628Z" fill="white" fill-opacity="0.5"/>
<path d="M46.7801 61.0027L55.205 61.1081L55.1869 59.6286L46.762 59.5232L46.7801 61.0027Z" fill="white"/>
<path d="M60.3283 66.4253C55.3482 69.3494 47.1769 69.251 42.0596 66.2245C38.8905 64.3193 37.6515 61.8147 38.309 59.403C37.5344 61.8693 38.7725 64.5247 42.0288 66.4644C47.175 69.5526 55.3462 69.6511 60.2976 66.6652C62.2018 65.5515 63.3784 64.1006 63.7384 62.5794C63.2623 64.0044 62.1154 65.3663 60.3283 66.4253Z" fill="white"/>
<path d="M46.5246 12.4291L53.1856 8.59824C51.8397 7.90017 50.5961 7.69585 49.5569 7.90017C49.1651 7.96827 48.8074 8.10448 48.4667 8.3088L41.8057 12.1397C42.1293 11.9524 42.5041 11.8162 42.8789 11.7311C43.9351 11.5097 45.1787 11.7311 46.5246 12.4291Z" fill="#DCDEED"/>
<path d="M67.9895 21.6063L72.5892 18.9332C71.7204 16.3111 70.3575 13.7061 68.6539 11.4076C68.5517 11.2714 68.4665 11.1522 68.3643 11.016L63.7646 13.6891C63.8669 13.8083 63.952 13.9445 64.0543 14.0807C65.7578 16.3622 67.1207 18.9672 67.9895 21.6063Z" fill="#E3E5F5"/>
<path d="M63.7647 13.7061L68.3643 11.033C67.3763 9.75602 66.303 8.59824 65.1446 7.59369L60.5449 10.2668C61.7034 11.2543 62.7936 12.4291 63.7647 13.7061Z" fill="#E3E5F5"/>
<path d="M60.545 10.2668L65.1446 7.59371C64.2417 6.8105 63.2877 6.12945 62.3167 5.56759C59.4717 3.93307 56.8653 3.64363 54.8721 4.47791C54.6506 4.56304 54.4462 4.6652 54.2417 4.78438L49.6421 7.4575C49.8465 7.33831 50.0509 7.23616 50.2724 7.15103C52.2656 6.31674 54.8721 6.60619 57.717 8.2407C58.6881 8.78554 59.6421 9.48362 60.545 10.2668Z" fill="#E3E5F5"/>
<path d="M78.5689 45.0344L83.1685 42.3612C83.6796 42.0718 84.0885 41.6121 84.3781 40.9991C84.6677 40.3862 84.8381 39.62 84.8381 38.7347C84.8381 37.3896 84.4803 35.9253 83.867 34.5462C83.4241 33.5417 82.8619 32.5882 82.1805 31.7198L77.5808 34.393C78.2452 35.2613 78.8244 36.2148 79.2674 37.2193C79.8806 38.6155 80.2384 40.0627 80.2384 41.4078C80.2384 42.3102 80.068 43.0763 79.7784 43.6723C79.4888 44.2852 79.0629 44.7449 78.5689 45.0344Z" fill="#DCDEED"/>
<path d="M77.5808 34.3929L82.1805 31.7198C81.9249 31.3793 81.6353 31.0558 81.3627 30.7493C81.1072 30.4769 80.8346 30.2215 80.5621 29.9832L75.9624 32.6563C76.235 32.8946 76.5075 33.15 76.7631 33.4224C77.0527 33.7289 77.3253 34.0524 77.5808 34.3929Z" fill="#DCDEED"/>
<path d="M75.9624 32.6563L80.5621 29.9832C80.1021 29.5916 79.6251 29.251 79.1311 28.9616C79.0289 28.8935 78.9096 28.8424 78.8074 28.7913L74.2078 31.4644C74.31 31.5155 74.4292 31.5836 74.5314 31.6347C75.0255 31.9241 75.5025 32.2647 75.9624 32.6563Z" fill="#DCDEED"/>
<path d="M42.8959 11.7311C43.9351 11.5267 45.1958 11.7481 46.5246 12.4291C47.0016 9.75602 48.3644 7.93421 50.2724 7.15101C52.2656 6.31672 54.8721 6.60617 57.7171 8.24068C60.068 9.58576 62.2656 11.663 64.0714 14.0977C65.775 16.3792 67.1379 18.9842 68.0067 21.6233C68.4326 21.7254 68.8755 21.9127 69.3525 22.1852C70.0339 22.5768 70.6813 23.1046 71.2775 23.7345C72.1634 24.671 72.913 25.8117 73.4581 27.0206C73.9862 28.2295 74.2929 29.4894 74.2929 30.6472C74.2929 30.9366 74.2758 31.2261 74.2247 31.4815C74.327 31.5325 74.4462 31.6007 74.5484 31.6517C75.3321 32.0944 76.0816 32.7074 76.7631 33.4395C77.7852 34.5121 78.654 35.8402 79.2673 37.2363C79.8806 38.6325 80.2384 40.0797 80.2384 41.4248C80.2384 42.3272 80.068 43.0934 79.7784 43.6893C79.3355 44.6087 78.62 45.1876 77.7 45.3578C76.7801 45.5451 75.6898 45.3238 74.4973 44.6427L46.8312 28.8254C45.8431 28.2635 44.9062 27.4973 44.0544 26.612C42.7767 25.2669 41.6864 23.6154 40.9368 21.8787C40.1702 20.142 39.7273 18.3372 39.7273 16.6516C39.7273 15.5279 39.9317 14.5744 40.2895 13.8253C40.8517 12.6675 41.7546 11.9524 42.8959 11.7311Z" fill="#F5F5FD"/>
<path d="M74.2078 31.4645L78.8074 28.7914C78.8415 28.536 78.8756 28.2465 78.8756 27.9571C78.8756 26.7993 78.5689 25.5223 78.0408 24.3305C77.666 23.4622 77.1549 22.6279 76.5757 21.8787L71.9761 24.5518C72.5553 25.301 73.0493 26.1353 73.4411 27.0036C73.9693 28.2125 74.2759 29.4724 74.2759 30.6302C74.2759 30.9196 74.2418 31.2091 74.2078 31.4645Z" fill="#DCDEED"/>
<path d="M71.976 24.5518L76.5756 21.8787C76.3542 21.5892 76.1157 21.2998 75.8601 21.0444C75.6387 20.806 75.4002 20.5847 75.1617 20.3804L70.562 23.0535C70.8005 23.2578 71.039 23.4791 71.2605 23.7175C71.516 23.9729 71.7545 24.2623 71.976 24.5518Z" fill="#DCDEED"/>
<path d="M70.5621 23.0535L75.1618 20.3804C74.7699 20.0399 74.344 19.7334 73.9181 19.495C73.4582 19.2226 72.9982 19.0524 72.5723 18.9332L67.9727 21.6063C68.3986 21.7084 68.8415 21.8957 69.3185 22.1681C69.7614 22.4065 70.1703 22.713 70.5621 23.0535Z" fill="#DCDEED"/>
<rect opacity="0.2" x="15.4856" y="37.1852" width="1.68654" height="9.44955" fill="#F77723"/>
<rect opacity="0.2" x="91.4822" y="28.3146" width="1.68655" height="7.78098" fill="#F77723"/>
<rect opacity="0.2" x="39.9829" y="33.9843" width="1.68654" height="7.78098" fill="#F77723"/>
<rect opacity="0.2" x="33.0664" y="55.9822" width="1.68654" height="7.78098" fill="#F77723"/>
<rect opacity="0.2" x="83.4412" y="64.1037" width="1.68655" height="1.77073" fill="#F77723"/>
<rect opacity="0.2" x="84.719" y="35.9083" width="1.68654" height="1.77073" fill="#F77723"/>
<rect opacity="0.2" x="28.2625" y="21.8446" width="1.68654" height="1.77073" fill="#F77723"/>
<rect opacity="0.2" x="58.1772" y="58.1105" width="1.68654" height="1.77073" fill="#F77723"/>
<rect opacity="0.2" x="70.8176" y="44.3533" width="1.68654" height="1.78775" fill="#F77723"/>
<rect opacity="0.2" x="34.4124" y="45.46" width="1.68654" height="1.78775" fill="#F77723"/>
<rect opacity="0.2" x="77.4617" y="19.3417" width="1.68655" height="1.73668" fill="#F77723"/>
<rect opacity="0.2" x="9.62524" y="31.5325" width="1.68654" height="1.73667" fill="#F77723"/>
<rect opacity="0.2" x="49.0291" y="13.5018" width="1.68654" height="1.73667" fill="#F77723"/>
<path opacity="0.01" d="M97.2914 38.0195C97.2914 29.6256 90.4771 22.8151 82.0784 22.8151C73.6798 22.8151 66.8655 29.6256 66.8655 38.0195C66.8655 46.4135 73.6798 53.2239 82.0784 53.2239C90.4771 53.2239 97.2914 46.4135 97.2914 38.0195Z" fill="#F77723"/>
<path opacity="0.1039" d="M95.4857 38.0195C95.4857 30.6131 89.4891 24.6199 82.0785 24.6199C74.668 24.6199 68.6714 30.6301 68.6714 38.0195C68.6714 45.4089 74.668 51.4191 82.0785 51.4191C89.4891 51.4362 95.4857 45.4259 95.4857 38.0195Z" fill="#F77723"/>
<path opacity="0.2078" d="M93.6968 38.0195C93.6968 31.6007 88.5008 26.4077 82.0784 26.4077C75.6559 26.4077 70.46 31.6007 70.46 38.0195C70.46 44.4384 75.6559 49.6314 82.0784 49.6314C88.5008 49.6314 93.6968 44.4384 93.6968 38.0195Z" fill="#F77723"/>
<path opacity="0.3117" d="M91.9081 38.0196C91.9081 32.5882 87.5128 28.1954 82.0784 28.1954C76.644 28.1954 72.2488 32.5882 72.2488 38.0196C72.2488 43.4509 76.644 47.8437 82.0784 47.8437C87.5128 47.8437 91.9081 43.4509 91.9081 38.0196Z" fill="#F77723"/>
<path opacity="0.4156" d="M90.1194 38.0195C90.1194 33.5757 86.5248 29.9832 82.0785 29.9832C77.6321 29.9832 74.0376 33.5757 74.0376 38.0195C74.0376 42.4634 77.6321 46.0559 82.0785 46.0559C86.5248 46.0559 90.1194 42.4634 90.1194 38.0195Z" fill="#F77723"/>
<path opacity="0.5195" d="M88.3307 38.0196C88.3307 34.5803 85.5368 31.7709 82.0785 31.7709C78.6373 31.7709 75.8264 34.5632 75.8264 38.0196C75.8264 41.4759 78.6203 44.2682 82.0785 44.2682C85.5368 44.2682 88.3307 41.4759 88.3307 38.0196Z" fill="#F77723"/>
<path opacity="0.6234" d="M86.5418 38.0195C86.5418 35.5678 84.5487 33.5757 82.0955 33.5757C79.6424 33.5757 77.6492 35.5678 77.6492 38.0195C77.6492 40.4713 79.6424 42.4634 82.0955 42.4634C84.5487 42.4804 86.5418 40.4883 86.5418 38.0195Z" fill="#F77723"/>
<path opacity="0.7273" d="M84.7361 38.0196C84.7361 36.5553 83.5436 35.3635 82.0785 35.3635C80.6134 35.3635 79.4209 36.5553 79.4209 38.0196C79.4209 39.4838 80.6134 40.6756 82.0785 40.6756C83.5436 40.6927 84.7361 39.5008 84.7361 38.0196Z" fill="#F77723"/>
<path opacity="0.01" d="M15.2811 91.0733C23.6829 91.0733 30.494 84.266 30.494 75.8688C30.494 67.4717 23.6829 60.6644 15.2811 60.6644C6.87918 60.6644 0.0681152 67.4717 0.0681152 75.8688C0.0681152 84.266 6.87918 91.0733 15.2811 91.0733Z" fill="#F77723"/>
<path opacity="0.1039" d="M28.6881 75.8689C28.6881 68.4625 22.6915 62.4692 15.2809 62.4692C7.87037 62.4692 1.87378 68.4625 1.87378 75.8689C1.87378 83.2753 7.87037 89.2685 15.2809 89.2685C22.6915 89.2685 28.6881 83.2753 28.6881 75.8689Z" fill="#F77723"/>
<path opacity="0.2078" d="M26.8994 75.8688C26.8994 69.45 21.7035 64.257 15.281 64.257C8.85851 64.257 3.6626 69.45 3.6626 75.8688C3.6626 82.2877 8.85851 87.4807 15.281 87.4807C21.7035 87.4807 26.8994 82.2877 26.8994 75.8688Z" fill="#F77723"/>
<path opacity="0.3117" d="M25.1107 75.8689C25.1107 70.4375 20.7155 66.0447 15.2811 66.0447C9.84665 66.0447 5.45142 70.4375 5.45142 75.8689C5.45142 81.3002 9.84665 85.693 15.2811 85.693C20.7155 85.693 25.1107 81.3002 25.1107 75.8689Z" fill="#F77723"/>
<path opacity="0.4156" d="M23.3218 75.8688C23.3218 71.425 19.7272 67.8325 15.2809 67.8325C10.8345 67.8325 7.23999 71.425 7.23999 75.8688C7.23999 80.3127 10.8345 83.9052 15.2809 83.9052C19.7102 83.9052 23.3218 80.3127 23.3218 75.8688Z" fill="#F77723"/>
<path opacity="0.5195" d="M21.5331 75.8689C21.5331 72.4296 18.7392 69.6202 15.2809 69.6202C11.8397 69.6202 9.02881 72.4125 9.02881 75.8689C9.02881 79.3082 11.8227 82.1175 15.2809 82.1175C18.7222 82.1175 21.5331 79.3252 21.5331 75.8689Z" fill="#F77723"/>
<path opacity="0.6234" d="M19.7274 75.8688C19.7274 73.4171 17.7342 71.425 15.2811 71.425C12.8279 71.425 10.8347 73.4171 10.8347 75.8688C10.8347 78.3206 12.8279 80.3127 15.2811 80.3127C17.7342 80.3127 19.7274 78.3206 19.7274 75.8688Z" fill="#F77723"/>
<path opacity="0.72" d="M17.9385 75.8689C17.9385 74.4046 16.7459 73.2128 15.2809 73.2128C13.8158 73.2128 12.6233 74.4046 12.6233 75.8689C12.6233 77.3331 13.8158 78.525 15.2809 78.525C16.7459 78.525 17.9385 77.3331 17.9385 75.8689Z" fill="#F77723"/>
<path d="M51.0221 24.2113C50.8517 24.2113 50.511 24.0921 50.1021 23.8537C48.5519 22.9684 47.8193 21.0614 47.8193 19.0864C47.8193 16.4473 49.08 16.1579 50.2555 16.8389C50.6643 17.0773 50.9539 17.3327 51.0732 17.5029L50.8687 18.5245C50.7325 18.3713 50.5791 18.218 50.3236 18.0818C49.6592 17.6902 49.0629 18.0137 49.0629 19.7504C49.0629 21.419 49.6081 22.3895 50.3236 22.7981C50.528 22.9173 50.7495 22.9854 50.8858 23.0194L51.0221 24.2113Z" fill="#D8D6ED"/>
<path fill-rule="evenodd" clip-rule="evenodd" d="M52.4871 25.1817L52.7597 23.7345L53.85 24.3645L54.1055 26.1012L55.2469 26.7652L54.0714 19.1034L52.6575 18.2861L51.3457 24.5177L52.4871 25.1817ZM53.5433 21.6743L53.7478 23.2408L52.8619 22.747L53.0834 21.419C53.1243 21.2043 53.1713 20.8729 53.2172 20.5503C53.2477 20.3356 53.2776 20.1248 53.3048 19.9547L53.3389 19.9717C53.3709 20.2032 53.4028 20.4907 53.4347 20.7783C53.4709 21.1042 53.5071 21.4301 53.5433 21.6743Z" fill="#D8D6ED"/>
<path d="M55.775 25.6755C56.0135 25.965 56.4224 26.3225 56.7631 26.5269C57.3253 26.8504 57.5808 26.6801 57.5808 26.2204C57.5808 25.7096 57.3083 25.301 56.7972 24.637C55.9795 23.5813 55.6558 22.6619 55.6558 22.0319C55.6558 20.9082 56.3031 20.3463 57.5638 21.0785C57.9556 21.2998 58.3304 21.6403 58.5178 21.8787L58.3304 22.9343C58.16 22.713 57.9045 22.4406 57.5638 22.2533C57.0527 21.9638 56.8142 22.1681 56.8142 22.5427C56.8142 22.9514 57.0016 23.2749 57.649 24.1091C58.4497 25.1307 58.7393 25.999 58.7393 26.7482C58.7393 28.0252 57.9215 28.3827 56.7461 27.7017C56.2691 27.4293 55.7921 27.0036 55.5876 26.7482L55.775 25.6755Z" fill="#D8D6ED"/>
<path d="M60.6303 22.8833V29.864L59.4548 29.183V22.2022L60.6303 22.8833Z" fill="#D8D6ED"/>
<path d="M61.6865 30.4769V23.4962L62.7598 24.1091L63.6967 27.3781C63.8841 28.0251 64.1737 29.0978 64.3441 29.7959L64.3611 29.8129C64.3271 29.0637 64.2419 27.8038 64.2419 26.5098V24.9604L65.2811 25.5563V32.5371L64.2078 31.9241L63.2879 28.7402C63.0835 28.0422 62.8109 27.0036 62.6746 26.2885L62.6576 26.2714C62.6916 26.9865 62.7257 28.0932 62.7257 29.4894V31.0558L61.6865 30.4769Z" fill="#D8D6ED"/>
<path fill-rule="evenodd" clip-rule="evenodd" d="M67.9217 34.1546C69.0801 34.8186 69.8808 34.2227 69.8808 31.5837C69.8808 30.0002 69.4719 27.906 68.0069 27.0547C66.661 26.2885 66.0137 27.5484 66.0137 29.4554C66.0137 31.3793 66.5418 33.3544 67.9217 34.1546ZM67.9728 32.9968C67.4958 32.7244 67.2403 31.7709 67.2403 30.1875C67.2403 28.6892 67.4958 27.94 67.9558 28.2125C68.5009 28.5189 68.6543 29.7108 68.6543 30.9367C68.6543 32.3498 68.4669 33.2863 67.9728 32.9968Z" fill="#D8D6ED"/>
<defs>
<linearGradient id="paint0_linear" x1="-57.6173" y1="69.6877" x2="-21.9649" y2="153.913" gradientUnits="userSpaceOnUse">
<stop stop-color="#FAD961"/>
<stop offset="1" stop-color="#F76B1C"/>
</linearGradient>
<linearGradient id="paint1_linear" x1="-57.6173" y1="73.2802" x2="-21.9649" y2="157.505" gradientUnits="userSpaceOnUse">
<stop stop-color="#FAD961"/>
<stop offset="1" stop-color="#F76B1C"/>
</linearGradient>
<linearGradient id="paint2_linear" x1="76.2295" y1="86.2432" x2="73.6122" y2="83.5054" gradientUnits="userSpaceOnUse">
<stop stop-color="#928DBD"/>
<stop offset="0.2214" stop-color="#8F89B4"/>
<stop offset="0.6427" stop-color="#9D98C2"/>
<stop offset="1" stop-color="#A29DC7"/>
</linearGradient>
<linearGradient id="paint3_linear" x1="19.2859" y1="72.6085" x2="49.3816" y2="72.6177" gradientUnits="userSpaceOnUse">
<stop stop-color="#148A9E"/>
<stop offset="1" stop-color="#087DC2"/>
</linearGradient>
<linearGradient id="paint4_linear" x1="-19.9034" y1="67.1197" x2="4.26837" y2="124.063" gradientUnits="userSpaceOnUse">
<stop stop-color="#FAD961"/>
<stop offset="1" stop-color="#F76B1C"/>
</linearGradient>
<linearGradient id="paint5_linear" x1="58.1648" y1="100.307" x2="73.5335" y2="60.0952" gradientUnits="userSpaceOnUse">
<stop stop-color="#C18A51"/>
<stop offset="1" stop-color="#EAA341"/>
</linearGradient>
<linearGradient id="paint6_linear" x1="40.6097" y1="88.8355" x2="73.0544" y2="89.1456" gradientUnits="userSpaceOnUse">
<stop stop-color="#FFF0B8"/>
<stop offset="1" stop-color="#FFBE68"/>
</linearGradient>
<linearGradient id="paint7_linear" x1="54.3733" y1="96.5147" x2="69.742" y2="56.303" gradientUnits="userSpaceOnUse">
<stop stop-color="#C18A51"/>
<stop offset="1" stop-color="#EAA341"/>
</linearGradient>
<linearGradient id="paint8_linear" x1="36.8182" y1="85.0433" x2="69.2629" y2="85.3534" gradientUnits="userSpaceOnUse">
<stop stop-color="#FFF0B8"/>
<stop offset="1" stop-color="#FFBE68"/>
</linearGradient>
<linearGradient id="paint9_linear" x1="57.8652" y1="92.0478" x2="75.5304" y2="48.7016" gradientUnits="userSpaceOnUse">
<stop stop-color="#C18A51"/>
<stop offset="1" stop-color="#EAA341"/>
</linearGradient>
<linearGradient id="paint10_linear" x1="39.8086" y1="79.4663" x2="73.1807" y2="79.7654" gradientUnits="userSpaceOnUse">
<stop stop-color="#FFF0B8"/>
<stop offset="1" stop-color="#FFBE68"/>
</linearGradient>
</defs>
</svg>
