<svg width="205" height="239" viewBox="0 0 205 239" fill="none" xmlns="http://www.w3.org/2000/svg">
<path opacity="0.3" d="M99.0086 219.321C153.601 219.321 197.857 193.979 197.857 162.719C197.857 131.458 153.601 106.117 99.0086 106.117C44.4161 106.117 0.160156 131.458 0.160156 162.719C0.160156 193.979 44.4161 219.321 99.0086 219.321Z" fill="url(#paint0_linear)"/>
<path opacity="0.3" d="M99.0086 226.986C153.601 226.986 197.857 201.644 197.857 170.383C197.857 139.123 153.601 113.781 99.0086 113.781C44.4161 113.781 0.160156 139.123 0.160156 170.383C0.160156 201.644 44.4161 226.986 99.0086 226.986Z" fill="url(#paint1_linear)"/>
<path opacity="0.2" d="M173.193 153.676V149.41L173.129 135.364L114.704 101.595H90.4882L32.4476 135.364L32.4155 141.618L32.4476 143.766L32.4155 148.32L32.4476 151.495L32.4155 157.267L32.5116 171.314L90.9366 205.083H115.152L173.193 171.314V165.06V162.431V156.113V153.676Z" fill="#1C4B5F"/>
<path d="M32.5114 159.448V165.702L32.4153 151.655L32.4474 145.402L32.5114 159.448Z" fill="#1B1C1E"/>
<path d="M173.193 159.448V165.67L115.152 199.471V193.217L173.193 159.448Z" fill="url(#paint2_linear)"/>
<path d="M90.9367 193.217V199.471L32.5117 165.702V159.448L90.9367 193.217Z" fill="url(#paint3_linear)"/>
<path d="M115.152 193.217V199.47H90.9365V193.217H115.152Z" fill="url(#paint4_linear)"/>
<path d="M173.129 145.402L173.193 159.448L115.152 193.217H90.9363L32.5113 159.448L32.4473 145.402L90.4879 111.633H114.704L173.129 145.402Z" fill="url(#paint5_linear)"/>
<path d="M32.5114 150.501V157.941L32.4153 142.676L32.4474 136.455L32.5114 150.501Z" fill="#86E9EE"/>
<path d="M173.193 150.501V157.941L115.152 191.71V184.27L173.193 150.501Z" fill="url(#paint6_linear)"/>
<path d="M90.9367 184.27V191.71L32.5117 157.941V150.501L90.9367 184.27Z" fill="url(#paint7_linear)"/>
<path d="M115.152 184.27V191.71H90.9365V184.27H115.152Z" fill="url(#paint8_linear)"/>
<path d="M173.129 136.454L173.193 150.501L115.152 184.27H90.9363L32.5113 150.501L32.4473 136.454L90.4879 102.686H114.704L173.129 136.454Z" fill="#F77723"/>
<path fill-rule="evenodd" clip-rule="evenodd" d="M92.0896 180.004H92.538H114.031L168.965 148.031L168.9 138.891L113.583 106.918H91.6411L36.7075 138.891L36.7716 148.031L92.0896 180.004ZM92.9863 176.605L40.1347 146.043L40.1027 140.816L92.5378 110.318H112.653L165.505 140.88L165.537 146.107L113.102 176.605H92.9863Z" fill="#86E9EE"/>
<path d="M32.5114 143.798V149.314L32.4153 135.973L32.4474 129.752L32.5114 143.798Z" fill="#1B1C1E"/>
<path d="M173.193 143.766V149.314L115.152 183.083V177.567L173.193 143.766Z" fill="url(#paint9_linear)"/>
<path d="M90.9367 177.567V183.083L32.5117 149.314V143.798L90.9367 177.567Z" fill="url(#paint10_linear)"/>
<path d="M115.152 177.567V183.083H90.9365V177.567H115.152Z" fill="url(#paint11_linear)"/>
<path d="M173.129 129.752L173.193 143.766L115.152 177.567H90.9363L32.5113 143.798L32.4473 129.752L90.4879 95.9829H114.704L173.129 129.752Z" fill="url(#paint12_linear)"/>
<path fill-rule="evenodd" clip-rule="evenodd" d="M92.0896 173.302H92.538H114.031L168.965 141.329L168.9 132.189L113.583 100.216H91.6411L36.7075 132.189L36.7716 141.329L92.0896 173.302ZM92.9863 169.902L40.1347 139.34L40.1027 134.113L92.5378 103.615H112.653L165.505 134.177L165.537 139.404L113.102 169.902H92.9863Z" fill="#F77723"/>
<g opacity="0.6">
<path opacity="0.01" d="M204.808 46.1475C202.437 57.4359 192.604 68.3715 175.339 76.9981C135.3 97.0413 70.3403 97.0413 30.3013 76.9981C13.0364 68.3715 3.20283 57.4038 0.83252 46.1475C3.1708 34.8591 13.0044 23.9235 30.3013 15.2649C70.3403 -4.77839 135.3 -4.77839 175.339 15.2649C192.604 23.9235 202.437 34.8591 204.808 46.1475Z" fill="#F77723"/>
<path opacity="0.1667" d="M193.597 61.3482C191.483 71.4821 182.738 81.3273 167.363 89.0881C131.713 107.111 73.8961 107.111 38.2453 89.0881C22.8703 81.3273 14.1258 71.4821 12.0117 61.3482C14.0938 51.2143 22.8703 41.3691 38.2453 33.5763C73.8961 15.5534 131.713 15.5534 167.363 33.5763C182.77 41.337 191.515 51.2143 193.597 61.3482Z" fill="#F77723"/>
<path opacity="0.3333" d="M182.418 76.5494C180.56 85.5608 172.905 94.2836 159.42 101.179C128.157 117.181 77.4836 117.181 46.2211 101.179C32.7359 94.2836 25.0805 85.5608 23.2227 76.5494C25.0484 67.5379 32.7359 58.8151 46.2211 51.8881C77.4836 35.8856 128.157 35.8856 159.42 51.8881C172.905 58.783 180.56 67.5379 182.418 76.5494Z" fill="#F77723"/>
<path opacity="0.5" d="M171.207 91.7498C169.605 99.6068 163.039 107.239 151.444 113.268C124.569 127.25 81.0389 127.25 54.1646 113.268C42.5693 107.239 35.9709 99.6068 34.4014 91.7498C35.9709 83.8928 42.5693 76.2604 54.1646 70.2314C81.0389 56.2492 124.601 56.2492 151.444 70.1993C163.039 76.2283 169.637 83.8608 171.207 91.7498Z" fill="#F77723"/>
<path opacity="0.6667" d="M160.028 106.951C158.715 113.685 153.173 120.195 143.5 125.358C121.046 137.32 84.5943 137.32 62.1404 125.358C52.435 120.195 46.9256 113.685 45.6123 106.951C46.9256 100.216 52.435 93.6741 62.1404 88.543C84.5943 76.6133 121.046 76.6133 143.5 88.543C153.173 93.6741 158.683 100.216 160.028 106.951Z" fill="#F77723"/>
<path opacity="0.8333" d="M148.817 122.12C147.76 127.7 143.307 133.119 135.524 137.417C117.458 147.326 88.1496 147.326 70.084 137.417C62.3004 133.151 57.848 127.7 56.791 122.12C57.848 116.54 62.3004 111.088 70.084 106.823C88.1496 96.9133 117.458 96.9133 135.524 106.823C143.339 111.12 147.76 116.54 148.817 122.12Z" fill="#F77723"/>
<path d="M137.638 137.32C136.837 141.778 133.474 146.075 127.58 149.507C113.903 157.396 91.7371 157.396 78.0598 149.507C72.166 146.107 68.8027 141.778 68.002 137.32C68.8027 132.863 72.166 128.533 78.0598 125.134C91.7371 117.245 113.903 117.245 127.58 125.134C133.474 128.565 136.805 132.895 137.638 137.32Z" fill="#F77723"/>
</g>
<path d="M137.638 137.545C136.838 142.002 133.474 146.299 127.581 149.731C113.903 157.62 91.7375 157.62 78.0602 149.731C72.1664 146.332 68.8032 142.002 68.0024 137.545C66.9453 131.676 70.2766 125.583 78.0602 121.093C91.7375 113.204 113.903 113.204 127.581 121.093C135.332 125.583 138.695 131.676 137.638 137.545Z" fill="url(#paint13_linear)"/>
<path d="M137.638 137.544C136.838 142.002 133.474 146.299 127.581 149.731C113.903 157.62 91.7376 157.62 78.0603 149.731C72.1665 146.331 68.8032 142.002 68.0024 137.544C68.8032 133.087 72.1665 128.758 78.0603 125.358C91.7376 117.469 113.903 117.469 127.581 125.358C133.474 128.758 136.806 133.087 137.638 137.544Z" fill="url(#paint14_linear)"/>
<rect opacity="0.2" x="154.871" y="21.4863" width="2.85078" height="16.0025" fill="#F77723"/>
<rect opacity="0.2" x="108.17" y="55.9287" width="2.85078" height="13.1804" fill="#F77723"/>
<rect opacity="0.2" x="36.0674" y="33.5122" width="2.85078" height="13.1804" fill="#F77723"/>
<rect opacity="0.2" x="167.428" y="79.5957" width="2.85075" height="5.99694" fill="#F77723"/>
<rect opacity="0.2" x="27.3867" y="62.7271" width="2.85078" height="5.99694" fill="#F77723"/>
<rect opacity="0.2" x="68.0024" y="95.021" width="2.85078" height="13.1805" fill="#F77723"/>
<rect opacity="0.2" x="154.135" y="99.9595" width="2.8508" height="3.0145" fill="#F77723"/>
<rect opacity="0.2" x="167.556" y="42.748" width="2.8508" height="3.0145" fill="#F77723"/>
<rect opacity="0.2" x="122.712" y="80.333" width="2.85078" height="3.01451" fill="#F77723"/>
<rect opacity="0.2" x="144.077" y="57.0508" width="2.8508" height="3.01451" fill="#F77723"/>
<rect opacity="0.2" x="88.2144" y="37.0718" width="2.85078" height="3.01451" fill="#F77723"/>
<rect opacity="0.2" x="62.7173" y="13.2124" width="2.85078" height="3.01451" fill="#F77723"/>
<rect opacity="0.2" x="155.288" y="14.7197" width="2.8508" height="2.9183" fill="#F77723"/>
<rect opacity="0.2" x="52.7876" y="89.5693" width="2.85078" height="16.0025" fill="#F77723"/>
<rect opacity="0.2" x="53.2041" y="82.7705" width="2.85078" height="2.9183" fill="#F77723"/>
<rect opacity="0.2" x="136.037" y="34.5063" width="2.8508" height="2.9183" fill="#F77723"/>
<rect opacity="0.2" x="86.5806" y="81.3276" width="2.85078" height="2.9183" fill="#F77723"/>
<rect opacity="0.2" x="6.02197" y="42.7803" width="2.85078" height="2.9183" fill="#F77723"/>
<path fill-rule="evenodd" clip-rule="evenodd" d="M93.3843 102.723C85.0848 97.0074 84.2367 82.2217 91.9061 67.2419C99.6622 52.2574 112.387 44.2066 121.959 47.599C119.723 46.4173 116.688 44.9313 115.346 44.2223C104.982 38.9641 90.3414 45.2958 81.7153 61.9745C73.176 78.6486 75.9622 95.5859 87.0318 99.332L93.3843 102.723Z" fill="#EEEEEE"/>
<g opacity="0.8">
<path fill-rule="evenodd" clip-rule="evenodd" d="M91.3362 49.4057L101.344 54.5093C104.993 51.019 108.961 48.6391 112.825 47.6524L103.712 43.0214C99.5731 43.7625 95.2455 45.9014 91.3362 49.4057Z" fill="url(#paint15_linear)"/>
<path fill-rule="evenodd" clip-rule="evenodd" d="M118.449 47.0055C119.586 47.1183 120.727 47.3176 121.877 47.6899C119.641 46.5083 116.606 45.0222 115.265 44.3132C113.654 43.4451 111.887 42.9322 110.047 42.6835L118.449 47.0055Z" fill="url(#paint16_linear)"/>
<path fill-rule="evenodd" clip-rule="evenodd" d="M81.3217 62.7756C78.6385 68.1226 77.1745 73.4913 76.7341 78.4584L86.8291 83.5574C87.3608 78.6722 88.916 73.3854 91.5948 67.9519L81.3217 62.7756Z" fill="url(#paint17_linear)"/>
<path fill-rule="evenodd" clip-rule="evenodd" d="M78.4299 91.1177C79.1263 92.8152 80.0742 94.3258 81.2736 95.6495L90.9214 100.512C89.8133 99.2703 88.9522 97.7551 88.2602 96.1442L78.4299 91.1177Z" fill="url(#paint18_linear)"/>
</g>
<path fill-rule="evenodd" clip-rule="evenodd" d="M95.5251 103.736C85.2543 100.294 83.0155 83.8479 91.5548 67.1738C100.099 50.5862 114.915 42.5973 123.675 48.8083C131.71 54.4509 131.899 69.9656 124.697 83.8797C117.582 97.7892 104.819 106.796 95.5251 103.736Z" fill="white"/>
<path fill-rule="evenodd" clip-rule="evenodd" d="M95.9226 103.021L99.8007 95.5288C101.932 96.3691 104.362 96.2395 106.752 95.3315L105.724 102.411C109.137 101.102 112.67 98.7452 115.812 95.5421L114.074 90.5177C116.397 88.3122 118.515 85.5106 120.264 82.295L124.193 84.2537C124.271 84.0761 124.349 83.8985 124.514 83.7162C126.73 79.435 128.243 75.0177 128.984 70.8151L123.844 72.3902C124.451 68.9754 124.373 65.7705 123.715 63.117L128.854 58.1594C127.969 54.4772 126.16 51.4514 123.449 49.5144L119.571 57.0066C117.5 55.6427 114.966 55.4309 112.302 56.0934L113.446 47.8797C109.576 48.7799 105.518 51.0779 101.609 54.5822L103.856 61.0539C101.364 63.355 99.1725 66.4208 97.268 69.9916C97.1901 70.1692 97.0299 70.4379 96.952 70.6156L91.6853 68.0344C89.0021 73.3813 87.5381 78.75 87.0932 83.6306L93.6904 81.6308C93.3478 85.1183 93.7684 88.2182 94.8521 90.6756L88.8847 96.4579C90.4423 99.6706 92.8231 101.972 95.9226 103.021Z" fill="url(#paint19_linear)"/>
<path fill-rule="evenodd" clip-rule="evenodd" d="M100.428 94.1941C94.0334 91.673 92.874 80.9803 98.2538 70.5458C103.629 60.0249 113.012 54.6675 118.857 58.3454C124.342 61.7823 124.607 72.0023 119.781 81.3665C115.042 90.7259 106.467 96.5606 100.428 94.1941Z" stroke="white" stroke-width="1.39666" stroke-dasharray="8.29 8.29"/>
<path fill-rule="evenodd" clip-rule="evenodd" d="M101.06 92.9464C95.1081 90.5752 94.0754 80.6562 99.057 70.9369C104.039 61.2175 112.745 56.2432 118.139 59.5982C123.263 62.7941 123.579 72.3176 119.069 81.0577C114.646 89.7933 106.656 95.1631 101.06 92.9464Z" fill="white"/>
<path fill-rule="evenodd" clip-rule="evenodd" d="M101.9 72.1345C98.6064 79.3776 99.2381 86.823 103.507 88.7626C107.778 90.7035 113.809 86.2816 117.103 79.0371C120.398 71.794 119.766 64.3485 115.497 62.4089C111.226 60.4681 105.195 64.89 101.9 72.1345ZM102.833 72.5529C105.925 65.7553 111.46 61.697 115.069 63.3373C118.682 64.9789 119.262 71.8199 116.17 78.6189C113.079 85.4165 107.544 89.4748 103.934 87.8345C100.321 86.1929 99.741 79.3519 102.833 72.5529Z" fill="#F5A623"/>
<path d="M106.748 82.2642L110.706 69.4976L112.664 70.0948L108.706 82.8614L106.748 82.2642Z" fill="#F5A623"/>
<defs>
<linearGradient id="paint0_linear" x1="-122.783" y1="142.827" x2="-47.1133" y2="321.315" gradientUnits="userSpaceOnUse">
<stop stop-color="#FAD961"/>
<stop offset="1" stop-color="#F76B1C"/>
</linearGradient>
<linearGradient id="paint1_linear" x1="-122.783" y1="150.492" x2="-47.1133" y2="328.979" gradientUnits="userSpaceOnUse">
<stop stop-color="#FAD961"/>
<stop offset="1" stop-color="#F76B1C"/>
</linearGradient>
<linearGradient id="paint2_linear" x1="47.3657" y1="199.701" x2="149.658" y2="265.769" gradientUnits="userSpaceOnUse">
<stop offset="0.00510204" stop-color="#D9E1EE"/>
<stop offset="1" stop-color="#AABAD6"/>
</linearGradient>
<linearGradient id="paint3_linear" x1="32.5041" y1="199.468" x2="90.9428" y2="199.468" gradientUnits="userSpaceOnUse">
<stop offset="0.00510204" stop-color="#D9E1EE"/>
<stop offset="1" stop-color="#AABAD6"/>
</linearGradient>
<linearGradient id="paint4_linear" x1="90.9252" y1="199.466" x2="115.16" y2="199.466" gradientUnits="userSpaceOnUse">
<stop offset="0.00510204" stop-color="#D9E1EE"/>
<stop offset="1" stop-color="#AABAD6"/>
</linearGradient>
<linearGradient id="paint5_linear" x1="32.4429" y1="193.221" x2="173.204" y2="193.221" gradientUnits="userSpaceOnUse">
<stop offset="0.00510204" stop-color="#E4E9F2"/>
<stop offset="1" stop-color="#B4C2DA"/>
</linearGradient>
<linearGradient id="paint6_linear" x1="79.0581" y1="163.865" x2="110.628" y2="223.921" gradientUnits="userSpaceOnUse">
<stop stop-color="#FAD961"/>
<stop offset="1" stop-color="#F76B1C"/>
</linearGradient>
<linearGradient id="paint7_linear" x1="-3.82153" y1="163.865" x2="27.6298" y2="224.092" gradientUnits="userSpaceOnUse">
<stop stop-color="#FAD961"/>
<stop offset="1" stop-color="#F76B1C"/>
</linearGradient>
<linearGradient id="paint8_linear" x1="75.8774" y1="186.682" x2="78.8705" y2="199.84" gradientUnits="userSpaceOnUse">
<stop stop-color="#FAD961"/>
<stop offset="1" stop-color="#F76B1C"/>
</linearGradient>
<linearGradient id="paint9_linear" x1="53.0336" y1="175.837" x2="135.517" y2="242.838" gradientUnits="userSpaceOnUse">
<stop offset="0.00510204" stop-color="#D9E1EE"/>
<stop offset="1" stop-color="#AABAD6"/>
</linearGradient>
<linearGradient id="paint10_linear" x1="32.5041" y1="183.086" x2="90.9428" y2="183.086" gradientUnits="userSpaceOnUse">
<stop offset="0.00510204" stop-color="#D9E1EE"/>
<stop offset="1" stop-color="#AABAD6"/>
</linearGradient>
<linearGradient id="paint11_linear" x1="90.9252" y1="183.084" x2="115.16" y2="183.084" gradientUnits="userSpaceOnUse">
<stop offset="0.00510204" stop-color="#D9E1EE"/>
<stop offset="1" stop-color="#AABAD6"/>
</linearGradient>
<linearGradient id="paint12_linear" x1="34.402" y1="185.895" x2="121.466" y2="319.113" gradientUnits="userSpaceOnUse">
<stop offset="0.00510204" stop-color="#E4E9F2"/>
<stop offset="1" stop-color="#B4C2DA"/>
</linearGradient>
<linearGradient id="paint13_linear" x1="170.675" y1="140.925" x2="143.446" y2="77.2984" gradientUnits="userSpaceOnUse">
<stop stop-color="#FAD961"/>
<stop offset="1" stop-color="#F76B1C"/>
</linearGradient>
<linearGradient id="paint14_linear" x1="24.6974" y1="131.183" x2="47.2762" y2="189.837" gradientUnits="userSpaceOnUse">
<stop stop-color="#FAD961"/>
<stop offset="1" stop-color="#F76B1C"/>
</linearGradient>
<linearGradient id="paint15_linear" x1="113.146" y1="53.8799" x2="112.542" y2="42.5504" gradientUnits="userSpaceOnUse">
<stop stop-color="#FAD961"/>
<stop offset="1" stop-color="#F76B1C"/>
</linearGradient>
<linearGradient id="paint16_linear" x1="121.877" y1="47.6899" x2="121.578" y2="42.0684" gradientUnits="userSpaceOnUse">
<stop stop-color="#FAD961"/>
<stop offset="1" stop-color="#F76B1C"/>
</linearGradient>
<linearGradient id="paint17_linear" x1="92.3828" y1="83.2612" x2="91.2619" y2="62.2455" gradientUnits="userSpaceOnUse">
<stop stop-color="#FAD961"/>
<stop offset="1" stop-color="#F76B1C"/>
</linearGradient>
<linearGradient id="paint18_linear" x1="90.9214" y1="100.512" x2="90.3863" y2="90.48" gradientUnits="userSpaceOnUse">
<stop stop-color="#FAD961"/>
<stop offset="1" stop-color="#F76B1C"/>
</linearGradient>
<linearGradient id="paint19_linear" x1="139.044" y1="111.296" x2="135.163" y2="38.5324" gradientUnits="userSpaceOnUse">
<stop stop-color="#FAD961"/>
<stop offset="1" stop-color="#F76B1C"/>
</linearGradient>
</defs>
</svg>
