<svg width="216" height="214" viewBox="0 0 216 214" fill="none" xmlns="http://www.w3.org/2000/svg">
<path opacity="0.3" d="M167.503 125.012C134.893 106.351 81.9562 106.351 49.3032 125.012C16.6502 143.673 16.6502 173.911 49.3032 192.572C81.9562 211.233 134.893 211.233 167.503 192.572C200.156 173.911 200.156 143.673 167.503 125.012Z" fill="url(#paint0_linear)"/>
<path opacity="0.3" d="M167.503 131.491C134.85 112.83 81.9129 112.83 49.3032 131.491C16.6502 150.152 16.6502 180.39 49.3032 199.051C81.9562 217.713 134.893 217.713 167.503 199.051C200.156 180.347 200.156 150.109 167.503 131.491Z" fill="url(#paint1_linear)"/>
<path opacity="0.2" fill-rule="evenodd" clip-rule="evenodd" d="M36.372 179.872C35.2043 179.224 34.6421 178.317 34.6421 177.453V170.498C34.6421 169.634 35.2476 168.77 36.372 168.122L45.4976 162.852L111.106 125.141L118.113 121.124L122.351 118.662C124.643 117.322 128.449 117.322 130.741 118.662L175.331 144.148C176.542 144.839 177.104 145.746 177.061 146.653V153.565C177.061 154.429 176.455 155.293 175.331 155.941L89.352 205.358C87.0598 206.697 83.2539 206.697 80.9617 205.358L36.372 179.872ZM176.978 147.09C176.974 147.099 176.974 147.11 176.974 147.128C176.974 147.085 177.018 147.042 177.018 147.042C176.993 147.067 176.982 147.077 176.978 147.09ZM176.931 147.258C176.931 147.252 176.932 147.247 176.933 147.243C176.931 147.252 176.931 147.258 176.931 147.258ZM176.933 147.243C176.937 147.226 176.947 147.199 176.974 147.172C176.974 147.193 176.964 147.204 176.953 147.215C176.945 147.223 176.937 147.231 176.933 147.243ZM176.866 147.388C176.855 147.398 176.845 147.409 176.845 147.431C176.869 147.406 176.88 147.395 176.884 147.383C176.885 147.381 176.886 147.378 176.886 147.376C176.887 147.374 176.887 147.371 176.887 147.369C176.888 147.362 176.888 147.354 176.888 147.344C176.888 147.366 176.877 147.377 176.866 147.388ZM176.758 147.56C176.758 147.539 176.769 147.528 176.78 147.517C176.791 147.506 176.802 147.496 176.802 147.474C176.802 147.517 176.802 147.56 176.758 147.56ZM176.693 147.69C176.682 147.701 176.672 147.711 176.672 147.733C176.697 147.708 176.707 147.698 176.712 147.685C176.715 147.676 176.715 147.665 176.715 147.647C176.715 147.668 176.704 147.679 176.693 147.69ZM176.585 147.906C176.585 147.884 176.596 147.873 176.607 147.863C176.611 147.858 176.616 147.854 176.619 147.849L176.622 147.844L176.624 147.841L176.625 147.838L176.627 147.833C176.628 147.829 176.628 147.825 176.628 147.82C176.628 147.82 176.585 147.863 176.585 147.906ZM176.326 148.208L176.412 148.122C176.369 148.122 176.326 148.165 176.326 148.208ZM176.239 148.251L176.153 148.338C176.169 148.321 176.186 148.311 176.2 148.302C176.223 148.288 176.239 148.278 176.239 148.251ZM176.027 148.432C176.013 148.441 175.996 148.451 175.98 148.467C176.022 148.467 176.065 148.425 176.066 148.382C176.066 148.408 176.049 148.418 176.027 148.432ZM175.807 148.64C175.828 148.619 175.85 148.608 175.872 148.597C175.893 148.586 175.915 148.575 175.936 148.554C175.893 148.554 175.85 148.597 175.807 148.64ZM175.655 148.727C175.634 148.737 175.612 148.748 175.591 148.77C175.645 148.742 175.683 148.715 175.703 148.699C175.687 148.711 175.671 148.719 175.655 148.727ZM35.637 172.355C35.8532 172.528 36.1127 172.701 36.3722 172.874C36.1127 172.744 35.8532 172.571 35.637 172.355ZM34.7286 170.887C34.707 170.908 34.6961 170.919 34.6961 170.93C34.6961 170.941 34.707 170.951 34.7286 170.973V170.887ZM34.7684 171.108C34.7717 171.117 34.7717 171.127 34.7717 171.146C34.7285 171.103 34.7285 171.059 34.7285 171.059C34.7533 171.084 34.7639 171.095 34.7684 171.108ZM34.815 171.275C34.815 171.257 34.815 171.247 34.8117 171.237C34.8072 171.224 34.7966 171.214 34.7718 171.189C34.815 171.232 34.815 171.275 34.815 171.275ZM34.9882 171.621C34.9882 171.599 34.9774 171.589 34.9666 171.578C34.9558 171.567 34.945 171.556 34.945 171.535C34.945 171.535 34.9882 171.578 34.9882 171.621ZM35.0528 171.707C35.0637 171.718 35.0745 171.729 35.0745 171.751C35.0745 171.751 35.0312 171.707 35.0312 171.664C35.0312 171.686 35.042 171.697 35.0528 171.707ZM35.2043 171.923L35.1178 171.837C35.1446 171.837 35.1548 171.853 35.1689 171.876C35.1776 171.89 35.1878 171.907 35.2043 171.923ZM35.2474 171.967L35.3339 172.053C35.3072 172.053 35.297 172.036 35.2829 172.014C35.2741 172 35.2639 171.983 35.2474 171.967Z" fill="#1C4B5F"/>
<path d="M177.061 139.439V146.437C177.061 147.301 176.498 148.165 175.331 148.813V141.815C176.498 141.167 177.061 140.303 177.061 139.439Z" fill="#CDD1F6"/>
<path d="M177.061 139.439V146.437C177.061 147.301 176.498 148.165 175.331 148.813V141.815C176.498 141.167 177.061 140.303 177.061 139.439V139.439Z" fill="#CDD1F6"/>
<path d="M34.6421 170.368V163.371C34.6421 164.235 35.2043 165.142 36.372 165.79V172.788C35.2043 172.096 34.6421 171.232 34.6421 170.368Z" fill="#CDD1F6"/>
<path d="M36.372 165.79V172.788C35.2043 172.14 34.6421 171.232 34.6421 170.368V163.371C34.6421 164.235 35.2476 165.098 36.372 165.79V165.79Z" fill="#CDD1F6"/>
<path d="M175.331 141.815V148.813L89.3521 198.23V191.232L175.331 141.815Z" fill="#CDD1F6"/>
<path d="M80.9617 191.233V198.23L36.3721 172.787V165.79L80.9617 191.233Z" fill="#CDD1F6"/>
<path d="M89.3517 191.232V198.23C87.0595 199.569 83.2969 199.569 80.9614 198.23V191.232C83.2969 192.572 87.0595 192.572 89.3517 191.232Z" fill="#CDD1F6"/>
<path d="M89.3517 191.232V198.23C87.0595 199.569 83.2969 199.569 80.9614 198.23V191.232C83.2969 192.572 87.0595 192.572 89.3517 191.232V191.232Z" fill="#CDD1F6"/>
<path d="M118.113 113.996L171.093 144.277L98.4775 186.005L45.4976 155.724L118.113 113.996Z" fill="url(#paint2_linear)"/>
<path d="M122.351 111.534C124.643 110.195 128.406 110.195 130.741 111.534L175.331 137.02C177.623 138.359 177.666 140.519 175.374 141.815L171.136 144.277L118.112 113.996L122.351 111.534Z" fill="#F5F5FD"/>
<path d="M36.372 160.995L45.4975 155.725L98.4775 186.006L89.3519 191.232C87.0597 192.572 83.2971 192.572 80.9616 191.232L36.372 165.746C34.0798 164.45 34.0798 162.291 36.372 160.995Z" fill="#F5F5FD"/>
<path d="M59.8562 175.379L65.7381 179.051C67.3383 180.044 69.9765 180.174 71.6632 179.267C73.3066 178.36 73.3499 176.848 71.7497 175.854L65.8246 172.183C64.2244 171.189 61.5862 171.059 59.9427 171.967C58.2993 172.874 58.256 174.386 59.8562 175.379V175.379Z" fill="url(#paint3_linear)"/>
<path d="M45.757 176.848L41.1294 173.954V170.671L45.757 173.565V176.848Z" fill="#F5F5FD"/>
<path d="M42.0807 173.392L45.5839 175.638V176.502L41.3022 173.824V173.824L42.0807 173.392Z" fill="#5C697C"/>
<path d="M45.5842 173.695V175.639L42.0811 173.393V171.449L42.2541 171.578L45.5842 173.695Z" fill="#1B1B1B"/>
<path d="M45.5841 173.997V175.38L42.2539 173.22V171.837L45.5841 173.997Z" fill="#1B1823"/>
<path d="M41.3022 172.96V171.017L42.0807 171.449V173.392L41.3022 173.824V172.96Z" fill="#404040"/>
<path d="M37.064 169.893C37.064 170.887 37.6695 172.053 38.4479 172.485C39.1832 172.917 39.8319 172.442 39.8319 171.448C39.8319 170.455 39.2264 169.289 38.4479 168.857C37.6695 168.468 37.064 168.9 37.064 169.893Z" fill="#1B1B1B"/>
<path d="M39.6589 171.751C38.9237 171.319 38.2749 170.153 38.2749 169.159C38.2749 169.03 38.2749 168.943 38.3182 168.814C37.6262 168.511 37.064 168.943 37.064 169.894C37.064 170.887 37.6694 172.053 38.4479 172.485C39.0967 172.874 39.6589 172.572 39.7886 171.794C39.7454 171.794 39.7021 171.794 39.6589 171.751Z" fill="#5C697C"/>
<path d="M38.8372 172.269C38.1019 171.837 37.4532 170.671 37.4532 169.677C37.4532 169.245 37.583 168.943 37.7559 168.727C37.3235 168.813 37.064 169.202 37.064 169.893C37.064 170.887 37.6695 172.053 38.4479 172.485C38.8804 172.744 39.2697 172.701 39.4859 172.399C39.3129 172.485 39.0534 172.442 38.8372 172.269Z" fill="#CDD1F6"/>
<path d="M155.869 130.757C155.782 130.93 155.609 131.059 155.393 131.189C154.658 131.621 153.447 131.534 152.712 131.102L141.467 124.104C141.251 123.975 141.121 123.845 141.034 123.673C140.818 123.284 140.948 122.809 141.51 122.506C142.245 122.117 143.456 122.117 144.192 122.593L155.393 129.591C155.955 129.979 156.085 130.368 155.869 130.757Z" fill="#CDD1F6"/>
<path d="M155.869 130.757C155.782 130.93 155.609 131.059 155.393 131.189C154.658 131.621 153.447 131.534 152.711 131.102L141.467 124.105C141.25 123.975 141.121 123.845 141.034 123.673C141.121 123.5 141.294 123.327 141.51 123.241C142.245 122.852 143.456 122.895 144.191 123.327L155.393 130.325C155.652 130.455 155.782 130.584 155.869 130.757Z" fill="#21212B"/>
<path d="M172.347 138.575C172.303 138.964 172.044 139.31 171.568 139.569C170.53 140.174 168.844 140.174 167.806 139.569C167.546 139.439 167.373 139.267 167.243 139.094C166.854 138.532 167.027 137.884 167.806 137.409C168.844 136.804 170.53 136.804 171.568 137.409C172.13 137.755 172.39 138.187 172.347 138.575Z" fill="#928DBD"/>
<path d="M171.093 144.277V147.863L98.4775 189.591V186.006L171.093 144.277Z" fill="#F77723"/>
<path opacity="0.5" d="M118.112 113.996L171.092 144.277L164.086 148.294L111.106 118.013L118.112 113.996Z" fill="url(#paint4_linear)"/>
<path fill-rule="evenodd" clip-rule="evenodd" d="M119.41 120.649L124.946 123.802L127.498 122.334L121.962 119.18L119.41 120.649ZM124.946 123.629L119.713 120.649L121.962 119.353L127.195 122.334L124.946 123.629Z" fill="#CDD1F6"/>
<path d="M127.368 122.333L124.946 123.716L121.227 121.599L123.649 120.217L127.368 122.333Z" fill="#CDD1F6"/>
<path d="M134.85 128.338L134.028 127.906L133.12 128.381L133.942 128.856L134.85 128.338Z" fill="#CDD1F6"/>
<path d="M136.71 128.554L135.888 128.079L134.245 129.029L135.066 129.504L136.71 128.554Z" fill="#CDD1F6"/>
<path d="M138.569 128.726L137.748 128.294L135.326 129.634L136.147 130.109L138.569 128.726Z" fill="#CDD1F6"/>
<path fill-rule="evenodd" clip-rule="evenodd" d="M129.011 123.413C128.782 123.258 128.523 123.083 128.233 122.938C127.973 122.809 127.454 122.765 126.633 123.241C125.638 123.759 125.681 124.018 126.027 124.234L126.46 124.493C126.806 124.666 127.152 124.709 127.498 124.493L127.844 124.277C128.146 124.148 128.276 123.975 127.844 123.716C127.627 123.586 127.368 123.457 127.108 123.37C127.325 123.241 127.8 123.025 128.06 123.197L128.882 123.673L129.141 123.5C129.099 123.472 129.056 123.443 129.011 123.413ZM126.763 124.277L126.46 124.105C126.208 123.961 126.434 123.788 126.667 123.609C126.714 123.573 126.762 123.536 126.806 123.5L127.455 123.845C127.584 123.932 127.628 124.018 127.455 124.105L127.195 124.277C127.022 124.407 126.892 124.364 126.763 124.277Z" fill="#CDD1F6"/>
<path d="M129.487 123.672L130.915 124.493L130.828 124.666L127.974 125.4L127.584 125.184L130.223 124.493L129.141 123.888L129.487 123.672Z" fill="#CDD1F6"/>
<path fill-rule="evenodd" clip-rule="evenodd" d="M130.828 124.882C131.088 124.752 131.304 124.709 131.65 124.882L131.953 125.055C132.255 125.228 132.212 125.357 131.953 125.53L131.563 125.746C131.304 125.876 131.088 125.919 130.742 125.746L130.439 125.573C130.136 125.4 130.179 125.271 130.439 125.098L130.828 124.882ZM133.12 125.746L133.38 125.919L129.79 126.437L129.487 126.264L133.12 125.746ZM131.001 125.53L130.742 125.4C130.612 125.357 130.612 125.314 130.742 125.228L131.044 125.055C131.174 124.968 131.261 124.968 131.39 125.055L131.65 125.184C131.78 125.228 131.78 125.271 131.65 125.357L131.347 125.53C131.217 125.616 131.174 125.616 131.001 125.53ZM131.39 126.394C131.65 126.264 131.866 126.221 132.169 126.394L132.472 126.567C132.774 126.739 132.731 126.869 132.472 127.042L132.082 127.258C131.823 127.387 131.607 127.431 131.261 127.258L130.958 127.085C130.655 126.912 130.698 126.783 130.958 126.61L131.39 126.394ZM131.563 127.085L131.304 126.955C131.174 126.869 131.174 126.826 131.304 126.783L131.607 126.61C131.736 126.524 131.823 126.524 131.953 126.61L132.212 126.74C132.342 126.783 132.342 126.826 132.212 126.912L131.909 127.085C131.78 127.171 131.736 127.171 131.563 127.085Z" fill="#CDD1F6"/>
<path d="M140.473 132.399C140.775 132.226 141.294 132.226 141.597 132.399C141.9 132.571 141.9 132.874 141.597 133.047C141.294 133.219 140.775 133.219 140.473 133.047C140.17 132.874 140.17 132.571 140.473 132.399Z" fill="#F5F5FD"/>
<path d="M142.159 132.096C141.813 131.923 141.381 131.794 140.948 131.794V131.491C141.51 131.491 142.116 131.621 142.548 131.88C142.981 132.139 143.197 132.442 143.197 132.787H142.635C142.635 132.528 142.462 132.269 142.159 132.096Z" fill="#F5F5FD"/>
<path d="M143.024 131.621C142.462 131.275 141.683 131.146 140.948 131.146V130.843C141.856 130.843 142.721 131.016 143.413 131.405C144.105 131.794 144.451 132.312 144.451 132.83H143.889C143.846 132.355 143.586 131.923 143.024 131.621Z" fill="#F5F5FD"/>
<path d="M143.803 131.146C143.024 130.714 141.986 130.455 140.948 130.455V130.152C142.116 130.152 143.284 130.412 144.192 130.93C145.1 131.448 145.533 132.096 145.533 132.787H144.97C144.97 132.183 144.581 131.621 143.803 131.146Z" fill="#F5F5FD"/>
<path d="M159.156 143.759L162.529 141.816L158.075 141.427L159.156 143.759Z" fill="#CDD1F6"/>
<path d="M157.08 140.865L156.345 138.316L153.015 140.217L157.08 140.865Z" fill="#CDD1F6"/>
<path d="M157.21 141.34L157.123 140.951L152.885 140.303L159.069 143.802L157.945 141.426L157.21 141.34Z" fill="#CDD1F6"/>
<path d="M162.659 141.772L156.475 138.23L157.34 141.297L162.659 141.772Z" fill="#CDD1F6"/>
<g opacity="0.7">
<path opacity="0.01" d="M118.761 10.4966L204.351 59.3955C204.784 59.6547 204.784 60.2595 204.351 60.5187L86.5842 128.208C86.368 128.338 86.1085 128.338 85.9355 128.208L0.345851 79.3093C-0.086638 79.0501 -0.086638 78.4454 0.345851 78.1862L118.069 10.4966C118.286 10.367 118.545 10.367 118.761 10.4966Z" fill="#F77723"/>
<path opacity="0.1667" d="M118.675 27.8184L198.686 73.5207C199.118 73.7799 199.118 74.3847 198.686 74.6007L88.6169 137.841C88.4007 137.971 88.1845 137.971 87.9682 137.841L7.95767 92.1386C7.52518 91.8794 7.52518 91.2747 7.95767 91.0587L118.069 27.8184C118.242 27.6888 118.502 27.6888 118.675 27.8184Z" fill="#F77723"/>
<path opacity="0.3333" d="M118.631 45.0975L193.02 87.6033C193.409 87.8193 193.409 88.424 193.02 88.64L90.6494 147.474C90.4764 147.561 90.2169 147.561 90.0439 147.474L15.6557 104.968C15.2665 104.752 15.2665 104.148 15.6557 103.932L118.026 45.0975C118.199 45.0111 118.415 45.0111 118.631 45.0975Z" fill="#F77723"/>
<path opacity="0.5" d="M118.545 62.4193L187.354 101.729C187.743 101.944 187.743 102.506 187.354 102.722L92.6388 157.15C92.4658 157.237 92.2496 157.237 92.0766 157.15L23.2675 117.841C22.8783 117.625 22.8783 117.063 23.2675 116.847L117.983 62.4193C118.156 62.3329 118.372 62.3329 118.545 62.4193Z" fill="#F77723"/>
<path opacity="0.6667" d="M118.459 79.6981L181.689 115.811C182.035 116.027 182.035 116.545 181.689 116.718L94.6718 166.783C94.4988 166.87 94.2826 166.87 94.1096 166.783L30.8796 130.67C30.5336 130.454 30.5336 129.936 30.8796 129.763L117.94 79.6981C118.113 79.6117 118.329 79.6117 118.459 79.6981Z" fill="#F77723"/>
<path opacity="0.8333" d="M118.416 97.0199L176.023 129.936C176.369 130.109 176.369 130.627 176.023 130.8L96.7047 176.416C96.5317 176.502 96.3587 176.502 96.1857 176.416L38.5349 143.5C38.1889 143.327 38.1889 142.809 38.5349 142.636L117.897 97.0199C118.07 96.9335 118.243 96.9335 118.416 97.0199Z" fill="#F77723"/>
</g>
<path fill-rule="evenodd" clip-rule="evenodd" d="M67.0497 151.404C59.2327 145.812 58.6361 131.735 66.1481 117.635C73.7427 103.533 85.9671 96.1183 95.0284 99.5257C92.9171 98.3596 90.0499 96.8889 88.7832 96.1893C78.9946 90.9926 64.9715 96.7361 56.5248 112.433C48.1609 128.128 50.5712 144.287 61.0525 148.059L67.0497 151.404Z" fill="#EEEEEE"/>
<g opacity="0.8">
<path fill-rule="evenodd" clip-rule="evenodd" d="M65.8597 100.663L75.3116 105.706C78.8339 102.456 82.6432 100.268 86.3354 99.4034L77.7279 94.8268C73.7789 95.4531 69.6299 97.4051 65.8597 100.663Z" fill="url(#paint5_linear)"/>
<path fill-rule="evenodd" clip-rule="evenodd" d="M91.6954 98.895C92.7758 99.0238 93.8593 99.235 94.9487 99.6108C92.8374 98.4447 89.9703 96.9741 88.7035 96.2744C87.1828 95.4183 85.5088 94.8971 83.7612 94.6257L91.6954 98.895Z" fill="url(#paint6_linear)"/>
<path fill-rule="evenodd" clip-rule="evenodd" d="M56.1387 113.188C53.509 118.222 52.0393 123.299 51.5495 128.015L61.0841 133.055C61.6596 128.419 63.2149 123.421 65.8416 118.305L56.1387 113.188Z" fill="url(#paint7_linear)"/>
<path fill-rule="evenodd" clip-rule="evenodd" d="M52.9832 140.085C53.6219 141.712 54.5025 143.167 55.625 144.448L64.7373 149.255C63.7004 148.053 62.9025 146.596 62.2669 145.051L52.9832 140.085Z" fill="url(#paint8_linear)"/>
</g>
<path fill-rule="evenodd" clip-rule="evenodd" d="M69.0726 152.408C59.3472 148.94 57.4508 133.258 65.8148 117.564C74.1818 101.952 88.3957 94.6356 96.644 100.708C104.21 106.226 104.17 120.983 97.1174 134.078C90.1479 147.171 77.8739 155.494 69.0726 152.408Z" fill="white"/>
<path fill-rule="evenodd" clip-rule="evenodd" d="M69.4616 151.736L73.2589 144.684C75.2755 145.524 77.5896 145.447 79.8767 144.628L78.7978 151.342C82.0647 150.161 85.4607 147.987 88.4962 145L86.9139 140.19C89.1559 138.136 91.2116 135.512 92.9216 132.488L96.6333 134.425C96.7099 134.257 96.7865 134.09 96.9458 133.92C99.1157 129.89 100.618 125.719 101.383 121.736L96.4695 123.137C97.0961 119.901 97.0675 116.851 96.4785 114.316L101.44 109.699C100.65 106.18 98.9714 103.269 96.4199 101.375L92.6226 108.426V108.426C90.6706 107.09 88.2617 106.841 85.7177 107.42L86.9228 99.6311C83.2277 100.414 79.3327 102.522 75.5625 105.78L77.6091 111.977C75.2048 114.118 73.0755 116.992 71.2122 120.352C71.1355 120.519 70.9793 120.772 70.9026 120.939L65.9272 118.385C63.2975 123.419 61.8279 128.496 61.335 133.129L67.6418 131.352C67.2661 134.662 67.6223 137.618 68.6185 139.975L62.8572 145.361C64.2938 148.446 66.5268 150.679 69.4616 151.736Z" fill="url(#paint9_linear)"/>
<path fill-rule="evenodd" clip-rule="evenodd" d="M73.8754 143.428C67.8255 140.909 66.8743 130.719 72.1428 120.898C77.4082 110.995 86.4138 106.078 91.9242 109.687C97.095 113.059 97.2017 122.783 92.4757 131.596C87.8324 140.407 79.5886 145.792 73.8754 143.428Z" stroke="white" stroke-width="0.807986" stroke-dasharray="4.8 4.8"/>
<path fill-rule="evenodd" clip-rule="evenodd" d="M74.4944 142.252C68.8638 139.884 68.0223 130.432 72.9015 121.284C77.7808 112.136 86.1373 107.571 91.2224 110.863C96.0535 114 96.2188 123.062 91.8024 131.288C87.4687 139.511 79.7884 144.466 74.4944 142.252Z" fill="white"/>
<path fill-rule="evenodd" clip-rule="evenodd" d="M75.0088 122.082C70.9355 129.263 70.8813 136.975 75.0555 139.321C79.2311 141.667 85.839 137.636 89.9127 130.454C93.986 123.272 94.0402 115.56 89.866 113.215C85.6904 110.868 79.0825 114.899 75.0088 122.082ZM75.7654 122.503C79.6344 115.682 85.7994 111.921 89.4372 113.965C93.0764 116.01 93.0258 123.21 89.1564 130.032C85.2874 136.853 79.1224 140.615 75.4846 138.57C71.8453 136.525 71.896 129.326 75.7654 122.503Z" fill="#405CD2"/>
<path d="M79.3497 132.495L84.1573 120.747L85.3647 121.236L80.5571 132.984L79.3497 132.495Z" fill="#405CD2"/>
<path fill-rule="evenodd" clip-rule="evenodd" d="M128.622 118.676C121.159 113.493 120.371 100.121 127.23 86.5893C134.167 73.0535 145.578 65.7967 154.179 68.8818C152.169 67.8091 149.441 66.4598 148.235 65.8162C138.919 61.0425 125.784 66.7412 118.069 81.8075C110.432 96.8698 112.965 112.191 122.912 115.599L128.622 118.676Z" fill="#EEEEEE"/>
<g opacity="0.8">
<path fill-rule="evenodd" clip-rule="evenodd" d="M126.686 70.4591L135.682 75.0925C138.952 71.9429 142.51 69.7982 145.978 68.913L137.786 64.7086C134.071 65.3712 130.189 67.2974 126.686 70.4591Z" fill="url(#paint10_linear)"/>
<path fill-rule="evenodd" clip-rule="evenodd" d="M151.026 68.3382C152.048 68.4423 153.073 68.6246 154.106 68.9634C152.096 67.8907 149.368 66.5414 148.162 65.8978C146.714 65.1099 145.127 64.6428 143.474 64.4145L151.026 68.3382Z" fill="url(#paint11_linear)"/>
<path fill-rule="evenodd" clip-rule="evenodd" d="M117.718 82.5314C115.318 87.3616 114.014 92.2136 113.627 96.7045L122.701 101.334C123.17 96.9172 124.556 92.1394 126.952 87.231L117.718 82.5314Z" fill="url(#paint12_linear)"/>
<path fill-rule="evenodd" clip-rule="evenodd" d="M115.174 108.154C115.802 109.691 116.656 111.058 117.735 112.257L126.407 116.672C125.41 115.547 124.634 114.176 124.01 112.718L115.174 108.154Z" fill="url(#paint13_linear)"/>
</g>
<path fill-rule="evenodd" clip-rule="evenodd" d="M130.547 119.596C121.318 116.465 119.278 101.589 126.915 86.5269C134.556 71.5428 147.845 64.3458 155.722 69.9783C162.947 75.0954 163.146 89.1253 156.704 101.694C150.341 114.259 138.898 122.38 130.547 119.596Z" fill="white"/>
<path fill-rule="evenodd" clip-rule="evenodd" d="M130.902 118.951L134.371 112.183C136.287 112.946 138.468 112.834 140.612 112.017L139.702 118.417C142.765 117.239 145.933 115.115 148.748 112.224L147.178 107.677C149.26 105.687 151.157 103.158 152.721 100.253L156.253 102.032C156.323 101.871 156.392 101.711 156.54 101.546C158.522 97.6788 159.872 93.6872 160.53 89.8883L155.918 91.3032C156.457 88.2163 156.381 85.3181 155.784 82.9174L160.39 78.4438C159.588 75.1125 157.959 72.373 155.522 70.6165L152.053 77.3844V77.3844C150.19 76.1472 147.914 75.9511 145.524 76.5452L146.536 69.12C143.063 69.9269 139.423 71.9975 135.919 75.1592L137.949 81.0154C135.716 83.0917 133.754 85.86 132.05 89.0855C131.98 89.246 131.837 89.4887 131.767 89.6491L127.034 87.3054C124.634 92.1356 123.329 96.9876 122.939 101.4L128.859 99.604C128.558 102.757 128.941 105.561 129.919 107.785L124.571 113.003C125.975 115.911 128.117 117.996 130.902 118.951Z" fill="url(#paint14_linear)"/>
<path fill-rule="evenodd" clip-rule="evenodd" d="M134.932 110.977C129.185 108.686 128.124 99.0145 132.936 89.5887C137.744 80.0848 146.159 75.2575 151.414 78.5939C156.345 81.7118 156.602 90.954 152.286 99.4129C148.048 107.868 140.359 113.128 134.932 110.977Z" stroke="white" stroke-width="1.39666" stroke-dasharray="8.29 8.29"/>
<path fill-rule="evenodd" clip-rule="evenodd" d="M135.497 109.849C130.148 107.694 129.203 98.723 133.658 89.9432C138.113 81.1634 145.922 76.6811 150.771 79.7249C155.378 82.6242 155.68 91.2366 151.646 99.1318C147.69 107.023 140.526 111.864 135.497 109.849Z" fill="white"/>
<path fill-rule="evenodd" clip-rule="evenodd" d="M136.207 91.0282C133.265 97.5684 133.85 104.301 137.69 106.065C141.532 107.83 146.941 103.846 149.884 97.3049C152.826 90.7646 152.241 84.0321 148.401 82.2683C144.558 80.5035 139.15 84.4866 136.207 91.0282ZM137.046 91.4086C139.807 85.2705 144.771 81.6148 148.018 83.1064C151.269 84.5991 151.806 90.7853 149.044 96.9246C146.283 103.063 141.319 106.718 138.072 105.227C134.822 103.734 134.284 97.5479 137.046 91.4086Z" fill="#F5A623"/>
<path d="M140.584 100.201L144.115 88.6637L145.875 89.2072L142.343 100.744L140.584 100.201Z" fill="#F5A623"/>
<path d="M117.551 129.85L115.691 128.77V124.277L117.507 125.314L117.551 129.85Z" fill="#F5F5FD"/>
<path d="M117.507 119.871L115.691 118.791L115.647 114.299L117.507 115.336V119.871Z" fill="#F5F5FD"/>
<path d="M117.507 115.336L115.647 114.299L126.633 115.206L128.449 116.286L117.507 115.336Z" fill="#F5F5FD"/>
<path d="M98.91 136.07L97.0503 134.99V129.547L98.8667 130.584L98.91 136.07Z" fill="#F5F5FD"/>
<path d="M128.449 116.286L117.507 129.85V125.314L98.9102 136.07V130.584L117.55 119.828V115.292L128.449 116.286Z" fill="#CDD1F6"/>
<path d="M98.8667 130.584L97.0503 129.548L115.691 118.792L117.507 119.871L98.8667 130.584Z" fill="#F5F5FD"/>
<path d="M109.766 108.511L107.949 107.474L126.59 96.7178L128.406 97.7545L109.766 108.511Z" fill="#F5F5FD"/>
<path d="M98.867 117.539L97.0073 116.502L107.949 102.938L109.766 103.975L98.867 117.539Z" fill="#F5F5FD"/>
<path d="M109.766 108.51L128.406 97.7544V103.197L109.809 113.996V118.532L98.8237 117.582L109.766 104.018V108.51Z" fill="#CDD1F6"/>
<defs>
<linearGradient id="paint0_linear" x1="-79.1514" y1="142.002" x2="-15.3636" y2="292.742" gradientUnits="userSpaceOnUse">
<stop stop-color="#FAD961"/>
<stop offset="1" stop-color="#F76B1C"/>
</linearGradient>
<linearGradient id="paint1_linear" x1="-79.1514" y1="148.482" x2="-15.3636" y2="299.221" gradientUnits="userSpaceOnUse">
<stop stop-color="#FAD961"/>
<stop offset="1" stop-color="#F76B1C"/>
</linearGradient>
<linearGradient id="paint2_linear" x1="-32.6072" y1="137.348" x2="15.5691" y2="250.84" gradientUnits="userSpaceOnUse">
<stop stop-color="#FAD961"/>
<stop offset="1" stop-color="#F76B1C"/>
</linearGradient>
<linearGradient id="paint3_linear" x1="62.4733" y1="180.184" x2="67.7574" y2="174.673" gradientUnits="userSpaceOnUse">
<stop offset="0.00537634" stop-color="#857FAA"/>
<stop offset="0.2214" stop-color="#8F89B4"/>
<stop offset="0.6427" stop-color="#9D98C2"/>
<stop offset="0.9949" stop-color="#A29DC7"/>
</linearGradient>
<linearGradient id="paint4_linear" x1="171.088" y1="113.989" x2="111.093" y2="114.008" gradientUnits="userSpaceOnUse">
<stop stop-color="#148A9E"/>
<stop offset="1" stop-color="#087DC2"/>
</linearGradient>
<linearGradient id="paint5_linear" x1="91.058" y1="88.9786" x2="54.7877" y2="73.284" gradientUnits="userSpaceOnUse">
<stop stop-color="#3023AE"/>
<stop offset="0.475248" stop-color="#53A0FD"/>
<stop offset="1" stop-color="#B4EC51"/>
</linearGradient>
<linearGradient id="paint6_linear" x1="97.3891" y1="91.4899" x2="78.4978" y2="82.6111" gradientUnits="userSpaceOnUse">
<stop stop-color="#3023AE"/>
<stop offset="0.475248" stop-color="#53A0FD"/>
<stop offset="1" stop-color="#B4EC51"/>
</linearGradient>
<linearGradient id="paint7_linear" x1="68.9155" y1="102.738" x2="38.5295" y2="98.3085" gradientUnits="userSpaceOnUse">
<stop stop-color="#3023AE"/>
<stop offset="0.475248" stop-color="#53A0FD"/>
<stop offset="1" stop-color="#B4EC51"/>
</linearGradient>
<linearGradient id="paint8_linear" x1="67.0504" y1="134.831" x2="44.4758" y2="128.96" gradientUnits="userSpaceOnUse">
<stop stop-color="#3023AE"/>
<stop offset="0.475248" stop-color="#53A0FD"/>
<stop offset="1" stop-color="#B4EC51"/>
</linearGradient>
<linearGradient id="paint9_linear" x1="92.1615" y1="87.2318" x2="30.5591" y2="103.097" gradientUnits="userSpaceOnUse">
<stop stop-color="#3023AE"/>
<stop offset="0.475248" stop-color="#53A0FD"/>
<stop offset="1" stop-color="#B4EC51"/>
</linearGradient>
<linearGradient id="paint10_linear" x1="146.277" y1="74.5449" x2="145.748" y2="64.2971" gradientUnits="userSpaceOnUse">
<stop stop-color="#FAD961"/>
<stop offset="1" stop-color="#F76B1C"/>
</linearGradient>
<linearGradient id="paint11_linear" x1="154.106" y1="68.9634" x2="153.844" y2="63.8786" gradientUnits="userSpaceOnUse">
<stop stop-color="#FAD961"/>
<stop offset="1" stop-color="#F76B1C"/>
</linearGradient>
<linearGradient id="paint12_linear" x1="127.688" y1="101.076" x2="126.705" y2="82.0669" gradientUnits="userSpaceOnUse">
<stop stop-color="#FAD961"/>
<stop offset="1" stop-color="#F76B1C"/>
</linearGradient>
<linearGradient id="paint13_linear" x1="126.407" y1="116.672" x2="125.938" y2="107.598" gradientUnits="userSpaceOnUse">
<stop stop-color="#FAD961"/>
<stop offset="1" stop-color="#F76B1C"/>
</linearGradient>
<linearGradient id="paint14_linear" x1="169.638" y1="126.512" x2="166.236" y2="60.696" gradientUnits="userSpaceOnUse">
<stop stop-color="#FAD961"/>
<stop offset="1" stop-color="#F76B1C"/>
</linearGradient>
</defs>
</svg>
