<svg width="1920" height="630" viewBox="0 0 1920 630" fill="none" xmlns="http://www.w3.org/2000/svg">
<rect y="16" width="1920" height="614" fill="#D8D6ED"/>
<path opacity="0.3" d="M1785.38 291.869C1709.19 248.3 1585.5 248.3 1509.2 291.869C1432.9 335.437 1432.9 406.035 1509.2 449.603C1585.5 493.172 1709.19 493.172 1785.38 449.603C1861.68 406.035 1861.68 335.437 1785.38 291.869Z" fill="url(#paint0_linear)"/>
<path opacity="0.3" d="M1785.38 306.997C1709.09 263.428 1585.4 263.428 1509.2 306.997C1432.9 350.565 1432.9 421.162 1509.2 464.731C1585.5 508.299 1709.19 508.299 1785.38 464.731C1861.68 421.062 1861.68 350.464 1785.38 306.997Z" fill="url(#paint1_linear)"/>
<path opacity="0.2" fill-rule="evenodd" clip-rule="evenodd" d="M1478.99 419.952C1476.26 418.439 1474.94 416.321 1474.94 414.304V398.067C1474.94 396.05 1476.36 394.033 1478.99 392.52L1500.31 380.216L1653.61 292.171L1669.98 282.792L1679.88 277.043C1685.24 273.917 1694.13 273.917 1699.49 277.043L1803.68 336.546C1806.51 338.16 1807.82 340.278 1807.72 342.396V358.532C1807.72 360.549 1806.3 362.567 1803.68 364.079L1602.78 479.455C1597.42 482.582 1588.53 482.582 1583.17 479.455L1478.99 419.952ZM1807.52 343.416C1807.52 343.438 1807.52 343.462 1807.52 343.505C1807.52 343.404 1807.62 343.304 1807.62 343.304C1807.56 343.362 1807.53 343.386 1807.52 343.416ZM1807.42 343.772C1807.42 343.776 1807.42 343.781 1807.42 343.785C1807.42 343.792 1807.41 343.8 1807.41 343.808C1807.41 343.808 1807.41 343.803 1807.42 343.794C1807.42 343.789 1807.42 343.781 1807.42 343.772ZM1807.42 343.772C1807.43 343.734 1807.45 343.67 1807.52 343.606C1807.52 343.657 1807.49 343.682 1807.47 343.707C1807.45 343.725 1807.43 343.744 1807.42 343.772ZM1807.26 344.11C1807.24 344.136 1807.21 344.161 1807.21 344.211C1807.27 344.153 1807.3 344.129 1807.31 344.099C1807.31 344.089 1807.31 344.079 1807.31 344.066C1807.31 344.051 1807.31 344.033 1807.31 344.01C1807.31 344.06 1807.29 344.085 1807.26 344.11ZM1807.01 344.514C1807.01 344.463 1807.04 344.438 1807.06 344.413C1807.09 344.388 1807.11 344.363 1807.11 344.312C1807.11 344.413 1807.11 344.514 1807.01 344.514ZM1806.86 344.816C1806.83 344.842 1806.81 344.867 1806.81 344.917C1806.87 344.859 1806.89 344.835 1806.9 344.805C1806.91 344.783 1806.91 344.758 1806.91 344.716C1806.91 344.766 1806.88 344.791 1806.86 344.816ZM1806.61 345.319C1806.61 345.27 1806.63 345.245 1806.66 345.22C1806.68 345.195 1806.71 345.169 1806.71 345.119C1806.71 345.119 1806.61 345.219 1806.61 345.319ZM1806 346.027L1806.2 345.825C1806.1 345.825 1806 345.926 1806 346.027ZM1805.8 346.127L1805.6 346.329C1805.64 346.291 1805.67 346.267 1805.71 346.246C1805.76 346.214 1805.8 346.19 1805.8 346.127ZM1805.3 346.549C1805.27 346.569 1805.23 346.593 1805.19 346.632C1805.29 346.632 1805.39 346.533 1805.39 346.433C1805.39 346.493 1805.35 346.517 1805.3 346.549ZM1804.79 347.035C1804.84 346.985 1804.89 346.959 1804.94 346.934C1804.99 346.909 1805.04 346.884 1805.09 346.833C1804.99 346.833 1804.89 346.934 1804.79 347.035ZM1804.43 347.237C1804.38 347.262 1804.33 347.287 1804.28 347.338C1804.41 347.274 1804.5 347.21 1804.55 347.171C1804.55 347.167 1804.56 347.163 1804.56 347.159C1804.57 347.152 1804.58 347.144 1804.59 347.136C1804.59 347.136 1804.57 347.149 1804.55 347.171C1804.51 347.2 1804.47 347.218 1804.43 347.237ZM1477.27 402.403C1477.77 402.807 1478.38 403.21 1478.99 403.614C1478.38 403.311 1477.77 402.908 1477.27 402.403ZM1475.15 398.975C1475.1 399.025 1475.07 399.05 1475.07 399.075C1475.07 399.101 1475.1 399.126 1475.15 399.176L1475.15 399.176V398.974L1475.15 398.975ZM1475.24 399.49C1475.25 399.512 1475.25 399.537 1475.25 399.58C1475.15 399.479 1475.15 399.378 1475.15 399.378C1475.2 399.436 1475.23 399.461 1475.24 399.49ZM1475.35 399.882C1475.35 399.781 1475.35 399.781 1475.25 399.68C1475.35 399.781 1475.35 399.882 1475.35 399.882ZM1475.75 400.689C1475.75 400.639 1475.73 400.613 1475.7 400.588C1475.68 400.563 1475.65 400.538 1475.65 400.487C1475.65 400.487 1475.75 400.588 1475.75 400.689ZM1475.9 400.891C1475.93 400.916 1475.95 400.941 1475.95 400.992C1475.95 400.992 1475.85 400.891 1475.85 400.79C1475.85 400.84 1475.88 400.865 1475.9 400.891ZM1476.26 401.395L1476.06 401.193C1476.12 401.193 1476.14 401.232 1476.18 401.285C1476.2 401.318 1476.22 401.356 1476.26 401.395ZM1476.36 401.496L1476.56 401.698C1476.5 401.698 1476.47 401.659 1476.44 401.606C1476.42 401.573 1476.4 401.534 1476.36 401.496Z" fill="#1C4B5F"/>
<path d="M1807.72 325.554V341.892C1807.72 343.909 1806.4 345.926 1803.68 347.439V331.101C1806.4 329.588 1807.72 327.571 1807.72 325.554Z" fill="#CDD1F6"/>
<path d="M1807.72 325.554V341.892C1807.72 343.909 1806.4 345.926 1803.68 347.439V331.101C1806.4 329.588 1807.72 327.571 1807.72 325.554V325.554Z" fill="#CDD1F6"/>
<path d="M1474.95 397.764V381.426C1474.95 383.443 1476.26 385.561 1478.99 387.074V403.412C1476.26 401.799 1474.95 399.782 1474.95 397.764Z" fill="#CDD1F6"/>
<path d="M1478.99 387.074V403.412C1476.26 401.899 1474.95 399.782 1474.95 397.764V381.426C1474.95 383.443 1476.36 385.46 1478.99 387.074V387.074Z" fill="#CDD1F6"/>
<path d="M1803.68 331.101V347.439L1602.78 462.815V446.477L1803.68 331.101Z" fill="#CDD1F6"/>
<path d="M1583.18 446.477V462.815L1478.99 403.412V387.074L1583.18 446.477Z" fill="#CDD1F6"/>
<path d="M1602.78 446.477V462.815C1597.42 465.941 1588.63 465.941 1583.18 462.815V446.477C1588.63 449.603 1597.42 449.603 1602.78 446.477Z" fill="#CDD1F6"/>
<path d="M1602.78 446.477V462.815C1597.42 465.941 1588.63 465.941 1583.18 462.815V446.477C1588.63 449.603 1597.42 449.603 1602.78 446.477V446.477Z" fill="#CDD1F6"/>
<path d="M1669.98 266.151L1793.77 336.849L1624.1 434.273L1500.31 363.575L1669.98 266.151Z" fill="url(#paint2_linear)"/>
<path d="M1679.89 260.402C1685.24 257.276 1694.03 257.276 1699.49 260.402L1803.68 319.906C1809.03 323.032 1809.13 328.075 1803.78 331.1L1793.88 336.849L1669.98 266.151L1679.89 260.402Z" fill="#F5F5FD"/>
<path d="M1478.99 375.879L1500.31 363.575L1624.1 434.273L1602.78 446.476C1597.42 449.603 1588.63 449.603 1583.18 446.476L1478.99 386.973C1473.63 383.948 1473.63 378.905 1478.99 375.879Z" fill="#F5F5FD"/>
<path d="M1533.86 409.463L1547.6 418.036C1551.34 420.356 1557.51 420.658 1561.45 418.54C1565.29 416.422 1565.39 412.892 1561.65 410.573L1547.81 402C1544.07 399.681 1537.9 399.378 1534.06 401.496C1530.22 403.614 1530.12 407.144 1533.86 409.463V409.463Z" fill="url(#paint3_linear)"/>
<path d="M1500.92 412.892L1490.1 406.135V398.47L1500.92 405.227V412.892Z" fill="#F5F5FD"/>
<path d="M1492.33 404.824L1500.51 410.068V412.085L1490.51 405.832V405.832L1492.33 404.824Z" fill="#5C697C"/>
<path d="M1500.51 405.53V410.068L1492.33 404.824V400.285L1492.73 400.588L1500.51 405.53Z" fill="#1B1B1B"/>
<path d="M1500.51 406.236V409.463L1492.73 404.42V401.193L1500.51 406.236Z" fill="#1B1823"/>
<path d="M1490.51 403.815V399.277L1492.33 400.285V404.824L1490.51 405.832V403.815Z" fill="#404040"/>
<path d="M1480.6 396.655C1480.6 398.974 1482.02 401.697 1483.84 402.706C1485.56 403.715 1487.07 402.605 1487.07 400.286C1487.07 397.966 1485.66 395.243 1483.84 394.234C1482.02 393.327 1480.6 394.335 1480.6 396.655Z" fill="#1B1B1B"/>
<path d="M1486.67 400.991C1484.95 399.983 1483.43 397.26 1483.43 394.94C1483.43 394.638 1483.43 394.436 1483.53 394.133C1481.92 393.427 1480.6 394.436 1480.6 396.655C1480.6 398.974 1482.02 401.697 1483.84 402.706C1485.35 403.613 1486.67 402.908 1486.97 401.092C1486.87 401.092 1486.77 401.092 1486.67 400.991Z" fill="#5C697C"/>
<path d="M1484.75 402.202C1483.03 401.193 1481.51 398.47 1481.51 396.15C1481.51 395.142 1481.82 394.436 1482.22 393.932C1481.21 394.133 1480.6 395.041 1480.6 396.655C1480.6 398.974 1482.02 401.697 1483.84 402.706C1484.85 403.311 1485.76 403.21 1486.26 402.504C1485.86 402.706 1485.25 402.605 1484.75 402.202Z" fill="#CDD1F6"/>
<path d="M1758.2 305.282C1758 305.686 1757.6 305.988 1757.09 306.291C1755.37 307.299 1752.54 307.098 1750.83 306.089L1724.55 289.751C1724.05 289.448 1723.74 289.146 1723.54 288.742C1723.04 287.835 1723.34 286.725 1724.65 286.019C1726.37 285.112 1729.2 285.112 1730.92 286.221L1757.09 302.559C1758.4 303.467 1758.71 304.375 1758.2 305.282Z" fill="#CDD1F6"/>
<path d="M1758.2 305.282C1758 305.686 1757.6 305.988 1757.09 306.291C1755.37 307.3 1752.54 307.098 1750.83 306.089L1724.55 289.751C1724.05 289.449 1723.74 289.146 1723.54 288.743C1723.74 288.339 1724.15 287.936 1724.65 287.734C1726.37 286.826 1729.2 286.927 1730.92 287.936L1757.09 304.274C1757.7 304.576 1758 304.879 1758.2 305.282Z" fill="#21212B"/>
<path d="M1796.7 323.536C1796.6 324.444 1796 325.251 1794.89 325.856C1792.46 327.268 1788.52 327.268 1786.09 325.856C1785.49 325.553 1785.08 325.15 1784.78 324.747C1783.87 323.436 1784.27 321.923 1786.09 320.813C1788.52 319.401 1792.46 319.401 1794.89 320.813C1796.2 321.62 1796.81 322.629 1796.7 323.536Z" fill="#928DBD"/>
<path d="M1793.77 336.849V345.22L1624.1 442.644V434.273L1793.77 336.849Z" fill="#F77723"/>
<path opacity="0.5" d="M1669.98 266.151L1793.77 336.849L1777.4 346.228L1653.61 275.53L1669.98 266.151Z" fill="url(#paint4_linear)"/>
<path fill-rule="evenodd" clip-rule="evenodd" d="M1673.01 281.682L1685.95 289.045L1691.91 285.616L1678.98 278.253L1673.01 281.682ZM1685.95 288.641L1673.72 281.682L1678.98 278.657L1691.2 285.616L1685.95 288.641Z" fill="#CDD1F6"/>
<path d="M1691.61 285.616L1685.95 288.843L1677.26 283.901L1682.92 280.674L1691.61 285.616Z" fill="#CDD1F6"/>
<path d="M1709.09 299.634L1707.17 298.626L1705.05 299.735L1706.97 300.845L1709.09 299.634Z" fill="#CDD1F6"/>
<path d="M1713.44 300.139L1711.52 299.029L1707.68 301.248L1709.6 302.357L1713.44 300.139Z" fill="#CDD1F6"/>
<path d="M1717.78 300.542L1715.86 299.534L1710.2 302.66L1712.12 303.77L1717.78 300.542Z" fill="#CDD1F6"/>
<path fill-rule="evenodd" clip-rule="evenodd" d="M1695.45 288.135C1694.91 287.775 1694.3 287.366 1693.63 287.028C1693.02 286.725 1691.81 286.624 1689.89 287.734C1687.56 288.944 1687.67 289.549 1688.47 290.053L1689.48 290.659C1690.29 291.062 1691.1 291.163 1691.91 290.659L1692.72 290.154C1693.43 289.852 1693.73 289.448 1692.72 288.843C1692.21 288.541 1691.61 288.238 1691 288.036C1691.51 287.734 1692.62 287.23 1693.22 287.633L1695.14 288.742L1695.75 288.339C1695.65 288.274 1695.55 288.205 1695.45 288.135ZM1690.19 290.154L1689.48 289.751C1688.9 289.416 1689.43 289.011 1689.97 288.595C1690.08 288.51 1690.19 288.424 1690.29 288.339L1691.81 289.146C1692.11 289.348 1692.21 289.549 1691.81 289.751L1691.2 290.154C1690.8 290.457 1690.5 290.356 1690.19 290.154Z" fill="#CDD1F6"/>
<path d="M1696.56 288.742L1699.89 290.658L1699.69 291.062L1693.02 292.776L1692.11 292.272L1698.28 290.658L1695.75 289.246L1696.56 288.742Z" fill="#CDD1F6"/>
<path fill-rule="evenodd" clip-rule="evenodd" d="M1699.69 291.566C1700.3 291.264 1700.8 291.163 1701.61 291.566L1702.32 291.97C1703.03 292.373 1702.93 292.676 1702.32 293.079L1701.41 293.583C1700.8 293.886 1700.3 293.987 1699.49 293.583L1698.78 293.18C1698.08 292.777 1698.18 292.474 1698.78 292.071L1699.69 291.566ZM1705.05 293.583L1705.65 293.987L1697.27 295.197L1696.56 294.794L1705.05 293.583ZM1700.1 293.079L1699.49 292.777C1699.19 292.676 1699.19 292.575 1699.49 292.373L1700.2 291.97C1700.5 291.768 1700.7 291.768 1701.01 291.97L1701.61 292.272C1701.92 292.373 1701.92 292.474 1701.61 292.676L1700.9 293.079C1700.6 293.281 1700.5 293.281 1700.1 293.079ZM1701.01 295.096C1701.61 294.794 1702.12 294.693 1702.83 295.096L1703.53 295.5C1704.24 295.903 1704.14 296.206 1703.53 296.609L1702.62 297.113C1702.02 297.416 1701.51 297.517 1700.7 297.113L1700 296.71C1699.29 296.306 1699.39 296.004 1700 295.6L1701.01 295.096ZM1701.41 296.71L1700.8 296.407C1700.5 296.206 1700.5 296.105 1700.8 296.004L1701.51 295.6C1701.81 295.399 1702.02 295.399 1702.32 295.6L1702.93 295.903C1703.23 296.004 1703.23 296.105 1702.93 296.306L1702.22 296.71C1701.92 296.912 1701.81 296.912 1701.41 296.71Z" fill="#CDD1F6"/>
<path d="M1722.23 309.115C1722.93 308.711 1724.15 308.711 1724.85 309.115C1725.56 309.518 1725.56 310.224 1724.85 310.627C1724.15 311.031 1722.93 311.031 1722.23 310.627C1721.52 310.224 1721.52 309.518 1722.23 309.115Z" fill="#F5F5FD"/>
<path d="M1726.17 308.409C1725.36 308.005 1724.35 307.703 1723.34 307.703V306.997C1724.65 306.997 1726.07 307.299 1727.08 307.904C1728.09 308.509 1728.59 309.215 1728.59 310.022H1727.28C1727.28 309.417 1726.87 308.812 1726.17 308.409Z" fill="#F5F5FD"/>
<path d="M1728.19 307.299C1726.87 306.492 1725.06 306.19 1723.34 306.19V305.484C1725.46 305.484 1727.48 305.887 1729.1 306.795C1730.71 307.703 1731.52 308.913 1731.52 310.123H1730.21C1730.11 309.014 1729.5 308.005 1728.19 307.299Z" fill="#F5F5FD"/>
<path d="M1730.01 306.19C1728.19 305.181 1725.76 304.576 1723.34 304.576V303.87C1726.07 303.87 1728.79 304.475 1730.92 305.685C1733.04 306.896 1734.05 308.408 1734.05 310.022H1732.74C1732.74 308.61 1731.83 307.299 1730.01 306.19Z" fill="#F5F5FD"/>
<path d="M1765.88 335.638L1773.76 331.1L1763.36 330.192L1765.88 335.638Z" fill="#CDD1F6"/>
<path d="M1761.03 328.881L1759.31 322.931L1751.53 327.369L1761.03 328.881Z" fill="#CDD1F6"/>
<path d="M1761.33 329.991L1761.13 329.083L1751.23 327.57L1765.68 335.739L1763.05 330.192L1761.33 329.991Z" fill="#CDD1F6"/>
<path d="M1774.07 330.999L1759.62 322.729L1761.64 329.89L1774.07 330.999Z" fill="#CDD1F6"/>
<g opacity="0.7">
<path opacity="0.01" d="M1671.5 24.5072L1871.48 138.673C1872.49 139.278 1872.49 140.69 1871.48 141.295L1596.31 299.332C1595.81 299.634 1595.2 299.634 1594.8 299.332L1394.81 185.166C1393.8 184.561 1393.8 183.149 1394.81 182.544L1669.88 24.5072C1670.39 24.2046 1670.99 24.2046 1671.5 24.5072Z" fill="#F77723"/>
<path opacity="0.1667" d="M1671.29 64.9491L1858.25 171.652C1859.26 172.257 1859.26 173.669 1858.25 174.173L1601.06 321.822C1600.56 322.124 1600.05 322.124 1599.55 321.822L1412.59 215.119C1411.58 214.514 1411.58 213.102 1412.59 212.598L1669.88 64.9491C1670.28 64.6465 1670.89 64.6465 1671.29 64.9491Z" fill="#F77723"/>
<path opacity="0.3333" d="M1671.19 105.29L1845.01 204.53C1845.92 205.034 1845.92 206.446 1845.01 206.95L1605.81 344.312C1605.41 344.514 1604.8 344.514 1604.4 344.312L1430.58 245.073C1429.67 244.569 1429.67 243.157 1430.58 242.652L1669.78 105.29C1670.18 105.089 1670.69 105.089 1671.19 105.29Z" fill="#F77723"/>
<path opacity="0.5" d="M1670.99 145.733L1831.77 237.509C1832.68 238.013 1832.68 239.324 1831.77 239.829L1610.46 366.904C1610.05 367.105 1609.55 367.105 1609.15 366.904L1448.37 275.127C1447.46 274.623 1447.46 273.312 1448.37 272.808L1669.68 145.733C1670.08 145.531 1670.59 145.531 1670.99 145.733Z" fill="#F77723"/>
<path opacity="0.66" d="M1670.79 186.074L1818.53 270.387C1819.34 270.891 1819.34 272.101 1818.53 272.505L1615.21 389.393C1614.81 389.595 1614.3 389.595 1613.9 389.393L1466.15 305.08C1465.35 304.576 1465.35 303.366 1466.15 302.962L1669.58 186.074C1669.98 185.872 1670.49 185.872 1670.79 186.074Z" fill="#F77723" fill-opacity="0.8"/>
<path opacity="0.8" d="M1670.69 226.516L1805.29 303.366C1806.1 303.769 1806.1 304.98 1805.29 305.383L1619.96 411.884C1619.55 412.086 1619.15 412.086 1618.75 411.884L1484.04 335.034C1483.23 334.631 1483.23 333.42 1484.04 333.017L1669.48 226.516C1669.88 226.314 1670.28 226.314 1670.69 226.516Z" fill="#F77723"/>
</g>
<path fill-rule="evenodd" clip-rule="evenodd" d="M1550.67 353.487C1532.4 340.431 1531.01 307.566 1548.56 274.647C1566.31 241.722 1594.87 224.411 1616.04 232.366C1611.11 229.644 1604.41 226.21 1601.45 224.576C1578.58 212.444 1545.81 225.853 1526.08 262.502C1506.53 299.144 1512.16 336.871 1536.66 345.678L1550.67 353.487Z" fill="#EEEEEE"/>
<g opacity="0.8">
<path fill-rule="evenodd" clip-rule="evenodd" d="M1547.89 235.022L1569.97 246.796C1578.2 239.208 1587.1 234.1 1595.73 232.08L1575.62 221.395C1566.39 222.858 1556.7 227.415 1547.89 235.022Z" fill="url(#paint5_linear)"/>
<path fill-rule="evenodd" clip-rule="evenodd" d="M1608.26 230.893C1610.78 231.194 1613.31 231.687 1615.86 232.564C1610.92 229.842 1604.22 226.408 1601.26 224.775C1597.71 222.776 1593.8 221.559 1589.72 220.925L1608.26 230.893Z" fill="url(#paint6_linear)"/>
<path fill-rule="evenodd" clip-rule="evenodd" d="M1525.17 264.263C1519.03 276.016 1515.6 287.87 1514.45 298.879L1536.73 310.647C1538.07 299.824 1541.71 288.155 1547.85 276.21L1525.17 264.263Z" fill="url(#paint7_linear)"/>
<path fill-rule="evenodd" clip-rule="evenodd" d="M1517.8 327.06C1519.29 330.86 1521.35 334.255 1523.97 337.248L1545.26 348.471C1542.84 345.664 1540.98 342.262 1539.49 338.655L1517.8 327.06Z" fill="url(#paint8_linear)"/>
</g>
<path fill-rule="evenodd" clip-rule="evenodd" d="M1555.39 355.83C1532.67 347.734 1528.24 311.121 1547.78 274.479C1567.33 238.03 1600.54 220.948 1619.82 235.126C1637.5 248.009 1637.4 282.463 1620.92 313.037C1604.64 343.604 1575.96 363.036 1555.39 355.83Z" fill="white"/>
<path fill-rule="evenodd" clip-rule="evenodd" d="M1556.3 354.262L1565.18 337.799C1569.89 339.759 1575.3 339.579 1580.64 337.669L1578.12 353.342C1585.75 350.586 1593.69 345.51 1600.78 338.537L1597.08 327.305C1602.32 322.511 1607.12 316.385 1611.12 309.323L1619.79 313.846C1619.97 313.455 1620.15 313.064 1620.52 312.666C1625.59 303.259 1629.1 293.519 1630.89 284.221L1619.41 287.491C1620.87 279.936 1620.81 272.817 1619.43 266.896L1631.03 256.117C1629.18 247.903 1625.26 241.105 1619.29 236.684L1610.42 253.147V253.147C1605.86 250.027 1600.23 249.445 1594.29 250.798L1597.1 232.612C1588.47 234.44 1579.37 239.362 1570.56 246.969L1575.34 261.437C1569.72 266.436 1564.75 273.145 1560.39 280.989C1560.22 281.38 1559.85 281.97 1559.67 282.36L1548.05 276.397C1541.9 288.149 1538.47 300.004 1537.32 310.82L1552.05 306.672C1551.17 314.4 1552.01 321.301 1554.33 326.805L1540.87 339.379C1544.23 346.581 1549.45 351.796 1556.3 354.262Z" fill="url(#paint9_linear)"/>
<path fill-rule="evenodd" clip-rule="evenodd" d="M1566.62 334.864C1552.48 328.984 1550.26 305.192 1562.57 282.264C1574.87 259.143 1595.91 247.664 1608.79 256.088C1620.87 263.961 1621.12 286.664 1610.08 307.241C1599.23 327.811 1579.97 340.386 1566.62 334.864Z" stroke="white" stroke-width="0.807986" stroke-dasharray="4.8 4.8"/>
<path fill-rule="evenodd" clip-rule="evenodd" d="M1568.06 332.121C1554.91 326.593 1552.94 304.525 1564.34 283.166C1575.74 261.808 1595.27 251.149 1607.15 258.836C1618.44 266.159 1618.82 287.317 1608.5 306.522C1598.38 325.721 1580.43 337.29 1568.06 332.121Z" fill="white"/>
<path fill-rule="evenodd" clip-rule="evenodd" d="M1569.27 285.03C1559.75 301.798 1559.62 319.803 1569.37 325.277C1579.13 330.754 1594.57 321.339 1604.09 304.57C1613.61 287.802 1613.74 269.797 1603.99 264.322C1594.23 258.846 1578.79 268.261 1569.27 285.03ZM1571.04 286.015C1580.08 270.088 1594.49 261.304 1602.98 266.075C1611.49 270.848 1611.36 287.656 1602.32 303.585C1593.28 319.513 1578.87 328.297 1570.37 323.525C1561.87 318.752 1561.99 301.944 1571.04 286.015Z" fill="#405CD2"/>
<path d="M1579.41 309.339L1590.64 281.912L1593.46 283.053L1582.23 310.481L1579.41 309.339Z" fill="#405CD2"/>
<path fill-rule="evenodd" clip-rule="evenodd" d="M1694.54 277.077C1677.1 264.976 1675.26 233.756 1691.28 202.163C1707.49 170.561 1734.16 153.618 1754.25 160.821C1749.56 158.316 1743.18 155.166 1740.36 153.664C1718.6 142.518 1687.91 155.823 1669.88 190.999C1652.04 226.165 1657.95 261.936 1681.19 269.892L1694.54 277.077Z" fill="#EEEEEE"/>
<g opacity="0.8">
<path fill-rule="evenodd" clip-rule="evenodd" d="M1690.01 164.504L1711.03 175.322C1718.67 167.969 1726.99 162.961 1735.09 160.894L1715.95 151.078C1707.27 152.625 1698.2 157.123 1690.01 164.504Z" fill="url(#paint10_linear)"/>
<path fill-rule="evenodd" clip-rule="evenodd" d="M1746.89 159.553C1749.27 159.796 1751.67 160.221 1754.08 161.012C1749.39 158.508 1743.01 155.358 1740.19 153.855C1736.81 152.015 1733.1 150.925 1729.24 150.392L1746.89 159.553Z" fill="url(#paint11_linear)"/>
<path fill-rule="evenodd" clip-rule="evenodd" d="M1669.06 192.689C1663.45 203.966 1660.4 215.294 1659.5 225.779L1680.7 236.587C1681.8 226.276 1685.04 215.121 1690.63 203.661L1669.06 192.689Z" fill="url(#paint12_linear)"/>
<path fill-rule="evenodd" clip-rule="evenodd" d="M1663.11 252.512C1664.58 256.099 1666.58 259.292 1669.1 262.092L1689.36 272.399C1687.03 269.773 1685.22 266.57 1683.76 263.166L1663.11 252.512Z" fill="url(#paint13_linear)"/>
</g>
<path fill-rule="evenodd" clip-rule="evenodd" d="M1699.03 279.225C1677.47 271.915 1672.7 237.184 1690.55 202.018C1708.4 167.034 1739.45 150.231 1757.86 163.381C1774.74 175.328 1775.2 208.084 1760.15 237.429C1745.28 266.765 1718.55 285.726 1699.03 279.225Z" fill="white"/>
<path fill-rule="evenodd" clip-rule="evenodd" d="M1699.86 277.717L1707.97 261.916C1712.44 263.7 1717.54 263.436 1722.55 261.529L1720.43 276.473C1727.58 273.722 1734.98 268.762 1741.56 262.013L1737.89 251.398C1742.76 246.751 1747.19 240.846 1750.85 234.064L1759.1 238.216C1759.26 237.842 1759.42 237.467 1759.77 237.083C1764.4 228.054 1767.55 218.734 1769.09 209.865L1758.31 213.168C1759.57 205.961 1759.4 199.195 1758 193.59L1768.77 183.145C1766.89 175.367 1763.08 168.972 1757.39 164.871L1749.28 180.672V180.672C1744.93 177.783 1739.61 177.325 1734.03 178.713L1736.39 161.377C1728.28 163.261 1719.77 168.095 1711.59 175.477L1716.33 189.149C1711.11 193.997 1706.53 200.46 1702.55 207.991C1702.38 208.365 1702.05 208.932 1701.89 209.307L1690.82 203.835C1685.22 215.112 1682.17 226.44 1681.26 236.742L1695.09 232.549C1694.39 239.91 1695.28 246.456 1697.57 251.649L1685.07 263.831C1688.35 270.621 1693.36 275.49 1699.86 277.717Z" fill="url(#paint14_linear)"/>
<path fill-rule="evenodd" clip-rule="evenodd" d="M1709.28 259.102C1695.85 253.752 1693.37 231.172 1704.62 209.166C1715.85 186.977 1735.51 175.706 1747.79 183.496C1759.31 190.775 1759.91 212.353 1749.83 232.103C1739.93 251.842 1721.96 264.124 1709.28 259.102Z" stroke="white" stroke-width="1.39666" stroke-dasharray="8.29 8.29"/>
<path fill-rule="evenodd" clip-rule="evenodd" d="M1710.6 256.47C1698.1 251.438 1695.89 230.493 1706.3 209.994C1716.71 189.496 1734.96 179.031 1746.29 186.137C1757.05 192.906 1757.76 213.014 1748.33 231.447C1739.09 249.871 1722.35 261.174 1710.6 256.47Z" fill="white"/>
<path fill-rule="evenodd" clip-rule="evenodd" d="M1712.26 212.527C1705.39 227.798 1706.75 243.517 1715.72 247.634C1724.7 251.754 1737.34 242.454 1744.22 227.18C1751.09 211.91 1749.72 196.191 1740.75 192.073C1731.77 187.953 1719.14 197.254 1712.26 212.527ZM1714.22 213.415C1720.67 199.084 1732.27 190.548 1739.86 194.03C1747.45 197.515 1748.71 211.958 1742.25 226.293C1735.8 240.624 1724.2 249.16 1716.62 245.678C1709.02 242.193 1707.77 227.75 1714.22 213.415Z" fill="#F5A623"/>
<path d="M1722.49 233.942L1730.74 207.005L1734.85 208.275L1726.6 235.211L1722.49 233.942Z" fill="#F5A623"/>
<path d="M1668.67 303.164L1664.32 300.643V290.154L1668.57 292.575L1668.67 303.164Z" fill="#F5F5FD"/>
<path d="M1668.57 279.867L1664.32 277.346L1664.22 266.857L1668.57 269.278V279.867Z" fill="#F5F5FD"/>
<path d="M1668.57 269.278L1664.22 266.857L1689.89 268.975L1694.13 271.497L1668.57 269.278Z" fill="#F5F5FD"/>
<path d="M1625.11 317.687L1620.77 315.166V302.458L1625.01 304.879L1625.11 317.687Z" fill="#F5F5FD"/>
<path d="M1694.13 271.497L1668.57 303.165V292.575L1625.11 317.688V304.879L1668.67 279.767V269.177L1694.13 271.497Z" fill="#CDD1F6"/>
<path d="M1625.01 304.879L1620.77 302.459L1664.32 277.346L1668.57 279.868L1625.01 304.879Z" fill="#F5F5FD"/>
<path d="M1650.48 253.343L1646.23 250.922L1689.79 225.81L1694.03 228.231L1650.48 253.343Z" fill="#F5F5FD"/>
<path d="M1625.01 274.421L1620.67 272.001L1646.23 240.333L1650.48 242.753L1625.01 274.421Z" fill="#F5F5FD"/>
<path d="M1650.48 253.343L1694.03 228.23V240.938L1650.58 266.151V276.741L1624.91 274.522L1650.48 242.854V253.343Z" fill="#CDD1F6"/>
<path opacity="0.3" d="M256.983 506.478C366.701 506.478 455.644 455.583 455.644 392.8C455.644 330.017 366.701 279.122 256.983 279.122C147.266 279.122 58.3219 330.017 58.3219 392.8C58.3219 455.583 147.266 506.478 256.983 506.478Z" fill="url(#paint15_linear)"/>
<path opacity="0.3" d="M256.983 521.871C366.701 521.871 455.644 470.976 455.644 408.193C455.644 345.41 366.701 294.515 256.983 294.515C147.266 294.515 58.3219 345.41 58.3219 408.193C58.3219 470.976 147.266 521.871 256.983 521.871Z" fill="url(#paint16_linear)"/>
<path opacity="0.2" d="M406.076 374.637V366.071L405.947 337.861L288.527 270.041H239.86L123.212 337.861L123.148 350.42L123.212 354.735L123.148 363.881L123.212 370.257L123.148 381.851L123.341 410.061L240.761 477.881H289.428L406.076 410.061V397.502V392.22V379.532V374.637Z" fill="#1C4B5F"/>
<path d="M123.34 386.231V398.79L123.147 370.58L123.211 358.021L123.34 386.231Z" fill="#1B1C1E"/>
<path d="M406.076 386.23V398.725L289.428 466.61V454.051L406.076 386.23Z" fill="url(#paint17_linear)"/>
<path d="M240.761 454.051V466.61L123.341 398.79V386.23L240.761 454.051Z" fill="url(#paint18_linear)"/>
<path d="M289.429 454.051V466.611H240.761V454.051H289.429Z" fill="url(#paint19_linear)"/>
<path d="M405.947 358.021L406.075 386.231L289.428 454.051H240.76L123.34 386.231L123.212 358.021L239.859 290.2H288.527L405.947 358.021Z" fill="url(#paint20_linear)"/>
<path d="M123.34 368.261V383.203L123.147 352.546L123.211 340.051L123.34 368.261Z" fill="#86E9EE"/>
<path d="M406.076 368.261V383.203L289.428 451.023V436.081L406.076 368.261Z" fill="url(#paint21_linear)"/>
<path d="M240.761 436.081V451.023L123.341 383.203V368.261L240.761 436.081Z" fill="url(#paint22_linear)"/>
<path d="M289.429 436.081V451.023H240.761V436.081H289.429Z" fill="url(#paint23_linear)"/>
<path d="M405.947 340.051L406.075 368.261L289.428 436.081H240.76L123.34 368.261L123.212 340.051L239.859 272.23H288.527L405.947 340.051Z" fill="#F77723"/>
<path fill-rule="evenodd" clip-rule="evenodd" d="M243.078 427.515H243.979H287.175L397.578 363.301L397.449 344.945L286.273 280.732H242.176L131.773 344.945L131.902 363.301L243.078 427.515ZM244.88 420.688L138.661 359.308L138.597 348.81L243.978 287.559H284.406L390.625 348.939L390.689 359.437L285.307 420.688H244.88Z" fill="#86E9EE"/>
<path d="M123.34 354.8V365.878L123.147 339.085L123.211 326.59L123.34 354.8Z" fill="#1B1C1E"/>
<path d="M406.076 354.736V365.878L289.428 433.699V422.621L406.076 354.736Z" fill="url(#paint24_linear)"/>
<path d="M240.761 422.621V433.699L123.341 365.878V354.8L240.761 422.621Z" fill="url(#paint25_linear)"/>
<path d="M289.429 422.62V433.698H240.761V422.62H289.429Z" fill="url(#paint26_linear)"/>
<path d="M405.947 326.59L406.075 354.736L289.428 422.62H240.76L123.34 354.8L123.212 326.59L239.859 258.77H288.527L405.947 326.59Z" fill="url(#paint27_linear)"/>
<path fill-rule="evenodd" clip-rule="evenodd" d="M243.078 414.055H243.979H287.175L397.578 349.841L397.449 331.485L286.273 267.271H242.176L131.773 331.485L131.902 349.841L243.078 414.055ZM244.88 407.227L138.661 345.848L138.597 335.349L243.978 274.099H284.406L390.625 335.478L390.689 345.977L285.307 407.227H244.88Z" fill="#F77723"/>
<g opacity="0.6">
<path opacity="0.01" d="M469.613 158.681C464.85 181.352 445.086 203.315 410.388 220.641C329.92 260.895 199.367 260.895 118.898 220.641C84.2002 203.315 64.4371 181.288 59.6733 158.681C64.3727 136.01 84.1358 114.047 118.898 96.6575C199.367 56.4032 329.92 56.4032 410.388 96.6575C445.086 114.047 464.85 136.01 469.613 158.681Z" fill="#F77723"/>
<path opacity="0.1667" d="M447.083 189.21C442.834 209.562 425.26 229.335 394.36 244.922C322.71 281.118 206.513 281.118 134.864 244.922C103.964 229.335 86.3895 209.562 82.1407 189.21C86.3251 168.857 103.964 149.084 134.864 133.434C206.513 97.237 322.71 97.237 394.36 133.434C425.324 149.02 442.898 168.857 447.083 189.21Z" fill="#F77723"/>
<path opacity="0.3333" d="M424.616 219.739C420.882 237.837 405.496 255.356 378.394 269.203C315.564 301.342 213.723 301.342 150.893 269.203C123.791 255.356 108.406 237.837 104.672 219.739C108.341 201.641 123.791 184.122 150.893 170.21C213.723 138.071 315.564 138.071 378.394 170.21C405.496 184.058 420.882 201.641 424.616 219.739Z" fill="#F77723"/>
<path opacity="0.5" d="M402.085 250.267C398.866 266.047 385.669 281.376 362.366 293.484C308.355 321.566 220.869 321.566 166.859 293.484C143.555 281.376 130.294 266.047 127.139 250.267C130.294 234.488 143.555 219.159 166.859 207.051C220.869 178.969 308.419 178.969 362.366 206.986C385.669 219.095 398.931 234.423 402.085 250.267Z" fill="#F77723"/>
<path opacity="0.6667" d="M379.618 280.796C376.979 294.322 365.842 307.396 346.401 317.766C301.274 341.79 228.015 341.79 182.888 317.766C163.382 307.396 152.31 294.322 149.671 280.796C152.31 267.271 163.382 254.132 182.888 243.827C228.015 219.868 301.274 219.868 346.401 243.827C365.842 254.132 376.914 267.271 379.618 280.796Z" fill="#F77723"/>
<path opacity="0.8333" d="M357.086 311.261C354.962 322.468 346.014 333.353 330.37 341.983C294.063 361.885 235.16 361.885 198.852 341.983C183.209 333.417 174.261 322.468 172.137 311.261C174.261 300.054 183.209 289.105 198.852 280.539C235.16 260.637 294.063 260.637 330.37 280.539C346.078 289.17 354.962 300.054 357.086 311.261Z" fill="#F77723"/>
<path d="M334.619 341.79C333.01 350.742 326.25 359.373 314.405 366.264C286.917 382.108 242.37 382.108 214.882 366.264C203.037 359.437 196.277 350.742 194.668 341.79C196.277 332.837 203.037 324.142 214.882 317.315C242.37 301.471 286.917 301.471 314.405 317.315C326.25 324.207 332.945 332.902 334.619 341.79Z" fill="#F77723"/>
</g>
<path d="M334.619 342.241C333.01 351.193 326.25 359.824 314.405 366.715C286.917 382.559 242.37 382.559 214.881 366.715C203.036 359.888 196.277 351.193 194.668 342.241C192.543 330.454 199.238 318.217 214.881 309.2C242.37 293.356 286.917 293.356 314.405 309.2C329.984 318.217 336.743 330.454 334.619 342.241Z" fill="url(#paint28_linear)"/>
<path d="M334.619 342.24C333.01 351.193 326.25 359.824 314.405 366.715C286.917 382.559 242.37 382.559 214.882 366.715C203.037 359.888 196.277 351.193 194.668 342.24C196.277 333.288 203.037 324.593 214.882 317.766C242.37 301.922 286.917 301.922 314.405 317.766C326.25 324.593 332.945 333.288 334.619 342.24Z" fill="url(#paint29_linear)"/>
<rect opacity="0.2" x="369.253" y="109.153" width="5.7294" height="32.139" fill="#F77723"/>
<rect opacity="0.2" x="275.395" y="178.326" width="5.72939" height="26.4712" fill="#F77723"/>
<rect opacity="0.2" x="130.486" y="133.305" width="5.72937" height="26.4712" fill="#F77723"/>
<rect opacity="0.2" x="394.488" y="225.857" width="5.72937" height="12.0441" fill="#F77723"/>
<rect opacity="0.2" x="113.041" y="191.979" width="5.72937" height="12.0441" fill="#F77723"/>
<rect opacity="0.2" x="194.668" y="256.837" width="5.72937" height="26.4712" fill="#F77723"/>
<rect opacity="0.2" x="367.773" y="266.756" width="5.72937" height="6.05424" fill="#F77723"/>
<rect opacity="0.2" x="394.745" y="151.854" width="5.7294" height="6.05424" fill="#F77723"/>
<rect opacity="0.2" x="304.62" y="227.339" width="5.72939" height="6.05424" fill="#F77723"/>
<rect opacity="0.2" x="347.559" y="180.58" width="5.7294" height="6.05424" fill="#F77723"/>
<rect opacity="0.2" x="235.289" y="140.454" width="5.72937" height="6.05424" fill="#F77723"/>
<rect opacity="0.2" x="184.046" y="92.5356" width="5.72935" height="6.05424" fill="#F77723"/>
<rect opacity="0.2" x="370.09" y="95.563" width="5.7294" height="5.86102" fill="#F77723"/>
<rect opacity="0.2" x="164.09" y="245.888" width="5.72937" height="32.139" fill="#F77723"/>
<rect opacity="0.2" x="164.926" y="232.234" width="5.72938" height="5.86101" fill="#F77723"/>
<rect opacity="0.2" x="331.401" y="135.302" width="5.7294" height="5.86101" fill="#F77723"/>
<rect opacity="0.2" x="232.005" y="229.335" width="5.72939" height="5.86102" fill="#F77723"/>
<rect opacity="0.2" x="70.1023" y="151.918" width="5.72938" height="5.86102" fill="#F77723"/>
<path fill-rule="evenodd" clip-rule="evenodd" d="M245.679 272.304C228.999 260.826 227.294 231.131 242.708 201.046C258.296 170.952 283.869 154.783 303.107 161.596C298.613 159.223 292.513 156.238 289.817 154.814C268.987 144.254 239.563 156.97 222.227 190.467C205.065 223.955 210.665 257.971 232.912 265.495L245.679 272.304Z" fill="#EEEEEE"/>
<g opacity="0.8">
<path fill-rule="evenodd" clip-rule="evenodd" d="M241.562 165.224L261.677 175.474C269.01 168.464 276.983 163.685 284.751 161.703L266.434 152.402C258.117 153.891 249.419 158.186 241.562 165.224Z" fill="url(#paint30_linear)"/>
<path fill-rule="evenodd" clip-rule="evenodd" d="M296.051 160.404C298.336 160.63 300.63 161.031 302.942 161.778C298.448 159.405 292.349 156.421 289.652 154.997C286.414 153.253 282.864 152.223 279.166 151.723L296.051 160.404Z" fill="url(#paint31_linear)"/>
<path fill-rule="evenodd" clip-rule="evenodd" d="M221.436 192.077C216.044 202.815 213.102 213.598 212.216 223.573L232.505 233.814C233.574 224.003 236.699 213.385 242.083 202.473L221.436 192.077Z" fill="url(#paint32_linear)"/>
<path fill-rule="evenodd" clip-rule="evenodd" d="M215.624 248.997C217.024 252.406 218.929 255.44 221.34 258.099L240.729 267.865C238.502 265.371 236.772 262.328 235.381 259.092L215.624 248.997Z" fill="url(#paint33_linear)"/>
</g>
<path fill-rule="evenodd" clip-rule="evenodd" d="M249.982 274.339C229.34 267.427 224.841 234.397 242.003 200.909C259.173 167.595 288.951 151.55 306.556 164.024C322.704 175.357 323.085 206.516 308.61 234.461C294.31 262.396 268.661 280.485 249.982 274.339Z" fill="white"/>
<path fill-rule="evenodd" clip-rule="evenodd" d="M250.78 272.903L258.574 257.856C262.858 259.544 267.741 259.284 272.544 257.46L270.478 271.679C277.338 269.049 284.439 264.316 290.753 257.883L287.26 247.792C291.929 243.363 296.186 237.736 299.7 231.278L307.597 235.212C307.754 234.855 307.91 234.498 308.241 234.132C312.695 225.534 315.736 216.663 317.225 208.222L306.895 211.386C308.115 204.527 307.959 198.091 306.635 192.761L316.965 182.805C315.185 175.41 311.549 169.333 306.102 165.442L298.308 180.49V180.49C294.145 177.75 289.052 177.325 283.699 178.655L285.997 162.159C278.221 163.967 270.064 168.583 262.208 175.62L266.724 188.618C261.716 193.24 257.312 199.397 253.484 206.568C253.327 206.925 253.005 207.465 252.849 207.821L242.264 202.637C236.871 213.376 233.929 224.158 233.035 233.96L246.294 229.944C245.605 236.948 246.451 243.174 248.629 248.109L236.636 259.722C239.766 266.175 244.551 270.797 250.78 272.903Z" fill="url(#paint34_linear)"/>
<path fill-rule="evenodd" clip-rule="evenodd" d="M259.836 255.176C246.984 250.113 244.654 228.638 255.466 207.682C266.269 186.552 285.127 175.792 296.874 183.179C307.897 190.081 308.43 210.607 298.731 229.414C289.206 248.211 271.973 259.929 259.836 255.176Z" stroke="white" stroke-width="1.39666" stroke-dasharray="8.29 8.29"/>
<path fill-rule="evenodd" clip-rule="evenodd" d="M261.106 252.67C249.144 247.907 247.068 227.987 257.08 208.467C267.092 188.947 284.59 178.956 295.43 185.694C305.728 192.113 306.364 211.24 297.3 228.793C288.41 246.337 272.352 257.122 261.106 252.67Z" fill="white"/>
<path fill-rule="evenodd" clip-rule="evenodd" d="M262.796 210.873C256.175 225.42 257.444 240.374 266.022 244.269C274.605 248.166 286.726 239.285 293.348 224.735C299.968 210.187 298.7 195.234 290.122 191.339C281.538 187.441 269.417 196.323 262.796 210.873ZM264.67 211.713C270.883 198.061 282.007 189.909 289.261 193.203C296.521 196.5 297.687 210.239 291.473 223.895C285.259 237.547 274.135 245.699 266.881 242.405C259.621 239.108 258.455 225.368 264.67 211.713Z" fill="#F5A623"/>
<path d="M272.537 231.217L280.493 205.576L284.428 206.776L276.473 232.416L272.537 231.217Z" fill="#F5A623"/>
<defs>
<linearGradient id="paint0_linear" x1="1209.06" y1="331.537" x2="1357.9" y2="683.558" gradientUnits="userSpaceOnUse">
<stop stop-color="#FAD961"/>
<stop offset="1" stop-color="#F76B1C"/>
</linearGradient>
<linearGradient id="paint1_linear" x1="1209.06" y1="346.665" x2="1357.9" y2="698.686" gradientUnits="userSpaceOnUse">
<stop stop-color="#FAD961"/>
<stop offset="1" stop-color="#F76B1C"/>
</linearGradient>
<linearGradient id="paint2_linear" x1="1793.78" y1="266.139" x2="1500.3" y2="266.139" gradientUnits="userSpaceOnUse">
<stop stop-color="#F76B1C"/>
<stop offset="1" stop-color="#FAD961"/>
</linearGradient>
<linearGradient id="paint3_linear" x1="1539.98" y1="420.681" x2="1552.31" y2="407.806" gradientUnits="userSpaceOnUse">
<stop offset="0.00537634" stop-color="#857FAA"/>
<stop offset="0.2214" stop-color="#8F89B4"/>
<stop offset="0.6427" stop-color="#9D98C2"/>
<stop offset="0.9949" stop-color="#A29DC7"/>
</linearGradient>
<linearGradient id="paint4_linear" x1="1793.76" y1="266.135" x2="1653.58" y2="266.178" gradientUnits="userSpaceOnUse">
<stop stop-color="#148A9E"/>
<stop offset="1" stop-color="#087DC2"/>
</linearGradient>
<linearGradient id="paint5_linear" x1="1606.77" y1="207.741" x2="1522.04" y2="171.049" gradientUnits="userSpaceOnUse">
<stop stop-color="#3023AE"/>
<stop offset="0.475248" stop-color="#53A0FD"/>
<stop offset="1" stop-color="#B4EC51"/>
</linearGradient>
<linearGradient id="paint6_linear" x1="1621.56" y1="213.604" x2="1577.43" y2="192.848" gradientUnits="userSpaceOnUse">
<stop stop-color="#3023AE"/>
<stop offset="0.475248" stop-color="#53A0FD"/>
<stop offset="1" stop-color="#B4EC51"/>
</linearGradient>
<linearGradient id="paint7_linear" x1="1555.03" y1="239.866" x2="1484.03" y2="229.507" gradientUnits="userSpaceOnUse">
<stop stop-color="#3023AE"/>
<stop offset="0.475248" stop-color="#53A0FD"/>
<stop offset="1" stop-color="#B4EC51"/>
</linearGradient>
<linearGradient id="paint8_linear" x1="1550.67" y1="314.793" x2="1497.93" y2="301.065" gradientUnits="userSpaceOnUse">
<stop stop-color="#3023AE"/>
<stop offset="0.475248" stop-color="#53A0FD"/>
<stop offset="1" stop-color="#B4EC51"/>
</linearGradient>
<linearGradient id="paint9_linear" x1="1609.34" y1="203.663" x2="1465.42" y2="240.76" gradientUnits="userSpaceOnUse">
<stop stop-color="#3023AE"/>
<stop offset="0.475248" stop-color="#53A0FD"/>
<stop offset="1" stop-color="#B4EC51"/>
</linearGradient>
<linearGradient id="paint10_linear" x1="1735.79" y1="174.043" x2="1734.55" y2="150.118" gradientUnits="userSpaceOnUse">
<stop stop-color="#FAD961"/>
<stop offset="1" stop-color="#F76B1C"/>
</linearGradient>
<linearGradient id="paint11_linear" x1="1754.08" y1="161.012" x2="1753.47" y2="149.141" gradientUnits="userSpaceOnUse">
<stop stop-color="#FAD961"/>
<stop offset="1" stop-color="#F76B1C"/>
</linearGradient>
<linearGradient id="paint12_linear" x1="1692.35" y1="235.986" x2="1690.06" y2="191.604" gradientUnits="userSpaceOnUse">
<stop stop-color="#FAD961"/>
<stop offset="1" stop-color="#F76B1C"/>
</linearGradient>
<linearGradient id="paint13_linear" x1="1689.36" y1="272.399" x2="1688.27" y2="251.213" gradientUnits="userSpaceOnUse">
<stop stop-color="#FAD961"/>
<stop offset="1" stop-color="#F76B1C"/>
</linearGradient>
<linearGradient id="paint14_linear" x1="1790.37" y1="295.372" x2="1782.44" y2="141.708" gradientUnits="userSpaceOnUse">
<stop stop-color="#FAD961"/>
<stop offset="1" stop-color="#F76B1C"/>
</linearGradient>
<linearGradient id="paint15_linear" x1="-188.764" y1="352.851" x2="-36.8642" y2="711.394" gradientUnits="userSpaceOnUse">
<stop stop-color="#FAD961"/>
<stop offset="1" stop-color="#F76B1C"/>
</linearGradient>
<linearGradient id="paint16_linear" x1="-188.764" y1="368.244" x2="-36.8642" y2="726.787" gradientUnits="userSpaceOnUse">
<stop stop-color="#FAD961"/>
<stop offset="1" stop-color="#F76B1C"/>
</linearGradient>
<linearGradient id="paint17_linear" x1="153.194" y1="467.073" x2="358.692" y2="599.891" gradientUnits="userSpaceOnUse">
<stop offset="0.00510204" stop-color="#D9E1EE"/>
<stop offset="1" stop-color="#AABAD6"/>
</linearGradient>
<linearGradient id="paint18_linear" x1="123.325" y1="466.606" x2="240.773" y2="466.606" gradientUnits="userSpaceOnUse">
<stop offset="0.00510204" stop-color="#D9E1EE"/>
<stop offset="1" stop-color="#AABAD6"/>
</linearGradient>
<linearGradient id="paint19_linear" x1="240.738" y1="466.601" x2="289.444" y2="466.601" gradientUnits="userSpaceOnUse">
<stop offset="0.00510204" stop-color="#D9E1EE"/>
<stop offset="1" stop-color="#AABAD6"/>
</linearGradient>
<linearGradient id="paint20_linear" x1="123.203" y1="454.06" x2="406.097" y2="454.06" gradientUnits="userSpaceOnUse">
<stop offset="0.00510204" stop-color="#E4E9F2"/>
<stop offset="1" stop-color="#B4C2DA"/>
</linearGradient>
<linearGradient id="paint21_linear" x1="216.888" y1="395.1" x2="280.266" y2="515.751" gradientUnits="userSpaceOnUse">
<stop stop-color="#FAD961"/>
<stop offset="1" stop-color="#F76B1C"/>
</linearGradient>
<linearGradient id="paint22_linear" x1="50.3197" y1="395.1" x2="113.461" y2="516.094" gradientUnits="userSpaceOnUse">
<stop stop-color="#FAD961"/>
<stop offset="1" stop-color="#F76B1C"/>
</linearGradient>
<linearGradient id="paint23_linear" x1="210.496" y1="440.927" x2="216.503" y2="467.355" gradientUnits="userSpaceOnUse">
<stop stop-color="#FAD961"/>
<stop offset="1" stop-color="#F76B1C"/>
</linearGradient>
<linearGradient id="paint24_linear" x1="164.585" y1="419.147" x2="330.265" y2="553.822" gradientUnits="userSpaceOnUse">
<stop offset="0.00510204" stop-color="#D9E1EE"/>
<stop offset="1" stop-color="#AABAD6"/>
</linearGradient>
<linearGradient id="paint25_linear" x1="123.325" y1="433.705" x2="240.773" y2="433.705" gradientUnits="userSpaceOnUse">
<stop offset="0.00510204" stop-color="#D9E1EE"/>
<stop offset="1" stop-color="#AABAD6"/>
</linearGradient>
<linearGradient id="paint26_linear" x1="240.738" y1="433.7" x2="289.444" y2="433.7" gradientUnits="userSpaceOnUse">
<stop offset="0.00510204" stop-color="#D9E1EE"/>
<stop offset="1" stop-color="#AABAD6"/>
</linearGradient>
<linearGradient id="paint27_linear" x1="127.14" y1="439.346" x2="301.949" y2="707.008" gradientUnits="userSpaceOnUse">
<stop offset="0.00510204" stop-color="#E4E9F2"/>
<stop offset="1" stop-color="#B4C2DA"/>
</linearGradient>
<linearGradient id="paint28_linear" x1="401.015" y1="349.029" x2="346.354" y2="221.217" gradientUnits="userSpaceOnUse">
<stop stop-color="#FAD961"/>
<stop offset="1" stop-color="#F76B1C"/>
</linearGradient>
<linearGradient id="paint29_linear" x1="107.635" y1="329.463" x2="152.959" y2="447.284" gradientUnits="userSpaceOnUse">
<stop stop-color="#FAD961"/>
<stop offset="1" stop-color="#F76B1C"/>
</linearGradient>
<linearGradient id="paint30_linear" x1="285.395" y1="174.21" x2="284.182" y2="151.456" gradientUnits="userSpaceOnUse">
<stop stop-color="#FAD961"/>
<stop offset="1" stop-color="#F76B1C"/>
</linearGradient>
<linearGradient id="paint31_linear" x1="302.942" y1="161.778" x2="302.34" y2="150.488" gradientUnits="userSpaceOnUse">
<stop stop-color="#FAD961"/>
<stop offset="1" stop-color="#F76B1C"/>
</linearGradient>
<linearGradient id="paint32_linear" x1="243.667" y1="233.219" x2="241.417" y2="191.012" gradientUnits="userSpaceOnUse">
<stop stop-color="#FAD961"/>
<stop offset="1" stop-color="#F76B1C"/>
</linearGradient>
<linearGradient id="paint33_linear" x1="240.729" y1="267.865" x2="239.655" y2="247.716" gradientUnits="userSpaceOnUse">
<stop stop-color="#FAD961"/>
<stop offset="1" stop-color="#F76B1C"/>
</linearGradient>
<linearGradient id="paint34_linear" x1="337.444" y1="289.523" x2="329.655" y2="143.386" gradientUnits="userSpaceOnUse">
<stop stop-color="#FAD961"/>
<stop offset="1" stop-color="#F76B1C"/>
</linearGradient>
</defs>
</svg>
