<svg width="724" height="80" viewBox="0 0 724 80" fill="none" xmlns="http://www.w3.org/2000/svg">
<path fill-rule="evenodd" clip-rule="evenodd" d="M19.1194 3.02986C19.5646 1.24919 21.1645 0 23 0L719.754 0C722.356 0 724.266 2.44556 723.634 4.97014L705.634 76.9701C705.189 78.7508 703.589 80 701.754 80H5C2.39772 80 0.488283 77.5544 1.11943 75.0299L19.1194 3.02986Z" fill="#D1CFE6"/>
<path opacity="0.1" fill-rule="evenodd" clip-rule="evenodd" d="M17.953 3.03821C18.3951 1.25347 19.9969 0 21.8356 0L106 0C108.599 0 110.507 2.4393 109.883 4.96179L92.047 76.9618C91.6049 78.7465 90.0031 80 88.1644 80H4.00007C1.40134 80 -0.507447 77.5607 0.117415 75.0382L17.953 3.03821Z" fill="url(#paint0_linear)"/>
<path fill-rule="evenodd" clip-rule="evenodd" d="M57.1002 45.3197C54.785 45.1538 52.6559 43.9906 51.2656 42.1319C50.8245 41.5423 50.945 40.7067 51.5346 40.2656C52.1243 39.8245 52.9599 39.945 53.401 40.5347C54.3279 41.7738 55.7472 42.5493 57.2907 42.6598C58.8342 42.7703 60.3496 42.2051 61.4438 41.1105L65.4276 37.127C67.4488 35.0343 67.4198 31.7079 65.3626 29.6506C63.3054 27.5934 59.9789 27.5645 57.9 29.5722L55.6067 31.8522C55.0845 32.3714 54.2402 32.3689 53.7211 31.8467C53.2019 31.3245 53.2043 30.4802 53.7266 29.9611L56.0337 27.6676C59.1727 24.6358 64.1623 24.6792 67.2482 27.765C70.3341 30.8509 70.3774 35.8405 67.3294 38.9961L63.3296 42.9959C61.6886 44.6375 59.4155 45.4855 57.1002 45.3197ZM52.8997 34.6803C55.2149 34.8461 57.344 36.0093 58.7343 37.868C59.1754 38.4577 59.0549 39.2932 58.4653 39.7343C57.8756 40.1754 57.04 40.0549 56.5989 39.4653C55.6721 38.2261 54.2527 37.4506 52.7092 37.3401C51.1657 37.2296 49.6503 37.7949 48.5561 38.8894L44.5723 42.8729C42.5512 44.9656 42.5801 48.292 44.6373 50.3493C46.6946 52.4065 50.021 52.4354 52.0972 50.4305L54.3772 48.1505C54.8979 47.6298 55.7421 47.6298 56.2628 48.1505C56.7835 48.6712 56.7835 49.5154 56.2628 50.0361L53.9662 52.3323C50.8272 55.3641 45.8376 55.3208 42.7517 52.2349C39.6658 49.149 39.6225 44.1594 42.6705 41.0038L46.6703 37.004C48.3113 35.3624 50.5844 34.5144 52.8997 34.6803Z" fill="black"/>
<mask id="mask0" mask-type="alpha" maskUnits="userSpaceOnUse" x="40" y="25" width="30" height="30">
<path fill-rule="evenodd" clip-rule="evenodd" d="M57.1002 45.3197C54.785 45.1538 52.6559 43.9906 51.2656 42.1319C50.8245 41.5423 50.945 40.7067 51.5346 40.2656C52.1243 39.8245 52.9599 39.945 53.401 40.5347C54.3279 41.7738 55.7472 42.5493 57.2907 42.6598C58.8342 42.7703 60.3496 42.2051 61.4438 41.1105L65.4276 37.127C67.4488 35.0343 67.4198 31.7079 65.3626 29.6506C63.3054 27.5934 59.9789 27.5645 57.9 29.5722L55.6067 31.8522C55.0845 32.3714 54.2402 32.3689 53.7211 31.8467C53.2019 31.3245 53.2043 30.4802 53.7266 29.9611L56.0337 27.6676C59.1727 24.6358 64.1623 24.6792 67.2482 27.765C70.3341 30.8509 70.3774 35.8405 67.3294 38.9961L63.3296 42.9959C61.6886 44.6375 59.4155 45.4855 57.1002 45.3197ZM52.8997 34.6803C55.2149 34.8461 57.344 36.0093 58.7343 37.868C59.1754 38.4577 59.0549 39.2932 58.4653 39.7343C57.8756 40.1754 57.04 40.0549 56.5989 39.4653C55.6721 38.2261 54.2527 37.4506 52.7092 37.3401C51.1657 37.2296 49.6503 37.7949 48.5561 38.8894L44.5723 42.8729C42.5512 44.9656 42.5801 48.292 44.6373 50.3493C46.6946 52.4065 50.021 52.4354 52.0972 50.4305L54.3772 48.1505C54.8979 47.6298 55.7421 47.6298 56.2628 48.1505C56.7835 48.6712 56.7835 49.5154 56.2628 50.0361L53.9662 52.3323C50.8272 55.3641 45.8376 55.3208 42.7517 52.2349C39.6658 49.149 39.6225 44.1594 42.6705 41.0038L46.6703 37.004C48.3113 35.3624 50.5844 34.5144 52.8997 34.6803Z" fill="white"/>
</mask>
<g mask="url(#mask0)">
<rect x="39" y="24" width="32" height="32" fill="#2C3769"/>
</g>
<defs>
<linearGradient id="paint0_linear" x1="0" y1="0" x2="0" y2="80" gradientUnits="userSpaceOnUse">
<stop stop-color="#2E51CA"/>
<stop offset="1" stop-color="#1F38DC"/>
</linearGradient>
</defs>
</svg>
