<svg width="446" height="520" viewBox="0 0 446 520" fill="none" xmlns="http://www.w3.org/2000/svg">
<path opacity="0.3" d="M222.5 456.375C328.829 456.375 415.026 407.062 415.026 346.231C415.026 285.401 328.829 236.088 222.5 236.088C116.171 236.088 29.9744 285.401 29.9744 346.231C29.9744 407.062 116.171 456.375 222.5 456.375Z" fill="url(#paint0_linear)"/>
<path opacity="0.3" d="M222.5 471.253C328.829 471.253 415.026 421.94 415.026 361.109C415.026 300.279 328.829 250.966 222.5 250.966C116.171 250.966 29.9744 300.279 29.9744 361.109C29.9744 421.94 116.171 471.253 222.5 471.253Z" fill="url(#paint1_linear)"/>
<path opacity="0.01" d="M275.993 75.3128C275.993 42.6734 249.592 16.262 216.967 16.262C184.341 16.262 157.941 42.6734 157.941 75.3128C157.941 107.952 184.341 134.364 216.967 134.364C249.592 134.364 275.993 107.952 275.993 75.3128Z" fill="#F77723"/>
<path opacity="0.1039" d="M268.846 75.3127C268.846 46.71 245.673 23.4126 216.967 23.4126C188.377 23.4126 165.089 46.5946 165.089 75.3127C165.089 103.915 188.262 127.213 216.967 127.213C245.558 127.213 268.846 103.915 268.846 75.3127Z" fill="#F77723"/>
<path opacity="0.2078" d="M261.696 75.3127C261.696 50.6313 241.637 30.5632 216.966 30.5632C192.295 30.5632 172.235 50.6313 172.235 75.3127C172.235 99.994 192.295 120.062 216.966 120.062C241.637 120.062 261.696 99.994 261.696 75.3127Z" fill="#F77723"/>
<path opacity="0.3117" d="M254.549 75.3129C254.549 54.5528 237.718 37.7141 216.966 37.7141C196.215 37.7141 179.383 54.5528 179.383 75.3129C179.383 96.0729 196.215 112.912 216.966 112.912C237.718 112.912 254.549 96.0729 254.549 75.3129Z" fill="#F77723"/>
<path opacity="0.4156" d="M247.402 75.3128C247.402 58.4741 233.799 44.8647 216.967 44.8647C200.135 44.8647 186.532 58.4741 186.532 75.3128C186.532 92.1515 200.135 105.761 216.967 105.761C233.799 105.761 247.402 92.1515 247.402 75.3128Z" fill="#F77723"/>
<path opacity="0.5195" d="M240.255 75.3128C240.255 62.5107 229.88 52.0154 216.968 52.0154C204.171 52.0154 193.68 62.3954 193.68 75.3128C193.68 88.1148 204.056 98.6101 216.968 98.6101C229.764 98.6101 240.255 88.1148 240.255 75.3128Z" fill="#F77723"/>
<path opacity="0.6234" d="M233.106 75.3127C233.106 66.432 225.843 59.166 216.966 59.166C208.089 59.166 200.826 66.432 200.826 75.3127C200.826 84.1934 208.089 91.4594 216.966 91.4594C225.843 91.4594 233.106 84.1934 233.106 75.3127Z" fill="#F77723"/>
<path opacity="0.7273" d="M225.959 75.3127C225.959 70.3533 221.924 66.3167 216.967 66.3167C212.009 66.3167 207.974 70.3533 207.974 75.3127C207.974 80.272 212.009 84.3087 216.967 84.3087C221.924 84.3087 225.959 80.272 225.959 75.3127Z" fill="#F77723"/>
<g opacity="0.6">
<g opacity="0.5">
<path d="M271.728 284.643L281.297 279.107L276.916 273.225L267.347 278.761L271.728 284.643Z" fill="#FF445F"/>
<path d="M276.107 283.836L285.676 278.3L281.295 279.107L271.726 284.643L276.107 283.836Z" fill="#FF445F"/>
<path d="M299.165 274.725L308.618 269.189C296.974 275.878 286.599 278.069 285.561 278.3L276.108 283.836C277.145 283.605 287.636 281.414 299.165 274.725Z" fill="#FF445F"/>
<path d="M299.165 274.725L308.618 269.189C296.974 275.878 286.599 278.069 285.561 278.3L276.108 283.836C277.145 283.605 287.636 281.414 299.165 274.725V274.725Z" fill="#FF445F"/>
<path d="M220.657 81.887L230.11 76.3509L221.925 71.3916L212.472 76.9276L220.657 81.887Z" fill="#F77723"/>
<path d="M299.165 274.725L308.619 269.189C323.951 260.308 341.244 243.354 341.359 212.675L331.906 218.211C331.906 248.89 314.498 265.729 299.165 274.725Z" fill="#FF445F"/>
<path d="M299.165 274.725L308.619 269.189C323.951 260.308 341.244 243.354 341.359 212.675L331.906 218.211C331.906 248.89 314.498 265.729 299.165 274.725V274.725Z" fill="#FF445F"/>
<path d="M299.165 276.801L308.619 271.265C323.951 262.384 341.244 245.43 341.359 214.751L331.906 220.287C331.906 251.081 314.498 267.92 299.165 276.801Z" fill="#FF445F"/>
<path d="M299.165 276.801L308.619 271.265C323.951 262.384 341.244 245.43 341.359 214.751L331.906 220.287C331.906 251.081 314.498 267.92 299.165 276.801V276.801Z" fill="#F77723"/>
<path d="M266.768 83.5014L276.221 77.9654C276.106 77.9654 266.076 83.9627 255.47 83.3861C241.405 82.5787 231.836 77.5041 230.107 76.4661L220.654 81.8867C222.383 82.9247 231.836 87.9994 246.016 88.8068C256.507 89.3834 266.652 83.5014 266.768 83.5014Z" fill="#FF445F"/>
<path d="M266.768 83.5016L276.221 77.9656C276.106 77.9656 266.076 83.9629 255.47 83.3863C248.898 83.0403 243.365 81.7716 239.099 80.3876L229.646 85.9236C233.911 87.3076 239.445 88.5763 246.016 88.9223C256.507 89.3836 266.652 83.5016 266.768 83.5016V83.5016Z" fill="#F77723"/>
<path d="M229.761 85.8082L239.215 80.2722C234.257 78.6575 231.145 76.9275 230.222 76.3508L220.654 81.8868C221.576 82.4635 224.804 84.1935 229.761 85.8082V85.8082Z" fill="#F77723"/>
<path d="M277.954 89.9602L287.407 84.4242L281.873 74.6208L272.305 80.1569L277.954 89.9602Z" fill="#F77723"/>
<path d="M323.95 141.515L333.404 135.979C331.559 134.941 321.99 129.059 307.926 113.604C297.435 102.07 287.405 84.5397 287.29 84.3091L277.951 89.9604C278.067 90.1911 288.096 107.606 298.587 119.255C312.652 134.595 322.106 140.477 323.95 141.515Z" fill="#FF445F"/>
<path d="M323.95 141.515L333.404 135.979C331.559 134.941 321.99 129.059 307.926 113.604C297.435 102.07 287.405 84.5397 287.29 84.3091L277.951 89.9604C278.067 90.1911 288.096 107.606 298.587 119.255C312.652 134.595 322.106 140.477 323.95 141.515V141.515Z" fill="#F77723"/>
<path d="M331.906 220.287L341.475 214.751L341.59 142.552L332.137 147.973L331.906 220.287Z" fill="#FF445F"/>
<path d="M331.906 218.096L341.475 212.675L341.59 142.552L332.137 147.973L331.906 218.096Z" fill="#F77723"/>
<path d="M332.138 147.973L341.591 142.552V140.361L332.138 145.897V147.973Z" fill="#FF445F"/>
<path d="M332.136 145.897L341.589 140.361L333.404 136.094L323.95 141.514L332.136 145.897Z" fill="#F77723"/>
</g>
<g opacity="0.8">
<path d="M295.245 125.483C283.255 112.22 272.879 93.997 272.303 92.959L271.842 273.802C274.493 273.341 324.066 263.422 324.181 213.598L324.412 150.741C324.412 150.741 324.297 150.626 323.951 150.51C321.414 149.126 310.693 142.437 295.245 125.483Z" fill="#F77723"/>
</g>
<path fill-rule="evenodd" clip-rule="evenodd" d="M246.018 88.8069C231.838 87.9996 222.385 82.9249 220.656 81.8869L212.471 76.8123L212.355 86.0389L212.125 148.896C212.015 200.494 260.37 268.99 266.729 277.996C267.036 278.432 267.245 278.728 267.346 278.877L271.727 284.759L276.108 283.836C278.414 283.375 331.791 272.187 332.021 218.096L332.252 147.973V145.782L324.066 141.514C322.107 140.476 312.653 134.594 298.588 119.14C288.097 107.491 278.068 90.0756 277.952 89.8449L272.419 80.0416L266.77 83.3863C266.654 83.5016 256.509 89.3836 246.018 88.8069ZM220.08 157.084C219.965 155.7 219.965 154.662 219.965 153.509L220.195 90.537C220.195 90.537 220.311 90.6523 220.656 90.883C223.077 92.267 233.799 98.0336 249.247 98.841C261.237 99.533 272.304 92.959 272.304 92.959C272.88 93.997 283.256 112.22 295.476 125.598C310.809 142.552 321.531 149.242 323.952 150.626C324.298 150.741 324.413 150.856 324.413 150.856L324.182 213.713C324.067 263.537 274.494 273.456 271.843 273.917C271.728 273.802 225.844 211.407 220.541 162.505C220.541 162.332 220.512 162.159 220.483 161.986C220.455 161.813 220.426 161.64 220.426 161.467C220.275 160.338 220.223 159.405 220.173 158.508C220.146 158.031 220.12 157.565 220.08 157.084Z" fill="#F77723"/>
<g opacity="0.8">
<path d="M272.304 92.9589C271.728 93.3049 261.352 99.5329 249.247 98.8409C233.799 98.0335 223.077 92.2669 220.656 90.8829C220.31 90.6522 220.195 90.5369 220.195 90.5369L219.965 153.394C219.965 154.547 219.965 155.585 220.08 156.738C220.195 158.238 220.195 159.622 220.31 161.006C220.426 161.698 220.426 162.044 220.426 162.39C225.729 211.291 269.422 270.688 271.728 273.802L272.304 92.9589Z" fill="#F77723"/>
</g>
</g>
<path opacity="0.2" d="M372.025 372.758C371.448 369.875 370.065 367.683 368.22 366.415V366.415H368.105C367.644 366.069 367.067 365.838 366.491 365.607C360.496 362.263 352.08 356.611 346.547 353.843C328.793 344.963 310.808 334.006 296.282 323.165L268.268 362.609V325.702C262.735 323.511 257.201 321.435 251.667 319.589C245.557 317.513 239.332 315.668 232.991 315.668C224.806 315.668 217.082 318.897 209.127 320.512C201.749 322.011 194.14 322.127 186.762 323.626C180.075 325.01 173.735 328.931 166.933 329.162C139.264 330.085 106.754 323.626 94.5337 331.584C89.2306 335.044 89.6917 344.386 91.9974 346.808C94.3031 349.345 97.877 350.153 101.336 350.499C120.588 352.69 149.294 354.305 174.542 350.383C156.672 355.573 135.229 356.496 116.438 357.765C113.325 357.188 109.521 357.995 107.907 359.841C106.293 361.686 105.486 363.416 105.486 366.069C105.486 366.299 105.486 366.53 105.486 366.761C105.716 370.336 107.561 372.873 109.982 374.373C110.443 374.603 111.711 375.18 113.095 375.526C120.012 378.409 132.001 380.485 138.918 380.831C151.023 381.293 163.244 379.217 175.348 379.447C178.346 379.447 181.689 380.024 183.188 382.561C175.579 385.906 167.279 386.944 158.978 387.636C158.978 387.636 154.597 402.86 162.782 406.089C169.238 408.627 179.383 407.819 189.413 406.781C189.644 409.434 189.874 412.087 190.681 414.739C191.027 415.893 191.373 416.931 191.95 418.084C191.95 418.084 191.95 418.199 192.065 418.199C192.18 418.43 192.295 418.661 192.411 418.891C192.641 419.353 192.872 419.929 193.218 420.391C193.679 421.198 194.14 422.006 194.716 422.813C196.676 425.466 199.558 426.965 202.21 427.08C202.671 427.08 203.132 427.08 203.709 426.965V427.08C226.65 424.197 268.383 406.897 268.383 406.897C276.338 411.164 283.486 416.008 290.518 420.737C296.513 424.774 306.312 431.117 312.999 435.154C313.114 435.269 313.229 435.269 313.345 435.384C313.46 435.5 313.69 435.615 313.806 435.615V435.615C320.377 438.844 332.367 434.692 344.933 423.62C362.456 407.819 374.561 385.329 372.025 372.758Z" fill="#1C4B5F"/>
<path d="M188.029 350.153C188.029 350.153 188.144 350.153 188.144 350.037L188.029 349.807L187.913 349.922V349.922L188.029 350.153Z" fill="#FFCDB3"/>
<path d="M308.964 284.067C326.372 297.099 347.7 310.132 368.912 320.743C376.175 324.318 387.588 332.161 394.736 335.851C393.814 336.543 353.118 363.185 349.429 367.914C341.936 377.602 335.941 388.213 331.099 399.4C328.793 404.475 331.675 412.664 329.831 417.969C321.761 413.24 309.425 405.167 301.932 400.092C292.133 393.518 282.333 386.944 271.035 381.293C263.772 377.602 256.164 374.603 248.555 371.72C247.978 371.489 247.517 371.374 246.941 371.143L308.964 284.067Z" fill="#FFBC99"/>
<path d="M218.466 347.731H195.063V288.565C202.787 285.681 213.855 281.645 217.313 280.491C221.925 278.877 225.153 274.955 225.729 270.111C227.228 259.385 218.236 251.658 209.82 246.814C200.712 241.624 189.414 237.126 185.379 226.4C184.342 223.747 184.111 220.864 184.226 217.981C184.342 215.789 184.226 213.021 185.725 211.176C187.454 208.985 190.452 209.561 192.758 210.369C195.524 211.407 198.176 212.445 200.943 213.598C213.278 218.557 224.922 225.593 237.142 230.091C249.939 234.704 277.146 245.545 277.146 245.545C277.146 245.545 315.882 270.803 320.609 298.137C322.453 308.633 323.26 318.897 325.22 329.162C326.603 336.659 330.408 343.463 332.598 350.729C334.789 357.995 334.904 366.761 329.716 372.412C326.949 375.526 322.914 377.256 318.995 378.525C312.077 380.831 266.655 388.213 260.776 390.866C252.59 394.556 233.914 396.517 218.351 397.324V347.731H218.466Z" fill="#F8C5AA"/>
<path d="M91.5361 325.356C114.593 323.626 141.339 322.703 163.589 316.36C133.385 321.089 99.1449 319.128 76.0879 316.591C72.0529 316.129 67.7874 315.207 65.0206 312.208C62.2537 309.209 61.562 298.137 68.018 293.985C82.5439 284.528 121.395 292.255 154.366 291.102C162.552 290.756 170.045 286.027 178.115 284.528C186.877 282.798 195.984 282.567 204.861 280.837C214.43 278.877 223.653 275.186 233.337 275.071C240.945 275.071 248.439 277.262 255.702 279.684C262.388 281.991 269.075 284.413 275.531 287.065V388.097C248.439 393.749 225.728 404.244 198.405 407.704L194.947 384.753H191.488C191.719 384.061 191.719 383.253 191.258 382.677C176.386 383.83 159.324 386.483 149.64 382.677C139.841 378.871 145.144 360.648 145.144 360.648C155.058 359.841 164.973 358.572 174.08 354.651C172.351 351.537 168.316 350.96 164.742 350.96C150.216 350.729 135.69 353.151 121.164 352.69C112.287 352.344 96.8392 349.576 88.9998 345.77L91.5361 325.356Z" fill="#FFCDB3"/>
<path d="M81.1599 335.967C81.1599 335.621 81.1599 335.39 81.1599 335.044C81.1599 331.93 82.0822 329.854 84.042 327.663C87.6159 323.741 98.6832 323.741 99.6055 329.623C100.413 334.698 100.067 340.926 96.954 345.078C94.6483 348.192 87.9617 345.655 86.6936 344.847C83.6962 343.233 81.5058 340.234 81.1599 335.967Z" fill="#FFCDB3"/>
<path d="M72.0534 291.909C88.885 285.681 124.047 292.025 154.367 290.987C162.552 290.756 170.046 286.027 178.116 284.528C186.877 282.798 195.985 282.567 204.862 280.837C214.43 278.877 223.653 275.186 233.337 275.071C240.946 275.071 248.439 277.262 255.702 279.684C262.389 281.991 269.075 284.413 275.531 287.065V378.755C273.917 377.025 272.073 375.295 270.228 373.796C242.099 351.421 206.015 350.383 172.005 352.459C170.046 351.191 167.279 350.96 164.743 350.96C156.903 350.845 149.179 351.537 141.34 351.998C140.072 348.999 138.112 346.347 135.345 344.732C124.162 337.697 111.135 333.891 102.373 324.664C122.664 323.28 144.798 321.781 163.59 316.36C137.766 320.397 108.829 319.589 86.5793 317.629C76.6648 311.401 67.9032 303.673 72.0534 291.909Z" fill="#FFBC99"/>
<path d="M270.112 373.796C272.071 375.295 273.801 377.025 275.415 378.755V387.982C265.846 389.943 256.854 392.595 247.977 395.248C237.14 378.755 218.464 365.838 197.828 368.375C197.021 368.606 195.868 368.952 195.292 369.529C193.678 372.297 192.755 376.333 195.638 378.871C192.755 378.986 189.873 380.485 188.375 382.792C186.299 383.023 184.109 383.138 181.919 383.369C181.919 382.907 181.919 382.446 181.803 381.869C180.996 376.795 175.002 374.257 171.082 370.913C167.277 367.568 166.816 360.879 169.698 356.15C171.197 355.689 172.581 355.112 174.079 354.535C173.618 353.613 172.811 352.921 172.004 352.344C205.898 350.499 241.982 351.421 270.112 373.796Z" fill="#FFBC99"/>
<path d="M197.944 368.491C218.58 365.953 237.256 378.871 248.093 395.363C240.023 397.785 231.953 400.323 223.768 402.514C223.653 401.822 223.538 401.245 223.307 400.669C221.001 393.864 213.392 391.903 208.32 387.175C205.207 384.061 202.44 380.37 197.829 379.217C197.137 378.986 196.33 378.986 195.639 378.986C192.872 376.449 193.679 372.297 195.293 369.644C195.984 369.067 197.022 368.721 197.944 368.491Z" fill="#FFBC99"/>
<path d="M60.6404 281.875V296.407C60.6404 298.253 61.7932 299.983 64.2142 301.367V286.835C61.9085 285.451 60.6404 283.605 60.6404 281.875Z" fill="#CDD1F6"/>
<path d="M60.6404 281.875V296.407C60.6404 298.253 61.7932 299.983 64.2142 301.367V286.835C61.9085 285.451 60.6404 283.605 60.6404 281.875V281.875Z" fill="#CDD1F6"/>
<path d="M355.31 345.885V331.353C355.31 333.199 354.158 335.044 351.737 336.313V350.845C354.158 349.576 355.31 347.731 355.31 345.885Z" fill="#CDD1F6"/>
<path d="M351.621 336.428V350.96C354.042 349.576 355.195 347.731 355.195 346.001V331.469C355.31 333.199 354.042 335.044 351.621 336.428V336.428Z" fill="#CDD1F6"/>
<path d="M64.2146 286.719V301.251L242.099 403.667V389.135L64.2146 286.719Z" fill="#CDD1F6"/>
<path d="M259.391 389.135L259.507 403.667L351.735 350.96L351.619 336.428L259.391 389.135Z" fill="#CDD1F6"/>
<path d="M242.099 389.135V403.667C246.826 406.435 254.665 406.435 259.392 403.667V389.135C254.665 391.903 246.826 391.903 242.099 389.135Z" fill="#CDD1F6"/>
<path d="M242.099 389.135V403.667C246.826 406.435 254.665 406.435 259.392 403.667V389.135C254.665 391.903 246.826 391.903 242.099 389.135V389.135Z" fill="#CDD1F6"/>
<path d="M182.611 229.168L72.9752 291.794L223.192 378.294L332.828 315.553L182.611 229.168Z" fill="#119CED"/>
<path d="M173.851 224.093C169.124 221.325 161.285 221.325 156.558 224.093L64.3302 276.801C59.6035 279.569 59.4883 284.067 64.2149 286.719L72.9766 291.794L182.613 229.168L173.851 224.093Z" fill="#F5F5FD"/>
<path d="M351.734 326.509L332.828 315.668L223.192 378.294L242.098 389.135C246.825 391.903 254.664 391.903 259.391 389.135L351.619 336.428C356.461 333.66 356.461 329.162 351.734 326.509Z" fill="#F5F5FD"/>
<path d="M303.085 356.381L290.865 363.993C287.522 366.069 282.103 366.299 278.645 364.454C275.186 362.609 275.071 359.495 278.414 357.419L290.634 349.807C293.978 347.731 299.396 347.5 302.854 349.345C306.428 351.075 306.428 354.189 303.085 356.381V356.381Z" fill="url(#paint2_linear)"/>
<path d="M332.253 359.264L341.937 353.382V346.577L332.253 352.575V359.264Z" fill="#F5F5FD"/>
<path d="M339.977 352.229L332.714 356.842V358.572L341.475 353.151V353.151L339.977 352.229Z" fill="#5C697C"/>
<path d="M332.714 352.805V356.842L339.977 352.229V348.192L339.515 348.423L332.714 352.805Z" fill="#1B1B1B"/>
<path d="M332.714 353.382V356.266L339.515 351.883V349L332.714 353.382Z" fill="#1B1823"/>
<path d="M341.477 351.306V347.27L339.978 348.192V352.229L341.477 353.152V351.306Z" fill="#404040"/>
<path d="M350.237 344.963C350.237 347.039 348.969 349.461 347.355 350.268C345.741 351.191 344.473 350.268 344.473 348.192C344.473 346.116 345.741 343.694 347.355 342.887C348.969 341.964 350.237 342.887 350.237 344.963Z" fill="#1B1B1B"/>
<path d="M344.932 348.769C346.546 347.846 347.814 345.424 347.814 343.463C347.814 343.233 347.814 343.002 347.814 342.771C349.197 342.079 350.35 343.117 350.35 344.963C350.35 347.039 349.082 349.461 347.468 350.268C346.085 351.075 344.932 350.383 344.701 348.884C344.701 348.884 344.817 348.884 344.932 348.769Z" fill="#5C697C"/>
<path d="M346.663 349.922C348.277 348.999 349.545 346.577 349.545 344.617C349.545 343.694 349.314 343.002 348.853 342.656C349.66 342.771 350.237 343.694 350.237 345.078C350.237 347.154 348.969 349.576 347.355 350.383C346.432 350.845 345.741 350.845 345.164 350.268C345.625 350.268 346.202 350.153 346.663 349.922Z" fill="#CDD1F6"/>
<path d="M104.563 263.883C104.678 264.229 105.024 264.575 105.485 264.806C106.984 265.613 109.52 265.613 111.019 264.575L134.307 250.158C134.652 249.928 134.998 249.582 135.229 249.236C135.69 248.428 135.344 247.506 134.191 246.814C132.693 246.006 130.156 246.006 128.658 247.044L105.485 261.576C104.332 262.153 104.102 263.076 104.563 263.883Z" fill="#CDD1F6"/>
<path d="M104.564 263.883C104.68 264.229 105.025 264.575 105.487 264.806C106.985 265.613 109.522 265.613 111.02 264.575L134.308 250.158C134.654 249.928 135 249.582 135.23 249.236C135.115 248.89 134.769 248.544 134.193 248.313C132.694 247.506 130.158 247.506 128.659 248.544L105.371 262.96C105.025 263.191 104.68 263.537 104.564 263.883Z" fill="#21212B"/>
<path d="M70.4399 280.03C70.4399 280.837 71.0163 281.529 72.0539 282.106C74.2443 283.374 77.7028 283.374 79.778 282.106C80.2391 281.875 80.7003 281.414 80.9308 281.068C81.7378 279.914 81.392 278.53 79.778 277.608C77.5876 276.339 74.129 276.339 72.0539 277.608C70.901 278.3 70.3246 279.222 70.4399 280.03Z" fill="#21212B"/>
<path d="M72.9752 291.794V299.291L223.192 385.791V378.294L72.9752 291.794Z" fill="#F77723"/>
<path opacity="0.5" d="M182.611 229.168L72.9752 291.794L87.5011 300.213L197.137 237.472L182.611 229.168Z" fill="url(#paint3_linear)"/>
<path fill-rule="evenodd" clip-rule="evenodd" d="M174.659 239.894L163.245 246.468L168.549 249.466L179.962 242.892L174.659 239.894ZM163.821 246.468L174.658 240.24L179.27 242.892L168.433 249.12L163.821 246.468Z" fill="#CDD1F6"/>
<path d="M163.477 246.468L168.434 249.236L176.158 244.853L171.201 241.97L163.477 246.468Z" fill="#CDD1F6"/>
<path d="M148.028 258.808L149.757 257.886L151.487 258.924L149.873 259.962L148.028 258.808Z" fill="#CDD1F6"/>
<path d="M144.223 259.27L145.837 258.347L149.295 260.308L147.566 261.23L144.223 259.27Z" fill="#CDD1F6"/>
<path d="M140.304 259.731L142.033 258.693L146.99 261.576L145.261 262.499L140.304 259.731Z" fill="#CDD1F6"/>
<path fill-rule="evenodd" clip-rule="evenodd" d="M166.241 250.432C166.933 250.081 166.933 249.496 164.973 248.325C163.359 247.272 162.206 247.389 161.745 247.74C161.053 248.091 160.361 248.559 159.9 248.91L160.477 249.261L162.206 248.325C162.782 247.974 163.705 248.442 164.166 248.676C163.7 248.771 163.235 249.018 162.83 249.233C162.734 249.284 162.641 249.333 162.552 249.379C161.745 249.847 161.975 250.198 162.552 250.549L163.243 251.017C163.935 251.485 164.627 251.368 165.319 251.017L166.241 250.432ZM163.359 249.73L164.627 248.91C164.644 248.921 164.661 248.931 164.678 248.941C165.25 249.289 165.997 249.743 165.55 250.198L164.858 250.549C164.826 250.56 164.795 250.571 164.764 250.581C164.468 250.685 164.249 250.761 163.936 250.549L163.359 250.198C163.013 250.081 163.129 249.847 163.359 249.73Z" fill="#CDD1F6"/>
<path d="M159.786 249.582L157.481 250.85L162.899 252.234L162.092 252.696L156.212 251.196L156.097 250.85L159.095 249.12L159.786 249.582Z" fill="#CDD1F6"/>
<path fill-rule="evenodd" clip-rule="evenodd" d="M157.133 252.119C157.71 252.465 157.71 252.696 157.133 253.042L156.441 253.388C155.75 253.734 155.289 253.734 154.827 253.388L154.02 252.926C153.444 252.58 153.444 252.35 154.02 252.004L154.712 251.658C155.404 251.312 155.865 251.312 156.326 251.658L157.133 252.119ZM158.978 254.541L158.402 254.887L151.024 253.734L151.6 253.388L158.978 254.541ZM155.865 252.004L156.557 252.35C156.681 252.473 156.738 252.531 156.729 252.575C156.722 252.613 156.664 252.642 156.557 252.696L155.981 253.042C155.675 253.246 155.549 253.179 155.365 253.081C155.341 253.068 155.316 253.055 155.289 253.042L154.597 252.696C154.367 252.58 154.367 252.465 154.597 252.35L155.174 252.004C155.52 251.888 155.635 251.888 155.865 252.004ZM155.981 255.233C156.558 255.579 156.558 255.81 155.981 256.156L155.289 256.502C154.598 256.848 154.137 256.848 153.675 256.502L152.868 256.04C152.292 255.694 152.292 255.464 152.868 255.118L153.56 254.772C154.252 254.426 154.713 254.426 155.174 254.772L155.981 255.233ZM154.714 255.233L155.405 255.579C155.636 255.694 155.636 255.81 155.405 255.925L154.829 256.271C154.483 256.386 154.368 256.386 154.137 256.271L153.445 255.925C153.215 255.81 153.215 255.694 153.445 255.579L154.022 255.233C154.368 255.118 154.483 255.118 154.714 255.233Z" fill="#CDD1F6"/>
<path d="M136.385 267.228C135.693 266.882 134.771 266.882 134.079 267.228C133.387 267.574 133.387 268.15 134.079 268.496C134.771 268.842 135.693 268.842 136.385 268.496C136.961 268.266 136.961 267.689 136.385 267.228Z" fill="#F5F5FD"/>
<path d="M132.926 266.651C133.618 266.305 134.54 266.075 135.463 266.075V265.383C134.31 265.383 133.042 265.613 132.119 266.19C131.197 266.767 130.736 267.343 130.736 268.035H131.889C131.889 267.574 132.235 266.997 132.926 266.651Z" fill="#F5F5FD"/>
<path d="M131.08 265.613C132.233 264.921 133.847 264.575 135.345 264.575V263.883C133.501 263.883 131.656 264.229 130.273 265.036C128.889 265.844 128.198 266.882 128.198 267.92H129.351C129.351 267.112 129.927 266.305 131.08 265.613Z" fill="#F5F5FD"/>
<path d="M129.468 264.691C131.082 263.768 133.272 263.307 135.347 263.307V262.615C132.926 262.615 130.505 263.191 128.661 264.229C126.816 265.267 125.894 266.651 125.894 268.035H127.047C127.047 266.767 127.854 265.613 129.468 264.691Z" fill="#F5F5FD"/>
<path d="M97.6476 290.756L90.7305 286.835L99.9533 285.912L97.6476 290.756Z" fill="#CDD1F6"/>
<path d="M102.029 284.758L103.528 279.453L110.445 283.49L102.029 284.758Z" fill="#CDD1F6"/>
<path d="M101.683 285.797L101.914 284.874L110.676 283.605L97.8789 290.871L100.185 285.912L101.683 285.797Z" fill="#CDD1F6"/>
<path d="M90.499 286.719L103.296 279.338L101.451 285.681L90.499 286.719Z" fill="#CDD1F6"/>
<g opacity="0.5">
<path opacity="0.01" d="M170.506 1.38401L1.38336 98.1489C0.46108 98.6102 0.46108 99.8789 1.38336 100.456L234.144 234.358C234.605 234.589 235.066 234.589 235.412 234.358L404.535 137.593C405.457 137.132 405.457 135.863 404.535 135.286L171.775 1.38401C171.429 1.03801 170.968 1.03801 170.506 1.38401Z" fill="#F77723"/>
<path opacity="0.1667" d="M172.465 39.3288L13.4871 130.327C12.6801 130.788 12.6801 132.057 13.4871 132.518L232.183 258.347C232.529 258.578 233.105 258.578 233.451 258.347L392.429 167.464C393.236 167.003 393.236 165.734 392.429 165.273L173.733 39.3288C173.272 39.0981 172.811 39.0981 172.465 39.3288Z" fill="#F77723"/>
<path opacity="0.3333" d="M174.426 77.3888L25.7088 162.39C24.9018 162.851 24.9018 164.004 25.7088 164.466L230.34 282.337C230.685 282.567 231.147 282.567 231.492 282.337L380.21 197.336C381.017 196.874 381.017 195.721 380.21 195.26L175.579 77.3888C175.233 77.1582 174.772 77.1582 174.426 77.3888Z" fill="#F77723"/>
<path opacity="0.5" d="M176.385 115.449L37.9279 194.683C37.1209 195.144 37.1209 196.182 37.9279 196.644L228.379 306.326C228.725 306.557 229.186 306.557 229.532 306.326L367.989 227.092C368.796 226.63 368.796 225.592 367.989 225.131L177.538 115.449C177.077 115.218 176.731 115.218 176.385 115.449Z" fill="#F77723"/>
<path opacity="0.6667" d="M178.231 153.509L50.0342 226.861C49.3425 227.322 49.3425 228.36 50.0342 228.706L226.42 330.315C226.766 330.546 227.227 330.546 227.573 330.315L355.77 256.963C356.462 256.502 356.462 255.464 355.77 255.118L179.384 153.509C179.038 153.278 178.577 153.278 178.231 153.509Z" fill="#F77723"/>
<path opacity="0.8333" d="M180.19 191.569L62.2533 259.039C61.5616 259.385 61.5616 260.423 62.2533 260.884L224.575 354.305C224.92 354.535 225.266 354.535 225.612 354.305L343.549 286.719C344.24 286.373 344.24 285.335 343.549 284.874L181.227 191.569C180.882 191.338 180.536 191.338 180.19 191.569Z" fill="#F77723"/>
<path d="M182.151 229.514L74.475 291.102C73.7832 291.448 73.7832 292.371 74.475 292.832L222.731 378.179C223.077 378.409 223.423 378.409 223.769 378.179L331.445 316.591C332.137 316.245 332.137 315.322 331.445 314.861L183.189 229.514C182.843 229.398 182.497 229.398 182.151 229.514Z" fill="#F77723"/>
</g>
<path d="M182.612 229.168L73.0909 291.794L223.192 378.294L332.828 315.553L182.612 229.168Z" fill="url(#paint4_linear)"/>
<path d="M184.455 396.978C184.455 397.094 184.455 397.094 184.571 397.094C184.686 397.324 184.801 397.555 184.917 397.901C185.262 398.478 185.493 399.17 185.839 399.746C186.415 400.784 186.992 401.707 187.683 402.63C190.104 405.744 193.448 407.589 196.676 407.704C199.904 407.82 202.786 406.436 204.976 404.014C206.475 402.399 207.743 400.438 208.319 398.016C209.011 395.018 208.781 391.673 207.974 388.444C207.858 387.867 207.628 387.175 207.512 386.598C207.397 386.022 207.167 385.33 206.936 384.753C206.705 384.176 206.475 383.484 206.36 382.908L206.129 382.216C206.014 381.985 205.898 381.754 205.783 381.524C205.553 380.832 205.207 380.14 204.861 379.448C203.708 376.91 202.44 375.411 200.711 373.566C197.483 370.221 194.255 367.684 190.45 367.338C189.989 367.338 189.643 367.222 189.182 367.222C186.992 367.222 185.147 368.376 183.764 370.106C182.265 372.066 181.458 374.834 181.227 377.718C181.112 379.332 181.227 380.947 181.343 382.562C181.343 382.677 181.343 382.908 181.343 383.023C181.689 386.368 181.919 389.712 182.957 393.057C183.303 394.326 183.879 395.71 184.455 396.978Z" fill="#FFD8C3"/>
<path d="M198.406 374.95C197.022 373.566 195.408 372.297 193.564 371.605C191.719 370.913 189.529 370.913 187.8 371.951C185.724 373.22 184.802 375.757 184.341 378.064C183.88 380.486 184.226 385.33 184.802 385.33C186.993 385.214 193.91 384.868 196.1 384.753C198.406 384.522 204.17 384.176 202.441 380.37C201.634 378.294 199.904 376.449 198.406 374.95Z" fill="#F5AAA5"/>
<path d="M141.456 362.955C141.456 363.07 141.456 363.07 141.456 363.185C141.456 363.531 141.34 363.877 141.34 364.223C141.225 365.031 141.11 365.838 140.995 366.53C140.879 367.799 140.764 369.183 140.764 370.336C140.879 374.834 142.609 378.64 145.145 380.601C147.681 382.677 150.909 383.023 154.137 382.215C156.328 381.639 158.518 380.485 160.362 378.525C162.668 376.103 164.513 372.643 165.781 369.067C166.011 368.375 166.242 367.683 166.473 366.991C166.703 366.299 166.934 365.607 167.164 364.915C167.395 364.223 167.51 363.531 167.741 362.724L167.971 361.917C168.087 361.686 168.087 361.34 168.087 360.994C168.317 360.187 168.432 359.264 168.548 358.457C169.124 355.343 169.009 353.151 168.663 350.268C167.971 345.193 166.818 340.695 163.936 338.043C163.59 337.697 163.245 337.466 162.899 337.235C161.054 335.851 158.864 335.851 156.789 336.774C154.483 337.812 152.062 339.888 150.217 342.541C149.18 344.04 148.373 345.655 147.451 347.385C147.335 347.5 147.335 347.731 147.22 347.846C145.491 351.306 143.761 354.651 142.609 358.457C142.032 359.841 141.686 361.455 141.456 362.955Z" fill="#FFD8C3"/>
<path d="M164.627 342.425C164.05 340.926 163.128 339.427 161.629 338.85C160.476 338.389 158.978 338.504 157.825 339.081C156.672 339.657 155.635 340.58 154.712 341.503C152.522 343.694 150.793 346.231 149.409 348.999C149.063 349.807 148.602 350.729 149.063 351.537C149.409 352.229 150.216 352.459 151.023 352.69C153.098 353.267 155.289 353.959 157.364 354.535C158.863 354.997 160.476 355.573 162.09 355.573C165.549 355.573 165.78 351.767 165.78 348.999C165.895 346.693 165.549 344.501 164.627 342.425Z" fill="#F5AAA5"/>
<path d="M379.082 391.247C397.762 369.096 405.094 344.546 395.459 336.414C385.823 328.282 362.869 339.646 344.19 361.797C325.51 383.949 318.178 408.498 327.813 416.63C337.448 424.762 360.402 413.398 379.082 391.247Z" fill="#E9A37D"/>
<g opacity="0.5">
<path d="M137.537 177.729L181.23 202.987V152.471L137.537 127.213V177.729Z" fill="#F4FAFA"/>
</g>
<g opacity="0.5">
<path d="M137.537 57.7822L181.23 83.0403V32.5242L137.537 7.26611V57.7822Z" fill="#F4FAFA"/>
</g>
<g opacity="0.5">
<path d="M137.537 117.756L181.23 143.014V92.4976L137.537 67.2395V117.756Z" fill="#F4FAFA"/>
</g>
<path d="M157.366 151.087C156.328 150.857 155.752 151.203 154.83 151.203C156.098 150.28 157.135 149.934 159.21 151.203C160.133 151.779 160.94 152.587 161.747 153.509C160.363 152.241 159.095 151.433 157.366 151.087Z" fill="#F77723"/>
<path d="M159.325 160.545C157.25 160.083 155.521 163.082 154.137 165.389C153.446 166.542 152.985 167.465 152.523 167.58C152.408 167.695 152.178 167.695 152.062 167.811C152.062 167.465 151.947 167.119 151.947 166.888C151.947 166.888 152.062 166.888 152.062 166.773C152.408 166.657 152.985 165.735 153.561 164.697C154.944 162.39 156.789 159.161 159.095 159.737C161.977 160.429 164.513 163.313 166.242 165.85C166.242 166.196 166.358 166.657 166.358 167.003C164.859 164.466 162.323 161.237 159.325 160.545Z" fill="#F77723"/>
<path d="M158.403 158.353C155.982 158.238 154.713 160.199 153.33 162.159C152.869 162.851 152.408 163.543 151.831 164.235C151.831 163.774 151.831 163.313 151.831 162.851C152.177 162.39 152.523 161.929 152.869 161.467C154.252 159.391 155.636 157.431 158.287 157.546C161.054 157.661 164.052 160.545 166.127 163.082C166.242 163.428 166.242 163.889 166.357 164.351C164.167 161.698 161.054 158.469 158.403 158.353Z" fill="#F77723"/>
<path d="M158.056 155.585C155.751 155.47 154.482 156.969 152.868 158.699C152.523 159.16 152.061 159.506 151.716 159.968C151.716 159.506 151.716 159.045 151.831 158.584C152.061 158.353 152.177 158.238 152.407 158.007C154.021 156.277 155.405 154.662 157.826 154.778C160.362 154.893 163.013 157.315 164.973 159.622C165.089 160.083 165.319 160.544 165.434 161.121C163.359 158.584 160.593 155.7 158.056 155.585Z" fill="#F77723"/>
<path d="M157.133 152.702C154.943 152.587 153.675 153.855 152.292 155.47C152.522 154.663 152.868 153.855 153.098 153.279C154.136 152.356 155.289 151.779 156.788 151.895C158.978 152.01 161.284 153.971 163.244 156.162C163.589 156.739 163.935 157.431 164.166 158.123C162.321 155.47 159.554 152.817 157.133 152.702Z" fill="#F77723"/>
<path d="M158.862 167.464C158.978 166.196 159.554 165.619 160.476 165.85C161.86 166.196 163.243 167.695 163.935 169.886C164.626 171.847 164.742 174.154 163.704 174.5C163.128 174.615 162.551 174.385 161.975 173.693C160.937 172.539 160.13 170.578 160.015 169.194C160.015 168.387 160.246 167.926 160.707 167.926C161.168 167.926 161.629 168.156 161.975 168.618C162.667 169.425 163.012 170.809 163.012 171.501C163.012 171.963 162.782 172.309 162.551 172.309C162.436 172.309 162.206 172.078 162.09 171.847C161.975 171.617 162.09 171.386 162.206 171.386C162.321 171.386 162.321 171.271 162.321 171.04C162.321 170.463 162.09 169.54 161.629 168.964C161.399 168.733 161.283 168.618 161.053 168.618C160.822 168.618 160.707 168.848 160.707 169.425C160.707 170.463 161.514 172.078 162.206 173.001C162.551 173.462 163.012 173.577 163.243 173.462C163.935 173.231 163.935 171.501 163.358 169.771C163.012 168.964 162.206 167.003 160.707 166.657C159.785 166.426 159.554 167.234 159.554 167.926C159.439 170.232 161.399 174.961 164.742 178.998C164.626 179.113 164.511 179.229 164.281 179.344C160.707 174.961 158.747 170.002 158.862 167.464Z" fill="#F77723"/>
<path d="M157.825 164.351C158.286 163.428 158.978 163.197 160.131 163.543C161.284 163.889 162.552 164.927 163.474 166.196C164.627 167.695 165.319 169.656 165.664 171.847C166.126 175.423 165.434 176.345 164.742 176.461C164.05 176.691 163.128 175.999 162.782 175.653C162.667 175.538 162.552 175.307 162.667 175.077C162.782 174.961 163.013 174.961 163.128 175.192C163.243 175.307 163.82 175.769 164.396 175.653C164.973 175.538 165.434 174.731 165.088 171.617C164.857 169.656 164.166 168.041 163.243 166.657C162.436 165.504 161.399 164.812 160.361 164.466C159.439 164.235 158.863 164.351 158.517 165.043C157.825 166.542 158.517 170.002 158.978 171.155C160.131 174.154 161.975 177.037 163.82 179.69C163.705 179.805 163.474 179.805 163.243 179.805C161.399 177.153 159.554 174.269 158.402 171.155C157.825 169.887 157.018 166.196 157.825 164.351Z" fill="#F77723"/>
<path d="M156.789 162.621C157.596 161.467 158.979 161.237 160.824 162.044V162.044C163.475 163.082 165.32 166.081 166.473 168.964C166.473 169.079 166.473 169.195 166.473 169.31C166.473 169.656 166.473 170.117 166.473 170.463C165.435 167.58 163.591 164.005 160.939 162.851V162.851C159.21 162.159 158.057 162.39 157.365 163.313C156.558 164.466 156.558 166.888 157.365 169.656C158.172 172.424 159.786 176.23 161.4 179.575C161.17 179.459 160.939 179.459 160.709 179.344C159.095 175.999 157.596 172.309 156.789 169.541C155.867 166.542 155.867 164.005 156.789 162.621Z" fill="#F77723"/>
<path d="M152.406 169.54C152.291 169.194 152.291 168.964 152.176 168.618C154.481 168.387 154.943 166.426 154.943 165.965V165.85C154.943 165.619 155.173 165.619 155.288 165.734C155.519 165.85 155.634 166.08 155.634 166.311C155.634 166.311 155.634 166.311 155.634 166.426C155.288 169.079 157.94 175.192 159.669 178.998C159.439 178.882 159.208 178.767 158.978 178.652C158.978 178.652 158.978 178.652 158.862 178.652C157.364 175.422 155.634 171.04 155.058 168.041C154.712 168.618 153.905 169.425 152.406 169.54Z" fill="#F77723"/>
<path d="M153.445 172.539C153.33 172.309 153.214 171.963 153.099 171.617C154.252 171.271 154.482 170.463 154.482 170.233V170.117C154.482 169.887 154.713 169.887 154.828 170.002C155.059 170.117 155.174 170.348 155.174 170.579V170.694C155.059 171.847 155.981 174.5 157.134 177.383C156.788 177.153 156.442 176.807 156.212 176.576C155.405 174.615 154.828 173.001 154.598 171.847C154.367 172.078 154.021 172.309 153.445 172.539Z" fill="#F77723"/>
<path fill-rule="evenodd" clip-rule="evenodd" d="M143.186 167.003V144.629C143.186 140.707 145.953 139.093 149.297 141.053L168.664 152.241C172.008 154.201 174.774 158.93 174.774 162.851V185.226C174.774 189.147 172.008 190.762 168.664 188.801L149.297 177.614C145.953 175.653 143.186 170.925 143.186 167.003ZM149.298 143.014C146.877 141.63 144.917 142.783 144.917 145.551V167.926C144.917 170.694 146.877 174.154 149.298 175.538L168.666 186.725C171.087 188.109 173.046 186.956 173.046 184.188V161.813C173.046 159.045 171.087 155.585 168.666 154.201L149.298 143.014Z" fill="#F77723"/>
<path d="M165.896 43.0196L164.282 42.0969V39.5596C164.282 36.0996 161.861 31.9476 158.863 30.2176L157.941 29.6409C154.944 27.9109 152.523 29.2949 152.523 32.7549V35.2922L150.909 34.3696C150.447 34.1389 149.986 33.9082 149.641 33.7929V31.0249C149.641 25.7195 153.33 23.5282 157.941 26.1809L158.863 26.7575C163.475 29.4102 167.164 35.8689 167.164 41.1742V43.9422C166.818 43.5962 166.357 43.3656 165.896 43.0196Z" fill="#F77723"/>
<path fill-rule="evenodd" clip-rule="evenodd" d="M146.761 51.2083V37.2529C146.761 34.6003 148.605 33.5623 150.911 34.8309L166.013 43.4809C168.319 44.8649 170.163 48.0943 170.163 50.747V64.7023C170.163 67.355 168.319 68.5083 166.013 67.1243L150.911 58.4743C148.605 57.0903 146.761 53.861 146.761 51.2083ZM158.404 52.823C157.251 52.131 156.329 52.7076 156.329 53.9763C156.329 54.6683 156.674 55.4756 157.136 56.283V58.5896L159.787 60.089V57.7823C160.248 57.667 160.479 57.0903 160.479 56.3983C160.479 55.1296 159.557 53.515 158.404 52.823Z" fill="#F77723"/>
<path fill-rule="evenodd" clip-rule="evenodd" d="M147.565 99.1871V83.7324L149.295 84.8858C149.332 84.9042 149.378 84.9285 149.434 84.9577C150.076 85.2941 151.955 86.279 154.713 86.3851C156.904 86.5004 159.094 85.2318 159.094 85.2318L160.247 84.5398L161.4 86.6158C161.4 86.6158 163.59 90.4218 165.78 92.8438C168.595 95.8761 170.596 97.1797 171.116 97.5184C171.15 97.5404 171.178 97.5584 171.199 97.5725L172.928 98.4951V100.456V113.834C172.928 125.114 162.123 127.679 161.215 127.894C161.195 127.899 161.179 127.903 161.169 127.905L160.247 128.136L159.324 126.867C158.863 126.291 147.565 110.72 147.565 99.1871ZM155.406 88.4611C151.601 88.2304 149.18 86.7311 149.18 86.7311V100.11C149.18 110.836 160.248 125.829 160.248 125.829V87.1924C160.248 87.1924 157.942 88.5764 155.406 88.4611Z" fill="#F77723"/>
<g opacity="0.6">
<path opacity="0.01" d="M176.616 286.258C176.616 250.851 148.026 222.248 112.633 222.248C77.2408 222.248 48.6501 250.851 48.6501 286.258C48.6501 321.665 77.2408 350.268 112.633 350.268C148.026 350.268 176.616 321.55 176.616 286.258Z" fill="#F77723"/>
<path opacity="0.1286" d="M169.353 286.258C169.353 255.003 143.99 229.629 112.748 229.629C81.5058 229.629 56.1431 255.003 56.1431 286.258C56.1431 317.513 81.5058 342.887 112.748 342.887C143.99 342.887 169.353 317.513 169.353 286.258Z" fill="#F77723"/>
<path opacity="0.2571" d="M161.975 286.258C161.975 259.039 139.841 236.895 112.633 236.895C85.4262 236.895 63.2915 259.039 63.2915 286.258C63.2915 313.477 85.4262 335.621 112.633 335.621C139.956 335.621 161.975 313.477 161.975 286.258Z" fill="#F77723"/>
<path opacity="0.3857" d="M154.712 286.258C154.712 263.076 135.92 244.277 112.748 244.277C89.5759 244.277 70.7844 263.076 70.7844 286.258C70.7844 309.44 89.5759 328.239 112.748 328.239C135.92 328.239 154.712 309.44 154.712 286.258Z" fill="#F77723"/>
<path opacity="0.5143" d="M147.334 286.258C147.334 267.113 131.771 251.542 112.634 251.542C93.4963 251.542 77.9329 267.113 77.9329 286.258C77.9329 305.403 93.4963 320.973 112.634 320.973C131.771 320.973 147.334 305.403 147.334 286.258Z" fill="#F77723"/>
<path opacity="0.6429" d="M140.07 286.258C140.07 271.149 127.85 258.924 112.748 258.924C97.5303 258.924 85.3101 271.149 85.3101 286.258C85.3101 301.367 97.5303 313.592 112.633 313.592C127.735 313.592 140.07 301.367 140.07 286.258Z" fill="#F77723"/>
<path opacity="0.7714" d="M132.691 286.258C132.691 275.186 123.698 266.19 112.631 266.19C101.564 266.19 92.5715 275.186 92.5715 286.258C92.5715 297.33 101.564 306.326 112.631 306.326C123.698 306.326 132.691 297.33 132.691 286.258Z" fill="#F77723"/>
<path opacity="0.9" d="M125.314 286.258C125.314 279.223 119.665 273.571 112.633 273.571C105.6 273.571 99.9514 279.223 99.9514 286.258C99.9514 293.293 105.6 298.945 112.633 298.945C119.665 298.945 125.314 293.293 125.314 286.258Z" fill="#F77723"/>
</g>
<rect opacity="0.2" x="148.026" y="118.563" width="5.53368" height="31.1401" fill="#F77723"/>
<rect opacity="0.2" x="56.9504" y="185.572" width="5.53368" height="25.604" fill="#F77723"/>
<rect opacity="0.2" x="326.257" y="131.942" width="5.53366" height="25.604" fill="#F77723"/>
<rect opacity="0.2" x="213.968" y="190.762" width="5.53368" height="25.604" fill="#F77723"/>
<rect opacity="0.2" x="80.0079" y="85.9233" width="5.53368" height="25.604" fill="#F77723"/>
<rect opacity="0.2" x="172.466" y="231.705" width="5.53369" height="11.6487" fill="#F77723"/>
<rect opacity="0.2" x="322.683" y="269.996" width="5.53366" height="25.6041" fill="#F77723"/>
<rect opacity="0.2" x="146.526" y="271.264" width="5.53369" height="5.88199" fill="#F77723"/>
<rect opacity="0.2" x="172.698" y="159.968" width="5.53368" height="5.882" fill="#F77723"/>
<rect opacity="0.2" x="85.3101" y="233.089" width="5.53368" height="5.88202" fill="#F77723"/>
<rect opacity="0.2" x="126.93" y="187.763" width="5.53368" height="5.88202" fill="#F77723"/>
<rect opacity="0.2" x="340.091" y="198.028" width="5.53369" height="5.882" fill="#F77723"/>
<rect opacity="0.2" x="275.761" y="178.421" width="5.53366" height="5.88202" fill="#F77723"/>
<rect opacity="0.2" x="33.8931" y="118.448" width="5.53368" height="5.88201" fill="#F77723"/>
<rect opacity="0.2" x="148.833" y="105.415" width="5.53368" height="5.65134" fill="#F77723"/>
<rect opacity="0.2" x="111.25" y="143.936" width="5.53368" height="5.65134" fill="#F77723"/>
<rect opacity="0.2" x="196.792" y="85.8081" width="5.53368" height="5.65134" fill="#F77723"/>
<rect opacity="0.2" x="358.882" y="243.354" width="5.53369" height="5.65132" fill="#F77723"/>
<path fill-rule="evenodd" clip-rule="evenodd" d="M244.864 346.693C245.556 348.307 246.709 349.115 247.977 349.115C248.092 349.115 248.208 349.115 248.899 348.653C249.13 348.538 249.36 348.423 249.36 348.192C250.974 341.849 247.401 335.505 243.712 330.777C244.403 329.393 245.325 328.239 246.478 327.317C246.594 327.201 246.738 327.115 246.882 327.028C247.026 326.942 247.17 326.855 247.285 326.74C247.659 326.516 247.984 326.243 248.292 325.985L248.292 325.985C248.459 325.845 248.622 325.709 248.784 325.587C248.899 327.201 249.591 328.931 250.629 330.315C250.744 330.546 250.974 330.546 251.205 330.546C251.436 330.431 251.666 330.315 251.666 330.085L251.684 330.003C252.257 327.368 252.926 324.288 252.127 321.435C251.551 319.589 250.398 317.859 248.784 316.706L255.24 317.629C253.395 322.357 253.626 327.201 255.932 331.469C255.932 331.584 256.047 331.699 256.162 331.699C257.776 332.622 260.082 332.737 262.157 332.161C262.157 335.736 262.964 339.311 264.693 342.656C264.809 342.887 265.039 343.002 265.27 343.002C266.884 342.887 268.382 341.849 269.189 340.465C269.881 339.196 269.881 337.812 269.881 336.659C269.881 333.314 269.881 329.854 269.766 326.509C270.919 324.895 271.61 323.28 271.956 321.781L272.302 321.089C273.57 318.321 273.686 317.283 273.686 316.36C273.686 315.437 273.801 314.63 274.954 312.093L273.916 311.631C272.648 314.399 272.533 315.437 272.533 316.36C272.508 316.508 272.489 316.65 272.469 316.795L272.469 316.795C272.396 317.33 272.319 317.899 271.956 318.897C271.841 318.321 271.726 317.744 271.495 317.283C271.38 317.052 271.265 316.937 271.034 316.937L268.844 316.706C268.613 316.706 268.498 316.706 268.382 316.821C268.152 316.937 268.152 317.167 268.152 317.283C268.21 318.378 268.267 319.445 268.325 320.512C268.382 321.579 268.44 322.646 268.498 323.741L268.498 323.741C268.431 323.808 268.403 323.836 268.369 323.848C268.344 323.857 268.316 323.857 268.267 323.857C268.022 323.918 267.777 323.947 267.515 323.977C267.284 324.004 267.039 324.033 266.769 324.087L266.668 324.102C265.885 324.213 265.011 324.337 264.348 324.779C263.31 325.356 262.964 326.279 262.734 327.201C262.388 328.585 262.272 329.854 262.157 331.238C260.197 331.815 258.237 331.815 256.739 331.123C254.548 326.971 254.433 322.357 256.393 317.744C256.508 317.629 256.508 317.398 256.393 317.283C256.278 317.167 256.162 317.052 255.932 317.052L244.518 315.322C244.173 315.322 243.827 315.437 243.827 315.783C243.827 316.129 243.942 316.36 244.288 316.475C248.092 317.167 250.167 319.935 250.744 322.127C251.32 324.433 250.974 326.625 250.513 328.931C249.822 327.547 249.476 326.163 249.591 324.664C249.822 324.203 249.937 323.741 249.822 323.165C249.706 322.934 249.476 322.703 249.245 322.703C248.899 322.703 248.784 322.934 248.669 323.165C248.649 323.244 248.629 323.319 248.61 323.393L248.61 323.393L248.61 323.393C248.517 323.748 248.438 324.051 248.438 324.433C247.977 325.125 247.055 325.817 246.248 326.394C246.017 326.509 245.671 326.74 245.441 326.971C244.173 327.893 243.25 329.047 242.559 330.315C242.098 329.739 241.636 329.162 241.175 328.701C240.714 328.182 240.224 327.634 239.734 327.086C239.244 326.538 238.754 325.99 238.293 325.471C237.965 325.107 237.637 324.745 237.31 324.384L237.309 324.383L237.308 324.382L237.308 324.382L237.307 324.381C235.569 322.464 233.869 320.589 232.414 318.551C232.376 318.362 232.338 318.169 232.299 317.974C232.104 316.981 231.896 315.921 231.607 314.861C231.376 313.823 230.569 310.939 227.687 310.247C227.456 310.132 227.226 310.247 227.11 310.363C226.995 310.478 226.88 310.709 226.995 310.939C227.802 313.707 229.416 316.36 231.261 318.897C231.722 321.665 231.607 324.087 231.145 326.279C230.223 330.315 227.802 333.775 224.344 335.967L224.92 336.889C228.609 334.467 231.261 330.777 232.183 326.509C232.529 324.664 232.644 322.703 232.529 320.627C233.547 321.881 234.619 323.082 235.707 324.301L235.707 324.301L235.707 324.301L235.707 324.301L235.707 324.301L235.707 324.302L235.707 324.302L235.708 324.302L235.708 324.302C236.221 324.877 236.738 325.457 237.256 326.048C237.965 326.758 238.621 327.522 239.26 328.266L239.26 328.266C239.555 328.61 239.846 328.949 240.138 329.277L241.867 331.353C241.175 332.968 240.945 334.813 241.175 336.774C241.636 340.234 243.25 343.579 244.864 346.693ZM242.329 336.659C242.099 335.275 242.329 333.775 242.675 332.507C245.903 336.889 248.901 342.425 247.863 347.846C246.941 347.731 246.249 346.808 245.903 346.116C244.289 343.117 242.675 339.888 242.329 336.659ZM262.734 332.391C262.619 335.736 263.426 339.196 265.04 342.31C266.423 342.079 267.345 341.157 267.691 340.349C268.268 339.311 268.268 338.043 268.268 337.005C268.268 334.121 268.268 331.238 268.152 328.239C268.037 328.355 267.951 328.47 267.864 328.585C267.778 328.701 267.691 328.816 267.576 328.931C265.962 330.546 264.463 331.699 262.734 332.391ZM266.539 325.471C267 325.471 267.576 325.356 268.153 325.241V326.394C267.692 327.086 267.115 327.663 266.77 328.009C265.501 329.277 264.233 330.315 262.85 330.892C262.965 329.854 263.196 328.701 263.426 327.663C263.657 326.855 263.887 326.279 264.464 325.933C265.04 325.702 265.732 325.587 266.539 325.471ZM268.959 318.321C269.075 320.051 269.19 321.781 269.19 323.395C269.651 322.934 270.112 322.357 270.458 321.781C270.689 320.743 270.573 319.589 270.228 318.436L268.959 318.321ZM230.684 316.245C229.762 314.745 228.955 313.361 228.378 311.862C229.3 312.439 229.877 313.477 230.453 315.207C230.511 315.38 230.54 315.553 230.569 315.726C230.597 315.899 230.626 316.072 230.684 316.245Z" fill="white"/>
<path fill-rule="evenodd" clip-rule="evenodd" d="M181.342 244.507L178.806 246.007L185.608 249.928L183.072 251.427L176.385 247.391L173.734 248.89L171.543 247.621L179.152 243.239L181.342 244.507ZM175.003 252.35C175.047 252.438 175.091 252.509 175.129 252.57C175.19 252.669 175.234 252.74 175.234 252.811C175.234 252.927 175.234 253.157 175.118 253.273C175.003 253.388 174.888 253.503 174.773 253.734C174.715 253.792 174.628 253.849 174.542 253.907C174.456 253.965 174.369 254.022 174.311 254.08C173.966 254.311 173.62 254.426 173.274 254.426C172.928 254.541 172.467 254.541 172.121 254.541C171.775 254.541 171.314 254.426 170.968 254.311C170.622 254.195 170.276 254.08 169.931 253.849C169.7 253.734 169.469 253.503 169.239 253.273C169.008 253.042 168.893 252.811 168.893 252.581C168.893 252.35 168.893 252.119 169.008 251.889C169.124 251.658 169.354 251.427 169.7 251.197C169.815 251.081 170.046 250.966 170.276 250.966C170.392 250.908 170.507 250.879 170.622 250.851C170.738 250.822 170.853 250.793 170.968 250.735C171.083 250.735 171.228 250.706 171.372 250.678C171.516 250.649 171.66 250.62 171.775 250.62C172.006 250.62 172.352 250.62 172.697 250.735L173.274 248.89C172.352 248.775 171.429 248.775 170.392 248.89C169.354 249.005 168.432 249.351 167.625 249.928C166.933 250.389 166.357 250.851 166.126 251.312C165.78 251.773 165.665 252.235 165.665 252.696C165.665 253.157 165.896 253.619 166.126 254.08C166.472 254.541 166.933 254.887 167.394 255.233C167.971 255.579 168.663 255.81 169.469 256.041C170.276 256.271 171.083 256.387 171.89 256.387C172.697 256.387 173.504 256.387 174.427 256.156C175.234 256.041 176.041 255.695 176.617 255.349C176.963 255.118 177.309 254.887 177.655 254.541C178.001 254.311 178.231 253.965 178.346 253.619C178.577 253.273 178.577 253.042 178.577 252.696C178.577 252.422 178.505 252.221 178.418 251.977C178.395 251.913 178.37 251.845 178.346 251.773L175.003 252.35ZM157.596 255.81L163.36 262.845L165.897 261.346L164.629 260.077L167.05 258.693L169.355 259.385L171.892 257.886L159.787 254.541L157.596 255.81ZM157.94 260.885C157.709 260.539 157.363 260.193 156.787 259.847C156.552 259.69 156.264 259.586 155.922 259.464C155.761 259.406 155.588 259.344 155.403 259.27C155.319 259.253 155.238 259.236 155.158 259.22L155.158 259.22C154.69 259.123 154.282 259.039 153.789 259.039C153.213 259.039 152.637 259.039 152.175 259.155C151.599 259.27 151.138 259.501 150.677 259.731L146.526 262.153L155.519 267.343L157.94 265.959L155.173 264.345L156.095 263.768L160.476 264.46L163.243 262.845L158.055 262.038C158.285 261.577 158.17 261.231 157.94 260.885ZM145.606 262.615L147.796 263.883L145.26 265.383L152.062 269.304L149.641 270.688L142.839 266.767L140.188 268.266L137.997 266.997L145.606 262.615ZM134.538 269.073L139.035 271.726L130.849 271.149L128.889 272.303L137.882 277.493L140.303 276.109L135.922 273.571L143.877 274.033L145.836 272.879L136.844 267.689L134.538 269.073ZM132.348 275.532C131.772 275.186 131.08 274.955 130.388 274.725L130.388 274.725C129.581 274.494 128.89 274.379 127.967 274.379C127.16 274.379 126.353 274.494 125.546 274.609C124.739 274.725 123.932 275.071 123.241 275.417C122.549 275.763 122.088 276.224 121.742 276.685C121.396 277.147 121.281 277.608 121.281 278.069C121.281 278.531 121.396 278.992 121.742 279.453C122.088 279.915 122.549 280.261 123.125 280.607C123.702 280.953 124.394 281.183 125.201 281.414C126.008 281.645 126.814 281.76 127.621 281.76C128.428 281.76 129.235 281.645 130.042 281.529C130.849 281.414 131.656 281.068 132.348 280.722C133.04 280.376 133.501 279.915 133.847 279.453C134.193 278.992 134.308 278.531 134.308 278.069C134.308 277.608 134.193 277.147 133.847 276.685C133.684 276.563 133.522 276.427 133.354 276.287C133.046 276.029 132.721 275.756 132.348 275.532ZM122.318 283.375C122.318 283.49 122.318 283.721 122.202 283.836C122.087 283.951 121.972 284.067 121.857 284.297C121.799 284.355 121.712 284.413 121.626 284.47C121.539 284.528 121.453 284.586 121.395 284.643C121.05 284.874 120.704 284.989 120.358 284.989C120.012 285.105 119.551 285.105 119.205 285.105C118.859 285.105 118.398 284.989 118.052 284.874C117.706 284.759 117.36 284.643 117.015 284.413C116.784 284.297 116.553 284.067 116.323 283.836C116.092 283.605 115.977 283.375 115.977 283.144C115.977 282.913 115.977 282.683 116.092 282.452C116.208 282.221 116.438 281.991 116.784 281.76C116.899 281.645 117.13 281.529 117.36 281.529C117.476 281.472 117.591 281.443 117.706 281.414C117.822 281.385 117.937 281.356 118.052 281.299C118.167 281.299 118.312 281.27 118.456 281.241C118.6 281.212 118.744 281.183 118.859 281.183C119.09 281.183 119.436 281.183 119.781 281.299L120.358 279.453C119.436 279.338 118.513 279.338 117.476 279.453C116.438 279.569 115.516 279.915 114.709 280.491C114.017 280.953 113.441 281.414 113.21 281.875C112.864 282.337 112.749 282.798 112.749 283.259C112.749 283.721 112.98 284.182 113.21 284.643C113.556 285.105 114.017 285.451 114.478 285.797C115.055 286.143 115.746 286.373 116.553 286.604C117.36 286.835 118.167 286.95 118.974 286.95C119.781 286.95 120.588 286.95 121.511 286.719C122.318 286.604 123.125 286.258 123.701 285.912C124.047 285.681 124.393 285.451 124.739 285.105C125.085 284.874 125.315 284.528 125.43 284.182C125.661 283.836 125.661 283.605 125.661 283.259C125.661 282.986 125.589 282.784 125.502 282.54L125.501 282.54C125.478 282.476 125.454 282.409 125.43 282.337L122.087 282.913C122.202 283.029 122.318 283.259 122.318 283.375ZM130.157 279.569C130.503 279.338 130.734 279.107 130.849 278.877C130.964 278.646 130.964 278.415 130.964 278.185C130.964 277.954 130.849 277.723 130.618 277.493C130.503 277.262 130.273 277.031 129.927 276.916C129.581 276.685 129.235 276.57 128.889 276.455C128.543 276.339 128.082 276.224 127.736 276.224C127.39 276.224 126.929 276.224 126.583 276.339C126.122 276.455 125.776 276.57 125.431 276.801C125.085 277.031 124.854 277.262 124.739 277.493C124.624 277.723 124.624 277.954 124.624 278.185C124.624 278.415 124.739 278.646 124.969 278.877C125.085 279.107 125.315 279.338 125.661 279.453C126.007 279.684 126.353 279.799 126.699 279.915C127.045 280.03 127.506 280.145 127.852 280.145C128.197 280.145 128.659 280.145 129.004 280.03C129.466 279.915 129.811 279.799 130.157 279.569ZM153.099 263.076L154.713 262.153C154.829 262.038 154.944 261.923 154.713 261.807C154.713 261.577 154.598 261.461 154.252 261.231C154.18 261.207 154.113 261.182 154.049 261.159L154.049 261.159C153.805 261.072 153.604 261 153.33 261C152.984 261 152.753 261 152.638 261.115L151.139 261.923L153.099 263.076ZM163.475 258.809L165.089 257.886L161.515 256.733L163.475 258.809Z" fill="white"/>
<path d="M355.363 295.786L359.827 290.829L425.387 255.876L424.112 254.477L430.234 250.029L432.403 256.511L433.04 260.324L355.363 295.786Z" fill="#70789C"/>
<path d="M355.363 295.786V295.786C356.766 298.328 359.955 299.344 362.506 297.946L433.04 260.451C433.04 260.451 428.704 256.765 428.576 256.765L355.363 295.786Z" fill="url(#paint5_linear)"/>
<path d="M356.256 296.675L429.597 257.528C429.597 257.528 431.637 259.307 433.04 260.324H433.168C433.168 260.324 428.831 256.638 428.704 256.638L355.363 295.785C355.745 296.421 356.256 297.056 356.766 297.438C356.638 297.184 356.383 296.929 356.256 296.675Z" fill="url(#paint6_linear)"/>
<path d="M265.441 330.103C263.4 331.12 257.15 332.772 256.13 330.739C255.109 328.705 259.573 323.875 261.614 322.858C263.655 321.842 266.078 322.477 267.226 324.511C268.119 326.544 267.354 328.959 265.441 330.103Z" fill="url(#paint7_radial)"/>
<path d="M301.027 322.477C311.614 316.884 297.456 289.557 285.849 296.294C274.242 303.03 261.359 320.443 261.359 320.443V320.443C259.829 322.223 259.574 324.511 261.104 327.561C262.762 330.484 264.038 331.374 267.227 331.247V331.247C267.099 331.12 290.313 328.069 301.027 322.477Z" fill="url(#paint8_linear)"/>
<path d="M327.43 308.623L312.889 281.677L285.594 296.167V296.167H285.466C281.129 298.455 280.874 306.462 284.828 313.834C288.91 321.333 295.67 325.4 300.007 323.113H300.134V323.113L327.43 308.623Z" fill="url(#paint9_linear)"/>
<path d="M327.304 308.75C322.967 311.038 316.207 306.971 312.125 299.472C308.044 291.973 308.427 284.092 312.763 281.804C317.1 279.517 323.86 283.584 327.942 291.083C331.896 298.455 331.64 306.335 327.304 308.75Z" fill="url(#paint10_linear)"/>
<path d="M426.791 255.494L412.25 228.548L312.634 282.058V282.058H312.507C308.17 284.346 307.915 292.354 311.869 299.726C315.951 307.225 322.711 311.292 327.047 309.004H327.175V309.004L426.791 255.494Z" fill="url(#paint11_linear)"/>
<path d="M426.792 255.494C422.455 257.782 415.695 253.715 411.613 246.216C407.532 238.717 407.914 230.836 412.251 228.549C416.588 226.261 423.348 230.328 427.429 237.827C431.384 245.199 431.128 253.206 426.792 255.494Z" fill="url(#paint12_linear)"/>
<path d="M412.251 246.089C408.169 238.589 408.552 230.709 412.889 228.421C413.016 228.421 413.144 228.294 413.144 228.294C412.634 228.421 412.123 228.548 411.741 228.803C407.404 231.09 407.149 239.098 411.103 246.47C415.057 253.715 421.562 257.782 425.899 255.875C421.69 256.765 415.822 252.825 412.251 246.089Z" fill="url(#paint13_linear)"/>
<path d="M442.735 243.801L430.363 220.922L414.929 229.438V229.438H414.802C411.103 231.472 410.848 238.081 414.291 244.436C417.735 250.791 423.475 254.223 427.174 252.317C427.174 252.317 427.174 252.317 427.301 252.317V252.317L442.735 243.801Z" fill="url(#paint14_linear)"/>
<path d="M442.608 243.801C438.909 245.834 433.169 242.276 429.726 235.92C426.282 229.565 426.537 222.829 430.236 220.922C433.935 218.889 439.674 222.448 443.118 228.803C446.562 235.158 446.307 241.894 442.608 243.801Z" fill="url(#paint15_linear)"/>
<path d="M430.236 235.793C427.175 230.074 427.047 223.973 429.853 221.431C429.726 221.431 429.726 221.431 429.598 221.558C425.899 223.591 425.644 230.201 429.088 236.556C432.532 242.911 438.272 246.343 441.971 244.436C442.353 244.309 442.608 244.055 442.863 243.801C439.164 245.453 433.68 241.894 430.236 235.793Z" fill="url(#paint16_linear)"/>
<path d="M401.919 234.904L286.486 297.311C286.486 297.311 285.594 297.946 285.211 298.328C273.987 305.572 261.359 320.443 261.359 320.443V320.443C259.829 322.223 259.574 324.511 261.104 327.561C262.762 330.484 264.038 331.374 267.227 331.247V331.247C267.227 331.247 286.614 328.705 298.093 323.875C298.859 323.748 299.496 323.621 300.134 323.24H300.262V323.24L416.332 261.214L401.919 234.904Z" fill="white" fill-opacity="0.1"/>
<path opacity="0.2" d="M385.083 399.755L283.936 339.636C283.936 339.636 283.043 339.127 282.788 339C272.712 333.535 259.447 329.086 259.447 329.086V329.086C257.788 328.578 257.023 328.959 257.406 330.866C257.788 332.772 258.554 333.916 260.85 335.95V335.95C260.85 335.95 275.773 348.279 285.467 354.634C285.977 355.142 286.615 355.524 287.125 355.778C287.125 355.778 287.125 355.778 287.252 355.778V355.778L388.909 416.533L385.083 399.755Z" fill="url(#paint17_radial)"/>
<defs>
<linearGradient id="paint0_linear" x1="-209.481" y1="307.524" x2="-62.3256" y2="654.943" gradientUnits="userSpaceOnUse">
<stop stop-color="#FAD961"/>
<stop offset="1" stop-color="#F76B1C"/>
</linearGradient>
<linearGradient id="paint1_linear" x1="-209.481" y1="322.402" x2="-62.3257" y2="669.821" gradientUnits="userSpaceOnUse">
<stop stop-color="#FAD961"/>
<stop offset="1" stop-color="#F76B1C"/>
</linearGradient>
<linearGradient id="paint2_linear" x1="308.006" y1="356.444" x2="297.172" y2="345.008" gradientUnits="userSpaceOnUse">
<stop offset="0.00537634" stop-color="#857FAA"/>
<stop offset="0.2214" stop-color="#8F89B4"/>
<stop offset="0.6427" stop-color="#9D98C2"/>
<stop offset="0.9949" stop-color="#A29DC7"/>
</linearGradient>
<linearGradient id="paint3_linear" x1="73.0215" y1="300.145" x2="197.125" y2="300.183" gradientUnits="userSpaceOnUse">
<stop stop-color="#148A9E"/>
<stop offset="1" stop-color="#087DC2"/>
</linearGradient>
<linearGradient id="paint4_linear" x1="-88.4339" y1="277.527" x2="11.4323" y2="512.461" gradientUnits="userSpaceOnUse">
<stop stop-color="#FAD961"/>
<stop offset="1" stop-color="#F76B1C"/>
</linearGradient>
<linearGradient id="paint5_linear" x1="361.703" y1="271.245" x2="367.145" y2="300.537" gradientUnits="userSpaceOnUse">
<stop stop-color="#D6DAE6"/>
<stop offset="0.0147448" stop-color="#D4D8E6"/>
<stop offset="0.2778" stop-color="#B4B8E3"/>
<stop offset="0.3952" stop-color="#9A9FC8"/>
<stop offset="0.5296" stop-color="#838AB0"/>
<stop offset="0.6539" stop-color="#757DA1"/>
<stop offset="0.7576" stop-color="#70789C"/>
<stop offset="0.8533" stop-color="#777EA2"/>
<stop offset="0.9888" stop-color="#898EB3"/>
<stop offset="1" stop-color="#8B90B5"/>
</linearGradient>
<linearGradient id="paint6_linear" x1="367.604" y1="285.531" x2="398.667" y2="285.531" gradientUnits="userSpaceOnUse">
<stop stop-color="#D8D6ED"/>
<stop offset="1" stop-color="#555269"/>
</linearGradient>
<radialGradient id="paint7_radial" cx="0" cy="0" r="1" gradientUnits="userSpaceOnUse" gradientTransform="translate(262.066 325.851) rotate(61.5954) scale(7.26718 8.32594)">
<stop stop-color="#8493BA"/>
<stop offset="0.2117" stop-color="#606C90"/>
<stop offset="0.3258" stop-color="#444D6E"/>
<stop offset="0.4337" stop-color="#303756"/>
<stop offset="0.5332" stop-color="#232A47"/>
<stop offset="0.6162" stop-color="#1F2542"/>
<stop offset="0.7061" stop-color="#242A49"/>
<stop offset="0.8335" stop-color="#34395B"/>
<stop offset="0.9827" stop-color="#4D5179"/>
<stop offset="1" stop-color="#4D517A"/>
</radialGradient>
<linearGradient id="paint8_linear" x1="257.867" y1="308.391" x2="267.632" y2="336.162" gradientUnits="userSpaceOnUse">
<stop stop-color="#BEC5D8"/>
<stop offset="0.2121" stop-color="#EBEDF3"/>
<stop offset="0.2401" stop-color="#E2E4EC"/>
<stop offset="0.4982" stop-color="#9097B3"/>
<stop offset="0.6162" stop-color="#70789C"/>
<stop offset="0.6814" stop-color="#767EA3"/>
<stop offset="0.7737" stop-color="#888EB5"/>
<stop offset="0.8232" stop-color="#949AC2"/>
<stop offset="1" stop-color="#8B90B5"/>
</linearGradient>
<linearGradient id="paint9_linear" x1="324.568" y1="312.343" x2="308.391" y2="274.634" gradientUnits="userSpaceOnUse">
<stop stop-color="#B75700"/>
<stop offset="0.157901" stop-color="#702F03"/>
<stop offset="0.3548" stop-color="#F4AD21"/>
<stop offset="0.5699" stop-color="#FFE7AC"/>
<stop offset="0.8172" stop-color="#F4AD21"/>
<stop offset="1" stop-color="#FFE7AC"/>
</linearGradient>
<linearGradient id="paint10_linear" x1="300.86" y1="262.832" x2="294.317" y2="318.3" gradientUnits="userSpaceOnUse">
<stop stop-color="#D6DAE6"/>
<stop offset="0.0147448" stop-color="#D4D8E6"/>
<stop offset="0.2778" stop-color="#B4B8E3"/>
<stop offset="0.3952" stop-color="#9A9FC8"/>
<stop offset="0.5296" stop-color="#838AB0"/>
<stop offset="0.6539" stop-color="#757DA1"/>
<stop offset="0.7576" stop-color="#70789C"/>
<stop offset="0.8533" stop-color="#777EA2"/>
<stop offset="0.9888" stop-color="#898EB3"/>
<stop offset="1" stop-color="#8B90B5"/>
</linearGradient>
<linearGradient id="paint11_linear" x1="339.246" y1="262.463" x2="346.517" y2="290.797" gradientUnits="userSpaceOnUse">
<stop stop-color="#BEC5D8"/>
<stop offset="0.1208" stop-color="#DFE2EC"/>
<stop offset="0.2525" stop-color="white"/>
<stop offset="0.2865" stop-color="#E9EAF0"/>
<stop offset="0.3607" stop-color="#BEC1D2"/>
<stop offset="0.4328" stop-color="#9CA1BA"/>
<stop offset="0.501" stop-color="#848BAA"/>
<stop offset="0.5638" stop-color="#757D9F"/>
<stop offset="0.6162" stop-color="#70789C"/>
<stop offset="0.672" stop-color="#767EA3"/>
<stop offset="0.751" stop-color="#888FB5"/>
<stop offset="0.8436" stop-color="#A5AAD4"/>
<stop offset="0.8838" stop-color="#B4B8E3"/>
<stop offset="0.8872" stop-color="#B2B6E1"/>
<stop offset="0.929" stop-color="#9DA1C9"/>
<stop offset="0.9677" stop-color="#9094BA"/>
<stop offset="1" stop-color="#8B90B5"/>
</linearGradient>
<linearGradient id="paint12_linear" x1="400.275" y1="209.614" x2="393.732" y2="265.079" gradientUnits="userSpaceOnUse">
<stop stop-color="#D6DAE6"/>
<stop offset="0.0147448" stop-color="#D4D8E6"/>
<stop offset="0.2778" stop-color="#B4B8E3"/>
<stop offset="0.3952" stop-color="#9A9FC8"/>
<stop offset="0.5296" stop-color="#838AB0"/>
<stop offset="0.6539" stop-color="#757DA1"/>
<stop offset="0.7576" stop-color="#70789C"/>
<stop offset="0.8533" stop-color="#777EA2"/>
<stop offset="0.9888" stop-color="#898EB3"/>
<stop offset="1" stop-color="#8B90B5"/>
</linearGradient>
<linearGradient id="paint13_linear" x1="411.072" y1="248.158" x2="418.097" y2="248.158" gradientUnits="userSpaceOnUse">
<stop stop-color="#D8D6ED"/>
<stop offset="1" stop-color="#555269"/>
</linearGradient>
<linearGradient id="paint14_linear" x1="440.789" y1="244.188" x2="427.598" y2="216.627" gradientUnits="userSpaceOnUse">
<stop stop-color="#B75700"/>
<stop offset="0.157901" stop-color="#702F03"/>
<stop offset="0.3548" stop-color="#F4AD21"/>
<stop offset="0.5699" stop-color="#FFE7AC"/>
<stop offset="0.8172" stop-color="#F4AD21"/>
<stop offset="1" stop-color="#FFE7AC"/>
</linearGradient>
<linearGradient id="paint15_linear" x1="415.942" y1="228.14" x2="438.278" y2="251.064" gradientUnits="userSpaceOnUse">
<stop stop-color="#FAD961"/>
<stop offset="1" stop-color="#F76B1C"/>
</linearGradient>
<linearGradient id="paint16_linear" x1="430.995" y1="257.333" x2="454.919" y2="245.134" gradientUnits="userSpaceOnUse">
<stop stop-color="#FAD961"/>
<stop offset="1" stop-color="#F76B1C"/>
</linearGradient>
<radialGradient id="paint17_radial" cx="0" cy="0" r="1" gradientUnits="userSpaceOnUse" gradientTransform="translate(263.084 325.466) rotate(42.4479) scale(53.9094 56.4197)">
<stop/>
<stop offset="1" stop-color="white" stop-opacity="0.01"/>
</radialGradient>
</defs>
</svg>
